# MagicaVoxel @ Ephtracy

# group
o 

# material
mtllib Character-2.mtl
usemtl palette

# normals
vn -1 0 0
vn 1 0 0
vn 0 0 1
vn 0 0 -1
vn 0 -1 0
vn 0 1 0

# texcoords
vt 0.0371094 0.5
vt 0.0449219 0.5
vt 0.0488281 0.5
vt 0.251953 0.5
vt 0.259766 0.5
vt 0.521484 0.5
vt 0.525391 0.5
vt 0.873047 0.5
vt 0.935547 0.5
vt 0.974609 0.5

# verts
v 1.4 0.6 8.4
v 1.4 0.6 8.2
v 1.4 0.8 8.4
v 1.4 0.8 8.2
v 1.4 1.4 8.4
v 1.4 1.4 8.2
v 1.5 1.6 8.4
v 1.5 1.6 8.3
v 1.5 1.6 8
v 1.5 1.7 8.5
v 1.5 1.7 8.4
v 1.5 1.9 8.6
v 1.5 1.9 8.5
v 1.5 1.9 8.4
v 1.5 1.9 8.3
v 1.5 2.4 8.6
v 1.5 2.4 8
v 1.6 0 8.5
v 1.6 0 8.2
v 1.6 0.1 8.5
v 1.6 0.1 8.4
v 1.6 0.1 8.2
v 1.6 0.2 8.4
v 1.6 0.2 8.2
v 1.6 0.6 8.4
v 1.6 0.6 8.2
v 1.6 0.7 8.5
v 1.6 0.7 8.4
v 1.6 0.7 8.2
v 1.6 0.7 8.1
v 1.6 0.8 8.5
v 1.6 0.8 8.4
v 1.6 0.8 8.2
v 1.6 0.8 8.1
v 1.6 1.4 8.5
v 1.6 1.4 8.4
v 1.6 1.4 8.2
v 1.6 1.4 8.1
v 1.6 1.5 8.6
v 1.6 1.5 8.1
v 1.6 1.6 8.4
v 1.6 1.6 8.3
v 1.6 1.6 8.1
v 1.6 1.7 8.5
v 1.6 1.7 8.4
v 1.6 1.9 8.7
v 1.6 1.9 8.6
v 1.6 1.9 8.5
v 1.6 2 8.7
v 1.6 2 8.6
v 1.6 2.4 8.6
v 1.6 2.4 8
v 1.6 2.5 8.6
v 1.6 2.5 8.4
v 1.6 2.5 8.3
v 1.6 2.5 8.2
v 1.6 2.5 8.1
v 1.6 2.5 8
v 1.6 2.6 8.4
v 1.6 2.6 8.3
v 1.6 2.6 8.2
v 1.6 2.6 8.1
v 1.7 2.5 8.3
v 1.7 2.5 8.2
v 1.7 2.6 8.3
v 1.7 2.6 8.2
v 1.8 1.4 8.4
v 1.8 1.4 8.2
v 1.8 1.5 8.4
v 1.8 1.5 8.2
v 1.8 2.4 8.6
v 1.8 2.4 8.5
v 1.8 2.5 8.5
v 1.8 2.5 8.4
v 1.8 2.5 8.3
v 1.8 2.5 8.2
v 1.8 2.5 8.1
v 1.8 2.6 8.6
v 1.8 2.6 8.5
v 1.8 2.6 8.4
v 1.8 2.6 8.3
v 1.8 2.6 8.2
v 1.8 2.6 8.1
v 2 0 8.5
v 2 0 8.2
v 2 0.1 8.5
v 2 0.1 8.4
v 2 0.1 8.2
v 2 0.2 8.4
v 2 0.2 8.2
v 2 0.7 8.4
v 2 0.7 8.2
v 2 1.9 8.7
v 2 1.9 8.6
v 2 2 8.7
v 2 2 8.6
v 2 2.5 8.6
v 2 2.5 8.5
v 2 2.5 8.3
v 2 2.5 8.2
v 2 2.6 8.6
v 2 2.6 8.5
v 2 2.6 8.3
v 2 2.6 8.2
v 2.1 2.5 8.5
v 2.1 2.5 8.4
v 2.1 2.5 8.2
v 2.1 2.5 8.1
v 2.1 2.6 8.5
v 2.1 2.6 8.4
v 2.1 2.6 8.2
v 2.1 2.6 8.1
v 2.2 2.5 8.4
v 2.2 2.5 8.3
v 2.2 2.6 8.4
v 2.2 2.6 8.3
v 1.7 2.4 8.6
v 1.7 2.4 8.5
v 1.7 2.5 8.6
v 1.7 2.5 8.5
v 1.7 2.5 8.4
v 1.7 2.5 8.3
v 1.7 2.5 8.2
v 1.7 2.5 8.1
v 1.7 2.6 8.4
v 1.7 2.6 8.3
v 1.7 2.6 8.2
v 1.7 2.6 8.1
v 1.8 0 8.5
v 1.8 0 8.2
v 1.8 0.1 8.5
v 1.8 0.1 8.4
v 1.8 0.1 8.2
v 1.8 0.2 8.4
v 1.8 0.2 8.2
v 1.8 0.7 8.4
v 1.8 0.7 8.2
v 1.8 1.9 8.7
v 1.8 1.9 8.6
v 1.8 2 8.7
v 1.8 2 8.6
v 1.8 2.5 8.3
v 1.8 2.5 8.2
v 1.8 2.6 8.3
v 1.8 2.6 8.2
v 1.9 2.5 8.6
v 1.9 2.5 8.5
v 1.9 2.5 8.4
v 1.9 2.5 8.3
v 1.9 2.5 8.2
v 1.9 2.5 8.1
v 1.9 2.6 8.6
v 1.9 2.6 8.5
v 1.9 2.6 8.4
v 1.9 2.6 8.3
v 1.9 2.6 8.2
v 1.9 2.6 8.1
v 2 1.4 8.4
v 2 1.4 8.2
v 2 1.5 8.4
v 2 1.5 8.2
v 2.1 2.5 8.6
v 2.1 2.5 8.5
v 2.1 2.5 8.3
v 2.1 2.5 8.2
v 2.1 2.6 8.6
v 2.1 2.6 8.5
v 2.1 2.6 8.3
v 2.1 2.6 8.2
v 2.2 0 8.5
v 2.2 0 8.2
v 2.2 0.1 8.5
v 2.2 0.1 8.4
v 2.2 0.1 8.2
v 2.2 0.2 8.4
v 2.2 0.2 8.2
v 2.2 0.6 8.4
v 2.2 0.6 8.2
v 2.2 0.7 8.5
v 2.2 0.7 8.4
v 2.2 0.7 8.2
v 2.2 0.7 8.1
v 2.2 0.8 8.5
v 2.2 0.8 8.4
v 2.2 0.8 8.2
v 2.2 0.8 8.1
v 2.2 1.4 8.5
v 2.2 1.4 8.4
v 2.2 1.4 8.2
v 2.2 1.4 8.1
v 2.2 1.5 8.6
v 2.2 1.5 8.1
v 2.2 1.6 8.4
v 2.2 1.6 8.3
v 2.2 1.6 8.1
v 2.2 1.7 8.5
v 2.2 1.7 8.4
v 2.2 1.9 8.7
v 2.2 1.9 8.6
v 2.2 2 8.7
v 2.2 2 8.6
v 2.2 2 8.5
v 2.2 2.4 8.6
v 2.2 2.4 8.5
v 2.2 2.4 8.1
v 2.2 2.4 8
v 2.2 2.5 8.6
v 2.2 2.5 8.5
v 2.2 2.5 8.4
v 2.2 2.5 8.2
v 2.2 2.5 8.1
v 2.2 2.5 8
v 2.2 2.6 8.5
v 2.2 2.6 8.4
v 2.2 2.6 8.2
v 2.2 2.6 8.1
v 2.3 1.6 8.4
v 2.3 1.6 8.3
v 2.3 1.6 8
v 2.3 1.7 8.5
v 2.3 1.7 8.4
v 2.3 1.9 8.4
v 2.3 1.9 8.3
v 2.3 2 8.6
v 2.3 2 8.5
v 2.3 2.4 8.6
v 2.3 2.4 8.5
v 2.3 2.4 8.1
v 2.3 2.4 8
v 2.3 2.5 8.5
v 2.3 2.5 8.4
v 2.3 2.5 8.3
v 2.3 2.5 8.1
v 2.3 2.6 8.4
v 2.3 2.6 8.3
v 2.4 0.6 8.4
v 2.4 0.6 8.2
v 2.4 0.8 8.4
v 2.4 0.8 8.2
v 2.4 1.4 8.4
v 2.4 1.4 8.2
v 1.6 1.9 8.7
v 1.6 2 8.7
v 1.8 1.9 8.7
v 1.8 2 8.7
v 2 1.9 8.7
v 2 2 8.7
v 2.2 1.9 8.7
v 2.2 2 8.7
v 1.5 1.9 8.6
v 1.5 2.4 8.6
v 1.6 1.5 8.6
v 1.6 1.9 8.6
v 1.6 2 8.6
v 1.6 2.2 8.6
v 1.6 2.4 8.6
v 1.6 2.5 8.6
v 1.7 1.8 8.6
v 1.7 1.9 8.6
v 1.7 2.4 8.6
v 1.7 2.5 8.6
v 1.8 1.6 8.6
v 1.8 1.7 8.6
v 1.8 1.8 8.6
v 1.8 1.9 8.6
v 1.8 2 8.6
v 1.8 2.4 8.6
v 1.8 2.6 8.6
v 1.9 2.5 8.6
v 1.9 2.6 8.6
v 2 1.6 8.6
v 2 1.7 8.6
v 2 1.8 8.6
v 2 1.9 8.6
v 2 2 8.6
v 2 2.5 8.6
v 2 2.6 8.6
v 2.1 1.8 8.6
v 2.1 1.9 8.6
v 2.1 2.5 8.6
v 2.1 2.6 8.6
v 2.2 1.5 8.6
v 2.2 1.9 8.6
v 2.2 2 8.6
v 2.2 2.2 8.6
v 2.2 2.4 8.6
v 2.2 2.5 8.6
v 2.3 2 8.6
v 2.3 2.4 8.6
v 1.5 1.7 8.5
v 1.5 1.9 8.5
v 1.6 0 8.5
v 1.6 0.1 8.5
v 1.6 0.7 8.5
v 1.6 0.8 8.5
v 1.6 1.4 8.5
v 1.6 1.7 8.5
v 1.6 1.9 8.5
v 1.7 0.8 8.5
v 1.7 1.4 8.5
v 1.7 2.4 8.5
v 1.7 2.5 8.5
v 1.8 0 8.5
v 1.8 0.1 8.5
v 1.8 1 8.5
v 1.8 1.3 8.5
v 1.8 2.4 8.5
v 1.8 2.5 8.5
v 1.9 1 8.5
v 1.9 1.1 8.5
v 2 0 8.5
v 2 0.1 8.5
v 2 1.1 8.5
v 2 1.2 8.5
v 2.1 0.8 8.5
v 2.1 1.2 8.5
v 2.1 1.3 8.5
v 2.1 1.4 8.5
v 2.1 2.5 8.5
v 2.1 2.6 8.5
v 2.2 0 8.5
v 2.2 0.1 8.5
v 2.2 0.7 8.5
v 2.2 0.8 8.5
v 2.2 1.4 8.5
v 2.2 1.7 8.5
v 2.2 2 8.5
v 2.2 2.4 8.5
v 2.2 2.5 8.5
v 2.2 2.6 8.5
v 2.3 1.7 8.5
v 2.3 2 8.5
v 2.3 2.4 8.5
v 2.3 2.5 8.5
v 1.4 0.6 8.4
v 1.4 0.8 8.4
v 1.4 1.4 8.4
v 1.5 1.6 8.4
v 1.5 1.7 8.4
v 1.6 0.1 8.4
v 1.6 0.2 8.4
v 1.6 0.6 8.4
v 1.6 0.7 8.4
v 1.6 0.8 8.4
v 1.6 1.4 8.4
v 1.6 1.6 8.4
v 1.6 1.7 8.4
v 1.6 2.5 8.4
v 1.6 2.6 8.4
v 1.7 2.5 8.4
v 1.7 2.6 8.4
v 1.8 0.1 8.4
v 1.8 0.2 8.4
v 1.8 0.7 8.4
v 1.8 1.4 8.4
v 1.8 1.5 8.4
v 1.8 2.5 8.4
v 1.8 2.6 8.4
v 1.9 2.5 8.4
v 1.9 2.6 8.4
v 2 0.1 8.4
v 2 0.2 8.4
v 2 0.7 8.4
v 2 1.4 8.4
v 2 1.5 8.4
v 2.2 0.1 8.4
v 2.2 0.2 8.4
v 2.2 0.6 8.4
v 2.2 0.7 8.4
v 2.2 0.8 8.4
v 2.2 1.4 8.4
v 2.2 1.6 8.4
v 2.2 1.7 8.4
v 2.2 2.5 8.4
v 2.2 2.6 8.4
v 2.3 1.6 8.4
v 2.3 1.7 8.4
v 2.3 2.5 8.4
v 2.3 2.6 8.4
v 2.4 0.6 8.4
v 2.4 0.8 8.4
v 2.4 1.4 8.4
v 1.7 2.5 8.3
v 1.7 2.6 8.3
v 1.8 2.5 8.3
v 1.8 2.6 8.3
v 2 2.5 8.3
v 2 2.6 8.3
v 2.1 2.5 8.3
v 2.1 2.6 8.3
v 1.6 2.5 8.2
v 1.6 2.6 8.2
v 1.7 2.5 8.2
v 1.7 2.6 8.2
v 1.8 2.5 8.2
v 1.8 2.6 8.2
v 1.9 2.5 8.2
v 1.9 2.6 8.2
v 2.1 2.5 8.2
v 2.1 2.6 8.2
v 2.2 2.5 8.2
v 2.2 2.6 8.2
v 1.8 2.5 8.5
v 1.8 2.6 8.5
v 1.9 2.5 8.5
v 1.9 2.6 8.5
v 2 2.5 8.5
v 2 2.6 8.5
v 2.1 2.5 8.5
v 2.1 2.6 8.5
v 2.1 2.5 8.4
v 2.1 2.6 8.4
v 2.2 2.5 8.4
v 2.2 2.6 8.4
v 1.6 2.5 8.3
v 1.6 2.6 8.3
v 1.7 2.5 8.3
v 1.7 2.6 8.3
v 1.8 2.5 8.3
v 1.8 2.6 8.3
v 1.9 2.5 8.3
v 1.9 2.6 8.3
v 2.2 2.5 8.3
v 2.2 2.6 8.3
v 2.3 2.5 8.3
v 2.3 2.6 8.3
v 1.4 0.6 8.2
v 1.4 0.8 8.2
v 1.4 1.4 8.2
v 1.6 0 8.2
v 1.6 0.1 8.2
v 1.6 0.2 8.2
v 1.6 0.6 8.2
v 1.6 0.7 8.2
v 1.6 0.8 8.2
v 1.6 1.4 8.2
v 1.7 2.5 8.2
v 1.7 2.6 8.2
v 1.8 0 8.2
v 1.8 0.1 8.2
v 1.8 0.2 8.2
v 1.8 0.7 8.2
v 1.8 1.4 8.2
v 1.8 1.5 8.2
v 1.8 2.5 8.2
v 1.8 2.6 8.2
v 2 0 8.2
v 2 0.1 8.2
v 2 0.2 8.2
v 2 0.7 8.2
v 2 1.4 8.2
v 2 1.5 8.2
v 2 2.5 8.2
v 2 2.6 8.2
v 2.1 2.5 8.2
v 2.1 2.6 8.2
v 2.2 0 8.2
v 2.2 0.1 8.2
v 2.2 0.2 8.2
v 2.2 0.6 8.2
v 2.2 0.7 8.2
v 2.2 0.8 8.2
v 2.2 1.4 8.2
v 2.4 0.6 8.2
v 2.4 0.8 8.2
v 2.4 1.4 8.2
v 1.6 0.7 8.1
v 1.6 0.8 8.1
v 1.6 1.4 8.1
v 1.6 1.5 8.1
v 1.6 1.6 8.1
v 1.6 2.5 8.1
v 1.6 2.6 8.1
v 1.7 2.5 8.1
v 1.7 2.6 8.1
v 1.8 2.5 8.1
v 1.8 2.6 8.1
v 1.9 2.5 8.1
v 1.9 2.6 8.1
v 2.1 2.5 8.1
v 2.1 2.6 8.1
v 2.2 0.7 8.1
v 2.2 0.8 8.1
v 2.2 1.4 8.1
v 2.2 1.5 8.1
v 2.2 1.6 8.1
v 2.2 2.4 8.1
v 2.2 2.5 8.1
v 2.2 2.6 8.1
v 2.3 2.4 8.1
v 2.3 2.5 8.1
v 1.5 1.6 8
v 1.5 2.4 8
v 1.6 2.4 8
v 1.6 2.5 8
v 2.2 2.4 8
v 2.2 2.5 8
v 2.3 1.6 8
v 2.3 2.4 8
v 1.6 0 8.5
v 1.8 0 8.5
v 2 0 8.5
v 2.2 0 8.5
v 1.6 0 8.2
v 1.8 0 8.2
v 2 0 8.2
v 2.2 0 8.2
v 1.4 0.6 8.4
v 1.6 0.6 8.4
v 2.2 0.6 8.4
v 2.4 0.6 8.4
v 1.4 0.6 8.2
v 1.6 0.6 8.2
v 2.2 0.6 8.2
v 2.4 0.6 8.2
v 1.6 0.7 8.5
v 2.2 0.7 8.5
v 1.6 0.7 8.4
v 1.8 0.7 8.4
v 2 0.7 8.4
v 2.2 0.7 8.4
v 1.6 0.7 8.2
v 1.8 0.7 8.2
v 2 0.7 8.2
v 2.2 0.7 8.2
v 1.6 0.7 8.1
v 2.2 0.7 8.1
v 1.6 1.5 8.6
v 2.2 1.5 8.6
v 1.8 1.5 8.4
v 2 1.5 8.4
v 1.8 1.5 8.2
v 2 1.5 8.2
v 1.6 1.5 8.1
v 2.2 1.5 8.1
v 1.5 1.6 8.4
v 1.6 1.6 8.4
v 2.2 1.6 8.4
v 2.3 1.6 8.4
v 1.5 1.6 8.3
v 1.6 1.6 8.3
v 2.2 1.6 8.3
v 2.3 1.6 8.3
v 1.6 1.6 8.1
v 2.2 1.6 8.1
v 1.5 1.6 8
v 2.3 1.6 8
v 1.5 1.7 8.5
v 1.6 1.7 8.5
v 2.2 1.7 8.5
v 2.3 1.7 8.5
v 1.5 1.7 8.4
v 1.6 1.7 8.4
v 2.2 1.7 8.4
v 2.3 1.7 8.4
v 1.6 1.9 8.7
v 1.8 1.9 8.7
v 2 1.9 8.7
v 2.2 1.9 8.7
v 1.5 1.9 8.6
v 1.6 1.9 8.6
v 1.7 1.9 8.6
v 1.8 1.9 8.6
v 2 1.9 8.6
v 2.1 1.9 8.6
v 2.2 1.9 8.6
v 1.5 1.9 8.5
v 1.6 1.9 8.5
v 2.2 2 8.6
v 2.3 2 8.6
v 2.2 2 8.5
v 2.3 2 8.5
v 1.6 0.1 8.5
v 1.8 0.1 8.5
v 2 0.1 8.5
v 2.2 0.1 8.5
v 1.6 0.1 8.4
v 1.8 0.1 8.4
v 2 0.1 8.4
v 2.2 0.1 8.4
v 1.6 1.4 8.5
v 1.7 1.4 8.5
v 2.1 1.4 8.5
v 2.2 1.4 8.5
v 1.4 1.4 8.4
v 1.6 1.4 8.4
v 1.8 1.4 8.4
v 2 1.4 8.4
v 2.2 1.4 8.4
v 2.4 1.4 8.4
v 1.4 1.4 8.2
v 1.6 1.4 8.2
v 1.7 1.4 8.2
v 1.8 1.4 8.2
v 2 1.4 8.2
v 2.1 1.4 8.2
v 2.2 1.4 8.2
v 2.4 1.4 8.2
v 1.6 1.4 8.1
v 2.2 1.4 8.1
v 1.6 2 8.7
v 1.8 2 8.7
v 2 2 8.7
v 2.2 2 8.7
v 1.6 2 8.6
v 1.8 2 8.6
v 2 2 8.6
v 2.2 2 8.6
v 1.5 2.4 8.6
v 1.6 2.4 8.6
v 1.7 2.4 8.6
v 1.8 2.4 8.6
v 2.2 2.4 8.6
v 2.3 2.4 8.6
v 1.7 2.4 8.5
v 1.8 2.4 8.5
v 2.2 2.4 8.5
v 2.3 2.4 8.5
v 2.2 2.4 8.1
v 2.3 2.4 8.1
v 1.5 2.4 8
v 1.6 2.4 8
v 2.2 2.4 8
v 2.3 2.4 8
v 1.6 2.5 8.6
v 1.7 2.5 8.6
v 1.9 2.5 8.6
v 2 2.5 8.6
v 2.1 2.5 8.6
v 2.2 2.5 8.6
v 1.7 2.5 8.5
v 1.8 2.5 8.5
v 1.9 2.5 8.5
v 2 2.5 8.5
v 2.1 2.5 8.5
v 2.2 2.5 8.5
v 2.3 2.5 8.5
v 1.6 2.5 8.4
v 1.7 2.5 8.4
v 1.8 2.5 8.4
v 1.9 2.5 8.4
v 2.1 2.5 8.4
v 2.2 2.5 8.4
v 2.3 2.5 8.4
v 1.6 2.5 8.3
v 1.7 2.5 8.3
v 1.8 2.5 8.3
v 1.9 2.5 8.3
v 2 2.5 8.3
v 2.1 2.5 8.3
v 2.2 2.5 8.3
v 2.3 2.5 8.3
v 1.6 2.5 8.2
v 1.7 2.5 8.2
v 1.8 2.5 8.2
v 1.9 2.5 8.2
v 2 2.5 8.2
v 2.1 2.5 8.2
v 2.2 2.5 8.2
v 1.6 2.5 8.1
v 1.7 2.5 8.1
v 1.8 2.5 8.1
v 1.9 2.5 8.1
v 2.1 2.5 8.1
v 2.2 2.5 8.1
v 2.3 2.5 8.1
v 1.6 2.5 8
v 2.2 2.5 8
v 1.8 2.6 8.6
v 1.9 2.6 8.6
v 2 2.6 8.6
v 2.1 2.6 8.6
v 1.8 2.6 8.5
v 1.9 2.6 8.5
v 2 2.6 8.5
v 2.1 2.6 8.5
v 2.2 2.6 8.5
v 1.6 2.6 8.4
v 1.7 2.6 8.4
v 1.8 2.6 8.4
v 1.9 2.6 8.4
v 2.1 2.6 8.4
v 2.2 2.6 8.4
v 2.3 2.6 8.4
v 1.6 2.6 8.3
v 1.7 2.6 8.3
v 1.8 2.6 8.3
v 1.9 2.6 8.3
v 2 2.6 8.3
v 2.1 2.6 8.3
v 2.2 2.6 8.3
v 2.3 2.6 8.3
v 1.6 2.6 8.2
v 1.7 2.6 8.2
v 1.8 2.6 8.2
v 1.9 2.6 8.2
v 2 2.6 8.2
v 2.1 2.6 8.2
v 2.2 2.6 8.2
v 1.6 2.6 8.1
v 1.7 2.6 8.1
v 1.8 2.6 8.1
v 1.9 2.6 8.1
v 2.1 2.6 8.1
v 2.2 2.6 8.1

# faces
f 3/1/1 2/1/1 1/1/1
f 4/1/1 2/1/1 3/1/1
f 5/6/1 4/6/1 3/6/1
f 6/6/1 4/6/1 5/6/1
f 11/3/1 8/3/1 7/3/1
f 13/6/1 11/6/1 10/6/1
f 14/3/1 8/3/1 11/3/1
f 14/6/1 11/6/1 13/6/1
f 15/6/1 9/6/1 8/6/1
f 15/3/1 8/3/1 14/3/1
f 16/6/1 14/6/1 13/6/1
f 16/6/1 13/6/1 12/6/1
f 16/6/1 15/6/1 14/6/1
f 17/6/1 9/6/1 15/6/1
f 17/6/1 15/6/1 16/6/1
f 20/6/1 19/6/1 18/6/1
f 21/6/1 19/6/1 20/6/1
f 22/6/1 19/6/1 21/6/1
f 23/4/1 22/4/1 21/4/1
f 24/4/1 22/4/1 23/4/1
f 25/5/1 24/5/1 23/5/1
f 26/5/1 24/5/1 25/5/1
f 31/5/1 28/5/1 27/5/1
f 32/5/1 28/5/1 31/5/1
f 33/5/1 30/5/1 29/5/1
f 34/5/1 30/5/1 33/5/1
f 35/6/1 32/6/1 31/6/1
f 36/6/1 32/6/1 35/6/1
f 37/6/1 34/6/1 33/6/1
f 38/6/1 34/6/1 37/6/1
f 41/1/1 40/1/1 39/1/1
f 42/1/1 40/1/1 41/1/1
f 43/1/1 40/1/1 42/1/1
f 44/1/1 41/1/1 39/1/1
f 45/1/1 41/1/1 44/1/1
f 47/1/1 44/1/1 39/1/1
f 48/1/1 44/1/1 47/1/1
f 49/6/1 47/6/1 46/6/1
f 50/6/1 47/6/1 49/6/1
f 53/6/1 52/6/1 51/6/1
f 54/6/1 52/6/1 53/6/1
f 55/6/1 52/6/1 54/6/1
f 56/6/1 52/6/1 55/6/1
f 57/6/1 52/6/1 56/6/1
f 58/6/1 52/6/1 57/6/1
f 59/6/1 55/6/1 54/6/1
f 60/6/1 55/6/1 59/6/1
f 61/6/1 57/6/1 56/6/1
f 62/6/1 57/6/1 61/6/1
f 65/6/1 64/6/1 63/6/1
f 66/6/1 64/6/1 65/6/1
f 69/1/1 68/1/1 67/1/1
f 70/1/1 68/1/1 69/1/1
f 73/6/1 72/6/1 71/6/1
f 78/6/1 73/6/1 71/6/1
f 79/6/1 73/6/1 78/6/1
f 80/6/1 75/6/1 74/6/1
f 81/6/1 75/6/1 80/6/1
f 82/6/1 77/6/1 76/6/1
f 83/6/1 77/6/1 82/6/1
f 86/6/1 85/6/1 84/6/1
f 87/6/1 85/6/1 86/6/1
f 88/6/1 85/6/1 87/6/1
f 89/4/1 88/4/1 87/4/1
f 90/4/1 88/4/1 89/4/1
f 91/5/1 90/5/1 89/5/1
f 92/5/1 90/5/1 91/5/1
f 95/6/1 94/6/1 93/6/1
f 96/6/1 94/6/1 95/6/1
f 101/6/1 98/6/1 97/6/1
f 102/6/1 98/6/1 101/6/1
f 103/6/1 100/6/1 99/6/1
f 104/6/1 100/6/1 103/6/1
f 109/6/1 106/6/1 105/6/1
f 110/6/1 106/6/1 109/6/1
f 111/6/1 108/6/1 107/6/1
f 112/6/1 108/6/1 111/6/1
f 115/6/1 114/6/1 113/6/1
f 116/6/1 114/6/1 115/6/1
f 117/6/2 118/6/2 119/6/2
f 119/6/2 118/6/2 120/6/2
f 121/6/2 122/6/2 125/6/2
f 125/6/2 122/6/2 126/6/2
f 123/6/2 124/6/2 127/6/2
f 127/6/2 124/6/2 128/6/2
f 129/6/2 130/6/2 131/6/2
f 131/6/2 130/6/2 132/6/2
f 132/6/2 130/6/2 133/6/2
f 132/4/2 133/4/2 134/4/2
f 134/4/2 133/4/2 135/4/2
f 134/5/2 135/5/2 136/5/2
f 136/5/2 135/5/2 137/5/2
f 138/6/2 139/6/2 140/6/2
f 140/6/2 139/6/2 141/6/2
f 142/6/2 143/6/2 144/6/2
f 144/6/2 143/6/2 145/6/2
f 146/6/2 147/6/2 152/6/2
f 152/6/2 147/6/2 153/6/2
f 148/6/2 149/6/2 154/6/2
f 154/6/2 149/6/2 155/6/2
f 150/6/2 151/6/2 156/6/2
f 156/6/2 151/6/2 157/6/2
f 158/1/2 159/1/2 160/1/2
f 160/1/2 159/1/2 161/1/2
f 162/6/2 163/6/2 166/6/2
f 166/6/2 163/6/2 167/6/2
f 164/6/2 165/6/2 168/6/2
f 168/6/2 165/6/2 169/6/2
f 170/6/2 171/6/2 172/6/2
f 172/6/2 171/6/2 173/6/2
f 173/6/2 171/6/2 174/6/2
f 173/4/2 174/4/2 175/4/2
f 175/4/2 174/4/2 176/4/2
f 175/5/2 176/5/2 177/5/2
f 177/5/2 176/5/2 178/5/2
f 179/5/2 180/5/2 183/5/2
f 183/5/2 180/5/2 184/5/2
f 181/5/2 182/5/2 185/5/2
f 185/5/2 182/5/2 186/5/2
f 183/6/2 184/6/2 187/6/2
f 187/6/2 184/6/2 188/6/2
f 185/6/2 186/6/2 189/6/2
f 189/6/2 186/6/2 190/6/2
f 191/1/2 192/1/2 193/1/2
f 193/1/2 192/1/2 194/1/2
f 194/1/2 192/1/2 195/1/2
f 191/1/2 193/1/2 196/1/2
f 196/1/2 193/1/2 197/1/2
f 191/1/2 196/1/2 199/1/2
f 198/6/2 199/6/2 200/6/2
f 199/1/2 196/1/2 201/1/2
f 200/6/2 199/6/2 201/6/2
f 201/1/2 196/1/2 202/1/2
f 203/6/2 204/6/2 207/6/2
f 207/6/2 204/6/2 208/6/2
f 205/6/2 206/6/2 211/6/2
f 211/6/2 206/6/2 212/6/2
f 208/6/2 209/6/2 213/6/2
f 213/6/2 209/6/2 214/6/2
f 210/6/2 211/6/2 215/6/2
f 215/6/2 211/6/2 216/6/2
f 217/3/2 218/3/2 221/3/2
f 221/3/2 218/3/2 222/3/2
f 220/6/2 221/6/2 222/6/2
f 218/6/2 219/6/2 223/6/2
f 222/3/2 218/3/2 223/3/2
f 220/6/2 222/6/2 225/6/2
f 222/6/2 223/6/2 225/6/2
f 224/6/2 225/6/2 226/6/2
f 225/6/2 223/6/2 227/6/2
f 226/6/2 225/6/2 227/6/2
f 223/6/2 219/6/2 228/6/2
f 227/6/2 223/6/2 228/6/2
f 228/6/2 219/6/2 229/6/2
f 227/6/2 228/6/2 230/6/2
f 230/6/2 228/6/2 231/6/2
f 231/6/2 228/6/2 232/6/2
f 232/6/2 228/6/2 233/6/2
f 231/6/2 232/6/2 234/6/2
f 234/6/2 232/6/2 235/6/2
f 236/1/2 237/1/2 238/1/2
f 238/1/2 237/1/2 239/1/2
f 238/6/2 239/6/2 240/6/2
f 240/6/2 239/6/2 241/6/2
f 244/6/3 243/6/3 242/6/3
f 245/6/3 243/6/3 244/6/3
f 248/6/3 247/6/3 246/6/3
f 249/6/3 247/6/3 248/6/3
f 253/6/3 251/6/3 250/6/3
f 254/6/3 251/6/3 253/6/3
f 255/6/3 251/6/3 254/6/3
f 256/6/3 251/6/3 255/6/3
f 258/1/3 253/1/3 252/1/3
f 259/1/3 253/1/3 258/1/3
f 260/6/3 257/6/3 256/6/3
f 260/6/3 256/6/3 255/6/3
f 261/6/3 257/6/3 260/6/3
f 262/1/3 258/1/3 252/1/3
f 263/1/3 258/1/3 262/1/3
f 264/7/3 259/7/3 258/7/3
f 264/1/3 258/1/3 263/1/3
f 265/7/3 259/7/3 264/7/3
f 266/1/3 255/1/3 254/1/3
f 267/6/3 260/6/3 255/6/3
f 269/6/3 268/6/3 267/6/3
f 270/6/3 268/6/3 269/6/3
f 271/2/3 263/2/3 262/2/3
f 271/1/3 262/1/3 252/1/3
f 272/1/3 265/1/3 264/1/3
f 272/2/3 263/2/3 271/2/3
f 272/1/3 266/1/3 265/1/3
f 272/1/3 264/1/3 263/1/3
f 273/1/3 266/1/3 272/1/3
f 274/1/3 266/1/3 273/1/3
f 275/1/3 255/1/3 266/1/3
f 275/1/3 266/1/3 274/1/3
f 276/6/3 269/6/3 267/6/3
f 278/7/3 274/7/3 273/7/3
f 278/1/3 272/1/3 271/1/3
f 278/1/3 273/1/3 272/1/3
f 279/7/3 274/7/3 278/7/3
f 280/6/3 277/6/3 276/6/3
f 280/6/3 276/6/3 267/6/3
f 281/6/3 277/6/3 280/6/3
f 282/1/3 271/1/3 252/1/3
f 282/1/3 279/1/3 278/1/3
f 282/1/3 278/1/3 271/1/3
f 283/1/3 279/1/3 282/1/3
f 284/1/3 255/1/3 275/1/3
f 285/6/3 267/6/3 255/6/3
f 285/1/3 255/1/3 284/1/3
f 285/6/3 280/6/3 267/6/3
f 286/6/3 280/6/3 285/6/3
f 287/6/3 280/6/3 286/6/3
f 288/6/3 285/6/3 284/6/3
f 288/6/3 286/6/3 285/6/3
f 289/6/3 286/6/3 288/6/3
f 297/6/3 291/6/3 290/6/3
f 298/6/3 291/6/3 297/6/3
f 299/6/3 296/6/3 295/6/3
f 299/5/3 295/5/3 294/5/3
f 300/6/3 296/6/3 299/6/3
f 303/6/3 293/6/3 292/6/3
f 304/6/3 293/6/3 303/6/3
f 305/9/3 300/9/3 299/9/3
f 306/9/3 300/9/3 305/9/3
f 307/6/3 302/6/3 301/6/3
f 308/6/3 302/6/3 307/6/3
f 309/9/3 305/9/3 299/9/3
f 309/10/3 306/10/3 305/10/3
f 310/10/3 306/10/3 309/10/3
f 313/9/3 310/9/3 309/9/3
f 313/10/3 306/10/3 310/10/3
f 314/10/3 306/10/3 313/10/3
f 315/5/3 299/5/3 294/5/3
f 315/9/3 309/9/3 299/9/3
f 315/9/3 314/9/3 313/9/3
f 315/9/3 313/9/3 309/9/3
f 316/10/3 306/10/3 314/10/3
f 316/9/3 314/9/3 315/9/3
f 317/9/3 300/9/3 306/9/3
f 317/10/3 306/10/3 316/10/3
f 318/9/3 300/9/3 317/9/3
f 321/6/3 312/6/3 311/6/3
f 322/6/3 312/6/3 321/6/3
f 323/5/3 315/5/3 294/5/3
f 324/6/3 318/6/3 317/6/3
f 324/5/3 315/5/3 323/5/3
f 324/6/3 316/6/3 315/6/3
f 324/6/3 317/6/3 316/6/3
f 325/6/3 318/6/3 324/6/3
f 329/6/3 320/6/3 319/6/3
f 330/6/3 320/6/3 329/6/3
f 331/6/3 327/6/3 326/6/3
f 332/6/3 327/6/3 331/6/3
f 333/6/3 329/6/3 328/6/3
f 334/6/3 329/6/3 333/6/3
f 342/1/3 336/1/3 335/1/3
f 343/1/3 336/1/3 342/1/3
f 344/6/3 337/6/3 336/6/3
f 344/1/3 336/1/3 343/1/3
f 345/6/3 337/6/3 344/6/3
f 346/3/3 339/3/3 338/3/3
f 347/3/3 339/3/3 346/3/3
f 350/6/3 349/6/3 348/6/3
f 351/6/3 349/6/3 350/6/3
f 352/4/3 341/4/3 340/4/3
f 353/5/3 343/5/3 342/5/3
f 353/4/3 341/4/3 352/4/3
f 353/5/3 342/5/3 341/5/3
f 354/5/3 343/5/3 353/5/3
f 359/6/3 358/6/3 357/6/3
f 360/6/3 358/6/3 359/6/3
f 364/1/3 356/1/3 355/1/3
f 365/1/3 356/1/3 364/1/3
f 366/4/3 362/4/3 361/4/3
f 367/5/3 363/5/3 362/5/3
f 367/4/3 362/4/3 366/4/3
f 368/5/3 363/5/3 367/5/3
f 369/5/3 363/5/3 368/5/3
f 376/3/3 373/3/3 372/3/3
f 377/3/3 373/3/3 376/3/3
f 378/6/3 375/6/3 374/6/3
f 379/6/3 375/6/3 378/6/3
f 380/1/3 370/1/3 369/1/3
f 380/1/3 369/1/3 368/1/3
f 381/6/3 371/6/3 370/6/3
f 381/1/3 370/1/3 380/1/3
f 382/6/3 371/6/3 381/6/3
f 385/6/3 384/6/3 383/6/3
f 386/6/3 384/6/3 385/6/3
f 389/6/3 388/6/3 387/6/3
f 390/6/3 388/6/3 389/6/3
f 393/6/3 392/6/3 391/6/3
f 394/6/3 392/6/3 393/6/3
f 397/6/3 396/6/3 395/6/3
f 398/6/3 396/6/3 397/6/3
f 401/6/3 400/6/3 399/6/3
f 402/6/3 400/6/3 401/6/3
f 403/6/4 404/6/4 405/6/4
f 405/6/4 404/6/4 406/6/4
f 407/6/4 408/6/4 409/6/4
f 409/6/4 408/6/4 410/6/4
f 411/6/4 412/6/4 413/6/4
f 413/6/4 412/6/4 414/6/4
f 415/6/4 416/6/4 417/6/4
f 417/6/4 416/6/4 418/6/4
f 419/6/4 420/6/4 421/6/4
f 421/6/4 420/6/4 422/6/4
f 423/6/4 424/6/4 425/6/4
f 425/6/4 424/6/4 426/6/4
f 427/1/4 428/1/4 433/1/4
f 433/1/4 428/1/4 434/1/4
f 428/6/4 429/6/4 435/6/4
f 434/1/4 428/1/4 435/1/4
f 435/6/4 429/6/4 436/6/4
f 430/6/4 431/6/4 439/6/4
f 431/4/4 432/4/4 440/4/4
f 439/6/4 431/6/4 440/6/4
f 433/5/4 434/5/4 441/5/4
f 440/4/4 432/4/4 441/4/4
f 432/5/4 433/5/4 441/5/4
f 441/5/4 434/5/4 442/5/4
f 437/6/4 438/6/4 445/6/4
f 445/6/4 438/6/4 446/6/4
f 443/1/4 444/1/4 451/1/4
f 451/1/4 444/1/4 452/1/4
f 453/6/4 454/6/4 455/6/4
f 455/6/4 454/6/4 456/6/4
f 447/6/4 448/6/4 457/6/4
f 448/4/4 449/4/4 458/4/4
f 457/6/4 448/6/4 458/6/4
f 449/5/4 450/5/4 459/5/4
f 458/4/4 449/4/4 459/4/4
f 459/5/4 450/5/4 460/5/4
f 460/5/4 450/5/4 461/5/4
f 461/1/4 462/1/4 464/1/4
f 460/1/4 461/1/4 464/1/4
f 462/6/4 463/6/4 465/6/4
f 464/1/4 462/1/4 465/1/4
f 465/6/4 463/6/4 466/6/4
f 472/6/4 473/6/4 474/6/4
f 474/6/4 473/6/4 475/6/4
f 476/6/4 477/6/4 478/6/4
f 478/6/4 477/6/4 479/6/4
f 467/5/4 468/5/4 482/5/4
f 468/6/4 469/6/4 483/6/4
f 482/5/4 468/5/4 483/5/4
f 483/6/4 469/6/4 484/6/4
f 470/1/4 471/1/4 485/1/4
f 485/1/4 471/1/4 486/1/4
f 480/6/4 481/6/4 488/6/4
f 488/6/4 481/6/4 489/6/4
f 487/6/4 488/6/4 490/6/4
f 490/6/4 488/6/4 491/6/4
f 492/6/4 493/6/4 494/6/4
f 492/6/4 494/6/4 496/6/4
f 494/6/4 495/6/4 496/6/4
f 496/6/4 495/6/4 497/6/4
f 492/6/4 496/6/4 498/6/4
f 498/6/4 496/6/4 499/6/4
f 504/6/5 501/6/5 500/6/5
f 505/6/5 501/6/5 504/6/5
f 506/6/5 503/6/5 502/6/5
f 507/6/5 503/6/5 506/6/5
f 512/1/5 509/1/5 508/1/5
f 513/1/5 509/1/5 512/1/5
f 514/1/5 511/1/5 510/1/5
f 515/1/5 511/1/5 514/1/5
f 518/5/5 517/5/5 516/5/5
f 519/5/5 517/5/5 518/5/5
f 520/5/5 517/5/5 519/5/5
f 521/5/5 517/5/5 520/5/5
f 523/5/5 520/5/5 519/5/5
f 524/5/5 520/5/5 523/5/5
f 526/5/5 523/5/5 522/5/5
f 526/5/5 525/5/5 524/5/5
f 526/5/5 524/5/5 523/5/5
f 527/5/5 525/5/5 526/5/5
f 530/1/5 529/1/5 528/1/5
f 531/1/5 529/1/5 530/1/5
f 532/1/5 530/1/5 528/1/5
f 533/1/5 529/1/5 531/1/5
f 534/1/5 532/1/5 528/1/5
f 534/1/5 533/1/5 532/1/5
f 535/1/5 529/1/5 533/1/5
f 535/1/5 533/1/5 534/1/5
f 540/3/5 537/3/5 536/3/5
f 541/3/5 537/3/5 540/3/5
f 542/3/5 539/3/5 538/3/5
f 543/3/5 539/3/5 542/3/5
f 544/6/5 541/6/5 540/6/5
f 545/6/5 543/6/5 542/6/5
f 546/6/5 544/6/5 540/6/5
f 546/6/5 545/6/5 544/6/5
f 547/6/5 543/6/5 545/6/5
f 547/6/5 545/6/5 546/6/5
f 552/6/5 549/6/5 548/6/5
f 553/6/5 549/6/5 552/6/5
f 554/6/5 551/6/5 550/6/5
f 555/6/5 551/6/5 554/6/5
f 561/6/5 557/6/5 556/6/5
f 562/6/5 557/6/5 561/6/5
f 563/6/5 557/6/5 562/6/5
f 564/6/5 559/6/5 558/6/5
f 565/6/5 559/6/5 564/6/5
f 566/6/5 559/6/5 565/6/5
f 567/6/5 561/6/5 560/6/5
f 568/6/5 561/6/5 567/6/5
f 571/6/5 570/6/5 569/6/5
f 572/6/5 570/6/5 571/6/5
f 573/6/6 574/6/6 577/6/6
f 577/6/6 574/6/6 578/6/6
f 575/6/6 576/6/6 579/6/6
f 579/6/6 576/6/6 580/6/6
f 581/6/6 582/6/6 586/6/6
f 582/9/6 583/9/6 587/9/6
f 587/9/6 583/9/6 588/9/6
f 583/6/6 584/6/6 589/6/6
f 585/6/6 586/6/6 591/6/6
f 586/6/6 582/6/6 592/6/6
f 591/6/6 586/6/6 592/6/6
f 582/9/6 587/9/6 593/9/6
f 592/6/6 582/6/6 593/6/6
f 593/9/6 587/9/6 594/9/6
f 588/9/6 583/9/6 595/9/6
f 589/6/6 590/6/6 596/6/6
f 583/6/6 589/6/6 596/6/6
f 595/9/6 583/9/6 596/9/6
f 596/6/6 590/6/6 597/6/6
f 597/6/6 590/6/6 598/6/6
f 593/6/6 594/6/6 599/6/6
f 594/6/6 595/6/6 599/6/6
f 596/6/6 597/6/6 599/6/6
f 595/6/6 596/6/6 599/6/6
f 592/6/6 593/6/6 599/6/6
f 599/6/6 597/6/6 600/6/6
f 601/6/6 602/6/6 605/6/6
f 605/6/6 602/6/6 606/6/6
f 603/6/6 604/6/6 607/6/6
f 607/6/6 604/6/6 608/6/6
f 611/6/6 612/6/6 615/6/6
f 615/6/6 612/6/6 616/6/6
f 613/6/6 614/6/6 617/6/6
f 617/6/6 614/6/6 618/6/6
f 609/6/6 610/6/6 621/6/6
f 621/6/6 610/6/6 622/6/6
f 619/6/6 620/6/6 623/6/6
f 623/6/6 620/6/6 624/6/6
f 625/6/6 626/6/6 631/6/6
f 627/6/6 628/6/6 633/6/6
f 633/6/6 628/6/6 634/6/6
f 629/6/6 630/6/6 635/6/6
f 635/6/6 630/6/6 636/6/6
f 633/6/6 634/6/6 638/6/6
f 631/6/6 632/6/6 638/6/6
f 634/6/6 635/6/6 638/6/6
f 625/6/6 631/6/6 638/6/6
f 632/6/6 633/6/6 638/6/6
f 638/6/6 635/6/6 639/6/6
f 639/6/6 635/6/6 640/6/6
f 640/6/6 635/6/6 641/6/6
f 641/6/6 635/6/6 642/6/6
f 636/6/6 637/6/6 643/6/6
f 643/6/6 637/6/6 644/6/6
f 639/6/6 640/6/6 646/6/6
f 646/6/6 640/6/6 647/6/6
f 641/6/6 642/6/6 648/6/6
f 642/6/6 643/6/6 648/6/6
f 648/6/6 643/6/6 649/6/6
f 649/6/6 643/6/6 650/6/6
f 650/6/6 643/6/6 651/6/6
f 645/6/6 646/6/6 653/6/6
f 653/6/6 646/6/6 654/6/6
f 647/6/6 648/6/6 655/6/6
f 648/6/6 649/6/6 655/6/6
f 655/6/6 649/6/6 656/6/6
f 656/6/6 649/6/6 657/6/6
f 651/6/6 652/6/6 658/6/6
f 650/6/6 651/6/6 658/6/6
f 658/6/6 652/6/6 659/6/6
f 654/6/6 655/6/6 661/6/6
f 661/6/6 655/6/6 662/6/6
f 656/6/6 657/6/6 663/6/6
f 657/6/6 658/6/6 663/6/6
f 663/6/6 658/6/6 664/6/6
f 659/6/6 652/6/6 665/6/6
f 665/6/6 652/6/6 666/6/6
f 661/6/6 662/6/6 667/6/6
f 663/6/6 664/6/6 667/6/6
f 664/6/6 665/6/6 667/6/6
f 660/6/6 661/6/6 667/6/6
f 662/6/6 663/6/6 667/6/6
f 667/6/6 665/6/6 668/6/6
f 669/6/6 670/6/6 673/6/6
f 673/6/6 670/6/6 674/6/6
f 671/6/6 672/6/6 675/6/6
f 675/6/6 672/6/6 676/6/6
f 676/6/6 677/6/6 682/6/6
f 682/6/6 677/6/6 683/6/6
f 678/6/6 679/6/6 685/6/6
f 685/6/6 679/6/6 686/6/6
f 680/6/6 681/6/6 687/6/6
f 687/6/6 681/6/6 688/6/6
f 683/6/6 684/6/6 691/6/6
f 691/6/6 684/6/6 692/6/6
f 686/6/6 687/6/6 694/6/6
f 694/6/6 687/6/6 695/6/6
f 689/6/6 690/6/6 697/6/6
f 697/6/6 690/6/6 698/6/6
f 693/6/6 694/6/6 700/6/6
f 700/6/6 694/6/6 701/6/6
f 695/6/6 696/6/6 702/6/6
f 702/6/6 696/6/6 703/6/6
f 698/6/6 699/6/6 704/6/6
f 704/6/6 699/6/6 705/6/6
