# generated by tools/rig_people.py — do not edit
mtllib people.mtl
o body
usemtl palette
v 1 17 -2.5
v 1 17 -1.5
v 1 18 -1.5
v 1 18 -2.5
v 1 19 -2.5
v 1 19 -1.5
v 1 20 -1.5
v 1 20 -2.5
v -1 14 0.5
v -1 14 2.5
v -1 15 2.5
v -1 15 0.5
v -3 21 -3.5
v -3 21 -1.5
v -3 24 -1.5
v -3 24 -3.5
v -3 24 -2.5
v -3 24 4.5
v -3 25 4.5
v -3 25 -2.5
v -3 15 -1.5
v -3 15 3.5
v -3 16 3.5
v -3 16 -1.5
v -3 16 0.5
v -3 17 0.5
v -3 17 -1.5
v -3 17 -0.5
v -3 19 -0.5
v -3 19 -1.5
v -3 7 -0.5
v -3 7 0.5
v -3 14 0.5
v -3 14 -0.5
v -3 7 2.5
v -3 8 2.5
v -3 8 0.5
v -3 8 3.5
v -3 14 3.5
v -3 7 3.5
v -4 17 -2.5
v -4 17 -1.5
v -4 19 -1.5
v -4 19 -2.5
v -4 19 4.5
v -4 20 4.5
v -4 20 -2.5
v -4 20 -1.5
v -4 24 4.5
v -4 24 -1.5
v -4 17 -0.5
v -4 17 0.5
v -4 19 0.5
v -4 19 -0.5
v -4 16 0.5
v -4 16 1.5
v -4 19 1.5
v -4 16 4.5
v 4 19 -2.5
v 4 19 -1.5
v 4 17 -1.5
v 4 17 -2.5
v 4 20 -2.5
v 4 20 4.5
v 4 19 4.5
v 4 24 -1.5
v 4 24 4.5
v 4 20 -1.5
v 4 19 -0.5
v 4 19 0.5
v 4 17 0.5
v 4 17 -0.5
v 4 25 -0.5
v 4 25 3.5
v 4 24 3.5
v 4 24 -0.5
v 4 19 1.5
v 4 16 1.5
v 4 16 0.5
v 4 16 4.5
v 3 24 -2.5
v 3 24 -1.5
v 3 22 -1.5
v 3 22 -2.5
v 3 16 -1.5
v 3 16 3.5
v 3 15 3.5
v 3 15 -1.5
v 3 17 -1.5
v 3 17 0.5
v 3 16 0.5
v 3 19 -1.5
v 3 19 -0.5
v 3 17 -0.5
v 3 25 -1.5
v 3 25 -0.5
v 3 24 -0.5
v 3 14 -0.5
v 3 14 0.5
v 3 7 0.5
v 3 7 -0.5
v 3 8 0.5
v 3 8 2.5
v 3 7 2.5
v 3 14 3.5
v 3 8 3.5
v 3 7 3.5
v 3 25 3.5
v 3 25 4.5
v 3 24 4.5
v 3 24 3.5
v 1 22 -3.5
v 1 22 -1.5
v 1 21 -1.5
v 1 21 -3.5
v 1 24 -3.5
v 1 24 -2.5
v 1 22 -2.5
v 1 25 -2.5
v 1 25 -1.5
v 1 24 -1.5
v 1 15 0.5
v 1 15 2.5
v 1 14 2.5
v 1 14 0.5
v -1 18 -2.5
v -1 18 -1.5
v -1 17 -1.5
v -1 17 -2.5
v -1 20 -2.5
v -1 20 -1.5
v -1 19 -1.5
v -1 19 -2.5
v 3 17 -2.5
v 3 19 -2.5
v 2 17 -2.5
v 2 18 -2.5
v 3 18 -2.5
v 2 19 -2.5
v -2 17 -2.5
v -2 18 -2.5
v -2 19 -2.5
v -4 18 -2.5
v -3 18 -2.5
v -3 19 -2.5
v 3 20 -1.5
v 1 15 -1.5
v -3 20 -1.5
v 3 21 -1.5
v -1 15 -1.5
v -1 16 -1.5
v 1 16 -1.5
v -3 8 -0.5
v 3 8 -0.5
v 1 8 -0.5
v 1 14 -0.5
v -0 8 -0.5
v -0 12 -0.5
v 1 12 -0.5
v -1 12 -0.5
v -1 14 -0.5
v -1 8 -0.5
v 1 14 3.5
v -3 14 2.5
v -3 25 -0.5
v -3 25 3.5
v -3 25 -1.5
v 1 7 2.5
v 1 7 0.5
v -1 7 2.5
v -1 7 0.5
v 3 15 -0.5
v 1 15 -0.5
v 2 15 3.5
v 2 15 -0.5
v 2 15 0.5
v -2 15 0.5
v -2 15 -0.5
v 1 15 3.5
v -1 15 -0.5
v -3 15 2.5
v -3 15 -0.5
v -3 15 0.5
v 3 16 1.5
v 3 16 4.5
v -4 16 3.5
v -3 16 1.5
v 2 17 -1.5
v -2 17 -1.5
vt 0.6972656 0.5
vt 0.5292969 0.5
vt 0.0410156 0.5
vt 0.2480469 0.5
vt 0.5175781 0.5
vt 0.0527344 0.5
vt 0.9746094 0.5
vt 0.9785156 0.5
vt 0.0683594 0.5
vn -1 0 0
vn 1 0 0
vn 0 0 1
vn 0 0 -1
vn 0 1 0
vn 0 -1 0
f 1/1/1 2/1/1 3/1/1 4/1/1
f 5/2/1 6/2/1 7/2/1 8/2/1
f 9/3/1 10/3/1 11/3/1 12/3/1
f 13/2/1 14/2/1 15/2/1 16/2/1
f 17/2/1 18/2/1 19/2/1 20/2/1
f 21/3/1 22/3/1 23/3/1 24/3/1
f 24/3/1 25/3/1 26/3/1 27/3/1
f 27/3/1 28/3/1 29/3/1 30/3/1
f 31/4/1 32/4/1 33/4/1 34/4/1
f 32/5/1 35/5/1 36/5/1 37/5/1
f 37/4/1 38/4/1 39/4/1 33/4/1
f 35/4/1 40/4/1 38/4/1 36/4/1
f 41/1/1 42/1/1 43/1/1 44/1/1
f 44/2/1 45/2/1 46/2/1 47/2/1
f 48/2/1 46/2/1 49/2/1 50/2/1
f 51/2/1 52/2/1 53/2/1 54/2/1
f 55/6/1 56/6/1 57/6/1 53/6/1
f 56/2/1 58/2/1 45/2/1 57/2/1
f 59/1/2 60/1/2 61/1/2 62/1/2
f 63/2/2 64/2/2 65/2/2 59/2/2
f 66/2/2 67/2/2 64/2/2 68/2/2
f 69/2/2 70/2/2 71/2/2 72/2/2
f 73/2/2 74/2/2 75/2/2 76/2/2
f 70/6/2 77/6/2 78/6/2 79/6/2
f 77/2/2 65/2/2 80/2/2 78/2/2
f 81/2/2 82/2/2 83/2/2 84/2/2
f 85/3/2 86/3/2 87/3/2 88/3/2
f 89/3/2 90/3/2 91/3/2 85/3/2
f 92/3/2 93/3/2 94/3/2 89/3/2
f 95/2/2 96/2/2 97/2/2 82/2/2
f 98/4/2 99/4/2 100/4/2 101/4/2
f 102/5/2 103/5/2 104/5/2 100/5/2
f 99/4/2 105/4/2 106/4/2 102/4/2
f 103/4/2 106/4/2 107/4/2 104/4/2
f 108/2/2 109/2/2 110/2/2 111/2/2
f 112/2/2 113/2/2 114/2/2 115/2/2
f 116/2/2 117/2/2 118/2/2 112/2/2
f 119/2/2 120/2/2 121/2/2 117/2/2
f 122/3/2 123/3/2 124/3/2 125/3/2
f 126/7/2 127/7/2 128/7/2 129/7/2
f 130/2/2 131/2/2 132/2/2 133/2/2
f 60/1/3 92/1/3 89/1/3 61/1/3
f 30/1/3 43/1/3 42/1/3 27/1/3
f 123/3/3 11/3/3 10/3/3 124/3/3
f 74/2/3 108/2/3 111/2/3 75/2/3
f 105/4/3 39/4/3 40/4/3 107/4/3
f 86/3/3 23/3/3 22/3/3 87/3/3
f 67/2/3 49/2/3 58/2/3 80/2/3
f 109/2/3 19/2/3 18/2/3 110/2/3
f 115/2/4 13/2/4 16/2/4 116/2/4
f 62/1/4 134/1/4 135/1/4 59/1/4
f 59/2/4 5/2/4 8/2/4 63/2/4
f 134/7/4 136/7/4 137/7/4 138/7/4
f 138/1/4 137/1/4 139/1/4 135/1/4
f 84/2/4 118/2/4 117/2/4 81/2/4
f 136/1/4 1/1/4 4/1/4 137/1/4
f 137/7/4 4/7/4 5/7/4 139/7/4
f 4/2/4 126/2/4 133/2/4 5/2/4
f 117/2/4 17/2/4 20/2/4 119/2/4
f 129/7/4 140/7/4 141/7/4 126/7/4
f 126/1/4 141/1/4 142/1/4 133/1/4
f 133/2/4 44/2/4 47/2/4 130/2/4
f 140/1/4 41/1/4 143/1/4 141/1/4
f 141/7/4 144/7/4 145/7/4 142/7/4
f 144/1/4 143/1/4 44/1/4 145/1/4
f 68/2/4 146/2/4 82/2/4 66/2/4
f 88/3/4 147/3/4 2/3/4 89/3/4
f 146/3/4 148/3/4 14/3/4 149/3/4
f 149/3/4 114/3/4 113/3/4 83/3/4
f 82/2/4 121/2/4 120/2/4 95/2/4
f 147/8/4 150/8/4 151/8/4 152/8/4
f 152/3/4 24/3/4 27/3/4 2/3/4
f 2/3/4 128/3/4 127/3/4 3/3/4
f 6/3/4 132/3/4 131/3/4 7/3/4
f 150/3/4 21/3/4 24/3/4 151/3/4
f 148/2/4 48/2/4 50/2/4 15/2/4
f 72/2/4 94/2/4 93/2/4 69/2/4
f 76/2/4 97/2/4 96/2/4 73/2/4
f 101/4/4 31/4/4 153/4/4 154/4/4
f 154/4/4 155/4/4 156/4/4 98/4/4
f 155/8/4 157/8/4 158/8/4 159/8/4
f 159/9/4 160/9/4 161/9/4 156/9/4
f 157/9/4 162/9/4 160/9/4 158/9/4
f 162/4/4 153/4/4 34/4/4 161/4/4
f 28/2/4 51/2/4 54/2/4 29/2/4
f 79/6/4 91/6/4 90/6/4 71/6/4
f 125/3/4 9/3/4 12/3/4 122/3/4
f 25/6/4 55/6/4 52/6/4 26/6/4
f 98/4/5 156/4/5 163/4/5 105/4/5
f 156/9/5 161/9/5 9/9/5 125/9/5
f 124/4/5 164/4/5 39/4/5 163/4/5
f 161/4/5 34/4/5 164/4/5 10/4/5
f 5/2/5 133/2/5 132/2/5 6/2/5
f 63/2/5 8/2/5 7/2/5 68/2/5
f 130/2/5 47/2/5 48/2/5 131/2/5
f 66/2/5 82/2/5 97/2/5 76/2/5
f 75/2/5 111/2/5 110/2/5 67/2/5
f 81/2/5 117/2/5 121/2/5 82/2/5
f 116/2/5 16/2/5 17/2/5 117/2/5
f 15/2/5 50/2/5 49/2/5 18/2/5
f 73/2/5 165/2/5 166/2/5 74/2/5
f 95/2/5 167/2/5 165/2/5 96/2/5
f 108/2/5 166/2/5 19/2/5 109/2/5
f 119/2/5 20/2/5 167/2/5 120/2/5
f 100/4/6 32/4/6 31/4/6 101/4/6
f 104/5/6 168/5/6 169/5/6 100/5/6
f 107/4/6 40/4/6 35/4/6 104/4/6
f 168/4/6 170/4/6 171/4/6 169/4/6
f 170/5/6 35/5/6 32/5/6 171/5/6
f 172/3/6 173/3/6 147/3/6 88/3/6
f 87/3/6 174/3/6 175/3/6 172/3/6
f 176/2/6 177/2/6 178/2/6 175/2/6
f 174/3/6 179/3/6 122/3/6 176/3/6
f 173/8/6 180/8/6 150/8/6 147/8/6
f 179/3/6 22/3/6 181/3/6 123/3/6
f 180/3/6 182/3/6 21/3/6 150/3/6
f 11/3/6 181/3/6 183/3/6 12/3/6
f 177/3/6 183/3/6 182/3/6 178/3/6
f 78/6/6 184/6/6 91/6/6 79/6/6
f 80/2/6 185/2/6 184/2/6 78/2/6
f 185/2/6 58/2/6 186/2/6 86/2/6
f 187/6/6 56/6/6 55/6/6 25/6/6
f 23/2/6 186/2/6 56/2/6 187/2/6
f 61/1/6 89/1/6 134/1/6 62/1/6
f 71/2/6 90/2/6 94/2/6 72/2/6
f 89/7/6 188/7/6 136/7/6 134/7/6
f 188/1/6 2/1/6 1/1/6 136/1/6
f 128/7/6 189/7/6 140/7/6 129/7/6
f 189/1/6 42/1/6 41/1/6 140/1/6
f 26/2/6 52/2/6 51/2/6 28/2/6
f 3/2/6 127/2/6 126/2/6 4/2/6
f 69/2/6 93/2/6 92/2/6 60/2/6
f 29/2/6 54/2/6 43/2/6 30/2/6
f 114/2/6 14/2/6 13/2/6 115/2/6
f 83/2/6 113/2/6 118/2/6 84/2/6
