# generated by tools/rig_people.py — do not edit
mtllib people.mtl
o body
usemtl palette
v 1 19 -3.5
v 1 19 -2.5
v 1 20 -2.5
v 1 20 -3.5
v -1 14 -0.5
v -1 14 1.5
v -1 15 1.5
v -1 15 -0.5
v -3 19 -3.5
v -3 19 -2.5
v -3 20 -2.5
v -3 20 -3.5
v -3 23 -3.5
v -3 23 -2.5
v -3 24 -2.5
v -3 24 -3.5
v -3 15 -2.5
v -3 15 2.5
v -3 16 2.5
v -3 16 -2.5
v -3 16 -0.5
v -3 18 -0.5
v -3 18 -2.5
v -3 18 -1.5
v -3 21 -1.5
v -3 21 -2.5
v -3 7 -1.5
v -3 7 1.5
v -3 9 1.5
v -3 9 -1.5
v -3 9 2.5
v -3 14 2.5
v -3 14 -1.5
v -3 7 2.5
v -3 22 2.5
v -3 22 3.5
v -3 23 3.5
v -3 23 2.5
v -4 21 -3.5
v -4 21 3.5
v -4 22 3.5
v -4 22 -3.5
v -4 22 2.5
v -4 23 2.5
v -4 23 -3.5
v -4 23 -2.5
v -4 24 2.5
v -4 24 -2.5
v -4 18 -1.5
v -4 18 -0.5
v -4 21 -0.5
v -4 21 -1.5
v -4 16 -0.5
v -4 16 0.5
v -4 19 0.5
v -4 19 -0.5
v -4 19 3.5
v -4 16 3.5
v 4 20 -2.5
v 4 20 3.5
v 4 19 3.5
v 4 19 -2.5
v 4 19 -1.5
v 4 19 -0.5
v 4 18 -0.5
v 4 18 -1.5
v 4 22 -1.5
v 4 22 3.5
v 4 20 -1.5
v 4 23 -1.5
v 4 23 2.5
v 4 22 2.5
v 4 19 0.5
v 4 16 0.5
v 4 16 -0.5
v 4 16 3.5
v 3 20 -3.5
v 3 20 -2.5
v 3 19 -2.5
v 3 19 -3.5
v 3 16 -2.5
v 3 16 2.5
v 3 15 2.5
v 3 15 -2.5
v 3 18 -2.5
v 3 18 -0.5
v 3 16 -0.5
v 3 19 -1.5
v 3 18 -1.5
v 3 21 -2.5
v 3 21 -1.5
v 3 20 -1.5
v 3 23 -2.5
v 3 23 -1.5
v 3 9 -1.5
v 3 9 1.5
v 3 7 1.5
v 3 7 -1.5
v 3 14 -1.5
v 3 14 2.5
v 3 9 2.5
v 3 7 2.5
v 3 23 2.5
v 3 23 3.5
v 3 22 3.5
v 3 22 2.5
v 1 24 -3.5
v 1 24 -2.5
v 1 21 -2.5
v 1 21 -3.5
v 1 24 2.5
v 1 23 2.5
v 1 23 -2.5
v 1 15 -0.5
v 1 15 1.5
v 1 14 1.5
v 1 14 -0.5
v -1 20 -3.5
v -1 20 -2.5
v -1 19 -2.5
v -1 19 -3.5
v 1 23 -3.5
v -0 16 -2.5
v -0 18 -2.5
v 2 18 -2.5
v 2 19 -2.5
v 1 18 -2.5
v -1 18 -2.5
v -1 16 -2.5
v -1 17 -2.5
v -0 17 -2.5
v -3 17 -2.5
v -2 18 -2.5
v -2 19 -2.5
v -3 14 -0.5
v 3 14 -0.5
v 1 14 2.5
v -3 14 1.5
v 1 23 -1.5
v -3 24 2.5
v 3 15 -0.5
v -3 15 -0.5
v 1 15 2.5
v -3 15 1.5
v 3 16 0.5
v 3 16 3.5
v -4 16 2.5
v -3 16 0.5
v -4 21 -2.5
vt 0.3027344 0.5
vt 0.0410156 0.5
vt 0.5214844 0.5
vt 0.9941406 0.5
vt 0.9628906 0.5
vt 0.0527344 0.5
vt 0.5292969 0.5
vt 0.0605469 0.5
vn -1 0 0
vn 1 0 0
vn 0 0 1
vn 0 0 -1
vn 0 1 0
vn 0 -1 0
f 1/1/1 2/1/1 3/1/1 4/1/1
f 5/2/1 6/2/1 7/2/1 8/2/1
f 9/1/1 10/1/1 11/1/1 12/1/1
f 13/1/1 14/1/1 15/1/1 16/1/1
f 17/2/1 18/2/1 19/2/1 20/2/1
f 20/2/1 21/2/1 22/2/1 23/2/1
f 23/2/1 24/2/1 25/2/1 26/2/1
f 27/3/1 28/3/1 29/3/1 30/3/1
f 30/4/1 31/4/1 32/4/1 33/4/1
f 28/5/1 34/5/1 31/5/1 29/5/1
f 35/1/1 36/1/1 37/1/1 38/1/1
f 39/1/1 40/1/1 41/1/1 42/1/1
f 42/1/1 43/1/1 44/1/1 45/1/1
f 46/1/1 44/1/1 47/1/1 48/1/1
f 49/1/1 50/1/1 51/1/1 52/1/1
f 53/6/1 54/6/1 55/6/1 56/6/1
f 56/1/1 57/1/1 40/1/1 51/1/1
f 54/1/1 58/1/1 57/1/1 55/1/1
f 59/1/2 60/1/2 61/1/2 62/1/2
f 63/1/2 64/1/2 65/1/2 66/1/2
f 67/1/2 68/1/2 60/1/2 69/1/2
f 70/1/2 71/1/2 72/1/2 67/1/2
f 64/6/2 73/6/2 74/6/2 75/6/2
f 73/1/2 61/1/2 76/1/2 74/1/2
f 77/1/2 78/1/2 79/1/2 80/1/2
f 81/2/2 82/2/2 83/2/2 84/2/2
f 85/2/2 86/2/2 87/2/2 81/2/2
f 79/2/2 88/2/2 89/2/2 85/2/2
f 90/2/2 91/2/2 92/2/2 78/2/2
f 93/1/2 94/1/2 91/1/2 90/1/2
f 95/3/2 96/3/2 97/3/2 98/3/2
f 99/4/2 100/4/2 101/4/2 95/4/2
f 96/5/2 101/5/2 102/5/2 97/5/2
f 103/1/2 104/1/2 105/1/2 106/1/2
f 107/1/2 108/1/2 109/1/2 110/1/2
f 108/1/2 111/1/2 112/1/2 113/1/2
f 114/2/2 115/2/2 116/2/2 117/2/2
f 118/1/2 119/1/2 120/1/2 121/1/2
f 115/2/3 7/2/3 6/2/3 116/2/3
f 71/1/3 103/1/3 106/1/3 72/1/3
f 101/5/3 31/5/3 34/5/3 102/5/3
f 100/4/3 32/4/3 31/4/3 101/4/3
f 82/2/3 19/2/3 18/2/3 83/2/3
f 111/1/3 47/1/3 44/1/3 112/1/3
f 38/1/3 44/1/3 43/1/3 35/1/3
f 68/1/3 41/1/3 58/1/3 76/1/3
f 104/1/3 37/1/3 36/1/3 105/1/3
f 80/1/4 1/1/4 4/1/4 77/1/4
f 110/1/4 39/1/4 45/1/4 122/1/4
f 122/1/4 13/1/4 16/1/4 107/1/4
f 121/1/4 9/1/4 12/1/4 118/1/4
f 62/1/4 79/1/4 78/1/4 59/1/4
f 84/2/4 17/2/4 20/2/4 81/2/4
f 81/2/4 123/2/4 124/2/4 85/2/4
f 85/2/4 125/2/4 126/2/4 79/2/4
f 78/2/4 11/2/4 26/2/4 90/2/4
f 90/1/4 109/1/4 113/1/4 93/1/4
f 125/7/4 127/7/4 2/7/4 126/7/4
f 127/2/4 128/2/4 119/2/4 3/2/4
f 123/8/4 129/8/4 130/8/4 131/8/4
f 131/2/4 132/2/4 23/2/4 124/2/4
f 129/2/4 20/2/4 132/2/4 130/2/4
f 128/7/4 133/7/4 134/7/4 120/7/4
f 133/2/4 23/2/4 10/2/4 134/2/4
f 14/1/4 46/1/4 48/1/4 15/1/4
f 66/1/4 89/1/4 88/1/4 63/1/4
f 69/1/4 92/1/4 94/1/4 70/1/4
f 98/3/4 27/3/4 30/3/4 95/3/4
f 95/4/4 30/4/4 33/4/4 99/4/4
f 24/1/4 49/1/4 52/1/4 25/1/4
f 75/6/4 87/6/4 86/6/4 65/6/4
f 117/2/4 5/2/4 8/2/4 114/2/4
f 21/6/4 53/6/4 50/6/4 22/6/4
f 99/4/5 33/4/5 135/4/5 136/4/5
f 136/4/5 117/4/5 137/4/5 100/4/5
f 116/4/5 138/4/5 32/4/5 137/4/5
f 5/4/5 135/4/5 138/4/5 6/4/5
f 59/1/5 78/1/5 92/1/5 69/1/5
f 77/1/5 4/1/5 3/1/5 78/1/5
f 118/1/5 12/1/5 11/1/5 119/1/5
f 72/1/5 106/1/5 105/1/5 68/1/5
f 35/1/5 43/1/5 41/1/5 36/1/5
f 70/1/5 139/1/5 112/1/5 71/1/5
f 93/1/5 113/1/5 139/1/5 94/1/5
f 103/1/5 38/1/5 37/1/5 104/1/5
f 13/1/5 45/1/5 46/1/5 14/1/5
f 107/1/5 16/1/5 140/1/5 111/1/5
f 15/1/5 48/1/5 47/1/5 140/1/5
f 97/3/6 28/3/6 27/3/6 98/3/6
f 102/5/6 34/5/6 28/5/6 97/5/6
f 141/2/6 142/2/6 17/2/6 84/2/6
f 83/2/6 143/2/6 114/2/6 141/2/6
f 143/2/6 18/2/6 144/2/6 115/2/6
f 7/2/6 144/2/6 142/2/6 8/2/6
f 74/6/6 145/6/6 87/6/6 75/6/6
f 76/1/6 146/1/6 145/1/6 74/1/6
f 146/1/6 58/1/6 147/1/6 82/1/6
f 148/6/6 54/6/6 53/6/6 21/6/6
f 19/1/6 147/1/6 54/1/6 148/1/6
f 65/1/6 86/1/6 89/1/6 66/1/6
f 22/1/6 50/1/6 49/1/6 24/1/6
f 63/1/6 88/1/6 79/1/6 62/1/6
f 79/1/6 2/1/6 1/1/6 80/1/6
f 120/1/6 10/1/6 9/1/6 121/1/6
f 109/1/6 149/1/6 39/1/6 110/1/6
f 25/1/6 52/1/6 149/1/6 26/1/6
