# generated by tools/rig_people.py — do not edit
mtllib people.mtl
o leg-r
usemtl palette
v 1 0 -2.5
v 1 0 0.5
v 1 1 0.5
v 1 1 -2.5
v 1 1 -1.5
v 1 1 -0.5
v 1 2 -0.5
v 1 2 -1.5
v 1 2 0.5
v 1 3 0.5
v 1 3 -1.5
v 1 3 -0.5
v 1 4 -0.5
v 1 4 -1.5
v 1 4 0.5
v 1 7 0.5
v 1 7 -1.5
v 3 1 -2.5
v 3 1 0.5
v 3 0 0.5
v 3 0 -2.5
v 3 2 -1.5
v 3 2 -0.5
v 3 1 -0.5
v 3 1 -1.5
v 3 3 -1.5
v 3 3 0.5
v 3 2 0.5
v 3 4 -1.5
v 3 4 -0.5
v 3 3 -0.5
v 3 5 -1.5
v 3 5 -0.5
v 3 7 -1.5
v 3 7 0.5
v 3 5 0.5
v 3 4 0.5
v 2 4 -1.5
v 2 5 -1.5
v 1 5 -1.5
vt 0.5253906 0.5
vt 0.5292969 0.5
vt 0.2636719 0.5
vt 0.0410156 0.5
vn -1 0 0
vn 1 0 0
vn 0 0 1
vn 0 0 -1
vn 0 1 0
vn 0 -1 0
f 1/1/1 2/1/1 3/1/1 4/1/1
f 5/2/1 6/2/1 7/2/1 8/2/1
f 8/1/1 9/1/1 10/1/1 11/1/1
f 11/2/1 12/2/1 13/2/1 14/2/1
f 14/3/1 15/3/1 16/3/1 17/3/1
f 6/1/1 3/1/1 9/1/1 7/1/1
f 12/1/1 10/1/1 15/1/1 13/1/1
f 18/1/2 19/1/2 20/1/2 21/1/2
f 22/2/2 23/2/2 24/2/2 25/2/2
f 26/1/2 27/1/2 28/1/2 22/1/2
f 29/2/2 30/2/2 31/2/2 26/2/2
f 32/4/2 33/4/2 30/4/2 29/4/2
f 34/3/2 35/3/2 36/3/2 32/3/2
f 23/1/2 28/1/2 19/1/2 24/1/2
f 30/1/2 37/1/2 27/1/2 31/1/2
f 33/3/2 36/3/2 37/3/2 30/3/2
f 37/1/3 15/1/3 2/1/3 20/1/3
f 35/3/3 16/3/3 15/3/3 37/3/3
f 21/1/4 1/1/4 4/1/4 18/1/4
f 25/2/4 5/2/4 8/2/4 22/2/4
f 22/1/4 8/1/4 11/1/4 26/1/4
f 26/2/4 11/2/4 14/2/4 29/2/4
f 29/4/4 38/4/4 39/4/4 32/4/4
f 32/3/4 40/3/4 17/3/4 34/3/4
f 38/3/4 14/3/4 40/3/4 39/3/4
f 18/1/5 4/1/5 5/1/5 25/1/5
f 34/3/5 17/3/5 16/3/5 35/3/5
f 20/1/6 2/1/6 1/1/6 21/1/6
