# MagicaVoxel @ Ephtracy

# group
o 

# material
mtllib Character-3.mtl
usemtl palette

# normals
vn -1 0 0
vn 1 0 0
vn 0 0 1
vn 0 0 -1
vn 0 -1 0
vn 0 1 0

# texcoords
vt 0.0410156 0.5
vt 0.0488281 0.5
vt 0.251953 0.5
vt 0.259766 0.5
vt 0.474609 0.5
vt 0.482422 0.5
vt 0.517578 0.5
vt 0.521484 0.5
vt 0.951172 0.5
vt 0.978516 0.5

# verts
v 1.4 0.8 -1.3
v 1.4 0.8 -1.5
v 1.4 1.4 -1.3
v 1.4 1.4 -1.5
v 1.7 1.6 -1
v 1.7 1.6 -1.3
v 1.7 1.9 -1
v 1.7 1.9 -1.3
v 1.8 0.3 -0.8
v 1.8 0.3 -1.1
v 1.8 0.4 -0.8
v 1.8 0.4 -0.9
v 1.8 0.4 -1.1
v 1.8 0.5 -0.9
v 1.8 0.5 -1.1
v 1.8 0.6 -1.1
v 1.8 0.6 -1.5
v 1.8 0.7 -1.5
v 1.8 0.7 -1.6
v 1.8 0.8 -0.9
v 1.8 0.8 -1.2
v 1.8 0.8 -1.3
v 1.8 0.8 -1.4
v 1.8 0.8 -1.6
v 1.8 0.9 -1.2
v 1.8 0.9 -1.3
v 1.8 0.9 -1.4
v 1.8 0.9 -1.6
v 1.8 1.2 -1.3
v 1.8 1.2 -1.5
v 1.8 1.4 -1.2
v 1.8 1.4 -1.3
v 1.8 1.4 -1.5
v 1.8 1.4 -1.6
v 1.8 1.5 -1
v 1.8 1.5 -1.6
v 1.8 1.6 -1
v 1.8 1.6 -1.3
v 1.8 1.6 -1.6
v 1.8 1.6 -1.7
v 1.8 1.9 -1.1
v 1.8 1.9 -1.2
v 1.8 1.9 -1.3
v 1.8 2 -1.1
v 1.8 2 -1.2
v 1.8 2 -1.3
v 1.8 2.2 -1.1
v 1.8 2.2 -1.2
v 1.8 2.2 -1.6
v 1.8 2.2 -1.7
v 1.8 2.3 -1.2
v 1.8 2.3 -1.3
v 1.8 2.3 -1.4
v 1.8 2.3 -1.6
v 1.8 2.6 -1.3
v 1.8 2.6 -1.4
v 1.9 1.4 -1.2
v 1.9 1.4 -1.6
v 1.9 1.5 -0.5
v 1.9 1.5 -0.8
v 1.9 1.5 -1
v 1.9 1.5 -1.2
v 1.9 1.5 -1.6
v 1.9 1.6 -0.5
v 1.9 1.6 -0.7
v 1.9 1.7 -0.5
v 1.9 1.7 -0.7
v 1.9 1.9 -0.6
v 1.9 1.9 -0.8
v 1.9 1.9 -1
v 1.9 1.9 -1.1
v 1.9 2 -0.5
v 1.9 2 -0.6
v 1.9 2 -1
v 1.9 2 -1.1
v 1.9 2.2 -1.6
v 1.9 2.2 -1.7
v 1.9 2.3 -1.6
v 1.9 2.3 -1.7
v 2 1.6 -1.7
v 2 1.6 -1.8
v 2 1.8 -1.7
v 2 1.8 -1.8
v 2 1.9 -1.7
v 2 1.9 -1.8
v 2 2 -1.7
v 2 2 -1.8
v 2 2.1 -1.7
v 2 2.1 -1.8
v 2 2.3 -1.2
v 2 2.3 -1.3
v 2 2.3 -1.4
v 2 2.3 -1.7
v 2 2.3 -1.8
v 2 2.4 -1.2
v 2 2.4 -1.3
v 2 2.4 -1.4
v 2 2.4 -1.7
v 2.2 0.2 -1.7
v 2.2 0.2 -1.8
v 2.2 0.3 -1.3
v 2.2 0.3 -1.6
v 2.2 0.3 -1.7
v 2.2 0.5 -1.5
v 2.2 0.5 -1.6
v 2.2 0.5 -1.7
v 2.2 0.5 -1.8
v 2.2 0.7 -1.3
v 2.2 0.7 -1.5
v 2.2 1.9 -0.5
v 2.2 1.9 -0.6
v 2.2 2 -0.5
v 2.2 2 -0.6
v 2.2 2.4 -1.3
v 2.2 2.4 -1.4
v 2.2 2.5 -1.3
v 2.2 2.5 -1.4
v 2.3 2.5 -1.3
v 2.3 2.5 -1.4
v 2.3 2.6 -1.3
v 2.3 2.6 -1.4
v 2.5 0.8 -1.3
v 2.5 0.8 -1.5
v 2.5 1 -1.3
v 2.5 1 -1.5
v 2.6 1 -1.3
v 2.6 1 -1.5
v 2.6 1.2 -1.3
v 2.6 1.2 -1.5
v 1.6 1 -1.3
v 1.6 1 -1.5
v 1.6 1.2 -1.3
v 1.6 1.2 -1.5
v 1.7 0.8 -1.3
v 1.7 0.8 -1.5
v 1.7 1 -1.3
v 1.7 1 -1.5
v 1.9 2.5 -1.3
v 1.9 2.5 -1.4
v 1.9 2.6 -1.3
v 1.9 2.6 -1.4
v 2 0.3 -0.8
v 2 0.3 -1.1
v 2 0.4 -0.8
v 2 0.4 -0.9
v 2 0.4 -1.1
v 2 0.5 -0.9
v 2 0.5 -1.1
v 2 0.6 -1.1
v 2 0.6 -1.5
v 2 0.7 -1.2
v 2 0.7 -1.5
v 2 0.8 -0.9
v 2 0.8 -1.2
v 2 1.9 -0.5
v 2 1.9 -0.6
v 2 2 -0.5
v 2 2 -0.6
v 2 2.4 -1.3
v 2 2.4 -1.4
v 2 2.5 -1.3
v 2 2.5 -1.4
v 2.2 1.6 -1.7
v 2.2 1.6 -1.8
v 2.2 1.8 -1.7
v 2.2 1.8 -1.8
v 2.2 1.9 -1.7
v 2.2 1.9 -1.8
v 2.2 2 -1.7
v 2.2 2 -1.8
v 2.2 2.1 -1.7
v 2.2 2.1 -1.8
v 2.2 2.3 -1.2
v 2.2 2.3 -1.3
v 2.2 2.3 -1.4
v 2.2 2.3 -1.7
v 2.2 2.3 -1.8
v 2.2 2.4 -1.2
v 2.2 2.4 -1.3
v 2.2 2.4 -1.4
v 2.2 2.4 -1.7
v 2.3 1.4 -1.2
v 2.3 1.4 -1.6
v 2.3 1.5 -0.5
v 2.3 1.5 -0.8
v 2.3 1.5 -1
v 2.3 1.5 -1.2
v 2.3 1.5 -1.6
v 2.3 1.6 -0.5
v 2.3 1.6 -0.7
v 2.3 1.7 -0.5
v 2.3 1.7 -0.7
v 2.3 1.9 -0.6
v 2.3 1.9 -0.8
v 2.3 1.9 -1
v 2.3 1.9 -1.1
v 2.3 2 -0.5
v 2.3 2 -0.6
v 2.3 2 -1
v 2.3 2 -1.1
v 2.3 2.2 -1.6
v 2.3 2.2 -1.7
v 2.3 2.3 -1.6
v 2.3 2.3 -1.7
v 2.4 0.2 -1.7
v 2.4 0.2 -1.8
v 2.4 0.3 -1.3
v 2.4 0.3 -1.6
v 2.4 0.3 -1.7
v 2.4 0.5 -1.5
v 2.4 0.5 -1.6
v 2.4 0.5 -1.7
v 2.4 0.5 -1.8
v 2.4 0.7 -1.2
v 2.4 0.7 -1.3
v 2.4 0.7 -1.5
v 2.4 0.7 -1.6
v 2.4 0.8 -1.2
v 2.4 0.8 -1.3
v 2.4 0.8 -1.4
v 2.4 0.8 -1.6
v 2.4 0.9 -1.2
v 2.4 0.9 -1.3
v 2.4 0.9 -1.4
v 2.4 0.9 -1.6
v 2.4 1.2 -1.3
v 2.4 1.2 -1.5
v 2.4 1.4 -1.2
v 2.4 1.4 -1.3
v 2.4 1.4 -1.5
v 2.4 1.4 -1.6
v 2.4 1.5 -1
v 2.4 1.5 -1.6
v 2.4 1.6 -1
v 2.4 1.6 -1.3
v 2.4 1.6 -1.6
v 2.4 1.6 -1.7
v 2.4 1.9 -1.1
v 2.4 1.9 -1.2
v 2.4 1.9 -1.3
v 2.4 2 -1.1
v 2.4 2 -1.2
v 2.4 2 -1.3
v 2.4 2.2 -1.1
v 2.4 2.2 -1.2
v 2.4 2.2 -1.6
v 2.4 2.2 -1.7
v 2.4 2.3 -1.2
v 2.4 2.3 -1.3
v 2.4 2.3 -1.4
v 2.4 2.3 -1.6
v 2.4 2.6 -1.3
v 2.4 2.6 -1.4
v 2.5 1.6 -1
v 2.5 1.6 -1.3
v 2.5 1.9 -1
v 2.5 1.9 -1.3
v 2.8 0.8 -1.3
v 2.8 0.8 -1.5
v 2.8 1.4 -1.3
v 2.8 1.4 -1.5
v 1.9 1.5 -0.5
v 1.9 1.6 -0.5
v 1.9 1.7 -0.5
v 1.9 2 -0.5
v 2 1.9 -0.5
v 2 2 -0.5
v 2.2 1.9 -0.5
v 2.2 2 -0.5
v 2.3 1.5 -0.5
v 2.3 1.6 -0.5
v 2.3 1.7 -0.5
v 2.3 2 -0.5
v 1.9 1.6 -0.7
v 1.9 1.7 -0.7
v 2.3 1.6 -0.7
v 2.3 1.7 -0.7
v 1.8 0.3 -0.8
v 1.8 0.4 -0.8
v 2 0.3 -0.8
v 2 0.4 -0.8
v 1.8 0.4 -0.9
v 1.8 0.5 -0.9
v 1.8 0.8 -0.9
v 2 0.4 -0.9
v 2 0.5 -0.9
v 2 0.8 -0.9
v 1.7 1.6 -1
v 1.7 1.9 -1
v 1.8 1.5 -1
v 1.8 1.6 -1
v 1.9 1.5 -1
v 1.9 1.9 -1
v 1.9 2 -1
v 2 1.9 -1
v 2.2 1.9 -1
v 2.3 1.5 -1
v 2.3 1.9 -1
v 2.3 2 -1
v 2.4 1.5 -1
v 2.4 1.6 -1
v 2.5 1.6 -1
v 2.5 1.9 -1
v 1.8 1.9 -1.1
v 1.8 2 -1.1
v 1.8 2.2 -1.1
v 1.9 1.9 -1.1
v 1.9 2 -1.1
v 1.9 2.2 -1.1
v 2.3 1.9 -1.1
v 2.3 2 -1.1
v 2.3 2.2 -1.1
v 2.4 1.9 -1.1
v 2.4 2 -1.1
v 2.4 2.2 -1.1
v 1.8 0.8 -1.2
v 1.8 0.9 -1.2
v 1.8 1.4 -1.2
v 1.8 2.2 -1.2
v 1.8 2.3 -1.2
v 1.9 0.8 -1.2
v 1.9 0.9 -1.2
v 1.9 1.2 -1.2
v 1.9 1.3 -1.2
v 1.9 1.4 -1.2
v 1.9 1.5 -1.2
v 1.9 2.2 -1.2
v 2 0.7 -1.2
v 2 0.8 -1.2
v 2 0.9 -1.2
v 2 1.2 -1.2
v 2 1.3 -1.2
v 2 2.2 -1.2
v 2 2.3 -1.2
v 2 2.4 -1.2
v 2.2 0.8 -1.2
v 2.2 0.9 -1.2
v 2.2 1.2 -1.2
v 2.2 1.3 -1.2
v 2.2 2.2 -1.2
v 2.2 2.3 -1.2
v 2.2 2.4 -1.2
v 2.3 0.8 -1.2
v 2.3 0.9 -1.2
v 2.3 1.2 -1.2
v 2.3 1.3 -1.2
v 2.3 1.4 -1.2
v 2.3 1.5 -1.2
v 2.3 2.2 -1.2
v 2.4 0.7 -1.2
v 2.4 0.8 -1.2
v 2.4 0.9 -1.2
v 2.4 1.4 -1.2
v 2.4 2.2 -1.2
v 2.4 2.3 -1.2
v 1.4 0.8 -1.3
v 1.4 1.4 -1.3
v 1.6 1 -1.3
v 1.6 1.2 -1.3
v 1.7 0.8 -1.3
v 1.7 1 -1.3
v 1.8 1.2 -1.3
v 1.8 1.4 -1.3
v 1.8 2.3 -1.3
v 1.8 2.6 -1.3
v 1.9 2.5 -1.3
v 1.9 2.6 -1.3
v 2 2.3 -1.3
v 2 2.4 -1.3
v 2 2.5 -1.3
v 2.2 0.3 -1.3
v 2.2 0.7 -1.3
v 2.2 2.3 -1.3
v 2.2 2.4 -1.3
v 2.2 2.5 -1.3
v 2.3 2.5 -1.3
v 2.3 2.6 -1.3
v 2.4 0.3 -1.3
v 2.4 0.7 -1.3
v 2.4 1.2 -1.3
v 2.4 1.4 -1.3
v 2.4 2.3 -1.3
v 2.4 2.6 -1.3
v 2.5 0.8 -1.3
v 2.5 1 -1.3
v 2.6 1 -1.3
v 2.6 1.2 -1.3
v 2.8 0.8 -1.3
v 2.8 1.4 -1.3
v 2.2 0.2 -1.7
v 2.2 0.3 -1.7
v 2.4 0.2 -1.7
v 2.4 0.3 -1.7
v 1.9 1.9 -0.6
v 1.9 2 -0.6
v 2 1.9 -0.6
v 2 2 -0.6
v 2.2 1.9 -0.6
v 2.2 2 -0.6
v 2.3 1.9 -0.6
v 2.3 2 -0.6
v 1.8 0.3 -1.1
v 1.8 0.4 -1.1
v 1.8 0.5 -1.1
v 1.8 0.6 -1.1
v 2 0.3 -1.1
v 2 0.4 -1.1
v 2 0.5 -1.1
v 2 0.6 -1.1
v 1.7 1.6 -1.3
v 1.7 1.9 -1.3
v 1.8 1.6 -1.3
v 1.8 1.9 -1.3
v 2.4 1.6 -1.3
v 2.4 1.9 -1.3
v 2.5 1.6 -1.3
v 2.5 1.9 -1.3
v 1.8 2.3 -1.4
v 1.8 2.6 -1.4
v 1.9 2.5 -1.4
v 1.9 2.6 -1.4
v 2 2.3 -1.4
v 2 2.4 -1.4
v 2 2.5 -1.4
v 2.2 2.3 -1.4
v 2.2 2.4 -1.4
v 2.2 2.5 -1.4
v 2.3 2.5 -1.4
v 2.3 2.6 -1.4
v 2.4 2.3 -1.4
v 2.4 2.6 -1.4
v 1.4 0.8 -1.5
v 1.4 1.4 -1.5
v 1.6 1 -1.5
v 1.6 1.2 -1.5
v 1.7 0.8 -1.5
v 1.7 1 -1.5
v 1.8 0.6 -1.5
v 1.8 0.7 -1.5
v 1.8 1.2 -1.5
v 1.8 1.4 -1.5
v 2 0.6 -1.5
v 2 0.7 -1.5
v 2.2 0.5 -1.5
v 2.2 0.7 -1.5
v 2.4 0.5 -1.5
v 2.4 0.7 -1.5
v 2.4 1.2 -1.5
v 2.4 1.4 -1.5
v 2.5 0.8 -1.5
v 2.5 1 -1.5
v 2.6 1 -1.5
v 2.6 1.2 -1.5
v 2.8 0.8 -1.5
v 2.8 1.4 -1.5
v 1.8 0.7 -1.6
v 1.8 0.8 -1.6
v 1.8 0.9 -1.6
v 1.8 1.4 -1.6
v 1.8 1.5 -1.6
v 1.8 1.6 -1.6
v 1.8 2.2 -1.6
v 1.8 2.3 -1.6
v 1.9 0.8 -1.6
v 1.9 0.9 -1.6
v 1.9 1.4 -1.6
v 1.9 1.5 -1.6
v 1.9 2.2 -1.6
v 1.9 2.3 -1.6
v 2 0.8 -1.6
v 2 0.9 -1.6
v 2.2 0.8 -1.6
v 2.2 0.9 -1.6
v 2.3 0.8 -1.6
v 2.3 0.9 -1.6
v 2.3 1.4 -1.6
v 2.3 1.5 -1.6
v 2.3 2.2 -1.6
v 2.3 2.3 -1.6
v 2.4 0.7 -1.6
v 2.4 0.8 -1.6
v 2.4 0.9 -1.6
v 2.4 1.4 -1.6
v 2.4 1.5 -1.6
v 2.4 1.6 -1.6
v 2.4 2.2 -1.6
v 2.4 2.3 -1.6
v 1.8 1.6 -1.7
v 1.8 2.2 -1.7
v 1.9 2.2 -1.7
v 1.9 2.3 -1.7
v 2 1.6 -1.7
v 2 1.8 -1.7
v 2 1.9 -1.7
v 2 2 -1.7
v 2 2.1 -1.7
v 2 2.3 -1.7
v 2 2.4 -1.7
v 2.2 1.6 -1.7
v 2.2 1.8 -1.7
v 2.2 1.9 -1.7
v 2.2 2 -1.7
v 2.2 2.1 -1.7
v 2.2 2.3 -1.7
v 2.2 2.4 -1.7
v 2.3 2.2 -1.7
v 2.3 2.3 -1.7
v 2.4 1.6 -1.7
v 2.4 2.2 -1.7
v 2 1.6 -1.8
v 2 1.8 -1.8
v 2 1.9 -1.8
v 2 2 -1.8
v 2 2.1 -1.8
v 2 2.3 -1.8
v 2.2 0.2 -1.8
v 2.2 0.5 -1.8
v 2.2 1.6 -1.8
v 2.2 1.8 -1.8
v 2.2 1.9 -1.8
v 2.2 2 -1.8
v 2.2 2.1 -1.8
v 2.2 2.3 -1.8
v 2.4 0.2 -1.8
v 2.4 0.5 -1.8
v 2.2 0.2 -1.7
v 2.4 0.2 -1.7
v 2.2 0.2 -1.8
v 2.4 0.2 -1.8
v 1.8 0.3 -0.8
v 2 0.3 -0.8
v 1.8 0.3 -1.1
v 2 0.3 -1.1
v 2.2 0.3 -1.3
v 2.4 0.3 -1.3
v 2.2 0.3 -1.6
v 2.4 0.3 -1.6
v 2.2 0.3 -1.7
v 2.4 0.3 -1.7
v 1.8 0.6 -1.1
v 2 0.6 -1.1
v 1.8 0.6 -1.5
v 2 0.6 -1.5
v 2 0.7 -1.2
v 2.4 0.7 -1.2
v 2.2 0.7 -1.3
v 2.4 0.7 -1.3
v 1.8 0.7 -1.5
v 2 0.7 -1.5
v 2.2 0.7 -1.5
v 2.4 0.7 -1.5
v 1.8 0.7 -1.6
v 2.4 0.7 -1.6
v 1.4 0.8 -1.3
v 1.7 0.8 -1.3
v 2.5 0.8 -1.3
v 2.8 0.8 -1.3
v 1.4 0.8 -1.5
v 1.7 0.8 -1.5
v 2.5 0.8 -1.5
v 2.8 0.8 -1.5
v 1.6 1.2 -1.3
v 1.8 1.2 -1.3
v 2.4 1.2 -1.3
v 2.6 1.2 -1.3
v 1.6 1.2 -1.5
v 1.8 1.2 -1.5
v 2.4 1.2 -1.5
v 2.6 1.2 -1.5
v 1.9 1.5 -0.5
v 2.3 1.5 -0.5
v 1.9 1.5 -0.8
v 2.3 1.5 -0.8
v 1.8 1.5 -1
v 1.9 1.5 -1
v 2.3 1.5 -1
v 2.4 1.5 -1
v 1.9 1.5 -1.2
v 2.3 1.5 -1.2
v 1.8 1.5 -1.6
v 1.9 1.5 -1.6
v 2.3 1.5 -1.6
v 2.4 1.5 -1.6
v 1.7 1.6 -1
v 1.8 1.6 -1
v 2.4 1.6 -1
v 2.5 1.6 -1
v 1.7 1.6 -1.3
v 1.8 1.6 -1.3
v 2.4 1.6 -1.3
v 2.5 1.6 -1.3
v 1.8 1.6 -1.6
v 2.4 1.6 -1.6
v 1.8 1.6 -1.7
v 2 1.6 -1.7
v 2.2 1.6 -1.7
v 2.4 1.6 -1.7
v 2 1.6 -1.8
v 2.2 1.6 -1.8
v 1.9 1.7 -0.5
v 2.3 1.7 -0.5
v 1.9 1.7 -0.7
v 2.3 1.7 -0.7
v 2 1.9 -1.7
v 2.2 1.9 -1.7
v 2 1.9 -1.8
v 2.2 1.9 -1.8
v 2 2.1 -1.7
v 2.2 2.1 -1.7
v 2 2.1 -1.8
v 2.2 2.1 -1.8
v 1.8 0.4 -0.8
v 2 0.4 -0.8
v 1.8 0.4 -0.9
v 2 0.4 -0.9
v 2.2 0.5 -1.5
v 2.4 0.5 -1.5
v 2.2 0.5 -1.6
v 2.4 0.5 -1.6
v 2.2 0.5 -1.7
v 2.4 0.5 -1.7
v 2.2 0.5 -1.8
v 2.4 0.5 -1.8
v 1.8 0.8 -0.9
v 2 0.8 -0.9
v 1.8 0.8 -1.2
v 1.9 0.8 -1.2
v 2 0.8 -1.2
v 1.6 1 -1.3
v 1.7 1 -1.3
v 2.5 1 -1.3
v 2.6 1 -1.3
v 1.6 1 -1.5
v 1.7 1 -1.5
v 2.5 1 -1.5
v 2.6 1 -1.5
v 1.8 1.4 -1.2
v 1.9 1.4 -1.2
v 2.3 1.4 -1.2
v 2.4 1.4 -1.2
v 1.4 1.4 -1.3
v 1.8 1.4 -1.3
v 2.4 1.4 -1.3
v 2.8 1.4 -1.3
v 1.4 1.4 -1.5
v 1.8 1.4 -1.5
v 2.4 1.4 -1.5
v 2.8 1.4 -1.5
v 1.8 1.4 -1.6
v 1.9 1.4 -1.6
v 2.3 1.4 -1.6
v 2.4 1.4 -1.6
v 1.9 1.6 -0.5
v 2.3 1.6 -0.5
v 1.9 1.6 -0.7
v 2.3 1.6 -0.7
v 2 1.8 -1.7
v 2.2 1.8 -1.7
v 2 1.8 -1.8
v 2.2 1.8 -1.8
v 2 1.9 -0.5
v 2.2 1.9 -0.5
v 1.9 1.9 -0.6
v 2 1.9 -0.6
v 2.2 1.9 -0.6
v 2.3 1.9 -0.6
v 2 1.9 -0.7
v 2.2 1.9 -0.7
v 1.9 1.9 -0.8
v 2 1.9 -0.8
v 2.2 1.9 -0.8
v 2.3 1.9 -0.8
v 1.7 1.9 -1
v 1.9 1.9 -1
v 2 1.9 -1
v 2.2 1.9 -1
v 2.3 1.9 -1
v 2.5 1.9 -1
v 1.8 1.9 -1.1
v 1.9 1.9 -1.1
v 2.3 1.9 -1.1
v 2.4 1.9 -1.1
v 1.8 1.9 -1.2
v 2.4 1.9 -1.2
v 1.7 1.9 -1.3
v 1.8 1.9 -1.3
v 2.4 1.9 -1.3
v 2.5 1.9 -1.3
v 1.9 2 -0.5
v 2 2 -0.5
v 2.2 2 -0.5
v 2.3 2 -0.5
v 1.9 2 -0.6
v 2 2 -0.6
v 2.2 2 -0.6
v 2.3 2 -0.6
v 1.9 2 -1
v 2.3 2 -1
v 1.9 2 -1.1
v 2.3 2 -1.1
v 2 2 -1.7
v 2.2 2 -1.7
v 2 2 -1.8
v 2.2 2 -1.8
v 1.8 2.2 -1.1
v 1.9 2.2 -1.1
v 2.3 2.2 -1.1
v 2.4 2.2 -1.1
v 1.8 2.2 -1.2
v 1.9 2.2 -1.2
v 2 2.2 -1.2
v 2.2 2.2 -1.2
v 2.3 2.2 -1.2
v 2.4 2.2 -1.2
v 1.8 2.2 -1.6
v 1.9 2.2 -1.6
v 2.3 2.2 -1.6
v 2.4 2.2 -1.6
v 1.8 2.2 -1.7
v 1.9 2.2 -1.7
v 2.3 2.2 -1.7
v 2.4 2.2 -1.7
v 1.8 2.3 -1.2
v 2 2.3 -1.2
v 2.2 2.3 -1.2
v 2.4 2.3 -1.2
v 1.8 2.3 -1.3
v 2 2.3 -1.3
v 2.2 2.3 -1.3
v 2.4 2.3 -1.3
v 1.8 2.3 -1.4
v 2 2.3 -1.4
v 2.2 2.3 -1.4
v 2.4 2.3 -1.4
v 1.8 2.3 -1.6
v 1.9 2.3 -1.6
v 2.3 2.3 -1.6
v 2.4 2.3 -1.6
v 1.9 2.3 -1.7
v 2 2.3 -1.7
v 2.2 2.3 -1.7
v 2.3 2.3 -1.7
v 2 2.3 -1.8
v 2.2 2.3 -1.8
v 2 2.4 -1.2
v 2.2 2.4 -1.2
v 2 2.4 -1.3
v 2.2 2.4 -1.3
v 2 2.4 -1.4
v 2.2 2.4 -1.4
v 2 2.4 -1.7
v 2.2 2.4 -1.7
v 1.9 2.5 -1.3
v 2 2.5 -1.3
v 2.2 2.5 -1.3
v 2.3 2.5 -1.3
v 1.9 2.5 -1.4
v 2 2.5 -1.4
v 2.2 2.5 -1.4
v 2.3 2.5 -1.4
v 1.8 2.6 -1.3
v 1.9 2.6 -1.3
v 2.3 2.6 -1.3
v 2.4 2.6 -1.3
v 1.8 2.6 -1.4
v 1.9 2.6 -1.4
v 2.3 2.6 -1.4
v 2.4 2.6 -1.4

# faces
f 3/1/1 2/1/1 1/1/1
f 4/1/1 2/1/1 3/1/1
f 7/5/1 6/5/1 5/5/1
f 8/5/1 6/5/1 7/5/1
f 11/5/1 10/5/1 9/5/1
f 12/5/1 10/5/1 11/5/1
f 13/5/1 10/5/1 12/5/1
f 14/3/1 13/3/1 12/3/1
f 15/3/1 13/3/1 14/3/1
f 16/4/1 15/4/1 14/4/1
f 18/4/1 17/4/1 16/4/1
f 20/4/1 16/4/1 14/4/1
f 20/4/1 19/4/1 18/4/1
f 20/4/1 18/4/1 16/4/1
f 21/4/1 19/4/1 20/4/1
f 22/4/1 19/4/1 21/4/1
f 23/4/1 19/4/1 22/4/1
f 24/4/1 19/4/1 23/4/1
f 25/7/1 22/7/1 21/7/1
f 26/4/1 23/4/1 22/4/1
f 26/7/1 22/7/1 25/7/1
f 27/7/1 24/7/1 23/7/1
f 27/4/1 23/4/1 26/4/1
f 28/7/1 24/7/1 27/7/1
f 29/1/1 26/1/1 25/1/1
f 29/1/1 27/1/1 26/1/1
f 29/1/1 28/1/1 27/1/1
f 30/1/1 28/1/1 29/1/1
f 31/1/1 29/1/1 25/1/1
f 32/1/1 29/1/1 31/1/1
f 33/1/1 28/1/1 30/1/1
f 34/1/1 28/1/1 33/1/1
f 37/5/1 36/5/1 35/5/1
f 38/5/1 36/5/1 37/5/1
f 39/5/1 36/5/1 38/5/1
f 43/5/1 39/5/1 38/5/1
f 43/5/1 40/5/1 39/5/1
f 44/8/1 42/8/1 41/8/1
f 45/10/1 43/10/1 42/10/1
f 45/8/1 42/8/1 44/8/1
f 46/5/1 40/5/1 43/5/1
f 46/10/1 43/10/1 45/10/1
f 47/5/1 45/5/1 44/5/1
f 47/5/1 46/5/1 45/5/1
f 48/5/1 46/5/1 47/5/1
f 49/5/1 40/5/1 46/5/1
f 49/5/1 46/5/1 48/5/1
f 50/5/1 40/5/1 49/5/1
f 51/5/1 49/5/1 48/5/1
f 52/5/1 49/5/1 51/5/1
f 53/5/1 49/5/1 52/5/1
f 54/5/1 49/5/1 53/5/1
f 55/5/1 53/5/1 52/5/1
f 56/5/1 53/5/1 55/5/1
f 62/5/1 58/5/1 57/5/1
f 63/5/1 58/5/1 62/5/1
f 64/8/1 60/8/1 59/8/1
f 65/8/1 60/8/1 64/8/1
f 67/8/1 60/8/1 65/8/1
f 68/8/1 67/8/1 66/8/1
f 69/5/1 61/5/1 60/5/1
f 69/8/1 67/8/1 68/8/1
f 69/8/1 60/8/1 67/8/1
f 70/5/1 61/5/1 69/5/1
f 72/8/1 68/8/1 66/8/1
f 73/8/1 68/8/1 72/8/1
f 74/9/1 71/9/1 70/9/1
f 75/9/1 71/9/1 74/9/1
f 78/5/1 77/5/1 76/5/1
f 79/5/1 77/5/1 78/5/1
f 82/6/1 81/6/1 80/6/1
f 83/6/1 81/6/1 82/6/1
f 86/6/1 85/6/1 84/6/1
f 87/6/1 85/6/1 86/6/1
f 93/6/1 89/6/1 88/6/1
f 94/6/1 89/6/1 93/6/1
f 95/6/1 91/6/1 90/6/1
f 96/6/1 91/6/1 95/6/1
f 97/6/1 93/6/1 92/6/1
f 98/6/1 93/6/1 97/6/1
f 103/5/1 100/5/1 99/5/1
f 104/4/1 102/4/1 101/4/1
f 105/3/1 103/3/1 102/3/1
f 105/4/1 102/4/1 104/4/1
f 106/5/1 100/5/1 103/5/1
f 106/3/1 103/3/1 105/3/1
f 107/5/1 100/5/1 106/5/1
f 108/4/1 104/4/1 101/4/1
f 109/4/1 104/4/1 108/4/1
f 112/8/1 111/8/1 110/8/1
f 113/8/1 111/8/1 112/8/1
f 116/5/1 115/5/1 114/5/1
f 117/5/1 115/5/1 116/5/1
f 120/5/1 119/5/1 118/5/1
f 121/5/1 119/5/1 120/5/1
f 124/1/1 123/1/1 122/1/1
f 125/1/1 123/1/1 124/1/1
f 128/1/1 127/1/1 126/1/1
f 129/1/1 127/1/1 128/1/1
f 130/1/2 131/1/2 132/1/2
f 132/1/2 131/1/2 133/1/2
f 134/1/2 135/1/2 136/1/2
f 136/1/2 135/1/2 137/1/2
f 138/5/2 139/5/2 140/5/2
f 140/5/2 139/5/2 141/5/2
f 142/5/2 143/5/2 144/5/2
f 144/5/2 143/5/2 145/5/2
f 145/5/2 143/5/2 146/5/2
f 145/3/2 146/3/2 147/3/2
f 147/3/2 146/3/2 148/3/2
f 147/4/2 148/4/2 149/4/2
f 149/4/2 150/4/2 151/4/2
f 151/4/2 150/4/2 152/4/2
f 147/4/2 149/4/2 153/4/2
f 149/4/2 151/4/2 153/4/2
f 153/4/2 151/4/2 154/4/2
f 155/8/2 156/8/2 157/8/2
f 157/8/2 156/8/2 158/8/2
f 159/5/2 160/5/2 161/5/2
f 161/5/2 160/5/2 162/5/2
f 163/6/2 164/6/2 165/6/2
f 165/6/2 164/6/2 166/6/2
f 167/6/2 168/6/2 169/6/2
f 169/6/2 168/6/2 170/6/2
f 171/6/2 172/6/2 176/6/2
f 176/6/2 172/6/2 177/6/2
f 173/6/2 174/6/2 178/6/2
f 178/6/2 174/6/2 179/6/2
f 175/6/2 176/6/2 180/6/2
f 180/6/2 176/6/2 181/6/2
f 182/5/2 183/5/2 187/5/2
f 187/5/2 183/5/2 188/5/2
f 184/8/2 185/8/2 189/8/2
f 189/8/2 185/8/2 190/8/2
f 190/8/2 185/8/2 192/8/2
f 191/8/2 192/8/2 193/8/2
f 185/5/2 186/5/2 194/5/2
f 193/8/2 192/8/2 194/8/2
f 192/8/2 185/8/2 194/8/2
f 194/5/2 186/5/2 195/5/2
f 191/8/2 193/8/2 197/8/2
f 197/8/2 193/8/2 198/8/2
f 195/9/2 196/9/2 199/9/2
f 199/9/2 196/9/2 200/9/2
f 201/5/2 202/5/2 203/5/2
f 203/5/2 202/5/2 204/5/2
f 205/5/2 206/5/2 209/5/2
f 207/4/2 208/4/2 210/4/2
f 208/3/2 209/3/2 211/3/2
f 210/4/2 208/4/2 211/4/2
f 209/5/2 206/5/2 212/5/2
f 211/3/2 209/3/2 212/3/2
f 212/5/2 206/5/2 213/5/2
f 207/4/2 210/4/2 215/4/2
f 215/4/2 210/4/2 216/4/2
f 214/4/2 215/4/2 218/4/2
f 216/4/2 217/4/2 218/4/2
f 215/4/2 216/4/2 218/4/2
f 218/4/2 217/4/2 219/4/2
f 219/4/2 217/4/2 220/4/2
f 220/4/2 217/4/2 221/4/2
f 218/7/2 219/7/2 222/7/2
f 219/4/2 220/4/2 223/4/2
f 222/7/2 219/7/2 223/7/2
f 220/7/2 221/7/2 224/7/2
f 223/4/2 220/4/2 224/4/2
f 224/7/2 221/7/2 225/7/2
f 222/1/2 223/1/2 226/1/2
f 223/1/2 224/1/2 226/1/2
f 224/1/2 225/1/2 226/1/2
f 226/1/2 225/1/2 227/1/2
f 222/1/2 226/1/2 228/1/2
f 228/1/2 226/1/2 229/1/2
f 227/1/2 225/1/2 230/1/2
f 230/1/2 225/1/2 231/1/2
f 232/5/2 233/5/2 234/5/2
f 234/5/2 233/5/2 235/5/2
f 235/5/2 233/5/2 236/5/2
f 235/5/2 236/5/2 240/5/2
f 236/5/2 237/5/2 240/5/2
f 238/8/2 239/8/2 241/8/2
f 239/10/2 240/10/2 242/10/2
f 241/8/2 239/8/2 242/8/2
f 240/5/2 237/5/2 243/5/2
f 242/10/2 240/10/2 243/10/2
f 241/5/2 242/5/2 244/5/2
f 242/5/2 243/5/2 244/5/2
f 244/5/2 243/5/2 245/5/2
f 243/5/2 237/5/2 246/5/2
f 245/5/2 243/5/2 246/5/2
f 246/5/2 237/5/2 247/5/2
f 245/5/2 246/5/2 248/5/2
f 248/5/2 246/5/2 249/5/2
f 249/5/2 246/5/2 250/5/2
f 250/5/2 246/5/2 251/5/2
f 249/5/2 250/5/2 252/5/2
f 252/5/2 250/5/2 253/5/2
f 254/5/2 255/5/2 256/5/2
f 256/5/2 255/5/2 257/5/2
f 258/1/2 259/1/2 260/1/2
f 260/1/2 259/1/2 261/1/2
f 266/8/3 265/8/3 264/8/3
f 267/8/3 265/8/3 266/8/3
f 268/8/3 266/8/3 264/8/3
f 270/8/3 263/8/3 262/8/3
f 271/8/3 263/8/3 270/8/3
f 272/8/3 269/8/3 268/8/3
f 272/8/3 268/8/3 264/8/3
f 273/8/3 269/8/3 272/8/3
f 276/8/3 275/8/3 274/8/3
f 277/8/3 275/8/3 276/8/3
f 280/5/3 279/5/3 278/5/3
f 281/5/3 279/5/3 280/5/3
f 285/3/3 283/3/3 282/3/3
f 286/4/3 284/4/3 283/4/3
f 286/3/3 283/3/3 285/3/3
f 287/4/3 284/4/3 286/4/3
f 291/5/3 289/5/3 288/5/3
f 292/5/3 291/5/3 290/5/3
f 293/5/3 289/5/3 291/5/3
f 293/5/3 291/5/3 292/5/3
f 295/9/3 294/9/3 293/9/3
f 296/9/3 294/9/3 295/9/3
f 298/9/3 294/9/3 296/9/3
f 299/9/3 294/9/3 298/9/3
f 300/5/3 298/5/3 297/5/3
f 301/5/3 298/5/3 300/5/3
f 302/5/3 298/5/3 301/5/3
f 303/5/3 298/5/3 302/5/3
f 307/8/3 305/8/3 304/8/3
f 308/5/3 306/5/3 305/5/3
f 308/8/3 305/8/3 307/8/3
f 309/5/3 306/5/3 308/5/3
f 311/9/3 309/9/3 308/9/3
f 312/9/3 309/9/3 311/9/3
f 313/8/3 311/8/3 310/8/3
f 314/5/3 312/5/3 311/5/3
f 314/8/3 311/8/3 313/8/3
f 315/5/3 312/5/3 314/5/3
f 321/7/3 317/7/3 316/7/3
f 322/1/3 318/1/3 317/1/3
f 322/7/3 317/7/3 321/7/3
f 323/1/3 318/1/3 322/1/3
f 324/1/3 318/1/3 323/1/3
f 325/1/3 318/1/3 324/1/3
f 327/5/3 320/5/3 319/5/3
f 329/4/3 322/4/3 321/4/3
f 330/1/3 323/1/3 322/1/3
f 330/4/3 322/4/3 329/4/3
f 331/2/3 324/2/3 323/2/3
f 331/1/3 323/1/3 330/1/3
f 332/1/3 325/1/3 324/1/3
f 332/2/3 324/2/3 331/2/3
f 333/5/3 320/5/3 327/5/3
f 334/5/3 320/5/3 333/5/3
f 336/4/3 329/4/3 328/4/3
f 336/7/3 330/7/3 329/7/3
f 337/1/3 331/1/3 330/1/3
f 337/7/3 330/7/3 336/7/3
f 337/1/3 332/1/3 331/1/3
f 338/1/3 332/1/3 337/1/3
f 339/1/3 325/1/3 332/1/3
f 339/1/3 332/1/3 338/1/3
f 340/9/3 334/9/3 333/9/3
f 341/6/3 335/6/3 334/6/3
f 341/9/3 334/9/3 340/9/3
f 342/6/3 335/6/3 341/6/3
f 343/4/3 336/4/3 328/4/3
f 343/4/3 337/4/3 336/4/3
f 344/1/3 338/1/3 337/1/3
f 344/4/3 337/4/3 343/4/3
f 345/2/3 339/2/3 338/2/3
f 345/1/3 338/1/3 344/1/3
f 346/1/3 325/1/3 339/1/3
f 346/2/3 339/2/3 345/2/3
f 347/5/3 326/5/3 325/5/3
f 347/1/3 325/1/3 346/1/3
f 348/5/3 326/5/3 347/5/3
f 349/5/3 341/5/3 340/5/3
f 350/4/3 343/4/3 328/4/3
f 351/7/3 344/7/3 343/7/3
f 351/4/3 343/4/3 350/4/3
f 352/1/3 346/1/3 345/1/3
f 352/7/3 344/7/3 351/7/3
f 352/1/3 345/1/3 344/1/3
f 352/1/3 347/1/3 346/1/3
f 353/1/3 347/1/3 352/1/3
f 354/5/3 341/5/3 349/5/3
f 355/5/3 341/5/3 354/5/3
f 358/1/3 357/1/3 356/1/3
f 359/1/3 357/1/3 358/1/3
f 360/1/3 358/1/3 356/1/3
f 361/1/3 358/1/3 360/1/3
f 362/1/3 357/1/3 359/1/3
f 363/1/3 357/1/3 362/1/3
f 366/5/3 365/5/3 364/5/3
f 367/5/3 365/5/3 366/5/3
f 368/5/3 366/5/3 364/5/3
f 369/5/3 366/5/3 368/5/3
f 370/5/3 366/5/3 369/5/3
f 376/5/3 374/5/3 373/5/3
f 376/5/3 375/5/3 374/5/3
f 378/4/3 372/4/3 371/4/3
f 379/4/3 372/4/3 378/4/3
f 382/5/3 376/5/3 373/5/3
f 382/5/3 377/5/3 376/5/3
f 383/5/3 377/5/3 382/5/3
f 386/1/3 385/1/3 384/1/3
f 387/1/3 381/1/3 380/1/3
f 388/1/3 386/1/3 384/1/3
f 388/1/3 387/1/3 386/1/3
f 389/1/3 381/1/3 387/1/3
f 389/1/3 387/1/3 388/1/3
f 392/5/3 391/5/3 390/5/3
f 393/5/3 391/5/3 392/5/3
f 394/8/4 395/8/4 396/8/4
f 396/8/4 395/8/4 397/8/4
f 398/8/4 399/8/4 400/8/4
f 400/8/4 399/8/4 401/8/4
f 402/5/4 403/5/4 406/5/4
f 403/3/4 404/3/4 407/3/4
f 406/5/4 403/5/4 407/5/4
f 404/4/4 405/4/4 408/4/4
f 407/3/4 404/3/4 408/3/4
f 408/4/4 405/4/4 409/4/4
f 410/5/4 411/5/4 412/5/4
f 412/5/4 411/5/4 413/5/4
f 414/5/4 415/5/4 416/5/4
f 416/5/4 415/5/4 417/5/4
f 418/5/4 419/5/4 420/5/4
f 420/5/4 419/5/4 421/5/4
f 418/5/4 420/5/4 422/5/4
f 422/5/4 420/5/4 423/5/4
f 423/5/4 420/5/4 424/5/4
f 425/5/4 426/5/4 428/5/4
f 426/5/4 427/5/4 428/5/4
f 425/5/4 428/5/4 430/5/4
f 428/5/4 429/5/4 430/5/4
f 430/5/4 429/5/4 431/5/4
f 432/1/4 433/1/4 434/1/4
f 434/1/4 433/1/4 435/1/4
f 432/1/4 434/1/4 436/1/4
f 436/1/4 434/1/4 437/1/4
f 435/1/4 433/1/4 440/1/4
f 440/1/4 433/1/4 441/1/4
f 438/4/4 439/4/4 442/4/4
f 442/4/4 439/4/4 443/4/4
f 444/4/4 445/4/4 446/4/4
f 446/4/4 445/4/4 447/4/4
f 450/1/4 451/1/4 452/1/4
f 448/1/4 449/1/4 453/1/4
f 450/1/4 452/1/4 454/1/4
f 452/1/4 453/1/4 454/1/4
f 453/1/4 449/1/4 455/1/4
f 454/1/4 453/1/4 455/1/4
f 456/4/4 457/4/4 464/4/4
f 457/7/4 458/7/4 464/7/4
f 458/1/4 459/1/4 465/1/4
f 464/7/4 458/7/4 465/7/4
f 465/1/4 459/1/4 466/1/4
f 460/5/4 461/5/4 467/5/4
f 462/5/4 463/5/4 468/5/4
f 468/5/4 463/5/4 469/5/4
f 456/4/4 464/4/4 470/4/4
f 464/4/4 465/4/4 470/4/4
f 465/1/4 466/1/4 471/1/4
f 470/4/4 465/4/4 471/4/4
f 456/4/4 470/4/4 472/4/4
f 470/7/4 471/7/4 472/7/4
f 471/1/4 466/1/4 473/1/4
f 472/7/4 471/7/4 473/7/4
f 456/4/4 472/4/4 474/4/4
f 472/4/4 473/4/4 474/4/4
f 473/1/4 466/1/4 475/1/4
f 474/4/4 473/4/4 475/4/4
f 466/5/4 467/5/4 476/5/4
f 475/1/4 466/1/4 476/1/4
f 467/5/4 461/5/4 477/5/4
f 476/5/4 467/5/4 477/5/4
f 456/4/4 474/4/4 480/4/4
f 474/7/4 475/7/4 481/7/4
f 480/4/4 474/4/4 481/4/4
f 475/1/4 476/1/4 482/1/4
f 481/7/4 475/7/4 482/7/4
f 482/1/4 476/1/4 483/1/4
f 477/5/4 461/5/4 484/5/4
f 484/5/4 461/5/4 485/5/4
f 478/5/4 479/5/4 486/5/4
f 486/5/4 479/5/4 487/5/4
f 488/5/4 489/5/4 490/5/4
f 488/5/4 490/5/4 492/5/4
f 490/5/4 491/5/4 492/5/4
f 492/5/4 491/5/4 493/5/4
f 493/5/4 491/5/4 494/5/4
f 494/5/4 491/5/4 495/5/4
f 495/5/4 491/5/4 496/5/4
f 496/5/4 491/5/4 497/5/4
f 493/5/4 494/5/4 500/5/4
f 500/5/4 494/5/4 501/5/4
f 495/5/4 496/5/4 502/5/4
f 502/5/4 496/5/4 503/5/4
f 497/6/4 498/6/4 504/6/4
f 504/6/4 498/6/4 505/6/4
f 502/5/4 503/5/4 506/5/4
f 500/5/4 501/5/4 506/5/4
f 503/5/4 504/5/4 506/5/4
f 499/5/4 500/5/4 506/5/4
f 501/5/4 502/5/4 506/5/4
f 506/5/4 504/5/4 507/5/4
f 499/5/4 506/5/4 508/5/4
f 508/5/4 506/5/4 509/5/4
f 510/6/4 511/6/4 518/6/4
f 518/6/4 511/6/4 519/6/4
f 512/6/4 513/6/4 520/6/4
f 520/6/4 513/6/4 521/6/4
f 514/6/4 515/6/4 522/6/4
f 522/6/4 515/6/4 523/6/4
f 516/5/4 517/5/4 524/5/4
f 524/5/4 517/5/4 525/5/4
f 528/5/5 527/5/5 526/5/5
f 529/5/5 527/5/5 528/5/5
f 532/5/5 531/5/5 530/5/5
f 533/5/5 531/5/5 532/5/5
f 536/4/5 535/4/5 534/4/5
f 537/4/5 535/4/5 536/4/5
f 538/3/5 537/3/5 536/3/5
f 539/3/5 537/3/5 538/3/5
f 542/4/5 541/4/5 540/4/5
f 543/4/5 541/4/5 542/4/5
f 546/4/5 545/4/5 544/4/5
f 547/4/5 545/4/5 546/4/5
f 549/4/5 546/4/5 544/4/5
f 550/4/5 546/4/5 549/4/5
f 552/4/5 549/4/5 548/4/5
f 552/4/5 551/4/5 550/4/5
f 552/4/5 550/4/5 549/4/5
f 553/4/5 551/4/5 552/4/5
f 558/1/5 555/1/5 554/1/5
f 559/1/5 555/1/5 558/1/5
f 560/1/5 557/1/5 556/1/5
f 561/1/5 557/1/5 560/1/5
f 566/1/5 563/1/5 562/1/5
f 567/1/5 563/1/5 566/1/5
f 568/1/5 565/1/5 564/1/5
f 569/1/5 565/1/5 568/1/5
f 572/8/5 571/8/5 570/8/5
f 573/8/5 571/8/5 572/8/5
f 575/5/5 573/5/5 572/5/5
f 576/5/5 573/5/5 575/5/5
f 578/5/5 576/5/5 575/5/5
f 578/5/5 577/5/5 576/5/5
f 578/5/5 575/5/5 574/5/5
f 579/5/5 577/5/5 578/5/5
f 580/5/5 578/5/5 574/5/5
f 581/5/5 578/5/5 580/5/5
f 582/5/5 577/5/5 579/5/5
f 583/5/5 577/5/5 582/5/5
f 588/5/5 585/5/5 584/5/5
f 589/5/5 585/5/5 588/5/5
f 590/5/5 587/5/5 586/5/5
f 591/5/5 587/5/5 590/5/5
f 594/5/5 593/5/5 592/5/5
f 595/5/5 593/5/5 594/5/5
f 596/5/5 593/5/5 595/5/5
f 597/5/5 593/5/5 596/5/5
f 598/6/5 596/6/5 595/6/5
f 599/6/5 596/6/5 598/6/5
f 602/8/5 601/8/5 600/8/5
f 603/8/5 601/8/5 602/8/5
f 606/6/5 605/6/5 604/6/5
f 607/6/5 605/6/5 606/6/5
f 610/6/5 609/6/5 608/6/5
f 611/6/5 609/6/5 610/6/5
f 612/5/6 613/5/6 614/5/6
f 614/5/6 613/5/6 615/5/6
f 616/4/6 617/4/6 618/4/6
f 618/4/6 617/4/6 619/4/6
f 618/3/6 619/3/6 620/3/6
f 620/3/6 619/3/6 621/3/6
f 620/5/6 621/5/6 622/5/6
f 622/5/6 621/5/6 623/5/6
f 624/4/6 625/4/6 626/4/6
f 626/4/6 625/4/6 627/4/6
f 627/4/6 625/4/6 628/4/6
f 629/1/6 630/1/6 633/1/6
f 633/1/6 630/1/6 634/1/6
f 631/1/6 632/1/6 635/1/6
f 635/1/6 632/1/6 636/1/6
f 637/1/6 638/1/6 642/1/6
f 639/1/6 640/1/6 643/1/6
f 641/1/6 642/1/6 645/1/6
f 642/1/6 638/1/6 646/1/6
f 645/1/6 642/1/6 646/1/6
f 643/1/6 644/1/6 647/1/6
f 639/1/6 643/1/6 647/1/6
f 647/1/6 644/1/6 648/1/6
f 646/1/6 638/1/6 649/1/6
f 649/1/6 638/1/6 650/1/6
f 639/1/6 647/1/6 651/1/6
f 651/1/6 647/1/6 652/1/6
f 653/8/6 654/8/6 655/8/6
f 655/8/6 654/8/6 656/8/6
f 657/6/6 658/6/6 659/6/6
f 659/6/6 658/6/6 660/6/6
f 661/8/6 662/8/6 664/8/6
f 664/8/6 662/8/6 665/8/6
f 663/8/6 664/8/6 667/8/6
f 665/8/6 666/8/6 667/8/6
f 664/8/6 665/8/6 667/8/6
f 667/8/6 666/8/6 668/8/6
f 663/8/6 667/8/6 669/8/6
f 667/9/6 668/9/6 670/9/6
f 669/8/6 667/8/6 670/8/6
f 668/8/6 666/8/6 671/8/6
f 670/9/6 668/9/6 671/9/6
f 671/8/6 666/8/6 672/8/6
f 669/5/6 670/5/6 674/5/6
f 670/9/6 671/9/6 675/9/6
f 674/5/6 670/5/6 675/5/6
f 671/5/6 672/5/6 676/5/6
f 675/9/6 671/9/6 676/9/6
f 676/5/6 672/5/6 677/5/6
f 673/5/6 674/5/6 679/5/6
f 679/5/6 674/5/6 680/5/6
f 677/5/6 678/5/6 681/5/6
f 681/5/6 678/5/6 682/5/6
f 673/5/6 679/5/6 683/5/6
f 682/5/6 678/5/6 684/5/6
f 673/5/6 683/5/6 685/5/6
f 685/5/6 683/5/6 686/5/6
f 684/5/6 678/5/6 687/5/6
f 687/5/6 678/5/6 688/5/6
f 689/8/6 690/8/6 693/8/6
f 693/8/6 690/8/6 694/8/6
f 691/8/6 692/8/6 695/8/6
f 695/8/6 692/8/6 696/8/6
f 697/9/6 698/9/6 699/9/6
f 699/9/6 698/9/6 700/9/6
f 701/6/6 702/6/6 703/6/6
f 703/6/6 702/6/6 704/6/6
f 705/5/6 706/5/6 709/5/6
f 706/9/6 707/9/6 710/9/6
f 709/5/6 706/5/6 710/5/6
f 710/9/6 707/9/6 711/9/6
f 711/9/6 707/9/6 712/9/6
f 707/5/6 708/5/6 713/5/6
f 712/9/6 707/9/6 713/9/6
f 713/5/6 708/5/6 714/5/6
f 715/5/6 716/5/6 719/5/6
f 719/5/6 716/5/6 720/5/6
f 717/5/6 718/5/6 721/5/6
f 721/5/6 718/5/6 722/5/6
f 723/5/6 724/5/6 727/5/6
f 727/5/6 724/5/6 728/5/6
f 725/5/6 726/5/6 729/5/6
f 729/5/6 726/5/6 730/5/6
f 731/5/6 732/5/6 735/5/6
f 735/5/6 732/5/6 736/5/6
f 733/5/6 734/5/6 737/5/6
f 737/5/6 734/5/6 738/5/6
f 736/5/6 732/5/6 739/5/6
f 739/5/6 732/5/6 740/5/6
f 733/5/6 737/5/6 741/5/6
f 741/5/6 737/5/6 742/5/6
f 740/6/6 741/6/6 743/6/6
f 743/6/6 741/6/6 744/6/6
f 745/6/6 746/6/6 747/6/6
f 747/6/6 746/6/6 748/6/6
f 747/6/6 748/6/6 749/6/6
f 749/6/6 748/6/6 750/6/6
f 749/6/6 750/6/6 751/6/6
f 751/6/6 750/6/6 752/6/6
f 753/5/6 754/5/6 757/5/6
f 757/5/6 754/5/6 758/5/6
f 755/5/6 756/5/6 759/5/6
f 759/5/6 756/5/6 760/5/6
f 761/5/6 762/5/6 765/5/6
f 765/5/6 762/5/6 766/5/6
f 763/5/6 764/5/6 767/5/6
f 767/5/6 764/5/6 768/5/6
