# generated by tools/rig_people.py — do not edit
mtllib people.mtl
o arm-r
usemtl palette
v 3 6 -1.5
v 3 6 -0.5
v 3 7 -0.5
v 3 7 -1.5
v 3 7 0.5
v 3 8 0.5
v 3 8 -1.5
v 3 11 0.5
v 3 11 -1.5
v 3 14 0.5
v 3 14 -1.5
v 3 6 0.5
v 5 8 -1.5
v 5 8 0.5
v 5 6 0.5
v 5 6 -1.5
v 5 11 -1.5
v 5 11 0.5
v 5 14 -1.5
v 5 14 0.5
v 4 6 -1.5
v 4 8 -1.5
v 4 7 -1.5
v 4 6 0.5
v 4 6 -0.5
vt 0.0410156 0.5
vt 0.5253906 0.5
vn -1 0 0
vn 1 0 0
vn 0 0 1
vn 0 0 -1
vn 0 1 0
vn 0 -1 0
f 1/1/1 2/1/1 3/1/1 4/1/1
f 4/2/1 5/2/1 6/2/1 7/2/1
f 7/1/1 6/1/1 8/1/1 9/1/1
f 9/2/1 8/2/1 10/2/1 11/2/1
f 2/2/1 12/2/1 5/2/1 3/2/1
f 13/2/2 14/2/2 15/2/2 16/2/2
f 17/1/2 18/1/2 14/1/2 13/1/2
f 19/2/2 20/2/2 18/2/2 17/2/2
f 14/2/3 6/2/3 12/2/3 15/2/3
f 18/1/3 8/1/3 6/1/3 14/1/3
f 20/2/3 10/2/3 8/2/3 18/2/3
f 16/2/4 21/2/4 22/2/4 13/2/4
f 13/1/4 7/1/4 9/1/4 17/1/4
f 17/2/4 9/2/4 11/2/4 19/2/4
f 21/1/4 1/1/4 4/1/4 23/1/4
f 23/2/4 4/2/4 7/2/4 22/2/4
f 19/2/5 11/2/5 10/2/5 20/2/5
f 15/2/6 24/2/6 21/2/6 16/2/6
f 25/1/6 2/1/6 1/1/6 21/1/6
f 24/2/6 12/2/6 2/2/6 25/2/6
