# generated by tools/rig_people.py — do not edit
mtllib people.mtl
o leg-r
usemtl palette
v 1 0 -1.5
v 1 0 1.5
v 1 1 1.5
v 1 1 -1.5
v 1 1 -0.5
v 1 2 1.5
v 1 2 -0.5
v 1 3 1.5
v 1 3 -0.5
v 1 7 1.5
v 1 7 -0.5
v 3 1 -1.5
v 3 1 1.5
v 3 0 1.5
v 3 0 -1.5
v 3 2 -0.5
v 3 2 1.5
v 3 1 -0.5
v 3 3 -0.5
v 3 3 1.5
v 3 7 -0.5
v 3 7 1.5
vt 0.5292969 0.5
vt 0.0410156 0.5
vt 0.2636719 0.5
vn -1 0 0
vn 1 0 0
vn 0 0 1
vn 0 0 -1
vn 0 1 0
vn 0 -1 0
f 1/1/1 2/1/1 3/1/1 4/1/1
f 5/1/1 3/1/1 6/1/1 7/1/1
f 7/2/1 6/2/1 8/2/1 9/2/1
f 9/3/1 8/3/1 10/3/1 11/3/1
f 12/1/2 13/1/2 14/1/2 15/1/2
f 16/1/2 17/1/2 13/1/2 18/1/2
f 19/2/2 20/2/2 17/2/2 16/2/2
f 21/3/2 22/3/2 20/3/2 19/3/2
f 17/1/3 6/1/3 2/1/3 14/1/3
f 20/2/3 8/2/3 6/2/3 17/2/3
f 22/3/3 10/3/3 8/3/3 20/3/3
f 15/1/4 1/1/4 4/1/4 12/1/4
f 18/1/4 5/1/4 7/1/4 16/1/4
f 16/2/4 7/2/4 9/2/4 19/2/4
f 19/3/4 9/3/4 11/3/4 21/3/4
f 12/1/5 4/1/5 5/1/5 18/1/5
f 21/3/5 11/3/5 10/3/5 22/3/5
f 14/1/6 2/1/6 1/1/6 15/1/6
