# MagicaVoxel @ Ephtracy

# group
o 

# material
mtllib Character-18.mtl
usemtl palette

# normals
vn -1 0 0
vn 1 0 0
vn 0 0 1
vn 0 0 -1
vn 0 -1 0
vn 0 1 0

# texcoords
vt 0.0371094 0.5
vt 0.0488281 0.5
vt 0.267578 0.5
vt 0.470703 0.5
vt 0.525391 0.5
vt 0.541016 0.5
vt 0.728516 0.5
vt 0.970703 0.5

# verts
v 1.4 0.6 1
v 1.4 0.6 0.8
v 1.4 0.8 1
v 1.4 0.8 0.8
v 1.4 1.4 1
v 1.4 1.4 0.8
v 1.5 1.4 0.9
v 1.5 1.4 0.8
v 1.5 1.4 0.6
v 1.5 1.6 1.1
v 1.5 1.6 1
v 1.5 1.6 0.9
v 1.5 1.9 1.2
v 1.5 1.9 1.1
v 1.5 1.9 1
v 1.5 1.9 0.9
v 1.5 2.3 1.2
v 1.5 2.3 0.6
v 1.6 0 1.1
v 1.6 0 0.8
v 1.6 0.1 1.1
v 1.6 0.1 1
v 1.6 0.1 0.8
v 1.6 0.2 1
v 1.6 0.2 0.8
v 1.6 0.6 1
v 1.6 0.6 0.8
v 1.6 0.7 1.1
v 1.6 0.7 1
v 1.6 0.7 0.8
v 1.6 0.7 0.7
v 1.6 0.8 1.1
v 1.6 0.8 1
v 1.6 0.8 0.8
v 1.6 0.8 0.7
v 1.6 1.4 1.1
v 1.6 1.4 1
v 1.6 1.4 0.8
v 1.6 1.4 0.7
v 1.6 1.5 1.2
v 1.6 1.5 0.9
v 1.6 1.6 1.2
v 1.6 1.6 1.1
v 1.6 1.6 1
v 1.6 1.6 0.9
v 1.6 1.8 1.2
v 1.6 1.8 1.1
v 1.6 1.9 1.3
v 1.6 1.9 1.2
v 1.6 1.9 1.1
v 1.6 2 1.3
v 1.6 2 1.2
v 1.6 2.1 1.3
v 1.6 2.1 1.2
v 1.6 2.3 1.2
v 1.6 2.3 0.7
v 1.6 2.4 1.3
v 1.6 2.4 0.7
v 1.7 2.3 0.7
v 1.7 2.3 0.6
v 1.7 2.4 0.7
v 1.7 2.4 0.6
v 1.8 1.4 1
v 1.8 1.4 0.8
v 1.8 1.5 1
v 1.8 1.5 0.8
v 1.8 2 1.3
v 1.8 2 1.2
v 1.8 2.1 1.3
v 1.8 2.1 1.2
v 2 0 1.1
v 2 0 0.8
v 2 0.1 1.1
v 2 0.1 1
v 2 0.1 0.8
v 2 0.2 1
v 2 0.2 0.8
v 2 0.7 1
v 2 0.7 0.8
v 2 1.9 1.3
v 2 1.9 1.2
v 2 2 1.3
v 2 2 1.2
v 2.2 1.4 0.9
v 2.2 1.4 0.7
v 2.2 1.5 0.9
v 2.2 1.5 0.7
v 1.6 1.4 0.9
v 1.6 1.4 0.7
v 1.6 1.5 0.9
v 1.6 1.5 0.7
v 1.8 0 1.1
v 1.8 0 0.8
v 1.8 0.1 1.1
v 1.8 0.1 1
v 1.8 0.1 0.8
v 1.8 0.2 1
v 1.8 0.2 0.8
v 1.8 0.7 1
v 1.8 0.7 0.8
v 1.8 1.9 1.3
v 1.8 1.9 1.2
v 1.8 2 1.3
v 1.8 2 1.2
v 2 1.4 1
v 2 1.4 0.8
v 2 1.5 1
v 2 1.5 0.8
v 2.2 0 1.1
v 2.2 0 0.8
v 2.2 0.1 1.1
v 2.2 0.1 1
v 2.2 0.1 0.8
v 2.2 0.2 1
v 2.2 0.2 0.8
v 2.2 0.6 1
v 2.2 0.6 0.8
v 2.2 0.7 1.1
v 2.2 0.7 1
v 2.2 0.7 0.8
v 2.2 0.7 0.7
v 2.2 0.8 1.1
v 2.2 0.8 1
v 2.2 0.8 0.8
v 2.2 0.8 0.7
v 2.2 1.4 1.1
v 2.2 1.4 1
v 2.2 1.4 0.8
v 2.2 1.4 0.7
v 2.2 1.5 1.2
v 2.2 1.5 0.9
v 2.2 1.6 1.2
v 2.2 1.6 1.1
v 2.2 1.6 1
v 2.2 1.6 0.9
v 2.2 1.8 1.2
v 2.2 1.8 1.1
v 2.2 1.9 1.3
v 2.2 1.9 1.2
v 2.2 2 1.3
v 2.2 2 1.2
v 2.2 2 1.1
v 2.2 2.3 1.3
v 2.2 2.3 1.2
v 2.2 2.3 0.7
v 2.2 2.3 0.6
v 2.2 2.4 1.3
v 2.2 2.4 1.2
v 2.2 2.4 0.7
v 2.2 2.4 0.6
v 2.3 1.4 0.9
v 2.3 1.4 0.8
v 2.3 1.4 0.6
v 2.3 1.6 1.1
v 2.3 1.6 1
v 2.3 1.6 0.9
v 2.3 1.9 1
v 2.3 1.9 0.9
v 2.3 2 1.3
v 2.3 2 1.1
v 2.3 2.3 1.3
v 2.3 2.3 1.2
v 2.3 2.3 0.7
v 2.3 2.3 0.6
v 2.3 2.4 1.2
v 2.3 2.4 0.7
v 2.4 0.6 1
v 2.4 0.6 0.8
v 2.4 0.8 1
v 2.4 0.8 0.8
v 2.4 1.4 1
v 2.4 1.4 0.8
v 1.6 1.9 1.3
v 1.6 2 1.3
v 1.6 2.1 1.3
v 1.6 2.4 1.3
v 1.8 1.9 1.3
v 1.8 2 1.3
v 1.8 2.1 1.3
v 2 1.9 1.3
v 2 2 1.3
v 2.2 1.9 1.3
v 2.2 2 1.3
v 2.2 2.3 1.3
v 2.2 2.4 1.3
v 2.3 2 1.3
v 2.3 2.3 1.3
v 1.5 1.9 1.2
v 1.5 2.3 1.2
v 1.6 1.5 1.2
v 1.6 1.6 1.2
v 1.6 1.8 1.2
v 1.6 1.9 1.2
v 1.6 2 1.2
v 1.6 2.1 1.2
v 1.6 2.3 1.2
v 1.7 1.6 1.2
v 1.7 1.8 1.2
v 1.7 1.9 1.2
v 1.8 1.6 1.2
v 1.8 1.7 1.2
v 1.8 1.8 1.2
v 1.8 1.9 1.2
v 1.8 2 1.2
v 1.8 2.1 1.2
v 2 1.6 1.2
v 2 1.7 1.2
v 2 1.8 1.2
v 2 1.9 1.2
v 2 2 1.2
v 2.1 1.6 1.2
v 2.1 1.8 1.2
v 2.1 1.9 1.2
v 2.2 1.5 1.2
v 2.2 1.6 1.2
v 2.2 1.8 1.2
v 2.2 1.9 1.2
v 2.2 2.3 1.2
v 2.2 2.4 1.2
v 2.3 2.3 1.2
v 2.3 2.4 1.2
v 1.5 1.6 1.1
v 1.5 1.9 1.1
v 1.6 0 1.1
v 1.6 0.1 1.1
v 1.6 0.7 1.1
v 1.6 0.8 1.1
v 1.6 1.4 1.1
v 1.6 1.6 1.1
v 1.6 1.8 1.1
v 1.6 1.9 1.1
v 1.7 1.3 1.1
v 1.7 1.4 1.1
v 1.8 0 1.1
v 1.8 0.1 1.1
v 1.8 1.1 1.1
v 1.8 1.3 1.1
v 2 0 1.1
v 2 0.1 1.1
v 2 1.1 1.1
v 2 1.3 1.1
v 2.1 1.3 1.1
v 2.1 1.4 1.1
v 2.2 0 1.1
v 2.2 0.1 1.1
v 2.2 0.7 1.1
v 2.2 0.8 1.1
v 2.2 1.4 1.1
v 2.2 1.6 1.1
v 2.2 1.8 1.1
v 2.2 2 1.1
v 2.3 1.6 1.1
v 2.3 2 1.1
v 1.4 0.6 1
v 1.4 0.8 1
v 1.4 1.4 1
v 1.6 0.1 1
v 1.6 0.2 1
v 1.6 0.6 1
v 1.6 0.7 1
v 1.6 0.8 1
v 1.6 1.4 1
v 1.8 0.1 1
v 1.8 0.2 1
v 1.8 0.7 1
v 1.8 1.4 1
v 1.8 1.5 1
v 2 0.1 1
v 2 0.2 1
v 2 0.7 1
v 2 1.4 1
v 2 1.5 1
v 2.2 0.1 1
v 2.2 0.2 1
v 2.2 0.6 1
v 2.2 0.7 1
v 2.2 0.8 1
v 2.2 1.4 1
v 2.4 0.6 1
v 2.4 0.8 1
v 2.4 1.4 1
v 1.5 1.4 0.9
v 1.5 1.6 0.9
v 1.6 1.4 0.9
v 1.6 1.5 0.9
v 1.6 1.6 0.9
v 2.2 1.4 0.9
v 2.2 1.5 0.9
v 2.2 1.6 0.9
v 2.3 1.4 0.9
v 2.3 1.6 0.9
v 1.6 1.4 0.7
v 1.6 1.5 0.7
v 2.2 1.4 0.7
v 2.2 1.5 0.7
v 1.4 0.6 0.8
v 1.4 0.8 0.8
v 1.4 1.4 0.8
v 1.5 1.4 0.8
v 1.6 0 0.8
v 1.6 0.1 0.8
v 1.6 0.2 0.8
v 1.6 0.6 0.8
v 1.6 0.7 0.8
v 1.6 0.8 0.8
v 1.6 1.4 0.8
v 1.8 0 0.8
v 1.8 0.1 0.8
v 1.8 0.2 0.8
v 1.8 0.7 0.8
v 1.8 1.4 0.8
v 1.8 1.5 0.8
v 2 0 0.8
v 2 0.1 0.8
v 2 0.2 0.8
v 2 0.7 0.8
v 2 1.4 0.8
v 2 1.5 0.8
v 2.2 0 0.8
v 2.2 0.1 0.8
v 2.2 0.2 0.8
v 2.2 0.6 0.8
v 2.2 0.7 0.8
v 2.2 0.8 0.8
v 2.2 1.4 0.8
v 2.3 1.4 0.8
v 2.4 0.6 0.8
v 2.4 0.8 0.8
v 2.4 1.4 0.8
v 1.6 0.7 0.7
v 1.6 0.8 0.7
v 1.6 1.4 0.7
v 1.6 2.3 0.7
v 1.6 2.4 0.7
v 1.7 2.3 0.7
v 1.7 2.4 0.7
v 2.2 0.7 0.7
v 2.2 0.8 0.7
v 2.2 1.4 0.7
v 2.2 2.3 0.7
v 2.2 2.4 0.7
v 2.3 2.3 0.7
v 2.3 2.4 0.7
v 1.5 1.4 0.6
v 1.5 2.3 0.6
v 1.7 2.3 0.6
v 1.7 2.4 0.6
v 2.2 2.3 0.6
v 2.2 2.4 0.6
v 2.3 1.4 0.6
v 2.3 2.3 0.6
v 1.6 0 1.1
v 1.8 0 1.1
v 2 0 1.1
v 2.2 0 1.1
v 1.6 0 0.8
v 1.8 0 0.8
v 2 0 0.8
v 2.2 0 0.8
v 1.4 0.6 1
v 1.6 0.6 1
v 2.2 0.6 1
v 2.4 0.6 1
v 1.4 0.6 0.8
v 1.6 0.6 0.8
v 2.2 0.6 0.8
v 2.4 0.6 0.8
v 1.6 0.7 1.1
v 2.2 0.7 1.1
v 1.6 0.7 1
v 1.8 0.7 1
v 2 0.7 1
v 2.2 0.7 1
v 1.6 0.7 0.8
v 1.8 0.7 0.8
v 2 0.7 0.8
v 2.2 0.7 0.8
v 1.6 0.7 0.7
v 2.2 0.7 0.7
v 1.5 1.4 0.8
v 1.6 1.4 0.8
v 2.2 1.4 0.8
v 2.3 1.4 0.8
v 1.6 1.4 0.7
v 2.2 1.4 0.7
v 1.5 1.4 0.6
v 2.3 1.4 0.6
v 1.6 1.5 1.2
v 2.2 1.5 1.2
v 1.8 1.5 1
v 2 1.5 1
v 1.6 1.5 0.9
v 2.2 1.5 0.9
v 1.8 1.5 0.8
v 2 1.5 0.8
v 1.6 1.5 0.7
v 2.2 1.5 0.7
v 1.5 1.6 1.1
v 1.6 1.6 1.1
v 2.2 1.6 1.1
v 2.3 1.6 1.1
v 1.5 1.6 1
v 1.6 1.6 1
v 2.2 1.6 1
v 2.3 1.6 1
v 1.5 1.6 0.9
v 1.6 1.6 0.9
v 2.2 1.6 0.9
v 2.3 1.6 0.9
v 1.6 1.9 1.3
v 1.8 1.9 1.3
v 2 1.9 1.3
v 2.2 1.9 1.3
v 1.5 1.9 1.2
v 1.6 1.9 1.2
v 1.7 1.9 1.2
v 1.8 1.9 1.2
v 2 1.9 1.2
v 2.1 1.9 1.2
v 2.2 1.9 1.2
v 1.5 1.9 1.1
v 1.6 1.9 1.1
v 1.8 2 1.3
v 2 2 1.3
v 2.2 2 1.3
v 2.3 2 1.3
v 1.8 2 1.2
v 2 2 1.2
v 2.2 2 1.2
v 2.2 2 1.1
v 2.3 2 1.1
v 1.6 2.1 1.3
v 1.8 2.1 1.3
v 1.6 2.1 1.2
v 1.8 2.1 1.2
v 1.6 0.1 1.1
v 1.8 0.1 1.1
v 2 0.1 1.1
v 2.2 0.1 1.1
v 1.6 0.1 1
v 1.8 0.1 1
v 2 0.1 1
v 2.2 0.1 1
v 1.6 1.4 1.1
v 1.7 1.4 1.1
v 2.1 1.4 1.1
v 2.2 1.4 1.1
v 1.4 1.4 1
v 1.6 1.4 1
v 1.8 1.4 1
v 2 1.4 1
v 2.2 1.4 1
v 2.4 1.4 1
v 1.5 1.4 0.9
v 1.6 1.4 0.9
v 2.2 1.4 0.9
v 2.3 1.4 0.9
v 1.4 1.4 0.8
v 1.5 1.4 0.8
v 1.7 1.4 0.8
v 1.8 1.4 0.8
v 2 1.4 0.8
v 2.1 1.4 0.8
v 2.3 1.4 0.8
v 2.4 1.4 0.8
v 1.6 1.4 0.7
v 2.2 1.4 0.7
v 1.6 2 1.3
v 1.8 2 1.3
v 1.6 2 1.2
v 1.8 2 1.2
v 2.2 2.3 1.3
v 2.3 2.3 1.3
v 1.5 2.3 1.2
v 1.6 2.3 1.2
v 2.2 2.3 1.2
v 2.3 2.3 1.2
v 1.6 2.3 0.7
v 1.7 2.3 0.7
v 2.2 2.3 0.7
v 2.3 2.3 0.7
v 1.5 2.3 0.6
v 1.7 2.3 0.6
v 2.2 2.3 0.6
v 2.3 2.3 0.6
v 1.6 2.4 1.3
v 2.2 2.4 1.3
v 2.2 2.4 1.2
v 2.3 2.4 1.2
v 1.6 2.4 0.7
v 1.7 2.4 0.7
v 2.2 2.4 0.7
v 2.3 2.4 0.7
v 1.7 2.4 0.6
v 2.2 2.4 0.6

# faces
f 3/1/1 2/1/1 1/1/1
f 4/1/1 2/1/1 3/1/1
f 5/3/1 4/3/1 3/3/1
f 6/3/1 4/3/1 5/3/1
f 12/4/1 8/4/1 7/4/1
f 12/4/1 9/4/1 8/4/1
f 14/4/1 11/4/1 10/4/1
f 15/2/1 12/2/1 11/2/1
f 15/4/1 11/4/1 14/4/1
f 16/4/1 9/4/1 12/4/1
f 16/2/1 12/2/1 15/2/1
f 17/4/1 14/4/1 13/4/1
f 17/4/1 15/4/1 14/4/1
f 17/4/1 16/4/1 15/4/1
f 18/4/1 9/4/1 16/4/1
f 18/4/1 16/4/1 17/4/1
f 21/5/1 20/5/1 19/5/1
f 22/5/1 20/5/1 21/5/1
f 23/5/1 20/5/1 22/5/1
f 24/1/1 23/1/1 22/1/1
f 25/1/1 23/1/1 24/1/1
f 26/5/1 25/5/1 24/5/1
f 27/5/1 25/5/1 26/5/1
f 32/5/1 29/5/1 28/5/1
f 33/5/1 29/5/1 32/5/1
f 34/5/1 31/5/1 30/5/1
f 35/5/1 31/5/1 34/5/1
f 36/3/1 33/3/1 32/3/1
f 37/3/1 33/3/1 36/3/1
f 38/3/1 35/3/1 34/3/1
f 39/3/1 35/3/1 38/3/1
f 42/1/1 41/1/1 40/1/1
f 43/1/1 41/1/1 42/1/1
f 44/1/1 41/1/1 43/1/1
f 45/1/1 41/1/1 44/1/1
f 46/6/1 43/6/1 42/6/1
f 47/6/1 43/6/1 46/6/1
f 49/1/1 47/1/1 46/1/1
f 50/1/1 47/1/1 49/1/1
f 51/4/1 49/4/1 48/4/1
f 52/4/1 49/4/1 51/4/1
f 55/4/1 54/4/1 53/4/1
f 57/4/1 55/4/1 53/4/1
f 57/4/1 56/4/1 55/4/1
f 58/4/1 56/4/1 57/4/1
f 61/4/1 60/4/1 59/4/1
f 62/4/1 60/4/1 61/4/1
f 65/1/1 64/1/1 63/1/1
f 66/1/1 64/1/1 65/1/1
f 69/4/1 68/4/1 67/4/1
f 70/4/1 68/4/1 69/4/1
f 73/5/1 72/5/1 71/5/1
f 74/5/1 72/5/1 73/5/1
f 75/5/1 72/5/1 74/5/1
f 76/1/1 75/1/1 74/1/1
f 77/1/1 75/1/1 76/1/1
f 78/5/1 77/5/1 76/5/1
f 79/5/1 77/5/1 78/5/1
f 82/4/1 81/4/1 80/4/1
f 83/4/1 81/4/1 82/4/1
f 86/4/1 85/4/1 84/4/1
f 87/4/1 85/4/1 86/4/1
f 88/4/2 89/4/2 90/4/2
f 90/4/2 89/4/2 91/4/2
f 92/5/2 93/5/2 94/5/2
f 94/5/2 93/5/2 95/5/2
f 95/5/2 93/5/2 96/5/2
f 95/1/2 96/1/2 97/1/2
f 97/1/2 96/1/2 98/1/2
f 97/5/2 98/5/2 99/5/2
f 99/5/2 98/5/2 100/5/2
f 101/4/2 102/4/2 103/4/2
f 103/4/2 102/4/2 104/4/2
f 105/1/2 106/1/2 107/1/2
f 107/1/2 106/1/2 108/1/2
f 109/5/2 110/5/2 111/5/2
f 111/5/2 110/5/2 112/5/2
f 112/5/2 110/5/2 113/5/2
f 112/1/2 113/1/2 114/1/2
f 114/1/2 113/1/2 115/1/2
f 114/5/2 115/5/2 116/5/2
f 116/5/2 115/5/2 117/5/2
f 118/5/2 119/5/2 122/5/2
f 122/5/2 119/5/2 123/5/2
f 120/5/2 121/5/2 124/5/2
f 124/5/2 121/5/2 125/5/2
f 122/3/2 123/3/2 126/3/2
f 126/3/2 123/3/2 127/3/2
f 124/3/2 125/3/2 128/3/2
f 128/3/2 125/3/2 129/3/2
f 130/1/2 131/1/2 132/1/2
f 132/1/2 131/1/2 133/1/2
f 133/1/2 131/1/2 134/1/2
f 134/1/2 131/1/2 135/1/2
f 132/6/2 133/6/2 136/6/2
f 136/6/2 133/6/2 137/6/2
f 136/1/2 137/1/2 139/1/2
f 138/4/2 139/4/2 140/4/2
f 139/1/2 137/1/2 141/1/2
f 140/4/2 139/4/2 141/4/2
f 141/1/2 137/1/2 142/1/2
f 143/4/2 144/4/2 147/4/2
f 147/4/2 144/4/2 148/4/2
f 145/4/2 146/4/2 149/4/2
f 149/4/2 146/4/2 150/4/2
f 151/4/2 152/4/2 156/4/2
f 152/4/2 153/4/2 156/4/2
f 154/4/2 155/4/2 157/4/2
f 155/2/2 156/2/2 157/2/2
f 156/4/2 153/4/2 158/4/2
f 157/2/2 156/2/2 158/2/2
f 154/4/2 157/4/2 160/4/2
f 157/4/2 158/4/2 160/4/2
f 159/4/2 160/4/2 161/4/2
f 161/4/2 160/4/2 162/4/2
f 158/4/2 153/4/2 163/4/2
f 162/4/2 160/4/2 163/4/2
f 160/4/2 158/4/2 163/4/2
f 163/4/2 153/4/2 164/4/2
f 162/4/2 163/4/2 165/4/2
f 165/4/2 163/4/2 166/4/2
f 167/1/2 168/1/2 169/1/2
f 169/1/2 168/1/2 170/1/2
f 169/3/2 170/3/2 171/3/2
f 171/3/2 170/3/2 172/3/2
f 177/4/3 174/4/3 173/4/3
f 178/4/3 174/4/3 177/4/3
f 179/4/3 176/4/3 175/4/3
f 181/4/3 179/4/3 178/4/3
f 182/4/3 181/4/3 180/4/3
f 183/4/3 179/4/3 181/4/3
f 183/4/3 181/4/3 182/4/3
f 184/4/3 176/4/3 179/4/3
f 184/4/3 179/4/3 183/4/3
f 185/4/3 176/4/3 184/4/3
f 186/4/3 184/4/3 183/4/3
f 187/4/3 184/4/3 186/4/3
f 193/4/3 189/4/3 188/4/3
f 194/4/3 189/4/3 193/4/3
f 195/4/3 189/4/3 194/4/3
f 196/4/3 189/4/3 195/4/3
f 197/6/3 192/6/3 191/6/3
f 197/1/3 191/1/3 190/1/3
f 198/1/3 193/1/3 192/1/3
f 198/6/3 192/6/3 197/6/3
f 199/1/3 193/1/3 198/1/3
f 200/1/3 197/1/3 190/1/3
f 200/1/3 198/1/3 197/1/3
f 201/1/3 198/1/3 200/1/3
f 202/5/3 199/5/3 198/5/3
f 202/1/3 198/1/3 201/1/3
f 203/5/3 199/5/3 202/5/3
f 204/1/3 195/1/3 194/1/3
f 205/1/3 195/1/3 204/1/3
f 206/8/3 201/8/3 200/8/3
f 206/1/3 200/1/3 190/1/3
f 207/1/3 203/1/3 202/1/3
f 207/8/3 201/8/3 206/8/3
f 207/1/3 202/1/3 201/1/3
f 207/1/3 204/1/3 203/1/3
f 208/1/3 204/1/3 207/1/3
f 209/1/3 204/1/3 208/1/3
f 210/1/3 204/1/3 209/1/3
f 211/1/3 206/1/3 190/1/3
f 211/1/3 207/1/3 206/1/3
f 211/1/3 208/1/3 207/1/3
f 212/5/3 209/5/3 208/5/3
f 212/1/3 208/1/3 211/1/3
f 213/5/3 209/5/3 212/5/3
f 214/1/3 211/1/3 190/1/3
f 215/6/3 212/6/3 211/6/3
f 215/1/3 211/1/3 214/1/3
f 216/1/3 213/1/3 212/1/3
f 216/6/3 212/6/3 215/6/3
f 217/1/3 213/1/3 216/1/3
f 220/4/3 219/4/3 218/4/3
f 221/4/3 219/4/3 220/4/3
f 229/4/3 223/4/3 222/4/3
f 230/4/3 223/4/3 229/4/3
f 231/4/3 223/4/3 230/4/3
f 232/3/3 228/3/3 227/3/3
f 233/3/3 228/3/3 232/3/3
f 234/5/3 225/5/3 224/5/3
f 235/5/3 225/5/3 234/5/3
f 236/3/3 232/3/3 227/3/3
f 237/7/3 233/7/3 232/7/3
f 237/3/3 232/3/3 236/3/3
f 240/3/3 236/3/3 227/3/3
f 240/7/3 237/7/3 236/7/3
f 241/7/3 233/7/3 237/7/3
f 241/7/3 237/7/3 240/7/3
f 242/3/3 241/3/3 240/3/3
f 242/7/3 233/7/3 241/7/3
f 243/7/3 233/7/3 242/7/3
f 244/5/3 239/5/3 238/5/3
f 245/5/3 239/5/3 244/5/3
f 246/5/3 227/5/3 226/5/3
f 247/3/3 240/3/3 227/3/3
f 247/5/3 227/5/3 246/5/3
f 247/3/3 242/3/3 240/3/3
f 247/3/3 243/3/3 242/3/3
f 248/3/3 243/3/3 247/3/3
f 252/4/3 250/4/3 249/4/3
f 252/4/3 251/4/3 250/4/3
f 253/4/3 251/4/3 252/4/3
f 259/1/3 255/1/3 254/1/3
f 260/1/3 255/1/3 259/1/3
f 261/3/3 256/3/3 255/3/3
f 261/1/3 255/1/3 260/1/3
f 262/3/3 256/3/3 261/3/3
f 263/1/3 258/1/3 257/1/3
f 264/5/3 260/5/3 259/5/3
f 264/1/3 258/1/3 263/1/3
f 264/5/3 259/5/3 258/5/3
f 265/5/3 260/5/3 264/5/3
f 271/1/3 267/1/3 266/1/3
f 272/1/3 267/1/3 271/1/3
f 273/1/3 269/1/3 268/1/3
f 274/5/3 270/5/3 269/5/3
f 274/1/3 269/1/3 273/1/3
f 275/5/3 270/5/3 274/5/3
f 276/5/3 270/5/3 275/5/3
f 279/1/3 277/1/3 276/1/3
f 279/1/3 276/1/3 275/1/3
f 280/3/3 278/3/3 277/3/3
f 280/1/3 277/1/3 279/1/3
f 281/3/3 278/3/3 280/3/3
f 284/4/3 283/4/3 282/4/3
f 285/4/3 283/4/3 284/4/3
f 286/4/3 283/4/3 285/4/3
f 290/4/3 288/4/3 287/4/3
f 290/4/3 289/4/3 288/4/3
f 291/4/3 289/4/3 290/4/3
f 294/4/3 293/4/3 292/4/3
f 295/4/3 293/4/3 294/4/3
f 297/3/4 298/3/4 299/3/4
f 296/1/4 297/1/4 303/1/4
f 303/1/4 297/1/4 304/1/4
f 297/3/4 299/3/4 305/3/4
f 304/1/4 297/1/4 305/1/4
f 305/3/4 299/3/4 306/3/4
f 300/5/4 301/5/4 307/5/4
f 301/1/4 302/1/4 308/1/4
f 307/5/4 301/5/4 308/5/4
f 303/5/4 304/5/4 309/5/4
f 308/1/4 302/1/4 309/1/4
f 302/5/4 303/5/4 309/5/4
f 309/5/4 304/5/4 310/5/4
f 311/1/4 312/1/4 317/1/4
f 317/1/4 312/1/4 318/1/4
f 313/5/4 314/5/4 319/5/4
f 314/1/4 315/1/4 320/1/4
f 319/5/4 314/5/4 320/5/4
f 315/5/4 316/5/4 321/5/4
f 320/1/4 315/1/4 321/1/4
f 321/5/4 316/5/4 322/5/4
f 322/5/4 316/5/4 323/5/4
f 324/3/4 325/3/4 326/3/4
f 323/1/4 324/1/4 327/1/4
f 322/1/4 323/1/4 327/1/4
f 324/3/4 326/3/4 328/3/4
f 327/1/4 324/1/4 328/1/4
f 328/3/4 326/3/4 329/3/4
f 333/4/4 334/4/4 335/4/4
f 335/4/4 334/4/4 336/4/4
f 330/5/4 331/5/4 337/5/4
f 331/3/4 332/3/4 338/3/4
f 337/5/4 331/5/4 338/5/4
f 338/3/4 332/3/4 339/3/4
f 340/4/4 341/4/4 342/4/4
f 342/4/4 341/4/4 343/4/4
f 344/4/4 345/4/4 346/4/4
f 344/4/4 346/4/4 348/4/4
f 346/4/4 347/4/4 348/4/4
f 348/4/4 347/4/4 349/4/4
f 344/4/4 348/4/4 350/4/4
f 350/4/4 348/4/4 351/4/4
f 356/5/5 353/5/5 352/5/5
f 357/5/5 353/5/5 356/5/5
f 358/5/5 355/5/5 354/5/5
f 359/5/5 355/5/5 358/5/5
f 364/1/5 361/1/5 360/1/5
f 365/1/5 361/1/5 364/1/5
f 366/1/5 363/1/5 362/1/5
f 367/1/5 363/1/5 366/1/5
f 370/5/5 369/5/5 368/5/5
f 371/5/5 369/5/5 370/5/5
f 372/5/5 369/5/5 371/5/5
f 373/5/5 369/5/5 372/5/5
f 375/5/5 372/5/5 371/5/5
f 376/5/5 372/5/5 375/5/5
f 378/5/5 375/5/5 374/5/5
f 378/5/5 377/5/5 376/5/5
f 378/5/5 376/5/5 375/5/5
f 379/5/5 377/5/5 378/5/5
f 384/4/5 381/4/5 380/4/5
f 385/4/5 383/4/5 382/4/5
f 386/4/5 384/4/5 380/4/5
f 386/4/5 385/4/5 384/4/5
f 387/4/5 383/4/5 385/4/5
f 387/4/5 385/4/5 386/4/5
f 390/1/5 389/1/5 388/1/5
f 391/1/5 389/1/5 390/1/5
f 392/1/5 390/1/5 388/1/5
f 393/1/5 389/1/5 391/1/5
f 394/1/5 390/1/5 392/1/5
f 395/1/5 393/1/5 391/1/5
f 396/1/5 394/1/5 392/1/5
f 396/1/5 395/1/5 394/1/5
f 397/1/5 393/1/5 395/1/5
f 397/1/5 395/1/5 396/1/5
f 402/4/5 399/4/5 398/4/5
f 403/4/5 399/4/5 402/4/5
f 404/4/5 401/4/5 400/4/5
f 405/4/5 401/4/5 404/4/5
f 406/2/5 403/2/5 402/2/5
f 407/2/5 403/2/5 406/2/5
f 408/2/5 405/2/5 404/2/5
f 409/2/5 405/2/5 408/2/5
f 415/4/5 411/4/5 410/4/5
f 416/4/5 411/4/5 415/4/5
f 417/4/5 411/4/5 416/4/5
f 418/4/5 413/4/5 412/4/5
f 419/4/5 413/4/5 418/4/5
f 420/4/5 413/4/5 419/4/5
f 421/4/5 415/4/5 414/4/5
f 422/4/5 415/4/5 421/4/5
f 427/4/5 424/4/5 423/4/5
f 428/4/5 424/4/5 427/4/5
f 429/4/5 426/4/5 425/4/5
f 430/4/5 426/4/5 429/4/5
f 431/4/5 426/4/5 430/4/5
f 434/4/5 433/4/5 432/4/5
f 435/4/5 433/4/5 434/4/5
f 436/5/6 437/5/6 440/5/6
f 440/5/6 437/5/6 441/5/6
f 438/5/6 439/5/6 442/5/6
f 442/5/6 439/5/6 443/5/6
f 444/3/6 445/3/6 449/3/6
f 445/7/6 446/7/6 450/7/6
f 450/7/6 446/7/6 451/7/6
f 446/3/6 447/3/6 452/3/6
f 448/3/6 449/3/6 454/3/6
f 449/3/6 445/3/6 455/3/6
f 454/3/6 449/3/6 455/3/6
f 452/3/6 453/3/6 456/3/6
f 446/3/6 452/3/6 456/3/6
f 456/3/6 453/3/6 457/3/6
f 448/3/6 454/3/6 458/3/6
f 458/3/6 454/3/6 459/3/6
f 455/3/6 445/3/6 460/3/6
f 445/7/6 450/7/6 460/7/6
f 460/7/6 450/7/6 461/7/6
f 451/7/6 446/7/6 462/7/6
f 446/3/6 456/3/6 463/3/6
f 462/7/6 446/7/6 463/7/6
f 457/3/6 453/3/6 464/3/6
f 464/3/6 453/3/6 465/3/6
f 460/3/6 461/3/6 466/3/6
f 461/3/6 462/3/6 466/3/6
f 462/3/6 463/3/6 466/3/6
f 455/3/6 460/3/6 466/3/6
f 463/3/6 456/3/6 467/3/6
f 466/3/6 463/3/6 467/3/6
f 468/4/6 469/4/6 470/4/6
f 470/4/6 469/4/6 471/4/6
f 472/4/6 473/4/6 476/4/6
f 476/4/6 473/4/6 477/4/6
f 474/4/6 475/4/6 478/4/6
f 474/4/6 478/4/6 482/4/6
f 478/4/6 479/4/6 482/4/6
f 482/4/6 479/4/6 483/4/6
f 480/4/6 481/4/6 484/4/6
f 484/4/6 481/4/6 485/4/6
f 486/4/6 487/4/6 488/4/6
f 486/4/6 488/4/6 490/4/6
f 488/4/6 489/4/6 490/4/6
f 490/4/6 489/4/6 491/4/6
f 491/4/6 489/4/6 492/4/6
f 492/4/6 489/4/6 493/4/6
f 491/4/6 492/4/6 494/4/6
f 494/4/6 492/4/6 495/4/6
