# generated by tools/rig_people.py — do not edit
mtllib people.mtl
o body
usemtl palette
v 5 22 0
v 5 22 2
v 5 24 2
v 5 24 0
v 3 20 -2
v 3 20 -1
v 3 21 -1
v 3 21 -2
v 2 20 -5
v 2 20 -4
v 2 21 -4
v 2 21 -5
v 2 20 -3
v 2 20 -2
v 2 21 -2
v 2 21 -3
v 2 14 0
v 2 14 1
v 2 15 1
v 2 15 0
v 1 19 -2
v 1 19 -1
v 1 20 -1
v 1 20 -2
v 1 24 0
v 1 24 2
v 1 25 2
v 1 25 0
v 1 26 2
v 1 26 0
v -1 20 -5
v -1 20 -4
v -1 21 -4
v -1 21 -5
v -1 14 0
v -1 14 1
v -1 15 1
v -1 15 0
v -3 20 -5
v -3 20 -4
v -3 21 -4
v -3 21 -5
v -3 21 -2
v -3 23 -2
v -3 23 -5
v -3 20 -3
v -3 20 -2
v -3 21 -3
v -3 23 -3
v -3 24 -2
v -3 24 -3
v -3 19 -2
v -3 19 -1
v -3 20 -1
v -3 23 5
v -3 24 5
v -3 24 0
v -3 25 0
v -3 25 -2
v -3 7 -1
v -3 7 3
v -3 8 3
v -3 8 -1
v -3 8 0
v -3 10 0
v -3 10 -1
v -3 12 0
v -3 12 -1
v -3 12 3
v -3 13 3
v -3 13 -1
v -3 13 2
v -3 14 2
v -3 14 -1
v -3 14 0
v -3 14 4
v -3 15 4
v -3 15 0
v -3 24 2
v -3 25 2
v -3 26 2
v -3 26 0
v -3 14 3
v -3 15 5
v -3 17 5
v -3 17 4
v -4 20 -2
v -4 20 -1
v -4 21 -1
v -4 21 -2
v -4 23 -1
v -4 23 -2
v -4 15 -1
v -4 15 4
v -4 16 4
v -4 16 -1
v -4 16 0
v -4 17 0
v -4 17 -1
v -4 18 0
v -4 18 -1
v -4 18 2
v -4 20 2
v -4 20 0
v -4 21 0
v -4 22 0
v -4 22 -1
v -4 22 5
v -4 23 5
v -4 16 1
v -4 17 1
v -4 18 1
v -4 16 2
v -4 16 3
v -4 17 3
v -4 17 2
v -4 18 3
v -4 18 5
v -4 19 5
v -4 19 2
v -4 19 3
v -4 21 3
v -4 21 2
v -4 21 5
v -4 22 2
v -4 18 4
v -4 19 4
v -4 20 4
v -4 20 3
v -4 20 5
v -4 17 4
v -4 17 5
v -7 20 0
v -7 20 2
v -7 21 2
v -7 21 0
v -7 21 1
v -7 22 1
v -7 22 0
v -7 22 2
v -7 24 2
v -7 24 0
v 7 21 0
v 7 21 2
v 7 20 2
v 7 20 0
v 7 22 0
v 7 22 1
v 7 21 1
v 7 24 0
v 7 24 2
v 7 22 2
v 4 22 -2
v 4 22 -1
v 4 20 -1
v 4 20 -2
v 4 23 -2
v 4 23 -1
v 4 18 -1
v 4 18 4
v 4 15 4
v 4 15 -1
v 4 19 -1
v 4 19 0
v 4 18 0
v 4 20 5
v 4 19 5
v 4 22 0
v 4 20 0
v 4 23 0
v 4 18 5
v 4 23 5
v 4 22 5
v 4 21 2
v 4 21 4
v 4 20 4
v 4 20 2
v 4 22 2
v 4 21 5
v 4 17 5
v 4 17 4
v 3 21 -5
v 3 21 -4
v 3 20 -4
v 3 20 -5
v 3 23 -5
v 3 23 -4
v 3 23 -2
v 3 21 -3
v 3 20 -3
v 3 24 -3
v 3 24 -2
v 3 23 -3
v 3 19 -1
v 3 19 -2
v 3 24 5
v 3 23 5
v 3 25 -2
v 3 25 0
v 3 24 0
v 3 9 -1
v 3 9 3
v 3 7 3
v 3 7 -1
v 3 10 -1
v 3 10 0
v 3 9 0
v 3 12 -1
v 3 12 3
v 3 10 3
v 3 13 -1
v 3 13 0
v 3 12 0
v 3 14 -1
v 3 14 3
v 3 13 3
v 3 15 0
v 3 15 4
v 3 14 4
v 3 14 0
v 3 25 2
v 3 24 2
v 3 26 0
v 3 26 2
v 3 17 4
v 3 17 5
v 3 15 5
v 1 21 -5
v 1 21 -4
v 1 20 -4
v 1 20 -5
v 1 15 0
v 1 15 1
v 1 14 1
v 1 14 0
v -1 20 -2
v -1 20 -1
v -1 19 -1
v -1 19 -2
v -1 25 0
v -1 25 2
v -1 24 2
v -1 24 0
v -1 26 0
v -1 26 2
v -2 21 -5
v -2 21 -4
v -2 20 -4
v -2 20 -5
v -2 21 -3
v -2 21 -2
v -2 20 -2
v -2 20 -3
v -2 15 0
v -2 15 1
v -2 14 1
v -2 14 0
v -3 21 -1
v -5 24 0
v -5 24 2
v -5 22 2
v -5 22 0
v 6 24 2
v 6 21 2
v 6 22 2
v -6 21 2
v -6 20 2
v -5 21 2
v 3 8 3
v -0 9 3
v -0 8 3
v 2 14 3
v 2 9 3
v 2 11 3
v -0 11 3
v 2 12 3
v 1 12 3
v 1 11 3
v 2 13 3
v 1 13 3
v -0 14 3
v -0 13 3
v -1 12 3
v -1 11 3
v -1 9 3
v -1 8 3
v -0 10 3
v -3 10 3
v -3 9 3
v -1 10 3
v 2 15 4
v 2 14 4
v -2 15 4
v -2 14 4
v 1 20 5
v 1 17 5
v 2 23 5
v 2 20 5
v 2 17 5
v 2 15 5
v 2 16 5
v -2 16 5
v -2 15 5
v -0 17 5
v -0 16 5
v 2 22 5
v -1 22 5
v -1 20 5
v 1 18 5
v 1 19 5
v -2 19 5
v -2 18 5
v -1 19 5
v -2 17 5
v -3 19 5
v -3 18 5
v 2 23 -5
v -3 22 -5
v 2 22 -5
v 1 22 -5
v 1 23 -5
v -0 22 -5
v -0 23 -5
v -1 22 -5
v -1 23 -5
v -2 22 -5
v -2 23 -5
v 2 23 -3
v 2 24 -3
v 1 23 -3
v 1 24 -3
v -1 23 -3
v -1 24 -3
v -2 23 -3
v -2 24 -3
v 3 22 -2
v 3 15 -1
v 3 8 -1
v 1 8 -1
v 1 9 -1
v 2 9 -1
v 2 10 -1
v 2 12 -1
v 2 13 -1
v 2 14 -1
v 1 15 -1
v 1 17 -1
v 3 17 -1
v 2 17 -1
v 2 19 -1
v -2 9 -1
v -2 10 -1
v -2 11 -1
v 2 11 -1
v -2 12 -1
v -2 13 -1
v -2 14 -1
v -1 8 -1
v -1 9 -1
v -1 15 -1
v -1 16 -1
v 1 16 -1
v -1 17 -1
v -2 8 -1
v -3 15 -1
v -3 17 -1
v -2 17 -1
v -2 19 -1
v -3 16 -1
v -3 18 -1
v 4 21 0
v 6 21 0
v 6 22 0
v 5 21 0
v -6 20 0
v -6 21 0
v -5 21 0
v -6 24 0
v -6 22 0
v 3 23 -1
v 3 23 0
v 2 23 -4
v -3 23 -4
v 1 23 -4
v -0 23 -4
v -1 23 -4
v -2 23 -4
v 2 24 -2
v 1 24 -2
v -1 24 -2
v -2 24 -2
v -2 14 3
vt 0.9628906 0.5
vt 0.3574219 0.5
vt 0.9785156 0.5
vt 0.3613281 0.5
vt 0.5253906 0.5
vt 0.9667969 0.5
vt 0.0410156 0.5
vt 0.3652344 0.5
vt 0.3691406 0.5
vt 0.0097656 0.5
vt 0.0175781 0.5
vt 0.4785156 0.5
vn -1 0 0
vn 1 0 0
vn 0 0 1
vn 0 0 -1
vn 0 1 0
vn 0 -1 0
f 1/1/1 2/1/1 3/1/1 4/1/1
f 5/2/1 6/2/1 7/2/1 8/2/1
f 9/3/1 10/3/1 11/3/1 12/3/1
f 13/3/1 14/3/1 15/3/1 16/3/1
f 17/4/1 18/4/1 19/4/1 20/4/1
f 21/5/1 22/5/1 23/5/1 24/5/1
f 25/6/1 26/6/1 27/6/1 28/6/1
f 28/1/1 27/1/1 29/1/1 30/1/1
f 31/3/1 32/3/1 33/3/1 34/3/1
f 35/7/1 36/7/1 37/7/1 38/7/1
f 39/3/1 40/3/1 41/3/1 42/3/1
f 42/4/1 43/4/1 44/4/1 45/4/1
f 46/3/1 47/3/1 43/3/1 48/3/1
f 49/3/1 44/3/1 50/3/1 51/3/1
f 52/5/1 53/5/1 54/5/1 47/5/1
f 44/4/1 55/4/1 56/4/1 50/4/1
f 50/4/1 57/4/1 58/4/1 59/4/1
f 60/4/1 61/4/1 62/4/1 63/4/1
f 63/2/1 64/2/1 65/2/1 66/2/1
f 66/8/1 65/8/1 67/8/1 68/8/1
f 68/4/1 69/4/1 70/4/1 71/4/1
f 71/4/1 72/4/1 73/4/1 74/4/1
f 64/4/1 62/4/1 69/4/1 67/4/1
f 75/4/1 76/4/1 77/4/1 78/4/1
f 57/6/1 79/6/1 80/6/1 58/6/1
f 58/1/1 80/1/1 81/1/1 82/1/1
f 72/8/1 70/8/1 83/8/1 73/8/1
f 77/4/1 84/4/1 85/4/1 86/4/1
f 87/2/1 88/2/1 89/2/1 90/2/1
f 90/4/1 89/4/1 91/4/1 92/4/1
f 93/4/1 94/4/1 95/4/1 96/4/1
f 96/8/1 97/8/1 98/8/1 99/8/1
f 99/4/1 98/4/1 100/4/1 101/4/1
f 101/8/1 102/8/1 103/8/1 88/8/1
f 88/8/1 104/8/1 105/8/1 89/8/1
f 89/2/1 105/2/1 106/2/1 107/2/1
f 107/4/1 108/4/1 109/4/1 91/4/1
f 97/4/1 110/4/1 111/4/1 98/4/1
f 98/8/1 111/8/1 112/8/1 100/8/1
f 110/2/1 113/2/1 102/2/1 112/2/1
f 113/8/1 114/8/1 115/8/1 116/8/1
f 116/2/1 115/2/1 117/2/1 102/2/1
f 102/4/1 118/4/1 119/4/1 120/4/1
f 120/8/1 121/8/1 122/8/1 123/8/1
f 123/4/1 124/4/1 108/4/1 125/4/1
f 114/4/1 95/4/1 126/4/1 117/4/1
f 121/2/1 127/2/1 128/2/1 129/2/1
f 129/4/1 130/4/1 124/4/1 122/4/1
f 131/4/1 132/4/1 118/4/1 126/4/1
f 127/4/1 119/4/1 130/4/1 128/4/1
f 133/1/1 134/1/1 135/1/1 136/1/1
f 136/6/1 137/6/1 138/6/1 139/6/1
f 139/1/1 140/1/1 141/1/1 142/1/1
f 137/1/1 135/1/1 140/1/1 138/1/1
f 143/6/2 144/6/2 145/6/2 146/6/2
f 147/6/2 148/6/2 149/6/2 143/6/2
f 150/1/2 151/1/2 152/1/2 147/1/2
f 148/1/2 152/1/2 144/1/2 149/1/2
f 153/2/2 154/2/2 155/2/2 156/2/2
f 157/4/2 158/4/2 154/4/2 153/4/2
f 159/4/2 160/4/2 161/4/2 162/4/2
f 163/4/2 164/4/2 165/4/2 159/4/2
f 155/8/2 166/8/2 167/8/2 163/8/2
f 154/8/2 168/8/2 169/8/2 155/8/2
f 158/2/2 170/2/2 168/2/2 154/2/2
f 164/8/2 167/8/2 171/8/2 165/8/2
f 170/4/2 172/4/2 173/4/2 168/4/2
f 174/8/2 175/8/2 176/8/2 177/8/2
f 178/4/2 173/4/2 179/4/2 174/4/2
f 160/8/2 171/8/2 180/8/2 181/8/2
f 175/4/2 179/4/2 166/4/2 176/4/2
f 182/3/2 183/3/2 184/3/2 185/3/2
f 186/2/2 187/2/2 183/2/2 182/2/2
f 187/4/2 188/4/2 8/4/2 183/4/2
f 189/3/2 8/3/2 5/3/2 190/3/2
f 191/3/2 192/3/2 188/3/2 193/3/2
f 5/5/2 6/5/2 194/5/2 195/5/2
f 192/4/2 196/4/2 197/4/2 188/4/2
f 198/4/2 199/4/2 200/4/2 192/4/2
f 201/4/2 202/4/2 203/4/2 204/4/2
f 205/2/2 206/2/2 207/2/2 201/2/2
f 208/4/2 209/4/2 210/4/2 205/4/2
f 211/8/2 212/8/2 213/8/2 208/8/2
f 214/4/2 215/4/2 216/4/2 211/4/2
f 206/4/2 210/4/2 202/4/2 207/4/2
f 212/4/2 216/4/2 209/4/2 213/4/2
f 217/4/2 218/4/2 219/4/2 220/4/2
f 199/6/2 221/6/2 222/6/2 200/6/2
f 223/1/2 224/1/2 221/1/2 199/1/2
f 225/4/2 226/4/2 227/4/2 218/4/2
f 228/3/2 229/3/2 230/3/2 231/3/2
f 232/7/2 233/7/2 234/7/2 235/7/2
f 236/5/2 237/5/2 238/5/2 239/5/2
f 240/6/2 241/6/2 242/6/2 243/6/2
f 244/1/2 245/1/2 241/1/2 240/1/2
f 246/3/2 247/3/2 248/3/2 249/3/2
f 250/3/2 251/3/2 252/3/2 253/3/2
f 254/4/2 255/4/2 256/4/2 257/4/2
f 43/2/2 258/2/2 54/2/2 47/2/2
f 259/1/2 260/1/2 261/1/2 262/1/2
f 183/3/3 11/3/3 10/3/3 184/3/3
f 229/3/3 33/3/3 32/3/3 230/3/3
f 247/3/3 41/3/3 40/3/3 248/3/3
f 8/3/3 15/3/3 14/3/3 5/3/3
f 251/3/3 43/3/3 47/3/3 252/3/3
f 28/4/3 240/4/3 243/4/3 25/4/3
f 144/6/3 174/6/3 177/6/3 145/6/3
f 151/1/3 263/1/3 264/1/3 144/1/3
f 265/6/3 178/6/3 174/6/3 264/6/3
f 263/1/3 3/1/3 2/1/3 265/1/3
f 221/6/3 27/6/3 26/6/3 222/6/3
f 224/1/3 29/1/3 27/1/3 221/1/3
f 241/6/3 80/6/3 79/6/3 242/6/3
f 245/1/3 81/1/3 80/1/3 241/1/3
f 123/6/3 266/6/3 267/6/3 103/6/3
f 125/6/3 261/6/3 268/6/3 123/6/3
f 260/1/3 141/1/3 135/1/3 268/1/3
f 266/1/3 135/1/3 134/1/3 267/1/3
f 269/4/3 62/4/3 61/4/3 203/4/3
f 202/4/3 270/4/3 271/4/3 269/4/3
f 215/4/3 272/4/3 273/4/3 202/4/3
f 274/8/3 275/8/3 270/8/3 273/8/3
f 276/4/3 277/4/3 278/4/3 274/4/3
f 279/8/3 280/8/3 277/8/3 276/8/3
f 272/4/3 281/4/3 282/4/3 279/4/3
f 277/8/3 283/8/3 284/8/3 278/8/3
f 280/4/3 70/4/3 69/4/3 277/4/3
f 270/8/3 285/8/3 286/8/3 271/8/3
f 287/4/3 288/4/3 289/4/3 270/4/3
f 275/8/3 284/8/3 290/8/3 287/8/3
f 281/8/3 83/8/3 70/8/3 282/8/3
f 285/4/3 289/4/3 62/4/3 286/4/3
f 283/4/3 69/4/3 288/4/3 290/4/3
f 181/4/3 225/4/3 218/4/3 161/4/3
f 218/4/3 291/4/3 292/4/3 219/4/3
f 291/8/3 293/8/3 294/8/3 292/8/3
f 293/4/3 77/4/3 76/4/3 294/4/3
f 86/4/3 131/4/3 94/4/3 77/4/3
f 166/8/3 295/8/3 296/8/3 180/8/3
f 172/4/3 297/4/3 298/4/3 166/4/3
f 226/4/3 299/4/3 300/4/3 227/4/3
f 196/4/3 56/4/3 55/4/3 197/4/3
f 301/8/3 302/8/3 303/8/3 300/8/3
f 299/4/3 304/4/3 305/4/3 301/4/3
f 306/8/3 307/8/3 308/8/3 298/8/3
f 297/4/3 109/4/3 108/4/3 306/4/3
f 309/4/3 118/4/3 132/4/3 296/4/3
f 310/4/3 311/4/3 312/4/3 309/4/3
f 295/8/3 308/8/3 313/8/3 310/8/3
f 304/8/3 314/8/3 302/8/3 305/8/3
f 307/4/3 108/4/3 119/4/3 313/4/3
f 314/4/3 85/4/3 84/4/3 303/4/3
f 311/8/3 315/8/3 316/8/3 312/8/3
f 315/4/3 119/4/3 118/4/3 316/4/3
f 185/3/4 9/3/4 12/3/4 182/3/4
f 182/2/4 12/2/4 317/2/4 186/2/4
f 12/4/4 42/4/4 318/4/4 319/4/4
f 319/9/4 320/9/4 321/9/4 317/9/4
f 231/3/4 31/3/4 34/3/4 228/3/4
f 320/2/4 322/2/4 323/2/4 321/2/4
f 322/4/4 324/4/4 325/4/4 323/4/4
f 324/9/4 326/9/4 327/9/4 325/9/4
f 249/3/4 39/3/4 42/3/4 246/3/4
f 326/4/4 318/4/4 45/4/4 327/4/4
f 190/3/4 13/3/4 16/3/4 189/3/4
f 193/3/4 328/3/4 329/3/4 191/3/4
f 328/5/4 330/5/4 331/5/4 329/5/4
f 330/4/4 332/4/4 333/4/4 331/4/4
f 332/5/4 334/5/4 335/5/4 333/5/4
f 253/3/4 46/3/4 48/3/4 250/3/4
f 334/3/4 49/3/4 51/3/4 335/3/4
f 156/2/4 5/2/4 336/2/4 153/2/4
f 153/4/4 336/4/4 188/4/4 157/4/4
f 195/5/4 21/5/4 24/5/4 5/5/4
f 192/4/4 50/4/4 59/4/4 198/4/4
f 239/5/4 52/5/4 47/5/4 236/5/4
f 47/2/4 87/2/4 90/2/4 43/2/4
f 43/4/4 90/4/4 92/4/4 44/4/4
f 162/4/4 337/4/4 194/4/4 163/4/4
f 163/8/4 194/8/4 6/8/4 155/8/4
f 204/4/4 60/4/4 63/4/4 338/4/4
f 338/4/4 339/4/4 340/4/4 201/4/4
f 201/2/4 341/2/4 342/2/4 205/2/4
f 205/4/4 342/4/4 343/4/4 208/4/4
f 208/8/4 343/8/4 344/8/4 211/8/4
f 211/4/4 344/4/4 345/4/4 214/4/4
f 337/7/4 346/7/4 347/7/4 348/7/4
f 348/3/4 349/3/4 350/3/4 194/3/4
f 6/7/4 54/7/4 258/7/4 7/7/4
f 341/10/4 351/10/4 352/10/4 342/10/4
f 342/11/4 352/11/4 353/11/4 354/11/4
f 354/10/4 353/10/4 355/10/4 343/10/4
f 343/11/4 355/11/4 356/11/4 344/11/4
f 344/10/4 356/10/4 357/10/4 345/10/4
f 349/5/4 347/5/4 22/5/4 350/5/4
f 339/8/4 358/8/4 359/8/4 340/8/4
f 346/12/4 360/12/4 361/12/4 362/12/4
f 362/3/4 361/3/4 363/3/4 347/3/4
f 347/7/4 363/7/4 237/7/4 23/7/4
f 358/4/4 364/4/4 351/4/4 359/4/4
f 360/7/4 365/7/4 366/7/4 363/7/4
f 363/5/4 367/5/4 368/5/4 238/5/4
f 364/2/4 63/2/4 66/2/4 352/2/4
f 352/8/4 66/8/4 68/8/4 355/8/4
f 355/4/4 68/4/4 74/4/4 357/4/4
f 367/3/4 366/3/4 53/3/4 368/3/4
f 365/4/4 93/4/4 96/4/4 369/4/4
f 369/8/4 96/8/4 99/8/4 366/8/4
f 366/4/4 99/4/4 101/4/4 370/4/4
f 370/8/4 101/8/4 88/8/4 54/8/4
f 146/6/4 169/6/4 371/6/4 143/6/4
f 143/6/4 372/6/4 373/6/4 147/6/4
f 147/1/4 1/1/4 4/1/4 150/1/4
f 372/1/4 374/1/4 1/1/4 373/1/4
f 374/6/4 371/6/4 168/6/4 1/6/4
f 220/4/4 17/4/4 20/4/4 217/4/4
f 199/1/4 28/1/4 30/1/4 223/1/4
f 235/7/4 35/7/4 38/7/4 232/7/4
f 240/1/4 58/1/4 82/1/4 244/1/4
f 257/4/4 75/4/4 78/4/4 254/4/4
f 104/6/4 375/6/4 376/6/4 105/6/4
f 105/6/4 377/6/4 262/6/4 106/6/4
f 377/1/4 376/1/4 378/1/4 259/1/4
f 375/1/4 133/1/4 136/1/4 376/1/4
f 376/6/4 136/6/4 139/6/4 379/6/4
f 379/1/4 139/1/4 142/1/4 378/1/4
f 18/4/4 234/4/4 233/4/4 19/4/4
f 36/4/4 256/4/4 255/4/4 37/4/4
f 214/4/5 345/4/5 17/4/5 220/4/5
f 345/10/5 357/10/5 257/10/5 17/10/5
f 17/4/5 235/4/5 234/4/5 18/4/5
f 35/4/5 257/4/5 256/4/5 36/4/5
f 357/4/5 74/4/5 75/4/5 257/4/5
f 5/5/5 24/5/5 23/5/5 6/5/5
f 236/5/5 47/5/5 54/5/5 237/5/5
f 1/6/5 168/6/5 178/6/5 2/6/5
f 106/6/5 262/6/5 261/6/5 125/6/5
f 157/4/5 188/4/5 380/4/5 158/4/5
f 158/2/5 380/2/5 381/2/5 170/2/5
f 170/4/5 381/4/5 197/4/5 172/4/5
f 186/2/5 317/2/5 382/2/5 187/2/5
f 187/4/5 383/4/5 49/4/5 193/4/5
f 317/9/5 321/9/5 384/9/5 382/9/5
f 321/2/5 323/2/5 385/2/5 384/2/5
f 323/4/5 325/4/5 386/4/5 385/4/5
f 325/9/5 327/9/5 387/9/5 386/9/5
f 327/4/5 45/4/5 383/4/5 387/4/5
f 44/4/5 92/4/5 109/4/5 55/4/5
f 150/1/5 4/1/5 3/1/5 151/1/5
f 191/3/5 329/3/5 388/3/5 192/3/5
f 222/4/5 79/4/5 56/4/5 196/4/5
f 329/5/5 331/5/5 389/5/5 388/5/5
f 331/4/5 333/4/5 390/4/5 389/4/5
f 25/4/5 243/4/5 242/4/5 26/4/5
f 333/5/5 335/5/5 391/5/5 390/5/5
f 335/3/5 51/3/5 50/3/5 391/3/5
f 259/1/5 142/1/5 141/1/5 260/1/5
f 198/4/5 59/4/5 58/4/5 199/4/5
f 223/1/5 30/1/5 29/1/5 224/1/5
f 244/1/5 82/1/5 81/1/5 245/1/5
f 203/4/6 61/4/6 60/4/6 204/4/6
f 219/4/6 292/4/6 272/4/6 215/4/6
f 292/8/6 294/8/6 392/8/6 272/8/6
f 294/4/6 76/4/6 83/4/6 392/4/6
f 161/4/6 218/4/6 337/4/6 162/4/6
f 217/7/6 232/7/6 346/7/6 337/7/6
f 227/4/6 300/4/6 291/4/6 218/4/6
f 19/7/6 233/7/6 232/7/6 20/7/6
f 300/8/6 303/8/6 293/8/6 291/8/6
f 232/12/6 38/12/6 360/12/6 346/12/6
f 38/7/6 78/7/6 365/7/6 360/7/6
f 37/7/6 255/7/6 254/7/6 38/7/6
f 303/4/6 84/4/6 77/4/6 293/4/6
f 77/4/6 94/4/6 93/4/6 365/4/6
f 180/8/6 226/8/6 225/8/6 181/8/6
f 85/4/6 132/4/6 131/4/6 86/4/6
f 194/5/6 22/5/6 21/5/6 195/5/6
f 238/5/6 53/5/6 52/5/6 239/5/6
f 145/6/6 177/6/6 169/6/6 146/6/6
f 155/2/6 6/2/6 5/2/6 156/2/6
f 184/3/6 10/3/6 9/3/6 185/3/6
f 5/3/6 14/3/6 13/3/6 190/3/6
f 230/3/6 32/3/6 31/3/6 231/3/6
f 248/3/6 40/3/6 39/3/6 249/3/6
f 252/3/6 47/3/6 46/3/6 253/3/6
f 54/2/6 88/2/6 87/2/6 47/2/6
f 103/6/6 267/6/6 375/6/6 104/6/6
f 267/1/6 134/1/6 133/1/6 375/1/6
f 189/4/6 48/4/6 41/4/6 183/4/6
f 7/4/6 258/4/6 43/4/6 8/4/6
f 11/4/6 229/4/6 228/4/6 12/4/6
f 15/4/6 251/4/6 250/4/6 16/4/6
f 33/4/6 247/4/6 246/4/6 34/4/6
