# generated by tools/rig_people.py — do not edit
mtllib people.mtl
o arm-l
usemtl palette
v -5 6 0
v -5 6 2
v -5 11 2
v -5 11 0
v -5 12 2
v -5 12 0
v -5 12 1
v -5 14 1
v -5 14 0
v -5 14 2
v -3 11 0
v -3 11 2
v -3 6 2
v -3 6 0
v -3 12 0
v -3 12 2
v -3 13 0
v -3 13 2
v -3 14 0
v -3 14 1
v -3 13 1
v -3 14 2
v -4 12 0
v -4 13 0
v -5 13 0
vt 0.0410156 0.5
vt 0.4511719 0.5
vt 0.2597656 0.5
vt 0.2636719 0.5
vn -1 0 0
vn 1 0 0
vn 0 0 1
vn 0 0 -1
vn 0 1 0
vn 0 -1 0
f 1/1/1 2/1/1 3/1/1 4/1/1
f 4/2/1 3/2/1 5/2/1 6/2/1
f 6/3/1 7/3/1 8/3/1 9/3/1
f 7/4/1 5/4/1 10/4/1 8/4/1
f 11/1/2 12/1/2 13/1/2 14/1/2
f 15/2/2 16/2/2 12/2/2 11/2/2
f 17/4/2 18/4/2 16/4/2 15/4/2
f 19/3/2 20/3/2 21/3/2 17/3/2
f 20/4/2 22/4/2 18/4/2 21/4/2
f 12/1/3 3/1/3 2/1/3 13/1/3
f 16/2/3 5/2/3 3/2/3 12/2/3
f 22/4/3 10/4/3 5/4/3 16/4/3
f 14/1/4 1/1/4 4/1/4 11/1/4
f 11/2/4 4/2/4 6/2/4 15/2/4
f 15/4/4 23/4/4 24/4/4 17/4/4
f 17/3/4 25/3/4 9/3/4 19/3/4
f 23/3/4 6/3/4 25/3/4 24/3/4
f 19/3/5 9/3/5 8/3/5 20/3/5
f 20/4/5 8/4/5 10/4/5 22/4/5
f 13/1/6 2/1/6 1/1/6 14/1/6
