# MagicaVoxel @ Ephtracy

# group
o 

# material
mtllib Character-15.mtl
usemtl palette

# normals
vn -1 0 0
vn 1 0 0
vn 0 0 1
vn 0 0 -1
vn 0 -1 0
vn 0 1 0

# texcoords
vt 0.0371094 0.5
vt 0.0488281 0.5
vt 0.0761719 0.5
vt 0.525391 0.5
vt 0.541016 0.5
vt 0.697266 0.5
vt 0.708984 0.5
vt 0.974609 0.5

# verts
v -5.5 0.6 5.8
v -5.5 0.6 5.6
v -5.5 0.8 5.8
v -5.5 0.8 5.6
v -5.5 1.4 5.8
v -5.5 1.4 5.6
v -5.4 1.5 5.7
v -5.4 1.5 5.4
v -5.4 1.6 5.9
v -5.4 1.6 5.8
v -5.4 1.6 5.7
v -5.4 1.7 6.1
v -5.4 1.7 6
v -5.4 1.8 5.7
v -5.4 1.8 5.6
v -5.4 1.9 6.1
v -5.4 1.9 6
v -5.4 1.9 5.9
v -5.4 1.9 5.8
v -5.4 1.9 5.7
v -5.4 2 6
v -5.4 2 5.6
v -5.4 2.3 6.1
v -5.4 2.3 6
v -5.4 2.3 5.5
v -5.4 2.3 5.4
v -5.4 2.4 6
v -5.4 2.4 5.5
v -5.3 0 5.9
v -5.3 0 5.6
v -5.3 0.1 5.9
v -5.3 0.1 5.8
v -5.3 0.1 5.6
v -5.3 0.5 5.9
v -5.3 0.5 5.8
v -5.3 0.5 5.6
v -5.3 0.5 5.5
v -5.3 0.6 5.9
v -5.3 0.6 5.8
v -5.3 0.6 5.6
v -5.3 0.7 5.6
v -5.3 0.7 5.5
v -5.3 0.8 5.8
v -5.3 0.8 5.6
v -5.3 1.4 5.9
v -5.3 1.4 5.8
v -5.3 1.4 5.6
v -5.3 1.4 5.5
v -5.3 1.5 6
v -5.3 1.5 5.7
v -5.3 1.6 6
v -5.3 1.6 5.9
v -5.3 1.6 5.8
v -5.3 1.6 5.7
v -5.3 1.7 6
v -5.3 1.8 6
v -5.3 1.8 5.9
v -5.3 1.9 6
v -5.3 1.9 5.9
v -5.3 2.3 6.1
v -5.3 2.3 6
v -5.3 2.3 5.5
v -5.3 2.3 5.4
v -5.3 2.4 6.1
v -5.3 2.4 6
v -5.3 2.4 5.5
v -5.3 2.4 5.4
v -5.3 2.5 6
v -5.3 2.5 5.5
v -5.1 1.4 5.8
v -5.1 1.4 5.6
v -5.1 1.5 5.8
v -5.1 1.5 5.6
v -4.9 0 5.9
v -4.9 0 5.6
v -4.9 0.1 5.9
v -4.9 0.1 5.8
v -4.9 0.1 5.6
v -4.9 0.5 5.8
v -4.9 0.5 5.6
v -4.9 1.7 6.1
v -4.9 1.7 6
v -4.9 1.8 6.1
v -4.9 1.8 6
v -4.9 1.9 6.1
v -4.9 1.9 6
v -4.9 2 6.1
v -4.9 2 6
v -4.9 2.1 6.1
v -4.9 2.1 6
v -4.9 2.2 6.1
v -4.9 2.2 6
v -5.1 0 5.9
v -5.1 0 5.6
v -5.1 0.1 5.9
v -5.1 0.1 5.8
v -5.1 0.1 5.6
v -5.1 0.5 5.8
v -5.1 0.5 5.6
v -5.1 1.7 6.1
v -5.1 1.7 6
v -5.1 1.8 6.1
v -5.1 1.8 6
v -5.1 1.9 6.1
v -5.1 1.9 6
v -5.1 2 6.1
v -5.1 2 6
v -5 2 6.1
v -5 2 6
v -5 2.2 6.1
v -5 2.2 6
v -4.9 1.4 5.8
v -4.9 1.4 5.6
v -4.9 1.5 5.8
v -4.9 1.5 5.6
v -4.9 2.4 6
v -4.9 2.4 5.5
v -4.9 2.5 6
v -4.9 2.5 5.5
v -4.8 2.3 6.1
v -4.8 2.3 6
v -4.8 2.3 5.5
v -4.8 2.3 5.4
v -4.8 2.4 6.1
v -4.8 2.4 6
v -4.8 2.4 5.5
v -4.8 2.4 5.4
v -4.7 0 5.9
v -4.7 0 5.6
v -4.7 0.1 5.9
v -4.7 0.1 5.8
v -4.7 0.1 5.6
v -4.7 0.5 5.9
v -4.7 0.5 5.8
v -4.7 0.5 5.6
v -4.7 0.5 5.5
v -4.7 0.6 5.9
v -4.7 0.6 5.8
v -4.7 0.6 5.6
v -4.7 0.7 5.6
v -4.7 0.7 5.5
v -4.7 0.8 5.8
v -4.7 0.8 5.6
v -4.7 1.4 5.9
v -4.7 1.4 5.8
v -4.7 1.4 5.6
v -4.7 1.4 5.5
v -4.7 1.5 6
v -4.7 1.5 5.7
v -4.7 1.6 6
v -4.7 1.6 5.9
v -4.7 1.6 5.8
v -4.7 1.6 5.7
v -4.7 1.7 6
v -4.7 1.8 6
v -4.7 1.8 5.9
v -4.7 1.9 6
v -4.7 1.9 5.9
v -4.7 2.1 6.1
v -4.7 2.1 6
v -4.7 2.3 6.1
v -4.7 2.3 6
v -4.7 2.3 5.5
v -4.7 2.4 6
v -4.7 2.4 5.5
v -4.6 1.5 5.7
v -4.6 1.5 5.4
v -4.6 1.6 5.9
v -4.6 1.6 5.8
v -4.6 1.6 5.7
v -4.6 1.7 6.1
v -4.6 1.7 6
v -4.6 1.8 5.7
v -4.6 1.8 5.6
v -4.6 1.9 6.1
v -4.6 1.9 6
v -4.6 1.9 5.9
v -4.6 1.9 5.8
v -4.6 1.9 5.7
v -4.6 2 6.1
v -4.6 2 6
v -4.6 2 5.6
v -4.6 2.3 6
v -4.6 2.3 5.4
v -4.5 0.6 5.8
v -4.5 0.6 5.6
v -4.5 0.8 5.8
v -4.5 0.8 5.6
v -4.5 1.4 5.8
v -4.5 1.4 5.6
v -5.4 1.7 6.1
v -5.4 1.9 6.1
v -5.4 2.3 6.1
v -5.3 1.9 6.1
v -5.3 2 6.1
v -5.3 2.3 6.1
v -5.3 2.4 6.1
v -5.1 1.7 6.1
v -5.1 1.8 6.1
v -5.1 1.9 6.1
v -5.1 2 6.1
v -5 2 6.1
v -5 2.2 6.1
v -4.9 1.7 6.1
v -4.9 1.8 6.1
v -4.9 1.9 6.1
v -4.9 2 6.1
v -4.9 2.1 6.1
v -4.9 2.2 6.1
v -4.8 2.3 6.1
v -4.8 2.4 6.1
v -4.7 2.1 6.1
v -4.7 2.3 6.1
v -4.6 1.7 6.1
v -4.6 1.9 6.1
v -4.6 2 6.1
v -5.4 2.3 6
v -5.4 2.4 6
v -5.3 1.5 6
v -5.3 1.6 6
v -5.3 1.7 6
v -5.3 2.3 6
v -5.3 2.4 6
v -5.3 2.5 6
v -5.2 1.6 6
v -5.2 1.7 6
v -5.1 1.7 6
v -5.1 1.8 6
v -5.1 1.9 6
v -5.1 2 6
v -5 2 6
v -5 2.2 6
v -4.9 1.7 6
v -4.9 1.8 6
v -4.9 1.9 6
v -4.9 2 6
v -4.9 2.1 6
v -4.9 2.2 6
v -4.9 2.4 6
v -4.9 2.5 6
v -4.8 1.6 6
v -4.8 1.7 6
v -4.8 2.3 6
v -4.8 2.4 6
v -4.7 1.5 6
v -4.7 1.6 6
v -4.7 1.7 6
v -4.7 2 6
v -4.7 2.1 6
v -4.7 2.3 6
v -4.7 2.4 6
v -4.6 2 6
v -4.6 2.3 6
v -5.4 1.6 5.9
v -5.4 1.9 5.9
v -5.3 0 5.9
v -5.3 0.1 5.9
v -5.3 0.5 5.9
v -5.3 0.6 5.9
v -5.3 1.4 5.9
v -5.3 1.6 5.9
v -5.3 1.8 5.9
v -5.3 1.9 5.9
v -5.1 0 5.9
v -5.1 0.1 5.9
v -5.1 0.6 5.9
v -5.1 0.9 5.9
v -5.1 1.4 5.9
v -4.9 0 5.9
v -4.9 0.1 5.9
v -4.9 0.6 5.9
v -4.9 0.9 5.9
v -4.9 1.4 5.9
v -4.7 0 5.9
v -4.7 0.1 5.9
v -4.7 0.5 5.9
v -4.7 0.6 5.9
v -4.7 1.4 5.9
v -4.7 1.6 5.9
v -4.7 1.8 5.9
v -4.7 1.9 5.9
v -4.6 1.6 5.9
v -4.6 1.9 5.9
v -5.5 0.6 5.8
v -5.5 0.8 5.8
v -5.5 1.4 5.8
v -5.3 0.1 5.8
v -5.3 0.5 5.8
v -5.3 0.6 5.8
v -5.3 0.8 5.8
v -5.3 1.4 5.8
v -5.1 0.1 5.8
v -5.1 0.5 5.8
v -5.1 1.4 5.8
v -5.1 1.5 5.8
v -4.9 0.1 5.8
v -4.9 0.5 5.8
v -4.9 1.4 5.8
v -4.9 1.5 5.8
v -4.7 0.1 5.8
v -4.7 0.5 5.8
v -4.7 0.6 5.8
v -4.7 0.8 5.8
v -4.7 1.4 5.8
v -4.5 0.6 5.8
v -4.5 0.8 5.8
v -4.5 1.4 5.8
v -5.4 1.5 5.7
v -5.4 1.6 5.7
v -5.3 1.5 5.7
v -5.3 1.6 5.7
v -4.7 1.5 5.7
v -4.7 1.6 5.7
v -4.6 1.5 5.7
v -4.6 1.6 5.7
v -5.4 1.7 6
v -5.4 1.9 6
v -5.3 1.7 6
v -5.3 1.8 6
v -5.3 1.9 6
v -4.7 1.7 6
v -4.7 1.8 6
v -4.7 1.9 6
v -4.6 1.7 6
v -4.6 1.9 6
v -5.5 0.6 5.6
v -5.5 0.8 5.6
v -5.5 1.4 5.6
v -5.3 0 5.6
v -5.3 0.1 5.6
v -5.3 0.5 5.6
v -5.3 0.6 5.6
v -5.3 0.7 5.6
v -5.3 0.8 5.6
v -5.3 1.4 5.6
v -5.1 0 5.6
v -5.1 0.1 5.6
v -5.1 0.5 5.6
v -5.1 1.4 5.6
v -5.1 1.5 5.6
v -4.9 0 5.6
v -4.9 0.1 5.6
v -4.9 0.5 5.6
v -4.9 1.4 5.6
v -4.9 1.5 5.6
v -4.7 0 5.6
v -4.7 0.1 5.6
v -4.7 0.5 5.6
v -4.7 0.6 5.6
v -4.7 0.7 5.6
v -4.7 0.8 5.6
v -4.7 1.4 5.6
v -4.5 0.6 5.6
v -4.5 0.8 5.6
v -4.5 1.4 5.6
v -5.4 2.3 5.5
v -5.4 2.4 5.5
v -5.3 0.5 5.5
v -5.3 0.7 5.5
v -5.3 1.4 5.5
v -5.3 2.3 5.5
v -5.3 2.4 5.5
v -5.3 2.5 5.5
v -4.9 2.4 5.5
v -4.9 2.5 5.5
v -4.8 2.3 5.5
v -4.8 2.4 5.5
v -4.7 0.5 5.5
v -4.7 0.7 5.5
v -4.7 1.4 5.5
v -4.7 2.3 5.5
v -4.7 2.4 5.5
v -5.4 1.5 5.4
v -5.4 2.3 5.4
v -5.3 2.3 5.4
v -5.3 2.4 5.4
v -4.8 2.3 5.4
v -4.8 2.4 5.4
v -4.6 1.5 5.4
v -4.6 2.3 5.4
v -5.3 0 5.9
v -5.1 0 5.9
v -4.9 0 5.9
v -4.7 0 5.9
v -5.3 0 5.6
v -5.1 0 5.6
v -4.9 0 5.6
v -4.7 0 5.6
v -5.3 0.5 5.9
v -4.7 0.5 5.9
v -5.3 0.5 5.8
v -5.1 0.5 5.8
v -4.9 0.5 5.8
v -4.7 0.5 5.8
v -5.3 0.5 5.6
v -5.1 0.5 5.6
v -4.9 0.5 5.6
v -4.7 0.5 5.6
v -5.3 0.5 5.5
v -4.7 0.5 5.5
v -5.5 0.6 5.8
v -5.3 0.6 5.8
v -4.7 0.6 5.8
v -4.5 0.6 5.8
v -5.5 0.6 5.6
v -5.3 0.6 5.6
v -4.7 0.6 5.6
v -4.5 0.6 5.6
v -5.3 1.5 6
v -4.7 1.5 6
v -5.1 1.5 5.8
v -4.9 1.5 5.8
v -5.4 1.5 5.7
v -5.3 1.5 5.7
v -4.7 1.5 5.7
v -4.6 1.5 5.7
v -5.1 1.5 5.6
v -4.9 1.5 5.6
v -5.3 1.5 5.5
v -4.7 1.5 5.5
v -5.4 1.5 5.4
v -4.6 1.5 5.4
v -5.4 1.6 5.9
v -5.3 1.6 5.9
v -4.7 1.6 5.9
v -4.6 1.6 5.9
v -5.4 1.6 5.8
v -5.3 1.6 5.8
v -4.7 1.6 5.8
v -4.6 1.6 5.8
v -5.4 1.6 5.7
v -5.3 1.6 5.7
v -4.7 1.6 5.7
v -4.6 1.6 5.7
v -5.4 1.7 6.1
v -5.1 1.7 6.1
v -4.9 1.7 6.1
v -4.6 1.7 6.1
v -5.4 1.7 6
v -5.3 1.7 6
v -5.2 1.7 6
v -5.1 1.7 6
v -4.9 1.7 6
v -4.8 1.7 6
v -4.7 1.7 6
v -4.6 1.7 6
v -5.1 1.8 6.1
v -4.9 1.8 6.1
v -5.1 1.8 6
v -4.9 1.8 6
v -5.4 1.9 6
v -5.3 1.9 6
v -4.7 1.9 6
v -4.6 1.9 6
v -5.4 1.9 5.9
v -5.3 1.9 5.9
v -4.7 1.9 5.9
v -4.6 1.9 5.9
v -5.1 2 6.1
v -5 2 6.1
v -5.1 2 6
v -5 2 6
v -4.9 2.1 6.1
v -4.7 2.1 6.1
v -4.9 2.1 6
v -4.7 2.1 6
v -5 2.2 6.1
v -4.9 2.2 6.1
v -5 2.2 6
v -4.9 2.2 6
v -5.3 0.1 5.9
v -5.1 0.1 5.9
v -4.9 0.1 5.9
v -4.7 0.1 5.9
v -5.3 0.1 5.8
v -5.1 0.1 5.8
v -4.9 0.1 5.8
v -4.7 0.1 5.8
v -5.3 1.4 5.9
v -5.1 1.4 5.9
v -4.9 1.4 5.9
v -4.7 1.4 5.9
v -5.5 1.4 5.8
v -5.3 1.4 5.8
v -5.1 1.4 5.8
v -4.9 1.4 5.8
v -4.7 1.4 5.8
v -4.5 1.4 5.8
v -5.5 1.4 5.6
v -5.3 1.4 5.6
v -5.1 1.4 5.6
v -4.9 1.4 5.6
v -4.7 1.4 5.6
v -4.5 1.4 5.6
v -5.3 1.4 5.5
v -4.7 1.4 5.5
v -5.1 1.9 6.1
v -4.9 1.9 6.1
v -5.1 1.9 6
v -4.9 1.9 6
v -4.9 2 6.1
v -4.6 2 6.1
v -4.9 2 6
v -4.7 2 6
v -4.6 2 6
v -5.4 2.3 6.1
v -5.3 2.3 6.1
v -4.8 2.3 6.1
v -4.7 2.3 6.1
v -5.4 2.3 6
v -5.3 2.3 6
v -4.8 2.3 6
v -4.7 2.3 6
v -4.6 2.3 6
v -5.4 2.3 5.5
v -5.3 2.3 5.5
v -4.8 2.3 5.5
v -4.7 2.3 5.5
v -5.4 2.3 5.4
v -5.3 2.3 5.4
v -4.8 2.3 5.4
v -4.6 2.3 5.4
v -5.3 2.4 6.1
v -4.8 2.4 6.1
v -5.4 2.4 6
v -5.3 2.4 6
v -4.9 2.4 6
v -4.8 2.4 6
v -4.7 2.4 6
v -5.4 2.4 5.5
v -5.3 2.4 5.5
v -4.9 2.4 5.5
v -4.8 2.4 5.5
v -4.7 2.4 5.5
v -5.3 2.4 5.4
v -4.8 2.4 5.4
v -5.3 2.5 6
v -4.9 2.5 6
v -5.3 2.5 5.5
v -4.9 2.5 5.5

# faces
f 3/1/1 2/1/1 1/1/1
f 4/1/1 2/1/1 3/1/1
f 5/8/1 4/8/1 3/8/1
f 6/8/1 4/8/1 5/8/1
f 11/3/1 8/3/1 7/3/1
f 14/3/1 8/3/1 11/3/1
f 14/2/1 11/2/1 10/2/1
f 15/3/1 8/3/1 14/3/1
f 16/6/1 13/6/1 12/6/1
f 17/6/1 13/6/1 16/6/1
f 18/3/1 10/3/1 9/3/1
f 19/2/1 14/2/1 10/2/1
f 19/3/1 10/3/1 18/3/1
f 20/4/1 15/4/1 14/4/1
f 20/2/1 14/2/1 19/2/1
f 21/3/1 17/3/1 16/3/1
f 21/4/1 18/4/1 17/4/1
f 21/4/1 20/4/1 19/4/1
f 21/4/1 19/4/1 18/4/1
f 22/4/1 15/4/1 20/4/1
f 22/4/1 20/4/1 21/4/1
f 22/3/1 8/3/1 15/3/1
f 23/3/1 21/3/1 16/3/1
f 23/3/1 22/3/1 21/3/1
f 24/3/1 22/3/1 23/3/1
f 25/3/1 8/3/1 22/3/1
f 25/3/1 22/3/1 24/3/1
f 26/3/1 8/3/1 25/3/1
f 27/3/1 25/3/1 24/3/1
f 28/3/1 25/3/1 27/3/1
f 31/4/1 30/4/1 29/4/1
f 32/4/1 30/4/1 31/4/1
f 33/4/1 30/4/1 32/4/1
f 35/1/1 33/1/1 32/1/1
f 36/1/1 33/1/1 35/1/1
f 38/4/1 36/4/1 35/4/1
f 38/4/1 37/4/1 36/4/1
f 38/4/1 35/4/1 34/4/1
f 39/4/1 37/4/1 38/4/1
f 40/4/1 37/4/1 39/4/1
f 41/4/1 37/4/1 40/4/1
f 42/4/1 37/4/1 41/4/1
f 43/8/1 39/8/1 38/8/1
f 44/8/1 42/8/1 41/8/1
f 45/8/1 43/8/1 38/8/1
f 46/8/1 43/8/1 45/8/1
f 47/8/1 42/8/1 44/8/1
f 48/8/1 42/8/1 47/8/1
f 51/1/1 50/1/1 49/1/1
f 52/1/1 50/1/1 51/1/1
f 53/1/1 50/1/1 52/1/1
f 54/1/1 50/1/1 53/1/1
f 55/5/1 52/5/1 51/5/1
f 56/5/1 52/5/1 55/5/1
f 57/5/1 52/5/1 56/5/1
f 58/1/1 57/1/1 56/1/1
f 59/1/1 57/1/1 58/1/1
f 64/3/1 61/3/1 60/3/1
f 65/3/1 61/3/1 64/3/1
f 66/3/1 63/3/1 62/3/1
f 67/3/1 63/3/1 66/3/1
f 68/3/1 66/3/1 65/3/1
f 69/3/1 66/3/1 68/3/1
f 72/1/1 71/1/1 70/1/1
f 73/1/1 71/1/1 72/1/1
f 76/4/1 75/4/1 74/4/1
f 77/4/1 75/4/1 76/4/1
f 78/4/1 75/4/1 77/4/1
f 79/1/1 78/1/1 77/1/1
f 80/1/1 78/1/1 79/1/1
f 83/6/1 82/6/1 81/6/1
f 84/6/1 82/6/1 83/6/1
f 87/4/1 86/4/1 85/4/1
f 88/4/1 86/4/1 87/4/1
f 91/3/1 90/3/1 89/3/1
f 92/3/1 90/3/1 91/3/1
f 93/4/2 94/4/2 95/4/2
f 95/4/2 94/4/2 96/4/2
f 96/4/2 94/4/2 97/4/2
f 96/1/2 97/1/2 98/1/2
f 98/1/2 97/1/2 99/1/2
f 100/6/2 101/6/2 102/6/2
f 102/6/2 101/6/2 103/6/2
f 104/4/2 105/4/2 106/4/2
f 106/4/2 105/4/2 107/4/2
f 108/3/2 109/3/2 110/3/2
f 110/3/2 109/3/2 111/3/2
f 112/1/2 113/1/2 114/1/2
f 114/1/2 113/1/2 115/1/2
f 116/3/2 117/3/2 118/3/2
f 118/3/2 117/3/2 119/3/2
f 120/3/2 121/3/2 124/3/2
f 124/3/2 121/3/2 125/3/2
f 122/3/2 123/3/2 126/3/2
f 126/3/2 123/3/2 127/3/2
f 128/4/2 129/4/2 130/4/2
f 130/4/2 129/4/2 131/4/2
f 131/4/2 129/4/2 132/4/2
f 131/1/2 132/1/2 134/1/2
f 134/1/2 132/1/2 135/1/2
f 134/4/2 135/4/2 137/4/2
f 135/4/2 136/4/2 137/4/2
f 133/4/2 134/4/2 137/4/2
f 137/4/2 136/4/2 138/4/2
f 138/4/2 136/4/2 139/4/2
f 139/4/2 136/4/2 140/4/2
f 140/4/2 136/4/2 141/4/2
f 137/8/2 138/8/2 142/8/2
f 140/8/2 141/8/2 143/8/2
f 137/8/2 142/8/2 144/8/2
f 144/8/2 142/8/2 145/8/2
f 143/8/2 141/8/2 146/8/2
f 146/8/2 141/8/2 147/8/2
f 148/1/2 149/1/2 150/1/2
f 150/1/2 149/1/2 151/1/2
f 151/1/2 149/1/2 152/1/2
f 152/1/2 149/1/2 153/1/2
f 150/5/2 151/5/2 154/5/2
f 154/5/2 151/5/2 155/5/2
f 155/5/2 151/5/2 156/5/2
f 155/1/2 156/1/2 157/1/2
f 157/1/2 156/1/2 158/1/2
f 159/3/2 160/3/2 161/3/2
f 161/3/2 160/3/2 162/3/2
f 162/3/2 163/3/2 164/3/2
f 164/3/2 163/3/2 165/3/2
f 166/3/2 167/3/2 170/3/2
f 170/3/2 167/3/2 173/3/2
f 169/2/2 170/2/2 173/2/2
f 173/3/2 167/3/2 174/3/2
f 171/6/2 172/6/2 175/6/2
f 175/6/2 172/6/2 176/6/2
f 168/3/2 169/3/2 177/3/2
f 169/2/2 173/2/2 178/2/2
f 177/3/2 169/3/2 178/3/2
f 173/4/2 174/4/2 179/4/2
f 178/2/2 173/2/2 179/2/2
f 175/4/2 176/4/2 180/4/2
f 176/4/2 177/4/2 180/4/2
f 178/4/2 179/4/2 180/4/2
f 177/4/2 178/4/2 180/4/2
f 180/4/2 179/4/2 181/4/2
f 179/4/2 174/4/2 182/4/2
f 181/4/2 179/4/2 182/4/2
f 174/3/2 167/3/2 182/3/2
f 181/3/2 182/3/2 183/3/2
f 182/3/2 167/3/2 184/3/2
f 183/3/2 182/3/2 184/3/2
f 185/1/2 186/1/2 187/1/2
f 187/1/2 186/1/2 188/1/2
f 187/8/2 188/8/2 189/8/2
f 189/8/2 188/8/2 190/8/2
f 194/6/3 192/6/3 191/6/3
f 194/3/3 193/3/3 192/3/3
f 195/3/3 193/3/3 194/3/3
f 196/3/3 193/3/3 195/3/3
f 198/6/3 194/6/3 191/6/3
f 199/6/3 194/6/3 198/6/3
f 200/4/3 195/4/3 194/4/3
f 200/6/3 194/6/3 199/6/3
f 201/3/3 197/3/3 196/3/3
f 201/4/3 195/4/3 200/4/3
f 201/3/3 196/3/3 195/3/3
f 202/3/3 197/3/3 201/3/3
f 203/3/3 197/3/3 202/3/3
f 205/4/3 200/4/3 199/4/3
f 206/4/3 200/4/3 205/4/3
f 209/3/3 197/3/3 203/3/3
f 210/3/3 197/3/3 209/3/3
f 210/3/3 209/3/3 208/3/3
f 211/3/3 197/3/3 210/3/3
f 212/3/3 210/3/3 208/3/3
f 213/3/3 210/3/3 212/3/3
f 214/6/3 205/6/3 204/6/3
f 214/6/3 206/6/3 205/6/3
f 215/4/3 207/4/3 206/4/3
f 215/6/3 206/6/3 214/6/3
f 216/4/3 207/4/3 215/4/3
f 222/3/3 218/3/3 217/3/3
f 223/3/3 218/3/3 222/3/3
f 225/5/3 221/5/3 220/5/3
f 225/1/3 220/1/3 219/1/3
f 226/5/3 221/5/3 225/5/3
f 227/1/3 226/1/3 225/1/3
f 231/1/3 230/1/3 229/1/3
f 233/1/3 227/1/3 225/1/3
f 233/1/3 228/1/3 227/1/3
f 234/1/3 228/1/3 233/1/3
f 235/1/3 232/1/3 231/1/3
f 235/1/3 231/1/3 229/1/3
f 236/1/3 232/1/3 235/1/3
f 237/1/3 232/1/3 236/1/3
f 238/1/3 232/1/3 237/1/3
f 239/3/3 224/3/3 223/3/3
f 240/3/3 224/3/3 239/3/3
f 241/1/3 225/1/3 219/1/3
f 241/1/3 233/1/3 225/1/3
f 242/1/3 233/1/3 241/1/3
f 245/1/3 241/1/3 219/1/3
f 246/5/3 242/5/3 241/5/3
f 246/1/3 241/1/3 245/1/3
f 247/5/3 242/5/3 246/5/3
f 248/1/3 237/1/3 236/1/3
f 249/1/3 237/1/3 248/1/3
f 250/3/3 244/3/3 243/3/3
f 251/3/3 244/3/3 250/3/3
f 252/3/3 249/3/3 248/3/3
f 252/3/3 250/3/3 249/3/3
f 253/3/3 250/3/3 252/3/3
f 261/3/3 255/3/3 254/3/3
f 262/3/3 255/3/3 261/3/3
f 263/3/3 255/3/3 262/3/3
f 264/4/3 257/4/3 256/4/3
f 265/4/3 257/4/3 264/4/3
f 266/8/3 260/8/3 259/8/3
f 266/4/3 259/4/3 258/4/3
f 267/8/3 260/8/3 266/8/3
f 268/8/3 260/8/3 267/8/3
f 271/4/3 266/4/3 258/4/3
f 271/4/3 267/4/3 266/4/3
f 272/7/3 268/7/3 267/7/3
f 272/4/3 267/4/3 271/4/3
f 273/7/3 268/7/3 272/7/3
f 274/4/3 270/4/3 269/4/3
f 275/4/3 270/4/3 274/4/3
f 276/4/3 271/4/3 258/4/3
f 277/8/3 272/8/3 271/8/3
f 277/4/3 271/4/3 276/4/3
f 277/8/3 273/8/3 272/8/3
f 278/8/3 273/8/3 277/8/3
f 282/3/3 281/3/3 280/3/3
f 282/3/3 280/3/3 279/3/3
f 283/3/3 281/3/3 282/3/3
f 289/1/3 285/1/3 284/1/3
f 290/8/3 286/8/3 285/8/3
f 290/1/3 285/1/3 289/1/3
f 291/8/3 286/8/3 290/8/3
f 292/1/3 288/1/3 287/1/3
f 293/1/3 288/1/3 292/1/3
f 298/1/3 295/1/3 294/1/3
f 299/1/3 295/1/3 298/1/3
f 300/1/3 297/1/3 296/1/3
f 301/1/3 297/1/3 300/1/3
f 305/1/3 303/1/3 302/1/3
f 306/8/3 304/8/3 303/8/3
f 306/1/3 303/1/3 305/1/3
f 307/8/3 304/8/3 306/8/3
f 310/3/3 309/3/3 308/3/3
f 311/3/3 309/3/3 310/3/3
f 314/3/3 313/3/3 312/3/3
f 315/3/3 313/3/3 314/3/3
f 316/6/4 317/6/4 318/6/4
f 318/6/4 317/6/4 319/6/4
f 319/6/4 317/6/4 320/6/4
f 321/6/4 322/6/4 324/6/4
f 322/6/4 323/6/4 324/6/4
f 324/6/4 323/6/4 325/6/4
f 326/1/4 327/1/4 332/1/4
f 332/1/4 327/1/4 333/1/4
f 327/8/4 328/8/4 334/8/4
f 333/1/4 327/1/4 334/1/4
f 334/8/4 328/8/4 335/8/4
f 329/4/4 330/4/4 336/4/4
f 330/1/4 331/1/4 337/1/4
f 336/4/4 330/4/4 337/4/4
f 337/1/4 331/1/4 338/1/4
f 339/1/4 340/1/4 344/1/4
f 344/1/4 340/1/4 345/1/4
f 341/4/4 342/4/4 346/4/4
f 342/1/4 343/1/4 347/1/4
f 346/4/4 342/4/4 347/4/4
f 347/1/4 343/1/4 348/1/4
f 350/1/4 351/1/4 353/1/4
f 349/1/4 350/1/4 353/1/4
f 351/8/4 352/8/4 354/8/4
f 353/1/4 351/1/4 354/1/4
f 354/8/4 352/8/4 355/8/4
f 356/3/4 357/3/4 361/3/4
f 361/3/4 357/3/4 362/3/4
f 362/3/4 363/3/4 364/3/4
f 364/3/4 363/3/4 365/3/4
f 358/4/4 359/4/4 368/4/4
f 359/8/4 360/8/4 369/8/4
f 368/4/4 359/4/4 369/4/4
f 369/8/4 360/8/4 370/8/4
f 366/3/4 367/3/4 371/3/4
f 371/3/4 367/3/4 372/3/4
f 373/3/4 374/3/4 375/3/4
f 373/3/4 375/3/4 377/3/4
f 375/3/4 376/3/4 377/3/4
f 377/3/4 376/3/4 378/3/4
f 373/3/4 377/3/4 379/3/4
f 379/3/4 377/3/4 380/3/4
f 385/4/5 382/4/5 381/4/5
f 386/4/5 382/4/5 385/4/5
f 387/4/5 384/4/5 383/4/5
f 388/4/5 384/4/5 387/4/5
f 391/4/5 390/4/5 389/4/5
f 392/4/5 390/4/5 391/4/5
f 393/4/5 390/4/5 392/4/5
f 394/4/5 390/4/5 393/4/5
f 396/4/5 393/4/5 392/4/5
f 397/4/5 393/4/5 396/4/5
f 399/4/5 396/4/5 395/4/5
f 399/4/5 398/4/5 397/4/5
f 399/4/5 397/4/5 396/4/5
f 400/4/5 398/4/5 399/4/5
f 405/1/5 402/1/5 401/1/5
f 406/1/5 402/1/5 405/1/5
f 407/1/5 404/1/5 403/1/5
f 408/1/5 404/1/5 407/1/5
f 411/1/5 410/1/5 409/1/5
f 412/1/5 410/1/5 411/1/5
f 414/1/5 411/1/5 409/1/5
f 415/1/5 410/1/5 412/1/5
f 417/1/5 411/1/5 414/1/5
f 418/1/5 415/1/5 412/1/5
f 419/3/5 414/3/5 413/3/5
f 419/1/5 418/1/5 417/1/5
f 419/1/5 417/1/5 414/1/5
f 420/1/5 415/1/5 418/1/5
f 420/1/5 418/1/5 419/1/5
f 420/3/5 416/3/5 415/3/5
f 421/3/5 419/3/5 413/3/5
f 421/3/5 420/3/5 419/3/5
f 422/3/5 416/3/5 420/3/5
f 422/3/5 420/3/5 421/3/5
f 427/3/5 424/3/5 423/3/5
f 428/3/5 424/3/5 427/3/5
f 429/3/5 426/3/5 425/3/5
f 430/3/5 426/3/5 429/3/5
f 431/2/5 428/2/5 427/2/5
f 432/2/5 428/2/5 431/2/5
f 433/2/5 430/2/5 429/2/5
f 434/2/5 430/2/5 433/2/5
f 439/6/5 436/6/5 435/6/5
f 440/6/5 436/6/5 439/6/5
f 441/6/5 436/6/5 440/6/5
f 442/6/5 436/6/5 441/6/5
f 443/6/5 438/6/5 437/6/5
f 444/6/5 438/6/5 443/6/5
f 445/6/5 438/6/5 444/6/5
f 446/6/5 438/6/5 445/6/5
f 449/4/5 448/4/5 447/4/5
f 450/4/5 448/4/5 449/4/5
f 455/4/5 452/4/5 451/4/5
f 456/4/5 452/4/5 455/4/5
f 457/4/5 454/4/5 453/4/5
f 458/4/5 454/4/5 457/4/5
f 461/3/5 460/3/5 459/3/5
f 462/3/5 460/3/5 461/3/5
f 465/3/5 464/3/5 463/3/5
f 466/3/5 464/3/5 465/3/5
f 469/3/5 468/3/5 467/3/5
f 470/3/5 468/3/5 469/3/5
f 471/4/6 472/4/6 475/4/6
f 475/4/6 472/4/6 476/4/6
f 473/4/6 474/4/6 477/4/6
f 477/4/6 474/4/6 478/4/6
f 479/8/6 480/8/6 484/8/6
f 480/7/6 481/7/6 485/7/6
f 484/8/6 480/8/6 485/8/6
f 481/8/6 482/8/6 486/8/6
f 485/7/6 481/7/6 486/7/6
f 486/8/6 482/8/6 487/8/6
f 484/8/6 485/8/6 489/8/6
f 483/8/6 484/8/6 489/8/6
f 489/8/6 485/8/6 490/8/6
f 490/8/6 485/8/6 491/8/6
f 487/8/6 488/8/6 492/8/6
f 486/8/6 487/8/6 492/8/6
f 492/8/6 488/8/6 493/8/6
f 493/8/6 488/8/6 494/8/6
f 490/8/6 491/8/6 495/8/6
f 492/8/6 493/8/6 495/8/6
f 491/8/6 492/8/6 495/8/6
f 495/8/6 493/8/6 496/8/6
f 497/4/6 498/4/6 499/4/6
f 499/4/6 498/4/6 500/4/6
f 501/4/6 502/4/6 503/4/6
f 503/4/6 502/4/6 504/4/6
f 504/4/6 502/4/6 505/4/6
f 506/3/6 507/3/6 510/3/6
f 510/3/6 507/3/6 511/3/6
f 508/3/6 509/3/6 512/3/6
f 512/3/6 509/3/6 513/3/6
f 513/3/6 514/3/6 518/3/6
f 515/3/6 516/3/6 519/3/6
f 519/3/6 516/3/6 520/3/6
f 517/3/6 518/3/6 521/3/6
f 518/3/6 514/3/6 522/3/6
f 521/3/6 518/3/6 522/3/6
f 523/3/6 524/3/6 526/3/6
f 526/3/6 524/3/6 527/3/6
f 527/3/6 524/3/6 528/3/6
f 525/3/6 526/3/6 530/3/6
f 530/3/6 526/3/6 531/3/6
f 528/3/6 529/3/6 532/3/6
f 527/3/6 528/3/6 532/3/6
f 532/3/6 529/3/6 533/3/6
f 533/3/6 529/3/6 534/3/6
f 531/3/6 532/3/6 535/3/6
f 532/3/6 533/3/6 535/3/6
f 535/3/6 533/3/6 536/3/6
f 537/3/6 538/3/6 539/3/6
f 539/3/6 538/3/6 540/3/6
