# MagicaVoxel @ Ephtracy

# group
o 

# material
mtllib Character-22.mtl
usemtl palette

# normals
vn -1 0 0
vn 1 0 0
vn 0 0 1
vn 0 0 -1
vn 0 -1 0
vn 0 1 0

# texcoords
vt 0.439453 0.5
vt 0.505859 0.5
vt 0.513672 0.5
vt 0.517578 0.5
vt 0.521484 0.5
vt 0.716797 0.5
vt 0.748047 0.5
vt 0.900391 0.5
vt 0.931641 0.5
vt 0.974609 0.5
vt 0.982422 0.5
vt 0.986328 0.5
vt 0.994141 0.5

# verts
v 3.8 0.6 -1.2
v 3.8 0.6 -1.4
v 3.8 0.8 -1.2
v 3.8 0.8 -1.4
v 3.8 0.8 -1.7
v 3.8 0.9 -1.4
v 3.8 0.9 -1.7
v 3.8 1.1 -1.2
v 3.8 1.1 -1.4
v 3.8 1.2 -1.2
v 3.8 1.2 -1.4
v 3.8 1.3 -1.2
v 3.8 1.3 -1.4
v 3.8 1.4 -1.2
v 3.8 1.4 -1.4
v 3.8 1.7 -1.1
v 3.8 1.7 -1.4
v 3.8 2 -1.1
v 3.8 2 -1.4
v 3.9 0.7 -1.5
v 3.9 0.7 -1.8
v 3.9 0.8 -1.5
v 3.9 0.8 -1.7
v 3.9 0.9 -1.5
v 3.9 0.9 -1.7
v 3.9 1.4 -1.5
v 3.9 1.4 -1.7
v 3.9 1.5 -0.9
v 3.9 1.5 -1.5
v 3.9 1.5 -1.6
v 3.9 1.6 -1.5
v 3.9 1.6 -1.6
v 3.9 1.6 -1.7
v 3.9 1.6 -1.8
v 3.9 1.7 -0.9
v 3.9 1.7 -1
v 3.9 1.7 -1.1
v 3.9 1.7 -1.4
v 3.9 1.7 -1.5
v 3.9 1.7 -1.6
v 3.9 1.7 -1.7
v 3.9 1.9 -0.9
v 3.9 1.9 -1
v 3.9 2 -0.9
v 3.9 2 -1
v 3.9 2 -1.1
v 3.9 2 -1.4
v 3.9 2.1 -0.9
v 3.9 2.1 -1
v 3.9 2.2 -1.7
v 3.9 2.2 -1.8
v 3.9 2.3 -0.9
v 3.9 2.3 -1
v 3.9 2.3 -1.4
v 3.9 2.3 -1.6
v 3.9 2.4 -1
v 3.9 2.4 -1.4
v 4 0 -1.1
v 4 0 -1.3
v 4 0 -1.4
v 4 0.1 -1.1
v 4 0.1 -1.2
v 4 0.1 -1.3
v 4 0.1 -1.4
v 4 0.3 -1.2
v 4 0.3 -1.3
v 4 0.5 -1.2
v 4 0.5 -1.3
v 4 0.6 -1.2
v 4 0.6 -1.4
v 4 0.7 -1.1
v 4 0.7 -1.2
v 4 0.7 -1.4
v 4 0.7 -1.5
v 4 0.8 -1.1
v 4 0.8 -1.2
v 4 0.8 -1.4
v 4 0.8 -1.5
v 4 0.9 -1.1
v 4 0.9 -1.2
v 4 0.9 -1.4
v 4 0.9 -1.5
v 4 0.9 -1.8
v 4 0.9 -1.9
v 4 1 -1.8
v 4 1 -1.9
v 4 1.1 -1.1
v 4 1.1 -1.2
v 4 1.1 -1.4
v 4 1.1 -1.5
v 4 1.1 -1.8
v 4 1.1 -1.9
v 4 1.2 -1.1
v 4 1.2 -1.2
v 4 1.2 -1.4
v 4 1.2 -1.5
v 4 1.3 -1.2
v 4 1.3 -1.4
v 4 1.3 -1.5
v 4 1.4 -1.1
v 4 1.4 -1.2
v 4 1.4 -1.4
v 4 1.4 -1.5
v 4 1.4 -1.8
v 4 1.4 -1.9
v 4 1.5 -1.1
v 4 1.5 -1.5
v 4 2.3 -1.4
v 4 2.3 -1.5
v 4 2.4 -1.4
v 4 2.4 -1.5
v 4.1 0.9 -1
v 4.1 0.9 -1.1
v 4.1 1.1 -1
v 4.1 1.1 -1.1
v 4.1 1.2 -1
v 4.1 1.2 -1.1
v 4.1 1.3 -1
v 4.1 1.3 -1.1
v 4.4 0 -1.1
v 4.4 0 -1.3
v 4.4 0 -1.4
v 4.4 0.1 -1.1
v 4.4 0.1 -1.2
v 4.4 0.1 -1.3
v 4.4 0.1 -1.4
v 4.4 0.3 -1.2
v 4.4 0.3 -1.3
v 4.4 0.5 -1.2
v 4.4 0.5 -1.3
v 4.4 0.7 -1.2
v 4.4 0.7 -1.4
v 4 1.7 -1.7
v 4 1.7 -1.8
v 4 2.2 -1.7
v 4 2.2 -1.8
v 4.1 1.6 -1.6
v 4.1 1.6 -1.8
v 4.1 1.7 -1.6
v 4.1 1.7 -1.8
v 4.2 0 -1.1
v 4.2 0 -1.3
v 4.2 0 -1.4
v 4.2 0.1 -1.1
v 4.2 0.1 -1.2
v 4.2 0.1 -1.3
v 4.2 0.1 -1.4
v 4.2 0.3 -1.2
v 4.2 0.3 -1.3
v 4.2 0.5 -1.2
v 4.2 0.5 -1.3
v 4.2 0.7 -1.2
v 4.2 0.7 -1.4
v 4.5 0.9 -1
v 4.5 0.9 -1.1
v 4.5 1 -1
v 4.5 1 -1.1
v 4.5 1.1 -1.1
v 4.5 1.2 -1
v 4.5 1.2 -1.1
v 4.5 1.3 -1
v 4.5 1.3 -1.1
v 4.6 0 -1.1
v 4.6 0 -1.3
v 4.6 0 -1.4
v 4.6 0.1 -1.1
v 4.6 0.1 -1.2
v 4.6 0.1 -1.3
v 4.6 0.1 -1.4
v 4.6 0.3 -1.2
v 4.6 0.3 -1.3
v 4.6 0.5 -1.2
v 4.6 0.5 -1.3
v 4.6 0.6 -1.2
v 4.6 0.6 -1.4
v 4.6 0.7 -1.1
v 4.6 0.7 -1.2
v 4.6 0.7 -1.4
v 4.6 0.7 -1.5
v 4.6 0.8 -1.1
v 4.6 0.8 -1.2
v 4.6 0.8 -1.4
v 4.6 0.8 -1.5
v 4.6 0.9 -1.1
v 4.6 0.9 -1.2
v 4.6 0.9 -1.4
v 4.6 0.9 -1.5
v 4.6 0.9 -1.8
v 4.6 0.9 -1.9
v 4.6 1.1 -1.1
v 4.6 1.1 -1.2
v 4.6 1.1 -1.4
v 4.6 1.1 -1.5
v 4.6 1.2 -1.1
v 4.6 1.2 -1.2
v 4.6 1.2 -1.4
v 4.6 1.2 -1.5
v 4.6 1.3 -1.2
v 4.6 1.3 -1.4
v 4.6 1.3 -1.5
v 4.6 1.4 -1.1
v 4.6 1.4 -1.2
v 4.6 1.4 -1.4
v 4.6 1.4 -1.5
v 4.6 1.4 -1.8
v 4.6 1.4 -1.9
v 4.6 1.5 -1.1
v 4.6 1.5 -1.5
v 4.6 2.3 -1.4
v 4.6 2.3 -1.5
v 4.6 2.4 -1.4
v 4.6 2.4 -1.5
v 4.7 0.7 -1.5
v 4.7 0.7 -1.8
v 4.7 1.5 -0.9
v 4.7 1.5 -1.5
v 4.7 1.6 -1.5
v 4.7 1.6 -1.8
v 4.7 1.7 -0.9
v 4.7 1.7 -1
v 4.7 1.7 -1.1
v 4.7 1.7 -1.4
v 4.7 1.7 -1.5
v 4.7 1.7 -1.6
v 4.7 1.8 -0.9
v 4.7 1.8 -1
v 4.7 2 -1.1
v 4.7 2 -1.4
v 4.7 2.1 -0.9
v 4.7 2.1 -1
v 4.7 2.3 -0.9
v 4.7 2.3 -1
v 4.7 2.3 -1.4
v 4.7 2.3 -1.6
v 4.7 2.4 -1
v 4.7 2.4 -1.4
v 4.8 0.6 -1.2
v 4.8 0.6 -1.4
v 4.8 0.8 -1.2
v 4.8 0.8 -1.4
v 4.8 1.1 -1.2
v 4.8 1.1 -1.4
v 4.8 1.2 -1.2
v 4.8 1.2 -1.4
v 4.8 1.3 -1.2
v 4.8 1.3 -1.4
v 4.8 1.4 -1.2
v 4.8 1.4 -1.4
v 4.8 1.7 -1.1
v 4.8 1.7 -1.4
v 4.8 2 -1.1
v 4.8 2 -1.4
v 3.9 1.5 -0.9
v 3.9 1.7 -0.9
v 3.9 1.9 -0.9
v 3.9 2 -0.9
v 3.9 2.1 -0.9
v 3.9 2.3 -0.9
v 4 1.6 -0.9
v 4 1.7 -0.9
v 4 1.8 -0.9
v 4 1.9 -0.9
v 4 2.1 -0.9
v 4 2.2 -0.9
v 4.1 1.5 -0.9
v 4.1 1.6 -0.9
v 4.1 1.7 -0.9
v 4.1 1.8 -0.9
v 4.1 1.9 -0.9
v 4.1 2 -0.9
v 4.1 2.1 -0.9
v 4.2 1.8 -0.9
v 4.2 1.9 -0.9
v 4.2 2 -0.9
v 4.2 2.1 -0.9
v 4.4 1.7 -0.9
v 4.4 1.8 -0.9
v 4.5 1.5 -0.9
v 4.5 1.6 -0.9
v 4.5 1.7 -0.9
v 4.5 1.8 -0.9
v 4.6 1.6 -0.9
v 4.6 1.7 -0.9
v 4.6 1.8 -0.9
v 4.6 2.1 -0.9
v 4.6 2.2 -0.9
v 4.7 1.5 -0.9
v 4.7 1.7 -0.9
v 4.7 1.8 -0.9
v 4.7 2.1 -0.9
v 4.7 2.3 -0.9
v 3.9 2.3 -1
v 3.9 2.4 -1
v 4.1 0.9 -1
v 4.1 1.1 -1
v 4.1 1.2 -1
v 4.1 1.3 -1
v 4.2 1 -1
v 4.2 1.1 -1
v 4.2 1.2 -1
v 4.3 0.9 -1
v 4.3 1 -1
v 4.4 0.9 -1
v 4.4 1 -1
v 4.5 0.9 -1
v 4.5 1 -1
v 4.5 1.2 -1
v 4.5 1.3 -1
v 4.7 2.3 -1
v 4.7 2.4 -1
v 3.8 1.7 -1.1
v 3.8 2 -1.1
v 3.9 1.7 -1.1
v 3.9 2 -1.1
v 4 0 -1.1
v 4 0.1 -1.1
v 4 0.7 -1.1
v 4 0.8 -1.1
v 4 0.9 -1.1
v 4 1.1 -1.1
v 4 1.2 -1.1
v 4 1.4 -1.1
v 4 1.5 -1.1
v 4.1 0.9 -1.1
v 4.1 1.1 -1.1
v 4.1 1.2 -1.1
v 4.1 1.3 -1.1
v 4.2 0 -1.1
v 4.2 0.1 -1.1
v 4.3 0.9 -1.1
v 4.4 0 -1.1
v 4.4 0.1 -1.1
v 4.4 0.9 -1.1
v 4.5 0.9 -1.1
v 4.5 1 -1.1
v 4.5 1.1 -1.1
v 4.5 1.2 -1.1
v 4.5 1.3 -1.1
v 4.6 0 -1.1
v 4.6 0.1 -1.1
v 4.6 0.7 -1.1
v 4.6 0.8 -1.1
v 4.6 0.9 -1.1
v 4.6 1.1 -1.1
v 4.6 1.2 -1.1
v 4.6 1.4 -1.1
v 4.6 1.5 -1.1
v 4.7 1.7 -1.1
v 4.7 2 -1.1
v 4.8 1.7 -1.1
v 4.8 2 -1.1
v 3.8 0.6 -1.2
v 3.8 0.8 -1.2
v 3.8 1.1 -1.2
v 3.8 1.2 -1.2
v 3.8 1.3 -1.2
v 3.8 1.4 -1.2
v 3.9 1.1 -1.2
v 3.9 1.2 -1.2
v 4 0.1 -1.2
v 4 0.3 -1.2
v 4 0.5 -1.2
v 4 0.6 -1.2
v 4 0.7 -1.2
v 4 0.8 -1.2
v 4 0.9 -1.2
v 4 1.1 -1.2
v 4 1.2 -1.2
v 4 1.3 -1.2
v 4 1.4 -1.2
v 4.2 0.1 -1.2
v 4.2 0.3 -1.2
v 4.2 0.5 -1.2
v 4.2 0.7 -1.2
v 4.4 0.1 -1.2
v 4.4 0.3 -1.2
v 4.4 0.5 -1.2
v 4.4 0.7 -1.2
v 4.6 0.1 -1.2
v 4.6 0.3 -1.2
v 4.6 0.5 -1.2
v 4.6 0.6 -1.2
v 4.6 0.7 -1.2
v 4.6 0.8 -1.2
v 4.6 0.9 -1.2
v 4.6 1.1 -1.2
v 4.6 1.2 -1.2
v 4.6 1.3 -1.2
v 4.6 1.4 -1.2
v 4.7 1.1 -1.2
v 4.7 1.2 -1.2
v 4.8 0.6 -1.2
v 4.8 0.8 -1.2
v 4.8 1.1 -1.2
v 4.8 1.2 -1.2
v 4.8 1.3 -1.2
v 4.8 1.4 -1.2
v 3.9 0.7 -1.5
v 3.9 0.8 -1.5
v 3.9 0.9 -1.5
v 3.9 1.4 -1.5
v 3.9 1.5 -1.5
v 4 0.7 -1.5
v 4 0.8 -1.5
v 4 0.9 -1.5
v 4 1.1 -1.5
v 4 1.2 -1.5
v 4 1.3 -1.5
v 4 1.4 -1.5
v 4 1.5 -1.5
v 4.6 0.7 -1.5
v 4.6 0.8 -1.5
v 4.6 0.9 -1.5
v 4.6 1.1 -1.5
v 4.6 1.2 -1.5
v 4.6 1.3 -1.5
v 4.6 1.4 -1.5
v 4.6 1.5 -1.5
v 4.7 0.7 -1.5
v 4.7 1.5 -1.5
v 3.9 1.6 -1.6
v 3.9 1.7 -1.6
v 4.1 1.6 -1.6
v 4.1 1.7 -1.6
v 3.9 1.7 -1.7
v 3.9 2.2 -1.7
v 4 1.7 -1.7
v 4 2.2 -1.7
v 3.8 0.6 -1.4
v 3.8 0.8 -1.4
v 3.8 0.9 -1.4
v 3.8 1.1 -1.4
v 3.8 1.2 -1.4
v 3.8 1.3 -1.4
v 3.8 1.4 -1.4
v 3.8 1.7 -1.4
v 3.8 2 -1.4
v 3.9 1.7 -1.4
v 3.9 2 -1.4
v 3.9 2.3 -1.4
v 3.9 2.4 -1.4
v 4 0 -1.4
v 4 0.1 -1.4
v 4 0.6 -1.4
v 4 0.7 -1.4
v 4 0.8 -1.4
v 4 0.9 -1.4
v 4 1.1 -1.4
v 4 1.2 -1.4
v 4 1.3 -1.4
v 4 1.4 -1.4
v 4 2.3 -1.4
v 4 2.4 -1.4
v 4.2 0 -1.4
v 4.2 0.1 -1.4
v 4.2 0.7 -1.4
v 4.4 0 -1.4
v 4.4 0.1 -1.4
v 4.4 0.7 -1.4
v 4.6 0 -1.4
v 4.6 0.1 -1.4
v 4.6 0.6 -1.4
v 4.6 0.7 -1.4
v 4.6 0.8 -1.4
v 4.6 0.9 -1.4
v 4.6 1.1 -1.4
v 4.6 1.2 -1.4
v 4.6 1.3 -1.4
v 4.6 1.4 -1.4
v 4.6 2.3 -1.4
v 4.6 2.4 -1.4
v 4.7 0.8 -1.4
v 4.7 0.9 -1.4
v 4.7 1.7 -1.4
v 4.7 2 -1.4
v 4.7 2.3 -1.4
v 4.7 2.4 -1.4
v 4.8 0.6 -1.4
v 4.8 0.8 -1.4
v 4.8 1.1 -1.4
v 4.8 1.2 -1.4
v 4.8 1.3 -1.4
v 4.8 1.4 -1.4
v 4.8 1.7 -1.4
v 4.8 2 -1.4
v 3.9 1.6 -1.5
v 3.9 1.7 -1.5
v 4 2.3 -1.5
v 4 2.4 -1.5
v 4.6 2.3 -1.5
v 4.6 2.4 -1.5
v 4.7 1.6 -1.5
v 4.7 1.7 -1.5
v 3.9 1.7 -1.6
v 3.9 2.3 -1.6
v 4.1 1.7 -1.6
v 4.7 1.7 -1.6
v 4.7 2.3 -1.6
v 3.8 0.8 -1.7
v 3.8 0.9 -1.7
v 3.9 0.8 -1.7
v 3.9 0.9 -1.7
v 3.9 0.7 -1.8
v 3.9 1.6 -1.8
v 3.9 2.2 -1.8
v 4 0.9 -1.8
v 4 1 -1.8
v 4 1.1 -1.8
v 4 1.4 -1.8
v 4 1.7 -1.8
v 4 2.2 -1.8
v 4.1 1.6 -1.8
v 4.1 1.7 -1.8
v 4.3 1.4 -1.8
v 4.6 0.9 -1.8
v 4.6 1.4 -1.8
v 4.7 0.7 -1.8
v 4.7 1.6 -1.8
v 4 0.9 -1.9
v 4 1 -1.9
v 4 1.1 -1.9
v 4 1.4 -1.9
v 4.1 1 -1.9
v 4.1 1.1 -1.9
v 4.3 1 -1.9
v 4.3 1.1 -1.9
v 4.3 1.4 -1.9
v 4.6 0.9 -1.9
v 4.6 1.4 -1.9
v 4 0 -1.1
v 4.2 0 -1.1
v 4.4 0 -1.1
v 4.6 0 -1.1
v 4 0 -1.3
v 4.2 0 -1.3
v 4.4 0 -1.3
v 4.6 0 -1.3
v 4 0 -1.4
v 4.2 0 -1.4
v 4.4 0 -1.4
v 4.6 0 -1.4
v 3.8 0.6 -1.2
v 4 0.6 -1.2
v 4.6 0.6 -1.2
v 4.8 0.6 -1.2
v 3.8 0.6 -1.4
v 4 0.6 -1.4
v 4.6 0.6 -1.4
v 4.8 0.6 -1.4
v 4 0.7 -1.1
v 4.6 0.7 -1.1
v 4 0.7 -1.2
v 4.2 0.7 -1.2
v 4.4 0.7 -1.2
v 4.6 0.7 -1.2
v 4 0.7 -1.4
v 4.2 0.7 -1.4
v 4.4 0.7 -1.4
v 4.6 0.7 -1.4
v 3.9 0.7 -1.5
v 4 0.7 -1.5
v 4.6 0.7 -1.5
v 4.7 0.7 -1.5
v 3.9 0.7 -1.8
v 4.7 0.7 -1.8
v 3.8 0.8 -1.4
v 4 0.8 -1.4
v 3.9 0.8 -1.5
v 4 0.8 -1.5
v 3.8 0.8 -1.7
v 3.9 0.8 -1.7
v 4.1 0.9 -1
v 4.3 0.9 -1
v 4.4 0.9 -1
v 4.5 0.9 -1
v 4.1 0.9 -1.1
v 4.3 0.9 -1.1
v 4.4 0.9 -1.1
v 4.5 0.9 -1.1
v 4 0.9 -1.8
v 4.6 0.9 -1.8
v 4 0.9 -1.9
v 4.6 0.9 -1.9
v 3.9 1.5 -0.9
v 4.1 1.5 -0.9
v 4.5 1.5 -0.9
v 4.7 1.5 -0.9
v 4.1 1.5 -1
v 4.5 1.5 -1
v 4 1.5 -1.1
v 4.6 1.5 -1.1
v 3.9 1.5 -1.5
v 4 1.5 -1.5
v 4.6 1.5 -1.5
v 4.7 1.5 -1.5
v 3.8 1.7 -1.1
v 3.9 1.7 -1.1
v 4.7 1.7 -1.1
v 4.8 1.7 -1.1
v 3.8 1.7 -1.4
v 3.9 1.7 -1.4
v 4.7 1.7 -1.4
v 4.8 1.7 -1.4
v 3.9 1.7 -1.5
v 4.7 1.7 -1.5
v 3.9 1.7 -1.6
v 4.1 1.7 -1.6
v 4.7 1.7 -1.6
v 4 0.1 -1.1
v 4.2 0.1 -1.1
v 4.4 0.1 -1.1
v 4.6 0.1 -1.1
v 4 0.1 -1.2
v 4.2 0.1 -1.2
v 4.4 0.1 -1.2
v 4.6 0.1 -1.2
v 3.8 0.9 -1.4
v 4 0.9 -1.4
v 3.9 0.9 -1.5
v 4 0.9 -1.5
v 3.8 0.9 -1.7
v 3.9 0.9 -1.7
v 4.1 1.3 -1
v 4.5 1.3 -1
v 4.1 1.3 -1.1
v 4.5 1.3 -1.1
v 3.8 1.4 -1.2
v 4 1.4 -1.2
v 4.6 1.4 -1.2
v 4.8 1.4 -1.2
v 3.8 1.4 -1.4
v 4 1.4 -1.4
v 4.6 1.4 -1.4
v 4.8 1.4 -1.4
v 4 1.4 -1.8
v 4.3 1.4 -1.8
v 4.6 1.4 -1.8
v 4 1.4 -1.9
v 4.3 1.4 -1.9
v 4.6 1.4 -1.9
v 3.9 1.6 -1.5
v 4.7 1.6 -1.5
v 3.9 1.6 -1.6
v 4.1 1.6 -1.6
v 4.1 1.6 -1.8
v 4.7 1.6 -1.8
v 3.9 1.7 -1.6
v 4.1 1.7 -1.6
v 3.9 1.7 -1.7
v 4 1.7 -1.7
v 4 1.7 -1.8
v 4.1 1.7 -1.8
v 3.8 2 -1.1
v 3.9 2 -1.1
v 4.7 2 -1.1
v 4.8 2 -1.1
v 3.8 2 -1.4
v 3.9 2 -1.4
v 4.7 2 -1.4
v 4.8 2 -1.4
v 3.9 2.2 -1.7
v 4 2.2 -1.7
v 3.9 2.2 -1.8
v 4 2.2 -1.8
v 3.9 2.3 -0.9
v 4.7 2.3 -0.9
v 3.9 2.3 -1
v 4.7 2.3 -1
v 3.9 2.3 -1.4
v 4 2.3 -1.4
v 4.6 2.3 -1.4
v 4.7 2.3 -1.4
v 4 2.3 -1.5
v 4.6 2.3 -1.5
v 3.9 2.3 -1.6
v 4.7 2.3 -1.6
v 3.9 2.4 -1
v 4.7 2.4 -1
v 3.9 2.4 -1.4
v 4 2.4 -1.4
v 4.6 2.4 -1.4
v 4.7 2.4 -1.4
v 4 2.4 -1.5
v 4.6 2.4 -1.5

# faces
f 3/11/1 2/11/1 1/11/1
f 4/11/1 2/11/1 3/11/1
f 6/10/1 4/10/1 3/10/1
f 6/9/1 5/9/1 4/9/1
f 7/9/1 5/9/1 6/9/1
f 8/10/1 6/10/1 3/10/1
f 9/10/1 6/10/1 8/10/1
f 10/9/1 9/9/1 8/9/1
f 11/9/1 9/9/1 10/9/1
f 12/10/1 11/10/1 10/10/1
f 13/10/1 11/10/1 12/10/1
f 14/2/1 13/2/1 12/2/1
f 15/2/1 13/2/1 14/2/1
f 18/9/1 17/9/1 16/9/1
f 19/9/1 17/9/1 18/9/1
f 22/12/1 21/12/1 20/12/1
f 23/12/1 21/12/1 22/12/1
f 25/12/1 21/12/1 23/12/1
f 26/12/1 25/12/1 24/12/1
f 27/12/1 21/12/1 25/12/1
f 27/12/1 25/12/1 26/12/1
f 29/2/1 27/2/1 26/2/1
f 30/2/1 27/2/1 29/2/1
f 31/10/1 29/10/1 28/10/1
f 31/12/1 30/12/1 29/12/1
f 32/2/1 27/2/1 30/2/1
f 32/12/1 30/12/1 31/12/1
f 33/12/1 21/12/1 27/12/1
f 33/2/1 27/2/1 32/2/1
f 34/12/1 21/12/1 33/12/1
f 35/10/1 31/10/1 28/10/1
f 36/10/1 31/10/1 35/10/1
f 37/10/1 31/10/1 36/10/1
f 38/10/1 31/10/1 37/10/1
f 39/10/1 31/10/1 38/10/1
f 40/2/1 34/2/1 33/2/1
f 40/2/1 33/2/1 32/2/1
f 41/2/1 34/2/1 40/2/1
f 42/5/1 36/5/1 35/5/1
f 43/10/1 37/10/1 36/10/1
f 43/5/1 36/5/1 42/5/1
f 44/3/1 43/3/1 42/3/1
f 45/10/1 37/10/1 43/10/1
f 45/3/1 43/3/1 44/3/1
f 46/10/1 37/10/1 45/10/1
f 47/10/1 39/10/1 38/10/1
f 47/10/1 40/10/1 39/10/1
f 48/4/1 45/4/1 44/4/1
f 49/10/1 46/10/1 45/10/1
f 49/4/1 45/4/1 48/4/1
f 49/10/1 47/10/1 46/10/1
f 50/2/1 34/2/1 41/2/1
f 51/2/1 34/2/1 50/2/1
f 52/10/1 49/10/1 48/10/1
f 53/10/1 47/10/1 49/10/1
f 53/10/1 49/10/1 52/10/1
f 54/10/1 40/10/1 47/10/1
f 54/10/1 47/10/1 53/10/1
f 55/10/1 40/10/1 54/10/1
f 56/10/1 54/10/1 53/10/1
f 57/10/1 54/10/1 56/10/1
f 61/10/1 59/10/1 58/10/1
f 62/10/1 59/10/1 61/10/1
f 63/9/1 60/9/1 59/9/1
f 63/10/1 59/10/1 62/10/1
f 64/9/1 60/9/1 63/9/1
f 65/10/1 63/10/1 62/10/1
f 65/10/1 64/10/1 63/10/1
f 66/10/1 64/10/1 65/10/1
f 67/9/1 66/9/1 65/9/1
f 68/10/1 64/10/1 66/10/1
f 68/9/1 66/9/1 67/9/1
f 69/10/1 68/10/1 67/10/1
f 70/10/1 64/10/1 68/10/1
f 70/10/1 68/10/1 69/10/1
f 75/10/1 72/10/1 71/10/1
f 76/10/1 72/10/1 75/10/1
f 77/10/1 74/10/1 73/10/1
f 78/10/1 74/10/1 77/10/1
f 79/9/1 76/9/1 75/9/1
f 80/9/1 76/9/1 79/9/1
f 85/11/1 84/11/1 83/11/1
f 86/11/1 84/11/1 85/11/1
f 87/10/1 80/10/1 79/10/1
f 88/10/1 80/10/1 87/10/1
f 89/10/1 82/10/1 81/10/1
f 90/10/1 82/10/1 89/10/1
f 91/1/1 86/1/1 85/1/1
f 92/1/1 86/1/1 91/1/1
f 93/13/1 88/13/1 87/13/1
f 94/13/1 88/13/1 93/13/1
f 95/13/1 90/13/1 89/13/1
f 96/13/1 90/13/1 95/13/1
f 97/10/1 94/10/1 93/10/1
f 98/10/1 96/10/1 95/10/1
f 99/10/1 96/10/1 98/10/1
f 100/10/1 97/10/1 93/10/1
f 101/10/1 97/10/1 100/10/1
f 102/13/1 99/13/1 98/13/1
f 103/13/1 99/13/1 102/13/1
f 104/2/1 92/2/1 91/2/1
f 105/2/1 92/2/1 104/2/1
f 106/2/1 103/2/1 102/2/1
f 106/2/1 102/2/1 101/2/1
f 106/2/1 101/2/1 100/2/1
f 107/2/1 103/2/1 106/2/1
f 110/10/1 109/10/1 108/10/1
f 111/10/1 109/10/1 110/10/1
f 114/8/1 113/8/1 112/8/1
f 115/8/1 113/8/1 114/8/1
f 116/13/1 115/13/1 114/13/1
f 117/13/1 115/13/1 116/13/1
f 118/10/1 117/10/1 116/10/1
f 119/10/1 117/10/1 118/10/1
f 123/10/1 121/10/1 120/10/1
f 124/10/1 121/10/1 123/10/1
f 125/9/1 122/9/1 121/9/1
f 125/10/1 121/10/1 124/10/1
f 126/9/1 122/9/1 125/9/1
f 127/10/1 125/10/1 124/10/1
f 127/10/1 126/10/1 125/10/1
f 128/10/1 126/10/1 127/10/1
f 129/9/1 128/9/1 127/9/1
f 130/10/1 126/10/1 128/10/1
f 130/9/1 128/9/1 129/9/1
f 131/10/1 130/10/1 129/10/1
f 132/10/1 126/10/1 130/10/1
f 132/10/1 130/10/1 131/10/1
f 133/2/2 134/2/2 135/2/2
f 135/2/2 134/2/2 136/2/2
f 137/2/2 138/2/2 139/2/2
f 139/2/2 138/2/2 140/2/2
f 141/10/2 142/10/2 144/10/2
f 144/10/2 142/10/2 145/10/2
f 142/9/2 143/9/2 146/9/2
f 145/10/2 142/10/2 146/10/2
f 146/9/2 143/9/2 147/9/2
f 145/10/2 146/10/2 148/10/2
f 146/10/2 147/10/2 148/10/2
f 148/10/2 147/10/2 149/10/2
f 148/9/2 149/9/2 150/9/2
f 149/10/2 147/10/2 151/10/2
f 150/9/2 149/9/2 151/9/2
f 150/10/2 151/10/2 152/10/2
f 151/10/2 147/10/2 153/10/2
f 152/10/2 151/10/2 153/10/2
f 154/6/2 155/6/2 156/6/2
f 156/6/2 155/6/2 157/6/2
f 156/4/2 157/4/2 158/4/2
f 156/4/2 158/4/2 159/4/2
f 159/4/2 158/4/2 160/4/2
f 159/10/2 160/10/2 161/10/2
f 161/10/2 160/10/2 162/10/2
f 163/10/2 164/10/2 166/10/2
f 166/10/2 164/10/2 167/10/2
f 164/9/2 165/9/2 168/9/2
f 167/10/2 164/10/2 168/10/2
f 168/9/2 165/9/2 169/9/2
f 167/10/2 168/10/2 170/10/2
f 168/10/2 169/10/2 170/10/2
f 170/10/2 169/10/2 171/10/2
f 170/9/2 171/9/2 172/9/2
f 171/10/2 169/10/2 173/10/2
f 172/9/2 171/9/2 173/9/2
f 172/10/2 173/10/2 174/10/2
f 173/10/2 169/10/2 175/10/2
f 174/10/2 173/10/2 175/10/2
f 176/10/2 177/10/2 180/10/2
f 180/10/2 177/10/2 181/10/2
f 178/10/2 179/10/2 182/10/2
f 182/10/2 179/10/2 183/10/2
f 180/9/2 181/9/2 184/9/2
f 184/9/2 181/9/2 185/9/2
f 182/9/2 183/9/2 186/9/2
f 186/9/2 183/9/2 187/9/2
f 184/10/2 185/10/2 190/10/2
f 190/10/2 185/10/2 191/10/2
f 186/10/2 187/10/2 192/10/2
f 192/10/2 187/10/2 193/10/2
f 190/13/2 191/13/2 194/13/2
f 194/13/2 191/13/2 195/13/2
f 192/13/2 193/13/2 196/13/2
f 196/13/2 193/13/2 197/13/2
f 194/10/2 195/10/2 198/10/2
f 196/10/2 197/10/2 199/10/2
f 199/10/2 197/10/2 200/10/2
f 194/10/2 198/10/2 201/10/2
f 201/10/2 198/10/2 202/10/2
f 199/13/2 200/13/2 203/13/2
f 203/13/2 200/13/2 204/13/2
f 188/11/2 189/11/2 205/11/2
f 205/11/2 189/11/2 206/11/2
f 203/2/2 204/2/2 207/2/2
f 202/2/2 203/2/2 207/2/2
f 201/2/2 202/2/2 207/2/2
f 207/2/2 204/2/2 208/2/2
f 209/10/2 210/10/2 211/10/2
f 211/10/2 210/10/2 212/10/2
f 213/12/2 214/12/2 216/12/2
f 216/12/2 214/12/2 217/12/2
f 215/10/2 216/10/2 217/10/2
f 217/12/2 214/12/2 218/12/2
f 215/10/2 217/10/2 219/10/2
f 219/10/2 217/10/2 220/10/2
f 220/10/2 217/10/2 221/10/2
f 221/10/2 217/10/2 222/10/2
f 222/10/2 217/10/2 223/10/2
f 219/5/2 220/5/2 225/5/2
f 220/10/2 221/10/2 226/10/2
f 225/5/2 220/5/2 226/5/2
f 226/10/2 221/10/2 227/10/2
f 223/10/2 224/10/2 228/10/2
f 222/10/2 223/10/2 228/10/2
f 225/3/2 226/3/2 229/3/2
f 226/10/2 227/10/2 230/10/2
f 229/3/2 226/3/2 230/3/2
f 227/10/2 228/10/2 230/10/2
f 229/10/2 230/10/2 231/10/2
f 230/10/2 228/10/2 232/10/2
f 231/10/2 230/10/2 232/10/2
f 228/10/2 224/10/2 233/10/2
f 232/10/2 228/10/2 233/10/2
f 233/10/2 224/10/2 234/10/2
f 232/10/2 233/10/2 235/10/2
f 235/10/2 233/10/2 236/10/2
f 237/11/2 238/11/2 239/11/2
f 239/11/2 238/11/2 240/11/2
f 239/10/2 240/10/2 241/10/2
f 241/10/2 240/10/2 242/10/2
f 241/9/2 242/9/2 243/9/2
f 243/9/2 242/9/2 244/9/2
f 243/10/2 244/10/2 245/10/2
f 245/10/2 244/10/2 246/10/2
f 245/2/2 246/2/2 247/2/2
f 247/2/2 246/2/2 248/2/2
f 249/9/2 250/9/2 251/9/2
f 251/9/2 250/9/2 252/9/2
f 259/10/3 254/10/3 253/10/3
f 260/5/3 255/5/3 254/5/3
f 260/10/3 254/10/3 259/10/3
f 261/5/3 255/5/3 260/5/3
f 262/3/3 256/3/3 255/3/3
f 262/5/3 255/5/3 261/5/3
f 263/10/3 258/10/3 257/10/3
f 263/4/3 257/4/3 256/4/3
f 264/10/3 258/10/3 263/10/3
f 265/10/3 259/10/3 253/10/3
f 266/5/3 261/5/3 260/5/3
f 266/10/3 259/10/3 265/10/3
f 266/5/3 260/5/3 259/5/3
f 267/5/3 261/5/3 266/5/3
f 268/3/3 262/3/3 261/3/3
f 268/5/3 261/5/3 267/5/3
f 269/3/3 256/3/3 262/3/3
f 269/3/3 262/3/3 268/3/3
f 270/4/3 263/4/3 256/4/3
f 270/3/3 256/3/3 269/3/3
f 271/9/3 264/9/3 263/9/3
f 271/4/3 263/4/3 270/4/3
f 272/4/3 268/4/3 267/4/3
f 272/5/3 269/5/3 268/5/3
f 273/4/3 270/4/3 269/4/3
f 273/5/3 269/5/3 272/5/3
f 274/3/3 271/3/3 270/3/3
f 274/4/3 270/4/3 273/4/3
f 275/9/3 264/9/3 271/9/3
f 275/3/3 271/3/3 274/3/3
f 276/4/3 274/4/3 273/4/3
f 276/5/3 267/5/3 266/5/3
f 276/4/3 275/4/3 274/4/3
f 276/5/3 266/5/3 265/5/3
f 276/4/3 273/4/3 272/4/3
f 276/4/3 272/4/3 267/4/3
f 277/4/3 275/4/3 276/4/3
f 278/5/3 276/5/3 265/5/3
f 279/5/3 276/5/3 278/5/3
f 280/3/3 277/3/3 276/3/3
f 280/5/3 276/5/3 279/5/3
f 281/4/3 275/4/3 277/4/3
f 281/3/3 277/3/3 280/3/3
f 282/5/3 280/5/3 279/5/3
f 282/10/3 279/10/3 278/10/3
f 282/5/3 281/5/3 280/5/3
f 283/5/3 281/5/3 282/5/3
f 284/4/3 275/4/3 281/4/3
f 284/5/3 281/5/3 283/5/3
f 285/9/3 264/9/3 275/9/3
f 285/4/3 275/4/3 284/4/3
f 286/10/3 258/10/3 264/10/3
f 286/9/3 264/9/3 285/9/3
f 287/10/3 283/10/3 282/10/3
f 287/10/3 282/10/3 278/10/3
f 288/5/3 284/5/3 283/5/3
f 288/10/3 283/10/3 287/10/3
f 289/3/3 285/3/3 284/3/3
f 289/5/3 284/5/3 288/5/3
f 290/10/3 286/10/3 285/10/3
f 290/3/3 285/3/3 289/3/3
f 291/10/3 258/10/3 286/10/3
f 291/10/3 286/10/3 290/10/3
f 298/8/3 295/8/3 294/8/3
f 299/13/3 296/13/3 295/13/3
f 299/8/3 295/8/3 298/8/3
f 300/10/3 297/10/3 296/10/3
f 300/13/3 296/13/3 299/13/3
f 301/8/3 298/8/3 294/8/3
f 302/4/3 299/4/3 298/4/3
f 302/8/3 298/8/3 301/8/3
f 302/4/3 300/4/3 299/4/3
f 303/9/3 302/9/3 301/9/3
f 304/4/3 300/4/3 302/4/3
f 304/9/3 302/9/3 303/9/3
f 305/6/3 304/6/3 303/6/3
f 306/4/3 300/4/3 304/4/3
f 306/6/3 304/6/3 305/6/3
f 307/10/3 297/10/3 300/10/3
f 307/4/3 300/4/3 306/4/3
f 308/10/3 297/10/3 307/10/3
f 309/10/3 293/10/3 292/10/3
f 310/10/3 293/10/3 309/10/3
f 313/9/3 312/9/3 311/9/3
f 314/9/3 312/9/3 313/9/3
f 324/9/3 319/9/3 318/9/3
f 324/10/3 320/10/3 319/10/3
f 325/13/3 321/13/3 320/13/3
f 325/10/3 320/10/3 324/10/3
f 326/10/3 322/10/3 321/10/3
f 326/13/3 321/13/3 325/13/3
f 327/10/3 322/10/3 326/10/3
f 328/10/3 316/10/3 315/10/3
f 329/10/3 316/10/3 328/10/3
f 330/9/3 324/9/3 318/9/3
f 333/9/3 330/9/3 318/9/3
f 334/9/3 333/9/3 318/9/3
f 338/10/3 322/10/3 327/10/3
f 339/10/3 332/10/3 331/10/3
f 340/10/3 332/10/3 339/10/3
f 341/10/3 318/10/3 317/10/3
f 342/9/3 334/9/3 318/9/3
f 342/10/3 318/10/3 341/10/3
f 343/10/3 335/10/3 334/10/3
f 343/9/3 334/9/3 342/9/3
f 343/10/3 336/10/3 335/10/3
f 344/13/3 337/13/3 336/13/3
f 344/10/3 336/10/3 343/10/3
f 345/10/3 338/10/3 337/10/3
f 345/13/3 337/13/3 344/13/3
f 346/2/3 323/2/3 322/2/3
f 346/10/3 338/10/3 345/10/3
f 346/10/3 322/10/3 338/10/3
f 347/2/3 323/2/3 346/2/3
f 350/9/3 349/9/3 348/9/3
f 351/9/3 349/9/3 350/9/3
f 358/10/3 354/10/3 353/10/3
f 358/9/3 355/9/3 354/9/3
f 359/10/3 356/10/3 355/10/3
f 359/9/3 355/9/3 358/9/3
f 363/11/3 353/11/3 352/11/3
f 364/11/3 353/11/3 363/11/3
f 365/10/3 358/10/3 353/10/3
f 365/11/3 353/11/3 364/11/3
f 365/10/3 359/10/3 358/10/3
f 366/10/3 359/10/3 365/10/3
f 367/10/3 359/10/3 366/10/3
f 368/10/3 356/10/3 359/10/3
f 368/10/3 359/10/3 367/10/3
f 369/2/3 357/2/3 356/2/3
f 369/10/3 356/10/3 368/10/3
f 370/2/3 357/2/3 369/2/3
f 371/10/3 361/10/3 360/10/3
f 372/9/3 362/9/3 361/9/3
f 372/10/3 361/10/3 371/10/3
f 373/10/3 364/10/3 363/10/3
f 373/9/3 362/9/3 372/9/3
f 373/10/3 363/10/3 362/10/3
f 374/10/3 364/10/3 373/10/3
f 379/10/3 376/10/3 375/10/3
f 380/9/3 377/9/3 376/9/3
f 380/10/3 376/10/3 379/10/3
f 381/10/3 378/10/3 377/10/3
f 381/9/3 377/9/3 380/9/3
f 382/10/3 378/10/3 381/10/3
f 383/10/3 378/10/3 382/10/3
f 390/10/3 388/10/3 387/10/3
f 390/10/3 387/10/3 386/10/3
f 390/10/3 386/10/3 385/10/3
f 390/10/3 385/10/3 384/10/3
f 391/10/3 388/10/3 390/10/3
f 392/11/3 383/11/3 382/11/3
f 392/11/3 384/11/3 383/11/3
f 393/10/3 390/10/3 384/10/3
f 393/11/3 384/11/3 392/11/3
f 394/9/3 391/9/3 390/9/3
f 394/10/3 390/10/3 393/10/3
f 395/10/3 388/10/3 391/10/3
f 395/9/3 391/9/3 394/9/3
f 396/2/3 389/2/3 388/2/3
f 396/10/3 388/10/3 395/10/3
f 397/2/3 389/2/3 396/2/3
f 403/12/3 399/12/3 398/12/3
f 404/12/3 399/12/3 403/12/3
f 405/12/3 401/12/3 400/12/3
f 406/12/3 401/12/3 405/12/3
f 407/12/3 401/12/3 406/12/3
f 408/12/3 401/12/3 407/12/3
f 409/2/3 402/2/3 401/2/3
f 409/12/3 401/12/3 408/12/3
f 410/2/3 402/2/3 409/2/3
f 419/12/3 412/12/3 411/12/3
f 419/12/3 418/12/3 417/12/3
f 419/12/3 417/12/3 416/12/3
f 419/12/3 416/12/3 415/12/3
f 419/12/3 415/12/3 414/12/3
f 419/12/3 414/12/3 413/12/3
f 419/12/3 413/12/3 412/12/3
f 420/12/3 418/12/3 419/12/3
f 423/2/3 422/2/3 421/2/3
f 424/2/3 422/2/3 423/2/3
f 427/2/3 426/2/3 425/2/3
f 428/2/3 426/2/3 427/2/3
f 436/9/4 437/9/4 438/9/4
f 438/9/4 437/9/4 439/9/4
f 429/11/4 430/11/4 444/11/4
f 444/11/4 430/11/4 445/11/4
f 445/11/4 430/11/4 446/11/4
f 431/10/4 432/10/4 447/10/4
f 432/9/4 433/9/4 448/9/4
f 447/10/4 432/10/4 448/10/4
f 433/10/4 434/10/4 449/10/4
f 448/9/4 433/9/4 449/9/4
f 434/2/4 435/2/4 450/2/4
f 449/10/4 434/10/4 450/10/4
f 450/2/4 435/2/4 451/2/4
f 440/10/4 441/10/4 452/10/4
f 452/10/4 441/10/4 453/10/4
f 442/9/4 443/9/4 454/9/4
f 444/10/4 445/10/4 455/10/4
f 454/9/4 443/9/4 455/9/4
f 443/10/4 444/10/4 455/10/4
f 455/10/4 445/10/4 456/10/4
f 457/9/4 458/9/4 460/9/4
f 458/10/4 459/10/4 461/10/4
f 460/9/4 458/9/4 461/9/4
f 461/10/4 459/10/4 462/10/4
f 462/10/4 459/10/4 463/10/4
f 462/11/4 463/11/4 472/11/4
f 463/11/4 464/11/4 472/11/4
f 464/9/4 465/9/4 472/9/4
f 465/10/4 466/10/4 473/10/4
f 472/9/4 465/9/4 473/9/4
f 470/10/4 471/10/4 476/10/4
f 476/10/4 471/10/4 477/10/4
f 462/11/4 472/11/4 478/11/4
f 472/10/4 473/10/4 479/10/4
f 478/11/4 472/11/4 479/11/4
f 466/9/4 467/9/4 480/9/4
f 479/10/4 473/10/4 480/10/4
f 473/10/4 466/10/4 480/10/4
f 467/10/4 468/10/4 481/10/4
f 480/9/4 467/9/4 481/9/4
f 468/2/4 469/2/4 482/2/4
f 481/10/4 468/10/4 482/10/4
f 482/2/4 469/2/4 483/2/4
f 474/9/4 475/9/4 484/9/4
f 484/9/4 475/9/4 485/9/4
f 488/10/4 489/10/4 490/10/4
f 490/10/4 489/10/4 491/10/4
f 486/10/4 487/10/4 492/10/4
f 492/10/4 487/10/4 493/10/4
f 494/10/4 495/10/4 496/10/4
f 496/10/4 495/10/4 497/10/4
f 497/10/4 495/10/4 498/10/4
f 499/9/4 500/9/4 501/9/4
f 501/9/4 500/9/4 502/9/4
f 503/12/4 504/12/4 506/12/4
f 506/12/4 504/12/4 507/12/4
f 507/12/4 504/12/4 508/12/4
f 508/12/4 504/12/4 509/12/4
f 504/2/4 505/2/4 510/2/4
f 510/2/4 505/2/4 511/2/4
f 509/12/4 504/12/4 512/12/4
f 504/2/4 510/2/4 512/2/4
f 512/2/4 510/2/4 513/2/4
f 509/12/4 512/12/4 514/12/4
f 503/12/4 506/12/4 515/12/4
f 514/12/4 512/12/4 516/12/4
f 503/12/4 515/12/4 517/12/4
f 515/12/4 516/12/4 517/12/4
f 516/12/4 512/12/4 518/12/4
f 517/12/4 516/12/4 518/12/4
f 519/11/4 520/11/4 523/11/4
f 520/1/4 521/1/4 523/1/4
f 521/2/4 522/2/4 524/2/4
f 523/1/4 521/1/4 524/1/4
f 519/11/4 523/11/4 525/11/4
f 523/7/4 524/7/4 525/7/4
f 524/2/4 522/2/4 526/2/4
f 525/7/4 524/7/4 526/7/4
f 526/2/4 522/2/4 527/2/4
f 519/11/4 525/11/4 528/11/4
f 525/11/4 526/11/4 528/11/4
f 526/11/4 527/11/4 528/11/4
f 528/11/4 527/11/4 529/11/4
f 534/10/5 531/10/5 530/10/5
f 535/10/5 531/10/5 534/10/5
f 536/10/5 533/10/5 532/10/5
f 537/10/5 533/10/5 536/10/5
f 538/9/5 535/9/5 534/9/5
f 539/9/5 535/9/5 538/9/5
f 540/9/5 537/9/5 536/9/5
f 541/9/5 537/9/5 540/9/5
f 546/11/5 543/11/5 542/11/5
f 547/11/5 543/11/5 546/11/5
f 548/11/5 545/11/5 544/11/5
f 549/11/5 545/11/5 548/11/5
f 552/10/5 551/10/5 550/10/5
f 553/10/5 551/10/5 552/10/5
f 554/10/5 551/10/5 553/10/5
f 555/10/5 551/10/5 554/10/5
f 557/10/5 554/10/5 553/10/5
f 558/10/5 554/10/5 557/10/5
f 561/10/5 557/10/5 556/10/5
f 561/10/5 559/10/5 558/10/5
f 561/10/5 558/10/5 557/10/5
f 562/10/5 559/10/5 561/10/5
f 564/12/5 562/12/5 561/12/5
f 564/12/5 563/12/5 562/12/5
f 564/12/5 561/12/5 560/12/5
f 565/12/5 563/12/5 564/12/5
f 568/9/5 567/9/5 566/9/5
f 569/9/5 567/9/5 568/9/5
f 570/9/5 568/9/5 566/9/5
f 571/9/5 568/9/5 570/9/5
f 576/8/5 573/8/5 572/8/5
f 577/9/5 574/9/5 573/9/5
f 577/8/5 573/8/5 576/8/5
f 578/6/5 575/6/5 574/6/5
f 578/9/5 574/9/5 577/9/5
f 579/6/5 575/6/5 578/6/5
f 582/11/5 581/11/5 580/11/5
f 583/11/5 581/11/5 582/11/5
f 588/10/5 585/10/5 584/10/5
f 588/5/5 586/5/5 585/5/5
f 589/10/5 587/10/5 586/10/5
f 589/5/5 586/5/5 588/5/5
f 590/10/5 588/10/5 584/10/5
f 590/10/5 589/10/5 588/10/5
f 591/10/5 587/10/5 589/10/5
f 591/10/5 589/10/5 590/10/5
f 592/10/5 590/10/5 584/10/5
f 593/10/5 590/10/5 592/10/5
f 594/10/5 587/10/5 591/10/5
f 595/10/5 587/10/5 594/10/5
f 600/9/5 597/9/5 596/9/5
f 601/9/5 597/9/5 600/9/5
f 602/9/5 599/9/5 598/9/5
f 603/9/5 599/9/5 602/9/5
f 606/10/5 605/10/5 604/10/5
f 607/10/5 605/10/5 606/10/5
f 608/10/5 605/10/5 607/10/5
f 609/10/6 610/10/6 613/10/6
f 613/10/6 610/10/6 614/10/6
f 611/10/6 612/10/6 615/10/6
f 615/10/6 612/10/6 616/10/6
f 617/9/6 618/9/6 619/9/6
f 619/9/6 618/9/6 620/9/6
f 617/9/6 619/9/6 621/9/6
f 621/9/6 619/9/6 622/9/6
f 623/10/6 624/10/6 625/10/6
f 625/10/6 624/10/6 626/10/6
f 627/2/6 628/2/6 631/2/6
f 631/2/6 628/2/6 632/2/6
f 629/2/6 630/2/6 633/2/6
f 633/2/6 630/2/6 634/2/6
f 635/2/6 636/2/6 638/2/6
f 636/11/6 637/11/6 639/11/6
f 638/2/6 636/2/6 639/2/6
f 639/11/6 637/11/6 640/11/6
f 641/12/6 642/12/6 643/12/6
f 643/12/6 642/12/6 644/12/6
f 644/12/6 642/12/6 645/12/6
f 645/12/6 642/12/6 646/12/6
f 647/2/6 648/2/6 649/2/6
f 649/2/6 648/2/6 650/2/6
f 650/2/6 648/2/6 651/2/6
f 651/2/6 648/2/6 652/2/6
f 653/9/6 654/9/6 657/9/6
f 657/9/6 654/9/6 658/9/6
f 655/9/6 656/9/6 659/9/6
f 659/9/6 656/9/6 660/9/6
f 661/2/6 662/2/6 663/2/6
f 663/2/6 662/2/6 664/2/6
f 665/10/6 666/10/6 667/10/6
f 667/10/6 666/10/6 668/10/6
f 669/10/6 670/10/6 673/10/6
f 671/10/6 672/10/6 674/10/6
f 669/10/6 673/10/6 675/10/6
f 673/10/6 674/10/6 675/10/6
f 674/10/6 672/10/6 676/10/6
f 675/10/6 674/10/6 676/10/6
f 677/10/6 678/10/6 679/10/6
f 679/10/6 678/10/6 680/10/6
f 680/10/6 678/10/6 681/10/6
f 681/10/6 678/10/6 682/10/6
f 680/10/6 681/10/6 683/10/6
f 683/10/6 681/10/6 684/10/6
