# generated by tools/rig_people.py — do not edit
mtllib people.mtl
o arm-l
usemtl palette
v -5 6 -2
v -5 6 -1
v -5 7 -1
v -5 7 -2
v -5 7 0
v -5 10 0
v -5 10 -2
v -5 13 0
v -5 13 -2
v -5 14 0
v -5 14 -2
v -5 6 0
v -3 10 -2
v -3 10 0
v -3 6 0
v -3 6 -2
v -3 13 -2
v -3 13 0
v -3 14 -2
v -3 14 0
v -4 6 -2
v -4 10 -2
v -4 7 -2
v -4 6 0
v -4 6 -1
vt 0.8730469 0.5
vt 0.9394531 0.5
vt 0.7207031 0.5
vn -1 0 0
vn 1 0 0
vn 0 0 1
vn 0 0 -1
vn 0 1 0
vn 0 -1 0
f 1/1/1 2/1/1 3/1/1 4/1/1
f 4/2/1 5/2/1 6/2/1 7/2/1
f 7/3/1 6/3/1 8/3/1 9/3/1
f 9/2/1 8/2/1 10/2/1 11/2/1
f 2/2/1 12/2/1 5/2/1 3/2/1
f 13/2/2 14/2/2 15/2/2 16/2/2
f 17/3/2 18/3/2 14/3/2 13/3/2
f 19/2/2 20/2/2 18/2/2 17/2/2
f 14/2/3 6/2/3 12/2/3 15/2/3
f 18/3/3 8/3/3 6/3/3 14/3/3
f 20/2/3 10/2/3 8/2/3 18/2/3
f 16/2/4 21/2/4 22/2/4 13/2/4
f 13/3/4 7/3/4 9/3/4 17/3/4
f 17/2/4 9/2/4 11/2/4 19/2/4
f 21/1/4 1/1/4 4/1/4 23/1/4
f 23/2/4 4/2/4 7/2/4 22/2/4
f 19/2/5 11/2/5 10/2/5 20/2/5
f 15/2/6 24/2/6 21/2/6 16/2/6
f 25/1/6 2/1/6 1/1/6 21/1/6
f 24/2/6 12/2/6 2/2/6 25/2/6
