# generated by tools/rig_people.py — do not edit
mtllib people.mtl
o arm-r
usemtl palette
v 3 6 -0.5
v 3 6 1.5
v 3 8 1.5
v 3 8 -0.5
v 3 14 1.5
v 3 14 -0.5
v 5 8 -0.5
v 5 8 1.5
v 5 6 1.5
v 5 6 -0.5
v 5 14 -0.5
v 5 14 1.5
vt 0.0410156 0.5
vt 0.5292969 0.5
vn -1 0 0
vn 1 0 0
vn 0 0 1
vn 0 0 -1
vn 0 1 0
vn 0 -1 0
f 1/1/1 2/1/1 3/1/1 4/1/1
f 4/2/1 3/2/1 5/2/1 6/2/1
f 7/1/2 8/1/2 9/1/2 10/1/2
f 11/2/2 12/2/2 8/2/2 7/2/2
f 8/1/3 3/1/3 2/1/3 9/1/3
f 12/2/3 5/2/3 3/2/3 8/2/3
f 10/1/4 1/1/4 4/1/4 7/1/4
f 7/2/4 4/2/4 6/2/4 11/2/4
f 11/2/5 6/2/5 5/2/5 12/2/5
f 9/1/6 2/1/6 1/1/6 10/1/6
