# generated by tools/rig_people.py — do not edit
mtllib people.mtl
o body
usemtl palette
v 1 15 -3.5
v 1 15 -2.5
v 1 16 -2.5
v 1 16 -3.5
v 1 19 -3.5
v 1 19 -2.5
v 1 20 -2.5
v 1 20 -3.5
v 1 8 -2.5
v 1 8 -1.5
v 1 9 -1.5
v 1 9 -2.5
v -1 7 -2.5
v -1 7 -1.5
v -1 10 -1.5
v -1 10 -2.5
v -1 14 -0.5
v -1 14 1.5
v -1 15 1.5
v -1 15 -0.5
v -2 15 -3.5
v -2 15 -2.5
v -2 17 -2.5
v -2 17 -3.5
v -3 19 -3.5
v -3 19 -2.5
v -3 20 -2.5
v -3 20 -3.5
v -3 23 -3.5
v -3 23 -2.5
v -3 24 -2.5
v -3 24 -3.5
v -3 15 -2.5
v -3 15 2.5
v -3 16 2.5
v -3 16 -2.5
v -3 16 -0.5
v -3 17 -0.5
v -3 17 -2.5
v -3 17 -1.5
v -3 20 -1.5
v -3 24 2.5
v -3 25 2.5
v -3 25 -2.5
v -3 7 -1.5
v -3 7 2.5
v -3 9 2.5
v -3 9 -1.5
v -3 9 -0.5
v -3 10 -0.5
v -3 10 -1.5
v -3 10 2.5
v -3 14 2.5
v -3 14 -1.5
v -3 9 1.5
v -3 10 1.5
v -3 16 0.5
v -3 17 2.5
v -3 17 0.5
v -3 23 2.5
v -3 23 3.5
v -3 24 3.5
v -4 20 -5.5
v -4 20 -4.5
v -4 21 -4.5
v -4 21 -5.5
v -4 21 -3.5
v -4 21 3.5
v -4 23 3.5
v -4 23 -3.5
v -4 23 -2.5
v -4 23 2.5
v -4 24 2.5
v -4 24 -2.5
v -4 17 -1.5
v -4 17 -0.5
v -4 20 -0.5
v -4 20 -1.5
v -4 16 -0.5
v -4 16 0.5
v -4 18 0.5
v -4 18 -0.5
v -4 18 3.5
v -4 20 3.5
v -4 17 0.5
v -4 17 3.5
v -4 20 4.5
v -4 20 5.5
v -4 21 5.5
v -4 21 4.5
v -5 20 -4.5
v -5 20 -3.5
v -5 21 -3.5
v -5 21 -4.5
v -5 20 3.5
v -5 20 4.5
v -5 21 4.5
v -5 21 3.5
v -6 20 -3.5
v -6 20 3.5
v -6 21 3.5
v -6 21 -3.5
v 6 21 -3.5
v 6 21 3.5
v 6 20 3.5
v 6 20 -3.5
v 5 21 -4.5
v 5 21 -3.5
v 5 20 -3.5
v 5 20 -4.5
v 5 21 3.5
v 5 21 4.5
v 5 20 4.5
v 5 20 3.5
v 4 21 -5.5
v 4 21 -4.5
v 4 20 -4.5
v 4 20 -5.5
v 4 23 -3.5
v 4 23 3.5
v 4 21 3.5
v 4 21 -3.5
v 4 24 -2.5
v 4 24 2.5
v 4 23 2.5
v 4 23 -2.5
v 4 20 -1.5
v 4 20 -0.5
v 4 17 -0.5
v 4 17 -1.5
v 4 18 -0.5
v 4 18 0.5
v 4 16 0.5
v 4 16 -0.5
v 4 20 3.5
v 4 18 3.5
v 4 17 3.5
v 4 17 0.5
v 4 21 4.5
v 4 21 5.5
v 4 20 5.5
v 4 20 4.5
v 3 20 -3.5
v 3 20 -2.5
v 3 19 -2.5
v 3 19 -3.5
v 3 24 -3.5
v 3 24 -2.5
v 3 23 -2.5
v 3 23 -3.5
v 3 16 -2.5
v 3 16 2.5
v 3 15 2.5
v 3 15 -2.5
v 3 17 -2.5
v 3 17 -0.5
v 3 16 -0.5
v 3 20 -1.5
v 3 17 -1.5
v 3 25 -2.5
v 3 25 2.5
v 3 24 2.5
v 3 9 -1.5
v 3 9 2.5
v 3 7 2.5
v 3 7 -1.5
v 3 10 -1.5
v 3 10 -0.5
v 3 9 -0.5
v 3 14 -1.5
v 3 14 2.5
v 3 10 2.5
v 3 10 1.5
v 3 9 1.5
v 3 17 0.5
v 3 17 2.5
v 3 16 0.5
v 3 24 3.5
v 3 23 3.5
v 3 23 2.5
v 2 17 -3.5
v 2 17 -2.5
v 2 15 -2.5
v 2 15 -3.5
v 2 10 -2.5
v 2 10 -1.5
v 2 8 -1.5
v 2 8 -2.5
v 1 15 -0.5
v 1 15 1.5
v 1 14 1.5
v 1 14 -0.5
v -0 9 -2.5
v -0 9 -1.5
v -0 7 -1.5
v -0 7 -2.5
v -1 16 -3.5
v -1 16 -2.5
v -1 15 -2.5
v -1 15 -3.5
v -1 20 -3.5
v -1 20 -2.5
v -1 19 -2.5
v -1 19 -3.5
v 1 17 -3.5
v -2 16 -3.5
v 2 19 -2.5
v 1 10 -2.5
v -3 18 -2.5
v 2 18 -2.5
v 1 18 -2.5
v -1 9 -2.5
v -1 18 -2.5
v -2 18 -2.5
v -2 19 -2.5
v -0 8 -1.5
v 3 8 -1.5
v 2 9 -1.5
v -3 13 -1.5
v 3 13 -1.5
v 1 13 -1.5
v 1 14 -1.5
v -1 13 -1.5
v -1 14 -1.5
v -1 9 -1.5
v 3 14 -0.5
v 2 14 -0.5
v 2 14 2.5
v 2 14 1.5
v -3 14 1.5
v -3 14 -0.5
v -2 14 -0.5
v -2 14 1.5
v 3 15 -0.5
v -3 15 -0.5
v 1 15 2.5
v -3 15 1.5
v 3 17 3.5
v -4 17 2.5
v 6 20 -2.5
v 4 20 -2.5
v -6 20 -1.5
vt 0.4863281 0.5
vt 0.8066406 0.5
vt 0.0410156 0.5
vt 0.8964844 0.5
vt 0.2792969 0.5
vt 0.0527344 0.5
vn -1 0 0
vn 1 0 0
vn 0 0 1
vn 0 0 -1
vn 0 1 0
vn 0 -1 0
f 1/1/1 2/1/1 3/1/1 4/1/1
f 5/1/1 6/1/1 7/1/1 8/1/1
f 9/2/1 10/2/1 11/2/1 12/2/1
f 13/2/1 14/2/1 15/2/1 16/2/1
f 17/3/1 18/3/1 19/3/1 20/3/1
f 21/1/1 22/1/1 23/1/1 24/1/1
f 25/1/1 26/1/1 27/1/1 28/1/1
f 29/4/1 30/4/1 31/4/1 32/4/1
f 33/3/1 34/3/1 35/3/1 36/3/1
f 36/3/1 37/3/1 38/3/1 39/3/1
f 39/3/1 40/3/1 41/3/1 27/3/1
f 31/4/1 42/4/1 43/4/1 44/4/1
f 45/5/1 46/5/1 47/5/1 48/5/1
f 48/2/1 49/2/1 50/2/1 51/2/1
f 51/5/1 52/5/1 53/5/1 54/5/1
f 49/5/1 55/5/1 56/5/1 50/5/1
f 57/3/1 35/3/1 58/3/1 59/3/1
f 55/2/1 47/2/1 52/2/1 56/2/1
f 60/4/1 61/4/1 62/4/1 42/4/1
f 63/4/1 64/4/1 65/4/1 66/4/1
f 67/4/1 68/4/1 69/4/1 70/4/1
f 71/4/1 72/4/1 73/4/1 74/4/1
f 75/1/1 76/1/1 77/1/1 78/1/1
f 79/6/1 80/6/1 81/6/1 82/6/1
f 82/1/1 83/1/1 84/1/1 77/1/1
f 85/1/1 86/1/1 83/1/1 81/1/1
f 87/4/1 88/4/1 89/4/1 90/4/1
f 91/4/1 92/4/1 93/4/1 94/4/1
f 95/4/1 96/4/1 97/4/1 98/4/1
f 99/4/1 100/4/1 101/4/1 102/4/1
f 103/4/2 104/4/2 105/4/2 106/4/2
f 107/4/2 108/4/2 109/4/2 110/4/2
f 111/4/2 112/4/2 113/4/2 114/4/2
f 115/4/2 116/4/2 117/4/2 118/4/2
f 119/4/2 120/4/2 121/4/2 122/4/2
f 123/4/2 124/4/2 125/4/2 126/4/2
f 127/1/2 128/1/2 129/1/2 130/1/2
f 131/6/2 132/6/2 133/6/2 134/6/2
f 128/1/2 135/1/2 136/1/2 131/1/2
f 132/1/2 136/1/2 137/1/2 138/1/2
f 139/4/2 140/4/2 141/4/2 142/4/2
f 143/1/2 144/1/2 145/1/2 146/1/2
f 147/4/2 148/4/2 149/4/2 150/4/2
f 151/3/2 152/3/2 153/3/2 154/3/2
f 155/3/2 156/3/2 157/3/2 151/3/2
f 144/3/2 158/3/2 159/3/2 155/3/2
f 160/4/2 161/4/2 162/4/2 148/4/2
f 163/5/2 164/5/2 165/5/2 166/5/2
f 167/2/2 168/2/2 169/2/2 163/2/2
f 170/5/2 171/5/2 172/5/2 167/5/2
f 168/5/2 173/5/2 174/5/2 169/5/2
f 175/3/2 176/3/2 152/3/2 177/3/2
f 173/2/2 172/2/2 164/2/2 174/2/2
f 162/4/2 178/4/2 179/4/2 180/4/2
f 181/1/2 182/1/2 183/1/2 184/1/2
f 185/2/2 186/2/2 187/2/2 188/2/2
f 189/3/2 190/3/2 191/3/2 192/3/2
f 193/2/2 194/2/2 195/2/2 196/2/2
f 197/1/2 198/1/2 199/1/2 200/1/2
f 201/1/2 202/1/2 203/1/2 204/1/2
f 138/6/3 175/6/3 177/6/3 133/6/3
f 59/6/3 85/6/3 80/6/3 57/6/3
f 190/3/3 19/3/3 18/3/3 191/3/3
f 124/4/3 162/4/3 180/4/3 125/4/3
f 164/5/3 47/5/3 46/5/3 165/5/3
f 172/2/3 52/2/3 47/2/3 164/2/3
f 171/5/3 53/5/3 52/5/3 172/5/3
f 176/3/3 58/3/3 34/3/3 153/3/3
f 161/4/3 43/4/3 42/4/3 162/4/3
f 42/4/3 73/4/3 72/4/3 60/4/3
f 104/4/3 111/4/3 114/4/3 105/4/3
f 135/1/3 84/1/3 86/1/3 137/1/3
f 120/4/3 69/4/3 68/4/3 121/4/3
f 178/4/3 62/4/3 61/4/3 179/4/3
f 98/4/3 101/4/3 100/4/3 95/4/3
f 112/4/3 139/4/3 142/4/3 113/4/3
f 90/4/3 97/4/3 96/4/3 87/4/3
f 140/4/3 89/4/3 88/4/3 141/4/3
f 118/4/4 63/4/4 66/4/4 115/4/4
f 110/4/4 117/4/4 116/4/4 107/4/4
f 64/4/4 91/4/4 94/4/4 65/4/4
f 106/4/4 109/4/4 108/4/4 103/4/4
f 122/4/4 67/4/4 70/4/4 119/4/4
f 146/1/4 5/1/4 8/1/4 143/1/4
f 150/4/4 29/4/4 32/4/4 147/4/4
f 184/1/4 1/1/4 205/1/4 181/1/4
f 4/1/4 206/1/4 24/1/4 205/1/4
f 200/1/4 21/1/4 206/1/4 197/1/4
f 204/1/4 25/1/4 28/1/4 201/1/4
f 92/4/4 99/4/4 102/4/4 93/4/4
f 126/4/4 149/4/4 148/4/4 123/4/4
f 154/3/4 183/3/4 207/3/4 145/3/4
f 148/4/4 31/4/4 44/4/4 160/4/4
f 188/2/4 9/2/4 208/2/4 185/2/4
f 182/3/4 39/3/4 209/3/4 210/3/4
f 210/1/4 211/1/4 6/1/4 207/1/4
f 12/2/4 212/2/4 16/2/4 208/2/4
f 2/3/4 199/3/4 198/3/4 3/3/4
f 211/3/4 213/3/4 202/3/4 7/3/4
f 196/2/4 13/2/4 212/2/4 193/2/4
f 213/1/4 214/1/4 215/1/4 203/1/4
f 22/3/4 33/3/4 39/3/4 23/3/4
f 214/3/4 209/3/4 26/3/4 215/3/4
f 30/4/4 71/4/4 74/4/4 31/4/4
f 130/1/4 159/1/4 158/1/4 127/1/4
f 166/5/4 195/5/4 216/5/4 217/5/4
f 217/5/4 187/5/4 218/5/4 163/5/4
f 163/2/4 218/2/4 186/2/4 167/2/4
f 167/5/4 51/5/4 219/5/4 220/5/4
f 220/5/4 221/5/4 222/5/4 170/5/4
f 10/5/4 216/5/4 194/5/4 11/5/4
f 221/3/4 223/3/4 224/3/4 222/3/4
f 14/5/4 45/5/4 48/5/4 225/5/4
f 225/2/4 48/2/4 51/2/4 15/2/4
f 223/5/4 219/5/4 54/5/4 224/5/4
f 40/1/4 75/1/4 78/1/4 41/1/4
f 134/6/4 157/6/4 156/6/4 129/6/4
f 192/3/4 17/3/4 20/3/4 189/3/4
f 37/6/4 79/6/4 76/6/4 38/6/4
f 185/2/5 16/2/5 15/2/5 186/2/5
f 170/5/5 222/5/5 192/5/5 226/5/5
f 226/5/5 227/5/5 228/5/5 171/5/5
f 227/3/5 192/3/5 191/3/5 229/3/5
f 229/5/5 230/5/5 53/5/5 228/5/5
f 222/3/5 224/3/5 17/3/5 192/3/5
f 224/5/5 54/5/5 231/5/5 17/5/5
f 17/3/5 232/3/5 233/3/5 18/3/5
f 232/5/5 231/5/5 230/5/5 233/5/5
f 181/1/5 24/1/5 23/1/5 182/1/5
f 103/4/5 122/4/5 121/4/5 104/4/5
f 107/4/5 94/4/5 93/4/5 108/4/5
f 111/4/5 98/4/5 97/4/5 112/4/5
f 115/4/5 66/4/5 65/4/5 116/4/5
f 139/4/5 90/4/5 89/4/5 140/4/5
f 67/4/5 102/4/5 101/4/5 68/4/5
f 119/4/5 150/4/5 149/4/5 126/4/5
f 125/4/5 180/4/5 179/4/5 120/4/5
f 29/4/5 70/4/5 71/4/5 30/4/5
f 60/4/5 72/4/5 69/4/5 61/4/5
f 123/4/5 148/4/5 162/4/5 124/4/5
f 147/4/5 32/4/5 31/4/5 148/4/5
f 162/4/5 42/4/5 62/4/5 178/4/5
f 31/4/5 74/4/5 73/4/5 42/4/5
f 160/4/5 44/4/5 43/4/5 161/4/5
f 165/5/6 46/5/6 45/5/6 166/5/6
f 195/2/6 14/2/6 13/2/6 196/2/6
f 187/2/6 10/2/6 9/2/6 188/2/6
f 11/2/6 194/2/6 193/2/6 12/2/6
f 234/3/6 235/3/6 33/3/6 154/3/6
f 153/3/6 236/3/6 189/3/6 234/3/6
f 183/1/6 2/1/6 1/1/6 184/1/6
f 236/3/6 34/3/6 237/3/6 190/3/6
f 199/1/6 22/1/6 21/1/6 200/1/6
f 19/3/6 237/3/6 235/3/6 20/3/6
f 133/6/6 177/6/6 157/6/6 134/6/6
f 3/1/6 198/1/6 197/1/6 4/1/6
f 57/6/6 80/6/6 79/6/6 37/6/6
f 129/1/6 156/1/6 159/1/6 130/1/6
f 137/1/6 238/1/6 175/1/6 138/1/6
f 238/1/6 86/1/6 239/1/6 176/1/6
f 38/1/6 76/1/6 75/1/6 40/1/6
f 58/1/6 239/1/6 85/1/6 59/1/6
f 145/1/6 6/1/6 5/1/6 146/1/6
f 203/1/6 26/1/6 25/1/6 204/1/6
f 240/4/6 144/4/6 143/4/6 106/4/6
f 105/4/6 135/4/6 241/4/6 240/4/6
f 109/4/6 92/4/6 91/4/6 110/4/6
f 113/4/6 96/4/6 95/4/6 114/4/6
f 117/4/6 64/4/6 63/4/6 118/4/6
f 127/1/6 158/1/6 144/1/6 241/1/6
f 141/4/6 88/4/6 87/4/6 142/4/6
f 7/4/6 202/4/6 201/4/6 8/4/6
f 41/4/6 242/4/6 99/4/6 28/4/6
f 84/4/6 100/4/6 242/4/6 78/4/6
