# MagicaVoxel @ Ephtracy

# group
o 

# material
mtllib Character-16.mtl
usemtl palette

# normals
vn -1 0 0
vn 1 0 0
vn 0 0 1
vn 0 0 -1
vn 0 -1 0
vn 0 1 0

# texcoords
vt 0.0371094 0.5
vt 0.0488281 0.5
vt 0.126953 0.5
vt 0.263672 0.5
vt 0.474609 0.5
vt 0.478516 0.5
vt 0.525391 0.5
vt 0.541016 0.5
vt 0.548828 0.5
vt 0.974609 0.5

# verts
v 3.4 2 5.9
v 3.4 2 5.8
v 3.4 2.1 5.8
v 3.4 2.1 5.7
v 3.4 2.2 5.9
v 3.4 2.2 5.7
v 3.4 2.3 5.9
v 3.4 2.3 5.8
v 3.4 2.4 5.9
v 3.4 2.4 5.8
v 3.4 2.4 5.7
v 3.5 2.2 5.7
v 3.5 2.2 5.6
v 3.5 2.3 5.7
v 3.5 2.3 5.6
v 3.5 2.4 5.9
v 3.5 2.4 5.8
v 3.5 2.4 5.7
v 3.5 2.5 5.9
v 3.5 2.5 5.6
v 3.7 0.6 5.8
v 3.7 0.6 5.6
v 3.7 0.8 5.8
v 3.7 0.8 5.6
v 3.7 1.4 5.8
v 3.7 1.4 5.6
v 3.7 2.1 5.9
v 3.7 2.1 5.6
v 3.7 2.2 5.9
v 3.7 2.2 5.8
v 3.7 2.2 5.7
v 3.7 2.2 5.6
v 3.8 1.4 5.7
v 3.8 1.4 5.6
v 3.8 1.4 5.4
v 3.8 1.6 5.9
v 3.8 1.6 5.8
v 3.8 1.6 5.7
v 3.8 1.9 5.8
v 3.8 1.9 5.7
v 3.8 2 5.9
v 3.8 2 5.8
v 3.8 2 5.5
v 3.8 2 5.4
v 3.8 2.1 5.9
v 3.8 2.1 5.8
v 3.8 2.1 5.6
v 3.8 2.1 5.5
v 3.8 2.3 5.6
v 3.8 2.3 5.5
v 3.8 2.3 5.4
v 3.8 2.4 5.6
v 3.8 2.4 5.5
v 3.9 0 5.9
v 3.9 0 5.6
v 3.9 0.1 5.9
v 3.9 0.1 5.8
v 3.9 0.1 5.6
v 3.9 0.6 5.9
v 3.9 0.6 5.8
v 3.9 0.6 5.6
v 3.9 0.6 5.5
v 3.9 0.8 5.8
v 3.9 0.8 5.6
v 3.9 0.9 5.9
v 3.9 0.9 5.8
v 3.9 0.9 5.6
v 3.9 0.9 5.5
v 3.9 1 5.9
v 3.9 1 5.8
v 3.9 1 5.6
v 3.9 1 5.5
v 3.9 1.4 5.9
v 3.9 1.4 5.8
v 3.9 1.4 5.6
v 3.9 1.4 5.5
v 3.9 1.5 6
v 3.9 1.5 5.7
v 3.9 1.6 6
v 3.9 1.6 5.9
v 3.9 1.6 5.8
v 3.9 1.6 5.7
v 3.9 1.8 6
v 3.9 1.8 5.9
v 3.9 2 6.1
v 3.9 2 6
v 3.9 2 5.9
v 3.9 2.1 6.1
v 3.9 2.1 6
v 3.9 2.1 5.9
v 3.9 2.2 6.1
v 3.9 2.2 6
v 3.9 2.2 5.9
v 3.9 2.3 6.1
v 3.9 2.3 6
v 3.9 2.3 5.5
v 3.9 2.3 5.4
v 3.9 2.4 6
v 3.9 2.4 5.9
v 3.9 2.4 5.5
v 3.9 2.4 5.4
v 4 2.3 6.1
v 4 2.3 6
v 4 2.4 6.1
v 4 2.4 6
v 4.1 1.4 5.8
v 4.1 1.4 5.6
v 4.1 1.5 5.8
v 4.1 1.5 5.6
v 4.1 2.1 6.1
v 4.1 2.1 6
v 4.1 2.2 6.1
v 4.1 2.2 6
v 4.2 2 6.1
v 4.2 2 6
v 4.2 2.1 6.1
v 4.2 2.1 6
v 4.3 0 5.9
v 4.3 0 5.6
v 4.3 0.1 5.9
v 4.3 0.1 5.8
v 4.3 0.1 5.6
v 4.3 0.6 5.8
v 4.3 0.6 5.6
v 4.3 1.9 6.1
v 4.3 1.9 6
v 4.3 2 6.1
v 4.3 2 6
v 4.4 1.7 6.1
v 4.4 1.7 6
v 4.4 1.8 6
v 4.4 1.9 6.1
v 4.4 1.9 6
v 4.5 1.4 5.7
v 4.5 1.4 5.5
v 4.5 1.5 5.7
v 4.5 1.5 5.5
v 4.5 2.4 5.9
v 4.5 2.4 5.6
v 4.5 2.5 5.9
v 4.5 2.5 5.6
v 4.8 2.1 5.9
v 4.8 2.1 5.8
v 4.8 2.1 5.7
v 4.8 2.2 5.9
v 4.8 2.2 5.8
v 4.8 2.2 5.7
v 4.9 2 5.9
v 4.9 2 5.8
v 4.9 2.1 5.9
v 4.9 2.1 5.8
v 3.5 2 5.9
v 3.5 2 5.8
v 3.5 2.1 5.9
v 3.5 2.1 5.8
v 3.6 2.1 5.9
v 3.6 2.1 5.8
v 3.6 2.1 5.7
v 3.6 2.2 5.9
v 3.6 2.2 5.8
v 3.6 2.2 5.7
v 3.9 1.4 5.7
v 3.9 1.4 5.5
v 3.9 1.5 5.7
v 3.9 1.5 5.5
v 3.9 2.4 5.9
v 3.9 2.4 5.6
v 3.9 2.5 5.9
v 3.9 2.5 5.6
v 4.1 0 5.9
v 4.1 0 5.6
v 4.1 0.1 5.9
v 4.1 0.1 5.8
v 4.1 0.1 5.6
v 4.1 0.6 5.8
v 4.1 0.6 5.6
v 4.1 2 6.1
v 4.1 2 6
v 4.1 2.1 6.1
v 4.1 2.1 6
v 4.3 1.4 5.8
v 4.3 1.4 5.6
v 4.3 1.5 5.8
v 4.3 1.5 5.6
v 4.5 0 5.9
v 4.5 0 5.6
v 4.5 0.1 5.9
v 4.5 0.1 5.8
v 4.5 0.1 5.6
v 4.5 0.6 5.9
v 4.5 0.6 5.8
v 4.5 0.6 5.6
v 4.5 0.6 5.5
v 4.5 0.8 5.8
v 4.5 0.8 5.6
v 4.5 0.9 5.9
v 4.5 0.9 5.8
v 4.5 0.9 5.6
v 4.5 0.9 5.5
v 4.5 1 5.9
v 4.5 1 5.8
v 4.5 1 5.6
v 4.5 1 5.5
v 4.5 1.4 5.9
v 4.5 1.4 5.8
v 4.5 1.4 5.6
v 4.5 1.4 5.5
v 4.5 1.5 6
v 4.5 1.5 5.7
v 4.5 1.6 6
v 4.5 1.6 5.9
v 4.5 1.6 5.8
v 4.5 1.6 5.7
v 4.5 1.7 6.1
v 4.5 1.7 6
v 4.5 1.8 6
v 4.5 1.8 5.9
v 4.5 1.9 6
v 4.5 1.9 5.9
v 4.5 2 6.1
v 4.5 2 6
v 4.5 2.3 6.1
v 4.5 2.3 6
v 4.5 2.3 5.5
v 4.5 2.3 5.4
v 4.5 2.4 6.1
v 4.5 2.4 6
v 4.5 2.4 5.5
v 4.5 2.4 5.4
v 4.6 1.4 5.7
v 4.6 1.4 5.6
v 4.6 1.4 5.4
v 4.6 1.6 5.9
v 4.6 1.6 5.8
v 4.6 1.6 5.7
v 4.6 1.9 6
v 4.6 1.9 5.9
v 4.6 1.9 5.8
v 4.6 1.9 5.7
v 4.6 2 6.1
v 4.6 2 6
v 4.6 2 5.9
v 4.6 2 5.8
v 4.6 2 5.5
v 4.6 2 5.4
v 4.6 2.1 6.1
v 4.6 2.1 5.9
v 4.6 2.1 5.8
v 4.6 2.1 5.6
v 4.6 2.1 5.5
v 4.6 2.2 6.1
v 4.6 2.2 6
v 4.6 2.2 5.9
v 4.6 2.3 6.1
v 4.6 2.3 6
v 4.6 2.3 5.6
v 4.6 2.3 5.5
v 4.6 2.3 5.4
v 4.6 2.4 6
v 4.6 2.4 5.9
v 4.6 2.4 5.6
v 4.6 2.4 5.5
v 4.7 0.6 5.8
v 4.7 0.6 5.6
v 4.7 0.8 5.8
v 4.7 0.8 5.6
v 4.7 1.4 5.8
v 4.7 1.4 5.6
v 4.7 2.1 5.9
v 4.7 2.1 5.6
v 4.7 2.2 5.9
v 4.7 2.2 5.8
v 4.7 2.2 5.7
v 4.7 2.2 5.6
v 4.9 2.2 5.7
v 4.9 2.2 5.6
v 4.9 2.3 5.7
v 4.9 2.3 5.6
v 4.9 2.4 5.9
v 4.9 2.4 5.8
v 4.9 2.4 5.7
v 4.9 2.5 5.9
v 4.9 2.5 5.6
v 5 2 5.9
v 5 2 5.8
v 5 2.1 5.8
v 5 2.1 5.7
v 5 2.2 5.9
v 5 2.2 5.7
v 5 2.3 5.9
v 5 2.3 5.8
v 5 2.4 5.9
v 5 2.4 5.8
v 5 2.4 5.7
v 3.9 2 6.1
v 3.9 2.1 6.1
v 3.9 2.2 6.1
v 3.9 2.3 6.1
v 4 2.3 6.1
v 4 2.4 6.1
v 4.1 2 6.1
v 4.1 2.1 6.1
v 4.1 2.2 6.1
v 4.1 2.3 6.1
v 4.2 2 6.1
v 4.2 2.1 6.1
v 4.2 2.2 6.1
v 4.2 2.3 6.1
v 4.3 1.9 6.1
v 4.3 2 6.1
v 4.4 1.7 6.1
v 4.4 1.9 6.1
v 4.5 1.7 6.1
v 4.5 2 6.1
v 4.5 2.1 6.1
v 4.5 2.2 6.1
v 4.5 2.3 6.1
v 4.5 2.4 6.1
v 4.6 2 6.1
v 4.6 2.1 6.1
v 4.6 2.2 6.1
v 4.6 2.3 6.1
v 3.9 1.5 6
v 3.9 1.6 6
v 3.9 1.8 6
v 3.9 2 6
v 3.9 2.1 6
v 3.9 2.2 6
v 3.9 2.3 6
v 3.9 2.4 6
v 4 1.6 6
v 4 1.8 6
v 4 1.9 6
v 4 2.3 6
v 4 2.4 6
v 4.1 1.6 6
v 4.1 1.7 6
v 4.1 1.8 6
v 4.1 1.9 6
v 4.1 2 6
v 4.1 2.1 6
v 4.1 2.2 6
v 4.2 2 6
v 4.2 2.1 6
v 4.3 1.6 6
v 4.3 1.7 6
v 4.3 1.8 6
v 4.3 1.9 6
v 4.3 2 6
v 4.4 1.6 6
v 4.4 1.7 6
v 4.4 1.8 6
v 4.4 1.9 6
v 4.5 1.5 6
v 4.5 1.6 6
v 4.5 1.7 6
v 4.5 1.9 6
v 4.5 2 6
v 4.5 2.3 6
v 4.5 2.4 6
v 4.6 1.9 6
v 4.6 2 6
v 4.6 2.3 6
v 4.6 2.4 6
v 3.4 2 5.9
v 3.4 2.2 5.9
v 3.4 2.3 5.9
v 3.4 2.4 5.9
v 3.5 2 5.9
v 3.5 2.1 5.9
v 3.5 2.2 5.9
v 3.5 2.3 5.9
v 3.5 2.4 5.9
v 3.5 2.5 5.9
v 3.6 2.1 5.9
v 3.6 2.2 5.9
v 3.7 2.1 5.9
v 3.7 2.2 5.9
v 3.7 2.3 5.9
v 3.8 1.6 5.9
v 3.8 2 5.9
v 3.8 2.1 5.9
v 3.9 0 5.9
v 3.9 0.1 5.9
v 3.9 0.6 5.9
v 3.9 0.9 5.9
v 3.9 1 5.9
v 3.9 1.4 5.9
v 3.9 1.6 5.9
v 3.9 1.8 5.9
v 3.9 2 5.9
v 3.9 2.1 5.9
v 3.9 2.2 5.9
v 3.9 2.4 5.9
v 3.9 2.5 5.9
v 4.1 0 5.9
v 4.1 0.1 5.9
v 4.1 1 5.9
v 4.1 1.4 5.9
v 4.3 0 5.9
v 4.3 0.1 5.9
v 4.3 1 5.9
v 4.3 1.4 5.9
v 4.5 0 5.9
v 4.5 0.1 5.9
v 4.5 0.6 5.9
v 4.5 0.9 5.9
v 4.5 1 5.9
v 4.5 1.4 5.9
v 4.5 1.6 5.9
v 4.5 1.8 5.9
v 4.5 1.9 5.9
v 4.5 2.4 5.9
v 4.5 2.5 5.9
v 4.6 1.6 5.9
v 4.6 1.9 5.9
v 4.6 2.1 5.9
v 4.6 2.2 5.9
v 4.6 2.4 5.9
v 4.7 2.1 5.9
v 4.7 2.2 5.9
v 4.7 2.3 5.9
v 4.8 2.1 5.9
v 4.8 2.2 5.9
v 4.9 2 5.9
v 4.9 2.1 5.9
v 4.9 2.2 5.9
v 4.9 2.3 5.9
v 4.9 2.4 5.9
v 4.9 2.5 5.9
v 5 2 5.9
v 5 2.2 5.9
v 5 2.3 5.9
v 5 2.4 5.9
v 3.7 0.6 5.8
v 3.7 0.8 5.8
v 3.7 1.4 5.8
v 3.9 0.1 5.8
v 3.9 0.6 5.8
v 3.9 0.8 5.8
v 3.9 0.9 5.8
v 3.9 1 5.8
v 3.9 1.4 5.8
v 4.1 0.1 5.8
v 4.1 0.6 5.8
v 4.1 1.4 5.8
v 4.1 1.5 5.8
v 4.3 0.1 5.8
v 4.3 0.6 5.8
v 4.3 1.4 5.8
v 4.3 1.5 5.8
v 4.5 0.1 5.8
v 4.5 0.6 5.8
v 4.5 0.8 5.8
v 4.5 0.9 5.8
v 4.5 1 5.8
v 4.5 1.4 5.8
v 4.7 0.6 5.8
v 4.7 0.8 5.8
v 4.7 1.4 5.8
v 3.8 1.4 5.7
v 3.8 1.6 5.7
v 3.9 1.4 5.7
v 3.9 1.5 5.7
v 3.9 1.6 5.7
v 4.5 1.4 5.7
v 4.5 1.5 5.7
v 4.5 1.6 5.7
v 4.6 1.4 5.7
v 4.6 1.6 5.7
v 3.9 1.4 5.5
v 3.9 1.5 5.5
v 4.5 1.4 5.5
v 4.5 1.5 5.5
v 3.4 2 5.8
v 3.4 2.1 5.8
v 3.5 2 5.8
v 3.5 2.1 5.8
v 4.9 2 5.8
v 4.9 2.1 5.8
v 5 2 5.8
v 5 2.1 5.8
v 3.4 2.1 5.7
v 3.4 2.2 5.7
v 3.4 2.4 5.7
v 3.5 2.1 5.7
v 3.5 2.2 5.7
v 3.5 2.3 5.7
v 3.5 2.4 5.7
v 3.6 2.1 5.7
v 3.6 2.2 5.7
v 4.8 2.1 5.7
v 4.8 2.2 5.7
v 4.9 2.1 5.7
v 4.9 2.2 5.7
v 4.9 2.3 5.7
v 4.9 2.4 5.7
v 5 2.1 5.7
v 5 2.2 5.7
v 5 2.4 5.7
v 3.5 2.2 5.6
v 3.5 2.3 5.6
v 3.5 2.5 5.6
v 3.7 0.6 5.6
v 3.7 0.8 5.6
v 3.7 1.4 5.6
v 3.7 2.1 5.6
v 3.7 2.2 5.6
v 3.8 1.4 5.6
v 3.8 2.1 5.6
v 3.8 2.3 5.6
v 3.8 2.4 5.6
v 3.9 0 5.6
v 3.9 0.1 5.6
v 3.9 0.6 5.6
v 3.9 0.8 5.6
v 3.9 0.9 5.6
v 3.9 1 5.6
v 3.9 1.4 5.6
v 3.9 2.4 5.6
v 3.9 2.5 5.6
v 4.1 0 5.6
v 4.1 0.1 5.6
v 4.1 0.6 5.6
v 4.1 1.4 5.6
v 4.1 1.5 5.6
v 4.3 0 5.6
v 4.3 0.1 5.6
v 4.3 0.6 5.6
v 4.3 1.4 5.6
v 4.3 1.5 5.6
v 4.5 0 5.6
v 4.5 0.1 5.6
v 4.5 0.6 5.6
v 4.5 0.8 5.6
v 4.5 0.9 5.6
v 4.5 1 5.6
v 4.5 1.4 5.6
v 4.5 2.4 5.6
v 4.5 2.5 5.6
v 4.6 1.4 5.6
v 4.6 2.1 5.6
v 4.6 2.3 5.6
v 4.6 2.4 5.6
v 4.7 0.6 5.6
v 4.7 0.8 5.6
v 4.7 1.4 5.6
v 4.7 2.1 5.6
v 4.7 2.2 5.6
v 4.9 2.2 5.6
v 4.9 2.3 5.6
v 4.9 2.5 5.6
v 3.8 2.3 5.5
v 3.8 2.4 5.5
v 3.9 0.6 5.5
v 3.9 0.9 5.5
v 3.9 1 5.5
v 3.9 1.4 5.5
v 3.9 2.3 5.5
v 3.9 2.4 5.5
v 4.5 0.6 5.5
v 4.5 0.9 5.5
v 4.5 1 5.5
v 4.5 1.4 5.5
v 4.5 2.3 5.5
v 4.5 2.4 5.5
v 4.6 2.3 5.5
v 4.6 2.4 5.5
v 3.8 1.4 5.4
v 3.8 2 5.4
v 3.8 2.3 5.4
v 3.9 2 5.4
v 3.9 2.1 5.4
v 3.9 2.3 5.4
v 3.9 2.4 5.4
v 4 2 5.4
v 4 2.1 5.4
v 4.2 2.1 5.4
v 4.2 2.2 5.4
v 4.3 2 5.4
v 4.3 2.1 5.4
v 4.3 2.2 5.4
v 4.5 2 5.4
v 4.5 2.1 5.4
v 4.5 2.3 5.4
v 4.5 2.4 5.4
v 4.6 1.4 5.4
v 4.6 2 5.4
v 4.6 2.3 5.4
v 3.9 0 5.9
v 4.1 0 5.9
v 4.3 0 5.9
v 4.5 0 5.9
v 3.9 0 5.6
v 4.1 0 5.6
v 4.3 0 5.6
v 4.5 0 5.6
v 3.9 0.6 5.9
v 4.5 0.6 5.9
v 3.7 0.6 5.8
v 3.9 0.6 5.8
v 4.1 0.6 5.8
v 4.3 0.6 5.8
v 4.5 0.6 5.8
v 4.7 0.6 5.8
v 3.7 0.6 5.6
v 3.9 0.6 5.6
v 4.1 0.6 5.6
v 4.3 0.6 5.6
v 4.5 0.6 5.6
v 4.7 0.6 5.6
v 3.9 0.6 5.5
v 4.5 0.6 5.5
v 3.8 1.4 5.6
v 3.9 1.4 5.6
v 4.5 1.4 5.6
v 4.6 1.4 5.6
v 3.9 1.4 5.5
v 4.5 1.4 5.5
v 3.8 1.4 5.4
v 4.6 1.4 5.4
v 3.9 1.5 6
v 4.5 1.5 6
v 4.1 1.5 5.8
v 4.3 1.5 5.8
v 3.9 1.5 5.7
v 4.5 1.5 5.7
v 4.1 1.5 5.6
v 4.3 1.5 5.6
v 3.9 1.5 5.5
v 4.5 1.5 5.5
v 3.8 1.6 5.9
v 3.9 1.6 5.9
v 4.5 1.6 5.9
v 4.6 1.6 5.9
v 3.8 1.6 5.8
v 3.9 1.6 5.8
v 4.5 1.6 5.8
v 4.6 1.6 5.8
v 3.8 1.6 5.7
v 3.9 1.6 5.7
v 4.5 1.6 5.7
v 4.6 1.6 5.7
v 4.4 1.7 6.1
v 4.5 1.7 6.1
v 4.4 1.7 6
v 4.5 1.7 6
v 4.3 1.9 6.1
v 4.4 1.9 6.1
v 4.3 1.9 6
v 4.4 1.9 6
v 4.5 1.9 6
v 4.6 1.9 6
v 4.5 1.9 5.9
v 4.6 1.9 5.9
v 3.9 2 6.1
v 4.1 2 6.1
v 4.2 2 6.1
v 4.3 2 6.1
v 4.5 2 6.1
v 4.6 2 6.1
v 3.9 2 6
v 4.1 2 6
v 4.2 2 6
v 4.3 2 6
v 4.5 2 6
v 4.6 2 6
v 3.4 2 5.9
v 3.5 2 5.9
v 4.9 2 5.9
v 5 2 5.9
v 3.4 2 5.8
v 3.5 2 5.8
v 4.9 2 5.8
v 5 2 5.8
v 4.1 2.1 6.1
v 4.2 2.1 6.1
v 4.1 2.1 6
v 4.2 2.1 6
v 3.5 2.1 5.9
v 3.6 2.1 5.9
v 3.7 2.1 5.9
v 3.8 2.1 5.9
v 4.6 2.1 5.9
v 4.7 2.1 5.9
v 4.8 2.1 5.9
v 4.9 2.1 5.9
v 3.4 2.1 5.8
v 3.5 2.1 5.8
v 3.6 2.1 5.8
v 3.8 2.1 5.8
v 4.6 2.1 5.8
v 4.8 2.1 5.8
v 4.9 2.1 5.8
v 5 2.1 5.8
v 3.4 2.1 5.7
v 3.5 2.1 5.7
v 3.6 2.1 5.7
v 4.8 2.1 5.7
v 4.9 2.1 5.7
v 5 2.1 5.7
v 3.7 2.1 5.6
v 3.8 2.1 5.6
v 4.6 2.1 5.6
v 4.7 2.1 5.6
v 3.9 2.2 6.1
v 4.1 2.2 6.1
v 3.9 2.2 6
v 4.1 2.2 6
v 3.6 2.2 5.9
v 3.7 2.2 5.9
v 4.7 2.2 5.9
v 4.8 2.2 5.9
v 3.6 2.2 5.8
v 3.7 2.2 5.8
v 4.7 2.2 5.8
v 4.8 2.2 5.8
v 3.5 2.2 5.7
v 3.6 2.2 5.7
v 3.7 2.2 5.7
v 4.7 2.2 5.7
v 4.8 2.2 5.7
v 4.9 2.2 5.7
v 3.5 2.2 5.6
v 3.7 2.2 5.6
v 4.7 2.2 5.6
v 4.9 2.2 5.6
v 3.9 0.1 5.9
v 4.1 0.1 5.9
v 4.3 0.1 5.9
v 4.5 0.1 5.9
v 3.9 0.1 5.8
v 4.1 0.1 5.8
v 4.3 0.1 5.8
v 4.5 0.1 5.8
v 3.9 1.4 5.9
v 4.1 1.4 5.9
v 4.3 1.4 5.9
v 4.5 1.4 5.9
v 3.7 1.4 5.8
v 3.9 1.4 5.8
v 4.1 1.4 5.8
v 4.3 1.4 5.8
v 4.5 1.4 5.8
v 4.7 1.4 5.8
v 3.8 1.4 5.7
v 3.9 1.4 5.7
v 4.5 1.4 5.7
v 4.6 1.4 5.7
v 3.7 1.4 5.6
v 3.8 1.4 5.6
v 4.1 1.4 5.6
v 4.3 1.4 5.6
v 4.6 1.4 5.6
v 4.7 1.4 5.6
v 3.9 1.4 5.5
v 4.5 1.4 5.5
v 3.9 2.1 6.1
v 4.1 2.1 6.1
v 3.9 2.1 6
v 4.1 2.1 6
v 3.9 2.3 6.1
v 4 2.3 6.1
v 4.5 2.3 6.1
v 4.6 2.3 6.1
v 3.9 2.3 6
v 4 2.3 6
v 4.5 2.3 6
v 4.6 2.3 6
v 3.8 2.3 5.5
v 3.9 2.3 5.5
v 4.5 2.3 5.5
v 4.6 2.3 5.5
v 3.8 2.3 5.4
v 3.9 2.3 5.4
v 4.5 2.3 5.4
v 4.6 2.3 5.4
v 4 2.4 6.1
v 4.5 2.4 6.1
v 3.9 2.4 6
v 4 2.4 6
v 4.5 2.4 6
v 4.6 2.4 6
v 3.4 2.4 5.9
v 3.5 2.4 5.9
v 3.9 2.4 5.9
v 4.5 2.4 5.9
v 4.6 2.4 5.9
v 4.9 2.4 5.9
v 5 2.4 5.9
v 3.4 2.4 5.8
v 3.5 2.4 5.8
v 4.9 2.4 5.8
v 5 2.4 5.8
v 3.4 2.4 5.7
v 3.5 2.4 5.7
v 4.9 2.4 5.7
v 5 2.4 5.7
v 3.8 2.4 5.6
v 3.9 2.4 5.6
v 4.5 2.4 5.6
v 4.6 2.4 5.6
v 3.8 2.4 5.5
v 3.9 2.4 5.5
v 4.5 2.4 5.5
v 4.6 2.4 5.5
v 3.9 2.4 5.4
v 4.5 2.4 5.4
v 3.5 2.5 5.9
v 3.9 2.5 5.9
v 4.5 2.5 5.9
v 4.9 2.5 5.9
v 3.5 2.5 5.6
v 3.9 2.5 5.6
v 4.5 2.5 5.6
v 4.9 2.5 5.6

# faces
f 3/6/1 2/6/1 1/6/1
f 5/6/1 3/6/1 1/6/1
f 5/6/1 4/6/1 3/6/1
f 6/6/1 4/6/1 5/6/1
f 7/5/1 6/5/1 5/5/1
f 8/5/1 6/5/1 7/5/1
f 9/6/1 8/6/1 7/6/1
f 10/5/1 6/5/1 8/5/1
f 10/6/1 8/6/1 9/6/1
f 11/5/1 6/5/1 10/5/1
f 14/6/1 13/6/1 12/6/1
f 15/6/1 13/6/1 14/6/1
f 18/5/1 15/5/1 14/5/1
f 19/5/1 17/5/1 16/5/1
f 19/5/1 18/5/1 17/5/1
f 20/5/1 15/5/1 18/5/1
f 20/5/1 18/5/1 19/5/1
f 23/1/1 22/1/1 21/1/1
f 24/1/1 22/1/1 23/1/1
f 25/7/1 24/7/1 23/7/1
f 26/7/1 24/7/1 25/7/1
f 29/6/1 28/6/1 27/6/1
f 30/6/1 28/6/1 29/6/1
f 31/6/1 28/6/1 30/6/1
f 32/6/1 28/6/1 31/6/1
f 38/6/1 34/6/1 33/6/1
f 38/6/1 35/6/1 34/6/1
f 39/6/1 37/6/1 36/6/1
f 39/2/1 38/2/1 37/2/1
f 40/6/1 35/6/1 38/6/1
f 40/2/1 38/2/1 39/2/1
f 41/6/1 39/6/1 36/6/1
f 41/6/1 40/6/1 39/6/1
f 42/6/1 40/6/1 41/6/1
f 43/6/1 35/6/1 40/6/1
f 43/6/1 40/6/1 42/6/1
f 44/6/1 35/6/1 43/6/1
f 45/5/1 42/5/1 41/5/1
f 46/6/1 43/6/1 42/6/1
f 46/5/1 42/5/1 45/5/1
f 47/6/1 43/6/1 46/6/1
f 48/5/1 44/5/1 43/5/1
f 48/6/1 43/6/1 47/6/1
f 49/5/1 48/5/1 47/5/1
f 50/5/1 44/5/1 48/5/1
f 50/5/1 48/5/1 49/5/1
f 51/5/1 44/5/1 50/5/1
f 52/5/1 50/5/1 49/5/1
f 53/5/1 50/5/1 52/5/1
f 56/7/1 55/7/1 54/7/1
f 57/7/1 55/7/1 56/7/1
f 58/7/1 55/7/1 57/7/1
f 60/1/1 58/1/1 57/1/1
f 61/1/1 58/1/1 60/1/1
f 63/4/1 60/4/1 59/4/1
f 64/4/1 62/4/1 61/4/1
f 65/4/1 63/4/1 59/4/1
f 66/4/1 63/4/1 65/4/1
f 67/4/1 62/4/1 64/4/1
f 68/4/1 62/4/1 67/4/1
f 69/1/1 66/1/1 65/1/1
f 70/1/1 66/1/1 69/1/1
f 71/1/1 68/1/1 67/1/1
f 72/1/1 68/1/1 71/1/1
f 73/7/1 70/7/1 69/7/1
f 74/7/1 70/7/1 73/7/1
f 75/7/1 72/7/1 71/7/1
f 76/7/1 72/7/1 75/7/1
f 79/1/1 78/1/1 77/1/1
f 80/1/1 78/1/1 79/1/1
f 81/1/1 78/1/1 80/1/1
f 82/1/1 78/1/1 81/1/1
f 83/8/1 80/8/1 79/8/1
f 84/8/1 80/8/1 83/8/1
f 86/1/1 84/1/1 83/1/1
f 87/1/1 84/1/1 86/1/1
f 88/6/1 86/6/1 85/6/1
f 89/1/1 87/1/1 86/1/1
f 89/6/1 86/6/1 88/6/1
f 90/1/1 87/1/1 89/1/1
f 92/1/1 90/1/1 89/1/1
f 93/1/1 90/1/1 92/1/1
f 94/5/1 92/5/1 91/5/1
f 94/5/1 93/5/1 92/5/1
f 95/5/1 93/5/1 94/5/1
f 98/5/1 93/5/1 95/5/1
f 99/5/1 93/5/1 98/5/1
f 100/5/1 97/5/1 96/5/1
f 101/5/1 97/5/1 100/5/1
f 104/5/1 103/5/1 102/5/1
f 105/5/1 103/5/1 104/5/1
f 108/1/1 107/1/1 106/1/1
f 109/1/1 107/1/1 108/1/1
f 112/5/1 111/5/1 110/5/1
f 113/5/1 111/5/1 112/5/1
f 116/6/1 115/6/1 114/6/1
f 117/6/1 115/6/1 116/6/1
f 120/7/1 119/7/1 118/7/1
f 121/7/1 119/7/1 120/7/1
f 122/7/1 119/7/1 121/7/1
f 123/1/1 122/1/1 121/1/1
f 124/1/1 122/1/1 123/1/1
f 127/6/1 126/6/1 125/6/1
f 128/6/1 126/6/1 127/6/1
f 131/6/1 130/6/1 129/6/1
f 132/6/1 131/6/1 129/6/1
f 133/6/1 131/6/1 132/6/1
f 136/6/1 135/6/1 134/6/1
f 137/6/1 135/6/1 136/6/1
f 140/5/1 139/5/1 138/5/1
f 141/5/1 139/5/1 140/5/1
f 145/6/1 143/6/1 142/6/1
f 146/5/1 144/5/1 143/5/1
f 146/6/1 143/6/1 145/6/1
f 147/5/1 144/5/1 146/5/1
f 150/6/1 149/6/1 148/6/1
f 151/6/1 149/6/1 150/6/1
f 152/6/2 153/6/2 154/6/2
f 154/6/2 153/6/2 155/6/2
f 156/6/2 157/6/2 159/6/2
f 157/5/2 158/5/2 160/5/2
f 159/6/2 157/6/2 160/6/2
f 160/5/2 158/5/2 161/5/2
f 162/6/2 163/6/2 164/6/2
f 164/6/2 163/6/2 165/6/2
f 166/5/2 167/5/2 168/5/2
f 168/5/2 167/5/2 169/5/2
f 170/7/2 171/7/2 172/7/2
f 172/7/2 171/7/2 173/7/2
f 173/7/2 171/7/2 174/7/2
f 173/1/2 174/1/2 175/1/2
f 175/1/2 174/1/2 176/1/2
f 177/6/2 178/6/2 179/6/2
f 179/6/2 178/6/2 180/6/2
f 181/1/2 182/1/2 183/1/2
f 183/1/2 182/1/2 184/1/2
f 185/7/2 186/7/2 187/7/2
f 187/7/2 186/7/2 188/7/2
f 188/7/2 186/7/2 189/7/2
f 188/1/2 189/1/2 191/1/2
f 191/1/2 189/1/2 192/1/2
f 190/4/2 191/4/2 194/4/2
f 192/4/2 193/4/2 195/4/2
f 190/4/2 194/4/2 196/4/2
f 196/4/2 194/4/2 197/4/2
f 195/4/2 193/4/2 198/4/2
f 198/4/2 193/4/2 199/4/2
f 196/1/2 197/1/2 200/1/2
f 200/1/2 197/1/2 201/1/2
f 198/1/2 199/1/2 202/1/2
f 202/1/2 199/1/2 203/1/2
f 200/7/2 201/7/2 204/7/2
f 204/7/2 201/7/2 205/7/2
f 202/7/2 203/7/2 206/7/2
f 206/7/2 203/7/2 207/7/2
f 208/1/2 209/1/2 210/1/2
f 210/1/2 209/1/2 211/1/2
f 211/1/2 209/1/2 212/1/2
f 212/1/2 209/1/2 213/1/2
f 210/8/2 211/8/2 215/8/2
f 215/8/2 211/8/2 216/8/2
f 214/6/2 215/6/2 216/6/2
f 216/8/2 211/8/2 217/8/2
f 214/6/2 216/6/2 218/6/2
f 216/1/2 217/1/2 218/1/2
f 218/1/2 217/1/2 219/1/2
f 214/6/2 218/6/2 220/6/2
f 220/6/2 218/6/2 221/6/2
f 222/5/2 223/5/2 226/5/2
f 226/5/2 223/5/2 227/5/2
f 224/5/2 225/5/2 228/5/2
f 228/5/2 225/5/2 229/5/2
f 230/6/2 231/6/2 235/6/2
f 231/6/2 232/6/2 235/6/2
f 233/6/2 234/6/2 237/6/2
f 234/2/2 235/2/2 238/2/2
f 237/6/2 234/6/2 238/6/2
f 235/6/2 232/6/2 239/6/2
f 238/2/2 235/2/2 239/2/2
f 236/6/2 237/6/2 241/6/2
f 237/6/2 238/6/2 241/6/2
f 238/6/2 239/6/2 241/6/2
f 241/6/2 239/6/2 242/6/2
f 242/6/2 239/6/2 243/6/2
f 239/6/2 232/6/2 244/6/2
f 243/6/2 239/6/2 244/6/2
f 244/6/2 232/6/2 245/6/2
f 240/6/2 241/6/2 246/6/2
f 241/6/2 242/6/2 246/6/2
f 242/5/2 243/5/2 247/5/2
f 246/6/2 242/6/2 247/6/2
f 243/6/2 244/6/2 248/6/2
f 247/5/2 243/5/2 248/5/2
f 248/6/2 244/6/2 249/6/2
f 244/5/2 245/5/2 250/5/2
f 249/6/2 244/6/2 250/6/2
f 246/5/2 247/5/2 251/5/2
f 251/5/2 247/5/2 252/5/2
f 252/5/2 247/5/2 253/5/2
f 251/6/2 252/6/2 254/6/2
f 252/5/2 253/5/2 255/5/2
f 254/6/2 252/6/2 255/6/2
f 249/5/2 250/5/2 256/5/2
f 250/5/2 245/5/2 257/5/2
f 256/5/2 250/5/2 257/5/2
f 257/5/2 245/5/2 258/5/2
f 255/5/2 253/5/2 259/5/2
f 259/5/2 253/5/2 260/5/2
f 256/5/2 257/5/2 261/5/2
f 261/5/2 257/5/2 262/5/2
f 263/1/2 264/1/2 265/1/2
f 265/1/2 264/1/2 266/1/2
f 265/7/2 266/7/2 267/7/2
f 267/7/2 266/7/2 268/7/2
f 269/6/2 270/6/2 271/6/2
f 271/6/2 270/6/2 272/6/2
f 272/6/2 270/6/2 273/6/2
f 273/6/2 270/6/2 274/6/2
f 275/6/2 276/6/2 277/6/2
f 277/6/2 276/6/2 278/6/2
f 277/5/2 278/5/2 281/5/2
f 279/5/2 280/5/2 282/5/2
f 280/5/2 281/5/2 282/5/2
f 281/5/2 278/5/2 283/5/2
f 282/5/2 281/5/2 283/5/2
f 284/6/2 285/6/2 286/6/2
f 284/6/2 286/6/2 288/6/2
f 286/6/2 287/6/2 288/6/2
f 288/6/2 287/6/2 289/6/2
f 288/5/2 289/5/2 290/5/2
f 290/5/2 289/5/2 291/5/2
f 290/6/2 291/6/2 292/6/2
f 291/5/2 289/5/2 293/5/2
f 292/6/2 291/6/2 293/6/2
f 293/5/2 289/5/2 294/5/2
f 299/5/3 298/5/3 297/5/3
f 301/6/3 296/6/3 295/6/3
f 302/6/3 296/6/3 301/6/3
f 303/5/3 300/5/3 299/5/3
f 303/5/3 299/5/3 297/5/3
f 304/5/3 300/5/3 303/5/3
f 306/5/3 303/5/3 302/5/3
f 307/6/3 304/6/3 303/6/3
f 307/5/3 303/5/3 306/5/3
f 308/5/3 300/5/3 304/5/3
f 308/6/3 304/6/3 307/6/3
f 310/6/3 307/6/3 306/6/3
f 310/6/3 306/6/3 305/6/3
f 312/6/3 310/6/3 309/6/3
f 313/6/3 312/6/3 311/6/3
f 314/6/3 307/6/3 310/6/3
f 314/6/3 312/6/3 313/6/3
f 314/6/3 310/6/3 312/6/3
f 315/6/3 307/6/3 314/6/3
f 316/5/3 308/5/3 307/5/3
f 316/6/3 307/6/3 315/6/3
f 317/5/3 300/5/3 308/5/3
f 317/5/3 308/5/3 316/5/3
f 318/5/3 300/5/3 317/5/3
f 319/6/3 315/6/3 314/6/3
f 320/5/3 316/5/3 315/5/3
f 320/6/3 315/6/3 319/6/3
f 321/6/3 317/6/3 316/6/3
f 321/5/3 316/5/3 320/5/3
f 322/6/3 317/6/3 321/6/3
f 331/1/3 324/1/3 323/1/3
f 331/8/3 325/8/3 324/8/3
f 332/1/3 326/1/3 325/1/3
f 332/8/3 325/8/3 331/8/3
f 333/1/3 326/1/3 332/1/3
f 334/5/3 330/5/3 329/5/3
f 335/5/3 330/5/3 334/5/3
f 336/1/3 331/1/3 323/1/3
f 336/1/3 332/1/3 331/1/3
f 337/1/3 332/1/3 336/1/3
f 338/7/3 333/7/3 332/7/3
f 338/1/3 332/1/3 337/1/3
f 339/1/3 326/1/3 333/1/3
f 339/7/3 333/7/3 338/7/3
f 340/1/3 326/1/3 339/1/3
f 341/1/3 328/1/3 327/1/3
f 342/1/3 328/1/3 341/1/3
f 343/1/3 338/1/3 337/1/3
f 343/1/3 340/1/3 339/1/3
f 343/1/3 341/1/3 340/1/3
f 343/1/3 339/1/3 338/1/3
f 344/1/3 341/1/3 343/1/3
f 345/9/3 337/9/3 336/9/3
f 345/1/3 336/1/3 323/1/3
f 346/1/3 343/1/3 337/1/3
f 346/9/3 337/9/3 345/9/3
f 347/1/3 343/1/3 346/1/3
f 348/1/3 343/1/3 347/1/3
f 349/1/3 343/1/3 348/1/3
f 350/1/3 345/1/3 323/1/3
f 350/1/3 346/1/3 345/1/3
f 350/1/3 347/1/3 346/1/3
f 351/1/3 347/1/3 350/1/3
f 352/7/3 348/7/3 347/7/3
f 352/1/3 347/1/3 351/1/3
f 353/7/3 348/7/3 352/7/3
f 354/1/3 350/1/3 323/1/3
f 355/8/3 351/8/3 350/8/3
f 355/1/3 350/1/3 354/1/3
f 356/8/3 351/8/3 355/8/3
f 361/6/3 358/6/3 357/6/3
f 362/6/3 358/6/3 361/6/3
f 363/5/3 360/5/3 359/5/3
f 364/5/3 360/5/3 363/5/3
f 369/6/3 366/6/3 365/6/3
f 370/6/3 366/6/3 369/6/3
f 371/5/3 367/5/3 366/5/3
f 371/6/3 366/6/3 370/6/3
f 372/6/3 368/6/3 367/6/3
f 372/5/3 367/5/3 371/5/3
f 373/6/3 368/6/3 372/6/3
f 375/6/3 371/6/3 370/6/3
f 375/6/3 372/6/3 371/6/3
f 376/6/3 372/6/3 375/6/3
f 378/6/3 372/6/3 376/6/3
f 379/5/3 374/5/3 373/5/3
f 379/5/3 373/5/3 372/5/3
f 379/6/3 372/6/3 378/6/3
f 382/6/3 378/6/3 377/6/3
f 389/6/3 381/6/3 380/6/3
f 390/6/3 381/6/3 389/6/3
f 391/5/3 382/5/3 381/5/3
f 391/6/3 381/6/3 390/6/3
f 392/6/3 378/6/3 382/6/3
f 392/5/3 382/5/3 391/5/3
f 393/5/3 379/5/3 378/5/3
f 393/6/3 378/6/3 392/6/3
f 394/5/3 374/5/3 379/5/3
f 394/5/3 379/5/3 393/5/3
f 395/5/3 374/5/3 394/5/3
f 396/7/3 384/7/3 383/7/3
f 397/7/3 384/7/3 396/7/3
f 398/7/3 388/7/3 387/7/3
f 398/1/3 387/1/3 386/1/3
f 399/7/3 388/7/3 398/7/3
f 402/1/3 398/1/3 386/1/3
f 402/10/3 399/10/3 398/10/3
f 403/10/3 399/10/3 402/10/3
f 404/7/3 401/7/3 400/7/3
f 405/7/3 401/7/3 404/7/3
f 406/4/3 386/4/3 385/4/3
f 407/1/3 402/1/3 386/1/3
f 407/4/3 386/4/3 406/4/3
f 408/7/3 403/7/3 402/7/3
f 408/1/3 402/1/3 407/1/3
f 409/7/3 403/7/3 408/7/3
f 415/6/3 412/6/3 411/6/3
f 415/6/3 411/6/3 410/6/3
f 416/6/3 412/6/3 415/6/3
f 419/5/3 414/5/3 413/5/3
f 420/6/3 418/6/3 417/6/3
f 421/5/3 419/5/3 418/5/3
f 421/6/3 418/6/3 420/6/3
f 422/5/3 419/5/3 421/5/3
f 424/6/3 422/6/3 421/6/3
f 426/6/3 424/6/3 423/6/3
f 427/6/3 422/6/3 424/6/3
f 427/6/3 424/6/3 426/6/3
f 428/5/3 419/5/3 422/5/3
f 428/6/3 422/6/3 427/6/3
f 429/5/3 414/5/3 419/5/3
f 429/5/3 419/5/3 428/5/3
f 430/5/3 414/5/3 429/5/3
f 431/6/3 427/6/3 426/6/3
f 431/6/3 426/6/3 425/6/3
f 432/5/3 428/5/3 427/5/3
f 432/6/3 427/6/3 431/6/3
f 433/6/3 429/6/3 428/6/3
f 433/5/3 428/5/3 432/5/3
f 434/6/3 429/6/3 433/6/3
f 439/1/3 436/1/3 435/1/3
f 440/7/3 437/7/3 436/7/3
f 440/1/3 436/1/3 439/1/3
f 441/7/3 437/7/3 440/7/3
f 442/7/3 437/7/3 441/7/3
f 443/7/3 437/7/3 442/7/3
f 444/1/3 439/1/3 438/1/3
f 445/1/3 439/1/3 444/1/3
f 450/1/3 447/1/3 446/1/3
f 451/1/3 447/1/3 450/1/3
f 452/1/3 449/1/3 448/1/3
f 453/1/3 449/1/3 452/1/3
f 458/1/3 454/1/3 453/1/3
f 459/7/3 457/7/3 456/7/3
f 459/1/3 454/1/3 458/1/3
f 459/7/3 456/7/3 455/7/3
f 459/7/3 455/7/3 454/7/3
f 460/7/3 457/7/3 459/7/3
f 463/6/3 462/6/3 461/6/3
f 464/6/3 462/6/3 463/6/3
f 465/6/3 462/6/3 464/6/3
f 469/6/3 467/6/3 466/6/3
f 469/6/3 468/6/3 467/6/3
f 470/6/3 468/6/3 469/6/3
f 473/6/3 472/6/3 471/6/3
f 474/6/3 472/6/3 473/6/3
f 475/6/4 476/6/4 477/6/4
f 477/6/4 476/6/4 478/6/4
f 479/6/4 480/6/4 481/6/4
f 481/6/4 480/6/4 482/6/4
f 483/6/4 484/6/4 486/6/4
f 484/5/4 485/5/4 487/5/4
f 486/6/4 484/6/4 487/6/4
f 487/5/4 485/5/4 488/5/4
f 488/5/4 485/5/4 489/5/4
f 486/5/4 487/5/4 490/5/4
f 490/5/4 487/5/4 491/5/4
f 492/5/4 493/5/4 494/5/4
f 494/5/4 493/5/4 495/5/4
f 494/6/4 495/6/4 498/6/4
f 496/5/4 497/5/4 499/5/4
f 498/6/4 495/6/4 499/6/4
f 495/5/4 496/5/4 499/5/4
f 499/5/4 497/5/4 500/5/4
f 501/6/4 502/6/4 508/6/4
f 505/7/4 506/7/4 509/7/4
f 507/6/4 508/6/4 510/6/4
f 502/5/4 503/5/4 511/5/4
f 510/6/4 508/6/4 511/6/4
f 508/6/4 502/6/4 511/6/4
f 511/5/4 503/5/4 512/5/4
f 504/1/4 505/1/4 515/1/4
f 505/7/4 509/7/4 516/7/4
f 515/1/4 505/1/4 516/1/4
f 516/7/4 509/7/4 517/7/4
f 517/7/4 509/7/4 518/7/4
f 518/7/4 509/7/4 519/7/4
f 512/5/4 503/5/4 520/5/4
f 520/5/4 503/5/4 521/5/4
f 513/7/4 514/7/4 522/7/4
f 514/1/4 515/1/4 523/1/4
f 522/7/4 514/7/4 523/7/4
f 523/1/4 515/1/4 524/1/4
f 525/1/4 526/1/4 530/1/4
f 530/1/4 526/1/4 531/1/4
f 527/7/4 528/7/4 532/7/4
f 528/1/4 529/1/4 533/1/4
f 532/7/4 528/7/4 533/7/4
f 533/1/4 529/1/4 534/1/4
f 537/7/4 538/7/4 541/7/4
f 536/7/4 537/7/4 541/7/4
f 535/7/4 536/7/4 541/7/4
f 539/5/4 540/5/4 544/5/4
f 534/1/4 535/1/4 545/1/4
f 535/7/4 541/7/4 546/7/4
f 545/1/4 535/1/4 546/1/4
f 546/7/4 541/7/4 547/7/4
f 542/6/4 543/6/4 548/6/4
f 548/6/4 543/6/4 549/6/4
f 549/6/4 543/6/4 550/6/4
f 543/5/4 544/5/4 551/5/4
f 550/6/4 543/6/4 551/6/4
f 544/5/4 540/5/4 552/5/4
f 551/5/4 544/5/4 552/5/4
f 553/5/4 554/5/4 559/5/4
f 559/5/4 554/5/4 560/5/4
f 555/4/4 556/4/4 561/4/4
f 556/1/4 557/1/4 562/1/4
f 561/4/4 556/4/4 562/4/4
f 557/7/4 558/7/4 563/7/4
f 562/1/4 557/1/4 563/1/4
f 563/7/4 558/7/4 564/7/4
f 565/5/4 566/5/4 567/5/4
f 567/5/4 566/5/4 568/5/4
f 569/6/4 570/6/4 572/6/4
f 570/5/4 571/5/4 572/5/4
f 572/5/4 571/5/4 573/5/4
f 573/5/4 571/5/4 574/5/4
f 569/6/4 572/6/4 576/6/4
f 572/6/4 573/6/4 576/6/4
f 574/5/4 575/5/4 577/5/4
f 576/6/4 573/6/4 577/6/4
f 573/5/4 574/5/4 577/5/4
f 576/5/4 577/5/4 578/5/4
f 577/5/4 575/5/4 578/5/4
f 578/5/4 575/5/4 579/5/4
f 569/6/4 576/6/4 580/6/4
f 576/5/4 578/5/4 580/5/4
f 578/6/4 579/6/4 581/6/4
f 580/5/4 578/5/4 581/5/4
f 579/5/4 575/5/4 582/5/4
f 581/6/4 579/6/4 582/6/4
f 580/6/4 581/6/4 583/6/4
f 569/6/4 580/6/4 583/6/4
f 581/5/4 582/5/4 584/5/4
f 583/6/4 581/6/4 584/6/4
f 582/5/4 575/5/4 585/5/4
f 584/5/4 582/5/4 585/5/4
f 585/5/4 575/5/4 586/5/4
f 569/6/4 583/6/4 587/6/4
f 583/5/4 584/5/4 588/5/4
f 587/6/4 583/6/4 588/6/4
f 584/5/4 585/5/4 588/5/4
f 588/5/4 585/5/4 589/5/4
f 594/7/5 591/7/5 590/7/5
f 595/7/5 591/7/5 594/7/5
f 596/7/5 593/7/5 592/7/5
f 597/7/5 593/7/5 596/7/5
f 601/4/5 599/4/5 598/4/5
f 602/4/5 599/4/5 601/4/5
f 603/4/5 599/4/5 602/4/5
f 604/4/5 599/4/5 603/4/5
f 606/1/5 601/1/5 600/1/5
f 607/1/5 601/1/5 606/1/5
f 608/4/5 603/4/5 602/4/5
f 609/4/5 603/4/5 608/4/5
f 610/1/5 605/1/5 604/1/5
f 611/1/5 605/1/5 610/1/5
f 612/4/5 609/4/5 608/4/5
f 612/4/5 610/4/5 609/4/5
f 612/4/5 608/4/5 607/4/5
f 613/4/5 610/4/5 612/4/5
f 618/6/5 615/6/5 614/6/5
f 619/6/5 617/6/5 616/6/5
f 620/6/5 618/6/5 614/6/5
f 620/6/5 619/6/5 618/6/5
f 621/6/5 617/6/5 619/6/5
f 621/6/5 619/6/5 620/6/5
f 624/1/5 623/1/5 622/1/5
f 625/1/5 623/1/5 624/1/5
f 626/1/5 624/1/5 622/1/5
f 627/1/5 623/1/5 625/1/5
f 628/1/5 624/1/5 626/1/5
f 629/1/5 627/1/5 625/1/5
f 630/1/5 628/1/5 626/1/5
f 630/1/5 629/1/5 628/1/5
f 631/1/5 627/1/5 629/1/5
f 631/1/5 629/1/5 630/1/5
f 636/6/5 633/6/5 632/6/5
f 637/6/5 633/6/5 636/6/5
f 638/6/5 635/6/5 634/6/5
f 639/6/5 635/6/5 638/6/5
f 640/2/5 637/2/5 636/2/5
f 641/2/5 637/2/5 640/2/5
f 642/2/5 639/2/5 638/2/5
f 643/2/5 639/2/5 642/2/5
f 646/6/5 645/6/5 644/6/5
f 647/6/5 645/6/5 646/6/5
f 650/6/5 649/6/5 648/6/5
f 651/6/5 649/6/5 650/6/5
f 654/6/5 653/6/5 652/6/5
f 655/6/5 653/6/5 654/6/5
f 662/6/5 657/6/5 656/6/5
f 663/6/5 657/6/5 662/6/5
f 664/6/5 659/6/5 658/6/5
f 665/6/5 659/6/5 664/6/5
f 666/6/5 661/6/5 660/6/5
f 667/6/5 661/6/5 666/6/5
f 672/6/5 669/6/5 668/6/5
f 673/6/5 669/6/5 672/6/5
f 674/6/5 671/6/5 670/6/5
f 675/6/5 671/6/5 674/6/5
f 678/5/5 677/5/5 676/5/5
f 679/5/5 677/5/5 678/5/5
f 689/6/5 681/6/5 680/6/5
f 690/6/5 681/6/5 689/6/5
f 691/6/5 683/6/5 682/6/5
f 692/6/5 685/6/5 684/6/5
f 693/6/5 687/6/5 686/6/5
f 694/6/5 687/6/5 693/6/5
f 696/6/5 689/6/5 688/6/5
f 697/5/5 690/5/5 689/5/5
f 697/6/5 689/6/5 696/6/5
f 698/5/5 690/5/5 697/5/5
f 699/5/5 694/5/5 693/5/5
f 700/6/5 695/6/5 694/6/5
f 700/5/5 694/5/5 699/5/5
f 701/6/5 695/6/5 700/6/5
f 702/6/5 691/6/5 682/6/5
f 703/6/5 691/6/5 702/6/5
f 704/6/5 685/6/5 692/6/5
f 705/6/5 685/6/5 704/6/5
f 708/5/5 707/5/5 706/5/5
f 709/5/5 707/5/5 708/5/5
f 714/6/5 711/6/5 710/6/5
f 715/6/5 711/6/5 714/6/5
f 716/6/5 713/6/5 712/6/5
f 717/6/5 713/6/5 716/6/5
f 719/5/5 715/5/5 714/5/5
f 720/5/5 715/5/5 719/5/5
f 721/5/5 717/5/5 716/5/5
f 722/5/5 717/5/5 721/5/5
f 724/6/5 720/6/5 719/6/5
f 724/6/5 719/6/5 718/6/5
f 725/6/5 720/6/5 724/6/5
f 726/6/5 722/6/5 721/6/5
f 726/6/5 723/6/5 722/6/5
f 727/6/5 723/6/5 726/6/5
f 728/7/6 729/7/6 732/7/6
f 732/7/6 729/7/6 733/7/6
f 730/7/6 731/7/6 734/7/6
f 734/7/6 731/7/6 735/7/6
f 736/7/6 737/7/6 741/7/6
f 737/10/6 738/10/6 742/10/6
f 741/7/6 737/7/6 742/7/6
f 738/7/6 739/7/6 743/7/6
f 742/10/6 738/10/6 743/10/6
f 743/7/6 739/7/6 744/7/6
f 741/7/6 742/7/6 746/7/6
f 740/7/6 741/7/6 746/7/6
f 746/7/6 742/7/6 747/7/6
f 744/7/6 745/7/6 748/7/6
f 743/7/6 744/7/6 748/7/6
f 748/7/6 745/7/6 749/7/6
f 740/7/6 746/7/6 750/7/6
f 750/7/6 746/7/6 751/7/6
f 747/7/6 742/7/6 752/7/6
f 743/7/6 748/7/6 753/7/6
f 749/7/6 745/7/6 754/7/6
f 754/7/6 745/7/6 755/7/6
f 752/7/6 753/7/6 756/7/6
f 747/7/6 752/7/6 756/7/6
f 753/7/6 748/7/6 757/7/6
f 756/7/6 753/7/6 757/7/6
f 758/6/6 759/6/6 760/6/6
f 760/6/6 759/6/6 761/6/6
f 762/5/6 763/5/6 766/5/6
f 766/5/6 763/5/6 767/5/6
f 764/6/6 765/6/6 768/6/6
f 768/6/6 765/6/6 769/6/6
f 770/5/6 771/5/6 774/5/6
f 774/5/6 771/5/6 775/5/6
f 772/5/6 773/5/6 776/5/6
f 776/5/6 773/5/6 777/5/6
f 778/5/6 779/5/6 781/5/6
f 781/5/6 779/5/6 782/5/6
f 780/5/6 781/5/6 786/5/6
f 781/5/6 782/5/6 786/5/6
f 782/5/6 783/5/6 786/5/6
f 786/5/6 783/5/6 787/5/6
f 787/5/6 783/5/6 788/5/6
f 784/6/6 785/6/6 791/6/6
f 791/6/6 785/6/6 792/6/6
f 789/6/6 790/6/6 793/6/6
f 793/6/6 790/6/6 794/6/6
f 791/5/6 792/5/6 795/5/6
f 795/5/6 792/5/6 796/5/6
f 793/5/6 794/5/6 797/5/6
f 797/5/6 794/5/6 798/5/6
f 786/5/6 787/5/6 800/5/6
f 800/5/6 787/5/6 801/5/6
f 799/5/6 800/5/6 803/5/6
f 801/5/6 802/5/6 803/5/6
f 800/5/6 801/5/6 803/5/6
f 803/5/6 802/5/6 804/5/6
f 804/5/6 802/5/6 805/5/6
f 805/5/6 802/5/6 806/5/6
f 804/5/6 805/5/6 807/5/6
f 807/5/6 805/5/6 808/5/6
f 809/5/6 810/5/6 813/5/6
f 813/5/6 810/5/6 814/5/6
f 811/5/6 812/5/6 815/5/6
f 815/5/6 812/5/6 816/5/6
