# generated by tools/rig_people.py — do not edit
mtllib people.mtl
o arm-r
usemtl palette
v 3 6 -0.5
v 3 6 1.5
v 3 8 1.5
v 3 8 -0.5
v 3 11 1.5
v 3 11 -0.5
v 3 12 1.5
v 3 12 -0.5
v 3 12 0.5
v 3 13 0.5
v 3 13 -0.5
v 3 13 1.5
v 3 14 1.5
v 3 14 -0.5
v 5 8 -0.5
v 5 8 1.5
v 5 6 1.5
v 5 6 -0.5
v 5 11 -0.5
v 5 11 1.5
v 5 12 -0.5
v 5 12 1.5
v 5 13 -0.5
v 5 13 0.5
v 5 12 0.5
v 5 14 -0.5
v 5 14 0.5
v 5 13 1.5
v 5 14 1.5
v 4 12 1.5
v 4 11 1.5
v 4 13 1.5
v 4 11 -0.5
v 4 12 -0.5
v 4 13 -0.5
v 4 14 -0.5
v 4 14 0.5
v 3 14 0.5
vt 0.9746094 0.5
vt 0.0410156 0.5
vt 0.0722656 0.5
vt 0.0761719 0.5
vt 0.0800781 0.5
vn -1 0 0
vn 1 0 0
vn 0 0 1
vn 0 0 -1
vn 0 1 0
vn 0 -1 0
f 1/1/1 2/1/1 3/1/1 4/1/1
f 4/2/1 3/2/1 5/2/1 6/2/1
f 6/3/1 5/3/1 7/3/1 8/3/1
f 8/4/1 9/4/1 10/4/1 11/4/1
f 11/3/1 12/3/1 13/3/1 14/3/1
f 9/5/1 7/5/1 12/5/1 10/5/1
f 15/1/2 16/1/2 17/1/2 18/1/2
f 19/2/2 20/2/2 16/2/2 15/2/2
f 21/5/2 22/5/2 20/5/2 19/5/2
f 23/3/2 24/3/2 25/3/2 21/3/2
f 26/4/2 27/4/2 24/4/2 23/4/2
f 24/4/2 28/4/2 22/4/2 25/4/2
f 27/3/2 29/3/2 28/3/2 24/3/2
f 16/1/3 3/1/3 2/1/3 17/1/3
f 20/2/3 5/2/3 3/2/3 16/2/3
f 22/5/3 30/5/3 31/5/3 20/5/3
f 28/4/3 32/4/3 30/4/3 22/4/3
f 29/3/3 13/3/3 12/3/3 28/3/3
f 30/3/3 7/3/3 5/3/3 31/3/3
f 32/5/3 12/5/3 7/5/3 30/5/3
f 18/1/4 1/1/4 4/1/4 15/1/4
f 15/2/4 4/2/4 6/2/4 19/2/4
f 19/5/4 33/5/4 34/5/4 21/5/4
f 21/3/4 34/3/4 35/3/4 23/3/4
f 23/4/4 35/4/4 36/4/4 26/4/4
f 33/3/4 6/3/4 8/3/4 34/3/4
f 34/4/4 8/4/4 11/4/4 35/4/4
f 35/3/4 11/3/4 14/3/4 36/3/4
f 26/4/5 36/4/5 37/4/5 27/4/5
f 27/3/5 38/3/5 13/3/5 29/3/5
f 36/3/5 14/3/5 38/3/5 37/3/5
f 17/1/6 2/1/6 1/1/6 18/1/6
