# generated by tools/rig_people.py — do not edit
mtllib people.mtl
o leg-r
usemtl palette
v 1 0 -1
v 1 0 2
v 1 1 2
v 1 1 -1
v 1 1 0
v 1 7 2
v 1 7 0
v 3 1 -1
v 3 1 2
v 3 0 2
v 3 0 -1
v 3 7 0
v 3 7 2
v 3 1 0
vt 0.5292969 0.5
vn -1 0 0
vn 1 0 0
vn 0 0 1
vn 0 0 -1
vn 0 1 0
vn 0 -1 0
f 1/1/1 2/1/1 3/1/1 4/1/1
f 5/1/1 3/1/1 6/1/1 7/1/1
f 8/1/2 9/1/2 10/1/2 11/1/2
f 12/1/2 13/1/2 9/1/2 14/1/2
f 13/1/3 6/1/3 2/1/3 10/1/3
f 11/1/4 1/1/4 4/1/4 8/1/4
f 14/1/4 5/1/4 7/1/4 12/1/4
f 8/1/5 4/1/5 5/1/5 14/1/5
f 12/1/5 7/1/5 6/1/5 13/1/5
f 10/1/6 2/1/6 1/1/6 11/1/6
