# generated by tools/rig_people.py — do not edit
mtllib people.mtl
o body
usemtl palette
v 3 14 -0.5
v 3 14 1.5
v 3 15 1.5
v 3 15 -0.5
v 2 20 -4.5
v 2 20 -3.5
v 2 21 -3.5
v 2 21 -4.5
v 1 17 -4.5
v 1 17 -3.5
v 1 19 -3.5
v 1 19 -4.5
v 1 21 -4.5
v 1 21 -3.5
v 1 22 -3.5
v 1 22 -4.5
v -1 23 -4.5
v -1 23 -3.5
v -1 24 -3.5
v -1 24 -4.5
v -1 14 -1.5
v -1 14 0.5
v -1 15 0.5
v -1 15 -1.5
v -2 24 0.5
v -2 24 1.5
v -2 25 1.5
v -2 25 0.5
v -2 23 1.5
v -2 23 4.5
v -2 26 4.5
v -2 26 1.5
v -2 21 2.5
v -2 21 3.5
v -2 23 3.5
v -2 23 2.5
v -3 15 -3.5
v -3 15 -0.5
v -3 16 -0.5
v -3 16 -3.5
v -3 16 -2.5
v -3 18 -2.5
v -3 18 -3.5
v -3 19 -2.5
v -3 19 -3.5
v -3 23 -3.5
v -3 23 1.5
v -3 24 1.5
v -3 24 -3.5
v -3 7 -2.5
v -3 7 1.5
v -3 8 1.5
v -3 8 -2.5
v -3 9 1.5
v -3 9 -2.5
v -3 9 -1.5
v -3 10 -1.5
v -3 10 -2.5
v -3 10 1.5
v -3 14 1.5
v -3 14 -2.5
v -3 9 0.5
v -3 10 0.5
v -3 22 1.5
v -3 22 2.5
v -3 23 2.5
v -4 17 -4.5
v -4 17 -3.5
v -4 20 -3.5
v -4 20 -4.5
v -4 20 2.5
v -4 22 2.5
v -4 22 -4.5
v -4 22 1.5
v -4 23 1.5
v -4 23 -4.5
v -4 19 -3.5
v -4 19 -2.5
v -4 20 -2.5
v -4 16 -2.5
v -4 16 0.5
v -4 17 0.5
v -4 17 -2.5
v -4 17 -0.5
v -4 19 -0.5
v -4 19 -1.5
v -4 20 -1.5
v -4 20 -0.5
v -4 14 -0.5
v -4 14 2.5
v -4 16 2.5
v -4 16 -0.5
v -4 17 1.5
v -4 18 1.5
v -4 18 -0.5
v -4 18 2.5
v -4 17 2.5
v 4 20 -4.5
v 4 20 -3.5
v 4 17 -3.5
v 4 17 -4.5
v 4 20 -2.5
v 4 19 -2.5
v 4 19 -3.5
v 4 22 -3.5
v 4 22 2.5
v 4 20 2.5
v 4 23 -3.5
v 4 23 1.5
v 4 22 1.5
v 4 17 -2.5
v 4 17 0.5
v 4 16 0.5
v 4 16 -2.5
v 4 19 -0.5
v 4 17 -0.5
v 4 19 2.5
v 4 16 -0.5
v 4 16 2.5
v 4 14 2.5
v 4 14 -0.5
v 4 18 -0.5
v 4 18 1.5
v 4 17 1.5
v 4 18 2.5
v 4 17 2.5
v 3 24 -4.5
v 3 24 -3.5
v 3 20 -3.5
v 3 20 -4.5
v 3 16 -3.5
v 3 16 -0.5
v 3 15 -3.5
v 3 18 -3.5
v 3 18 -2.5
v 3 16 -2.5
v 3 19 -3.5
v 3 19 -2.5
v 3 24 -2.5
v 3 23 -2.5
v 3 23 -3.5
v 3 8 -2.5
v 3 8 1.5
v 3 7 1.5
v 3 7 -2.5
v 3 9 -2.5
v 3 9 1.5
v 3 10 -2.5
v 3 10 -1.5
v 3 9 -1.5
v 3 14 -2.5
v 3 10 1.5
v 3 24 1.5
v 3 23 1.5
v 3 10 0.5
v 3 9 0.5
v 3 23 2.5
v 3 22 2.5
v 3 22 1.5
v 2 25 0.5
v 2 25 4.5
v 2 24 4.5
v 2 24 0.5
v 2 24 1.5
v 2 23 4.5
v 2 23 1.5
v 2 26 1.5
v 2 26 4.5
v 2 25 1.5
v 2 23 2.5
v 2 23 3.5
v 2 21 3.5
v 2 21 2.5
v 1 15 -1.5
v 1 15 0.5
v 1 14 0.5
v 1 14 -1.5
v -0 22 -4.5
v -0 22 -3.5
v -0 20 -3.5
v -0 20 -4.5
v -1 19 -4.5
v -1 19 -3.5
v -1 17 -3.5
v -1 17 -4.5
v -3 15 1.5
v -3 14 -0.5
v 3 17 -3.5
v -3 17 -3.5
v 4 15 2.5
v -4 15 2.5
v 3 16 2.5
v 3 15 2.5
v 2 20 2.5
v 2 17 2.5
v 3 20 2.5
v -0 16 2.5
v -0 15 2.5
v 3 21 2.5
v -1 21 2.5
v -1 20 2.5
v 2 18 2.5
v -2 18 2.5
v -2 17 2.5
v -4 21 2.5
v -2 22 2.5
v 1 20 -4.5
v 2 24 -4.5
v 1 24 -4.5
v -4 19 -4.5
v 1 23 -4.5
v -3 20 -4.5
v -3 21 -4.5
v -0 21 -4.5
v -2 21 -4.5
v -2 22 -4.5
v -4 21 -4.5
v 1 15 -3.5
v 1 16 -3.5
v 2 16 -3.5
v 2 17 -3.5
v -2 16 -3.5
v -2 17 -3.5
v -0 21 -3.5
v -1 15 -3.5
v -1 16 -3.5
v 2 10 -2.5
v 2 14 -2.5
v -2 10 -2.5
v -2 13 -2.5
v 2 13 -2.5
v -2 14 -2.5
v 1 24 0.5
v 1 25 0.5
v 2 14 1.5
v -2 14 -1.5
v 2 14 -1.5
v 2 14 0.5
v -3 14 0.5
v -2 14 0.5
v -4 23 -3.5
v -1 24 -2.5
v -1 24 0.5
v 3 24 0.5
v -3 24 -1.5
v -1 24 -1.5
v -2 24 -1.5
v 1 25 1.5
v 3 14 2.5
v -4 14 1.5
v 3 15 0.5
v -3 15 0.5
v 1 15 -2.5
v -1 15 -2.5
v -3 15 -1.5
v -3 15 -2.5
vt 0.3027344 0.5
vt 0.2949219 0.5
vt 0.5292969 0.5
vt 0.0410156 0.5
vt 0.2988281 0.5
vt 0.5449219 0.5
vt 0.2636719 0.5
vt 0.5253906 0.5
vt 0.6542969 0.5
vt 0.9785156 0.5
vn -1 0 0
vn 1 0 0
vn 0 0 1
vn 0 0 -1
vn 0 1 0
vn 0 -1 0
f 1/1/1 2/1/1 3/1/1 4/1/1
f 5/2/1 6/2/1 7/2/1 8/2/1
f 9/3/1 10/3/1 11/3/1 12/3/1
f 13/2/1 14/2/1 15/2/1 16/2/1
f 17/2/1 18/2/1 19/2/1 20/2/1
f 21/4/1 22/4/1 23/4/1 24/4/1
f 25/5/1 26/5/1 27/5/1 28/5/1
f 29/2/1 30/2/1 31/2/1 32/2/1
f 33/2/1 34/2/1 35/2/1 36/2/1
f 37/4/1 38/4/1 39/4/1 40/4/1
f 40/6/1 41/6/1 42/6/1 43/6/1
f 43/4/1 42/4/1 44/4/1 45/4/1
f 46/2/1 47/2/1 48/2/1 49/2/1
f 50/7/1 51/7/1 52/7/1 53/7/1
f 53/8/1 52/8/1 54/8/1 55/8/1
f 55/4/1 56/4/1 57/4/1 58/4/1
f 58/8/1 59/8/1 60/8/1 61/8/1
f 56/8/1 62/8/1 63/8/1 57/8/1
f 62/4/1 54/4/1 59/4/1 63/4/1
f 64/2/1 65/2/1 66/2/1 47/2/1
f 67/3/1 68/3/1 69/3/1 70/3/1
f 70/2/1 71/2/1 72/2/1 73/2/1
f 73/2/1 74/2/1 75/2/1 76/2/1
f 77/3/1 78/3/1 79/3/1 69/3/1
f 80/1/1 81/1/1 82/1/1 83/1/1
f 83/1/1 84/1/1 85/1/1 78/1/1
f 78/2/1 86/2/1 87/2/1 79/2/1
f 86/5/1 85/5/1 88/5/1 87/5/1
f 89/1/1 90/1/1 91/1/1 92/1/1
f 84/5/1 93/5/1 94/5/1 95/5/1
f 95/2/1 96/2/1 71/2/1 88/2/1
f 81/5/1 91/5/1 97/5/1 82/5/1
f 93/2/1 97/2/1 96/2/1 94/2/1
f 98/3/2 99/3/2 100/3/2 101/3/2
f 99/3/2 102/3/2 103/3/2 104/3/2
f 105/2/2 106/2/2 107/2/2 99/2/2
f 108/2/2 109/2/2 110/2/2 105/2/2
f 111/1/2 112/1/2 113/1/2 114/1/2
f 103/1/2 115/1/2 116/1/2 111/1/2
f 102/2/2 107/2/2 117/2/2 103/2/2
f 118/1/2 119/1/2 120/1/2 121/1/2
f 122/5/2 123/5/2 124/5/2 116/5/2
f 115/2/2 117/2/2 125/2/2 122/2/2
f 112/5/2 126/5/2 119/5/2 113/5/2
f 123/2/2 125/2/2 126/2/2 124/2/2
f 127/2/2 128/2/2 129/2/2 130/2/2
f 131/4/2 132/4/2 4/4/2 133/4/2
f 134/6/2 135/6/2 136/6/2 131/6/2
f 137/4/2 138/4/2 135/4/2 134/4/2
f 128/2/2 139/2/2 140/2/2 141/2/2
f 142/7/2 143/7/2 144/7/2 145/7/2
f 146/8/2 147/8/2 143/8/2 142/8/2
f 148/4/2 149/4/2 150/4/2 146/4/2
f 151/8/2 2/8/2 152/8/2 148/8/2
f 139/5/2 153/5/2 154/5/2 140/5/2
f 149/8/2 155/8/2 156/8/2 150/8/2
f 155/4/2 152/4/2 147/4/2 156/4/2
f 154/5/2 157/5/2 158/5/2 159/5/2
f 160/2/2 161/2/2 162/2/2 163/2/2
f 164/2/2 162/2/2 165/2/2 166/2/2
f 167/2/2 168/2/2 161/2/2 169/2/2
f 170/2/2 171/2/2 172/2/2 173/2/2
f 174/4/2 175/4/2 176/4/2 177/4/2
f 178/5/2 179/5/2 180/5/2 181/5/2
f 182/3/2 183/3/2 184/3/2 185/3/2
f 38/1/2 186/1/2 60/1/2 187/1/2
f 104/3/3 137/3/3 188/3/3 100/3/3
f 45/3/3 77/3/3 68/3/3 189/3/3
f 175/4/3 23/4/3 22/4/3 176/4/3
f 109/2/3 154/2/3 159/2/3 110/2/3
f 143/7/3 52/7/3 51/7/3 144/7/3
f 147/8/3 54/8/3 52/8/3 143/8/3
f 152/4/3 59/4/3 54/4/3 147/4/3
f 2/8/3 60/8/3 59/8/3 152/8/3
f 153/5/3 164/5/3 166/5/3 154/5/3
f 26/2/3 48/2/3 47/2/3 29/2/3
f 47/2/3 75/2/3 74/2/3 64/2/3
f 190/1/3 191/1/3 90/1/3 120/1/3
f 119/1/3 192/1/3 193/1/3 190/1/3
f 126/5/3 97/5/3 91/5/3 119/5/3
f 107/2/3 194/2/3 195/2/3 126/2/3
f 106/2/3 158/2/3 196/2/3 107/2/3
f 192/5/3 197/5/3 198/5/3 193/5/3
f 199/5/3 200/5/3 201/5/3 196/5/3
f 157/5/3 170/5/3 173/5/3 199/5/3
f 202/5/3 203/5/3 204/5/3 195/5/3
f 194/2/3 71/2/3 96/2/3 202/2/3
f 197/1/3 91/1/3 191/1/3 198/1/3
f 200/2/3 205/2/3 71/2/3 201/2/3
f 203/2/3 96/2/3 97/2/3 204/2/3
f 206/2/3 72/2/3 205/2/3 33/2/3
f 36/2/3 66/2/3 65/2/3 206/2/3
f 171/2/3 35/2/3 34/2/3 172/2/3
f 168/2/3 31/2/3 30/2/3 165/2/3
f 101/3/4 9/3/4 207/3/4 98/3/4
f 130/2/4 5/2/4 208/2/4 127/2/4
f 8/2/4 13/2/4 209/2/4 208/2/4
f 12/3/4 210/3/4 70/3/4 207/3/4
f 16/2/4 73/2/4 76/2/4 211/2/4
f 211/2/4 17/2/4 20/2/4 209/2/4
f 181/5/4 212/5/4 213/5/4 214/5/4
f 214/5/4 215/5/4 216/5/4 178/5/4
f 185/3/4 67/3/4 210/3/4 182/3/4
f 215/2/4 217/2/4 73/2/4 216/2/4
f 212/2/4 70/2/4 217/2/4 213/2/4
f 99/2/4 129/2/4 141/2/4 108/2/4
f 133/4/4 218/4/4 219/4/4 131/4/4
f 131/6/4 220/6/4 221/6/4 188/6/4
f 220/4/4 222/4/4 223/4/4 221/4/4
f 6/4/4 180/4/4 224/4/4 7/4/4
f 218/9/4 225/9/4 226/9/4 219/9/4
f 10/4/4 184/4/4 183/4/4 11/4/4
f 14/4/4 224/4/4 179/4/4 15/4/4
f 225/4/4 37/4/4 40/4/4 226/4/4
f 18/2/4 46/2/4 49/2/4 19/2/4
f 222/6/4 40/6/4 189/6/4 223/6/4
f 114/1/4 136/1/4 138/1/4 103/1/4
f 145/7/4 50/7/4 53/7/4 142/7/4
f 142/8/4 53/8/4 55/8/4 146/8/4
f 146/4/4 55/4/4 58/4/4 148/4/4
f 148/8/4 227/8/4 228/8/4 151/8/4
f 227/10/4 229/10/4 230/10/4 231/10/4
f 231/4/4 230/4/4 232/4/4 228/4/4
f 229/8/4 58/8/4 61/8/4 232/8/4
f 41/1/4 80/1/4 78/1/4 44/1/4
f 177/4/4 21/4/4 24/4/4 174/4/4
f 121/1/4 1/1/4 132/1/4 118/1/4
f 187/1/4 89/1/4 92/1/4 39/1/4
f 163/2/4 233/2/4 234/2/4 160/2/4
f 233/5/4 25/5/4 28/5/4 234/5/4
f 2/1/4 60/1/4 186/1/4 3/1/4
f 169/2/4 27/2/4 32/2/4 167/2/4
f 151/8/5 228/8/5 235/8/5 2/8/5
f 228/4/5 232/4/5 236/4/5 237/4/5
f 237/4/5 177/4/5 176/4/5 238/4/5
f 238/8/5 239/8/5 60/8/5 235/8/5
f 21/4/5 236/4/5 240/4/5 22/4/5
f 232/8/5 61/8/5 239/8/5 240/8/5
f 98/3/5 130/3/5 129/3/5 99/3/5
f 5/3/5 181/3/5 180/3/5 6/3/5
f 110/2/5 159/2/5 158/2/5 106/2/5
f 64/2/5 74/2/5 72/2/5 65/2/5
f 108/2/5 141/2/5 154/2/5 109/2/5
f 154/5/5 166/5/5 170/5/5 157/5/5
f 17/2/5 76/2/5 241/2/5 18/2/5
f 29/2/5 47/2/5 66/2/5 36/2/5
f 46/2/5 241/2/5 75/2/5 47/2/5
f 127/2/5 20/2/5 242/2/5 139/2/5
f 139/5/5 242/5/5 243/5/5 244/5/5
f 244/5/5 163/5/5 164/5/5 153/5/5
f 19/2/5 49/2/5 245/2/5 246/2/5
f 246/5/5 247/5/5 25/5/5 243/5/5
f 247/2/5 245/2/5 48/2/5 26/2/5
f 160/2/5 234/2/5 248/2/5 169/2/5
f 234/5/5 28/5/5 27/5/5 248/5/5
f 167/2/5 32/2/5 31/2/5 168/2/5
f 144/7/6 51/7/6 50/7/6 145/7/6
f 120/1/6 249/1/6 1/1/6 121/1/6
f 249/1/6 90/1/6 250/1/6 2/1/6
f 60/1/6 250/1/6 89/1/6 187/1/6
f 251/4/6 175/4/6 218/4/6 133/4/6
f 3/5/6 186/5/6 252/5/6 251/5/6
f 253/9/6 254/9/6 225/9/6 218/9/6
f 174/4/6 255/4/6 256/4/6 253/4/6
f 254/4/6 256/4/6 37/4/6 225/4/6
f 23/4/6 252/4/6 255/4/6 24/4/6
f 118/1/6 132/1/6 136/1/6 114/1/6
f 39/1/6 92/1/6 80/1/6 41/1/6
f 100/3/6 10/3/6 9/3/6 101/3/6
f 184/3/6 68/3/6 67/3/6 185/3/6
f 103/3/6 138/3/6 137/3/6 104/3/6
f 11/3/6 183/3/6 182/3/6 12/3/6
f 44/3/6 78/3/6 77/3/6 45/3/6
f 7/2/6 14/2/6 13/2/6 8/2/6
f 172/2/6 34/2/6 33/2/6 173/2/6
f 15/2/6 179/2/6 178/2/6 16/2/6
f 165/2/6 30/2/6 35/2/6 171/2/6
