# generated by tools/rig_people.py — do not edit
mtllib people.mtl
o body
usemtl palette
v 2 20 -4.5
v 2 20 -3.5
v 2 21 -3.5
v 2 21 -4.5
v 1 19 -4.5
v 1 19 -3.5
v 1 20 -3.5
v 1 20 -4.5
v 1 21 -4.5
v 1 21 -3.5
v 1 22 -3.5
v 1 22 -4.5
v -1 23 -4.5
v -1 23 -3.5
v -1 24 -3.5
v -1 24 -4.5
v -1 14 -1.5
v -1 14 0.5
v -1 15 0.5
v -1 15 -1.5
v -2 24 0.5
v -2 24 4.5
v -2 25 4.5
v -2 25 0.5
v -2 23 1.5
v -2 23 4.5
v -2 24 1.5
v -2 25 1.5
v -2 26 4.5
v -2 26 1.5
v -2 21 2.5
v -2 21 3.5
v -2 23 3.5
v -2 23 2.5
v -3 19 -4.5
v -3 19 -3.5
v -3 20 -3.5
v -3 20 -4.5
v -3 15 -3.5
v -3 15 -0.5
v -3 16 -0.5
v -3 16 -3.5
v -3 16 -2.5
v -3 18 -2.5
v -3 18 -3.5
v -3 20 -2.5
v -3 23 -3.5
v -3 23 1.5
v -3 24 1.5
v -3 24 -3.5
v -3 7 -2.5
v -3 7 1.5
v -3 8 1.5
v -3 8 -2.5
v -3 8 -1.5
v -3 10 -1.5
v -3 10 -2.5
v -3 10 1.5
v -3 13 1.5
v -3 13 -2.5
v -3 14 1.5
v -3 14 -2.5
v -3 8 0.5
v -3 10 0.5
v -3 22 1.5
v -3 22 2.5
v -3 23 2.5
v -4 20 -4.5
v -4 20 2.5
v -4 22 2.5
v -4 22 -4.5
v -4 22 1.5
v -4 23 1.5
v -4 23 -4.5
v -4 16 -2.5
v -4 16 -1.5
v -4 20 -1.5
v -4 20 -2.5
v -4 16 -0.5
v -4 19 -0.5
v -4 19 -1.5
v -4 19 2.5
v -4 15 -0.5
v -4 15 2.5
v 4 22 -3.5
v 4 22 2.5
v 4 19 2.5
v 4 19 -3.5
v 4 23 -3.5
v 4 23 1.5
v 4 22 1.5
v 4 19 -2.5
v 4 19 -1.5
v 4 16 -1.5
v 4 16 -2.5
v 4 19 -0.5
v 4 16 -0.5
v 4 15 2.5
v 4 15 -0.5
v 3 20 -4.5
v 3 20 -3.5
v 3 19 -3.5
v 3 19 -4.5
v 3 24 -4.5
v 3 24 -3.5
v 3 16 -3.5
v 3 16 -0.5
v 3 15 -0.5
v 3 15 -3.5
v 3 18 -3.5
v 3 18 -2.5
v 3 16 -2.5
v 3 19 -2.5
v 3 24 1.5
v 3 23 1.5
v 3 23 -3.5
v 3 8 -2.5
v 3 8 1.5
v 3 7 1.5
v 3 7 -2.5
v 3 10 -2.5
v 3 10 -1.5
v 3 8 -1.5
v 3 13 -2.5
v 3 13 1.5
v 3 10 1.5
v 3 14 -2.5
v 3 14 1.5
v 3 10 0.5
v 3 8 0.5
v 3 23 2.5
v 3 22 2.5
v 3 22 1.5
v 2 25 0.5
v 2 25 4.5
v 2 24 4.5
v 2 24 0.5
v 2 24 1.5
v 2 23 4.5
v 2 23 1.5
v 2 26 1.5
v 2 26 4.5
v 2 25 1.5
v 2 23 2.5
v 2 23 3.5
v 2 21 3.5
v 2 21 2.5
v 1 15 -1.5
v 1 15 0.5
v 1 14 0.5
v 1 14 -1.5
v -0 22 -4.5
v -0 22 -3.5
v -0 20 -3.5
v -0 20 -4.5
v -1 20 -4.5
v -1 20 -3.5
v -1 19 -3.5
v -1 19 -4.5
v 4 21 2.5
v -4 21 2.5
v 2 22 2.5
v -2 22 2.5
v 2 24 -4.5
v 1 24 -4.5
v 1 23 -4.5
v 1 15 -3.5
v 1 16 -3.5
v 2 16 -3.5
v 2 18 -3.5
v 2 19 -3.5
v 1 18 -3.5
v -0 21 -3.5
v -1 15 -3.5
v -1 16 -3.5
v -1 17 -3.5
v 1 17 -3.5
v -2 17 -3.5
v -2 18 -3.5
v -1 18 -3.5
v -2 16 -3.5
v -2 19 -3.5
v -3 14 -1.5
v 3 14 -1.5
v 1 14 1.5
v -3 14 0.5
v -4 23 -3.5
v -1 24 0.5
v 3 24 0.5
v -3 24 0.5
v 3 15 2.5
v 3 15 1.5
v 1 15 1.5
v -4 15 1.5
v 1 15 -2.5
v -1 15 -2.5
v -3 15 -1.5
v -3 15 -2.5
v -3 15 1.5
v -3 15 0.5
v 3 16 -1.5
v -3 16 -1.5
vt 0.6855469 0.5
vt 0.1972656 0.5
vt 0.0410156 0.5
vt 0.5449219 0.5
vt 0.5214844 0.5
vt 0.6777344 0.5
vt 0.5253906 0.5
vt 0.4785156 0.5
vt 0.9746094 0.5
vn -1 0 0
vn 1 0 0
vn 0 0 1
vn 0 0 -1
vn 0 1 0
vn 0 -1 0
f 1/1/1 2/1/1 3/1/1 4/1/1
f 5/2/1 6/2/1 7/2/1 8/2/1
f 9/1/1 10/1/1 11/1/1 12/1/1
f 13/1/1 14/1/1 15/1/1 16/1/1
f 17/3/1 18/3/1 19/3/1 20/3/1
f 21/1/1 22/1/1 23/1/1 24/1/1
f 25/1/1 26/1/1 22/1/1 27/1/1
f 28/1/1 23/1/1 29/1/1 30/1/1
f 31/1/1 32/1/1 33/1/1 34/1/1
f 35/2/1 36/2/1 37/2/1 38/2/1
f 39/3/1 40/3/1 41/3/1 42/3/1
f 42/4/1 43/4/1 44/4/1 45/4/1
f 45/3/1 44/3/1 46/3/1 37/3/1
f 47/1/1 48/1/1 49/1/1 50/1/1
f 51/5/1 52/5/1 53/5/1 54/5/1
f 54/3/1 55/3/1 56/3/1 57/3/1
f 57/6/1 58/6/1 59/6/1 60/6/1
f 60/3/1 59/3/1 61/3/1 62/3/1
f 55/6/1 63/6/1 64/6/1 56/6/1
f 63/3/1 53/3/1 58/3/1 64/3/1
f 65/1/1 66/1/1 67/1/1 48/1/1
f 68/1/1 69/1/1 70/1/1 71/1/1
f 71/1/1 72/1/1 73/1/1 74/1/1
f 75/1/1 76/1/1 77/1/1 78/1/1
f 76/3/1 79/3/1 80/3/1 81/3/1
f 81/1/1 82/1/1 69/1/1 77/1/1
f 83/1/1 84/1/1 82/1/1 80/1/1
f 85/1/2 86/1/2 87/1/2 88/1/2
f 89/1/2 90/1/2 91/1/2 85/1/2
f 92/1/2 93/1/2 94/1/2 95/1/2
f 93/3/2 96/3/2 97/3/2 94/3/2
f 96/1/2 87/1/2 98/1/2 99/1/2
f 100/2/2 101/2/2 102/2/2 103/2/2
f 104/1/2 105/1/2 101/1/2 100/1/2
f 106/3/2 107/3/2 108/3/2 109/3/2
f 110/4/2 111/4/2 112/4/2 106/4/2
f 102/3/2 113/3/2 111/3/2 110/3/2
f 105/1/2 114/1/2 115/1/2 116/1/2
f 117/5/2 118/5/2 119/5/2 120/5/2
f 121/3/2 122/3/2 123/3/2 117/3/2
f 124/6/2 125/6/2 126/6/2 121/6/2
f 127/3/2 128/3/2 125/3/2 124/3/2
f 122/6/2 129/6/2 130/6/2 123/6/2
f 129/3/2 126/3/2 118/3/2 130/3/2
f 115/1/2 131/1/2 132/1/2 133/1/2
f 134/1/2 135/1/2 136/1/2 137/1/2
f 138/1/2 136/1/2 139/1/2 140/1/2
f 141/1/2 142/1/2 135/1/2 143/1/2
f 144/1/2 145/1/2 146/1/2 147/1/2
f 148/3/2 149/3/2 150/3/2 151/3/2
f 152/1/2 153/1/2 154/1/2 155/1/2
f 156/2/2 157/2/2 158/2/2 159/2/2
f 149/3/3 19/3/3 18/3/3 150/3/3
f 90/1/3 115/1/3 133/1/3 91/1/3
f 118/5/3 53/5/3 52/5/3 119/5/3
f 126/3/3 58/3/3 53/3/3 118/3/3
f 125/6/3 59/6/3 58/6/3 126/6/3
f 128/3/3 61/3/3 59/3/3 125/3/3
f 114/1/3 138/1/3 140/1/3 115/1/3
f 27/1/3 49/1/3 48/1/3 25/1/3
f 48/1/3 73/1/3 72/1/3 65/1/3
f 160/1/3 161/1/3 84/1/3 98/1/3
f 86/1/3 162/1/3 147/1/3 160/1/3
f 131/1/3 144/1/3 162/1/3 132/1/3
f 163/1/3 70/1/3 161/1/3 31/1/3
f 34/1/3 67/1/3 66/1/3 163/1/3
f 145/1/3 33/1/3 32/1/3 146/1/3
f 142/1/3 29/1/3 26/1/3 139/1/3
f 103/2/4 5/2/4 8/2/4 100/2/4
f 100/1/4 1/1/4 164/1/4 104/1/4
f 4/1/4 9/1/4 165/1/4 164/1/4
f 12/1/4 71/1/4 74/1/4 166/1/4
f 166/1/4 13/1/4 16/1/4 165/1/4
f 155/1/4 68/1/4 71/1/4 152/1/4
f 159/2/4 35/2/4 38/2/4 156/2/4
f 88/1/4 102/1/4 116/1/4 89/1/4
f 109/3/4 167/3/4 168/3/4 106/3/4
f 106/4/4 169/4/4 170/4/4 110/4/4
f 110/3/4 170/3/4 171/3/4 102/3/4
f 169/3/4 168/3/4 172/3/4 170/3/4
f 170/7/4 172/7/4 6/7/4 171/7/4
f 2/3/4 154/3/4 173/3/4 3/3/4
f 167/8/4 174/8/4 175/8/4 168/8/4
f 168/9/4 175/9/4 176/9/4 177/9/4
f 177/3/4 178/3/4 179/3/4 172/3/4
f 172/3/4 180/3/4 157/3/4 7/3/4
f 10/3/4 173/3/4 153/3/4 11/3/4
f 174/3/4 39/3/4 42/3/4 175/3/4
f 175/3/4 181/3/4 178/3/4 176/3/4
f 180/7/4 179/7/4 182/7/4 158/7/4
f 14/1/4 47/1/4 50/1/4 15/1/4
f 181/4/4 42/4/4 45/4/4 179/4/4
f 179/3/4 45/3/4 36/3/4 182/3/4
f 95/1/4 112/1/4 113/1/4 92/1/4
f 120/5/4 51/5/4 54/5/4 117/5/4
f 117/3/4 54/3/4 57/3/4 121/3/4
f 121/6/4 57/6/4 60/6/4 124/6/4
f 124/3/4 60/3/4 62/3/4 127/3/4
f 43/1/4 75/1/4 78/1/4 46/1/4
f 151/3/4 17/3/4 20/3/4 148/3/4
f 99/1/4 108/1/4 107/1/4 97/1/4
f 40/1/4 83/1/4 79/1/4 41/1/4
f 137/1/4 21/1/4 24/1/4 134/1/4
f 143/1/4 28/1/4 30/1/4 141/1/4
f 127/3/5 62/3/5 183/3/5 184/3/5
f 184/3/5 151/3/5 185/3/5 128/3/5
f 150/3/5 186/3/5 61/3/5 185/3/5
f 17/3/5 183/3/5 186/3/5 18/3/5
f 1/2/5 8/2/5 7/2/5 2/2/5
f 91/1/5 133/1/5 132/1/5 86/1/5
f 65/1/5 72/1/5 70/1/5 66/1/5
f 89/1/5 116/1/5 115/1/5 90/1/5
f 115/1/5 140/1/5 144/1/5 131/1/5
f 13/1/5 74/1/5 187/1/5 14/1/5
f 25/1/5 48/1/5 67/1/5 34/1/5
f 47/1/5 187/1/5 73/1/5 48/1/5
f 104/1/5 16/1/5 188/1/5 189/1/5
f 189/1/5 137/1/5 138/1/5 114/1/5
f 15/1/5 50/1/5 190/1/5 188/1/5
f 21/1/5 190/1/5 49/1/5 27/1/5
f 134/1/5 24/1/5 28/1/5 143/1/5
f 141/1/5 30/1/5 29/1/5 142/1/5
f 119/5/6 52/5/6 51/5/6 120/5/6
f 98/1/6 191/1/6 108/1/6 99/1/6
f 192/3/6 193/3/6 167/3/6 109/3/6
f 191/1/6 84/1/6 194/1/6 192/1/6
f 195/8/6 196/8/6 174/8/6 167/8/6
f 148/3/6 197/3/6 198/3/6 195/3/6
f 193/3/6 199/3/6 200/3/6 149/3/6
f 196/3/6 198/3/6 39/3/6 174/3/6
f 19/3/6 200/3/6 197/3/6 20/3/6
f 199/1/6 194/1/6 83/1/6 40/1/6
f 94/1/6 201/1/6 112/1/6 95/1/6
f 97/3/6 107/3/6 201/3/6 94/3/6
f 202/1/6 76/1/6 75/1/6 43/1/6
f 41/3/6 79/3/6 76/3/6 202/3/6
f 92/1/6 113/1/6 102/1/6 88/1/6
f 102/2/6 6/2/6 5/2/6 103/2/6
f 158/2/6 36/2/6 35/2/6 159/2/6
f 154/1/6 157/1/6 156/1/6 155/1/6
f 46/1/6 78/1/6 68/1/6 38/1/6
f 3/1/6 10/1/6 9/1/6 4/1/6
f 146/1/6 32/1/6 31/1/6 147/1/6
f 11/1/6 153/1/6 152/1/6 12/1/6
f 139/1/6 26/1/6 33/1/6 145/1/6
