# MagicaVoxel @ Ephtracy

# group
o 

# material
mtllib Character-7.mtl
usemtl palette

# normals
vn -1 0 0
vn 1 0 0
vn 0 0 1
vn 0 0 -1
vn 0 -1 0
vn 0 1 0

# texcoords
vt 0.0371094 0.5
vt 0.0488281 0.5
vt 0.259766 0.5
vt 0.525391 0.5
vt 0.541016 0.5
vt 0.548828 0.5
vt 0.560547 0.5
vt 0.806641 0.5
vt 0.873047 0.5
vt 0.974609 0.5

# verts
v 3.5 1.4 0.8
v 3.5 1.4 0.5
v 3.5 2.1 0.8
v 3.5 2.1 0.5
v 3.6 2.1 0.8
v 3.6 2.1 0.5
v 3.6 2.2 0.8
v 3.6 2.2 0.5
v 3.7 0.6 0.8
v 3.7 0.6 0.6
v 3.7 0.8 0.8
v 3.7 0.8 0.6
v 3.7 1.4 0.8
v 3.7 1.4 0.6
v 3.8 1.4 0.9
v 3.8 1.4 0.8
v 3.8 1.5 0.7
v 3.8 1.5 0.4
v 3.8 1.6 0.8
v 3.8 1.6 0.7
v 3.8 1.9 1
v 3.8 1.9 0.9
v 3.8 1.9 0.8
v 3.8 1.9 0.7
v 3.8 1.9 0.5
v 3.8 2.2 0.8
v 3.8 2.2 0.5
v 3.8 2.2 0.4
v 3.8 2.3 1
v 3.8 2.3 0.5
v 3.9 0 0.9
v 3.9 0 0.6
v 3.9 0.1 0.9
v 3.9 0.1 0.8
v 3.9 0.1 0.6
v 3.9 0.2 0.8
v 3.9 0.2 0.6
v 3.9 0.3 0.8
v 3.9 0.3 0.6
v 3.9 0.6 0.9
v 3.9 0.6 0.8
v 3.9 0.6 0.6
v 3.9 0.6 0.5
v 3.9 0.8 0.9
v 3.9 0.8 0.8
v 3.9 0.8 0.6
v 3.9 0.8 0.5
v 3.9 0.9 0.9
v 3.9 0.9 0.8
v 3.9 0.9 0.6
v 3.9 0.9 0.5
v 3.9 1.4 0.9
v 3.9 1.4 0.8
v 3.9 1.4 0.6
v 3.9 1.4 0.5
v 3.9 1.5 1
v 3.9 1.5 0.9
v 3.9 1.5 0.8
v 3.9 1.5 0.7
v 3.9 1.6 1
v 3.9 1.6 0.9
v 3.9 1.6 0.8
v 3.9 1.6 0.7
v 3.9 1.8 1
v 3.9 1.8 0.9
v 3.9 1.9 1.1
v 3.9 1.9 1
v 3.9 1.9 0.9
v 3.9 2.2 0.5
v 3.9 2.2 0.4
v 3.9 2.3 1
v 3.9 2.3 0.5
v 3.9 2.3 0.4
v 3.9 2.4 1.1
v 3.9 2.4 0.5
v 4.1 1.4 0.8
v 4.1 1.4 0.6
v 4.1 1.5 0.8
v 4.1 1.5 0.6
v 4.2 2 1.1
v 4.2 2 1
v 4.2 2.2 1.1
v 4.2 2.2 1
v 4.3 0 0.9
v 4.3 0 0.6
v 4.3 0.1 0.9
v 4.3 0.1 0.8
v 4.3 0.1 0.6
v 4.3 0.2 0.8
v 4.3 0.2 0.6
v 4.3 0.3 0.8
v 4.3 0.3 0.6
v 4.3 0.6 0.8
v 4.3 0.6 0.6
v 4.3 1.9 1.1
v 4.3 1.9 1
v 4.3 2 1.1
v 4.3 2 1
v 4.5 1.4 0.9
v 4.5 1.4 0.8
v 4.5 1.5 0.9
v 4.5 1.5 0.8
v 4.7 1.4 0.8
v 4.7 1.4 0.6
v 4.7 1.4 0.5
v 4.7 1.6 0.8
v 4.7 1.6 0.5
v 4.7 1.7 0.8
v 4.7 1.7 0.5
v 4.7 1.9 0.8
v 4.7 1.9 0.5
v 4.8 1.6 0.8
v 4.8 1.6 0.5
v 4.8 1.7 0.8
v 4.8 1.7 0.5
v 3.6 1.6 0.8
v 3.6 1.6 0.5
v 3.6 1.7 0.8
v 3.6 1.7 0.5
v 3.7 1.4 0.8
v 3.7 1.4 0.6
v 3.7 1.4 0.5
v 3.7 1.6 0.8
v 3.7 1.6 0.5
v 3.7 1.7 0.8
v 3.7 1.7 0.5
v 3.7 1.9 0.8
v 3.7 1.9 0.5
v 3.9 1.4 0.9
v 3.9 1.4 0.8
v 3.9 1.5 0.9
v 3.9 1.5 0.8
v 4 2 1.1
v 4 2 1
v 4 2.1 1.1
v 4 2.1 1
v 4.1 0 0.9
v 4.1 0 0.6
v 4.1 0.1 0.9
v 4.1 0.1 0.8
v 4.1 0.1 0.6
v 4.1 0.2 0.8
v 4.1 0.2 0.6
v 4.1 0.3 0.8
v 4.1 0.3 0.6
v 4.1 0.6 0.8
v 4.1 0.6 0.6
v 4.1 1.9 1.1
v 4.1 1.9 1
v 4.1 2 1.1
v 4.1 2 1
v 4.1 2.1 1.1
v 4.1 2.1 1
v 4.1 2.2 1.1
v 4.1 2.2 1
v 4.3 1.4 0.8
v 4.3 1.4 0.6
v 4.3 1.5 0.8
v 4.3 1.5 0.6
v 4.3 2.3 1.1
v 4.3 2.3 1
v 4.3 2.4 1.1
v 4.3 2.4 1
v 4.5 0 0.9
v 4.5 0 0.6
v 4.5 0.1 0.9
v 4.5 0.1 0.8
v 4.5 0.1 0.6
v 4.5 0.2 0.8
v 4.5 0.2 0.6
v 4.5 0.3 0.8
v 4.5 0.3 0.6
v 4.5 0.6 0.9
v 4.5 0.6 0.8
v 4.5 0.6 0.6
v 4.5 0.6 0.5
v 4.5 0.8 0.9
v 4.5 0.8 0.8
v 4.5 0.8 0.6
v 4.5 0.8 0.5
v 4.5 0.9 0.9
v 4.5 0.9 0.8
v 4.5 0.9 0.6
v 4.5 0.9 0.5
v 4.5 1.4 0.9
v 4.5 1.4 0.8
v 4.5 1.4 0.6
v 4.5 1.4 0.5
v 4.5 1.5 1
v 4.5 1.5 0.9
v 4.5 1.5 0.8
v 4.5 1.5 0.7
v 4.5 1.6 1
v 4.5 1.6 0.9
v 4.5 1.6 0.8
v 4.5 1.6 0.7
v 4.5 1.8 1
v 4.5 1.8 0.9
v 4.5 1.9 1.1
v 4.5 1.9 1
v 4.5 2 1.1
v 4.5 2 1
v 4.5 2 0.9
v 4.5 2.2 0.5
v 4.5 2.2 0.4
v 4.5 2.3 1
v 4.5 2.3 0.5
v 4.5 2.3 0.4
v 4.5 2.4 1
v 4.5 2.4 0.5
v 4.6 1.4 0.9
v 4.6 1.4 0.8
v 4.6 1.5 0.7
v 4.6 1.5 0.4
v 4.6 1.6 0.8
v 4.6 1.6 0.7
v 4.6 1.9 0.8
v 4.6 1.9 0.7
v 4.6 1.9 0.5
v 4.6 2 1.1
v 4.6 2 0.9
v 4.6 2.2 0.8
v 4.6 2.2 0.5
v 4.6 2.2 0.4
v 4.6 2.3 1.1
v 4.6 2.3 0.5
v 4.7 0.6 0.8
v 4.7 0.6 0.6
v 4.7 0.8 0.8
v 4.7 0.8 0.6
v 4.7 1.4 0.8
v 4.7 1.4 0.6
v 4.8 2.1 0.8
v 4.8 2.1 0.5
v 4.8 2.2 0.8
v 4.8 2.2 0.5
v 4.9 1.4 0.8
v 4.9 1.4 0.5
v 4.9 2.1 0.8
v 4.9 2.1 0.5
v 3.9 1.9 1.1
v 3.9 2.4 1.1
v 4 2 1.1
v 4 2.1 1.1
v 4.1 1.9 1.1
v 4.1 2 1.1
v 4.1 2.1 1.1
v 4.1 2.2 1.1
v 4.2 2 1.1
v 4.2 2.2 1.1
v 4.3 1.9 1.1
v 4.3 2 1.1
v 4.3 2.3 1.1
v 4.3 2.4 1.1
v 4.5 1.9 1.1
v 4.5 2 1.1
v 4.6 2 1.1
v 4.6 2.3 1.1
v 3.8 1.9 1
v 3.8 2.3 1
v 3.9 1.5 1
v 3.9 1.6 1
v 3.9 1.8 1
v 3.9 1.9 1
v 3.9 2.3 1
v 4 1.6 1
v 4 1.8 1
v 4 1.9 1
v 4 2 1
v 4 2.1 1
v 4.1 1.5 1
v 4.1 1.6 1
v 4.1 1.8 1
v 4.1 1.9 1
v 4.1 2 1
v 4.1 2.1 1
v 4.1 2.2 1
v 4.2 2 1
v 4.2 2.2 1
v 4.3 1.5 1
v 4.3 1.6 1
v 4.3 1.8 1
v 4.3 1.9 1
v 4.3 2 1
v 4.3 2.3 1
v 4.3 2.4 1
v 4.4 1.6 1
v 4.4 1.8 1
v 4.4 1.9 1
v 4.5 1.5 1
v 4.5 1.6 1
v 4.5 1.8 1
v 4.5 1.9 1
v 4.5 2.3 1
v 4.5 2.4 1
v 3.8 1.4 0.9
v 3.8 1.9 0.9
v 3.9 0 0.9
v 3.9 0.1 0.9
v 3.9 0.6 0.9
v 3.9 0.8 0.9
v 3.9 0.9 0.9
v 3.9 1.4 0.9
v 3.9 1.5 0.9
v 3.9 1.6 0.9
v 3.9 1.8 0.9
v 3.9 1.9 0.9
v 4.1 0 0.9
v 4.1 0.1 0.9
v 4.1 0.9 0.9
v 4.1 1 0.9
v 4.1 1.1 0.9
v 4.1 1.2 0.9
v 4.1 1.3 0.9
v 4.1 1.4 0.9
v 4.3 0 0.9
v 4.3 0.1 0.9
v 4.3 0.9 0.9
v 4.3 1 0.9
v 4.3 1.1 0.9
v 4.3 1.2 0.9
v 4.3 1.3 0.9
v 4.3 1.4 0.9
v 4.5 0 0.9
v 4.5 0.1 0.9
v 4.5 0.6 0.9
v 4.5 0.8 0.9
v 4.5 0.9 0.9
v 4.5 1.4 0.9
v 4.5 1.5 0.9
v 4.5 1.6 0.9
v 4.5 1.8 0.9
v 4.5 2 0.9
v 4.6 1.4 0.9
v 4.6 2 0.9
v 3.5 1.4 0.8
v 3.5 2.1 0.8
v 3.6 1.6 0.8
v 3.6 1.7 0.8
v 3.6 2.1 0.8
v 3.6 2.2 0.8
v 3.7 0.6 0.8
v 3.7 0.8 0.8
v 3.7 1.4 0.8
v 3.7 1.6 0.8
v 3.7 1.7 0.8
v 3.7 1.9 0.8
v 3.8 1.4 0.8
v 3.8 1.9 0.8
v 3.8 2.2 0.8
v 3.9 0.1 0.8
v 3.9 0.2 0.8
v 3.9 0.3 0.8
v 3.9 0.6 0.8
v 3.9 0.8 0.8
v 3.9 0.9 0.8
v 3.9 1.4 0.8
v 4.1 0.1 0.8
v 4.1 0.2 0.8
v 4.1 0.3 0.8
v 4.1 0.6 0.8
v 4.1 1.4 0.8
v 4.1 1.5 0.8
v 4.3 0.1 0.8
v 4.3 0.2 0.8
v 4.3 0.3 0.8
v 4.3 0.6 0.8
v 4.3 1.4 0.8
v 4.3 1.5 0.8
v 4.5 0.1 0.8
v 4.5 0.2 0.8
v 4.5 0.3 0.8
v 4.5 0.6 0.8
v 4.5 0.8 0.8
v 4.5 0.9 0.8
v 4.5 1.4 0.8
v 4.6 1.4 0.8
v 4.6 1.9 0.8
v 4.6 2.2 0.8
v 4.7 0.6 0.8
v 4.7 0.8 0.8
v 4.7 1.4 0.8
v 4.7 1.6 0.8
v 4.7 1.7 0.8
v 4.7 1.9 0.8
v 4.8 1.6 0.8
v 4.8 1.7 0.8
v 4.8 2.1 0.8
v 4.8 2.2 0.8
v 4.9 1.4 0.8
v 4.9 2.1 0.8
v 3.8 1.5 0.7
v 3.8 1.6 0.7
v 3.9 1.5 0.7
v 3.9 1.6 0.7
v 4.5 1.5 0.7
v 4.5 1.6 0.7
v 4.6 1.5 0.7
v 4.6 1.6 0.7
v 3.8 1.4 0.8
v 3.8 1.6 0.8
v 3.9 1.4 0.8
v 3.9 1.5 0.8
v 3.9 1.6 0.8
v 4.5 1.4 0.8
v 4.5 1.5 0.8
v 4.5 1.6 0.8
v 4.6 1.4 0.8
v 4.6 1.6 0.8
v 3.7 0.6 0.6
v 3.7 0.8 0.6
v 3.7 1.4 0.6
v 3.9 0 0.6
v 3.9 0.1 0.6
v 3.9 0.2 0.6
v 3.9 0.3 0.6
v 3.9 0.6 0.6
v 3.9 0.8 0.6
v 3.9 0.9 0.6
v 3.9 1.4 0.6
v 4.1 0 0.6
v 4.1 0.1 0.6
v 4.1 0.2 0.6
v 4.1 0.3 0.6
v 4.1 0.6 0.6
v 4.1 1.4 0.6
v 4.1 1.5 0.6
v 4.3 0 0.6
v 4.3 0.1 0.6
v 4.3 0.2 0.6
v 4.3 0.3 0.6
v 4.3 0.6 0.6
v 4.3 1.4 0.6
v 4.3 1.5 0.6
v 4.5 0 0.6
v 4.5 0.1 0.6
v 4.5 0.2 0.6
v 4.5 0.3 0.6
v 4.5 0.6 0.6
v 4.5 0.8 0.6
v 4.5 0.9 0.6
v 4.5 1.4 0.6
v 4.7 0.6 0.6
v 4.7 0.8 0.6
v 4.7 1.4 0.6
v 3.5 1.4 0.5
v 3.5 2.1 0.5
v 3.6 1.6 0.5
v 3.6 1.7 0.5
v 3.6 2.1 0.5
v 3.6 2.2 0.5
v 3.7 1.4 0.5
v 3.7 1.6 0.5
v 3.7 1.7 0.5
v 3.7 1.9 0.5
v 3.8 1.9 0.5
v 3.8 2.2 0.5
v 3.8 2.3 0.5
v 3.9 0.6 0.5
v 3.9 0.8 0.5
v 3.9 0.9 0.5
v 3.9 1.4 0.5
v 3.9 2.2 0.5
v 3.9 2.3 0.5
v 3.9 2.4 0.5
v 4.5 0.6 0.5
v 4.5 0.8 0.5
v 4.5 0.9 0.5
v 4.5 1.4 0.5
v 4.5 2.2 0.5
v 4.5 2.3 0.5
v 4.5 2.4 0.5
v 4.6 1.9 0.5
v 4.6 2.2 0.5
v 4.6 2.3 0.5
v 4.7 1.4 0.5
v 4.7 1.6 0.5
v 4.7 1.7 0.5
v 4.7 1.9 0.5
v 4.8 1.6 0.5
v 4.8 1.7 0.5
v 4.8 2.1 0.5
v 4.8 2.2 0.5
v 4.9 1.4 0.5
v 4.9 2.1 0.5
v 3.8 1.5 0.4
v 3.8 2.2 0.4
v 3.9 2.2 0.4
v 3.9 2.3 0.4
v 4.5 2.2 0.4
v 4.5 2.3 0.4
v 4.6 1.5 0.4
v 4.6 2.2 0.4
v 3.9 0 0.9
v 4.1 0 0.9
v 4.3 0 0.9
v 4.5 0 0.9
v 3.9 0 0.6
v 4.1 0 0.6
v 4.3 0 0.6
v 4.5 0 0.6
v 3.9 0.6 0.9
v 4.5 0.6 0.9
v 3.7 0.6 0.8
v 3.9 0.6 0.8
v 4.1 0.6 0.8
v 4.3 0.6 0.8
v 4.5 0.6 0.8
v 4.7 0.6 0.8
v 3.7 0.6 0.6
v 3.9 0.6 0.6
v 4.1 0.6 0.6
v 4.3 0.6 0.6
v 4.5 0.6 0.6
v 4.7 0.6 0.6
v 3.9 0.6 0.5
v 4.5 0.6 0.5
v 3.8 1.4 0.9
v 3.9 1.4 0.9
v 4.5 1.4 0.9
v 4.6 1.4 0.9
v 3.5 1.4 0.8
v 3.7 1.4 0.8
v 3.8 1.4 0.8
v 3.9 1.4 0.8
v 4.5 1.4 0.8
v 4.6 1.4 0.8
v 4.7 1.4 0.8
v 4.9 1.4 0.8
v 3.7 1.4 0.6
v 4.7 1.4 0.6
v 3.5 1.4 0.5
v 3.7 1.4 0.5
v 4.7 1.4 0.5
v 4.9 1.4 0.5
v 3.9 1.5 1
v 4.1 1.5 1
v 4.3 1.5 1
v 4.5 1.5 1
v 3.9 1.5 0.9
v 4.1 1.5 0.9
v 4.3 1.5 0.9
v 4.5 1.5 0.9
v 3.9 1.5 0.8
v 4.1 1.5 0.8
v 4.3 1.5 0.8
v 4.5 1.5 0.8
v 3.8 1.5 0.7
v 3.9 1.5 0.7
v 4.5 1.5 0.7
v 4.6 1.5 0.7
v 4.1 1.5 0.6
v 4.3 1.5 0.6
v 3.9 1.5 0.5
v 4.5 1.5 0.5
v 3.8 1.5 0.4
v 4.6 1.5 0.4
v 3.8 1.6 0.8
v 3.9 1.6 0.8
v 4.5 1.6 0.8
v 4.6 1.6 0.8
v 3.8 1.6 0.7
v 3.9 1.6 0.7
v 4.5 1.6 0.7
v 4.6 1.6 0.7
v 3.6 1.7 0.8
v 3.7 1.7 0.8
v 4.7 1.7 0.8
v 4.8 1.7 0.8
v 3.6 1.7 0.5
v 3.7 1.7 0.5
v 4.7 1.7 0.5
v 4.8 1.7 0.5
v 3.9 1.9 1.1
v 4.1 1.9 1.1
v 4.3 1.9 1.1
v 4.5 1.9 1.1
v 3.8 1.9 1
v 3.9 1.9 1
v 4 1.9 1
v 4.1 1.9 1
v 4.3 1.9 1
v 4.4 1.9 1
v 4.5 1.9 1
v 3.8 1.9 0.9
v 3.9 1.9 0.9
v 3.7 1.9 0.8
v 3.8 1.9 0.8
v 4.6 1.9 0.8
v 4.7 1.9 0.8
v 3.8 1.9 0.7
v 4.6 1.9 0.7
v 3.7 1.9 0.5
v 3.8 1.9 0.5
v 4.6 1.9 0.5
v 4.7 1.9 0.5
v 4.2 2 1.1
v 4.3 2 1.1
v 4.5 2 1.1
v 4.6 2 1.1
v 4.2 2 1
v 4.3 2 1
v 4.5 2 1
v 4.5 2 0.9
v 4.6 2 0.9
v 4 2.1 1.1
v 4.1 2.1 1.1
v 4 2.1 1
v 4.1 2.1 1
v 4.1 2.2 1.1
v 4.2 2.2 1.1
v 4.1 2.2 1
v 4.2 2.2 1
v 3.9 0.1 0.9
v 4.1 0.1 0.9
v 4.3 0.1 0.9
v 4.5 0.1 0.9
v 3.9 0.1 0.8
v 4.1 0.1 0.8
v 4.3 0.1 0.8
v 4.5 0.1 0.8
v 3.9 1.4 0.9
v 4.1 1.4 0.9
v 4.3 1.4 0.9
v 4.5 1.4 0.9
v 3.7 1.4 0.8
v 3.8 1.4 0.8
v 3.9 1.4 0.8
v 4.1 1.4 0.8
v 4.3 1.4 0.8
v 4.5 1.4 0.8
v 4.6 1.4 0.8
v 4.7 1.4 0.8
v 3.7 1.4 0.6
v 3.9 1.4 0.6
v 4.1 1.4 0.6
v 4.3 1.4 0.6
v 4.5 1.4 0.6
v 4.7 1.4 0.6
v 3.9 1.4 0.5
v 4.5 1.4 0.5
v 3.6 1.6 0.8
v 3.7 1.6 0.8
v 4.7 1.6 0.8
v 4.8 1.6 0.8
v 3.6 1.6 0.5
v 3.7 1.6 0.5
v 4.7 1.6 0.5
v 4.8 1.6 0.5
v 4 2 1.1
v 4.1 2 1.1
v 4 2 1
v 4.1 2 1
v 3.5 2.1 0.8
v 3.6 2.1 0.8
v 4.8 2.1 0.8
v 4.9 2.1 0.8
v 3.5 2.1 0.5
v 3.6 2.1 0.5
v 4.8 2.1 0.5
v 4.9 2.1 0.5
v 3.6 2.2 0.8
v 3.8 2.2 0.8
v 4.6 2.2 0.8
v 4.8 2.2 0.8
v 3.6 2.2 0.5
v 3.8 2.2 0.5
v 3.9 2.2 0.5
v 4.5 2.2 0.5
v 4.6 2.2 0.5
v 4.8 2.2 0.5
v 3.8 2.2 0.4
v 3.9 2.2 0.4
v 4.5 2.2 0.4
v 4.6 2.2 0.4
v 4.3 2.3 1.1
v 4.6 2.3 1.1
v 3.8 2.3 1
v 3.9 2.3 1
v 4.3 2.3 1
v 4.5 2.3 1
v 3.8 2.3 0.5
v 3.9 2.3 0.5
v 4.5 2.3 0.5
v 4.6 2.3 0.5
v 3.9 2.3 0.4
v 4.5 2.3 0.4
v 3.9 2.4 1.1
v 4.3 2.4 1.1
v 4.3 2.4 1
v 4.5 2.4 1
v 3.9 2.4 0.5
v 4.5 2.4 0.5

# faces
f 3/4/1 2/4/1 1/4/1
f 4/4/1 2/4/1 3/4/1
f 7/4/1 6/4/1 5/4/1
f 8/4/1 6/4/1 7/4/1
f 11/1/1 10/1/1 9/1/1
f 12/1/1 10/1/1 11/1/1
f 13/7/1 12/7/1 11/7/1
f 14/7/1 12/7/1 13/7/1
f 19/4/1 16/4/1 15/4/1
f 20/4/1 18/4/1 17/4/1
f 22/4/1 19/4/1 15/4/1
f 23/2/1 20/2/1 19/2/1
f 23/4/1 19/4/1 22/4/1
f 24/4/1 18/4/1 20/4/1
f 24/2/1 20/2/1 23/2/1
f 25/4/1 18/4/1 24/4/1
f 26/4/1 22/4/1 21/4/1
f 26/4/1 23/4/1 22/4/1
f 27/4/1 18/4/1 25/4/1
f 28/4/1 18/4/1 27/4/1
f 29/4/1 26/4/1 21/4/1
f 29/4/1 27/4/1 26/4/1
f 30/4/1 27/4/1 29/4/1
f 33/10/1 32/10/1 31/10/1
f 34/10/1 32/10/1 33/10/1
f 35/10/1 32/10/1 34/10/1
f 36/7/1 35/7/1 34/7/1
f 37/7/1 35/7/1 36/7/1
f 38/1/1 37/1/1 36/1/1
f 39/1/1 37/1/1 38/1/1
f 41/3/1 39/3/1 38/3/1
f 42/3/1 39/3/1 41/3/1
f 44/3/1 41/3/1 40/3/1
f 45/3/1 41/3/1 44/3/1
f 46/3/1 43/3/1 42/3/1
f 47/3/1 43/3/1 46/3/1
f 48/1/1 45/1/1 44/1/1
f 49/1/1 45/1/1 48/1/1
f 50/1/1 47/1/1 46/1/1
f 51/1/1 47/1/1 50/1/1
f 52/7/1 49/7/1 48/7/1
f 53/7/1 49/7/1 52/7/1
f 54/7/1 51/7/1 50/7/1
f 55/7/1 51/7/1 54/7/1
f 60/1/1 57/1/1 56/1/1
f 61/1/1 57/1/1 60/1/1
f 62/1/1 59/1/1 58/1/1
f 63/1/1 59/1/1 62/1/1
f 64/5/1 61/5/1 60/5/1
f 65/5/1 61/5/1 64/5/1
f 67/1/1 65/1/1 64/1/1
f 68/1/1 65/1/1 67/1/1
f 71/4/1 67/4/1 66/4/1
f 72/4/1 70/4/1 69/4/1
f 73/4/1 70/4/1 72/4/1
f 74/4/1 71/4/1 66/4/1
f 74/4/1 72/4/1 71/4/1
f 75/4/1 72/4/1 74/4/1
f 78/1/1 77/1/1 76/1/1
f 79/1/1 77/1/1 78/1/1
f 82/4/1 81/4/1 80/4/1
f 83/4/1 81/4/1 82/4/1
f 86/10/1 85/10/1 84/10/1
f 87/10/1 85/10/1 86/10/1
f 88/10/1 85/10/1 87/10/1
f 89/7/1 88/7/1 87/7/1
f 90/7/1 88/7/1 89/7/1
f 91/1/1 90/1/1 89/1/1
f 92/1/1 90/1/1 91/1/1
f 93/3/1 92/3/1 91/3/1
f 94/3/1 92/3/1 93/3/1
f 97/4/1 96/4/1 95/4/1
f 98/4/1 96/4/1 97/4/1
f 101/4/1 100/4/1 99/4/1
f 102/4/1 100/4/1 101/4/1
f 106/4/1 104/4/1 103/4/1
f 106/4/1 105/4/1 104/4/1
f 107/4/1 105/4/1 106/4/1
f 110/4/1 109/4/1 108/4/1
f 111/4/1 109/4/1 110/4/1
f 114/4/1 113/4/1 112/4/1
f 115/4/1 113/4/1 114/4/1
f 116/4/2 117/4/2 118/4/2
f 118/4/2 117/4/2 119/4/2
f 120/4/2 121/4/2 123/4/2
f 121/4/2 122/4/2 123/4/2
f 123/4/2 122/4/2 124/4/2
f 125/4/2 126/4/2 127/4/2
f 127/4/2 126/4/2 128/4/2
f 129/4/2 130/4/2 131/4/2
f 131/4/2 130/4/2 132/4/2
f 133/4/2 134/4/2 135/4/2
f 135/4/2 134/4/2 136/4/2
f 137/10/2 138/10/2 139/10/2
f 139/10/2 138/10/2 140/10/2
f 140/10/2 138/10/2 141/10/2
f 140/7/2 141/7/2 142/7/2
f 142/7/2 141/7/2 143/7/2
f 142/1/2 143/1/2 144/1/2
f 144/1/2 143/1/2 145/1/2
f 144/3/2 145/3/2 146/3/2
f 146/3/2 145/3/2 147/3/2
f 148/4/2 149/4/2 150/4/2
f 150/4/2 149/4/2 151/4/2
f 152/4/2 153/4/2 154/4/2
f 154/4/2 153/4/2 155/4/2
f 156/1/2 157/1/2 158/1/2
f 158/1/2 157/1/2 159/1/2
f 160/4/2 161/4/2 162/4/2
f 162/4/2 161/4/2 163/4/2
f 164/10/2 165/10/2 166/10/2
f 166/10/2 165/10/2 167/10/2
f 167/10/2 165/10/2 168/10/2
f 167/7/2 168/7/2 169/7/2
f 169/7/2 168/7/2 170/7/2
f 169/1/2 170/1/2 171/1/2
f 171/1/2 170/1/2 172/1/2
f 171/3/2 172/3/2 174/3/2
f 174/3/2 172/3/2 175/3/2
f 173/3/2 174/3/2 177/3/2
f 177/3/2 174/3/2 178/3/2
f 175/3/2 176/3/2 179/3/2
f 179/3/2 176/3/2 180/3/2
f 177/1/2 178/1/2 181/1/2
f 181/1/2 178/1/2 182/1/2
f 179/1/2 180/1/2 183/1/2
f 183/1/2 180/1/2 184/1/2
f 181/7/2 182/7/2 185/7/2
f 185/7/2 182/7/2 186/7/2
f 183/7/2 184/7/2 187/7/2
f 187/7/2 184/7/2 188/7/2
f 189/1/2 190/1/2 193/1/2
f 193/1/2 190/1/2 194/1/2
f 191/1/2 192/1/2 195/1/2
f 195/1/2 192/1/2 196/1/2
f 193/5/2 194/5/2 197/5/2
f 197/5/2 194/5/2 198/5/2
f 197/1/2 198/1/2 200/1/2
f 199/4/2 200/4/2 201/4/2
f 200/1/2 198/1/2 202/1/2
f 201/4/2 200/4/2 202/4/2
f 202/1/2 198/1/2 203/1/2
f 204/4/2 205/4/2 207/4/2
f 207/4/2 205/4/2 208/4/2
f 206/4/2 207/4/2 209/4/2
f 209/4/2 207/4/2 210/4/2
f 211/4/2 212/4/2 215/4/2
f 213/4/2 214/4/2 216/4/2
f 211/4/2 215/4/2 217/4/2
f 215/2/2 216/2/2 217/2/2
f 216/4/2 214/4/2 218/4/2
f 217/2/2 216/2/2 218/2/2
f 218/4/2 214/4/2 219/4/2
f 211/4/2 217/4/2 221/4/2
f 221/4/2 217/4/2 222/4/2
f 220/4/2 221/4/2 222/4/2
f 219/4/2 214/4/2 223/4/2
f 223/4/2 214/4/2 224/4/2
f 220/4/2 222/4/2 225/4/2
f 222/4/2 223/4/2 225/4/2
f 225/4/2 223/4/2 226/4/2
f 227/1/2 228/1/2 229/1/2
f 229/1/2 228/1/2 230/1/2
f 229/7/2 230/7/2 231/7/2
f 231/7/2 230/7/2 232/7/2
f 233/4/2 234/4/2 235/4/2
f 235/4/2 234/4/2 236/4/2
f 237/4/2 238/4/2 239/4/2
f 239/4/2 238/4/2 240/4/2
f 243/4/3 242/4/3 241/4/3
f 244/4/3 242/4/3 243/4/3
f 245/4/3 243/4/3 241/4/3
f 246/4/3 243/4/3 245/4/3
f 247/4/3 242/4/3 244/4/3
f 248/4/3 242/4/3 247/4/3
f 250/4/3 242/4/3 248/4/3
f 252/4/3 250/4/3 249/4/3
f 253/4/3 242/4/3 250/4/3
f 253/4/3 250/4/3 252/4/3
f 254/4/3 242/4/3 253/4/3
f 255/4/3 252/4/3 251/4/3
f 255/4/3 253/4/3 252/4/3
f 256/4/3 253/4/3 255/4/3
f 257/4/3 253/4/3 256/4/3
f 258/4/3 253/4/3 257/4/3
f 264/4/3 260/4/3 259/4/3
f 265/4/3 260/4/3 264/4/3
f 266/5/3 263/5/3 262/5/3
f 266/1/3 262/1/3 261/1/3
f 267/1/3 264/1/3 263/1/3
f 267/5/3 263/5/3 266/5/3
f 268/1/3 264/1/3 267/1/3
f 271/1/3 266/1/3 261/1/3
f 271/1/3 267/1/3 266/1/3
f 272/1/3 267/1/3 271/1/3
f 273/4/3 268/4/3 267/4/3
f 273/1/3 267/1/3 272/1/3
f 274/4/3 268/4/3 273/4/3
f 275/1/3 270/1/3 269/1/3
f 276/1/3 270/1/3 275/1/3
f 278/1/3 274/1/3 273/1/3
f 278/1/3 277/1/3 276/1/3
f 278/1/3 276/1/3 275/1/3
f 278/1/3 275/1/3 274/1/3
f 278/1/3 273/1/3 272/1/3
f 279/1/3 277/1/3 278/1/3
f 280/6/3 272/6/3 271/6/3
f 281/1/3 278/1/3 272/1/3
f 281/6/3 272/6/3 280/6/3
f 282/1/3 278/1/3 281/1/3
f 283/1/3 278/1/3 282/1/3
f 284/1/3 278/1/3 283/1/3
f 287/1/3 281/1/3 280/1/3
f 287/1/3 282/1/3 281/1/3
f 288/4/3 283/4/3 282/4/3
f 288/1/3 282/1/3 287/1/3
f 289/4/3 283/4/3 288/4/3
f 290/1/3 287/1/3 280/1/3
f 291/5/3 288/5/3 287/5/3
f 291/1/3 287/1/3 290/1/3
f 292/1/3 289/1/3 288/1/3
f 292/5/3 288/5/3 291/5/3
f 293/1/3 289/1/3 292/1/3
f 294/4/3 286/4/3 285/4/3
f 295/4/3 286/4/3 294/4/3
f 303/4/3 297/4/3 296/4/3
f 304/4/3 297/4/3 303/4/3
f 305/4/3 297/4/3 304/4/3
f 306/4/3 297/4/3 305/4/3
f 307/4/3 297/4/3 306/4/3
f 308/10/3 299/10/3 298/10/3
f 309/10/3 299/10/3 308/10/3
f 310/1/3 302/1/3 301/1/3
f 310/7/3 303/7/3 302/7/3
f 311/7/3 303/7/3 310/7/3
f 312/7/3 303/7/3 311/7/3
f 313/7/3 303/7/3 312/7/3
f 314/7/3 303/7/3 313/7/3
f 315/7/3 303/7/3 314/7/3
f 318/1/3 310/1/3 301/1/3
f 318/1/3 311/1/3 310/1/3
f 319/10/3 312/10/3 311/10/3
f 319/1/3 311/1/3 318/1/3
f 320/9/3 313/9/3 312/9/3
f 320/10/3 312/10/3 319/10/3
f 321/8/3 314/8/3 313/8/3
f 321/9/3 313/9/3 320/9/3
f 322/10/3 315/10/3 314/10/3
f 322/8/3 314/8/3 321/8/3
f 323/10/3 315/10/3 322/10/3
f 324/10/3 317/10/3 316/10/3
f 325/10/3 317/10/3 324/10/3
f 326/3/3 301/3/3 300/3/3
f 327/1/3 318/1/3 301/1/3
f 327/3/3 301/3/3 326/3/3
f 328/7/3 321/7/3 320/7/3
f 328/1/3 318/1/3 327/1/3
f 328/7/3 319/7/3 318/7/3
f 328/7/3 320/7/3 319/7/3
f 328/7/3 323/7/3 322/7/3
f 328/7/3 322/7/3 321/7/3
f 329/7/3 323/7/3 328/7/3
f 334/4/3 333/4/3 332/4/3
f 334/4/3 331/4/3 330/4/3
f 334/4/3 330/4/3 329/4/3
f 334/4/3 332/4/3 331/4/3
f 335/4/3 333/4/3 334/4/3
f 338/4/3 337/4/3 336/4/3
f 339/4/3 337/4/3 338/4/3
f 340/4/3 337/4/3 339/4/3
f 344/4/3 338/4/3 336/4/3
f 345/4/3 338/4/3 344/4/3
f 346/4/3 341/4/3 340/4/3
f 346/4/3 340/4/3 339/4/3
f 347/4/3 341/4/3 346/4/3
f 348/7/3 344/7/3 343/7/3
f 349/4/3 341/4/3 347/4/3
f 350/4/3 341/4/3 349/4/3
f 354/1/3 343/1/3 342/1/3
f 355/7/3 348/7/3 343/7/3
f 355/1/3 343/1/3 354/1/3
f 356/7/3 348/7/3 355/7/3
f 357/7/3 348/7/3 356/7/3
f 358/7/3 352/7/3 351/7/3
f 359/1/3 353/1/3 352/1/3
f 359/7/3 352/7/3 358/7/3
f 360/3/3 354/3/3 353/3/3
f 360/1/3 353/1/3 359/1/3
f 361/3/3 354/3/3 360/3/3
f 368/1/3 363/1/3 362/1/3
f 369/1/3 363/1/3 368/1/3
f 370/7/3 365/7/3 364/7/3
f 371/1/3 366/1/3 365/1/3
f 371/7/3 365/7/3 370/7/3
f 372/3/3 367/3/3 366/3/3
f 372/1/3 366/1/3 371/1/3
f 373/3/3 367/3/3 372/3/3
f 377/7/3 376/7/3 375/7/3
f 377/7/3 375/7/3 374/7/3
f 380/1/3 374/1/3 373/1/3
f 381/7/3 377/7/3 374/7/3
f 381/1/3 374/1/3 380/1/3
f 382/7/3 377/7/3 381/7/3
f 385/4/3 379/4/3 378/4/3
f 386/4/3 383/4/3 382/4/3
f 387/4/3 385/4/3 384/4/3
f 388/4/3 379/4/3 385/4/3
f 388/4/3 385/4/3 387/4/3
f 389/4/3 379/4/3 388/4/3
f 390/4/3 386/4/3 382/4/3
f 390/4/3 387/4/3 386/4/3
f 390/4/3 388/4/3 387/4/3
f 391/4/3 388/4/3 390/4/3
f 394/4/3 393/4/3 392/4/3
f 395/4/3 393/4/3 394/4/3
f 398/4/3 397/4/3 396/4/3
f 399/4/3 397/4/3 398/4/3
f 400/4/4 401/4/4 402/4/4
f 402/4/4 401/4/4 403/4/4
f 403/4/4 401/4/4 404/4/4
f 405/4/4 406/4/4 408/4/4
f 406/4/4 407/4/4 408/4/4
f 408/4/4 407/4/4 409/4/4
f 410/1/4 411/1/4 417/1/4
f 411/7/4 412/7/4 418/7/4
f 417/1/4 411/1/4 418/1/4
f 418/7/4 412/7/4 419/7/4
f 419/7/4 412/7/4 420/7/4
f 413/10/4 414/10/4 421/10/4
f 414/7/4 415/7/4 422/7/4
f 421/10/4 414/10/4 422/10/4
f 415/1/4 416/1/4 423/1/4
f 422/7/4 415/7/4 423/7/4
f 416/3/4 417/3/4 424/3/4
f 423/1/4 416/1/4 424/1/4
f 424/3/4 417/3/4 425/3/4
f 426/1/4 427/1/4 433/1/4
f 433/1/4 427/1/4 434/1/4
f 428/10/4 429/10/4 435/10/4
f 429/7/4 430/7/4 436/7/4
f 435/10/4 429/10/4 436/10/4
f 430/1/4 431/1/4 437/1/4
f 436/7/4 430/7/4 437/7/4
f 431/3/4 432/3/4 438/3/4
f 437/1/4 431/1/4 438/1/4
f 438/3/4 432/3/4 439/3/4
f 439/1/4 440/1/4 443/1/4
f 441/7/4 442/7/4 444/7/4
f 443/1/4 440/1/4 444/1/4
f 440/7/4 441/7/4 444/7/4
f 444/7/4 442/7/4 445/7/4
f 446/4/4 447/4/4 448/4/4
f 448/4/4 447/4/4 449/4/4
f 449/4/4 447/4/4 450/4/4
f 446/4/4 448/4/4 452/4/4
f 452/4/4 448/4/4 453/4/4
f 450/4/4 451/4/4 454/4/4
f 449/4/4 450/4/4 454/4/4
f 454/4/4 451/4/4 455/4/4
f 455/4/4 451/4/4 456/4/4
f 456/4/4 451/4/4 457/4/4
f 457/4/4 458/4/4 463/4/4
f 463/4/4 458/4/4 464/4/4
f 459/3/4 460/3/4 466/3/4
f 460/1/4 461/1/4 467/1/4
f 466/3/4 460/3/4 467/3/4
f 461/7/4 462/7/4 468/7/4
f 467/1/4 461/1/4 468/1/4
f 468/7/4 462/7/4 469/7/4
f 464/4/4 465/4/4 471/4/4
f 471/4/4 465/4/4 472/4/4
f 470/4/4 471/4/4 474/4/4
f 474/4/4 471/4/4 475/4/4
f 473/4/4 474/4/4 479/4/4
f 476/4/4 477/4/4 480/4/4
f 478/4/4 479/4/4 481/4/4
f 479/4/4 474/4/4 482/4/4
f 481/4/4 479/4/4 482/4/4
f 482/4/4 474/4/4 483/4/4
f 476/4/4 480/4/4 484/4/4
f 480/4/4 481/4/4 484/4/4
f 481/4/4 482/4/4 484/4/4
f 484/4/4 482/4/4 485/4/4
f 486/4/4 487/4/4 488/4/4
f 486/4/4 488/4/4 490/4/4
f 488/4/4 489/4/4 490/4/4
f 490/4/4 489/4/4 491/4/4
f 486/4/4 490/4/4 492/4/4
f 492/4/4 490/4/4 493/4/4
f 498/10/5 495/10/5 494/10/5
f 499/10/5 495/10/5 498/10/5
f 500/10/5 497/10/5 496/10/5
f 501/10/5 497/10/5 500/10/5
f 505/3/5 503/3/5 502/3/5
f 506/3/5 503/3/5 505/3/5
f 507/3/5 503/3/5 506/3/5
f 508/3/5 503/3/5 507/3/5
f 510/1/5 505/1/5 504/1/5
f 511/1/5 505/1/5 510/1/5
f 512/3/5 507/3/5 506/3/5
f 513/3/5 507/3/5 512/3/5
f 514/1/5 509/1/5 508/1/5
f 515/1/5 509/1/5 514/1/5
f 516/3/5 513/3/5 512/3/5
f 516/3/5 514/3/5 513/3/5
f 516/3/5 512/3/5 511/3/5
f 517/3/5 514/3/5 516/3/5
f 524/4/5 519/4/5 518/4/5
f 525/4/5 519/4/5 524/4/5
f 526/4/5 521/4/5 520/4/5
f 527/4/5 521/4/5 526/4/5
f 530/4/5 523/4/5 522/4/5
f 531/4/5 529/4/5 528/4/5
f 532/4/5 530/4/5 522/4/5
f 533/4/5 530/4/5 532/4/5
f 534/4/5 529/4/5 531/4/5
f 535/4/5 529/4/5 534/4/5
f 540/1/5 537/1/5 536/1/5
f 541/6/5 538/6/5 537/6/5
f 541/1/5 537/1/5 540/1/5
f 542/1/5 539/1/5 538/1/5
f 542/6/5 538/6/5 541/6/5
f 543/1/5 539/1/5 542/1/5
f 544/1/5 541/1/5 540/1/5
f 544/1/5 542/1/5 541/1/5
f 544/1/5 543/1/5 542/1/5
f 545/1/5 543/1/5 544/1/5
f 546/1/5 543/1/5 545/1/5
f 547/1/5 543/1/5 546/1/5
f 549/1/5 545/1/5 544/1/5
f 550/1/5 547/1/5 546/1/5
f 552/1/5 545/1/5 549/1/5
f 553/1/5 550/1/5 546/1/5
f 554/1/5 552/1/5 549/1/5
f 554/1/5 553/1/5 552/1/5
f 554/4/5 549/4/5 548/4/5
f 555/1/5 550/1/5 553/1/5
f 555/1/5 553/1/5 554/1/5
f 555/4/5 551/4/5 550/4/5
f 556/4/5 554/4/5 548/4/5
f 556/4/5 555/4/5 554/4/5
f 557/4/5 551/4/5 555/4/5
f 557/4/5 555/4/5 556/4/5
f 562/2/5 559/2/5 558/2/5
f 563/2/5 559/2/5 562/2/5
f 564/2/5 561/2/5 560/2/5
f 565/2/5 561/2/5 564/2/5
f 570/4/5 567/4/5 566/4/5
f 571/4/5 567/4/5 570/4/5
f 572/4/5 569/4/5 568/4/5
f 573/4/5 569/4/5 572/4/5
f 579/4/5 575/4/5 574/4/5
f 580/4/5 575/4/5 579/4/5
f 581/4/5 575/4/5 580/4/5
f 582/4/5 577/4/5 576/4/5
f 583/4/5 577/4/5 582/4/5
f 584/4/5 577/4/5 583/4/5
f 585/4/5 579/4/5 578/4/5
f 586/4/5 579/4/5 585/4/5
f 591/4/5 588/4/5 587/4/5
f 592/4/5 590/4/5 589/4/5
f 593/4/5 591/4/5 587/4/5
f 594/4/5 591/4/5 593/4/5
f 595/4/5 590/4/5 592/4/5
f 596/4/5 590/4/5 595/4/5
f 601/4/5 598/4/5 597/4/5
f 602/4/5 598/4/5 601/4/5
f 603/4/5 600/4/5 599/4/5
f 604/4/5 600/4/5 603/4/5
f 605/4/5 600/4/5 604/4/5
f 608/4/5 607/4/5 606/4/5
f 609/4/5 607/4/5 608/4/5
f 612/4/5 611/4/5 610/4/5
f 613/4/5 611/4/5 612/4/5
f 614/10/6 615/10/6 618/10/6
f 618/10/6 615/10/6 619/10/6
f 616/10/6 617/10/6 620/10/6
f 620/10/6 617/10/6 621/10/6
f 622/7/6 623/7/6 628/7/6
f 623/10/6 624/10/6 629/10/6
f 628/7/6 623/7/6 629/7/6
f 624/7/6 625/7/6 630/7/6
f 629/10/6 624/10/6 630/10/6
f 630/7/6 625/7/6 631/7/6
f 626/7/6 627/7/6 634/7/6
f 627/7/6 628/7/6 634/7/6
f 628/7/6 629/7/6 634/7/6
f 634/7/6 629/7/6 635/7/6
f 635/7/6 629/7/6 636/7/6
f 632/7/6 633/7/6 637/7/6
f 631/7/6 632/7/6 637/7/6
f 630/7/6 631/7/6 637/7/6
f 637/7/6 633/7/6 638/7/6
f 638/7/6 633/7/6 639/7/6
f 635/7/6 636/7/6 640/7/6
f 637/7/6 638/7/6 640/7/6
f 636/7/6 637/7/6 640/7/6
f 640/7/6 638/7/6 641/7/6
f 642/4/6 643/4/6 646/4/6
f 646/4/6 643/4/6 647/4/6
f 644/4/6 645/4/6 648/4/6
f 648/4/6 645/4/6 649/4/6
f 650/4/6 651/4/6 652/4/6
f 652/4/6 651/4/6 653/4/6
f 654/4/6 655/4/6 658/4/6
f 658/4/6 655/4/6 659/4/6
f 656/4/6 657/4/6 660/4/6
f 660/4/6 657/4/6 661/4/6
f 662/4/6 663/4/6 666/4/6
f 666/4/6 663/4/6 667/4/6
f 664/4/6 665/4/6 670/4/6
f 670/4/6 665/4/6 671/4/6
f 667/4/6 668/4/6 672/4/6
f 672/4/6 668/4/6 673/4/6
f 669/4/6 670/4/6 674/4/6
f 674/4/6 670/4/6 675/4/6
f 676/4/6 677/4/6 680/4/6
f 680/4/6 677/4/6 681/4/6
f 678/4/6 679/4/6 682/4/6
f 682/4/6 679/4/6 683/4/6
f 681/4/6 677/4/6 684/4/6
f 684/4/6 677/4/6 685/4/6
f 683/4/6 684/4/6 686/4/6
f 686/4/6 684/4/6 687/4/6
f 688/4/6 689/4/6 690/4/6
f 688/4/6 690/4/6 692/4/6
f 690/4/6 691/4/6 692/4/6
f 692/4/6 691/4/6 693/4/6
