# generated by tools/rig_people.py — do not edit
mtllib people.mtl
o body
usemtl palette
v 2 20 -3.5
v 2 20 -2.5
v 2 21 -2.5
v 2 21 -3.5
v 1 19 -3.5
v 1 19 -2.5
v 1 20 -2.5
v 1 20 -3.5
v 1 21 -3.5
v 1 21 -2.5
v 1 22 -2.5
v 1 22 -3.5
v -1 23 -3.5
v -1 23 -2.5
v -1 24 -2.5
v -1 24 -3.5
v -1 14 -0.5
v -1 14 1.5
v -1 15 1.5
v -1 15 -0.5
v -3 19 -3.5
v -3 19 -2.5
v -3 20 -2.5
v -3 20 -3.5
v -3 15 -2.5
v -3 15 0.5
v -3 16 0.5
v -3 16 -2.5
v -3 16 -1.5
v -3 20 -1.5
v -3 23 -2.5
v -3 23 2.5
v -3 24 2.5
v -3 24 -2.5
v -3 7 -1.5
v -3 7 2.5
v -3 8 2.5
v -3 8 -1.5
v -3 8 -0.5
v -3 9 -0.5
v -3 9 -1.5
v -3 9 2.5
v -3 14 2.5
v -3 14 -1.5
v -3 8 1.5
v -3 9 1.5
v -3 22 2.5
v -3 22 3.5
v -3 23 3.5
v -4 20 -3.5
v -4 20 3.5
v -4 22 3.5
v -4 22 -3.5
v -4 22 2.5
v -4 23 2.5
v -4 23 -3.5
v -4 16 -1.5
v -4 16 3.5
v -4 20 -1.5
v -4 15 0.5
v -4 15 3.5
v -4 16 0.5
v 4 22 -2.5
v 4 22 3.5
v 4 19 3.5
v 4 19 -2.5
v 4 23 -2.5
v 4 23 2.5
v 4 22 2.5
v 4 19 -1.5
v 4 16 3.5
v 4 16 -1.5
v 4 16 0.5
v 4 15 3.5
v 4 15 0.5
v 3 24 -3.5
v 3 24 -2.5
v 3 19 -2.5
v 3 19 -3.5
v 3 16 -2.5
v 3 16 0.5
v 3 15 0.5
v 3 15 -2.5
v 3 19 -1.5
v 3 16 -1.5
v 3 24 2.5
v 3 23 2.5
v 3 23 -2.5
v 3 8 -1.5
v 3 8 2.5
v 3 7 2.5
v 3 7 -1.5
v 3 9 -1.5
v 3 9 -0.5
v 3 8 -0.5
v 3 14 -1.5
v 3 14 2.5
v 3 9 2.5
v 3 9 1.5
v 3 8 1.5
v 3 23 3.5
v 3 22 3.5
v 3 22 2.5
v 1 15 -0.5
v 1 15 1.5
v 1 14 1.5
v 1 14 -0.5
v -0 22 -3.5
v -0 22 -2.5
v -0 20 -2.5
v -0 20 -3.5
v -1 20 -3.5
v -1 20 -2.5
v -1 19 -2.5
v -1 19 -3.5
v 3 20 -3.5
v 2 24 -3.5
v 1 24 -3.5
v 1 23 -3.5
v 1 16 -2.5
v 1 17 -2.5
v 3 17 -2.5
v 2 17 -2.5
v 2 19 -2.5
v -0 21 -2.5
v -1 16 -2.5
v -3 17 -2.5
v -1 17 -2.5
v -2 17 -2.5
v -2 19 -2.5
v -3 10 -1.5
v 3 10 -1.5
v 2 10 -1.5
v 2 14 -1.5
v -0 10 -1.5
v -0 11 -1.5
v 2 11 -1.5
v 1 11 -1.5
v 1 12 -1.5
v 2 12 -1.5
v -0 12 -1.5
v -0 13 -1.5
v 2 13 -1.5
v -3 13 -1.5
v -2 11 -1.5
v -2 12 -1.5
v -3 11 -1.5
v -3 12 -1.5
v -3 14 -0.5
v 3 14 -0.5
v 1 14 2.5
v -3 14 1.5
v -4 23 -2.5
v -1 24 2.5
v 3 15 3.5
v 3 15 -0.5
v -3 15 -0.5
v 3 15 2.5
v 1 15 2.5
v -4 15 2.5
v -3 15 2.5
v -3 15 1.5
vt 0.5292969 0.5
vt 0.0410156 0.5
vt 0.2636719 0.5
vt 0.9785156 0.5
vt 0.5644531 0.5
vt 0.9902344 0.5
vt 0.5058594 0.5
vt 0.3964844 0.5
vn -1 0 0
vn 1 0 0
vn 0 0 1
vn 0 0 -1
vn 0 1 0
vn 0 -1 0
f 1/1/1 2/1/1 3/1/1 4/1/1
f 5/1/1 6/1/1 7/1/1 8/1/1
f 9/1/1 10/1/1 11/1/1 12/1/1
f 13/1/1 14/1/1 15/1/1 16/1/1
f 17/2/1 18/2/1 19/2/1 20/2/1
f 21/1/1 22/1/1 23/1/1 24/1/1
f 25/2/1 26/2/1 27/2/1 28/2/1
f 28/2/1 29/2/1 30/2/1 23/2/1
f 31/1/1 32/1/1 33/1/1 34/1/1
f 35/3/1 36/3/1 37/3/1 38/3/1
f 38/3/1 39/3/1 40/3/1 41/3/1
f 41/4/1 42/4/1 43/4/1 44/4/1
f 39/2/1 45/2/1 46/2/1 40/2/1
f 45/3/1 37/3/1 42/3/1 46/3/1
f 47/1/1 48/1/1 49/1/1 32/1/1
f 50/1/1 51/1/1 52/1/1 53/1/1
f 53/1/1 54/1/1 55/1/1 56/1/1
f 57/1/1 58/1/1 51/1/1 59/1/1
f 60/1/1 61/1/1 58/1/1 62/1/1
f 63/1/2 64/1/2 65/1/2 66/1/2
f 67/1/2 68/1/2 69/1/2 63/1/2
f 70/1/2 65/1/2 71/1/2 72/1/2
f 73/1/2 71/1/2 74/1/2 75/1/2
f 76/1/2 77/1/2 78/1/2 79/1/2
f 80/2/2 81/2/2 82/2/2 83/2/2
f 78/2/2 84/2/2 85/2/2 80/2/2
f 77/1/2 86/1/2 87/1/2 88/1/2
f 89/3/2 90/3/2 91/3/2 92/3/2
f 93/3/2 94/3/2 95/3/2 89/3/2
f 96/4/2 97/4/2 98/4/2 93/4/2
f 94/2/2 99/2/2 100/2/2 95/2/2
f 99/3/2 98/3/2 90/3/2 100/3/2
f 87/1/2 101/1/2 102/1/2 103/1/2
f 104/2/2 105/2/2 106/2/2 107/2/2
f 108/1/2 109/1/2 110/1/2 111/1/2
f 112/1/2 113/1/2 114/1/2 115/1/2
f 105/2/3 19/2/3 18/2/3 106/2/3
f 68/1/3 87/1/3 103/1/3 69/1/3
f 98/3/3 42/3/3 36/3/3 91/3/3
f 97/4/3 43/4/3 42/4/3 98/4/3
f 86/1/3 33/1/3 32/1/3 87/1/3
f 32/1/3 55/1/3 54/1/3 47/1/3
f 64/1/3 52/1/3 61/1/3 74/1/3
f 101/1/3 49/1/3 48/1/3 102/1/3
f 79/1/4 5/1/4 8/1/4 116/1/4
f 116/1/4 1/1/4 117/1/4 76/1/4
f 4/1/4 9/1/4 118/1/4 117/1/4
f 12/1/4 53/1/4 56/1/4 119/1/4
f 119/1/4 13/1/4 16/1/4 118/1/4
f 111/1/4 50/1/4 53/1/4 108/1/4
f 115/1/4 21/1/4 24/1/4 112/1/4
f 66/1/4 78/1/4 88/1/4 67/1/4
f 83/2/4 25/2/4 28/2/4 80/2/4
f 80/2/4 120/2/4 121/2/4 122/2/4
f 122/2/4 123/2/4 124/2/4 78/2/4
f 123/1/4 121/1/4 6/1/4 124/1/4
f 2/2/4 110/2/4 125/2/4 3/2/4
f 120/5/4 126/5/4 114/5/4 6/5/4
f 6/2/4 114/2/4 113/2/4 7/2/4
f 10/2/4 125/2/4 109/2/4 11/2/4
f 126/2/4 28/2/4 127/2/4 128/2/4
f 128/1/4 129/1/4 130/1/4 114/1/4
f 14/1/4 31/1/4 34/1/4 15/1/4
f 129/2/4 127/2/4 22/2/4 130/2/4
f 72/1/4 85/1/4 84/1/4 70/1/4
f 92/3/4 35/3/4 41/3/4 93/3/4
f 93/4/4 41/4/4 131/4/4 132/4/4
f 132/4/4 133/4/4 134/4/4 96/4/4
f 133/6/4 135/6/4 136/6/4 137/6/4
f 137/4/4 138/4/4 139/4/4 140/4/4
f 140/7/4 141/7/4 142/7/4 143/7/4
f 143/4/4 144/4/4 44/4/4 134/4/4
f 138/8/4 145/8/4 146/8/4 139/8/4
f 135/4/4 131/4/4 147/4/4 136/4/4
f 141/4/4 148/4/4 144/4/4 142/4/4
f 145/4/4 147/4/4 148/4/4 146/4/4
f 29/1/4 57/1/4 59/1/4 30/1/4
f 107/2/4 17/2/4 20/2/4 104/2/4
f 75/1/4 82/1/4 81/1/4 73/1/4
f 26/1/4 60/1/4 62/1/4 27/1/4
f 96/4/5 44/4/5 149/4/5 150/4/5
f 150/4/5 107/4/5 151/4/5 97/4/5
f 106/4/5 152/4/5 43/4/5 151/4/5
f 17/4/5 149/4/5 152/4/5 18/4/5
f 1/1/5 8/1/5 7/1/5 2/1/5
f 69/1/5 103/1/5 102/1/5 64/1/5
f 47/1/5 54/1/5 52/1/5 48/1/5
f 67/1/5 88/1/5 87/1/5 68/1/5
f 87/1/5 32/1/5 49/1/5 101/1/5
f 13/1/5 56/1/5 153/1/5 14/1/5
f 31/1/5 153/1/5 55/1/5 32/1/5
f 76/1/5 16/1/5 154/1/5 86/1/5
f 15/1/5 34/1/5 33/1/5 154/1/5
f 91/3/6 36/3/6 35/3/6 92/3/6
f 74/1/6 155/1/6 82/1/6 75/1/6
f 156/2/6 157/2/6 25/2/6 83/2/6
f 158/2/6 159/2/6 104/2/6 156/2/6
f 155/1/6 61/1/6 160/1/6 158/1/6
f 159/2/6 161/2/6 162/2/6 105/2/6
f 19/2/6 162/2/6 157/2/6 20/2/6
f 161/1/6 160/1/6 60/1/6 26/1/6
f 73/1/6 81/1/6 85/1/6 72/1/6
f 27/1/6 62/1/6 57/1/6 29/1/6
f 70/1/6 84/1/6 78/1/6 66/1/6
f 78/1/6 6/1/6 5/1/6 79/1/6
f 114/1/6 22/1/6 21/1/6 115/1/6
f 110/1/6 113/1/6 112/1/6 111/1/6
f 30/1/6 59/1/6 50/1/6 24/1/6
f 3/1/6 10/1/6 9/1/6 4/1/6
f 11/1/6 109/1/6 108/1/6 12/1/6
