# MagicaVoxel @ Ephtracy

# group
o 

# material
mtllib Character-10.mtl
usemtl palette

# normals
vn -1 0 0
vn 1 0 0
vn 0 0 1
vn 0 0 -1
vn 0 -1 0
vn 0 1 0

# texcoords
vt 0.0371094 0.5
vt 0.0488281 0.5
vt 0.349609 0.5
vt 0.525391 0.5
vt 0.548828 0.5

# verts
v -0.6 0.6 -3.7
v -0.6 0.6 -3.9
v -0.6 0.8 -3.7
v -0.6 0.8 -3.9
v -0.6 1.4 -3.7
v -0.6 1.4 -3.9
v -0.6 1.5 -3.8
v -0.6 1.5 -4.2
v -0.6 1.6 -3.8
v -0.6 1.6 -4.2
v -0.5 1.6 -3.6
v -0.5 1.6 -3.7
v -0.5 1.6 -3.8
v -0.5 1.6 -4.1
v -0.5 1.9 -3.5
v -0.5 1.9 -3.6
v -0.5 1.9 -3.7
v -0.5 1.9 -3.8
v -0.5 2.2 -4
v -0.5 2.2 -4.1
v -0.5 2.3 -3.5
v -0.5 2.3 -4
v -0.4 0 -3.6
v -0.4 0 -3.9
v -0.4 0.1 -3.6
v -0.4 0.1 -3.7
v -0.4 0.1 -3.9
v -0.4 0.4 -3.7
v -0.4 0.4 -3.9
v -0.4 0.6 -3.7
v -0.4 0.6 -3.9
v -0.4 0.7 -3.6
v -0.4 0.7 -3.7
v -0.4 0.7 -3.9
v -0.4 0.7 -4
v -0.4 0.8 -3.6
v -0.4 0.8 -3.7
v -0.4 0.8 -3.9
v -0.4 0.8 -4
v -0.4 1 -3.6
v -0.4 1 -3.7
v -0.4 1.2 -3.6
v -0.4 1.2 -3.7
v -0.4 1.4 -3.6
v -0.4 1.4 -3.7
v -0.4 1.4 -3.9
v -0.4 1.4 -4
v -0.4 1.5 -3.5
v -0.4 1.5 -3.8
v -0.4 1.6 -3.6
v -0.4 1.6 -3.7
v -0.4 1.6 -3.8
v -0.4 1.9 -3.4
v -0.4 1.9 -3.5
v -0.4 1.9 -3.6
v -0.4 2.2 -4
v -0.4 2.2 -4.1
v -0.4 2.3 -3.5
v -0.4 2.3 -4
v -0.4 2.3 -4.1
v -0.4 2.4 -3.4
v -0.4 2.4 -4
v -0.3 2.3 -4
v -0.3 2.3 -4.1
v -0.3 2.4 -4
v -0.3 2.4 -4.1
v -0.2 1.4 -3.7
v -0.2 1.4 -3.9
v -0.2 1.5 -3.7
v -0.2 1.5 -3.9
v -0.1 2 -3.4
v -0.1 2 -3.5
v -0.1 2.2 -3.4
v -0.1 2.2 -3.5
v -5.96046e-008 0 -3.6
v -5.96046e-008 0 -3.9
v -5.96046e-008 0.1 -3.6
v -5.96046e-008 0.1 -3.7
v -5.96046e-008 0.1 -3.9
v -5.96046e-008 0.4 -3.7
v -5.96046e-008 0.4 -3.9
v -5.96046e-008 0.7 -3.7
v -5.96046e-008 0.7 -3.9
v -5.96046e-008 1.9 -3.4
v -5.96046e-008 1.9 -3.5
v -5.96046e-008 2 -3.4
v -5.96046e-008 2 -3.5
v -0.3 2 -3.4
v -0.3 2 -3.5
v -0.3 2.1 -3.4
v -0.3 2.1 -3.5
v -0.2 0 -3.6
v -0.2 0 -3.9
v -0.2 0.1 -3.6
v -0.2 0.1 -3.7
v -0.2 0.1 -3.9
v -0.2 0.4 -3.7
v -0.2 0.4 -3.9
v -0.2 0.7 -3.7
v -0.2 0.7 -3.9
v -0.2 1.9 -3.4
v -0.2 1.9 -3.5
v -0.2 2 -3.4
v -0.2 2 -3.5
v -0.2 2.1 -3.4
v -0.2 2.1 -3.5
v -0.2 2.2 -3.4
v -0.2 2.2 -3.5
v -5.96046e-008 1.4 -3.7
v -5.96046e-008 1.4 -3.9
v -5.96046e-008 1.5 -3.7
v -5.96046e-008 1.5 -3.9
v -5.96046e-008 2.3 -3.4
v -5.96046e-008 2.3 -3.5
v -5.96046e-008 2.4 -3.4
v -5.96046e-008 2.4 -3.5
v 0.1 2.3 -4
v 0.1 2.3 -4.1
v 0.1 2.4 -4
v 0.1 2.4 -4.1
v 0.2 0 -3.6
v 0.2 0 -3.9
v 0.2 0.1 -3.6
v 0.2 0.1 -3.7
v 0.2 0.1 -3.9
v 0.2 0.4 -3.7
v 0.2 0.4 -3.9
v 0.2 0.6 -3.7
v 0.2 0.6 -3.9
v 0.2 0.7 -3.6
v 0.2 0.7 -3.7
v 0.2 0.7 -3.9
v 0.2 0.7 -4
v 0.2 0.8 -3.6
v 0.2 0.8 -3.7
v 0.2 0.8 -3.9
v 0.2 0.8 -4
v 0.2 1 -3.6
v 0.2 1 -3.7
v 0.2 1.2 -3.6
v 0.2 1.2 -3.7
v 0.2 1.4 -3.6
v 0.2 1.4 -3.7
v 0.2 1.4 -3.9
v 0.2 1.4 -4
v 0.2 1.5 -3.5
v 0.2 1.5 -3.8
v 0.2 1.6 -3.6
v 0.2 1.6 -3.7
v 0.2 1.6 -3.8
v 0.2 1.9 -3.4
v 0.2 1.9 -3.5
v 0.2 2 -3.4
v 0.2 2 -3.5
v 0.2 2 -3.6
v 0.2 2.2 -4
v 0.2 2.2 -4.1
v 0.2 2.3 -3.5
v 0.2 2.3 -4
v 0.2 2.3 -4.1
v 0.2 2.4 -3.5
v 0.2 2.4 -4
v 0.3 1.6 -3.6
v 0.3 1.6 -3.7
v 0.3 1.6 -3.8
v 0.3 1.6 -4.1
v 0.3 1.9 -3.7
v 0.3 1.9 -3.8
v 0.3 2 -3.4
v 0.3 2 -3.6
v 0.3 2.2 -4
v 0.3 2.2 -4.1
v 0.3 2.3 -3.4
v 0.3 2.3 -4
v 0.4 0.6 -3.7
v 0.4 0.6 -3.9
v 0.4 0.8 -3.7
v 0.4 0.8 -3.9
v 0.4 1.4 -3.7
v 0.4 1.4 -3.9
v 0.4 1.5 -3.8
v 0.4 1.5 -4.2
v 0.4 1.6 -3.8
v 0.4 1.6 -4.2
v -0.4 1.9 -3.4
v -0.4 2.4 -3.4
v -0.3 2 -3.4
v -0.3 2.1 -3.4
v -0.2 1.9 -3.4
v -0.2 2 -3.4
v -0.2 2.1 -3.4
v -0.2 2.2 -3.4
v -0.1 2 -3.4
v -0.1 2.2 -3.4
v -5.96046e-008 1.9 -3.4
v -5.96046e-008 2 -3.4
v -5.96046e-008 2.3 -3.4
v -5.96046e-008 2.4 -3.4
v 0.2 1.9 -3.4
v 0.2 2 -3.4
v 0.3 2 -3.4
v 0.3 2.3 -3.4
v -0.5 1.9 -3.5
v -0.5 2.3 -3.5
v -0.4 1.5 -3.5
v -0.4 1.9 -3.5
v -0.4 2.3 -3.5
v -0.3 1.8 -3.5
v -0.3 1.9 -3.5
v -0.3 2 -3.5
v -0.3 2.1 -3.5
v -0.2 1.6 -3.5
v -0.2 1.7 -3.5
v -0.2 1.8 -3.5
v -0.2 1.9 -3.5
v -0.2 2 -3.5
v -0.2 2.1 -3.5
v -0.2 2.2 -3.5
v -0.1 2 -3.5
v -0.1 2.2 -3.5
v -5.96046e-008 1.6 -3.5
v -5.96046e-008 1.7 -3.5
v -5.96046e-008 1.8 -3.5
v -5.96046e-008 1.9 -3.5
v -5.96046e-008 2 -3.5
v -5.96046e-008 2.3 -3.5
v -5.96046e-008 2.4 -3.5
v 0.1 1.8 -3.5
v 0.1 1.9 -3.5
v 0.2 1.5 -3.5
v 0.2 1.9 -3.5
v 0.2 2.3 -3.5
v 0.2 2.4 -3.5
v -0.5 1.6 -3.6
v -0.5 1.9 -3.6
v -0.4 0 -3.6
v -0.4 0.1 -3.6
v -0.4 0.7 -3.6
v -0.4 0.8 -3.6
v -0.4 1 -3.6
v -0.4 1.2 -3.6
v -0.4 1.4 -3.6
v -0.4 1.6 -3.6
v -0.4 1.9 -3.6
v -0.3 1.3 -3.6
v -0.3 1.4 -3.6
v -0.2 0 -3.6
v -0.2 0.1 -3.6
v -0.2 0.9 -3.6
v -0.2 1 -3.6
v -0.2 1.1 -3.6
v -0.2 1.2 -3.6
v -5.96046e-008 0 -3.6
v -5.96046e-008 0.1 -3.6
v -5.96046e-008 0.9 -3.6
v -5.96046e-008 1 -3.6
v -5.96046e-008 1.1 -3.6
v -5.96046e-008 1.2 -3.6
v 0.1 1.3 -3.6
v 0.1 1.4 -3.6
v 0.2 0 -3.6
v 0.2 0.1 -3.6
v 0.2 0.7 -3.6
v 0.2 0.8 -3.6
v 0.2 1 -3.6
v 0.2 1.2 -3.6
v 0.2 1.4 -3.6
v 0.2 1.6 -3.6
v 0.2 2 -3.6
v 0.3 1.6 -3.6
v 0.3 2 -3.6
v -0.6 0.6 -3.7
v -0.6 0.8 -3.7
v -0.6 1.4 -3.7
v -0.4 0.1 -3.7
v -0.4 0.4 -3.7
v -0.4 0.6 -3.7
v -0.4 0.7 -3.7
v -0.4 0.8 -3.7
v -0.4 1 -3.7
v -0.4 1.2 -3.7
v -0.4 1.4 -3.7
v -0.2 0.1 -3.7
v -0.2 0.4 -3.7
v -0.2 0.7 -3.7
v -0.2 1.4 -3.7
v -0.2 1.5 -3.7
v -5.96046e-008 0.1 -3.7
v -5.96046e-008 0.4 -3.7
v -5.96046e-008 0.7 -3.7
v -5.96046e-008 1.4 -3.7
v -5.96046e-008 1.5 -3.7
v 0.2 0.1 -3.7
v 0.2 0.4 -3.7
v 0.2 0.6 -3.7
v 0.2 0.7 -3.7
v 0.2 0.8 -3.7
v 0.2 1 -3.7
v 0.2 1.2 -3.7
v 0.2 1.4 -3.7
v 0.4 0.6 -3.7
v 0.4 0.8 -3.7
v 0.4 1.4 -3.7
v -0.6 1.5 -3.8
v -0.6 1.6 -3.8
v -0.5 1.6 -3.8
v -0.4 1.5 -3.8
v -0.4 1.6 -3.8
v 0.2 1.5 -3.8
v 0.2 1.6 -3.8
v 0.3 1.6 -3.8
v 0.4 1.5 -3.8
v 0.4 1.6 -3.8
v -0.6 0.6 -3.9
v -0.6 0.8 -3.9
v -0.6 1.4 -3.9
v -0.4 0 -3.9
v -0.4 0.1 -3.9
v -0.4 0.4 -3.9
v -0.4 0.6 -3.9
v -0.4 0.7 -3.9
v -0.4 0.8 -3.9
v -0.4 1.4 -3.9
v -0.2 0 -3.9
v -0.2 0.1 -3.9
v -0.2 0.4 -3.9
v -0.2 0.7 -3.9
v -0.2 1.4 -3.9
v -0.2 1.5 -3.9
v -5.96046e-008 0 -3.9
v -5.96046e-008 0.1 -3.9
v -5.96046e-008 0.4 -3.9
v -5.96046e-008 0.7 -3.9
v -5.96046e-008 1.4 -3.9
v -5.96046e-008 1.5 -3.9
v 0.2 0 -3.9
v 0.2 0.1 -3.9
v 0.2 0.4 -3.9
v 0.2 0.6 -3.9
v 0.2 0.7 -3.9
v 0.2 0.8 -3.9
v 0.2 1.4 -3.9
v 0.4 0.6 -3.9
v 0.4 0.8 -3.9
v 0.4 1.4 -3.9
v -0.5 2.2 -4
v -0.5 2.3 -4
v -0.4 0.7 -4
v -0.4 0.8 -4
v -0.4 1.4 -4
v -0.4 2.2 -4
v -0.4 2.3 -4
v -0.4 2.4 -4
v -0.3 2.3 -4
v -0.3 2.4 -4
v 0.1 2.3 -4
v 0.1 2.4 -4
v 0.2 0.7 -4
v 0.2 0.8 -4
v 0.2 1.4 -4
v 0.2 2.2 -4
v 0.2 2.3 -4
v 0.2 2.4 -4
v 0.3 2.2 -4
v 0.3 2.3 -4
v -0.5 1.6 -4.1
v -0.5 2.2 -4.1
v -0.4 2.2 -4.1
v -0.4 2.3 -4.1
v -0.3 2.3 -4.1
v -0.3 2.4 -4.1
v 0.1 2.3 -4.1
v 0.1 2.4 -4.1
v 0.2 2.2 -4.1
v 0.2 2.3 -4.1
v 0.3 1.6 -4.1
v 0.3 2.2 -4.1
v -0.6 1.5 -4.2
v -0.6 1.6 -4.2
v 0.4 1.5 -4.2
v 0.4 1.6 -4.2
v -0.4 0 -3.6
v -0.2 0 -3.6
v -5.96046e-008 0 -3.6
v 0.2 0 -3.6
v -0.4 0 -3.9
v -0.2 0 -3.9
v -5.96046e-008 0 -3.9
v 0.2 0 -3.9
v -0.6 0.6 -3.7
v -0.4 0.6 -3.7
v 0.2 0.6 -3.7
v 0.4 0.6 -3.7
v -0.6 0.6 -3.9
v -0.4 0.6 -3.9
v 0.2 0.6 -3.9
v 0.4 0.6 -3.9
v -0.4 0.7 -3.6
v 0.2 0.7 -3.6
v -0.4 0.7 -3.7
v -0.2 0.7 -3.7
v -5.96046e-008 0.7 -3.7
v 0.2 0.7 -3.7
v -0.4 0.7 -3.9
v -0.2 0.7 -3.9
v -5.96046e-008 0.7 -3.9
v 0.2 0.7 -3.9
v -0.4 0.7 -4
v 0.2 0.7 -4
v -0.4 1.5 -3.5
v 0.2 1.5 -3.5
v -0.2 1.5 -3.7
v -5.96046e-008 1.5 -3.7
v -0.6 1.5 -3.8
v -0.4 1.5 -3.8
v 0.2 1.5 -3.8
v 0.4 1.5 -3.8
v -0.2 1.5 -3.9
v -5.96046e-008 1.5 -3.9
v -0.4 1.5 -4
v 0.2 1.5 -4
v -0.6 1.5 -4.2
v 0.4 1.5 -4.2
v -0.5 1.6 -3.6
v -0.4 1.6 -3.6
v 0.2 1.6 -3.6
v 0.3 1.6 -3.6
v -0.5 1.6 -3.7
v -0.4 1.6 -3.7
v 0.2 1.6 -3.7
v 0.3 1.6 -3.7
v -0.5 1.6 -3.8
v -0.4 1.6 -3.8
v 0.2 1.6 -3.8
v 0.3 1.6 -3.8
v -0.4 1.9 -3.4
v -0.2 1.9 -3.4
v -5.96046e-008 1.9 -3.4
v 0.2 1.9 -3.4
v -0.5 1.9 -3.5
v -0.4 1.9 -3.5
v -0.3 1.9 -3.5
v -0.2 1.9 -3.5
v -5.96046e-008 1.9 -3.5
v 0.1 1.9 -3.5
v 0.2 1.9 -3.5
v -0.5 1.9 -3.6
v -0.4 1.9 -3.6
v -0.1 2 -3.4
v -5.96046e-008 2 -3.4
v 0.2 2 -3.4
v 0.3 2 -3.4
v -0.1 2 -3.5
v -5.96046e-008 2 -3.5
v 0.2 2 -3.5
v 0.2 2 -3.6
v 0.3 2 -3.6
v -0.3 2.1 -3.4
v -0.2 2.1 -3.4
v -0.3 2.1 -3.5
v -0.2 2.1 -3.5
v -0.2 2.2 -3.4
v -0.1 2.2 -3.4
v -0.2 2.2 -3.5
v -0.1 2.2 -3.5
v -0.4 0.1 -3.6
v -0.2 0.1 -3.6
v -5.96046e-008 0.1 -3.6
v 0.2 0.1 -3.6
v -0.4 0.1 -3.7
v -0.2 0.1 -3.7
v -5.96046e-008 0.1 -3.7
v 0.2 0.1 -3.7
v -0.4 1.4 -3.6
v -0.3 1.4 -3.6
v 0.1 1.4 -3.6
v 0.2 1.4 -3.6
v -0.6 1.4 -3.7
v -0.4 1.4 -3.7
v -0.2 1.4 -3.7
v -5.96046e-008 1.4 -3.7
v 0.2 1.4 -3.7
v 0.4 1.4 -3.7
v -0.6 1.4 -3.9
v -0.4 1.4 -3.9
v -0.3 1.4 -3.9
v -0.2 1.4 -3.9
v -5.96046e-008 1.4 -3.9
v 0.1 1.4 -3.9
v 0.2 1.4 -3.9
v 0.4 1.4 -3.9
v -0.4 1.4 -4
v 0.2 1.4 -4
v -0.6 1.6 -3.8
v -0.5 1.6 -3.8
v 0.3 1.6 -3.8
v 0.4 1.6 -3.8
v -0.5 1.6 -4.1
v 0.3 1.6 -4.1
v -0.6 1.6 -4.2
v 0.4 1.6 -4.2
v -0.3 2 -3.4
v -0.2 2 -3.4
v -0.3 2 -3.5
v -0.2 2 -3.5
v -0.5 2.2 -4
v -0.4 2.2 -4
v 0.2 2.2 -4
v 0.3 2.2 -4
v -0.5 2.2 -4.1
v -0.4 2.2 -4.1
v 0.2 2.2 -4.1
v 0.3 2.2 -4.1
v -5.96046e-008 2.3 -3.4
v 0.3 2.3 -3.4
v -0.5 2.3 -3.5
v -0.4 2.3 -3.5
v -5.96046e-008 2.3 -3.5
v 0.2 2.3 -3.5
v -0.5 2.3 -4
v -0.4 2.3 -4
v -0.3 2.3 -4
v 0.1 2.3 -4
v 0.2 2.3 -4
v 0.3 2.3 -4
v -0.4 2.3 -4.1
v -0.3 2.3 -4.1
v 0.1 2.3 -4.1
v 0.2 2.3 -4.1
v -0.4 2.4 -3.4
v -5.96046e-008 2.4 -3.4
v -5.96046e-008 2.4 -3.5
v 0.2 2.4 -3.5
v -0.4 2.4 -4
v -0.3 2.4 -4
v 0.1 2.4 -4
v 0.2 2.4 -4
v -0.3 2.4 -4.1
v 0.1 2.4 -4.1

# faces
f 3/1/1 2/1/1 1/1/1
f 4/1/1 2/1/1 3/1/1
f 5/3/1 4/3/1 3/3/1
f 6/3/1 4/3/1 5/3/1
f 9/4/1 8/4/1 7/4/1
f 10/4/1 8/4/1 9/4/1
f 16/4/1 12/4/1 11/4/1
f 17/2/1 13/2/1 12/2/1
f 17/4/1 12/4/1 16/4/1
f 18/4/1 14/4/1 13/4/1
f 18/2/1 13/2/1 17/2/1
f 19/4/1 17/4/1 16/4/1
f 19/4/1 14/4/1 18/4/1
f 19/4/1 18/4/1 17/4/1
f 19/4/1 16/4/1 15/4/1
f 20/4/1 14/4/1 19/4/1
f 21/4/1 19/4/1 15/4/1
f 22/4/1 19/4/1 21/4/1
f 25/4/1 24/4/1 23/4/1
f 26/4/1 24/4/1 25/4/1
f 27/4/1 24/4/1 26/4/1
f 28/1/1 27/1/1 26/1/1
f 29/1/1 27/1/1 28/1/1
f 30/4/1 29/4/1 28/4/1
f 31/4/1 29/4/1 30/4/1
f 36/4/1 33/4/1 32/4/1
f 37/4/1 33/4/1 36/4/1
f 38/4/1 35/4/1 34/4/1
f 39/4/1 35/4/1 38/4/1
f 40/3/1 37/3/1 36/3/1
f 41/3/1 37/3/1 40/3/1
f 42/4/1 41/4/1 40/4/1
f 43/4/1 41/4/1 42/4/1
f 44/3/1 43/3/1 42/3/1
f 45/3/1 43/3/1 44/3/1
f 46/3/1 39/3/1 38/3/1
f 47/3/1 39/3/1 46/3/1
f 50/1/1 49/1/1 48/1/1
f 51/1/1 49/1/1 50/1/1
f 52/1/1 49/1/1 51/1/1
f 54/1/1 50/1/1 48/1/1
f 55/1/1 50/1/1 54/1/1
f 58/4/1 54/4/1 53/4/1
f 59/4/1 57/4/1 56/4/1
f 60/4/1 57/4/1 59/4/1
f 61/4/1 58/4/1 53/4/1
f 61/4/1 59/4/1 58/4/1
f 62/4/1 59/4/1 61/4/1
f 65/4/1 64/4/1 63/4/1
f 66/4/1 64/4/1 65/4/1
f 69/1/1 68/1/1 67/1/1
f 70/1/1 68/1/1 69/1/1
f 73/4/1 72/4/1 71/4/1
f 74/4/1 72/4/1 73/4/1
f 77/4/1 76/4/1 75/4/1
f 78/4/1 76/4/1 77/4/1
f 79/4/1 76/4/1 78/4/1
f 80/1/1 79/1/1 78/1/1
f 81/1/1 79/1/1 80/1/1
f 82/4/1 81/4/1 80/4/1
f 83/4/1 81/4/1 82/4/1
f 86/4/1 85/4/1 84/4/1
f 87/4/1 85/4/1 86/4/1
f 88/4/2 89/4/2 90/4/2
f 90/4/2 89/4/2 91/4/2
f 92/4/2 93/4/2 94/4/2
f 94/4/2 93/4/2 95/4/2
f 95/4/2 93/4/2 96/4/2
f 95/1/2 96/1/2 97/1/2
f 97/1/2 96/1/2 98/1/2
f 97/4/2 98/4/2 99/4/2
f 99/4/2 98/4/2 100/4/2
f 101/4/2 102/4/2 103/4/2
f 103/4/2 102/4/2 104/4/2
f 105/4/2 106/4/2 107/4/2
f 107/4/2 106/4/2 108/4/2
f 109/1/2 110/1/2 111/1/2
f 111/1/2 110/1/2 112/1/2
f 113/4/2 114/4/2 115/4/2
f 115/4/2 114/4/2 116/4/2
f 117/4/2 118/4/2 119/4/2
f 119/4/2 118/4/2 120/4/2
f 121/4/2 122/4/2 123/4/2
f 123/4/2 122/4/2 124/4/2
f 124/4/2 122/4/2 125/4/2
f 124/1/2 125/1/2 126/1/2
f 126/1/2 125/1/2 127/1/2
f 126/4/2 127/4/2 128/4/2
f 128/4/2 127/4/2 129/4/2
f 130/4/2 131/4/2 134/4/2
f 134/4/2 131/4/2 135/4/2
f 132/4/2 133/4/2 136/4/2
f 136/4/2 133/4/2 137/4/2
f 134/3/2 135/3/2 138/3/2
f 138/3/2 135/3/2 139/3/2
f 138/4/2 139/4/2 140/4/2
f 140/4/2 139/4/2 141/4/2
f 140/3/2 141/3/2 142/3/2
f 142/3/2 141/3/2 143/3/2
f 136/3/2 137/3/2 144/3/2
f 144/3/2 137/3/2 145/3/2
f 146/1/2 147/1/2 148/1/2
f 148/1/2 147/1/2 149/1/2
f 149/1/2 147/1/2 150/1/2
f 146/1/2 148/1/2 152/1/2
f 151/4/2 152/4/2 153/4/2
f 152/1/2 148/1/2 154/1/2
f 153/4/2 152/4/2 154/4/2
f 154/1/2 148/1/2 155/1/2
f 156/4/2 157/4/2 159/4/2
f 159/4/2 157/4/2 160/4/2
f 158/4/2 159/4/2 161/4/2
f 161/4/2 159/4/2 162/4/2
f 163/4/2 164/4/2 167/4/2
f 164/2/2 165/2/2 167/2/2
f 165/4/2 166/4/2 168/4/2
f 167/2/2 165/2/2 168/2/2
f 163/4/2 167/4/2 170/4/2
f 167/4/2 168/4/2 170/4/2
f 168/4/2 166/4/2 171/4/2
f 169/4/2 170/4/2 171/4/2
f 170/4/2 168/4/2 171/4/2
f 171/4/2 166/4/2 172/4/2
f 169/4/2 171/4/2 173/4/2
f 173/4/2 171/4/2 174/4/2
f 175/1/2 176/1/2 177/1/2
f 177/1/2 176/1/2 178/1/2
f 177/3/2 178/3/2 179/3/2
f 179/3/2 178/3/2 180/3/2
f 181/4/2 182/4/2 183/4/2
f 183/4/2 182/4/2 184/4/2
f 187/4/3 186/4/3 185/4/3
f 188/4/3 186/4/3 187/4/3
f 189/4/3 187/4/3 185/4/3
f 190/4/3 187/4/3 189/4/3
f 191/4/3 186/4/3 188/4/3
f 192/4/3 186/4/3 191/4/3
f 194/4/3 186/4/3 192/4/3
f 196/4/3 194/4/3 193/4/3
f 197/4/3 186/4/3 194/4/3
f 197/4/3 194/4/3 196/4/3
f 198/4/3 186/4/3 197/4/3
f 199/4/3 196/4/3 195/4/3
f 199/4/3 197/4/3 196/4/3
f 200/4/3 197/4/3 199/4/3
f 201/4/3 197/4/3 200/4/3
f 202/4/3 197/4/3 201/4/3
f 206/4/3 204/4/3 203/4/3
f 207/4/3 204/4/3 206/4/3
f 208/1/3 206/1/3 205/1/3
f 209/1/3 206/1/3 208/1/3
f 212/1/3 208/1/3 205/1/3
f 213/1/3 208/1/3 212/1/3
f 214/4/3 209/4/3 208/4/3
f 214/1/3 208/1/3 213/1/3
f 215/4/3 209/4/3 214/4/3
f 216/1/3 211/1/3 210/1/3
f 217/1/3 211/1/3 216/1/3
f 219/1/3 215/1/3 214/1/3
f 219/1/3 218/1/3 217/1/3
f 219/1/3 217/1/3 216/1/3
f 219/1/3 216/1/3 215/1/3
f 219/1/3 214/1/3 213/1/3
f 220/1/3 218/1/3 219/1/3
f 221/5/3 213/5/3 212/5/3
f 221/1/3 212/1/3 205/1/3
f 222/1/3 219/1/3 213/1/3
f 222/5/3 213/5/3 221/5/3
f 223/1/3 219/1/3 222/1/3
f 224/1/3 219/1/3 223/1/3
f 225/1/3 219/1/3 224/1/3
f 228/4/3 224/4/3 223/4/3
f 228/1/3 223/1/3 222/1/3
f 228/1/3 222/1/3 221/1/3
f 229/4/3 224/4/3 228/4/3
f 230/1/3 221/1/3 205/1/3
f 230/1/3 228/1/3 221/1/3
f 230/1/3 229/1/3 228/1/3
f 231/1/3 229/1/3 230/1/3
f 232/4/3 227/4/3 226/4/3
f 233/4/3 227/4/3 232/4/3
f 243/4/3 235/4/3 234/4/3
f 244/4/3 235/4/3 243/4/3
f 245/3/3 242/3/3 241/3/3
f 246/3/3 242/3/3 245/3/3
f 247/4/3 237/4/3 236/4/3
f 248/4/3 237/4/3 247/4/3
f 249/3/3 240/3/3 239/3/3
f 250/4/3 241/4/3 240/4/3
f 250/3/3 240/3/3 249/3/3
f 251/4/3 241/4/3 250/4/3
f 252/3/3 245/3/3 241/3/3
f 252/4/3 241/4/3 251/4/3
f 255/3/3 249/3/3 239/3/3
f 255/4/3 251/4/3 250/4/3
f 255/4/3 250/4/3 249/4/3
f 256/4/3 251/4/3 255/4/3
f 257/3/3 252/3/3 251/3/3
f 257/4/3 251/4/3 256/4/3
f 258/3/3 245/3/3 252/3/3
f 258/3/3 252/3/3 257/3/3
f 259/1/3 246/1/3 245/1/3
f 259/3/3 245/3/3 258/3/3
f 260/1/3 246/1/3 259/1/3
f 261/4/3 254/4/3 253/4/3
f 262/4/3 254/4/3 261/4/3
f 263/4/3 239/4/3 238/4/3
f 264/3/3 256/3/3 255/3/3
f 264/4/3 239/4/3 263/4/3
f 264/3/3 255/3/3 239/3/3
f 265/4/3 257/4/3 256/4/3
f 265/3/3 256/3/3 264/3/3
f 265/4/3 258/4/3 257/4/3
f 266/3/3 260/3/3 259/3/3
f 266/4/3 258/4/3 265/4/3
f 266/3/3 259/3/3 258/3/3
f 267/3/3 260/3/3 266/3/3
f 270/4/3 269/4/3 268/4/3
f 271/4/3 269/4/3 270/4/3
f 277/1/3 273/1/3 272/1/3
f 278/1/3 273/1/3 277/1/3
f 279/3/3 274/3/3 273/3/3
f 279/1/3 273/1/3 278/1/3
f 280/3/3 274/3/3 279/3/3
f 281/3/3 274/3/3 280/3/3
f 282/3/3 274/3/3 281/3/3
f 283/1/3 276/1/3 275/1/3
f 284/4/3 278/4/3 277/4/3
f 284/1/3 276/1/3 283/1/3
f 284/4/3 277/4/3 276/4/3
f 285/4/3 278/4/3 284/4/3
f 291/1/3 287/1/3 286/1/3
f 292/1/3 287/1/3 291/1/3
f 293/1/3 289/1/3 288/1/3
f 294/4/3 290/4/3 289/4/3
f 294/1/3 289/1/3 293/1/3
f 295/4/3 290/4/3 294/4/3
f 296/4/3 290/4/3 295/4/3
f 301/1/3 296/1/3 295/1/3
f 301/1/3 297/1/3 296/1/3
f 302/3/3 300/3/3 299/3/3
f 302/1/3 297/1/3 301/1/3
f 302/3/3 299/3/3 298/3/3
f 302/3/3 298/3/3 297/3/3
f 303/3/3 300/3/3 302/3/3
f 306/4/3 305/4/3 304/4/3
f 307/4/3 306/4/3 304/4/3
f 308/4/3 306/4/3 307/4/3
f 311/4/3 310/4/3 309/4/3
f 312/4/3 311/4/3 309/4/3
f 313/4/3 311/4/3 312/4/3
f 314/1/4 315/1/4 320/1/4
f 320/1/4 315/1/4 321/1/4
f 315/3/4 316/3/4 322/3/4
f 321/1/4 315/1/4 322/1/4
f 322/3/4 316/3/4 323/3/4
f 317/4/4 318/4/4 324/4/4
f 318/1/4 319/1/4 325/1/4
f 324/4/4 318/4/4 325/4/4
f 320/4/4 321/4/4 326/4/4
f 325/1/4 319/1/4 326/1/4
f 319/4/4 320/4/4 326/4/4
f 326/4/4 321/4/4 327/4/4
f 328/1/4 329/1/4 334/1/4
f 334/1/4 329/1/4 335/1/4
f 330/4/4 331/4/4 336/4/4
f 331/1/4 332/1/4 337/1/4
f 336/4/4 331/4/4 337/4/4
f 332/4/4 333/4/4 338/4/4
f 337/1/4 332/1/4 338/1/4
f 338/4/4 333/4/4 339/4/4
f 339/4/4 333/4/4 340/4/4
f 340/1/4 341/1/4 343/1/4
f 339/1/4 340/1/4 343/1/4
f 341/3/4 342/3/4 344/3/4
f 343/1/4 341/1/4 344/1/4
f 344/3/4 342/3/4 345/3/4
f 346/4/4 347/4/4 351/4/4
f 351/4/4 347/4/4 352/4/4
f 352/4/4 353/4/4 354/4/4
f 354/4/4 353/4/4 355/4/4
f 348/4/4 349/4/4 358/4/4
f 349/3/4 350/3/4 359/3/4
f 358/4/4 349/4/4 359/4/4
f 359/3/4 350/3/4 360/3/4
f 356/4/4 357/4/4 362/4/4
f 362/4/4 357/4/4 363/4/4
f 361/4/4 362/4/4 364/4/4
f 364/4/4 362/4/4 365/4/4
f 366/4/4 367/4/4 368/4/4
f 368/4/4 369/4/4 370/4/4
f 368/4/4 370/4/4 372/4/4
f 370/4/4 371/4/4 372/4/4
f 372/4/4 371/4/4 373/4/4
f 366/4/4 368/4/4 374/4/4
f 368/4/4 372/4/4 374/4/4
f 374/4/4 372/4/4 375/4/4
f 366/4/4 374/4/4 376/4/4
f 376/4/4 374/4/4 377/4/4
f 378/4/4 379/4/4 380/4/4
f 380/4/4 379/4/4 381/4/4
f 386/4/5 383/4/5 382/4/5
f 387/4/5 383/4/5 386/4/5
f 388/4/5 385/4/5 384/4/5
f 389/4/5 385/4/5 388/4/5
f 394/1/5 391/1/5 390/1/5
f 395/1/5 391/1/5 394/1/5
f 396/1/5 393/1/5 392/1/5
f 397/1/5 393/1/5 396/1/5
f 400/4/5 399/4/5 398/4/5
f 401/4/5 399/4/5 400/4/5
f 402/4/5 399/4/5 401/4/5
f 403/4/5 399/4/5 402/4/5
f 405/4/5 402/4/5 401/4/5
f 406/4/5 402/4/5 405/4/5
f 408/4/5 405/4/5 404/4/5
f 408/4/5 407/4/5 406/4/5
f 408/4/5 406/4/5 405/4/5
f 409/4/5 407/4/5 408/4/5
f 412/1/5 411/1/5 410/1/5
f 413/1/5 411/1/5 412/1/5
f 415/1/5 412/1/5 410/1/5
f 416/1/5 411/1/5 413/1/5
f 418/1/5 412/1/5 415/1/5
f 419/1/5 416/1/5 413/1/5
f 420/4/5 415/4/5 414/4/5
f 420/1/5 419/1/5 418/1/5
f 420/1/5 418/1/5 415/1/5
f 421/1/5 416/1/5 419/1/5
f 421/1/5 419/1/5 420/1/5
f 421/4/5 417/4/5 416/4/5
f 422/4/5 420/4/5 414/4/5
f 422/4/5 421/4/5 420/4/5
f 423/4/5 417/4/5 421/4/5
f 423/4/5 421/4/5 422/4/5
f 428/4/5 425/4/5 424/4/5
f 429/4/5 425/4/5 428/4/5
f 430/4/5 427/4/5 426/4/5
f 431/4/5 427/4/5 430/4/5
f 432/2/5 429/2/5 428/2/5
f 433/2/5 429/2/5 432/2/5
f 434/2/5 431/2/5 430/2/5
f 435/2/5 431/2/5 434/2/5
f 441/4/5 437/4/5 436/4/5
f 442/4/5 437/4/5 441/4/5
f 443/4/5 437/4/5 442/4/5
f 444/4/5 439/4/5 438/4/5
f 445/4/5 439/4/5 444/4/5
f 446/4/5 439/4/5 445/4/5
f 447/4/5 441/4/5 440/4/5
f 448/4/5 441/4/5 447/4/5
f 453/4/5 450/4/5 449/4/5
f 454/4/5 450/4/5 453/4/5
f 455/4/5 452/4/5 451/4/5
f 456/4/5 452/4/5 455/4/5
f 457/4/5 452/4/5 456/4/5
f 460/4/5 459/4/5 458/4/5
f 461/4/5 459/4/5 460/4/5
f 464/4/5 463/4/5 462/4/5
f 465/4/5 463/4/5 464/4/5
f 466/4/6 467/4/6 470/4/6
f 470/4/6 467/4/6 471/4/6
f 468/4/6 469/4/6 472/4/6
f 472/4/6 469/4/6 473/4/6
f 474/3/6 475/3/6 479/3/6
f 475/1/6 476/1/6 480/1/6
f 480/1/6 476/1/6 481/1/6
f 476/3/6 477/3/6 482/3/6
f 478/3/6 479/3/6 484/3/6
f 479/3/6 475/3/6 485/3/6
f 484/3/6 479/3/6 485/3/6
f 475/1/6 480/1/6 486/1/6
f 485/3/6 475/3/6 486/3/6
f 486/1/6 480/1/6 487/1/6
f 481/1/6 476/1/6 488/1/6
f 482/3/6 483/3/6 489/3/6
f 476/3/6 482/3/6 489/3/6
f 488/1/6 476/1/6 489/1/6
f 489/3/6 483/3/6 490/3/6
f 490/3/6 483/3/6 491/3/6
f 486/3/6 487/3/6 492/3/6
f 487/3/6 488/3/6 492/3/6
f 489/3/6 490/3/6 492/3/6
f 488/3/6 489/3/6 492/3/6
f 485/3/6 486/3/6 492/3/6
f 492/3/6 490/3/6 493/3/6
f 494/4/6 495/4/6 498/4/6
f 496/4/6 497/4/6 499/4/6
f 494/4/6 498/4/6 500/4/6
f 498/4/6 499/4/6 500/4/6
f 499/4/6 497/4/6 501/4/6
f 500/4/6 499/4/6 501/4/6
f 502/4/6 503/4/6 504/4/6
f 504/4/6 503/4/6 505/4/6
f 506/4/6 507/4/6 510/4/6
f 510/4/6 507/4/6 511/4/6
f 508/4/6 509/4/6 512/4/6
f 512/4/6 509/4/6 513/4/6
f 514/4/6 515/4/6 518/4/6
f 518/4/6 515/4/6 519/4/6
f 516/4/6 517/4/6 520/4/6
f 520/4/6 517/4/6 521/4/6
f 519/4/6 515/4/6 524/4/6
f 524/4/6 515/4/6 525/4/6
f 521/4/6 522/4/6 526/4/6
f 526/4/6 522/4/6 527/4/6
f 523/4/6 524/4/6 528/4/6
f 528/4/6 524/4/6 529/4/6
f 530/4/6 531/4/6 532/4/6
f 530/4/6 532/4/6 534/4/6
f 532/4/6 533/4/6 534/4/6
f 534/4/6 533/4/6 535/4/6
f 535/4/6 533/4/6 536/4/6
f 536/4/6 533/4/6 537/4/6
f 535/4/6 536/4/6 538/4/6
f 538/4/6 536/4/6 539/4/6
