# generated by tools/rig_people.py — do not edit
mtllib people.mtl
o arm-r
usemtl palette
v 4 6 0
v 4 6 2
v 4 7 2
v 4 7 0
v 4 8 2
v 4 8 0
v 4 11 2
v 4 11 0
v 3 11 -1
v 3 11 3
v 3 14 3
v 3 14 -1
v 6 8 0
v 6 8 2
v 6 6 2
v 6 6 0
v 6 9 0
v 6 9 2
v 6 10 0
v 6 10 2
v 6 11 0
v 6 11 2
v 6 14 0
v 6 14 2
v 4 14 -1
v 4 14 0
v 4 11 -1
v 4 14 2
v 4 14 3
v 4 11 3
v 5 8 2
v 5 6 2
v 4 9 2
v 5 10 2
v 5 9 2
v 5 11 2
v 5 7 2
v 5 6 0
v 5 8 0
v 4 9 0
v 5 9 0
v 5 10 0
v 5 11 0
v 5 7 0
vt 0.7753906 0.5
vt 0.5292969 0.5
vt 0.6503906 0.5
vt 0.6582031 0.5
vn -1 0 0
vn 1 0 0
vn 0 0 1
vn 0 0 -1
vn 0 1 0
vn 0 -1 0
f 1/1/1 2/1/1 3/1/1 4/1/1
f 4/2/1 3/2/1 5/2/1 6/2/1
f 6/1/1 5/1/1 7/1/1 8/1/1
f 9/2/1 10/2/1 11/2/1 12/2/1
f 13/2/2 14/2/2 15/2/2 16/2/2
f 17/1/2 18/1/2 14/1/2 13/1/2
f 19/3/2 20/3/2 18/3/2 17/3/2
f 21/4/2 22/4/2 20/4/2 19/4/2
f 23/1/2 24/1/2 22/1/2 21/1/2
f 25/2/2 26/2/2 8/2/2 27/2/2
f 28/2/2 29/2/2 30/2/2 7/2/2
f 14/2/3 31/2/3 32/2/3 15/2/3
f 18/1/3 33/1/3 5/1/3 14/1/3
f 20/3/3 34/3/3 35/3/3 18/3/3
f 22/4/3 36/4/3 34/4/3 20/4/3
f 24/1/3 28/1/3 7/1/3 22/1/3
f 37/1/3 3/1/3 2/1/3 32/1/3
f 31/2/3 5/2/3 3/2/3 37/2/3
f 36/1/3 7/1/3 33/1/3 35/1/3
f 29/2/3 11/2/3 10/2/3 30/2/3
f 27/2/4 9/2/4 12/2/4 25/2/4
f 16/2/4 38/2/4 39/2/4 13/2/4
f 13/1/4 6/1/4 40/1/4 17/1/4
f 17/3/4 41/3/4 42/3/4 19/3/4
f 19/4/4 42/4/4 43/4/4 21/4/4
f 21/1/4 8/1/4 26/1/4 23/1/4
f 38/1/4 1/1/4 4/1/4 44/1/4
f 44/2/4 4/2/4 6/2/4 39/2/4
f 41/1/4 40/1/4 8/1/4 43/1/4
f 23/1/5 26/1/5 28/1/5 24/1/5
f 25/2/5 12/2/5 11/2/5 29/2/5
f 15/2/6 32/2/6 38/2/6 16/2/6
f 32/1/6 2/1/6 1/1/6 38/1/6
f 30/2/6 10/2/6 9/2/6 27/2/6
