# generated by tools/rig_people.py — do not edit
mtllib people.mtl
o arm-l
usemtl palette
v -5 6 1
v -5 6 3
v -5 8 3
v -5 8 1
v -5 9 3
v -5 9 1
v -5 14 3
v -5 14 1
v -3 8 1
v -3 8 3
v -3 6 3
v -3 6 1
v -3 9 1
v -3 9 3
v -3 14 1
v -3 14 3
vt 0.0410156 0.5
vt 0.9785156 0.5
vt 0.9394531 0.5
vn -1 0 0
vn 1 0 0
vn 0 0 1
vn 0 0 -1
vn 0 1 0
vn 0 -1 0
f 1/1/1 2/1/1 3/1/1 4/1/1
f 4/2/1 3/2/1 5/2/1 6/2/1
f 6/3/1 5/3/1 7/3/1 8/3/1
f 9/1/2 10/1/2 11/1/2 12/1/2
f 13/2/2 14/2/2 10/2/2 9/2/2
f 15/3/2 16/3/2 14/3/2 13/3/2
f 10/1/3 3/1/3 2/1/3 11/1/3
f 14/2/3 5/2/3 3/2/3 10/2/3
f 16/3/3 7/3/3 5/3/3 14/3/3
f 12/1/4 1/1/4 4/1/4 9/1/4
f 9/2/4 4/2/4 6/2/4 13/2/4
f 13/3/4 6/3/4 8/3/4 15/3/4
f 15/3/5 8/3/5 7/3/5 16/3/5
f 11/1/6 2/1/6 1/1/6 12/1/6
