# generated by tools/rig_people.py — do not edit
mtllib people.mtl
o arm-l
usemtl palette
v -5 9 -4.5
v -5 9 -2.5
v -5 11 -2.5
v -5 11 -4.5
v -5 9 -1.5
v -5 11 -1.5
v -5 9 2.5
v -5 11 2.5
v -5 11 0.5
v -5 14 2.5
v -5 14 0.5
v -3 11 -4.5
v -3 11 -2.5
v -3 9 -2.5
v -3 9 -4.5
v -3 11 -1.5
v -3 9 -1.5
v -3 11 2.5
v -3 9 2.5
v -3 14 0.5
v -3 14 2.5
v -3 11 0.5
vt 0.0410156 0.5
vt 0.9785156 0.5
vt 0.2480469 0.5
vn -1 0 0
vn 1 0 0
vn 0 0 1
vn 0 0 -1
vn 0 1 0
vn 0 -1 0
f 1/1/1 2/1/1 3/1/1 4/1/1
f 2/2/1 5/2/1 6/2/1 3/2/1
f 5/3/1 7/3/1 8/3/1 6/3/1
f 9/3/1 8/3/1 10/3/1 11/3/1
f 12/1/2 13/1/2 14/1/2 15/1/2
f 13/2/2 16/2/2 17/2/2 14/2/2
f 16/3/2 18/3/2 19/3/2 17/3/2
f 20/3/2 21/3/2 18/3/2 22/3/2
f 21/3/3 10/3/3 7/3/3 19/3/3
f 15/1/4 1/1/4 4/1/4 12/1/4
f 22/3/4 9/3/4 11/3/4 20/3/4
f 12/1/5 4/1/5 3/1/5 13/1/5
f 13/2/5 3/2/5 6/2/5 16/2/5
f 16/3/5 6/3/5 9/3/5 22/3/5
f 20/3/5 11/3/5 10/3/5 21/3/5
f 14/1/6 2/1/6 1/1/6 15/1/6
f 17/2/6 5/2/6 2/2/6 14/2/6
f 19/3/6 7/3/6 5/3/6 17/3/6
