# MagicaVoxel @ Ephtracy

# group
o 

# material
mtllib Character-11.mtl
usemtl palette

# normals
vn -1 0 0
vn 1 0 0
vn 0 0 1
vn 0 0 -1
vn 0 -1 0
vn 0 1 0

# texcoords
vt 0.0371094 0.5
vt 0.0488281 0.5
vt 0.474609 0.5
vt 0.525391 0.5
vt 0.541016 0.5
vt 0.548828 0.5
vt 0.974609 0.5

# verts
v -3.1 0.6 5.8
v -3.1 0.6 5.6
v -3.1 0.8 5.8
v -3.1 0.8 5.6
v -3.1 0.9 5.8
v -3.1 0.9 5.6
v -3.1 1.4 5.8
v -3.1 1.4 5.6
v -3 1.4 5.7
v -3 1.4 5.6
v -3 1.4 5.4
v -3 1.6 5.9
v -3 1.6 5.8
v -3 1.6 5.7
v -3 1.9 6
v -3 1.9 5.9
v -3 1.9 5.8
v -3 1.9 5.7
v -3 2.3 6
v -3 2.3 5.4
v -2.9 0 5.9
v -2.9 0 5.6
v -2.9 0.1 5.9
v -2.9 0.1 5.8
v -2.9 0.1 5.6
v -2.9 0.6 5.9
v -2.9 0.6 5.8
v -2.9 0.6 5.6
v -2.9 0.6 5.5
v -2.9 0.8 5.8
v -2.9 0.8 5.6
v -2.9 0.9 5.8
v -2.9 0.9 5.6
v -2.9 1.4 5.9
v -2.9 1.4 5.8
v -2.9 1.4 5.6
v -2.9 1.4 5.5
v -2.9 1.5 6
v -2.9 1.5 5.7
v -2.9 1.6 6
v -2.9 1.6 5.9
v -2.9 1.6 5.8
v -2.9 1.6 5.7
v -2.9 1.8 6
v -2.9 1.8 5.9
v -2.9 1.9 6.1
v -2.9 1.9 6
v -2.9 1.9 5.9
v -2.9 2 6.1
v -2.9 2 6
v -2.9 2.1 6.1
v -2.9 2.1 6
v -2.9 2.3 6
v -2.9 2.3 5.5
v -2.9 2.4 6.1
v -2.9 2.4 5.5
v -2.8 2.3 5.5
v -2.8 2.3 5.4
v -2.8 2.4 5.5
v -2.8 2.4 5.4
v -2.7 1.4 5.8
v -2.7 1.4 5.6
v -2.7 1.5 5.8
v -2.7 1.5 5.6
v -2.7 2 6.1
v -2.7 2 6
v -2.7 2.1 6.1
v -2.7 2.1 6
v -2.5 0 5.9
v -2.5 0 5.6
v -2.5 0.1 5.9
v -2.5 0.1 5.8
v -2.5 0.1 5.6
v -2.5 0.6 5.8
v -2.5 0.6 5.6
v -2.5 1.9 6.1
v -2.5 1.9 6
v -2.5 2 6.1
v -2.5 2 6
v -2.4 1.8 6.1
v -2.4 1.8 6
v -2.4 1.9 6.1
v -2.4 1.9 6
v -2.3 1.4 5.7
v -2.3 1.4 5.5
v -2.3 1.5 5.7
v -2.3 1.5 5.5
v -2.9 1.4 5.7
v -2.9 1.4 5.5
v -2.9 1.5 5.7
v -2.9 1.5 5.5
v -2.7 0 5.9
v -2.7 0 5.6
v -2.7 0.1 5.9
v -2.7 0.1 5.8
v -2.7 0.1 5.6
v -2.7 0.6 5.8
v -2.7 0.6 5.6
v -2.7 1.9 6.1
v -2.7 1.9 6
v -2.7 2 6.1
v -2.7 2 6
v -2.5 1.4 5.8
v -2.5 1.4 5.6
v -2.5 1.5 5.8
v -2.5 1.5 5.6
v -2.3 0 5.9
v -2.3 0 5.6
v -2.3 0.1 5.9
v -2.3 0.1 5.8
v -2.3 0.1 5.6
v -2.3 0.6 5.9
v -2.3 0.6 5.8
v -2.3 0.6 5.6
v -2.3 0.6 5.5
v -2.3 0.8 5.8
v -2.3 0.8 5.6
v -2.3 0.9 5.8
v -2.3 0.9 5.6
v -2.3 1.4 5.9
v -2.3 1.4 5.8
v -2.3 1.4 5.6
v -2.3 1.4 5.5
v -2.3 1.5 6
v -2.3 1.5 5.7
v -2.3 1.6 6
v -2.3 1.6 5.9
v -2.3 1.6 5.8
v -2.3 1.6 5.7
v -2.3 1.8 6.1
v -2.3 1.8 6
v -2.3 1.8 5.9
v -2.3 1.9 6
v -2.3 1.9 5.9
v -2.3 2 6.1
v -2.3 2 6
v -2.3 2.3 6.1
v -2.3 2.3 6
v -2.3 2.3 5.5
v -2.3 2.3 5.4
v -2.3 2.4 6.1
v -2.3 2.4 6
v -2.3 2.4 5.5
v -2.3 2.4 5.4
v -2.2 1.4 5.7
v -2.2 1.4 5.6
v -2.2 1.4 5.4
v -2.2 1.6 5.9
v -2.2 1.6 5.8
v -2.2 1.6 5.7
v -2.2 1.9 6
v -2.2 1.9 5.9
v -2.2 1.9 5.8
v -2.2 1.9 5.7
v -2.2 2 6.1
v -2.2 2 6
v -2.2 2.3 6.1
v -2.2 2.3 6
v -2.2 2.3 5.5
v -2.2 2.3 5.4
v -2.2 2.4 6
v -2.2 2.4 5.5
v -2.1 0.6 5.8
v -2.1 0.6 5.6
v -2.1 0.8 5.8
v -2.1 0.8 5.6
v -2.1 0.9 5.8
v -2.1 0.9 5.6
v -2.1 1.4 5.8
v -2.1 1.4 5.6
v -2.9 1.9 6.1
v -2.9 2 6.1
v -2.9 2.1 6.1
v -2.9 2.4 6.1
v -2.7 1.9 6.1
v -2.7 2 6.1
v -2.7 2.1 6.1
v -2.5 1.9 6.1
v -2.5 2 6.1
v -2.4 1.8 6.1
v -2.4 1.9 6.1
v -2.3 1.8 6.1
v -2.3 2 6.1
v -2.3 2.3 6.1
v -2.3 2.4 6.1
v -2.2 2 6.1
v -2.2 2.3 6.1
v -3 1.9 6
v -3 2.3 6
v -2.9 1.5 6
v -2.9 1.6 6
v -2.9 1.8 6
v -2.9 1.9 6
v -2.9 2 6
v -2.9 2.1 6
v -2.9 2.3 6
v -2.8 1.6 6
v -2.8 1.8 6
v -2.8 1.9 6
v -2.7 1.6 6
v -2.7 1.7 6
v -2.7 1.8 6
v -2.7 1.9 6
v -2.7 2 6
v -2.7 2.1 6
v -2.5 1.6 6
v -2.5 1.7 6
v -2.5 1.8 6
v -2.5 1.9 6
v -2.5 2 6
v -2.4 1.6 6
v -2.4 1.8 6
v -2.4 1.9 6
v -2.3 1.5 6
v -2.3 1.6 6
v -2.3 1.8 6
v -2.3 1.9 6
v -2.3 2 6
v -2.3 2.3 6
v -2.3 2.4 6
v -2.2 1.9 6
v -2.2 2 6
v -2.2 2.3 6
v -2.2 2.4 6
v -3 1.6 5.9
v -3 1.9 5.9
v -2.9 0 5.9
v -2.9 0.1 5.9
v -2.9 0.6 5.9
v -2.9 1.4 5.9
v -2.9 1.6 5.9
v -2.9 1.8 5.9
v -2.9 1.9 5.9
v -2.8 1.3 5.9
v -2.8 1.4 5.9
v -2.7 0 5.9
v -2.7 0.1 5.9
v -2.7 1.1 5.9
v -2.7 1.3 5.9
v -2.5 0 5.9
v -2.5 0.1 5.9
v -2.5 1.1 5.9
v -2.5 1.3 5.9
v -2.4 1.3 5.9
v -2.4 1.4 5.9
v -2.3 0 5.9
v -2.3 0.1 5.9
v -2.3 0.6 5.9
v -2.3 1.4 5.9
v -2.3 1.6 5.9
v -2.3 1.8 5.9
v -2.3 1.9 5.9
v -2.2 1.6 5.9
v -2.2 1.9 5.9
v -3.1 0.6 5.8
v -3.1 0.8 5.8
v -3.1 0.9 5.8
v -3.1 1.4 5.8
v -2.9 0.1 5.8
v -2.9 0.6 5.8
v -2.9 0.8 5.8
v -2.9 0.9 5.8
v -2.9 1.4 5.8
v -2.7 0.1 5.8
v -2.7 0.6 5.8
v -2.7 1.4 5.8
v -2.7 1.5 5.8
v -2.5 0.1 5.8
v -2.5 0.6 5.8
v -2.5 1.4 5.8
v -2.5 1.5 5.8
v -2.3 0.1 5.8
v -2.3 0.6 5.8
v -2.3 0.8 5.8
v -2.3 0.9 5.8
v -2.3 1.4 5.8
v -2.1 0.6 5.8
v -2.1 0.8 5.8
v -2.1 0.9 5.8
v -2.1 1.4 5.8
v -3 1.4 5.7
v -3 1.6 5.7
v -2.9 1.4 5.7
v -2.9 1.5 5.7
v -2.9 1.6 5.7
v -2.3 1.4 5.7
v -2.3 1.5 5.7
v -2.3 1.6 5.7
v -2.2 1.4 5.7
v -2.2 1.6 5.7
v -2.9 1.4 5.5
v -2.9 1.5 5.5
v -2.3 1.4 5.5
v -2.3 1.5 5.5
v -3.1 0.6 5.6
v -3.1 0.8 5.6
v -3.1 0.9 5.6
v -3.1 1.4 5.6
v -3 1.4 5.6
v -2.9 0 5.6
v -2.9 0.1 5.6
v -2.9 0.6 5.6
v -2.9 0.8 5.6
v -2.9 0.9 5.6
v -2.9 1.4 5.6
v -2.7 0 5.6
v -2.7 0.1 5.6
v -2.7 0.6 5.6
v -2.7 1.4 5.6
v -2.7 1.5 5.6
v -2.5 0 5.6
v -2.5 0.1 5.6
v -2.5 0.6 5.6
v -2.5 1.4 5.6
v -2.5 1.5 5.6
v -2.3 0 5.6
v -2.3 0.1 5.6
v -2.3 0.6 5.6
v -2.3 0.8 5.6
v -2.3 0.9 5.6
v -2.3 1.4 5.6
v -2.2 1.4 5.6
v -2.1 0.6 5.6
v -2.1 0.8 5.6
v -2.1 0.9 5.6
v -2.1 1.4 5.6
v -2.9 0.6 5.5
v -2.9 1.4 5.5
v -2.9 2.3 5.5
v -2.9 2.4 5.5
v -2.8 2.3 5.5
v -2.8 2.4 5.5
v -2.3 0.6 5.5
v -2.3 1.4 5.5
v -2.3 2.3 5.5
v -2.3 2.4 5.5
v -2.2 2.3 5.5
v -2.2 2.4 5.5
v -3 1.4 5.4
v -3 2.3 5.4
v -2.8 2.3 5.4
v -2.8 2.4 5.4
v -2.3 2.3 5.4
v -2.3 2.4 5.4
v -2.2 1.4 5.4
v -2.2 2.3 5.4
v -2.9 0 5.9
v -2.7 0 5.9
v -2.5 0 5.9
v -2.3 0 5.9
v -2.9 0 5.6
v -2.7 0 5.6
v -2.5 0 5.6
v -2.3 0 5.6
v -2.9 0.6 5.9
v -2.3 0.6 5.9
v -3.1 0.6 5.8
v -2.9 0.6 5.8
v -2.7 0.6 5.8
v -2.5 0.6 5.8
v -2.3 0.6 5.8
v -2.1 0.6 5.8
v -3.1 0.6 5.6
v -2.9 0.6 5.6
v -2.7 0.6 5.6
v -2.5 0.6 5.6
v -2.3 0.6 5.6
v -2.1 0.6 5.6
v -2.9 0.6 5.5
v -2.3 0.6 5.5
v -3 1.4 5.6
v -2.9 1.4 5.6
v -2.3 1.4 5.6
v -2.2 1.4 5.6
v -2.9 1.4 5.5
v -2.3 1.4 5.5
v -3 1.4 5.4
v -2.2 1.4 5.4
v -2.9 1.5 6
v -2.3 1.5 6
v -2.7 1.5 5.8
v -2.5 1.5 5.8
v -2.9 1.5 5.7
v -2.3 1.5 5.7
v -2.7 1.5 5.6
v -2.5 1.5 5.6
v -2.9 1.5 5.5
v -2.3 1.5 5.5
v -3 1.6 5.9
v -2.9 1.6 5.9
v -2.3 1.6 5.9
v -2.2 1.6 5.9
v -3 1.6 5.8
v -2.9 1.6 5.8
v -2.3 1.6 5.8
v -2.2 1.6 5.8
v -3 1.6 5.7
v -2.9 1.6 5.7
v -2.3 1.6 5.7
v -2.2 1.6 5.7
v -2.4 1.8 6.1
v -2.3 1.8 6.1
v -2.4 1.8 6
v -2.3 1.8 6
v -2.9 1.9 6.1
v -2.7 1.9 6.1
v -2.5 1.9 6.1
v -2.4 1.9 6.1
v -3 1.9 6
v -2.9 1.9 6
v -2.8 1.9 6
v -2.7 1.9 6
v -2.5 1.9 6
v -2.4 1.9 6
v -2.3 1.9 6
v -2.2 1.9 6
v -3 1.9 5.9
v -2.9 1.9 5.9
v -2.3 1.9 5.9
v -2.2 1.9 5.9
v -2.7 2 6.1
v -2.5 2 6.1
v -2.3 2 6.1
v -2.2 2 6.1
v -2.7 2 6
v -2.5 2 6
v -2.3 2 6
v -2.2 2 6
v -2.9 2.1 6.1
v -2.7 2.1 6.1
v -2.9 2.1 6
v -2.7 2.1 6
v -2.9 0.1 5.9
v -2.7 0.1 5.9
v -2.5 0.1 5.9
v -2.3 0.1 5.9
v -2.9 0.1 5.8
v -2.7 0.1 5.8
v -2.5 0.1 5.8
v -2.3 0.1 5.8
v -2.9 1.4 5.9
v -2.8 1.4 5.9
v -2.4 1.4 5.9
v -2.3 1.4 5.9
v -3.1 1.4 5.8
v -2.9 1.4 5.8
v -2.7 1.4 5.8
v -2.5 1.4 5.8
v -2.3 1.4 5.8
v -2.1 1.4 5.8
v -3 1.4 5.7
v -2.9 1.4 5.7
v -2.3 1.4 5.7
v -2.2 1.4 5.7
v -3.1 1.4 5.6
v -3 1.4 5.6
v -2.8 1.4 5.6
v -2.7 1.4 5.6
v -2.5 1.4 5.6
v -2.4 1.4 5.6
v -2.2 1.4 5.6
v -2.1 1.4 5.6
v -2.9 1.4 5.5
v -2.3 1.4 5.5
v -2.9 2 6.1
v -2.7 2 6.1
v -2.9 2 6
v -2.7 2 6
v -2.3 2.3 6.1
v -2.2 2.3 6.1
v -3 2.3 6
v -2.9 2.3 6
v -2.3 2.3 6
v -2.2 2.3 6
v -2.9 2.3 5.5
v -2.8 2.3 5.5
v -2.3 2.3 5.5
v -2.2 2.3 5.5
v -3 2.3 5.4
v -2.8 2.3 5.4
v -2.3 2.3 5.4
v -2.2 2.3 5.4
v -2.9 2.4 6.1
v -2.3 2.4 6.1
v -2.3 2.4 6
v -2.2 2.4 6
v -2.9 2.4 5.5
v -2.8 2.4 5.5
v -2.3 2.4 5.5
v -2.2 2.4 5.5
v -2.8 2.4 5.4
v -2.3 2.4 5.4

# faces
f 3/1/1 2/1/1 1/1/1
f 4/1/1 2/1/1 3/1/1
f 5/7/1 4/7/1 3/7/1
f 6/7/1 4/7/1 5/7/1
f 7/4/1 6/4/1 5/4/1
f 8/4/1 6/4/1 7/4/1
f 14/3/1 10/3/1 9/3/1
f 14/3/1 11/3/1 10/3/1
f 16/3/1 13/3/1 12/3/1
f 17/2/1 14/2/1 13/2/1
f 17/3/1 13/3/1 16/3/1
f 18/3/1 11/3/1 14/3/1
f 18/2/1 14/2/1 17/2/1
f 19/3/1 16/3/1 15/3/1
f 19/3/1 17/3/1 16/3/1
f 19/3/1 18/3/1 17/3/1
f 20/3/1 11/3/1 18/3/1
f 20/3/1 18/3/1 19/3/1
f 23/4/1 22/4/1 21/4/1
f 24/4/1 22/4/1 23/4/1
f 25/4/1 22/4/1 24/4/1
f 27/1/1 25/1/1 24/1/1
f 28/1/1 25/1/1 27/1/1
f 30/4/1 27/4/1 26/4/1
f 31/4/1 29/4/1 28/4/1
f 32/4/1 30/4/1 26/4/1
f 33/4/1 29/4/1 31/4/1
f 34/4/1 32/4/1 26/4/1
f 35/4/1 32/4/1 34/4/1
f 36/4/1 29/4/1 33/4/1
f 37/4/1 29/4/1 36/4/1
f 40/1/1 39/1/1 38/1/1
f 41/1/1 39/1/1 40/1/1
f 42/1/1 39/1/1 41/1/1
f 43/1/1 39/1/1 42/1/1
f 44/5/1 41/5/1 40/5/1
f 45/5/1 41/5/1 44/5/1
f 47/1/1 45/1/1 44/1/1
f 48/1/1 45/1/1 47/1/1
f 49/3/1 47/3/1 46/3/1
f 50/3/1 47/3/1 49/3/1
f 53/3/1 52/3/1 51/3/1
f 55/3/1 53/3/1 51/3/1
f 55/3/1 54/3/1 53/3/1
f 56/3/1 54/3/1 55/3/1
f 59/3/1 58/3/1 57/3/1
f 60/3/1 58/3/1 59/3/1
f 63/1/1 62/1/1 61/1/1
f 64/1/1 62/1/1 63/1/1
f 67/3/1 66/3/1 65/3/1
f 68/3/1 66/3/1 67/3/1
f 71/4/1 70/4/1 69/4/1
f 72/4/1 70/4/1 71/4/1
f 73/4/1 70/4/1 72/4/1
f 74/1/1 73/1/1 72/1/1
f 75/1/1 73/1/1 74/1/1
f 78/3/1 77/3/1 76/3/1
f 79/3/1 77/3/1 78/3/1
f 82/3/1 81/3/1 80/3/1
f 83/3/1 81/3/1 82/3/1
f 86/3/1 85/3/1 84/3/1
f 87/3/1 85/3/1 86/3/1
f 88/3/2 89/3/2 90/3/2
f 90/3/2 89/3/2 91/3/2
f 92/4/2 93/4/2 94/4/2
f 94/4/2 93/4/2 95/4/2
f 95/4/2 93/4/2 96/4/2
f 95/1/2 96/1/2 97/1/2
f 97/1/2 96/1/2 98/1/2
f 99/3/2 100/3/2 101/3/2
f 101/3/2 100/3/2 102/3/2
f 103/1/2 104/1/2 105/1/2
f 105/1/2 104/1/2 106/1/2
f 107/4/2 108/4/2 109/4/2
f 109/4/2 108/4/2 110/4/2
f 110/4/2 108/4/2 111/4/2
f 110/1/2 111/1/2 113/1/2
f 113/1/2 111/1/2 114/1/2
f 112/4/2 113/4/2 116/4/2
f 114/4/2 115/4/2 117/4/2
f 112/4/2 116/4/2 118/4/2
f 117/4/2 115/4/2 119/4/2
f 112/4/2 118/4/2 120/4/2
f 120/4/2 118/4/2 121/4/2
f 119/4/2 115/4/2 122/4/2
f 122/4/2 115/4/2 123/4/2
f 124/1/2 125/1/2 126/1/2
f 126/1/2 125/1/2 127/1/2
f 127/1/2 125/1/2 128/1/2
f 128/1/2 125/1/2 129/1/2
f 126/5/2 127/5/2 131/5/2
f 131/5/2 127/5/2 132/5/2
f 130/3/2 131/3/2 133/3/2
f 131/1/2 132/1/2 133/1/2
f 133/1/2 132/1/2 134/1/2
f 130/3/2 133/3/2 135/3/2
f 135/3/2 133/3/2 136/3/2
f 137/3/2 138/3/2 141/3/2
f 141/3/2 138/3/2 142/3/2
f 139/3/2 140/3/2 143/3/2
f 143/3/2 140/3/2 144/3/2
f 145/3/2 146/3/2 150/3/2
f 146/3/2 147/3/2 150/3/2
f 148/3/2 149/3/2 152/3/2
f 149/2/2 150/2/2 153/2/2
f 152/3/2 149/3/2 153/3/2
f 150/3/2 147/3/2 154/3/2
f 153/2/2 150/2/2 154/2/2
f 151/3/2 152/3/2 156/3/2
f 152/3/2 153/3/2 156/3/2
f 153/3/2 154/3/2 156/3/2
f 155/3/2 156/3/2 157/3/2
f 156/3/2 154/3/2 158/3/2
f 157/3/2 156/3/2 158/3/2
f 154/3/2 147/3/2 159/3/2
f 158/3/2 154/3/2 159/3/2
f 159/3/2 147/3/2 160/3/2
f 158/3/2 159/3/2 161/3/2
f 161/3/2 159/3/2 162/3/2
f 163/1/2 164/1/2 165/1/2
f 165/1/2 164/1/2 166/1/2
f 165/7/2 166/7/2 167/7/2
f 167/7/2 166/7/2 168/7/2
f 167/4/2 168/4/2 169/4/2
f 169/4/2 168/4/2 170/4/2
f 175/3/3 172/3/3 171/3/3
f 176/3/3 172/3/3 175/3/3
f 177/3/3 174/3/3 173/3/3
f 179/3/3 177/3/3 176/3/3
f 181/3/3 179/3/3 178/3/3
f 182/3/3 181/3/3 180/3/3
f 183/3/3 177/3/3 179/3/3
f 183/3/3 181/3/3 182/3/3
f 183/3/3 179/3/3 181/3/3
f 184/3/3 174/3/3 177/3/3
f 184/3/3 177/3/3 183/3/3
f 185/3/3 174/3/3 184/3/3
f 186/3/3 184/3/3 183/3/3
f 187/3/3 184/3/3 186/3/3
f 193/3/3 189/3/3 188/3/3
f 194/3/3 189/3/3 193/3/3
f 195/3/3 189/3/3 194/3/3
f 196/3/3 189/3/3 195/3/3
f 197/5/3 192/5/3 191/5/3
f 197/1/3 191/1/3 190/1/3
f 198/1/3 193/1/3 192/1/3
f 198/5/3 192/5/3 197/5/3
f 199/1/3 193/1/3 198/1/3
f 200/1/3 197/1/3 190/1/3
f 200/1/3 198/1/3 197/1/3
f 201/1/3 198/1/3 200/1/3
f 202/4/3 199/4/3 198/4/3
f 202/1/3 198/1/3 201/1/3
f 203/4/3 199/4/3 202/4/3
f 204/1/3 195/1/3 194/1/3
f 205/1/3 195/1/3 204/1/3
f 206/6/3 201/6/3 200/6/3
f 206/1/3 200/1/3 190/1/3
f 207/1/3 203/1/3 202/1/3
f 207/6/3 201/6/3 206/6/3
f 207/1/3 202/1/3 201/1/3
f 207/1/3 204/1/3 203/1/3
f 208/1/3 204/1/3 207/1/3
f 209/1/3 204/1/3 208/1/3
f 210/1/3 204/1/3 209/1/3
f 211/1/3 206/1/3 190/1/3
f 211/1/3 207/1/3 206/1/3
f 211/1/3 208/1/3 207/1/3
f 212/4/3 209/4/3 208/4/3
f 212/1/3 208/1/3 211/1/3
f 213/4/3 209/4/3 212/4/3
f 214/1/3 211/1/3 190/1/3
f 215/5/3 212/5/3 211/5/3
f 215/1/3 211/1/3 214/1/3
f 216/5/3 212/5/3 215/5/3
f 221/3/3 218/3/3 217/3/3
f 222/3/3 218/3/3 221/3/3
f 223/3/3 220/3/3 219/3/3
f 224/3/3 220/3/3 223/3/3
f 231/3/3 226/3/3 225/3/3
f 232/3/3 226/3/3 231/3/3
f 233/3/3 226/3/3 232/3/3
f 234/4/3 230/4/3 229/4/3
f 235/4/3 230/4/3 234/4/3
f 236/4/3 228/4/3 227/4/3
f 237/4/3 228/4/3 236/4/3
f 238/4/3 234/4/3 229/4/3
f 239/7/3 235/7/3 234/7/3
f 239/4/3 234/4/3 238/4/3
f 242/4/3 238/4/3 229/4/3
f 242/7/3 239/7/3 238/7/3
f 243/7/3 235/7/3 239/7/3
f 243/7/3 239/7/3 242/7/3
f 244/4/3 243/4/3 242/4/3
f 244/7/3 235/7/3 243/7/3
f 245/7/3 235/7/3 244/7/3
f 246/4/3 241/4/3 240/4/3
f 247/4/3 241/4/3 246/4/3
f 248/4/3 242/4/3 229/4/3
f 248/4/3 244/4/3 242/4/3
f 248/4/3 245/4/3 244/4/3
f 249/4/3 245/4/3 248/4/3
f 253/3/3 252/3/3 251/3/3
f 253/3/3 251/3/3 250/3/3
f 254/3/3 252/3/3 253/3/3
f 260/1/3 256/1/3 255/1/3
f 261/7/3 257/7/3 256/7/3
f 261/1/3 256/1/3 260/1/3
f 262/4/3 258/4/3 257/4/3
f 262/7/3 257/7/3 261/7/3
f 263/4/3 258/4/3 262/4/3
f 264/1/3 260/1/3 259/1/3
f 265/1/3 260/1/3 264/1/3
f 270/1/3 267/1/3 266/1/3
f 271/1/3 267/1/3 270/1/3
f 272/1/3 269/1/3 268/1/3
f 273/1/3 269/1/3 272/1/3
f 277/1/3 274/1/3 273/1/3
f 278/7/3 275/7/3 274/7/3
f 278/1/3 274/1/3 277/1/3
f 279/4/3 276/4/3 275/4/3
f 279/7/3 275/7/3 278/7/3
f 280/4/3 276/4/3 279/4/3
f 283/3/3 282/3/3 281/3/3
f 284/3/3 282/3/3 283/3/3
f 285/3/3 282/3/3 284/3/3
f 289/3/3 287/3/3 286/3/3
f 289/3/3 288/3/3 287/3/3
f 290/3/3 288/3/3 289/3/3
f 293/3/3 292/3/3 291/3/3
f 294/3/3 292/3/3 293/3/3
f 297/4/4 298/4/4 299/4/4
f 295/1/4 296/1/4 302/1/4
f 296/7/4 297/7/4 303/7/4
f 302/1/4 296/1/4 303/1/4
f 297/4/4 299/4/4 304/4/4
f 303/7/4 297/7/4 304/7/4
f 304/4/4 299/4/4 305/4/4
f 300/4/4 301/4/4 306/4/4
f 301/1/4 302/1/4 307/1/4
f 306/4/4 301/4/4 307/4/4
f 307/1/4 302/1/4 308/1/4
f 309/1/4 310/1/4 314/1/4
f 314/1/4 310/1/4 315/1/4
f 311/4/4 312/4/4 316/4/4
f 312/1/4 313/1/4 317/1/4
f 316/4/4 312/4/4 317/4/4
f 317/1/4 313/1/4 318/1/4
f 320/4/4 321/4/4 322/4/4
f 318/1/4 319/1/4 323/1/4
f 319/7/4 320/7/4 324/7/4
f 323/1/4 319/1/4 324/1/4
f 320/4/4 322/4/4 325/4/4
f 324/7/4 320/7/4 325/7/4
f 325/4/4 322/4/4 326/4/4
f 329/3/4 330/3/4 331/3/4
f 331/3/4 330/3/4 332/3/4
f 327/4/4 328/4/4 333/4/4
f 333/4/4 328/4/4 334/4/4
f 335/3/4 336/3/4 337/3/4
f 337/3/4 336/3/4 338/3/4
f 339/3/4 340/3/4 341/3/4
f 339/3/4 341/3/4 343/3/4
f 341/3/4 342/3/4 343/3/4
f 343/3/4 342/3/4 344/3/4
f 339/3/4 343/3/4 345/3/4
f 345/3/4 343/3/4 346/3/4
f 351/4/5 348/4/5 347/4/5
f 352/4/5 348/4/5 351/4/5
f 353/4/5 350/4/5 349/4/5
f 354/4/5 350/4/5 353/4/5
f 358/4/5 356/4/5 355/4/5
f 359/4/5 356/4/5 358/4/5
f 360/4/5 356/4/5 359/4/5
f 361/4/5 356/4/5 360/4/5
f 363/1/5 358/1/5 357/1/5
f 364/1/5 358/1/5 363/1/5
f 365/4/5 360/4/5 359/4/5
f 366/4/5 360/4/5 365/4/5
f 367/1/5 362/1/5 361/1/5
f 368/1/5 362/1/5 367/1/5
f 369/4/5 366/4/5 365/4/5
f 369/4/5 367/4/5 366/4/5
f 369/4/5 365/4/5 364/4/5
f 370/4/5 367/4/5 369/4/5
f 375/3/5 372/3/5 371/3/5
f 376/3/5 374/3/5 373/3/5
f 377/3/5 375/3/5 371/3/5
f 377/3/5 376/3/5 375/3/5
f 378/3/5 374/3/5 376/3/5
f 378/3/5 376/3/5 377/3/5
f 381/1/5 380/1/5 379/1/5
f 382/1/5 380/1/5 381/1/5
f 383/1/5 381/1/5 379/1/5
f 384/1/5 380/1/5 382/1/5
f 385/1/5 381/1/5 383/1/5
f 386/1/5 384/1/5 382/1/5
f 387/1/5 385/1/5 383/1/5
f 387/1/5 386/1/5 385/1/5
f 388/1/5 384/1/5 386/1/5
f 388/1/5 386/1/5 387/1/5
f 393/3/5 390/3/5 389/3/5
f 394/3/5 390/3/5 393/3/5
f 395/3/5 392/3/5 391/3/5
f 396/3/5 392/3/5 395/3/5
f 397/2/5 394/2/5 393/2/5
f 398/2/5 394/2/5 397/2/5
f 399/2/5 396/2/5 395/2/5
f 400/2/5 396/2/5 399/2/5
f 403/3/5 402/3/5 401/3/5
f 404/3/5 402/3/5 403/3/5
f 410/3/5 406/3/5 405/3/5
f 411/3/5 406/3/5 410/3/5
f 412/3/5 406/3/5 411/3/5
f 413/3/5 408/3/5 407/3/5
f 414/3/5 408/3/5 413/3/5
f 417/3/5 410/3/5 409/3/5
f 418/3/5 410/3/5 417/3/5
f 419/3/5 416/3/5 415/3/5
f 420/3/5 416/3/5 419/3/5
f 425/3/5 422/3/5 421/3/5
f 426/3/5 422/3/5 425/3/5
f 427/3/5 424/3/5 423/3/5
f 428/3/5 424/3/5 427/3/5
f 431/3/5 430/3/5 429/3/5
f 432/3/5 430/3/5 431/3/5
f 433/4/6 434/4/6 437/4/6
f 437/4/6 434/4/6 438/4/6
f 435/4/6 436/4/6 439/4/6
f 439/4/6 436/4/6 440/4/6
f 441/4/6 442/4/6 446/4/6
f 442/7/6 443/7/6 447/7/6
f 447/7/6 443/7/6 448/7/6
f 443/4/6 444/4/6 449/4/6
f 445/4/6 446/4/6 451/4/6
f 446/4/6 442/4/6 452/4/6
f 451/4/6 446/4/6 452/4/6
f 449/4/6 450/4/6 453/4/6
f 443/4/6 449/4/6 453/4/6
f 453/4/6 450/4/6 454/4/6
f 445/4/6 451/4/6 455/4/6
f 455/4/6 451/4/6 456/4/6
f 452/4/6 442/4/6 457/4/6
f 442/7/6 447/7/6 457/7/6
f 457/7/6 447/7/6 458/7/6
f 448/7/6 443/7/6 459/7/6
f 443/4/6 453/4/6 460/4/6
f 459/7/6 443/7/6 460/7/6
f 454/4/6 450/4/6 461/4/6
f 461/4/6 450/4/6 462/4/6
f 457/4/6 458/4/6 463/4/6
f 458/4/6 459/4/6 463/4/6
f 459/4/6 460/4/6 463/4/6
f 452/4/6 457/4/6 463/4/6
f 460/4/6 453/4/6 464/4/6
f 463/4/6 460/4/6 464/4/6
f 465/3/6 466/3/6 467/3/6
f 467/3/6 466/3/6 468/3/6
f 469/3/6 470/3/6 473/3/6
f 473/3/6 470/3/6 474/3/6
f 471/3/6 472/3/6 475/3/6
f 471/3/6 475/3/6 479/3/6
f 475/3/6 476/3/6 479/3/6
f 479/3/6 476/3/6 480/3/6
f 477/3/6 478/3/6 481/3/6
f 481/3/6 478/3/6 482/3/6
f 483/3/6 484/3/6 485/3/6
f 483/3/6 485/3/6 487/3/6
f 485/3/6 486/3/6 487/3/6
f 487/3/6 486/3/6 488/3/6
f 488/3/6 486/3/6 489/3/6
f 489/3/6 486/3/6 490/3/6
f 488/3/6 489/3/6 491/3/6
f 491/3/6 489/3/6 492/3/6
