# generated by tools/rig_people.py — do not edit
mtllib people.mtl
o leg-r
usemtl palette
v 1 0 -2.5
v 1 0 0.5
v 1 1 0.5
v 1 1 -2.5
v 1 1 -1.5
v 1 2 0.5
v 1 2 -1.5
v 1 7 0.5
v 1 7 -1.5
v 3 1 -2.5
v 3 1 0.5
v 3 0 0.5
v 3 0 -2.5
v 3 2 -1.5
v 3 2 0.5
v 3 1 -1.5
v 3 7 -1.5
v 3 7 0.5
vt 0.7753906 0.5
vt 0.0410156 0.5
vt 0.5566406 0.5
vn -1 0 0
vn 1 0 0
vn 0 0 1
vn 0 0 -1
vn 0 1 0
vn 0 -1 0
f 1/1/1 2/1/1 3/1/1 4/1/1
f 5/2/1 3/2/1 6/2/1 7/2/1
f 7/3/1 6/3/1 8/3/1 9/3/1
f 10/1/2 11/1/2 12/1/2 13/1/2
f 14/2/2 15/2/2 11/2/2 16/2/2
f 17/3/2 18/3/2 15/3/2 14/3/2
f 11/1/3 3/1/3 2/1/3 12/1/3
f 15/2/3 6/2/3 3/2/3 11/2/3
f 18/3/3 8/3/3 6/3/3 15/3/3
f 13/1/4 1/1/4 4/1/4 10/1/4
f 16/2/4 5/2/4 7/2/4 14/2/4
f 14/3/4 7/3/4 9/3/4 17/3/4
f 10/1/5 4/1/5 5/1/5 16/1/5
f 17/3/5 9/3/5 8/3/5 18/3/5
f 12/1/6 2/1/6 1/1/6 13/1/6
