# generated by tools/rig_people.py — do not edit
mtllib people.mtl
o body
usemtl palette
v 1 17 -5.5
v 1 17 -4.5
v 1 18 -4.5
v 1 18 -5.5
v 1 19 -5.5
v 1 19 -4.5
v 1 20 -4.5
v 1 20 -5.5
v -1 14 -2.5
v -1 14 -0.5
v -1 15 -0.5
v -1 15 -2.5
v -1 18 3.5
v -1 18 5.5
v -1 20 5.5
v -1 20 3.5
v -1 20 4.5
v -1 22 5.5
v -1 22 4.5
v -2 19 1.5
v -2 19 2.5
v -2 23 2.5
v -2 23 1.5
v -2 20 2.5
v -2 20 4.5
v -2 23 4.5
v -3 23 -5.5
v -3 23 -4.5
v -3 24 -4.5
v -3 24 -5.5
v -3 15 -4.5
v -3 15 0.5
v -3 16 0.5
v -3 16 -4.5
v -3 16 -3.5
v -3 18 -3.5
v -3 18 -4.5
v -3 19 -3.5
v -3 19 -4.5
v -3 3 -3.5
v -3 3 0.5
v -3 8 0.5
v -3 8 -3.5
v -3 14 0.5
v -3 14 -3.5
v -3 23 0.5
v -3 23 1.5
v -3 24 1.5
v -3 24 0.5
v -4 17 -5.5
v -4 17 -4.5
v -4 19 -4.5
v -4 19 -5.5
v -4 19 -0.5
v -4 20 -0.5
v -4 20 -5.5
v -4 20 1.5
v -4 23 1.5
v -4 23 -5.5
v -4 23 -4.5
v -4 23 0.5
v -4 24 0.5
v -4 24 -4.5
v -4 16 -3.5
v -4 16 -2.5
v -4 19 -2.5
v -4 19 -3.5
v -4 16 -1.5
v -4 19 -1.5
v -4 16 1.5
v -4 18 1.5
v -4 18 -1.5
v -4 18 -0.5
v 4 19 -5.5
v 4 19 -4.5
v 4 17 -4.5
v 4 17 -5.5
v 4 20 -5.5
v 4 20 -0.5
v 4 19 -0.5
v 4 23 -4.5
v 4 23 1.5
v 4 20 1.5
v 4 20 -4.5
v 4 19 -3.5
v 4 19 -2.5
v 4 16 -2.5
v 4 16 -3.5
v 4 19 -1.5
v 4 16 -1.5
v 4 18 -1.5
v 4 18 1.5
v 4 16 1.5
v 4 18 -0.5
v 3 24 -5.5
v 3 24 -4.5
v 3 21 -4.5
v 3 21 -5.5
v 3 16 -4.5
v 3 16 0.5
v 3 15 0.5
v 3 15 -4.5
v 3 18 -4.5
v 3 18 -3.5
v 3 16 -3.5
v 3 19 -4.5
v 3 19 -3.5
v 3 24 0.5
v 3 23 0.5
v 3 23 -4.5
v 3 8 -3.5
v 3 8 0.5
v 3 3 0.5
v 3 3 -3.5
v 3 14 -3.5
v 3 14 0.5
v 2 24 0.5
v 2 24 1.5
v 2 23 1.5
v 2 23 0.5
v 2 23 2.5
v 2 19 2.5
v 2 19 1.5
v 2 23 4.5
v 2 20 4.5
v 2 20 2.5
v 1 21 -5.5
v 1 21 -4.5
v 1 15 -2.5
v 1 15 -0.5
v 1 14 -0.5
v 1 14 -2.5
v 1 20 3.5
v 1 20 5.5
v 1 18 5.5
v 1 18 3.5
v 1 22 4.5
v 1 22 5.5
v 1 20 4.5
v -1 18 -5.5
v -1 18 -4.5
v -1 17 -4.5
v -1 17 -5.5
v -1 20 -5.5
v -1 20 -4.5
v -1 19 -4.5
v -1 19 -5.5
v 3 17 -4.5
v -3 17 -4.5
v 3 13 0.5
v -3 13 0.5
v 2 14 0.5
v 2 13 0.5
v 1 14 0.5
v 1 13 0.5
v -1 14 0.5
v -1 13 0.5
v -2 14 0.5
v -2 13 0.5
v 4 19 1.5
v -4 19 1.5
v 1 23 4.5
v -2 22 4.5
v -4 21 -5.5
v 3 23 -5.5
v 3 20 -4.5
v 2 16 -4.5
v 2 17 -4.5
v 1 16 -4.5
v -1 16 -4.5
v -2 16 -4.5
v -2 17 -4.5
v 2 8 -3.5
v 2 14 -3.5
v -2 8 -3.5
v -2 9 -3.5
v 2 9 -3.5
v -2 10 -3.5
v 2 10 -3.5
v -2 11 -3.5
v 2 11 -3.5
v -2 12 -3.5
v 2 12 -3.5
v -2 13 -3.5
v 2 13 -3.5
v -2 14 -3.5
v -2 14 -2.5
v 2 14 -2.5
v 3 23 1.5
v 3 15 -2.5
v -3 15 -2.5
v 1 15 0.5
v -3 15 -0.5
v 3 16 -2.5
v 3 16 -1.5
v 3 16 1.5
v -4 16 0.5
v -3 16 -2.5
v -3 16 -1.5
v 2 20 3.5
v -2 20 3.5
vt 0.7011719 0.5
vt 0.5292969 0.5
vt 0.0410156 0.5
vt 0.4824219 0.5
vt 0.5449219 0.5
vt 0.4863281 0.5
vt 0.9667969 0.5
vt 0.0527344 0.5
vt 0.5527344 0.5
vt 0.9785156 0.5
vt 0.9863281 0.5
vn -1 0 0
vn 1 0 0
vn 0 0 1
vn 0 0 -1
vn 0 1 0
vn 0 -1 0
f 1/1/1 2/1/1 3/1/1 4/1/1
f 5/2/1 6/2/1 7/2/1 8/2/1
f 9/3/1 10/3/1 11/3/1 12/3/1
f 13/4/1 14/4/1 15/4/1 16/4/1
f 17/4/1 15/4/1 18/4/1 19/4/1
f 20/4/1 21/4/1 22/4/1 23/4/1
f 24/4/1 25/4/1 26/4/1 22/4/1
f 27/4/1 28/4/1 29/4/1 30/4/1
f 31/3/1 32/3/1 33/3/1 34/3/1
f 34/5/1 35/5/1 36/5/1 37/5/1
f 37/3/1 36/3/1 38/3/1 39/3/1
f 40/6/1 41/6/1 42/6/1 43/6/1
f 43/7/1 42/7/1 44/7/1 45/7/1
f 46/4/1 47/4/1 48/4/1 49/4/1
f 50/1/1 51/1/1 52/1/1 53/1/1
f 53/2/1 54/2/1 55/2/1 56/2/1
f 56/4/1 57/4/1 58/4/1 59/4/1
f 60/4/1 61/4/1 62/4/1 63/4/1
f 64/4/1 65/4/1 66/4/1 67/4/1
f 65/8/1 68/8/1 69/8/1 66/8/1
f 68/4/1 70/4/1 71/4/1 72/4/1
f 72/2/1 73/2/1 54/2/1 69/2/1
f 73/4/1 71/4/1 57/4/1 55/4/1
f 74/1/2 75/1/2 76/1/2 77/1/2
f 78/2/2 79/2/2 80/2/2 74/2/2
f 81/4/2 82/4/2 83/4/2 84/4/2
f 85/4/2 86/4/2 87/4/2 88/4/2
f 86/8/2 89/8/2 90/8/2 87/8/2
f 91/4/2 92/4/2 93/4/2 90/4/2
f 89/2/2 80/2/2 94/2/2 91/2/2
f 79/4/2 83/4/2 92/4/2 94/4/2
f 95/4/2 96/4/2 97/4/2 98/4/2
f 99/3/2 100/3/2 101/3/2 102/3/2
f 103/5/2 104/5/2 105/5/2 99/5/2
f 106/3/2 107/3/2 104/3/2 103/3/2
f 96/4/2 108/4/2 109/4/2 110/4/2
f 111/6/2 112/6/2 113/6/2 114/6/2
f 115/7/2 116/7/2 112/7/2 111/7/2
f 117/4/2 118/4/2 119/4/2 120/4/2
f 119/4/2 121/4/2 122/4/2 123/4/2
f 121/4/2 124/4/2 125/4/2 126/4/2
f 127/4/2 128/4/2 7/4/2 8/4/2
f 129/3/2 130/3/2 131/3/2 132/3/2
f 133/4/2 134/4/2 135/4/2 136/4/2
f 137/4/2 138/4/2 134/4/2 139/4/2
f 140/1/2 141/1/2 142/1/2 143/1/2
f 144/2/2 145/2/2 146/2/2 147/2/2
f 75/1/3 106/1/3 148/1/3 76/1/3
f 39/1/3 52/1/3 51/1/3 149/1/3
f 130/3/3 11/3/3 10/3/3 131/3/3
f 112/6/3 42/6/3 41/6/3 113/6/3
f 150/7/3 151/7/3 42/7/3 112/7/3
f 116/7/3 152/7/3 153/7/3 150/7/3
f 100/3/3 33/3/3 32/3/3 101/3/3
f 108/4/3 117/4/3 120/4/3 109/4/3
f 152/3/3 154/3/3 155/3/3 153/3/3
f 154/7/3 156/7/3 157/7/3 155/7/3
f 156/3/3 158/3/3 159/3/3 157/3/3
f 158/7/3 44/7/3 151/7/3 159/7/3
f 49/4/3 62/4/3 61/4/3 46/4/3
f 160/4/3 161/4/3 70/4/3 93/4/3
f 82/4/3 119/4/3 123/4/3 160/4/3
f 118/4/3 48/4/3 47/4/3 119/4/3
f 23/4/3 58/4/3 161/4/3 20/4/3
f 126/4/3 24/4/3 21/4/3 122/4/3
f 124/4/3 162/4/3 139/4/3 125/4/3
f 162/4/3 26/4/3 163/4/3 137/4/3
f 19/4/3 163/4/3 25/4/3 17/4/3
f 138/4/3 18/4/3 14/4/3 135/4/3
f 77/1/4 1/1/4 5/1/4 74/1/4
f 74/2/4 5/2/4 8/2/4 78/2/4
f 98/4/4 164/4/4 59/4/4 165/4/4
f 165/4/4 27/4/4 30/4/4 95/4/4
f 4/2/4 140/2/4 147/2/4 5/2/4
f 8/4/4 56/4/4 164/4/4 127/4/4
f 143/1/4 50/1/4 53/1/4 147/1/4
f 147/2/4 53/2/4 56/2/4 144/2/4
f 84/4/4 166/4/4 110/4/4 81/4/4
f 102/3/4 31/3/4 34/3/4 99/3/4
f 99/5/4 167/5/4 168/5/4 148/5/4
f 166/3/4 7/3/4 128/3/4 97/3/4
f 167/3/4 169/3/4 2/3/4 168/3/4
f 169/9/4 170/9/4 142/9/4 2/9/4
f 2/3/4 142/3/4 141/3/4 3/3/4
f 6/3/4 146/3/4 145/3/4 7/3/4
f 170/3/4 171/3/4 172/3/4 142/3/4
f 171/5/4 34/5/4 149/5/4 172/5/4
f 28/4/4 60/4/4 63/4/4 29/4/4
f 88/4/4 105/4/4 107/4/4 85/4/4
f 114/6/4 40/6/4 43/6/4 111/6/4
f 111/7/4 173/7/4 174/7/4 115/7/4
f 173/10/4 175/10/4 176/10/4 177/10/4
f 177/11/4 176/11/4 178/11/4 179/11/4
f 179/10/4 178/10/4 180/10/4 181/10/4
f 181/11/4 180/11/4 182/11/4 183/11/4
f 183/10/4 182/10/4 184/10/4 185/10/4
f 185/3/4 184/3/4 186/3/4 174/3/4
f 175/7/4 43/7/4 45/7/4 186/7/4
f 35/4/4 64/4/4 67/4/4 38/4/4
f 132/3/4 9/3/4 12/3/4 129/3/4
f 136/4/4 13/4/4 16/4/4 133/4/4
f 115/7/5 174/7/5 152/7/5 116/7/5
f 174/3/5 186/3/5 187/3/5 188/3/5
f 188/3/5 132/3/5 154/3/5 152/3/5
f 131/7/5 10/7/5 156/7/5 154/7/5
f 9/3/5 187/3/5 158/3/5 156/3/5
f 186/7/5 45/7/5 44/7/5 158/7/5
f 5/2/5 147/2/5 146/2/5 6/2/5
f 78/2/5 8/2/5 7/2/5 84/2/5
f 137/4/5 19/4/5 18/4/5 138/4/5
f 81/4/5 110/4/5 189/4/5 82/4/5
f 109/4/5 120/4/5 119/4/5 189/4/5
f 119/4/5 23/4/5 26/4/5 124/4/5
f 27/4/5 59/4/5 60/4/5 28/4/5
f 46/4/5 61/4/5 58/4/5 47/4/5
f 95/4/5 30/4/5 49/4/5 108/4/5
f 117/4/5 49/4/5 48/4/5 118/4/5
f 29/4/5 63/4/5 62/4/5 49/4/5
f 113/6/6 41/6/6 40/6/6 114/6/6
f 190/3/6 191/3/6 31/3/6 102/3/6
f 101/3/6 192/3/6 129/3/6 190/3/6
f 192/3/6 32/3/6 193/3/6 130/3/6
f 11/3/6 193/3/6 191/3/6 12/3/6
f 87/4/6 194/4/6 105/4/6 88/4/6
f 90/8/6 195/8/6 194/8/6 87/8/6
f 93/4/6 196/4/6 195/4/6 90/4/6
f 196/4/6 70/4/6 197/4/6 100/4/6
f 198/4/6 65/4/6 64/4/6 35/4/6
f 199/8/6 68/8/6 65/8/6 198/8/6
f 33/4/6 197/4/6 68/4/6 199/4/6
f 76/1/6 2/1/6 1/1/6 77/1/6
f 142/1/6 51/1/6 50/1/6 143/1/6
f 3/2/6 141/2/6 140/2/6 4/2/6
f 135/4/6 14/4/6 13/4/6 136/4/6
f 85/2/6 107/2/6 106/2/6 75/2/6
f 122/4/6 21/4/6 20/4/6 123/4/6
f 38/2/6 67/2/6 52/2/6 39/2/6
f 200/4/6 201/4/6 24/4/6 126/4/6
f 125/4/6 139/4/6 133/4/6 200/4/6
f 7/4/6 145/4/6 144/4/6 8/4/6
f 17/4/6 25/4/6 201/4/6 16/4/6
f 97/4/6 128/4/6 127/4/6 98/4/6
