# generated by tools/rig_people.py — do not edit
mtllib people.mtl
o arm-l
usemtl palette
v -5 6 0
v -5 6 2
v -5 8 2
v -5 8 0
v -5 9 2
v -5 9 0
v -5 11 2
v -5 11 0
v -5 11 1
v -5 12 1
v -5 12 0
v -5 13 1
v -5 13 0
v -5 13 2
v -5 14 2
v -5 14 0
v -5 12 2
v -3 8 0
v -3 8 2
v -3 6 2
v -3 6 0
v -3 9 0
v -3 9 2
v -3 10 0
v -3 10 2
v -3 11 0
v -3 11 1
v -3 10 1
v -3 13 0
v -3 13 2
v -3 11 2
v -3 14 0
v -3 14 1
v -3 13 1
v -3 14 2
v -3 12 2
v -4 14 2
v -4 12 2
v -4 13 2
v -5 10 0
v -4 10 0
v -4 11 0
v -4 13 0
v -4 14 0
v -4 12 0
v -4 14 1
v -5 14 1
vt 0.0410156 0.5
vt 0.3652344 0.5
vt 0.3613281 0.5
vt 0.3574219 0.5
vn -1 0 0
vn 1 0 0
vn 0 0 1
vn 0 0 -1
vn 0 1 0
vn 0 -1 0
f 1/1/1 2/1/1 3/1/1 4/1/1
f 4/2/1 3/2/1 5/2/1 6/2/1
f 6/3/1 5/3/1 7/3/1 8/3/1
f 8/2/1 9/2/1 10/2/1 11/2/1
f 11/4/1 10/4/1 12/4/1 13/4/1
f 13/3/1 14/3/1 15/3/1 16/3/1
f 9/3/1 7/3/1 17/3/1 10/3/1
f 10/2/1 17/2/1 14/2/1 12/2/1
f 18/1/2 19/1/2 20/1/2 21/1/2
f 22/2/2 23/2/2 19/2/2 18/2/2
f 24/3/2 25/3/2 23/3/2 22/3/2
f 26/4/2 27/4/2 28/4/2 24/4/2
f 29/3/2 30/3/2 31/3/2 26/3/2
f 32/2/2 33/2/2 34/2/2 29/2/2
f 27/3/2 31/3/2 25/3/2 28/3/2
f 33/3/2 35/3/2 30/3/2 34/3/2
f 19/1/3 3/1/3 2/1/3 20/1/3
f 23/2/3 5/2/3 3/2/3 19/2/3
f 36/3/3 17/3/3 5/3/3 23/3/3
f 35/3/3 37/3/3 38/3/3 36/3/3
f 39/2/3 14/2/3 17/2/3 38/2/3
f 37/3/3 15/3/3 14/3/3 39/3/3
f 21/1/4 1/1/4 4/1/4 18/1/4
f 18/2/4 4/2/4 6/2/4 22/2/4
f 22/3/4 6/3/4 40/3/4 24/3/4
f 24/4/4 41/4/4 42/4/4 26/4/4
f 26/3/4 42/3/4 43/3/4 29/3/4
f 29/2/4 43/2/4 44/2/4 32/2/4
f 41/3/4 40/3/4 8/3/4 42/3/4
f 42/2/4 8/2/4 11/2/4 45/2/4
f 45/4/4 11/4/4 13/4/4 43/4/4
f 43/3/4 13/3/4 16/3/4 44/3/4
f 32/2/5 44/2/5 46/2/5 33/2/5
f 33/3/5 47/3/5 15/3/5 35/3/5
f 44/3/5 16/3/5 47/3/5 46/3/5
f 20/1/6 2/1/6 1/1/6 21/1/6
