# MagicaVoxel @ Ephtracy

# group
o 

# material
mtllib Character-8.mtl
usemtl palette

# normals
vn -1 0 0
vn 1 0 0
vn 0 0 1
vn 0 0 -1
vn 0 -1 0
vn 0 1 0

# texcoords
vt 0.0371094 0.5
vt 0.0488281 0.5
vt 0.255859 0.5
vt 0.525391 0.5
vt 0.541016 0.5
vt 0.548828 0.5

# verts
v -5.3 0.6 8.3
v -5.3 0.6 8.1
v -5.3 1.4 8.3
v -5.3 1.4 8.1
v -5.2 1.5 8.2
v -5.2 1.5 7.9
v -5.2 1.6 8.4
v -5.2 1.6 8.3
v -5.2 1.6 8.2
v -5.2 1.9 8.5
v -5.2 1.9 8.4
v -5.2 1.9 8.3
v -5.2 1.9 8.2
v -5.2 2.2 8
v -5.2 2.2 7.9
v -5.2 2.3 8.5
v -5.2 2.3 8
v -5.1 0 8.4
v -5.1 0 8.1
v -5.1 0.1 8.4
v -5.1 0.1 8.3
v -5.1 0.1 8.1
v -5.1 0.6 8.4
v -5.1 0.6 8.3
v -5.1 0.6 8.1
v -5.1 0.6 8
v -5.1 1.3 8.4
v -5.1 1.3 8.3
v -5.1 1.3 8.1
v -5.1 1.3 8
v -5.1 1.4 8.4
v -5.1 1.4 8.3
v -5.1 1.4 8.1
v -5.1 1.4 8
v -5.1 1.5 8.5
v -5.1 1.5 8.2
v -5.1 1.6 8.5
v -5.1 1.6 8.4
v -5.1 1.6 8.3
v -5.1 1.6 8.2
v -5.1 1.8 8.5
v -5.1 1.8 8.4
v -5.1 1.9 8.6
v -5.1 1.9 8.5
v -5.1 1.9 8.4
v -5.1 2.2 8
v -5.1 2.2 7.9
v -5.1 2.3 8.5
v -5.1 2.3 8
v -5.1 2.3 7.9
v -5.1 2.4 8.6
v -5.1 2.4 8
v -5 2.1 7.9
v -5 2.1 7.8
v -5 2.3 8
v -5 2.3 7.9
v -5 2.3 7.8
v -5 2.3 7.7
v -5 2.4 8.1
v -5 2.4 8
v -5 2.5 8.1
v -5 2.5 8
v -5 2.6 8
v -5 2.6 7.7
v -4.9 1.4 8.3
v -4.9 1.4 8.1
v -4.9 1.5 8.3
v -4.9 1.5 8.1
v -4.8 2 8.6
v -4.8 2 8.5
v -4.8 2.2 8.6
v -4.8 2.2 8.5
v -4.7 0 8.4
v -4.7 0 8.1
v -4.7 0.1 8.4
v -4.7 0.1 8.3
v -4.7 0.1 8.1
v -4.7 0.6 8.3
v -4.7 0.6 8.1
v -4.7 1.9 8.6
v -4.7 1.9 8.5
v -4.7 2 8.6
v -4.7 2 8.5
v -5 2 8.6
v -5 2 8.5
v -5 2.1 8.6
v -5 2.1 8.5
v -4.9 0 8.4
v -4.9 0 8.1
v -4.9 0.1 8.4
v -4.9 0.1 8.3
v -4.9 0.1 8.1
v -4.9 0.6 8.3
v -4.9 0.6 8.1
v -4.9 1.9 8.6
v -4.9 1.9 8.5
v -4.9 2 8.6
v -4.9 2 8.5
v -4.9 2.1 8.6
v -4.9 2.1 8.5
v -4.9 2.2 8.6
v -4.9 2.2 8.5
v -4.7 1.4 8.3
v -4.7 1.4 8.1
v -4.7 1.5 8.3
v -4.7 1.5 8.1
v -4.7 2.3 8.6
v -4.7 2.3 8.5
v -4.7 2.4 8.6
v -4.7 2.4 8.5
v -4.6 2.1 7.9
v -4.6 2.1 7.8
v -4.6 2.3 8
v -4.6 2.3 7.9
v -4.6 2.3 7.8
v -4.6 2.3 7.7
v -4.6 2.4 8.1
v -4.6 2.4 8
v -4.6 2.5 8.1
v -4.6 2.5 8
v -4.6 2.6 8
v -4.6 2.6 7.7
v -4.5 0 8.4
v -4.5 0 8.1
v -4.5 0.1 8.4
v -4.5 0.1 8.3
v -4.5 0.1 8.1
v -4.5 0.6 8.4
v -4.5 0.6 8.3
v -4.5 0.6 8.1
v -4.5 0.6 8
v -4.5 1.3 8.4
v -4.5 1.3 8.3
v -4.5 1.3 8.1
v -4.5 1.3 8
v -4.5 1.4 8.4
v -4.5 1.4 8.3
v -4.5 1.4 8.1
v -4.5 1.4 8
v -4.5 1.5 8.5
v -4.5 1.5 8.2
v -4.5 1.6 8.5
v -4.5 1.6 8.4
v -4.5 1.6 8.3
v -4.5 1.6 8.2
v -4.5 1.8 8.5
v -4.5 1.8 8.4
v -4.5 1.9 8.6
v -4.5 1.9 8.5
v -4.5 2 8.6
v -4.5 2 8.5
v -4.5 2 8.4
v -4.5 2.2 8
v -4.5 2.2 7.9
v -4.5 2.3 8.5
v -4.5 2.3 8
v -4.5 2.3 7.9
v -4.5 2.4 8.5
v -4.5 2.4 8
v -4.4 1.5 8.2
v -4.4 1.5 7.9
v -4.4 1.6 8.4
v -4.4 1.6 8.3
v -4.4 1.6 8.2
v -4.4 1.9 8.3
v -4.4 1.9 8.2
v -4.4 2 8.6
v -4.4 2 8.4
v -4.4 2.2 8
v -4.4 2.2 7.9
v -4.4 2.3 8.6
v -4.4 2.3 8
v -4.3 0.6 8.3
v -4.3 0.6 8.1
v -4.3 1.4 8.3
v -4.3 1.4 8.1
v -5.1 1.9 8.6
v -5.1 2.4 8.6
v -5 2 8.6
v -5 2.1 8.6
v -4.9 1.9 8.6
v -4.9 2 8.6
v -4.9 2.1 8.6
v -4.9 2.2 8.6
v -4.8 2 8.6
v -4.8 2.2 8.6
v -4.7 1.9 8.6
v -4.7 2 8.6
v -4.7 2.3 8.6
v -4.7 2.4 8.6
v -4.5 1.9 8.6
v -4.5 2 8.6
v -4.4 2 8.6
v -4.4 2.3 8.6
v -5.2 1.9 8.5
v -5.2 2.3 8.5
v -5.1 1.5 8.5
v -5.1 1.6 8.5
v -5.1 1.8 8.5
v -5.1 1.9 8.5
v -5.1 2.3 8.5
v -5 1.6 8.5
v -5 1.8 8.5
v -5 1.9 8.5
v -5 2 8.5
v -5 2.1 8.5
v -4.9 1.5 8.5
v -4.9 1.6 8.5
v -4.9 1.8 8.5
v -4.9 1.9 8.5
v -4.9 2 8.5
v -4.9 2.1 8.5
v -4.9 2.2 8.5
v -4.8 2 8.5
v -4.8 2.2 8.5
v -4.7 1.5 8.5
v -4.7 1.6 8.5
v -4.7 1.8 8.5
v -4.7 1.9 8.5
v -4.7 2 8.5
v -4.7 2.3 8.5
v -4.7 2.4 8.5
v -4.6 1.6 8.5
v -4.6 1.8 8.5
v -4.6 1.9 8.5
v -4.5 1.5 8.5
v -4.5 1.6 8.5
v -4.5 1.8 8.5
v -4.5 1.9 8.5
v -4.5 2.3 8.5
v -4.5 2.4 8.5
v -5.2 1.6 8.4
v -5.2 1.9 8.4
v -5.1 0 8.4
v -5.1 0.1 8.4
v -5.1 0.6 8.4
v -5.1 1.3 8.4
v -5.1 1.4 8.4
v -5.1 1.6 8.4
v -5.1 1.8 8.4
v -5.1 1.9 8.4
v -5 1.3 8.4
v -5 1.4 8.4
v -4.9 0 8.4
v -4.9 0.1 8.4
v -4.9 1.3 8.4
v -4.9 1.4 8.4
v -4.7 0 8.4
v -4.7 0.1 8.4
v -4.7 1.3 8.4
v -4.7 1.4 8.4
v -4.6 1.3 8.4
v -4.6 1.4 8.4
v -4.5 0 8.4
v -4.5 0.1 8.4
v -4.5 0.6 8.4
v -4.5 1.3 8.4
v -4.5 1.4 8.4
v -4.5 1.6 8.4
v -4.5 1.8 8.4
v -4.5 2 8.4
v -4.4 1.6 8.4
v -4.4 2 8.4
v -5.3 0.6 8.3
v -5.3 1.4 8.3
v -5.1 0.1 8.3
v -5.1 0.6 8.3
v -5.1 1.3 8.3
v -5.1 1.4 8.3
v -4.9 0.1 8.3
v -4.9 0.6 8.3
v -4.9 1.4 8.3
v -4.9 1.5 8.3
v -4.7 0.1 8.3
v -4.7 0.6 8.3
v -4.7 1.4 8.3
v -4.7 1.5 8.3
v -4.5 0.1 8.3
v -4.5 0.6 8.3
v -4.5 1.3 8.3
v -4.5 1.4 8.3
v -4.3 0.6 8.3
v -4.3 1.4 8.3
v -5.2 1.5 8.2
v -5.2 1.6 8.2
v -5.1 1.5 8.2
v -5.1 1.6 8.2
v -4.5 1.5 8.2
v -4.5 1.6 8.2
v -4.4 1.5 8.2
v -4.4 1.6 8.2
v -5 2.4 8.1
v -5 2.5 8.1
v -4.6 2.4 8.1
v -4.6 2.5 8.1
v -5 2.5 8
v -5 2.6 8
v -4.6 2.5 8
v -4.6 2.6 8
v -5.3 0.6 8.1
v -5.3 1.4 8.1
v -5.1 0 8.1
v -5.1 0.1 8.1
v -5.1 0.6 8.1
v -5.1 1.3 8.1
v -5.1 1.4 8.1
v -4.9 0 8.1
v -4.9 0.1 8.1
v -4.9 0.6 8.1
v -4.9 1.4 8.1
v -4.9 1.5 8.1
v -4.7 0 8.1
v -4.7 0.1 8.1
v -4.7 0.6 8.1
v -4.7 1.4 8.1
v -4.7 1.5 8.1
v -4.5 0 8.1
v -4.5 0.1 8.1
v -4.5 0.6 8.1
v -4.5 1.3 8.1
v -4.5 1.4 8.1
v -4.3 0.6 8.1
v -4.3 1.4 8.1
v -5.2 2.2 8
v -5.2 2.3 8
v -5.1 0.6 8
v -5.1 1.3 8
v -5.1 1.4 8
v -5.1 2.2 8
v -5.1 2.3 8
v -5.1 2.4 8
v -5 1.3 8
v -5 1.4 8
v -5 2.3 8
v -5 2.4 8
v -4.6 1.3 8
v -4.6 1.4 8
v -4.6 2.3 8
v -4.6 2.4 8
v -4.5 0.6 8
v -4.5 1.3 8
v -4.5 1.4 8
v -4.5 2.2 8
v -4.5 2.3 8
v -4.5 2.4 8
v -4.4 2.2 8
v -4.4 2.3 8
v -5.2 1.5 7.9
v -5.2 2.2 7.9
v -5.1 2.2 7.9
v -5.1 2.3 7.9
v -5 2.1 7.9
v -5 2.3 7.9
v -4.6 2.1 7.9
v -4.6 2.3 7.9
v -4.5 2.2 7.9
v -4.5 2.3 7.9
v -4.4 1.5 7.9
v -4.4 2.2 7.9
v -5 2.1 7.8
v -5 2.3 7.8
v -4.6 2.1 7.8
v -4.6 2.3 7.8
v -5 2.3 7.7
v -5 2.6 7.7
v -4.6 2.3 7.7
v -4.6 2.6 7.7
v -5.1 0 8.4
v -4.9 0 8.4
v -4.7 0 8.4
v -4.5 0 8.4
v -5.1 0 8.1
v -4.9 0 8.1
v -4.7 0 8.1
v -4.5 0 8.1
v -5.1 0.6 8.4
v -4.5 0.6 8.4
v -5.3 0.6 8.3
v -5.1 0.6 8.3
v -4.9 0.6 8.3
v -4.7 0.6 8.3
v -4.5 0.6 8.3
v -4.3 0.6 8.3
v -5.3 0.6 8.1
v -5.1 0.6 8.1
v -4.9 0.6 8.1
v -4.7 0.6 8.1
v -4.5 0.6 8.1
v -4.3 0.6 8.1
v -5.1 0.6 8
v -4.5 0.6 8
v -5.1 1.5 8.5
v -4.9 1.5 8.5
v -4.7 1.5 8.5
v -4.5 1.5 8.5
v -4.9 1.5 8.4
v -4.7 1.5 8.4
v -4.9 1.5 8.3
v -4.7 1.5 8.3
v -5.2 1.5 8.2
v -5.1 1.5 8.2
v -4.5 1.5 8.2
v -4.4 1.5 8.2
v -4.9 1.5 8.1
v -4.7 1.5 8.1
v -5.1 1.5 8
v -4.5 1.5 8
v -5.2 1.5 7.9
v -4.4 1.5 7.9
v -5.2 1.6 8.4
v -5.1 1.6 8.4
v -4.5 1.6 8.4
v -4.4 1.6 8.4
v -5.2 1.6 8.3
v -5.1 1.6 8.3
v -4.5 1.6 8.3
v -4.4 1.6 8.3
v -5.2 1.6 8.2
v -5.1 1.6 8.2
v -4.5 1.6 8.2
v -4.4 1.6 8.2
v -5.1 1.9 8.6
v -4.9 1.9 8.6
v -4.7 1.9 8.6
v -4.5 1.9 8.6
v -5.2 1.9 8.5
v -5.1 1.9 8.5
v -5 1.9 8.5
v -4.9 1.9 8.5
v -4.7 1.9 8.5
v -4.6 1.9 8.5
v -4.5 1.9 8.5
v -5.2 1.9 8.4
v -5.1 1.9 8.4
v -4.8 2 8.6
v -4.7 2 8.6
v -4.5 2 8.6
v -4.4 2 8.6
v -4.8 2 8.5
v -4.7 2 8.5
v -4.5 2 8.5
v -4.5 2 8.4
v -4.4 2 8.4
v -5 2.1 8.6
v -4.9 2.1 8.6
v -5 2.1 8.5
v -4.9 2.1 8.5
v -5 2.1 7.9
v -4.6 2.1 7.9
v -5 2.1 7.8
v -4.6 2.1 7.8
v -4.9 2.2 8.6
v -4.8 2.2 8.6
v -4.9 2.2 8.5
v -4.8 2.2 8.5
v -5 2.3 7.8
v -4.6 2.3 7.8
v -5 2.3 7.7
v -4.6 2.3 7.7
v -5.1 0.1 8.4
v -4.9 0.1 8.4
v -4.7 0.1 8.4
v -4.5 0.1 8.4
v -5.1 0.1 8.3
v -4.9 0.1 8.3
v -4.7 0.1 8.3
v -4.5 0.1 8.3
v -5.1 1.4 8.4
v -5 1.4 8.4
v -4.9 1.4 8.4
v -4.7 1.4 8.4
v -4.6 1.4 8.4
v -4.5 1.4 8.4
v -5.3 1.4 8.3
v -5.1 1.4 8.3
v -4.9 1.4 8.3
v -4.7 1.4 8.3
v -4.5 1.4 8.3
v -4.3 1.4 8.3
v -5.3 1.4 8.1
v -5.1 1.4 8.1
v -4.9 1.4 8.1
v -4.7 1.4 8.1
v -4.5 1.4 8.1
v -4.3 1.4 8.1
v -5.1 1.4 8
v -5 1.4 8
v -4.6 1.4 8
v -4.5 1.4 8
v -5 2 8.6
v -4.9 2 8.6
v -5 2 8.5
v -4.9 2 8.5
v -5.2 2.2 8
v -5.1 2.2 8
v -4.5 2.2 8
v -4.4 2.2 8
v -5.2 2.2 7.9
v -5.1 2.2 7.9
v -4.5 2.2 7.9
v -4.4 2.2 7.9
v -4.7 2.3 8.6
v -4.4 2.3 8.6
v -5.2 2.3 8.5
v -5.1 2.3 8.5
v -4.7 2.3 8.5
v -4.5 2.3 8.5
v -5.2 2.3 8
v -5.1 2.3 8
v -5 2.3 8
v -4.6 2.3 8
v -4.5 2.3 8
v -4.4 2.3 8
v -5.1 2.3 7.9
v -5 2.3 7.9
v -4.6 2.3 7.9
v -4.5 2.3 7.9
v -5.1 2.4 8.6
v -4.7 2.4 8.6
v -4.7 2.4 8.5
v -4.5 2.4 8.5
v -5 2.4 8.1
v -4.6 2.4 8.1
v -5.1 2.4 8
v -5 2.4 8
v -4.6 2.4 8
v -4.5 2.4 8
v -5 2.5 8.1
v -4.6 2.5 8.1
v -5 2.5 8
v -4.6 2.5 8
v -5 2.6 8
v -4.6 2.6 8
v -5 2.6 7.7
v -4.6 2.6 7.7

# faces
f 3/1/1 2/1/1 1/1/1
f 4/1/1 2/1/1 3/1/1
f 9/3/1 6/3/1 5/3/1
f 11/3/1 8/3/1 7/3/1
f 12/2/1 9/2/1 8/2/1
f 12/3/1 8/3/1 11/3/1
f 13/3/1 6/3/1 9/3/1
f 13/2/1 9/2/1 12/2/1
f 14/3/1 11/3/1 10/3/1
f 14/3/1 6/3/1 13/3/1
f 14/3/1 13/3/1 12/3/1
f 14/3/1 12/3/1 11/3/1
f 15/3/1 6/3/1 14/3/1
f 16/3/1 14/3/1 10/3/1
f 17/3/1 14/3/1 16/3/1
f 20/4/1 19/4/1 18/4/1
f 21/4/1 19/4/1 20/4/1
f 22/4/1 19/4/1 21/4/1
f 24/1/1 22/1/1 21/1/1
f 25/1/1 22/1/1 24/1/1
f 27/4/1 24/4/1 23/4/1
f 28/4/1 24/4/1 27/4/1
f 29/4/1 26/4/1 25/4/1
f 30/4/1 26/4/1 29/4/1
f 31/1/1 28/1/1 27/1/1
f 32/1/1 28/1/1 31/1/1
f 33/1/1 30/1/1 29/1/1
f 34/1/1 30/1/1 33/1/1
f 37/1/1 36/1/1 35/1/1
f 38/1/1 36/1/1 37/1/1
f 39/1/1 36/1/1 38/1/1
f 40/1/1 36/1/1 39/1/1
f 41/5/1 38/5/1 37/5/1
f 42/5/1 38/5/1 41/5/1
f 44/1/1 42/1/1 41/1/1
f 45/1/1 42/1/1 44/1/1
f 48/3/1 44/3/1 43/3/1
f 49/3/1 47/3/1 46/3/1
f 50/3/1 47/3/1 49/3/1
f 51/3/1 48/3/1 43/3/1
f 51/3/1 49/3/1 48/3/1
f 52/3/1 49/3/1 51/3/1
f 56/3/1 54/3/1 53/3/1
f 57/3/1 54/3/1 56/3/1
f 60/3/1 56/3/1 55/3/1
f 60/3/1 58/3/1 57/3/1
f 60/3/1 57/3/1 56/3/1
f 61/3/1 60/3/1 59/3/1
f 62/3/1 58/3/1 60/3/1
f 62/3/1 60/3/1 61/3/1
f 63/3/1 58/3/1 62/3/1
f 64/3/1 58/3/1 63/3/1
f 67/1/1 66/1/1 65/1/1
f 68/1/1 66/1/1 67/1/1
f 71/3/1 70/3/1 69/3/1
f 72/3/1 70/3/1 71/3/1
f 75/4/1 74/4/1 73/4/1
f 76/4/1 74/4/1 75/4/1
f 77/4/1 74/4/1 76/4/1
f 78/1/1 77/1/1 76/1/1
f 79/1/1 77/1/1 78/1/1
f 82/3/1 81/3/1 80/3/1
f 83/3/1 81/3/1 82/3/1
f 84/3/2 85/3/2 86/3/2
f 86/3/2 85/3/2 87/3/2
f 88/4/2 89/4/2 90/4/2
f 90/4/2 89/4/2 91/4/2
f 91/4/2 89/4/2 92/4/2
f 91/1/2 92/1/2 93/1/2
f 93/1/2 92/1/2 94/1/2
f 95/3/2 96/3/2 97/3/2
f 97/3/2 96/3/2 98/3/2
f 99/3/2 100/3/2 101/3/2
f 101/3/2 100/3/2 102/3/2
f 103/1/2 104/1/2 105/1/2
f 105/1/2 104/1/2 106/1/2
f 107/3/2 108/3/2 109/3/2
f 109/3/2 108/3/2 110/3/2
f 111/3/2 112/3/2 114/3/2
f 114/3/2 112/3/2 115/3/2
f 113/3/2 114/3/2 118/3/2
f 115/3/2 116/3/2 118/3/2
f 114/3/2 115/3/2 118/3/2
f 117/3/2 118/3/2 119/3/2
f 118/3/2 116/3/2 120/3/2
f 119/3/2 118/3/2 120/3/2
f 120/3/2 116/3/2 121/3/2
f 121/3/2 116/3/2 122/3/2
f 123/4/2 124/4/2 125/4/2
f 125/4/2 124/4/2 126/4/2
f 126/4/2 124/4/2 127/4/2
f 126/1/2 127/1/2 129/1/2
f 129/1/2 127/1/2 130/1/2
f 128/4/2 129/4/2 132/4/2
f 132/4/2 129/4/2 133/4/2
f 130/4/2 131/4/2 134/4/2
f 134/4/2 131/4/2 135/4/2
f 132/1/2 133/1/2 136/1/2
f 136/1/2 133/1/2 137/1/2
f 134/1/2 135/1/2 138/1/2
f 138/1/2 135/1/2 139/1/2
f 140/1/2 141/1/2 142/1/2
f 142/1/2 141/1/2 143/1/2
f 143/1/2 141/1/2 144/1/2
f 144/1/2 141/1/2 145/1/2
f 142/5/2 143/5/2 146/5/2
f 146/5/2 143/5/2 147/5/2
f 146/1/2 147/1/2 149/1/2
f 148/3/2 149/3/2 150/3/2
f 149/1/2 147/1/2 151/1/2
f 150/3/2 149/3/2 151/3/2
f 151/1/2 147/1/2 152/1/2
f 153/3/2 154/3/2 156/3/2
f 156/3/2 154/3/2 157/3/2
f 155/3/2 156/3/2 158/3/2
f 158/3/2 156/3/2 159/3/2
f 160/3/2 161/3/2 164/3/2
f 162/3/2 163/3/2 165/3/2
f 163/2/2 164/2/2 165/2/2
f 164/3/2 161/3/2 166/3/2
f 165/2/2 164/2/2 166/2/2
f 162/3/2 165/3/2 168/3/2
f 165/3/2 166/3/2 168/3/2
f 166/3/2 161/3/2 169/3/2
f 167/3/2 168/3/2 169/3/2
f 168/3/2 166/3/2 169/3/2
f 169/3/2 161/3/2 170/3/2
f 167/3/2 169/3/2 171/3/2
f 171/3/2 169/3/2 172/3/2
f 173/1/2 174/1/2 175/1/2
f 175/1/2 174/1/2 176/1/2
f 179/3/3 178/3/3 177/3/3
f 180/3/3 178/3/3 179/3/3
f 181/3/3 179/3/3 177/3/3
f 182/3/3 179/3/3 181/3/3
f 183/3/3 178/3/3 180/3/3
f 184/3/3 178/3/3 183/3/3
f 186/3/3 178/3/3 184/3/3
f 188/3/3 186/3/3 185/3/3
f 189/3/3 178/3/3 186/3/3
f 189/3/3 186/3/3 188/3/3
f 190/3/3 178/3/3 189/3/3
f 191/3/3 188/3/3 187/3/3
f 191/3/3 189/3/3 188/3/3
f 192/3/3 189/3/3 191/3/3
f 193/3/3 189/3/3 192/3/3
f 194/3/3 189/3/3 193/3/3
f 200/3/3 196/3/3 195/3/3
f 201/3/3 196/3/3 200/3/3
f 202/5/3 199/5/3 198/5/3
f 202/1/3 198/1/3 197/1/3
f 203/1/3 200/1/3 199/1/3
f 203/5/3 199/5/3 202/5/3
f 204/1/3 200/1/3 203/1/3
f 207/1/3 202/1/3 197/1/3
f 207/1/3 203/1/3 202/1/3
f 208/1/3 203/1/3 207/1/3
f 209/4/3 204/4/3 203/4/3
f 209/1/3 203/1/3 208/1/3
f 210/4/3 204/4/3 209/4/3
f 211/1/3 206/1/3 205/1/3
f 212/1/3 206/1/3 211/1/3
f 214/1/3 210/1/3 209/1/3
f 214/1/3 213/1/3 212/1/3
f 214/1/3 212/1/3 211/1/3
f 214/1/3 211/1/3 210/1/3
f 214/1/3 209/1/3 208/1/3
f 215/1/3 213/1/3 214/1/3
f 216/6/3 208/6/3 207/6/3
f 217/1/3 214/1/3 208/1/3
f 217/6/3 208/6/3 216/6/3
f 218/1/3 214/1/3 217/1/3
f 219/1/3 214/1/3 218/1/3
f 220/1/3 214/1/3 219/1/3
f 223/1/3 217/1/3 216/1/3
f 223/1/3 218/1/3 217/1/3
f 224/4/3 219/4/3 218/4/3
f 224/1/3 218/1/3 223/1/3
f 225/4/3 219/4/3 224/4/3
f 226/1/3 223/1/3 216/1/3
f 227/5/3 224/5/3 223/5/3
f 227/1/3 223/1/3 226/1/3
f 228/1/3 225/1/3 224/1/3
f 228/5/3 224/5/3 227/5/3
f 229/1/3 225/1/3 228/1/3
f 230/3/3 222/3/3 221/3/3
f 231/3/3 222/3/3 230/3/3
f 239/3/3 233/3/3 232/3/3
f 240/3/3 233/3/3 239/3/3
f 241/3/3 233/3/3 240/3/3
f 242/1/3 238/1/3 237/1/3
f 242/4/3 237/4/3 236/4/3
f 243/1/3 238/1/3 242/1/3
f 244/4/3 235/4/3 234/4/3
f 245/4/3 235/4/3 244/4/3
f 246/4/3 242/4/3 236/4/3
f 246/4/3 243/4/3 242/4/3
f 247/4/3 243/4/3 246/4/3
f 250/4/3 246/4/3 236/4/3
f 250/1/3 247/1/3 246/1/3
f 251/1/3 247/1/3 250/1/3
f 252/4/3 250/4/3 236/4/3
f 252/4/3 251/4/3 250/4/3
f 253/4/3 251/4/3 252/4/3
f 254/4/3 249/4/3 248/4/3
f 255/4/3 249/4/3 254/4/3
f 256/4/3 252/4/3 236/4/3
f 257/1/3 253/1/3 252/1/3
f 257/4/3 252/4/3 256/4/3
f 258/1/3 253/1/3 257/1/3
f 262/3/3 260/3/3 259/3/3
f 262/3/3 261/3/3 260/3/3
f 263/3/3 261/3/3 262/3/3
f 267/1/3 265/1/3 264/1/3
f 268/1/3 265/1/3 267/1/3
f 269/1/3 265/1/3 268/1/3
f 270/1/3 267/1/3 266/1/3
f 271/1/3 267/1/3 270/1/3
f 276/1/3 273/1/3 272/1/3
f 277/1/3 273/1/3 276/1/3
f 278/1/3 275/1/3 274/1/3
f 279/1/3 275/1/3 278/1/3
f 282/1/3 281/1/3 280/1/3
f 282/1/3 280/1/3 279/1/3
f 283/1/3 281/1/3 282/1/3
f 286/3/3 285/3/3 284/3/3
f 287/3/3 285/3/3 286/3/3
f 290/3/3 289/3/3 288/3/3
f 291/3/3 289/3/3 290/3/3
f 294/3/3 293/3/3 292/3/3
f 295/3/3 293/3/3 294/3/3
f 298/3/3 297/3/3 296/3/3
f 299/3/3 297/3/3 298/3/3
f 300/1/4 301/1/4 304/1/4
f 304/1/4 301/1/4 305/1/4
f 305/1/4 301/1/4 306/1/4
f 302/4/4 303/4/4 307/4/4
f 303/1/4 304/1/4 308/1/4
f 307/4/4 303/4/4 308/4/4
f 308/1/4 304/1/4 309/1/4
f 310/1/4 311/1/4 315/1/4
f 315/1/4 311/1/4 316/1/4
f 312/4/4 313/4/4 317/4/4
f 313/1/4 314/1/4 318/1/4
f 317/4/4 313/4/4 318/4/4
f 318/1/4 314/1/4 319/1/4
f 320/1/4 321/1/4 322/1/4
f 319/1/4 320/1/4 322/1/4
f 322/1/4 321/1/4 323/1/4
f 324/3/4 325/3/4 329/3/4
f 329/3/4 325/3/4 330/3/4
f 327/1/4 328/1/4 332/1/4
f 326/4/4 327/4/4 332/4/4
f 332/1/4 328/1/4 333/1/4
f 330/3/4 331/3/4 334/3/4
f 334/3/4 331/3/4 335/3/4
f 332/4/4 333/4/4 336/4/4
f 326/4/4 332/4/4 336/4/4
f 336/4/4 333/4/4 337/4/4
f 326/4/4 336/4/4 340/4/4
f 336/1/4 337/1/4 341/1/4
f 340/4/4 336/4/4 341/4/4
f 341/1/4 337/1/4 342/1/4
f 338/3/4 339/3/4 344/3/4
f 344/3/4 339/3/4 345/3/4
f 343/3/4 344/3/4 346/3/4
f 346/3/4 344/3/4 347/3/4
f 348/3/4 349/3/4 350/3/4
f 348/3/4 350/3/4 352/3/4
f 350/3/4 351/3/4 352/3/4
f 352/3/4 351/3/4 353/3/4
f 348/3/4 352/3/4 354/3/4
f 354/3/4 355/3/4 356/3/4
f 356/3/4 355/3/4 357/3/4
f 348/3/4 354/3/4 358/3/4
f 354/3/4 356/3/4 358/3/4
f 358/3/4 356/3/4 359/3/4
f 360/3/4 361/3/4 362/3/4
f 362/3/4 361/3/4 363/3/4
f 364/3/4 365/3/4 366/3/4
f 366/3/4 365/3/4 367/3/4
f 372/4/5 369/4/5 368/4/5
f 373/4/5 369/4/5 372/4/5
f 374/4/5 371/4/5 370/4/5
f 375/4/5 371/4/5 374/4/5
f 379/4/5 377/4/5 376/4/5
f 380/4/5 377/4/5 379/4/5
f 381/4/5 377/4/5 380/4/5
f 382/4/5 377/4/5 381/4/5
f 384/1/5 379/1/5 378/1/5
f 385/1/5 379/1/5 384/1/5
f 386/4/5 381/4/5 380/4/5
f 387/4/5 381/4/5 386/4/5
f 388/1/5 383/1/5 382/1/5
f 389/1/5 383/1/5 388/1/5
f 390/4/5 387/4/5 386/4/5
f 390/4/5 388/4/5 387/4/5
f 390/4/5 386/4/5 385/4/5
f 391/4/5 388/4/5 390/4/5
f 396/1/5 393/1/5 392/1/5
f 396/6/5 394/6/5 393/6/5
f 397/1/5 395/1/5 394/1/5
f 397/6/5 394/6/5 396/6/5
f 398/1/5 396/1/5 392/1/5
f 398/1/5 397/1/5 396/1/5
f 399/1/5 395/1/5 397/1/5
f 399/1/5 397/1/5 398/1/5
f 401/1/5 398/1/5 392/1/5
f 402/1/5 395/1/5 399/1/5
f 404/1/5 398/1/5 401/1/5
f 405/1/5 402/1/5 399/1/5
f 406/3/5 401/3/5 400/3/5
f 406/1/5 405/1/5 404/1/5
f 406/1/5 404/1/5 401/1/5
f 407/1/5 402/1/5 405/1/5
f 407/1/5 405/1/5 406/1/5
f 407/3/5 403/3/5 402/3/5
f 408/3/5 406/3/5 400/3/5
f 408/3/5 407/3/5 406/3/5
f 409/3/5 403/3/5 407/3/5
f 409/3/5 407/3/5 408/3/5
f 414/3/5 411/3/5 410/3/5
f 415/3/5 411/3/5 414/3/5
f 416/3/5 413/3/5 412/3/5
f 417/3/5 413/3/5 416/3/5
f 418/2/5 415/2/5 414/2/5
f 419/2/5 415/2/5 418/2/5
f 420/2/5 417/2/5 416/2/5
f 421/2/5 417/2/5 420/2/5
f 427/3/5 423/3/5 422/3/5
f 428/3/5 423/3/5 427/3/5
f 429/3/5 423/3/5 428/3/5
f 430/3/5 425/3/5 424/3/5
f 431/3/5 425/3/5 430/3/5
f 432/3/5 425/3/5 431/3/5
f 433/3/5 427/3/5 426/3/5
f 434/3/5 427/3/5 433/3/5
f 439/3/5 436/3/5 435/3/5
f 440/3/5 436/3/5 439/3/5
f 441/3/5 438/3/5 437/3/5
f 442/3/5 438/3/5 441/3/5
f 443/3/5 438/3/5 442/3/5
f 446/3/5 445/3/5 444/3/5
f 447/3/5 445/3/5 446/3/5
f 450/3/5 449/3/5 448/3/5
f 451/3/5 449/3/5 450/3/5
f 454/3/5 453/3/5 452/3/5
f 455/3/5 453/3/5 454/3/5
f 458/3/5 457/3/5 456/3/5
f 459/3/5 457/3/5 458/3/5
f 460/4/6 461/4/6 464/4/6
f 464/4/6 461/4/6 465/4/6
f 462/4/6 463/4/6 466/4/6
f 466/4/6 463/4/6 467/4/6
f 468/1/6 469/1/6 475/1/6
f 469/4/6 470/4/6 476/4/6
f 470/1/6 471/1/6 476/1/6
f 471/4/6 472/4/6 477/4/6
f 476/1/6 471/1/6 477/1/6
f 472/1/6 473/1/6 478/1/6
f 474/1/6 475/1/6 480/1/6
f 475/1/6 469/1/6 481/1/6
f 480/1/6 475/1/6 481/1/6
f 469/4/6 476/4/6 482/4/6
f 477/4/6 472/4/6 483/4/6
f 478/1/6 479/1/6 484/1/6
f 472/1/6 478/1/6 484/1/6
f 484/1/6 479/1/6 485/1/6
f 481/1/6 469/1/6 486/1/6
f 469/4/6 482/4/6 487/4/6
f 486/1/6 469/1/6 487/1/6
f 482/4/6 483/4/6 487/4/6
f 483/4/6 472/4/6 488/4/6
f 487/4/6 483/4/6 488/4/6
f 472/1/6 484/1/6 488/1/6
f 488/1/6 484/1/6 489/1/6
f 490/3/6 491/3/6 492/3/6
f 492/3/6 491/3/6 493/3/6
f 494/3/6 495/3/6 498/3/6
f 498/3/6 495/3/6 499/3/6
f 496/3/6 497/3/6 500/3/6
f 500/3/6 497/3/6 501/3/6
f 502/3/6 503/3/6 506/3/6
f 506/3/6 503/3/6 507/3/6
f 504/3/6 505/3/6 508/3/6
f 508/3/6 505/3/6 509/3/6
f 507/3/6 503/3/6 512/3/6
f 512/3/6 503/3/6 513/3/6
f 509/3/6 510/3/6 514/3/6
f 514/3/6 510/3/6 515/3/6
f 511/3/6 512/3/6 516/3/6
f 516/3/6 512/3/6 517/3/6
f 518/3/6 519/3/6 520/3/6
f 518/3/6 520/3/6 522/3/6
f 520/3/6 521/3/6 522/3/6
f 522/3/6 521/3/6 523/3/6
f 518/3/6 522/3/6 524/3/6
f 524/3/6 522/3/6 525/3/6
f 523/3/6 521/3/6 526/3/6
f 526/3/6 521/3/6 527/3/6
f 528/3/6 529/3/6 530/3/6
f 530/3/6 529/3/6 531/3/6
f 532/3/6 533/3/6 534/3/6
f 534/3/6 533/3/6 535/3/6
