# MagicaVoxel @ Ephtracy

# group
o 

# material
mtllib Character-27.mtl
usemtl palette

# normals
vn -1 0 0
vn 1 0 0
vn 0 0 1
vn 0 0 -1
vn 0 -1 0
vn 0 1 0

# texcoords
vt 0.0371094 0.5
vt 0.0488281 0.5
vt 0.189453 0.5
vt 0.205078 0.5
vt 0.291016 0.5
vt 0.525391 0.5
vt 0.689453 0.5
vt 0.693359 0.5
vt 0.705078 0.5
vt 0.900391 0.5
vt 0.970703 0.5
vt 0.974609 0.5

# verts
v -3 0.6 -1.4
v -3 0.6 -1.6
v -3 0.8 -1.4
v -3 0.8 -1.6
v -3 1.4 -1.4
v -3 1.4 -1.6
v -2.9 1.6 -1.4
v -2.9 1.6 -1.5
v -2.9 1.7 -1.3
v -2.9 1.7 -1.4
v -2.9 1.7 -1.5
v -2.9 1.7 -1.8
v -2.9 1.9 -1.2
v -2.9 1.9 -1.3
v -2.9 1.9 -1.4
v -2.9 1.9 -1.5
v -2.9 2 -1
v -2.9 2 -1.2
v -2.9 2 -1.8
v -2.9 2.1 -1
v -2.9 2.1 -1.2
v -2.9 2.1 -1.4
v -2.9 2.1 -1.8
v -2.9 2.2 -1.2
v -2.9 2.2 -1.4
v -2.9 2.3 -1.7
v -2.9 2.3 -1.8
v -2.9 2.4 -1.2
v -2.9 2.4 -1.7
v -2.8 0 -1.3
v -2.8 0 -1.6
v -2.8 0.1 -1.3
v -2.8 0.1 -1.4
v -2.8 0.1 -1.6
v -2.8 0.6 -1.4
v -2.8 0.6 -1.6
v -2.8 0.7 -1.3
v -2.8 0.7 -1.4
v -2.8 0.7 -1.6
v -2.8 0.7 -1.7
v -2.8 0.8 -1.3
v -2.8 0.8 -1.4
v -2.8 0.8 -1.6
v -2.8 0.8 -1.7
v -2.8 0.9 -1.3
v -2.8 0.9 -1.4
v -2.8 1 -1.3
v -2.8 1 -1.4
v -2.8 1.4 -1.3
v -2.8 1.4 -1.4
v -2.8 1.4 -1.6
v -2.8 1.4 -1.7
v -2.8 1.5 -1.2
v -2.8 1.5 -1.4
v -2.8 1.5 -1.7
v -2.8 1.6 -1.4
v -2.8 1.6 -1.5
v -2.8 1.7 -1.2
v -2.8 1.7 -1.3
v -2.8 1.7 -1.4
v -2.8 1.7 -1.5
v -2.8 1.7 -1.7
v -2.8 1.9 -1.1
v -2.8 1.9 -1.2
v -2.8 1.9 -1.3
v -2.8 2 -0.9
v -2.8 2 -1
v -2.8 2 -1.1
v -2.8 2 -1.2
v -2.8 2.1 -0.9
v -2.8 2.1 -1
v -2.8 2.3 -1.7
v -2.8 2.3 -1.8
v -2.8 2.4 -1.7
v -2.8 2.4 -1.8
v -2.6 1.4 -1.4
v -2.6 1.4 -1.6
v -2.6 1.5 -1.4
v -2.6 1.5 -1.6
v -2.4 0 -1.3
v -2.4 0 -1.6
v -2.4 0.1 -1.3
v -2.4 0.1 -1.4
v -2.4 0.1 -1.6
v -2.4 0.7 -1.4
v -2.4 0.7 -1.6
v -2.4 1.9 -1.1
v -2.4 1.9 -1.2
v -2.4 2 -1.1
v -2.4 2 -1.2
v -2.6 0 -1.3
v -2.6 0 -1.6
v -2.6 0.1 -1.3
v -2.6 0.1 -1.4
v -2.6 0.1 -1.6
v -2.6 0.7 -1.4
v -2.6 0.7 -1.6
v -2.6 1.9 -1.1
v -2.6 1.9 -1.2
v -2.6 2 -1.1
v -2.6 2 -1.2
v -2.4 1.4 -1.4
v -2.4 1.4 -1.6
v -2.4 1.5 -1.4
v -2.4 1.5 -1.6
v -2.2 0 -1.3
v -2.2 0 -1.6
v -2.2 0.1 -1.3
v -2.2 0.1 -1.4
v -2.2 0.1 -1.6
v -2.2 0.6 -1.4
v -2.2 0.6 -1.6
v -2.2 0.7 -1.3
v -2.2 0.7 -1.4
v -2.2 0.7 -1.6
v -2.2 0.7 -1.7
v -2.2 0.8 -1.3
v -2.2 0.8 -1.4
v -2.2 0.8 -1.6
v -2.2 0.8 -1.7
v -2.2 0.9 -1.3
v -2.2 0.9 -1.4
v -2.2 1 -1.3
v -2.2 1 -1.4
v -2.2 1.4 -1.3
v -2.2 1.4 -1.4
v -2.2 1.4 -1.6
v -2.2 1.4 -1.7
v -2.2 1.5 -1.2
v -2.2 1.5 -1.4
v -2.2 1.5 -1.7
v -2.2 1.6 -1.4
v -2.2 1.6 -1.5
v -2.2 1.7 -1.2
v -2.2 1.7 -1.3
v -2.2 1.7 -1.4
v -2.2 1.7 -1.5
v -2.2 1.7 -1.7
v -2.2 1.9 -1.1
v -2.2 1.9 -1.2
v -2.2 2 -0.9
v -2.2 2 -1
v -2.2 2 -1.1
v -2.2 2 -1.2
v -2.2 2 -1.3
v -2.2 2.1 -0.9
v -2.2 2.1 -1
v -2.2 2.3 -1.7
v -2.2 2.3 -1.8
v -2.2 2.4 -1.7
v -2.2 2.4 -1.8
v -2.1 1.6 -1.4
v -2.1 1.6 -1.5
v -2.1 1.7 -1.3
v -2.1 1.7 -1.4
v -2.1 1.7 -1.5
v -2.1 1.7 -1.8
v -2.1 1.9 -1.4
v -2.1 1.9 -1.5
v -2.1 2 -1
v -2.1 2 -1.2
v -2.1 2 -1.3
v -2.1 2 -1.8
v -2.1 2.1 -1
v -2.1 2.1 -1.2
v -2.1 2.1 -1.4
v -2.1 2.1 -1.8
v -2.1 2.2 -1.2
v -2.1 2.2 -1.4
v -2.1 2.3 -1.7
v -2.1 2.3 -1.8
v -2.1 2.4 -1.2
v -2.1 2.4 -1.7
v -2 0.6 -1.4
v -2 0.6 -1.6
v -2 0.8 -1.4
v -2 0.8 -1.6
v -2 1.4 -1.4
v -2 1.4 -1.6
v -2.8 2 -0.9
v -2.8 2.1 -0.9
v -2.2 2 -0.9
v -2.2 2.1 -0.9
v -2.9 2 -1
v -2.9 2.1 -1
v -2.8 2 -1
v -2.8 2.1 -1
v -2.2 2 -1
v -2.2 2.1 -1
v -2.1 2 -1
v -2.1 2.1 -1
v -2.8 1.9 -1.1
v -2.8 2 -1.1
v -2.6 1.9 -1.1
v -2.6 2 -1.1
v -2.4 1.9 -1.1
v -2.4 2 -1.1
v -2.2 1.9 -1.1
v -2.2 2 -1.1
v -2.9 1.9 -1.2
v -2.9 2 -1.2
v -2.9 2.1 -1.2
v -2.9 2.2 -1.2
v -2.9 2.4 -1.2
v -2.8 1.5 -1.2
v -2.8 1.7 -1.2
v -2.8 1.9 -1.2
v -2.8 2 -1.2
v -2.7 1.8 -1.2
v -2.7 1.9 -1.2
v -2.6 1.5 -1.2
v -2.6 1.6 -1.2
v -2.6 1.8 -1.2
v -2.6 1.9 -1.2
v -2.6 2 -1.2
v -2.6 2.3 -1.2
v -2.6 2.4 -1.2
v -2.4 1.5 -1.2
v -2.4 1.6 -1.2
v -2.4 1.8 -1.2
v -2.4 1.9 -1.2
v -2.4 2 -1.2
v -2.4 2.3 -1.2
v -2.4 2.4 -1.2
v -2.3 1.8 -1.2
v -2.3 1.9 -1.2
v -2.2 1.5 -1.2
v -2.2 1.7 -1.2
v -2.2 1.9 -1.2
v -2.1 2.1 -1.2
v -2.1 2.2 -1.2
v -2.1 2.4 -1.2
v -2.9 1.7 -1.3
v -2.9 1.9 -1.3
v -2.8 0 -1.3
v -2.8 0.1 -1.3
v -2.8 0.7 -1.3
v -2.8 0.8 -1.3
v -2.8 0.9 -1.3
v -2.8 1 -1.3
v -2.8 1.4 -1.3
v -2.8 1.7 -1.3
v -2.8 1.9 -1.3
v -2.7 0.9 -1.3
v -2.7 1 -1.3
v -2.6 0 -1.3
v -2.6 0.1 -1.3
v -2.6 1 -1.3
v -2.6 1.1 -1.3
v -2.6 1.2 -1.3
v -2.6 1.3 -1.3
v -2.6 1.4 -1.3
v -2.4 0 -1.3
v -2.4 0.1 -1.3
v -2.4 1 -1.3
v -2.4 1.1 -1.3
v -2.4 1.2 -1.3
v -2.4 1.3 -1.3
v -2.4 1.4 -1.3
v -2.3 0.9 -1.3
v -2.3 1 -1.3
v -2.2 0 -1.3
v -2.2 0.1 -1.3
v -2.2 0.7 -1.3
v -2.2 0.8 -1.3
v -2.2 0.9 -1.3
v -2.2 1 -1.3
v -2.2 1.4 -1.3
v -2.2 1.7 -1.3
v -2.2 2 -1.3
v -2.1 1.7 -1.3
v -2.1 2 -1.3
v -3 0.6 -1.4
v -3 0.8 -1.4
v -3 1.4 -1.4
v -2.9 1.6 -1.4
v -2.9 1.7 -1.4
v -2.8 0.1 -1.4
v -2.8 0.6 -1.4
v -2.8 0.7 -1.4
v -2.8 0.8 -1.4
v -2.8 0.9 -1.4
v -2.8 1 -1.4
v -2.8 1.4 -1.4
v -2.8 1.6 -1.4
v -2.8 1.7 -1.4
v -2.6 0.1 -1.4
v -2.6 0.7 -1.4
v -2.6 1.4 -1.4
v -2.6 1.5 -1.4
v -2.4 0.1 -1.4
v -2.4 0.7 -1.4
v -2.4 1.4 -1.4
v -2.4 1.5 -1.4
v -2.2 0.1 -1.4
v -2.2 0.6 -1.4
v -2.2 0.7 -1.4
v -2.2 0.8 -1.4
v -2.2 0.9 -1.4
v -2.2 1 -1.4
v -2.2 1.4 -1.4
v -2.2 1.6 -1.4
v -2.2 1.7 -1.4
v -2.1 1.6 -1.4
v -2.1 1.7 -1.4
v -2 0.6 -1.4
v -2 0.8 -1.4
v -2 1.4 -1.4
v -2.9 1.6 -1.5
v -2.9 1.7 -1.5
v -2.8 1.6 -1.5
v -2.8 1.7 -1.5
v -2.2 1.6 -1.5
v -2.2 1.7 -1.5
v -2.1 1.6 -1.5
v -2.1 1.7 -1.5
v -3 0.6 -1.6
v -3 0.8 -1.6
v -3 1.4 -1.6
v -2.8 0 -1.6
v -2.8 0.1 -1.6
v -2.8 0.6 -1.6
v -2.8 0.7 -1.6
v -2.8 0.8 -1.6
v -2.8 1.4 -1.6
v -2.6 0 -1.6
v -2.6 0.1 -1.6
v -2.6 0.7 -1.6
v -2.6 1.4 -1.6
v -2.6 1.5 -1.6
v -2.4 0 -1.6
v -2.4 0.1 -1.6
v -2.4 0.7 -1.6
v -2.4 1.4 -1.6
v -2.4 1.5 -1.6
v -2.2 0 -1.6
v -2.2 0.1 -1.6
v -2.2 0.6 -1.6
v -2.2 0.7 -1.6
v -2.2 0.8 -1.6
v -2.2 1.4 -1.6
v -2 0.6 -1.6
v -2 0.8 -1.6
v -2 1.4 -1.6
v -2.9 2.3 -1.7
v -2.9 2.4 -1.7
v -2.8 0.7 -1.7
v -2.8 0.8 -1.7
v -2.8 1.4 -1.7
v -2.8 1.5 -1.7
v -2.8 1.7 -1.7
v -2.8 2.3 -1.7
v -2.8 2.4 -1.7
v -2.2 0.7 -1.7
v -2.2 0.8 -1.7
v -2.2 1.4 -1.7
v -2.2 1.5 -1.7
v -2.2 1.7 -1.7
v -2.2 2.3 -1.7
v -2.2 2.4 -1.7
v -2.1 2.3 -1.7
v -2.1 2.4 -1.7
v -2.9 1.7 -1.8
v -2.9 2 -1.8
v -2.9 2.1 -1.8
v -2.9 2.3 -1.8
v -2.8 2.3 -1.8
v -2.8 2.4 -1.8
v -2.2 2.3 -1.8
v -2.2 2.4 -1.8
v -2.1 1.7 -1.8
v -2.1 2 -1.8
v -2.1 2.1 -1.8
v -2.1 2.3 -1.8
v -2.8 0 -1.3
v -2.6 0 -1.3
v -2.4 0 -1.3
v -2.2 0 -1.3
v -2.8 0 -1.6
v -2.6 0 -1.6
v -2.4 0 -1.6
v -2.2 0 -1.6
v -3 0.6 -1.4
v -2.8 0.6 -1.4
v -2.2 0.6 -1.4
v -2 0.6 -1.4
v -3 0.6 -1.6
v -2.8 0.6 -1.6
v -2.2 0.6 -1.6
v -2 0.6 -1.6
v -2.8 0.7 -1.3
v -2.2 0.7 -1.3
v -2.8 0.7 -1.4
v -2.6 0.7 -1.4
v -2.4 0.7 -1.4
v -2.2 0.7 -1.4
v -2.8 0.7 -1.6
v -2.6 0.7 -1.6
v -2.4 0.7 -1.6
v -2.2 0.7 -1.6
v -2.8 0.7 -1.7
v -2.2 0.7 -1.7
v -2.8 1.5 -1.2
v -2.6 1.5 -1.2
v -2.4 1.5 -1.2
v -2.2 1.5 -1.2
v -2.6 1.5 -1.3
v -2.4 1.5 -1.3
v -2.8 1.5 -1.4
v -2.6 1.5 -1.4
v -2.4 1.5 -1.4
v -2.2 1.5 -1.4
v -2.6 1.5 -1.6
v -2.4 1.5 -1.6
v -2.8 1.5 -1.7
v -2.2 1.5 -1.7
v -2.9 1.6 -1.4
v -2.8 1.6 -1.4
v -2.2 1.6 -1.4
v -2.1 1.6 -1.4
v -2.9 1.6 -1.5
v -2.8 1.6 -1.5
v -2.2 1.6 -1.5
v -2.1 1.6 -1.5
v -2.9 1.7 -1.3
v -2.8 1.7 -1.3
v -2.2 1.7 -1.3
v -2.1 1.7 -1.3
v -2.9 1.7 -1.4
v -2.8 1.7 -1.4
v -2.2 1.7 -1.4
v -2.1 1.7 -1.4
v -2.9 1.7 -1.5
v -2.8 1.7 -1.5
v -2.2 1.7 -1.5
v -2.1 1.7 -1.5
v -2.8 1.7 -1.7
v -2.2 1.7 -1.7
v -2.9 1.7 -1.8
v -2.1 1.7 -1.8
v -2.8 1.9 -1.1
v -2.6 1.9 -1.1
v -2.4 1.9 -1.1
v -2.2 1.9 -1.1
v -2.9 1.9 -1.2
v -2.8 1.9 -1.2
v -2.7 1.9 -1.2
v -2.6 1.9 -1.2
v -2.4 1.9 -1.2
v -2.3 1.9 -1.2
v -2.2 1.9 -1.2
v -2.9 1.9 -1.3
v -2.8 1.9 -1.3
v -2.8 2 -0.9
v -2.2 2 -0.9
v -2.9 2 -1
v -2.8 2 -1
v -2.2 2 -1
v -2.1 2 -1
v -2.8 2 -1.1
v -2.6 2 -1.1
v -2.4 2 -1.1
v -2.2 2 -1.1
v -2.9 2 -1.2
v -2.8 2 -1.2
v -2.6 2 -1.2
v -2.4 2 -1.2
v -2.2 2 -1.2
v -2.1 2 -1.2
v -2.2 2 -1.3
v -2.1 2 -1.3
v -2.8 0.1 -1.3
v -2.6 0.1 -1.3
v -2.4 0.1 -1.3
v -2.2 0.1 -1.3
v -2.8 0.1 -1.4
v -2.6 0.1 -1.4
v -2.4 0.1 -1.4
v -2.2 0.1 -1.4
v -2.8 1.4 -1.3
v -2.6 1.4 -1.3
v -2.4 1.4 -1.3
v -2.2 1.4 -1.3
v -3 1.4 -1.4
v -2.8 1.4 -1.4
v -2.6 1.4 -1.4
v -2.4 1.4 -1.4
v -2.2 1.4 -1.4
v -2 1.4 -1.4
v -3 1.4 -1.6
v -2.8 1.4 -1.6
v -2.6 1.4 -1.6
v -2.4 1.4 -1.6
v -2.2 1.4 -1.6
v -2 1.4 -1.6
v -2.8 1.4 -1.7
v -2.2 1.4 -1.7
v -2.8 2.1 -0.9
v -2.2 2.1 -0.9
v -2.9 2.1 -1
v -2.8 2.1 -1
v -2.2 2.1 -1
v -2.1 2.1 -1
v -2.9 2.1 -1.2
v -2.1 2.1 -1.2
v -2.9 2.3 -1.7
v -2.8 2.3 -1.7
v -2.2 2.3 -1.7
v -2.1 2.3 -1.7
v -2.9 2.3 -1.8
v -2.8 2.3 -1.8
v -2.2 2.3 -1.8
v -2.1 2.3 -1.8
v -2.9 2.4 -1.2
v -2.6 2.4 -1.2
v -2.4 2.4 -1.2
v -2.1 2.4 -1.2
v -2.6 2.4 -1.3
v -2.4 2.4 -1.3
v -2.9 2.4 -1.7
v -2.8 2.4 -1.7
v -2.2 2.4 -1.7
v -2.1 2.4 -1.7
v -2.8 2.4 -1.8
v -2.2 2.4 -1.8

# faces
f 3/1/1 2/1/1 1/1/1
f 4/1/1 2/1/1 3/1/1
f 5/4/1 4/4/1 3/4/1
f 6/4/1 4/4/1 5/4/1
f 10/2/1 8/2/1 7/2/1
f 11/2/1 8/2/1 10/2/1
f 14/6/1 10/6/1 9/6/1
f 15/2/1 11/2/1 10/2/1
f 15/6/1 10/6/1 14/6/1
f 16/6/1 12/6/1 11/6/1
f 16/2/1 11/2/1 15/2/1
f 18/6/1 15/6/1 14/6/1
f 18/6/1 14/6/1 13/6/1
f 18/6/1 16/6/1 15/6/1
f 19/6/1 12/6/1 16/6/1
f 19/6/1 16/6/1 18/6/1
f 20/6/1 18/6/1 17/6/1
f 21/9/1 19/9/1 18/9/1
f 21/6/1 18/6/1 20/6/1
f 22/9/1 19/9/1 21/9/1
f 23/9/1 19/9/1 22/9/1
f 24/10/1 22/10/1 21/10/1
f 25/8/1 23/8/1 22/8/1
f 25/10/1 22/10/1 24/10/1
f 26/8/1 25/8/1 24/8/1
f 26/8/1 23/8/1 25/8/1
f 27/8/1 23/8/1 26/8/1
f 28/8/1 26/8/1 24/8/1
f 29/8/1 26/8/1 28/8/1
f 32/6/1 31/6/1 30/6/1
f 33/6/1 31/6/1 32/6/1
f 34/6/1 31/6/1 33/6/1
f 35/7/1 34/7/1 33/7/1
f 36/7/1 34/7/1 35/7/1
f 41/7/1 38/7/1 37/7/1
f 42/7/1 38/7/1 41/7/1
f 43/5/1 40/5/1 39/5/1
f 44/5/1 40/5/1 43/5/1
f 45/4/1 42/4/1 41/4/1
f 46/4/1 42/4/1 45/4/1
f 47/10/1 46/10/1 45/10/1
f 48/10/1 46/10/1 47/10/1
f 49/4/1 48/4/1 47/4/1
f 50/4/1 48/4/1 49/4/1
f 51/4/1 44/4/1 43/4/1
f 52/4/1 44/4/1 51/4/1
f 56/6/1 54/6/1 53/6/1
f 56/1/1 55/1/1 54/1/1
f 57/1/1 55/1/1 56/1/1
f 58/6/1 56/6/1 53/6/1
f 59/6/1 56/6/1 58/6/1
f 60/6/1 56/6/1 59/6/1
f 61/1/1 55/1/1 57/1/1
f 62/1/1 55/1/1 61/1/1
f 64/1/1 59/1/1 58/1/1
f 65/1/1 59/1/1 64/1/1
f 68/6/1 64/6/1 63/6/1
f 69/6/1 64/6/1 68/6/1
f 70/6/1 67/6/1 66/6/1
f 71/6/1 67/6/1 70/6/1
f 74/8/1 73/8/1 72/8/1
f 75/8/1 73/8/1 74/8/1
f 78/1/1 77/1/1 76/1/1
f 79/1/1 77/1/1 78/1/1
f 82/6/1 81/6/1 80/6/1
f 83/6/1 81/6/1 82/6/1
f 84/6/1 81/6/1 83/6/1
f 85/7/1 84/7/1 83/7/1
f 86/7/1 84/7/1 85/7/1
f 89/6/1 88/6/1 87/6/1
f 90/6/1 88/6/1 89/6/1
f 91/6/2 92/6/2 93/6/2
f 93/6/2 92/6/2 94/6/2
f 94/6/2 92/6/2 95/6/2
f 94/7/2 95/7/2 96/7/2
f 96/7/2 95/7/2 97/7/2
f 98/6/2 99/6/2 100/6/2
f 100/6/2 99/6/2 101/6/2
f 102/1/2 103/1/2 104/1/2
f 104/1/2 103/1/2 105/1/2
f 106/6/2 107/6/2 108/6/2
f 108/6/2 107/6/2 109/6/2
f 109/6/2 107/6/2 110/6/2
f 109/7/2 110/7/2 111/7/2
f 111/7/2 110/7/2 112/7/2
f 113/7/2 114/7/2 117/7/2
f 117/7/2 114/7/2 118/7/2
f 115/5/2 116/5/2 119/5/2
f 119/5/2 116/5/2 120/5/2
f 117/4/2 118/4/2 121/4/2
f 121/4/2 118/4/2 122/4/2
f 121/10/2 122/10/2 123/10/2
f 123/10/2 122/10/2 124/10/2
f 123/4/2 124/4/2 125/4/2
f 125/4/2 124/4/2 126/4/2
f 119/4/2 120/4/2 127/4/2
f 127/4/2 120/4/2 128/4/2
f 129/6/2 130/6/2 132/6/2
f 130/1/2 131/1/2 132/1/2
f 132/1/2 131/1/2 133/1/2
f 129/6/2 132/6/2 134/6/2
f 134/6/2 132/6/2 135/6/2
f 135/6/2 132/6/2 136/6/2
f 133/1/2 131/1/2 137/1/2
f 137/1/2 131/1/2 138/1/2
f 134/1/2 135/1/2 140/1/2
f 139/6/2 140/6/2 143/6/2
f 140/1/2 135/1/2 144/1/2
f 143/6/2 140/6/2 144/6/2
f 144/1/2 135/1/2 145/1/2
f 141/6/2 142/6/2 146/6/2
f 146/6/2 142/6/2 147/6/2
f 148/8/2 149/8/2 150/8/2
f 150/8/2 149/8/2 151/8/2
f 152/2/2 153/2/2 155/2/2
f 155/2/2 153/2/2 156/2/2
f 154/6/2 155/6/2 158/6/2
f 155/2/2 156/2/2 158/2/2
f 156/6/2 157/6/2 159/6/2
f 158/2/2 156/2/2 159/2/2
f 154/6/2 158/6/2 162/6/2
f 158/6/2 159/6/2 162/6/2
f 159/6/2 157/6/2 163/6/2
f 162/6/2 159/6/2 163/6/2
f 160/6/2 161/6/2 164/6/2
f 161/9/2 162/9/2 165/9/2
f 164/6/2 161/6/2 165/6/2
f 162/9/2 163/9/2 165/9/2
f 165/9/2 163/9/2 166/9/2
f 166/9/2 163/9/2 167/9/2
f 165/10/2 166/10/2 168/10/2
f 166/8/2 167/8/2 169/8/2
f 168/10/2 166/10/2 169/10/2
f 168/8/2 169/8/2 170/8/2
f 169/8/2 167/8/2 170/8/2
f 170/8/2 167/8/2 171/8/2
f 168/8/2 170/8/2 172/8/2
f 172/8/2 170/8/2 173/8/2
f 174/1/2 175/1/2 176/1/2
f 176/1/2 175/1/2 177/1/2
f 176/4/2 177/4/2 178/4/2
f 178/4/2 177/4/2 179/4/2
f 182/6/3 181/6/3 180/6/3
f 183/6/3 181/6/3 182/6/3
f 186/6/3 185/6/3 184/6/3
f 187/6/3 185/6/3 186/6/3
f 190/6/3 189/6/3 188/6/3
f 191/6/3 189/6/3 190/6/3
f 194/6/3 193/6/3 192/6/3
f 195/6/3 193/6/3 194/6/3
f 198/6/3 197/6/3 196/6/3
f 199/6/3 197/6/3 198/6/3
f 207/6/3 201/6/3 200/6/3
f 208/6/3 201/6/3 207/6/3
f 209/1/3 207/1/3 206/1/3
f 210/1/3 207/1/3 209/1/3
f 211/6/3 206/6/3 205/6/3
f 212/6/3 206/6/3 211/6/3
f 213/1/3 209/1/3 206/1/3
f 213/6/3 210/6/3 209/6/3
f 214/6/3 210/6/3 213/6/3
f 216/8/3 204/8/3 203/8/3
f 217/8/3 204/8/3 216/8/3
f 218/11/3 212/11/3 211/11/3
f 219/6/3 206/6/3 212/6/3
f 219/11/3 212/11/3 218/11/3
f 220/1/3 214/1/3 213/1/3
f 220/1/3 215/1/3 214/1/3
f 220/1/3 213/1/3 206/1/3
f 221/1/3 215/1/3 220/1/3
f 222/1/3 215/1/3 221/1/3
f 223/10/3 217/10/3 216/10/3
f 223/8/3 216/8/3 203/8/3
f 224/10/3 217/10/3 223/10/3
f 225/6/3 221/6/3 220/6/3
f 225/1/3 220/1/3 206/1/3
f 226/6/3 221/6/3 225/6/3
f 227/6/3 219/6/3 218/6/3
f 228/6/3 206/6/3 219/6/3
f 228/6/3 219/6/3 227/6/3
f 228/1/3 225/1/3 206/1/3
f 228/1/3 226/1/3 225/1/3
f 229/1/3 226/1/3 228/1/3
f 230/10/3 203/10/3 202/10/3
f 231/8/3 223/8/3 203/8/3
f 231/10/3 203/10/3 230/10/3
f 231/8/3 224/8/3 223/8/3
f 232/8/3 224/8/3 231/8/3
f 242/6/3 234/6/3 233/6/3
f 243/6/3 234/6/3 242/6/3
f 244/4/3 239/4/3 238/4/3
f 244/10/3 240/10/3 239/10/3
f 245/4/3 241/4/3 240/4/3
f 245/10/3 240/10/3 244/10/3
f 246/6/3 236/6/3 235/6/3
f 247/6/3 236/6/3 246/6/3
f 248/4/3 241/4/3 245/4/3
f 248/4/3 245/4/3 244/4/3
f 249/4/3 241/4/3 248/4/3
f 250/4/3 241/4/3 249/4/3
f 251/4/3 241/4/3 250/4/3
f 252/4/3 241/4/3 251/4/3
f 255/4/3 248/4/3 244/4/3
f 255/3/3 249/3/3 248/3/3
f 256/12/3 250/12/3 249/12/3
f 256/3/3 249/3/3 255/3/3
f 257/3/3 251/3/3 250/3/3
f 257/12/3 250/12/3 256/12/3
f 258/12/3 252/12/3 251/12/3
f 258/3/3 251/3/3 257/3/3
f 259/12/3 252/12/3 258/12/3
f 260/4/3 244/4/3 238/4/3
f 260/4/3 257/4/3 256/4/3
f 260/4/3 259/4/3 258/4/3
f 260/4/3 258/4/3 257/4/3
f 260/4/3 256/4/3 255/4/3
f 260/4/3 255/4/3 244/4/3
f 261/4/3 259/4/3 260/4/3
f 262/6/3 254/6/3 253/6/3
f 263/6/3 254/6/3 262/6/3
f 264/7/3 238/7/3 237/7/3
f 265/4/3 260/4/3 238/4/3
f 265/7/3 238/7/3 264/7/3
f 266/10/3 261/10/3 260/10/3
f 266/4/3 260/4/3 265/4/3
f 267/4/3 259/4/3 261/4/3
f 267/10/3 261/10/3 266/10/3
f 268/4/3 259/4/3 267/4/3
f 271/6/3 270/6/3 269/6/3
f 272/6/3 270/6/3 271/6/3
f 279/1/3 274/1/3 273/1/3
f 280/1/3 274/1/3 279/1/3
f 281/4/3 275/4/3 274/4/3
f 281/1/3 274/1/3 280/1/3
f 282/4/3 275/4/3 281/4/3
f 283/4/3 275/4/3 282/4/3
f 284/4/3 275/4/3 283/4/3
f 285/2/3 277/2/3 276/2/3
f 286/2/3 277/2/3 285/2/3
f 287/7/3 280/7/3 279/7/3
f 287/7/3 279/7/3 278/7/3
f 288/7/3 280/7/3 287/7/3
f 293/1/3 290/1/3 289/1/3
f 294/1/3 290/1/3 293/1/3
f 295/7/3 292/7/3 291/7/3
f 296/7/3 292/7/3 295/7/3
f 297/7/3 292/7/3 296/7/3
f 304/2/3 303/2/3 302/2/3
f 305/2/3 303/2/3 304/2/3
f 306/1/3 297/1/3 296/1/3
f 306/1/3 298/1/3 297/1/3
f 307/4/3 301/4/3 300/4/3
f 307/1/3 298/1/3 306/1/3
f 307/4/3 300/4/3 299/4/3
f 307/4/3 299/4/3 298/4/3
f 308/4/3 301/4/3 307/4/3
f 309/2/4 310/2/4 311/2/4
f 311/2/4 310/2/4 312/2/4
f 313/2/4 314/2/4 315/2/4
f 315/2/4 314/2/4 316/2/4
f 317/1/4 318/1/4 322/1/4
f 322/1/4 318/1/4 323/1/4
f 318/4/4 319/4/4 324/4/4
f 323/1/4 318/1/4 324/1/4
f 324/4/4 319/4/4 325/4/4
f 320/6/4 321/6/4 326/6/4
f 322/7/4 323/7/4 327/7/4
f 326/6/4 321/6/4 327/6/4
f 321/7/4 322/7/4 327/7/4
f 327/7/4 323/7/4 328/7/4
f 329/1/4 330/1/4 334/1/4
f 334/1/4 330/1/4 335/1/4
f 331/6/4 332/6/4 336/6/4
f 332/7/4 333/7/4 337/7/4
f 336/6/4 332/6/4 337/6/4
f 337/7/4 333/7/4 338/7/4
f 338/7/4 333/7/4 339/7/4
f 339/1/4 340/1/4 342/1/4
f 338/1/4 339/1/4 342/1/4
f 340/4/4 341/4/4 343/4/4
f 342/1/4 340/1/4 343/1/4
f 343/4/4 341/4/4 344/4/4
f 345/8/4 346/8/4 352/8/4
f 352/8/4 346/8/4 353/8/4
f 347/5/4 348/5/4 354/5/4
f 348/4/4 349/4/4 355/4/4
f 354/5/4 348/5/4 355/5/4
f 355/4/4 349/4/4 356/4/4
f 350/1/4 351/1/4 357/1/4
f 357/1/4 351/1/4 358/1/4
f 359/8/4 360/8/4 361/8/4
f 361/8/4 360/8/4 362/8/4
f 365/8/4 366/8/4 367/8/4
f 365/8/4 367/8/4 369/8/4
f 367/8/4 368/8/4 369/8/4
f 369/8/4 368/8/4 370/8/4
f 363/6/4 364/6/4 371/6/4
f 364/9/4 365/9/4 372/9/4
f 371/6/4 364/6/4 372/6/4
f 365/8/4 369/8/4 373/8/4
f 372/9/4 365/9/4 373/9/4
f 373/8/4 369/8/4 374/8/4
f 379/6/5 376/6/5 375/6/5
f 380/6/5 376/6/5 379/6/5
f 381/6/5 378/6/5 377/6/5
f 382/6/5 378/6/5 381/6/5
f 387/1/5 384/1/5 383/1/5
f 388/1/5 384/1/5 387/1/5
f 389/1/5 386/1/5 385/1/5
f 390/1/5 386/1/5 389/1/5
f 393/7/5 392/7/5 391/7/5
f 394/7/5 392/7/5 393/7/5
f 395/7/5 392/7/5 394/7/5
f 396/7/5 392/7/5 395/7/5
f 398/7/5 395/7/5 394/7/5
f 399/7/5 395/7/5 398/7/5
f 401/5/5 398/5/5 397/5/5
f 401/5/5 400/5/5 399/5/5
f 401/5/5 399/5/5 398/5/5
f 402/5/5 400/5/5 401/5/5
f 407/6/5 404/6/5 403/6/5
f 407/11/5 405/11/5 404/11/5
f 408/6/5 406/6/5 405/6/5
f 408/11/5 405/11/5 407/11/5
f 409/6/5 407/6/5 403/6/5
f 409/6/5 408/6/5 407/6/5
f 410/6/5 408/6/5 409/6/5
f 411/6/5 406/6/5 408/6/5
f 411/6/5 408/6/5 410/6/5
f 412/6/5 406/6/5 411/6/5
f 413/1/5 410/1/5 409/1/5
f 414/1/5 412/1/5 411/1/5
f 415/1/5 413/1/5 409/1/5
f 415/1/5 414/1/5 413/1/5
f 416/1/5 412/1/5 414/1/5
f 416/1/5 414/1/5 415/1/5
f 421/2/5 418/2/5 417/2/5
f 422/2/5 418/2/5 421/2/5
f 423/2/5 420/2/5 419/2/5
f 424/2/5 420/2/5 423/2/5
f 429/6/5 426/6/5 425/6/5
f 430/6/5 426/6/5 429/6/5
f 431/6/5 428/6/5 427/6/5
f 432/6/5 428/6/5 431/6/5
f 437/6/5 434/6/5 433/6/5
f 438/6/5 436/6/5 435/6/5
f 439/6/5 437/6/5 433/6/5
f 439/6/5 438/6/5 437/6/5
f 440/6/5 436/6/5 438/6/5
f 440/6/5 438/6/5 439/6/5
f 446/6/5 442/6/5 441/6/5
f 447/6/5 442/6/5 446/6/5
f 448/6/5 442/6/5 447/6/5
f 449/6/5 444/6/5 443/6/5
f 450/6/5 444/6/5 449/6/5
f 451/6/5 444/6/5 450/6/5
f 452/6/5 446/6/5 445/6/5
f 453/6/5 446/6/5 452/6/5
f 457/6/5 455/6/5 454/6/5
f 458/6/5 455/6/5 457/6/5
f 460/6/5 457/6/5 456/6/5
f 460/6/5 459/6/5 458/6/5
f 460/6/5 458/6/5 457/6/5
f 461/6/5 459/6/5 460/6/5
f 462/6/5 459/6/5 461/6/5
f 463/6/5 459/6/5 462/6/5
f 464/6/5 460/6/5 456/6/5
f 465/6/5 460/6/5 464/6/5
f 466/6/5 462/6/5 461/6/5
f 467/6/5 462/6/5 466/6/5
f 468/6/5 459/6/5 463/6/5
f 469/6/5 459/6/5 468/6/5
f 470/9/5 469/9/5 468/9/5
f 471/9/5 469/9/5 470/9/5
f 472/6/6 473/6/6 476/6/6
f 476/6/6 473/6/6 477/6/6
f 474/6/6 475/6/6 478/6/6
f 478/6/6 475/6/6 479/6/6
f 480/4/6 481/4/6 485/4/6
f 481/12/6 482/12/6 486/12/6
f 485/4/6 481/4/6 486/4/6
f 482/4/6 483/4/6 487/4/6
f 486/12/6 482/12/6 487/12/6
f 487/4/6 483/4/6 488/4/6
f 485/4/6 486/4/6 490/4/6
f 484/4/6 485/4/6 490/4/6
f 490/4/6 486/4/6 491/4/6
f 491/4/6 486/4/6 492/4/6
f 488/4/6 489/4/6 493/4/6
f 487/4/6 488/4/6 493/4/6
f 493/4/6 489/4/6 494/4/6
f 494/4/6 489/4/6 495/4/6
f 491/4/6 492/4/6 496/4/6
f 493/4/6 494/4/6 496/4/6
f 492/4/6 493/4/6 496/4/6
f 496/4/6 494/4/6 497/4/6
f 498/6/6 499/6/6 501/6/6
f 501/6/6 499/6/6 502/6/6
f 500/6/6 501/6/6 504/6/6
f 502/6/6 503/6/6 504/6/6
f 501/6/6 502/6/6 504/6/6
f 504/6/6 503/6/6 505/6/6
f 506/8/6 507/8/6 510/8/6
f 510/8/6 507/8/6 511/8/6
f 508/8/6 509/8/6 512/8/6
f 512/8/6 509/8/6 513/8/6
f 514/8/6 515/8/6 518/8/6
f 515/10/6 516/10/6 518/10/6
f 516/8/6 517/8/6 519/8/6
f 518/10/6 516/10/6 519/10/6
f 514/8/6 518/8/6 520/8/6
f 518/8/6 519/8/6 520/8/6
f 520/8/6 519/8/6 521/8/6
f 519/8/6 517/8/6 522/8/6
f 521/8/6 519/8/6 522/8/6
f 522/8/6 517/8/6 523/8/6
f 521/8/6 522/8/6 524/8/6
f 524/8/6 522/8/6 525/8/6
