# generated by tools/rig_people.py — do not edit
mtllib people.mtl
o leg-l
usemtl palette
v -3 0 -2.5
v -3 0 0.5
v -3 1 0.5
v -3 1 -2.5
v -3 1 -1.5
v -3 1 -0.5
v -3 2 -0.5
v -3 2 -1.5
v -3 2 0.5
v -3 3 0.5
v -3 3 -1.5
v -3 3 -0.5
v -3 4 -0.5
v -3 4 -1.5
v -3 5 -0.5
v -3 5 -1.5
v -3 5 0.5
v -3 7 0.5
v -3 7 -1.5
v -3 4 0.5
v -1 1 -2.5
v -1 1 0.5
v -1 0 0.5
v -1 0 -2.5
v -1 2 -1.5
v -1 2 -0.5
v -1 1 -0.5
v -1 1 -1.5
v -1 3 -1.5
v -1 3 0.5
v -1 2 0.5
v -1 4 -1.5
v -1 4 -0.5
v -1 3 -0.5
v -1 5 -1.5
v -1 5 -0.5
v -1 7 -1.5
v -1 7 0.5
v -1 5 0.5
v -1 4 0.5
vt 0.5253906 0.5
vt 0.5292969 0.5
vt 0.0410156 0.5
vt 0.2636719 0.5
vn -1 0 0
vn 1 0 0
vn 0 0 1
vn 0 0 -1
vn 0 1 0
vn 0 -1 0
f 1/1/1 2/1/1 3/1/1 4/1/1
f 5/2/1 6/2/1 7/2/1 8/2/1
f 8/1/1 9/1/1 10/1/1 11/1/1
f 11/2/1 12/2/1 13/2/1 14/2/1
f 14/3/1 13/3/1 15/3/1 16/3/1
f 16/4/1 17/4/1 18/4/1 19/4/1
f 6/1/1 3/1/1 9/1/1 7/1/1
f 12/1/1 10/1/1 20/1/1 13/1/1
f 13/4/1 20/4/1 17/4/1 15/4/1
f 21/1/2 22/1/2 23/1/2 24/1/2
f 25/2/2 26/2/2 27/2/2 28/2/2
f 29/1/2 30/1/2 31/1/2 25/1/2
f 32/2/2 33/2/2 34/2/2 29/2/2
f 35/3/2 36/3/2 33/3/2 32/3/2
f 37/4/2 38/4/2 39/4/2 35/4/2
f 26/1/2 31/1/2 22/1/2 27/1/2
f 33/1/2 40/1/2 30/1/2 34/1/2
f 36/4/2 39/4/2 40/4/2 33/4/2
f 40/1/3 20/1/3 2/1/3 23/1/3
f 38/4/3 18/4/3 20/4/3 40/4/3
f 24/1/4 1/1/4 4/1/4 21/1/4
f 28/2/4 5/2/4 8/2/4 25/2/4
f 25/1/4 8/1/4 11/1/4 29/1/4
f 29/2/4 11/2/4 14/2/4 32/2/4
f 32/3/4 14/3/4 16/3/4 35/3/4
f 35/4/4 16/4/4 19/4/4 37/4/4
f 21/1/5 4/1/5 5/1/5 28/1/5
f 37/4/5 19/4/5 18/4/5 38/4/5
f 23/1/6 2/1/6 1/1/6 24/1/6
