# generated by tools/rig_people.py — do not edit
mtllib people.mtl
o body
usemtl palette
v -1 21 -4
v -1 21 -2
v -1 22 -2
v -1 22 -4
v -1 22 -3
v -1 23 -3
v -1 23 -4
v -1 24 -3
v -1 24 -4
v -1 24 -2
v -1 25 -2
v -1 25 -3
v -1 14 0
v -1 14 2
v -1 15 2
v -1 15 0
v -3 22 -3
v -3 22 -2
v -3 24 -2
v -3 24 -3
v -3 15 -2
v -3 15 0
v -3 17 0
v -3 17 -2
v -3 17 -1
v -3 18 -1
v -3 18 -2
v -3 19 -1
v -3 19 -2
v -3 20 -1
v -3 20 -2
v -3 24 -1
v -3 25 -1
v -3 25 -2
v -3 7 -1
v -3 7 3
v -3 8 3
v -3 8 -1
v -3 9 3
v -3 9 -1
v -3 14 3
v -3 14 -1
v -3 15 3
v -3 16 3
v -3 16 0
v -3 24 3
v -3 24 4
v -3 25 4
v -3 25 3
v -4 20 -2
v -4 20 -1
v -4 23 -1
v -4 23 -2
v -4 23 0
v -4 24 0
v -4 24 -2
v -4 17 -1
v -4 17 0
v -4 22 0
v -4 22 -1
v -4 22 4
v -4 23 4
v -4 24 -1
v -4 24 1
v -4 25 1
v -4 25 -1
v -4 16 0
v -4 16 1
v -4 19 1
v -4 19 0
v -4 19 2
v -4 21 2
v -4 21 0
v -4 21 1
v -4 22 1
v -4 24 4
v -4 16 4
v -4 18 4
v -4 18 1
v -4 18 2
v -4 21 4
v -4 24 3
v -4 25 3
v 4 22 -2
v 4 22 -1
v 4 19 -1
v 4 19 -2
v 4 23 -2
v 4 23 -1
v 4 24 -2
v 4 24 4
v 4 23 4
v 4 22 0
v 4 17 0
v 4 17 -1
v 4 22 4
v 4 19 0
v 4 19 1
v 4 16 1
v 4 16 0
v 4 20 0
v 4 20 4
v 4 19 4
v 4 21 0
v 4 21 2
v 4 20 2
v 4 22 1
v 4 21 1
v 4 17 1
v 4 17 4
v 4 16 4
v 4 19 3
v 4 17 3
v 4 22 2
v 4 21 3
v 4 20 3
v 4 21 4
v 4 18 3
v 4 18 4
v 3 22 -4
v 3 22 -2
v 3 21 -2
v 3 21 -4
v 3 24 -4
v 3 24 -3
v 3 22 -3
v 3 25 -3
v 3 25 -2
v 3 17 -2
v 3 17 0
v 3 15 0
v 3 15 -2
v 3 18 -2
v 3 18 -1
v 3 17 -1
v 3 19 -2
v 3 19 -1
v 3 25 1
v 3 24 1
v 3 24 -2
v 3 8 -1
v 3 8 3
v 3 7 3
v 3 7 -1
v 3 9 -1
v 3 9 3
v 3 14 -1
v 3 14 3
v 3 16 0
v 3 16 3
v 3 15 3
v 3 25 4
v 3 24 4
v 1 15 0
v 1 15 2
v 1 14 2
v 1 14 0
v -4 17 4
v 2 18 4
v 2 17 4
v 3 20 4
v 3 18 4
v 1 24 4
v 1 20 4
v 2 20 4
v -0 25 4
v -0 24 4
v 2 19 4
v -0 19 4
v -0 17 4
v 1 19 4
v 1 21 4
v -3 21 4
v -3 19 4
v 1 22 4
v -1 22 4
v -1 21 4
v -1 24 4
v -0 18 4
v -3 18 4
v -3 22 4
v -1 23 4
v -2 23 4
v -2 22 4
v 2 21 -4
v 2 22 -4
v 2 24 -4
v -0 22 -4
v -0 23 -4
v 2 23 -4
v 1 23 -4
v 1 24 -4
v -2 22 -3
v -2 23 -3
v -3 23 -3
v 3 23 -2
v 1 15 -2
v 1 17 -2
v 1 18 -2
v 2 18 -2
v 2 19 -2
v 3 20 -2
v -3 21 -2
v 1 19 -2
v -1 15 -2
v -1 16 -2
v 1 16 -2
v -3 16 -2
v -1 17 -2
v -1 19 -2
v -1 18 -2
v -2 18 -2
v -2 19 -2
v -3 23 -2
v 2 9 -1
v 2 14 -1
v -2 9 -1
v -2 12 -1
v 2 12 -1
v 1 12 -1
v 1 13 -1
v 2 13 -1
v -2 13 -1
v -2 14 -1
v -1 12 -1
v -1 13 -1
v 2 14 3
v -2 14 0
v 2 14 0
v 2 14 2
v -3 14 2
v -2 14 2
v 1 24 -3
v -1 25 0
v 3 25 0
v 1 25 0
v 1 25 1
v -1 25 1
v -1 25 3
v 3 25 3
v -0 25 3
v -3 25 1
v 3 7 0
v -3 7 0
v 2 7 3
v 2 7 0
v 2 7 2
v 1 7 2
v 1 7 0
v -3 7 2
v -1 7 2
v -1 7 0
v -2 7 2
v -2 7 0
v 1 15 3
v 1 15 -1
v -1 15 -1
v -3 15 -1
v -3 15 2
v 3 16 1
v 3 16 4
v -4 16 3
v -3 16 1
v 2 21 -2
v 2 21 -3
v -1 21 -3
v -0 21 -2
v -0 21 -3
v -2 22 -2
vt 0.6582031 0.5
vt 0.6503906 0.5
vt 0.7832031 0.5
vt 0.9746094 0.5
vt 0.5292969 0.5
vt 0.9902344 0.5
vt 0.7753906 0.5
vt 0.6464844 0.5
vn -1 0 0
vn 1 0 0
vn 0 0 1
vn 0 0 -1
vn 0 1 0
vn 0 -1 0
f 1/1/1 2/1/1 3/1/1 4/1/1
f 4/1/1 5/1/1 6/1/1 7/1/1
f 7/2/1 6/2/1 8/2/1 9/2/1
f 8/2/1 10/2/1 11/2/1 12/2/1
f 13/3/1 14/3/1 15/3/1 16/3/1
f 17/2/1 18/2/1 19/2/1 20/2/1
f 21/2/1 22/2/1 23/2/1 24/2/1
f 24/3/1 25/3/1 26/3/1 27/3/1
f 27/4/1 26/4/1 28/4/1 29/4/1
f 29/5/1 28/5/1 30/5/1 31/5/1
f 19/2/1 32/2/1 33/2/1 34/2/1
f 35/5/1 36/5/1 37/5/1 38/5/1
f 38/6/1 37/6/1 39/6/1 40/6/1
f 40/5/1 39/5/1 41/5/1 42/5/1
f 22/7/1 43/7/1 44/7/1 45/7/1
f 46/2/1 47/2/1 48/2/1 49/2/1
f 50/2/1 51/2/1 52/2/1 53/2/1
f 53/8/1 54/8/1 55/8/1 56/8/1
f 57/1/1 58/1/1 59/1/1 60/1/1
f 60/2/1 61/2/1 62/2/1 52/2/1
f 63/8/1 64/8/1 65/8/1 66/8/1
f 67/3/1 68/3/1 69/3/1 70/3/1
f 70/1/1 71/1/1 72/1/1 73/1/1
f 73/1/1 74/1/1 75/1/1 59/1/1
f 54/2/1 62/2/1 76/2/1 55/2/1
f 68/2/1 77/2/1 78/2/1 79/2/1
f 79/1/1 80/1/1 71/1/1 69/1/1
f 74/2/1 81/2/1 61/2/1 75/2/1
f 64/2/1 82/2/1 83/2/1 65/2/1
f 80/2/1 78/2/1 81/2/1 72/2/1
f 84/2/2 85/2/2 86/2/2 87/2/2
f 88/8/2 89/8/2 85/8/2 84/8/2
f 90/2/2 91/2/2 92/2/2 88/2/2
f 85/1/2 93/1/2 94/1/2 95/1/2
f 89/2/2 92/2/2 96/2/2 85/2/2
f 97/3/2 98/3/2 99/3/2 100/3/2
f 101/1/2 102/1/2 103/1/2 97/1/2
f 104/1/2 105/1/2 106/1/2 101/1/2
f 93/1/2 107/1/2 108/1/2 104/1/2
f 109/2/2 110/2/2 111/2/2 99/2/2
f 98/1/2 112/1/2 113/1/2 109/1/2
f 107/8/2 114/8/2 105/8/2 108/8/2
f 105/8/2 115/8/2 116/8/2 106/8/2
f 114/2/2 96/2/2 117/2/2 105/2/2
f 118/2/2 119/2/2 110/2/2 113/2/2
f 112/1/2 103/1/2 119/1/2 118/1/2
f 115/2/2 117/2/2 102/2/2 116/2/2
f 120/2/2 121/2/2 122/2/2 123/2/2
f 124/8/2 125/8/2 126/8/2 120/8/2
f 127/2/2 128/2/2 121/2/2 126/2/2
f 129/2/2 130/2/2 131/2/2 132/2/2
f 133/3/2 134/3/2 135/3/2 129/3/2
f 136/4/2 137/4/2 134/4/2 133/4/2
f 128/2/2 138/2/2 139/2/2 140/2/2
f 141/5/2 142/5/2 143/5/2 144/5/2
f 145/6/2 146/6/2 142/6/2 141/6/2
f 147/5/2 148/5/2 146/5/2 145/5/2
f 149/7/2 150/7/2 151/7/2 131/7/2
f 138/1/2 152/1/2 153/1/2 139/1/2
f 154/3/2 155/3/2 156/3/2 157/3/2
f 155/3/3 15/3/3 14/3/3 156/3/3
f 142/5/3 37/5/3 36/5/3 143/5/3
f 146/6/3 39/6/3 37/6/3 142/6/3
f 148/5/3 41/5/3 39/5/3 146/5/3
f 150/7/3 44/7/3 43/7/3 151/7/3
f 49/2/3 83/2/3 82/2/3 46/2/3
f 110/2/3 158/2/3 77/2/3 111/2/3
f 119/2/3 159/2/3 160/2/3 110/2/3
f 102/1/3 161/1/3 162/1/3 119/1/3
f 91/2/3 163/2/3 164/2/3 102/2/3
f 161/2/3 165/2/3 159/2/3 162/2/3
f 152/1/3 166/1/3 167/1/3 153/1/3
f 168/8/3 169/8/3 170/8/3 160/8/3
f 165/2/3 164/2/3 171/2/3 168/2/3
f 172/1/3 173/1/3 174/1/3 171/1/3
f 175/1/3 176/1/3 177/1/3 172/1/3
f 163/2/3 178/2/3 176/2/3 175/2/3
f 179/2/3 78/2/3 158/2/3 170/2/3
f 169/1/3 174/1/3 180/1/3 179/1/3
f 166/2/3 48/2/3 47/2/3 167/2/3
f 176/8/3 181/8/3 173/8/3 177/8/3
f 182/8/3 183/8/3 184/8/3 176/8/3
f 178/2/3 76/2/3 62/2/3 182/2/3
f 183/2/3 62/2/3 61/2/3 184/2/3
f 181/2/3 61/2/3 78/2/3 180/2/3
f 123/2/4 185/2/4 186/2/4 120/2/4
f 120/8/4 186/8/4 187/8/4 124/8/4
f 185/1/4 1/1/4 4/1/4 186/1/4
f 186/2/4 188/2/4 189/2/4 190/2/4
f 190/8/4 191/8/4 192/8/4 187/8/4
f 191/2/4 7/2/4 9/2/4 192/2/4
f 188/1/4 4/1/4 7/1/4 189/1/4
f 125/2/4 8/2/4 12/2/4 127/2/4
f 5/1/4 193/1/4 194/1/4 6/1/4
f 6/2/4 195/2/4 20/2/4 8/2/4
f 193/2/4 17/2/4 195/2/4 194/2/4
f 87/2/4 136/2/4 121/2/4 84/2/4
f 84/8/4 121/8/4 196/8/4 88/8/4
f 88/2/4 196/2/4 140/2/4 90/2/4
f 132/2/4 197/2/4 198/2/4 129/2/4
f 129/3/4 198/3/4 199/3/4 133/3/4
f 133/4/4 200/4/4 201/4/4 136/4/4
f 136/5/4 29/5/4 31/5/4 202/5/4
f 202/7/4 31/7/4 203/7/4 122/7/4
f 200/5/4 199/5/4 204/5/4 201/5/4
f 197/1/4 205/1/4 206/1/4 207/1/4
f 207/2/4 208/2/4 24/2/4 198/2/4
f 198/7/4 209/7/4 210/7/4 204/7/4
f 205/2/4 21/2/4 208/2/4 206/2/4
f 209/3/4 24/3/4 27/3/4 211/3/4
f 211/5/4 212/5/4 213/5/4 210/5/4
f 2/7/4 203/7/4 18/7/4 3/7/4
f 10/2/4 19/2/4 34/2/4 11/2/4
f 212/4/4 27/4/4 29/4/4 213/4/4
f 31/2/4 50/2/4 53/2/4 214/2/4
f 214/8/4 53/8/4 56/8/4 19/8/4
f 95/1/4 135/1/4 137/1/4 86/1/4
f 144/5/4 35/5/4 38/5/4 141/5/4
f 141/6/4 38/6/4 40/6/4 145/6/4
f 145/5/4 215/5/4 216/5/4 147/5/4
f 215/6/4 217/6/4 218/6/4 219/6/4
f 219/6/4 220/6/4 221/6/4 222/6/4
f 222/7/4 223/7/4 224/7/4 216/7/4
f 220/7/4 225/7/4 226/7/4 221/7/4
f 225/6/4 218/6/4 223/6/4 226/6/4
f 217/5/4 40/5/4 42/5/4 224/5/4
f 25/1/4 57/1/4 51/1/4 30/1/4
f 32/8/4 63/8/4 66/8/4 33/8/4
f 100/3/4 149/3/4 130/3/4 94/3/4
f 157/3/4 13/3/4 16/3/4 154/3/4
f 45/3/4 67/3/4 58/3/4 23/3/4
f 147/5/5 216/5/5 227/5/5 148/5/5
f 216/7/5 224/7/5 228/7/5 229/7/5
f 229/7/5 157/7/5 156/7/5 230/7/5
f 230/5/5 231/5/5 41/5/5 227/5/5
f 13/7/5 228/7/5 232/7/5 14/7/5
f 224/5/5 42/5/5 231/5/5 232/5/5
f 90/2/5 140/2/5 153/2/5 91/2/5
f 124/8/5 192/8/5 233/8/5 125/8/5
f 192/2/5 9/2/5 8/2/5 233/2/5
f 8/2/5 20/2/5 19/2/5 10/2/5
f 19/8/5 56/8/5 63/8/5 32/8/5
f 46/2/5 82/2/5 76/2/5 47/2/5
f 127/2/5 12/2/5 234/2/5 235/2/5
f 235/2/5 236/2/5 237/2/5 138/2/5
f 138/1/5 238/1/5 239/1/5 240/1/5
f 240/1/5 241/1/5 166/1/5 152/1/5
f 236/1/5 234/1/5 238/1/5 237/1/5
f 241/2/5 49/2/5 48/2/5 166/2/5
f 11/2/5 34/2/5 49/2/5 239/2/5
f 33/8/5 66/8/5 65/8/5 242/8/5
f 242/2/5 65/2/5 83/2/5 49/2/5
f 243/5/6 244/5/6 35/5/6 144/5/6
f 143/5/6 245/5/6 246/5/6 243/5/6
f 247/7/6 248/7/6 249/7/6 246/7/6
f 245/5/6 36/5/6 250/5/6 247/5/6
f 248/5/6 251/5/6 252/5/6 249/5/6
f 251/7/6 253/7/6 254/7/6 252/7/6
f 253/5/6 250/5/6 244/5/6 254/5/6
f 131/2/6 154/2/6 197/2/6 132/2/6
f 151/7/6 255/7/6 154/7/6 131/7/6
f 256/1/6 257/1/6 205/1/6 197/1/6
f 154/2/6 22/2/6 258/2/6 256/2/6
f 255/7/6 43/7/6 259/7/6 155/7/6
f 257/2/6 258/2/6 21/2/6 205/2/6
f 15/7/6 259/7/6 22/7/6 16/7/6
f 99/3/6 260/3/6 149/3/6 100/3/6
f 111/2/6 261/2/6 260/2/6 99/2/6
f 261/2/6 77/2/6 262/2/6 150/2/6
f 263/3/6 68/3/6 67/3/6 45/3/6
f 44/2/6 262/2/6 68/2/6 263/2/6
f 94/1/6 130/1/6 135/1/6 95/1/6
f 23/1/6 58/1/6 57/1/6 25/1/6
f 86/2/6 137/2/6 136/2/6 87/2/6
f 30/2/6 51/2/6 50/2/6 31/2/6
f 122/2/6 264/2/6 185/2/6 123/2/6
f 265/1/6 266/1/6 1/1/6 185/1/6
f 264/2/6 267/2/6 268/2/6 265/2/6
f 267/1/6 2/1/6 266/1/6 268/1/6
f 3/1/6 269/1/6 193/1/6 5/1/6
f 269/2/6 18/2/6 17/2/6 193/2/6
