# generated by tools/rig_people.py — do not edit
mtllib people.mtl
o arm-l
usemtl palette
v -4 11 -1
v -4 11 0
v -4 14 0
v -4 14 -1
v -4 11 2
v -4 11 3
v -4 14 3
v -4 14 2
v -6 6 0
v -6 6 2
v -6 8 2
v -6 8 0
v -6 9 2
v -6 9 0
v -6 10 2
v -6 10 0
v -6 11 2
v -6 11 0
v -6 14 2
v -6 14 0
v -3 14 -1
v -3 14 3
v -3 11 3
v -3 11 -1
v -4 7 0
v -4 7 2
v -4 6 2
v -4 6 0
v -4 8 0
v -4 8 2
v -5 7 2
v -5 6 2
v -6 7 2
v -4 9 2
v -5 14 2
v -5 9 2
v -5 10 2
v -5 11 2
v -5 6 0
v -5 7 0
v -6 7 0
v -4 9 0
v -5 9 0
v -5 14 0
v -5 10 0
v -5 11 0
vt 0.5292969 0.5
vt 0.7753906 0.5
vt 0.6503906 0.5
vt 0.6582031 0.5
vn -1 0 0
vn 1 0 0
vn 0 0 1
vn 0 0 -1
vn 0 1 0
vn 0 -1 0
f 1/1/1 2/1/1 3/1/1 4/1/1
f 5/1/1 6/1/1 7/1/1 8/1/1
f 9/1/1 10/1/1 11/1/1 12/1/1
f 12/2/1 11/2/1 13/2/1 14/2/1
f 14/3/1 13/3/1 15/3/1 16/3/1
f 16/4/1 15/4/1 17/4/1 18/4/1
f 18/2/1 17/2/1 19/2/1 20/2/1
f 21/1/2 22/1/2 23/1/2 24/1/2
f 25/2/2 26/2/2 27/2/2 28/2/2
f 29/1/2 30/1/2 26/1/2 25/1/2
f 2/2/2 5/2/2 30/2/2 29/2/2
f 26/2/3 31/2/3 32/2/3 27/2/3
f 30/1/3 11/1/3 33/1/3 26/1/3
f 34/2/3 13/2/3 11/2/3 30/2/3
f 8/2/3 35/2/3 36/2/3 34/2/3
f 31/1/3 33/1/3 10/1/3 32/1/3
f 37/3/3 15/3/3 13/3/3 36/3/3
f 38/4/3 17/4/3 15/4/3 37/4/3
f 35/2/3 19/2/3 17/2/3 38/2/3
f 22/1/3 7/1/3 6/1/3 23/1/3
f 24/1/4 1/1/4 4/1/4 21/1/4
f 28/2/4 39/2/4 40/2/4 25/2/4
f 25/1/4 41/1/4 12/1/4 29/1/4
f 29/2/4 12/2/4 14/2/4 42/2/4
f 42/2/4 43/2/4 44/2/4 3/2/4
f 39/1/4 9/1/4 41/1/4 40/1/4
f 43/3/4 14/3/4 16/3/4 45/3/4
f 45/4/4 16/4/4 18/4/4 46/4/4
f 46/2/4 18/2/4 20/2/4 44/2/4
f 21/1/5 4/1/5 7/1/5 22/1/5
f 3/2/5 20/2/5 19/2/5 8/2/5
f 27/2/6 32/2/6 39/2/6 28/2/6
f 32/1/6 10/1/6 9/1/6 39/1/6
f 23/1/6 6/1/6 1/1/6 24/1/6
