# generated by tools/rig_people.py — do not edit
mtllib people.mtl
o body
usemtl palette
v -1 21 -4
v -1 21 -2
v -1 22 -2
v -1 22 -4
v -1 22 -3
v -1 24 -3
v -1 24 -4
v -1 24 -2
v -1 25 -2
v -1 25 -3
v -1 14 0
v -1 14 2
v -1 15 2
v -1 15 0
v -3 22 -3
v -3 22 -2
v -3 24 -2
v -3 24 -3
v -3 15 -2
v -3 15 3
v -3 16 3
v -3 16 -2
v -3 16 0
v -3 17 0
v -3 17 -2
v -3 17 -1
v -3 19 -1
v -3 19 -2
v -3 20 -1
v -3 20 -2
v -3 21 -1
v -3 21 -2
v -3 24 -1
v -3 25 -1
v -3 25 -2
v -3 7 -1
v -3 7 3
v -3 9 3
v -3 9 -1
v -3 14 3
v -3 14 -1
v -3 24 3
v -3 24 4
v -3 25 4
v -3 25 3
v -4 21 -2
v -4 21 4
v -4 24 4
v -4 24 -2
v -4 17 -1
v -4 17 4
v -4 21 -1
v -4 24 -1
v -4 24 3
v -4 25 3
v -4 25 -1
v -4 16 0
v -4 16 4
v -4 17 0
v 4 24 -2
v 4 24 4
v 4 21 4
v 4 21 -2
v 4 21 -1
v 4 17 4
v 4 17 -1
v 4 17 0
v 4 16 4
v 4 16 0
v 3 24 -4
v 3 24 -2
v 3 21 -2
v 3 21 -4
v 3 25 -3
v 3 25 4
v 3 24 4
v 3 24 -3
v 3 16 -2
v 3 16 3
v 3 15 3
v 3 15 -2
v 3 17 -2
v 3 17 0
v 3 16 0
v 3 19 -2
v 3 19 -1
v 3 17 -1
v 3 20 -2
v 3 20 -1
v 3 21 -1
v 3 9 -1
v 3 9 3
v 3 7 3
v 3 7 -1
v 3 14 -1
v 3 14 3
v 1 15 0
v 1 15 2
v 1 14 2
v 1 14 0
v 1 16 -2
v 1 18 -2
v 3 18 -2
v 2 18 -2
v 2 19 -2
v 1 19 -2
v 1 20 -2
v -1 16 -2
v -1 17 -2
v 1 17 -2
v -3 18 -2
v -1 18 -2
v -1 20 -2
v -2 18 -2
v -2 19 -2
v -1 19 -2
v -3 11 -1
v 3 11 -1
v 2 11 -1
v 2 14 -1
v 1 11 -1
v 1 12 -1
v 2 12 -1
v -3 12 -1
v -1 11 -1
v -1 12 -1
v -2 11 -1
v -2 12 -1
v -3 14 0
v 3 14 0
v 1 14 3
v -3 14 2
v -1 25 4
v 3 15 0
v -3 15 0
v 1 15 3
v -3 15 2
v 3 16 4
v -4 16 3
vt 0.4824219 0.5
vt 0.9589844 0.5
vt 0.4863281 0.5
vt 0.5253906 0.5
vt 0.9628906 0.5
vn -1 0 0
vn 1 0 0
vn 0 0 1
vn 0 0 -1
vn 0 1 0
vn 0 -1 0
f 1/1/1 2/1/1 3/1/1 4/1/1
f 4/1/1 5/1/1 6/1/1 7/1/1
f 6/1/1 8/1/1 9/1/1 10/1/1
f 11/2/1 12/2/1 13/2/1 14/2/1
f 15/1/1 16/1/1 17/1/1 18/1/1
f 19/2/1 20/2/1 21/2/1 22/2/1
f 22/2/1 23/2/1 24/2/1 25/2/1
f 25/2/1 26/2/1 27/2/1 28/2/1
f 28/3/1 27/3/1 29/3/1 30/3/1
f 30/2/1 29/2/1 31/2/1 32/2/1
f 17/1/1 33/1/1 34/1/1 35/1/1
f 36/4/1 37/4/1 38/4/1 39/4/1
f 39/2/1 38/2/1 40/2/1 41/2/1
f 42/1/1 43/1/1 44/1/1 45/1/1
f 46/1/1 47/1/1 48/1/1 49/1/1
f 50/1/1 51/1/1 47/1/1 52/1/1
f 53/1/1 54/1/1 55/1/1 56/1/1
f 57/1/1 58/1/1 51/1/1 59/1/1
f 60/1/2 61/1/2 62/1/2 63/1/2
f 64/1/2 62/1/2 65/1/2 66/1/2
f 67/1/2 65/1/2 68/1/2 69/1/2
f 70/1/2 71/1/2 72/1/2 73/1/2
f 74/1/2 75/1/2 76/1/2 77/1/2
f 78/2/2 79/2/2 80/2/2 81/2/2
f 82/2/2 83/2/2 84/2/2 78/2/2
f 85/2/2 86/2/2 87/2/2 82/2/2
f 88/3/2 89/3/2 86/3/2 85/3/2
f 72/2/2 90/2/2 89/2/2 88/2/2
f 91/4/2 92/4/2 93/4/2 94/4/2
f 95/2/2 96/2/2 92/2/2 91/2/2
f 97/2/2 98/2/2 99/2/2 100/2/2
f 98/2/3 13/2/3 12/2/3 99/2/3
f 92/4/3 38/4/3 37/4/3 93/4/3
f 96/2/3 40/2/3 38/2/3 92/2/3
f 79/2/3 21/2/3 20/2/3 80/2/3
f 45/1/3 55/1/3 54/1/3 42/1/3
f 61/1/3 48/1/3 58/1/3 68/1/3
f 75/1/3 44/1/3 43/1/3 76/1/3
f 73/1/4 1/1/4 7/1/4 70/1/4
f 77/1/4 6/1/4 10/1/4 74/1/4
f 5/1/4 15/1/4 18/1/4 6/1/4
f 63/1/4 72/1/4 71/1/4 60/1/4
f 81/2/4 19/2/4 22/2/4 78/2/4
f 78/2/4 101/2/4 102/2/4 103/2/4
f 103/2/4 104/2/4 105/2/4 85/2/4
f 85/3/4 106/3/4 107/3/4 88/3/4
f 88/2/4 30/2/4 32/2/4 72/2/4
f 104/4/4 102/4/4 106/4/4 105/4/4
f 101/1/4 108/1/4 109/1/4 110/1/4
f 110/2/4 25/2/4 111/2/4 102/2/4
f 102/2/4 112/2/4 113/2/4 107/2/4
f 108/2/4 22/2/4 25/2/4 109/2/4
f 112/4/4 114/4/4 115/4/4 116/4/4
f 116/3/4 28/3/4 30/3/4 113/3/4
f 2/2/4 32/2/4 16/2/4 3/2/4
f 8/1/4 17/1/4 35/1/4 9/1/4
f 114/2/4 111/2/4 28/2/4 115/2/4
f 32/1/4 46/1/4 49/1/4 17/1/4
f 66/1/4 87/1/4 90/1/4 64/1/4
f 94/4/4 36/4/4 39/4/4 91/4/4
f 91/2/4 39/2/4 117/2/4 118/2/4
f 118/2/4 119/2/4 120/2/4 95/2/4
f 119/5/4 121/5/4 122/5/4 123/5/4
f 123/2/4 124/2/4 41/2/4 120/2/4
f 121/2/4 125/2/4 126/2/4 122/2/4
f 125/5/4 127/5/4 128/5/4 126/5/4
f 127/2/4 117/2/4 124/2/4 128/2/4
f 26/1/4 50/1/4 52/1/4 31/1/4
f 33/1/4 53/1/4 56/1/4 34/1/4
f 69/1/4 84/1/4 83/1/4 67/1/4
f 100/2/4 11/2/4 14/2/4 97/2/4
f 23/1/4 57/1/4 59/1/4 24/1/4
f 95/2/5 41/2/5 129/2/5 130/2/5
f 130/2/5 100/2/5 131/2/5 96/2/5
f 99/2/5 132/2/5 40/2/5 131/2/5
f 11/2/5 129/2/5 132/2/5 12/2/5
f 60/1/5 71/1/5 76/1/5 61/1/5
f 70/1/5 7/1/5 6/1/5 77/1/5
f 6/1/5 18/1/5 17/1/5 8/1/5
f 17/1/5 49/1/5 53/1/5 33/1/5
f 42/1/5 54/1/5 48/1/5 43/1/5
f 74/1/5 10/1/5 133/1/5 75/1/5
f 9/1/5 35/1/5 44/1/5 133/1/5
f 34/1/5 56/1/5 55/1/5 45/1/5
f 93/4/6 37/4/6 36/4/6 94/4/6
f 134/2/6 135/2/6 19/2/6 81/2/6
f 80/2/6 136/2/6 97/2/6 134/2/6
f 136/2/6 20/2/6 137/2/6 98/2/6
f 13/2/6 137/2/6 135/2/6 14/2/6
f 68/1/6 138/1/6 84/1/6 69/1/6
f 138/1/6 58/1/6 139/1/6 79/1/6
f 21/1/6 139/1/6 57/1/6 23/1/6
f 67/1/6 83/1/6 87/1/6 66/1/6
f 24/1/6 59/1/6 50/1/6 26/1/6
f 64/1/6 90/1/6 72/1/6 63/1/6
f 72/1/6 2/1/6 1/1/6 73/1/6
f 31/1/6 52/1/6 46/1/6 32/1/6
f 3/1/6 16/1/6 15/1/6 5/1/6
