# generated by tools/rig_people.py — do not edit
mtllib people.mtl
o arm-l
usemtl palette
v -4 11 -1
v -4 11 0
v -4 14 0
v -4 14 -1
v -4 11 2
v -4 11 3
v -4 14 3
v -4 14 2
v -6 6 0
v -6 6 2
v -6 14 2
v -6 14 0
v -3 14 -1
v -3 14 3
v -3 11 3
v -3 11 -1
v -4 6 2
v -4 6 0
vt 0.9589844 0.5
vn -1 0 0
vn 1 0 0
vn 0 0 1
vn 0 0 -1
vn 0 1 0
vn 0 -1 0
f 1/1/1 2/1/1 3/1/1 4/1/1
f 5/1/1 6/1/1 7/1/1 8/1/1
f 9/1/1 10/1/1 11/1/1 12/1/1
f 13/1/2 14/1/2 15/1/2 16/1/2
f 2/1/2 5/1/2 17/1/2 18/1/2
f 8/1/3 11/1/3 10/1/3 17/1/3
f 14/1/3 7/1/3 6/1/3 15/1/3
f 16/1/4 1/1/4 4/1/4 13/1/4
f 18/1/4 9/1/4 12/1/4 3/1/4
f 13/1/5 4/1/5 7/1/5 14/1/5
f 3/1/5 12/1/5 11/1/5 8/1/5
f 17/1/6 10/1/6 9/1/6 18/1/6
f 15/1/6 6/1/6 1/1/6 16/1/6
