# generated by tools/rig_people.py — do not edit
mtllib people.mtl
o arm-r
usemtl palette
v 3 6 -0.5
v 3 6 1.5
v 3 11 1.5
v 3 11 -0.5
v 3 11 0.5
v 3 13 0.5
v 3 13 -0.5
v 3 13 1.5
v 3 14 1.5
v 3 14 -0.5
v 5 11 -0.5
v 5 11 1.5
v 5 6 1.5
v 5 6 -0.5
v 5 13 -0.5
v 5 13 1.5
v 5 14 -0.5
v 5 14 1.5
v 4 13 1.5
v 4 11 1.5
vt 0.9628906 0.5
vt 0.8730469 0.5
vn -1 0 0
vn 1 0 0
vn 0 0 1
vn 0 0 -1
vn 0 1 0
vn 0 -1 0
f 1/1/1 2/1/1 3/1/1 4/1/1
f 4/2/1 5/2/1 6/2/1 7/2/1
f 7/1/1 8/1/1 9/1/1 10/1/1
f 5/1/1 3/1/1 8/1/1 6/1/1
f 11/1/2 12/1/2 13/1/2 14/1/2
f 15/2/2 16/2/2 12/2/2 11/2/2
f 17/1/2 18/1/2 16/1/2 15/1/2
f 12/1/3 3/1/3 2/1/3 13/1/3
f 16/2/3 19/2/3 20/2/3 12/2/3
f 18/1/3 9/1/3 8/1/3 16/1/3
f 19/1/3 8/1/3 3/1/3 20/1/3
f 14/1/4 1/1/4 4/1/4 11/1/4
f 11/2/4 4/2/4 7/2/4 15/2/4
f 15/1/4 7/1/4 10/1/4 17/1/4
f 17/1/5 10/1/5 9/1/5 18/1/5
f 13/1/6 2/1/6 1/1/6 14/1/6
