# generated by tools/rig_people.py — do not edit
mtllib people.mtl
o arm-r
usemtl palette
v 3 6 -0.5
v 3 6 1.5
v 3 12 1.5
v 3 12 -0.5
v 3 12 0.5
v 3 13 0.5
v 3 13 -0.5
v 3 13 1.5
v 3 14 1.5
v 3 14 -0.5
v 5 12 -0.5
v 5 12 1.5
v 5 6 1.5
v 5 6 -0.5
v 5 13 -0.5
v 5 13 0.5
v 5 12 0.5
v 5 14 -0.5
v 5 14 0.5
v 5 13 1.5
v 5 14 1.5
v 4 13 1.5
v 4 12 1.5
v 4 12 -0.5
v 4 13 -0.5
v 4 14 -0.5
v 4 14 0.5
v 3 14 0.5
vt 0.0410156 0.5
vt 0.0761719 0.5
vt 0.0722656 0.5
vt 0.0800781 0.5
vn -1 0 0
vn 1 0 0
vn 0 0 1
vn 0 0 -1
vn 0 1 0
vn 0 -1 0
f 1/1/1 2/1/1 3/1/1 4/1/1
f 4/2/1 5/2/1 6/2/1 7/2/1
f 7/3/1 8/3/1 9/3/1 10/3/1
f 5/4/1 3/4/1 8/4/1 6/4/1
f 11/1/2 12/1/2 13/1/2 14/1/2
f 15/3/2 16/3/2 17/3/2 11/3/2
f 18/2/2 19/2/2 16/2/2 15/2/2
f 16/2/2 20/2/2 12/2/2 17/2/2
f 19/3/2 21/3/2 20/3/2 16/3/2
f 12/1/3 3/1/3 2/1/3 13/1/3
f 20/2/3 22/2/3 23/2/3 12/2/3
f 21/3/3 9/3/3 8/3/3 20/3/3
f 22/4/3 8/4/3 3/4/3 23/4/3
f 14/1/4 1/1/4 4/1/4 11/1/4
f 11/3/4 24/3/4 25/3/4 15/3/4
f 15/2/4 25/2/4 26/2/4 18/2/4
f 24/2/4 4/2/4 7/2/4 25/2/4
f 25/3/4 7/3/4 10/3/4 26/3/4
f 18/2/5 26/2/5 27/2/5 19/2/5
f 19/3/5 28/3/5 9/3/5 21/3/5
f 26/3/5 10/3/5 28/3/5 27/3/5
f 13/1/6 2/1/6 1/1/6 14/1/6
