# generated by tools/rig_people.py — do not edit
mtllib people.mtl
o leg-l
usemtl palette
v -2 0 -2.5
v -2 0 0.5
v -2 1 0.5
v -2 1 -2.5
v -2 4 -1.5
v -2 4 0.5
v -2 7 0.5
v -2 7 -1.5
v -2 1 -0.5
v -2 4 -0.5
v -1 1 -2.5
v -1 1 0.5
v -1 0 0.5
v -1 0 -2.5
v -1 7 -1.5
v -1 7 0.5
v -1 4 0.5
v -1 4 -1.5
v -1 4 -0.5
v -1 1 -0.5
vt 0.3574219 0.5
vn -1 0 0
vn 1 0 0
vn 0 0 1
vn 0 0 -1
vn 0 1 0
vn 0 -1 0
f 1/1/1 2/1/1 3/1/1 4/1/1
f 5/1/1 6/1/1 7/1/1 8/1/1
f 9/1/1 3/1/1 6/1/1 10/1/1
f 11/1/2 12/1/2 13/1/2 14/1/2
f 15/1/2 16/1/2 17/1/2 18/1/2
f 19/1/2 17/1/2 12/1/2 20/1/2
f 16/1/3 7/1/3 2/1/3 13/1/3
f 14/1/4 1/1/4 4/1/4 11/1/4
f 18/1/4 5/1/4 8/1/4 15/1/4
f 20/1/4 9/1/4 10/1/4 19/1/4
f 11/1/5 4/1/5 9/1/5 20/1/5
f 15/1/5 8/1/5 7/1/5 16/1/5
f 13/1/6 2/1/6 1/1/6 14/1/6
f 19/1/6 10/1/6 5/1/6 18/1/6
