# generated by tools/rig_people.py — do not edit
mtllib people.mtl
o body
usemtl palette
v 2 24 -5
v 2 24 -4
v 2 25 -4
v 2 25 -5
v -3 23 -5
v -3 23 -4
v -3 26 -4
v -3 26 -5
v -3 24 -4
v -3 24 4
v -3 26 4
v -3 7 -3
v -3 7 1
v -3 14 1
v -3 14 -3
v -3 23 2
v -3 23 5
v -3 24 5
v -3 24 2
v -3 18 3
v -3 18 5
v -3 19 5
v -3 19 3
v -3 21 3
v -3 21 5
v -3 23 3
v -3 19 4
v -3 21 4
v -4 17 -4
v -4 17 -3
v -4 18 -3
v -4 18 -4
v -4 19 -3
v -4 19 -4
v -4 20 -3
v -4 20 -4
v -4 21 -3
v -4 21 -4
v -4 24 -3
v -4 24 -4
v -4 17 3
v -4 18 3
v -4 18 -2
v -4 24 -2
v -4 22 -2
v -4 22 3
v -4 23 3
v -4 23 -2
v -4 23 2
v -4 24 2
v -4 18 2
v -4 19 3
v -4 19 2
v -4 21 2
v -4 21 3
v -4 22 2
v -5 14 -5
v -5 14 -3
v -5 17 -3
v -5 17 -5
v -5 15 -3
v -5 15 4
v -5 17 4
v -5 19 -1
v -5 19 1
v -5 21 1
v -5 21 -1
v -5 14 1
v -5 14 4
v -5 15 1
v -5 19 2
v -5 19 4
v -5 21 4
v -5 21 2
v -6 14 -3
v -6 14 1
v -6 15 1
v -6 15 -3
v -6 18 -2
v -6 18 2
v -6 19 2
v -6 19 -2
v -6 19 -1
v -6 22 -1
v -6 22 -2
v -6 21 -1
v -6 21 2
v -6 22 2
v -6 19 1
v -6 21 1
v 6 15 -3
v 6 15 1
v 6 14 1
v 6 14 -3
v 6 19 -2
v 6 19 2
v 6 18 2
v 6 18 -2
v 6 22 -2
v 6 22 -1
v 6 19 -1
v 6 22 2
v 6 21 2
v 6 21 -1
v 6 21 1
v 6 19 1
v 5 17 -5
v 5 17 -3
v 5 14 -3
v 5 14 -5
v 5 17 4
v 5 15 4
v 5 15 -3
v 5 21 -1
v 5 21 1
v 5 19 1
v 5 19 -1
v 5 15 1
v 5 14 4
v 5 14 1
v 5 21 2
v 5 21 4
v 5 19 4
v 5 19 2
v 4 18 -4
v 4 18 -3
v 4 17 -3
v 4 17 -4
v 4 19 -4
v 4 19 -3
v 4 20 -4
v 4 20 -3
v 4 21 -4
v 4 21 -3
v 4 24 -4
v 4 24 -3
v 4 18 3
v 4 17 3
v 4 24 -2
v 4 18 -2
v 4 23 -2
v 4 23 3
v 4 22 3
v 4 22 -2
v 4 24 2
v 4 23 2
v 4 19 2
v 4 19 3
v 4 18 2
v 4 22 2
v 4 21 3
v 4 21 2
v 3 26 -5
v 3 26 -4
v 3 23 -4
v 3 23 -5
v 3 26 4
v 3 24 4
v 3 24 -4
v 3 14 -3
v 3 14 1
v 3 7 1
v 3 7 -3
v 3 24 2
v 3 24 5
v 3 23 5
v 3 23 2
v 3 19 3
v 3 19 5
v 3 18 5
v 3 18 3
v 3 23 3
v 3 21 5
v 3 21 3
v 3 21 4
v 3 19 4
v -2 25 -5
v -2 25 -4
v -2 24 -4
v -2 24 -5
v 5 22 2
v 5 18 2
v -5 18 2
v -5 22 2
v -1 14 -5
v -1 17 -5
v -3 24 -5
v 3 24 -5
v 2 26 -5
v -3 25 -5
v -2 14 -5
v -2 15 -5
v -1 15 -5
v -5 15 -5
v -3 14 -5
v -3 15 -5
v -4 14 -5
v -4 15 -5
v 1 18 -4
v 1 19 -4
v 3 19 -4
v 3 20 -4
v 1 20 -4
v 1 21 -4
v -4 23 -4
v 4 23 -4
v 2 19 -4
v 2 20 -4
v -1 18 -4
v -1 21 -4
v -1 19 -4
v -2 19 -4
v -2 20 -4
v -1 20 -4
v -3 19 -4
v -3 20 -4
v -3 8 -3
v 3 8 -3
v 1 8 -3
v 1 14 -3
v -0 8 -3
v -0 9 -3
v 1 9 -3
v -0 10 -3
v 1 10 -3
v -0 11 -3
v 1 11 -3
v -0 12 -3
v 1 12 -3
v -0 14 -3
v 5 18 -2
v 5 22 -2
v -5 18 -2
v -5 22 -2
v -5 17 -4
v 5 17 -4
v 4 17 4
v -5 17 3
v 4 21 4
v -5 21 3
v 3 24 -3
v -3 24 -3
v -1 14 -3
v -1 14 -4
v -2 14 -4
v -5 14 -4
v -3 14 -4
v -4 14 -4
v 4 19 4
v -5 19 3
vt 0.5214844 0.5
vt 0.9394531 0.5
vt 0.9980469 0.5
vt 0.5097656 0.5
vt 0.9746094 0.5
vt 0.5292969 0.5
vt 0.5136719 0.5
vt 0.8769531 0.5
vt 0.5644531 0.5
vt 0.7480469 0.5
vt 0.9667969 0.5
vn -1 0 0
vn 1 0 0
vn 0 0 1
vn 0 0 -1
vn 0 1 0
vn 0 -1 0
f 1/1/1 2/1/1 3/1/1 4/1/1
f 5/1/1 6/1/1 7/1/1 8/1/1
f 9/1/1 10/1/1 11/1/1 7/1/1
f 12/2/1 13/2/1 14/2/1 15/2/1
f 16/1/1 17/1/1 18/1/1 19/1/1
f 20/1/1 21/1/1 22/1/1 23/1/1
f 24/1/1 25/1/1 17/1/1 26/1/1
f 27/1/1 22/1/1 25/1/1 28/1/1
f 29/3/1 30/3/1 31/3/1 32/3/1
f 32/4/1 31/4/1 33/4/1 34/4/1
f 34/5/1 33/5/1 35/5/1 36/5/1
f 36/6/1 35/6/1 37/6/1 38/6/1
f 38/3/1 37/3/1 39/3/1 40/3/1
f 30/7/1 41/7/1 42/7/1 31/7/1
f 31/7/1 43/7/1 44/7/1 39/7/1
f 45/7/1 46/7/1 47/7/1 48/7/1
f 48/7/1 49/7/1 50/7/1 44/7/1
f 51/7/1 42/7/1 52/7/1 53/7/1
f 54/7/1 55/7/1 46/7/1 56/7/1
f 57/7/1 58/7/1 59/7/1 60/7/1
f 61/7/1 62/7/1 63/7/1 59/7/1
f 64/1/1 65/1/1 66/1/1 67/1/1
f 68/7/1 69/7/1 62/7/1 70/7/1
f 71/1/1 72/1/1 73/1/1 74/1/1
f 75/1/1 76/1/1 77/1/1 78/1/1
f 79/8/1 80/8/1 81/8/1 82/8/1
f 82/8/1 83/8/1 84/8/1 85/8/1
f 86/8/1 87/8/1 88/8/1 84/8/1
f 89/8/1 81/8/1 87/8/1 90/8/1
f 91/1/2 92/1/2 93/1/2 94/1/2
f 95/8/2 96/8/2 97/8/2 98/8/2
f 99/8/2 100/8/2 101/8/2 95/8/2
f 100/8/2 102/8/2 103/8/2 104/8/2
f 105/8/2 103/8/2 96/8/2 106/8/2
f 107/7/2 108/7/2 109/7/2 110/7/2
f 108/7/2 111/7/2 112/7/2 113/7/2
f 114/1/2 115/1/2 116/1/2 117/1/2
f 118/7/2 112/7/2 119/7/2 120/7/2
f 121/1/2 122/1/2 123/1/2 124/1/2
f 125/3/2 126/3/2 127/3/2 128/3/2
f 129/4/2 130/4/2 126/4/2 125/4/2
f 131/5/2 132/5/2 130/5/2 129/5/2
f 133/6/2 134/6/2 132/6/2 131/6/2
f 135/3/2 136/3/2 134/3/2 133/3/2
f 126/7/2 137/7/2 138/7/2 127/7/2
f 136/7/2 139/7/2 140/7/2 126/7/2
f 141/7/2 142/7/2 143/7/2 144/7/2
f 139/7/2 145/7/2 146/7/2 141/7/2
f 147/7/2 148/7/2 137/7/2 149/7/2
f 150/7/2 143/7/2 151/7/2 152/7/2
f 153/1/2 154/1/2 155/1/2 156/1/2
f 154/1/2 157/1/2 158/1/2 159/1/2
f 160/2/2 161/2/2 162/2/2 163/2/2
f 164/1/2 165/1/2 166/1/2 167/1/2
f 168/1/2 169/1/2 170/1/2 171/1/2
f 172/1/2 166/1/2 173/1/2 174/1/2
f 175/1/2 173/1/2 169/1/2 176/1/2
f 177/1/2 178/1/2 179/1/2 180/1/2
f 104/8/3 114/8/3 117/8/3 101/8/3
f 67/8/3 86/8/3 83/8/3 64/8/3
f 92/1/3 118/1/3 120/1/3 93/1/3
f 161/2/3 14/2/3 13/2/3 162/2/3
f 70/1/3 77/1/3 76/1/3 68/1/3
f 102/8/3 181/8/3 182/8/3 97/8/3
f 124/1/3 147/1/3 149/1/3 182/1/3
f 181/1/3 150/1/3 152/1/3 121/1/3
f 145/7/3 164/7/3 167/7/3 146/7/3
f 19/7/3 50/7/3 49/7/3 16/7/3
f 53/1/3 71/1/3 183/1/3 51/1/3
f 56/1/3 184/1/3 74/1/3 54/1/3
f 184/8/3 88/8/3 80/8/3 183/8/3
f 137/7/3 42/7/3 41/7/3 138/7/3
f 148/7/3 168/7/3 171/7/3 137/7/3
f 142/7/3 172/7/3 174/7/3 151/7/3
f 23/7/3 52/7/3 42/7/3 20/7/3
f 26/7/3 47/7/3 55/7/3 24/7/3
f 111/7/3 63/7/3 69/7/3 119/7/3
f 122/1/3 175/1/3 176/1/3 123/1/3
f 157/1/3 11/1/3 10/1/3 158/1/3
f 28/1/3 73/1/3 72/1/3 27/1/3
f 165/1/3 18/1/3 21/1/3 170/1/3
f 110/7/4 185/7/4 186/7/4 107/7/4
f 156/1/4 5/1/4 187/1/4 188/1/4
f 188/1/4 1/1/4 189/1/4 153/1/4
f 4/1/4 190/1/4 8/1/4 189/1/4
f 185/9/4 191/9/4 192/9/4 193/9/4
f 193/7/4 194/7/4 60/7/4 186/7/4
f 191/10/4 195/10/4 196/10/4 192/10/4
f 180/1/4 187/1/4 190/1/4 177/1/4
f 195/5/4 197/5/4 198/5/4 196/5/4
f 197/7/4 57/7/4 194/7/4 198/7/4
f 128/3/4 29/3/4 32/3/4 125/3/4
f 125/4/4 199/4/4 200/4/4 129/4/4
f 129/5/4 201/5/4 202/5/4 131/5/4
f 131/6/4 203/6/4 204/6/4 133/6/4
f 133/3/4 38/3/4 205/3/4 206/3/4
f 206/3/4 155/3/4 159/3/4 135/3/4
f 201/6/4 207/6/4 208/6/4 202/6/4
f 207/5/4 200/5/4 203/5/4 208/5/4
f 2/8/4 179/8/4 178/8/4 3/8/4
f 199/3/4 209/3/4 210/3/4 204/3/4
f 209/4/4 32/4/4 34/4/4 211/4/4
f 211/5/4 212/5/4 213/5/4 214/5/4
f 214/6/4 36/6/4 38/6/4 210/6/4
f 212/6/4 215/6/4 216/6/4 213/6/4
f 215/5/4 34/5/4 36/5/4 216/5/4
f 6/3/4 205/3/4 40/3/4 9/3/4
f 94/1/4 109/1/4 113/1/4 91/1/4
f 163/2/4 12/2/4 217/2/4 218/2/4
f 218/2/4 219/2/4 220/2/4 160/2/4
f 219/4/4 221/4/4 222/4/4 223/4/4
f 223/7/4 222/7/4 224/7/4 225/7/4
f 225/4/4 224/4/4 226/4/4 227/4/4
f 227/7/4 226/7/4 228/7/4 229/7/4
f 229/4/4 228/4/4 230/4/4 220/4/4
f 221/2/4 217/2/4 15/2/4 230/2/4
f 58/1/4 75/1/4 78/1/4 61/1/4
f 98/8/4 231/8/4 232/8/4 99/8/4
f 231/1/4 140/1/4 144/1/4 232/1/4
f 43/1/4 233/1/4 234/1/4 45/1/4
f 233/8/4 79/8/4 85/8/4 234/8/4
f 106/8/4 116/8/4 115/8/4 105/8/4
f 65/8/4 89/8/4 90/8/4 66/8/4
f 91/1/5 113/1/5 118/1/5 92/1/5
f 61/1/5 78/1/5 77/1/5 70/1/5
f 107/7/5 60/7/5 235/7/5 236/7/5
f 236/7/5 128/7/5 237/7/5 111/7/5
f 138/7/5 238/7/5 63/7/5 237/7/5
f 29/7/5 235/7/5 238/7/5 41/7/5
f 101/8/5 117/8/5 116/8/5 106/8/5
f 64/8/5 83/8/5 89/8/5 65/8/5
f 121/1/5 152/1/5 239/1/5 122/1/5
f 151/1/5 174/1/5 175/1/5 239/1/5
f 24/1/5 240/1/5 73/1/5 28/1/5
f 54/1/5 74/1/5 240/1/5 55/1/5
f 99/8/5 232/8/5 181/8/5 102/8/5
f 232/1/5 144/1/5 150/1/5 181/1/5
f 45/1/5 234/1/5 184/1/5 56/1/5
f 234/8/5 85/8/5 88/8/5 184/8/5
f 146/7/5 167/7/5 172/7/5 142/7/5
f 16/7/5 49/7/5 47/7/5 26/7/5
f 135/3/5 159/3/5 241/3/5 136/3/5
f 136/7/5 241/7/5 164/7/5 145/7/5
f 158/1/5 10/1/5 18/1/5 165/1/5
f 1/1/5 180/1/5 179/1/5 2/1/5
f 9/3/5 40/3/5 39/3/5 242/3/5
f 242/7/5 39/7/5 50/7/5 19/7/5
f 153/1/5 8/1/5 11/1/5 157/1/5
f 162/2/6 13/2/6 12/2/6 163/2/6
f 93/1/6 120/1/6 109/1/6 94/1/6
f 109/7/6 243/7/6 185/7/6 110/7/6
f 120/11/6 161/11/6 160/11/6 109/11/6
f 119/7/6 69/7/6 68/7/6 120/7/6
f 244/9/6 245/9/6 191/9/6 185/9/6
f 243/7/6 58/7/6 246/7/6 244/7/6
f 245/10/6 247/10/6 195/10/6 191/10/6
f 247/5/6 248/5/6 197/5/6 195/5/6
f 14/11/6 68/11/6 58/11/6 15/11/6
f 248/7/6 246/7/6 57/7/6 197/7/6
f 68/1/6 76/1/6 75/1/6 58/1/6
f 97/8/6 182/8/6 231/8/6 98/8/6
f 182/1/6 149/1/6 140/1/6 231/1/6
f 170/1/6 21/1/6 20/1/6 171/1/6
f 51/1/6 183/1/6 233/1/6 43/1/6
f 183/8/6 80/8/6 79/8/6 233/8/6
f 123/1/6 249/1/6 147/1/6 124/1/6
f 249/1/6 176/1/6 168/1/6 148/1/6
f 27/1/6 72/1/6 250/1/6 23/1/6
f 52/1/6 250/1/6 71/1/6 53/1/6
f 105/8/6 115/8/6 114/8/6 104/8/6
f 66/8/6 90/8/6 86/8/6 67/8/6
f 155/1/6 6/1/6 5/1/6 156/1/6
f 3/1/6 178/1/6 177/1/6 4/1/6
