# MagicaVoxel @ Ephtracy

# group
o 

# material
mtllib Character-1.mtl
usemtl palette

# normals
vn -1 0 0
vn 1 0 0
vn 0 0 1
vn 0 0 -1
vn 0 -1 0
vn 0 1 0

# texcoords
vt 0.0371094 0.5
vt 0.0488281 0.5
vt 0.236328 0.5
vt 0.240234 0.5
vt 0.408203 0.5
vt 0.412109 0.5
vt 0.525391 0.5
vt 0.697266 0.5
vt 0.900391 0.5
vt 0.970703 0.5
vt 0.974609 0.5

# verts
v 3.6 1.2 8.4
v 3.6 1.2 8.2
v 3.6 1.6 8.4
v 3.6 1.6 8.2
v 3.6 1.8 8.4
v 3.6 1.8 8.2
v 3.7 1.8 8.3
v 3.7 1.8 8.2
v 3.7 2 8.3
v 3.7 2 8.2
v 3.9 1.9 8.7
v 3.9 1.9 8.3
v 3.9 2 8.7
v 3.9 2 8.3
v 4 1.6 8.4
v 4 1.6 8.3
v 4 1.7 8.7
v 4 1.7 8.6
v 4 1.7 8.5
v 4 1.7 8.4
v 4 1.7 8.3
v 4 1.7 8
v 4 1.9 8.7
v 4 1.9 8.6
v 4 1.9 8.5
v 4 1.9 8.4
v 4 1.9 8.3
v 4 2 8.8
v 4 2 8.7
v 4 2 8.6
v 4 2 8.3
v 4 2 8
v 4 2.1 8.8
v 4 2.1 8.6
v 4 2.1 8
v 4 2.3 8.6
v 4 2.3 8.5
v 4 2.3 8.1
v 4 2.3 8
v 4 2.4 8.5
v 4 2.4 8.1
v 4.1 0 8.5
v 4.1 0 8.2
v 4.1 0.1 8.5
v 4.1 0.1 8.4
v 4.1 0.1 8.2
v 4.1 0.7 8.5
v 4.1 0.7 8.4
v 4.1 0.7 8.2
v 4.1 0.7 8.1
v 4.1 0.8 8.5
v 4.1 0.8 8.3
v 4.1 0.8 8.2
v 4.1 0.8 8.1
v 4.1 0.9 8.5
v 4.1 0.9 8.3
v 4.1 0.9 8.2
v 4.1 0.9 8.1
v 4.1 1.2 8.4
v 4.1 1.2 8.2
v 4.1 1.3 8.4
v 4.1 1.3 8.2
v 4.1 1.4 8.5
v 4.1 1.4 8.4
v 4.1 1.4 8.2
v 4.1 1.4 8.1
v 4.1 1.5 8.6
v 4.1 1.5 8.1
v 4.1 1.6 8.4
v 4.1 1.6 8.3
v 4.1 1.7 8.6
v 4.1 1.7 8.5
v 4.1 1.7 8.4
v 4.1 1.7 8.3
v 4.1 1.7 8.1
v 4.1 1.9 8.6
v 4.1 1.9 8.5
v 4.1 2 8.9
v 4.1 2 8.8
v 4.1 2.1 8.9
v 4.1 2.1 8.8
v 4.1 2.3 8.6
v 4.1 2.3 8.5
v 4.1 2.3 8.1
v 4.1 2.3 8
v 4.1 2.4 8.6
v 4.1 2.4 8.5
v 4.1 2.4 8.1
v 4.1 2.4 8
v 4.2 1.4 8.5
v 4.2 1.4 8.1
v 4.2 1.5 8.5
v 4.2 1.5 8.1
v 4.5 0 8.5
v 4.5 0 8.2
v 4.5 0.1 8.5
v 4.5 0.1 8.4
v 4.5 0.1 8.2
v 4.5 0.7 8.4
v 4.5 0.7 8.2
v 4.5 1.4 8.5
v 4.5 1.4 8.4
v 4.5 1.5 8.5
v 4.5 1.5 8.4
v 4.5 1.7 8.7
v 4.5 1.7 8.6
v 4.5 1.8 8.7
v 4.5 1.8 8.6
v 4.5 1.9 8.7
v 4.5 1.9 8.6
v 4.5 2 8.7
v 4.5 2 8.6
v 3.8 1.4 8.4
v 3.8 1.4 8.3
v 3.8 1.4 8.2
v 3.8 1.6 8.4
v 3.8 1.6 8.2
v 3.8 1.8 8.4
v 3.8 1.8 8.3
v 3.8 2 8.3
v 3.8 2 8.2
v 4.3 0 8.5
v 4.3 0 8.2
v 4.3 0.1 8.5
v 4.3 0.1 8.4
v 4.3 0.1 8.2
v 4.3 0.7 8.4
v 4.3 0.7 8.2
v 4.3 1.4 8.5
v 4.3 1.4 8.4
v 4.3 1.5 8.5
v 4.3 1.5 8.4
v 4.3 1.7 8.7
v 4.3 1.7 8.6
v 4.3 1.8 8.7
v 4.3 1.8 8.6
v 4.3 1.9 8.7
v 4.3 1.9 8.6
v 4.3 2 8.7
v 4.3 2 8.6
v 4.6 1.4 8.5
v 4.6 1.4 8.1
v 4.6 1.5 8.5
v 4.6 1.5 8.1
v 4.7 0 8.5
v 4.7 0 8.2
v 4.7 0.1 8.5
v 4.7 0.1 8.4
v 4.7 0.1 8.2
v 4.7 0.6 8.4
v 4.7 0.6 8.2
v 4.7 0.7 8.5
v 4.7 0.7 8.4
v 4.7 0.7 8.2
v 4.7 0.7 8.1
v 4.7 0.8 8.5
v 4.7 0.8 8.4
v 4.7 0.8 8.2
v 4.7 0.8 8.1
v 4.7 0.9 8.5
v 4.7 0.9 8.4
v 4.7 0.9 8.2
v 4.7 0.9 8.1
v 4.7 1.1 8.5
v 4.7 1.1 8.4
v 4.7 1.2 8.5
v 4.7 1.2 8.4
v 4.7 1.3 8.5
v 4.7 1.3 8.4
v 4.7 1.3 8.2
v 4.7 1.4 8.5
v 4.7 1.4 8.4
v 4.7 1.4 8.2
v 4.7 1.4 8.1
v 4.7 1.5 8.6
v 4.7 1.5 8.1
v 4.7 1.6 8.4
v 4.7 1.6 8.3
v 4.7 1.7 8.6
v 4.7 1.7 8.5
v 4.7 1.7 8.4
v 4.7 1.7 8.3
v 4.7 1.7 8.1
v 4.7 1.9 8.6
v 4.7 1.9 8.5
v 4.7 2 8.9
v 4.7 2 8.8
v 4.7 2.1 8.9
v 4.7 2.1 8.8
v 4.7 2.3 8.6
v 4.7 2.3 8.5
v 4.7 2.3 8.1
v 4.7 2.3 8
v 4.7 2.4 8.6
v 4.7 2.4 8.5
v 4.7 2.4 8.1
v 4.7 2.4 8
v 4.8 1.6 8.4
v 4.8 1.6 8.3
v 4.8 1.7 8.7
v 4.8 1.7 8.6
v 4.8 1.7 8.5
v 4.8 1.7 8.4
v 4.8 1.7 8.3
v 4.8 1.7 8
v 4.8 1.9 8.7
v 4.8 1.9 8.6
v 4.8 1.9 8.5
v 4.8 1.9 8.4
v 4.8 1.9 8.3
v 4.8 2 8.8
v 4.8 2 8.7
v 4.8 2 8.6
v 4.8 2 8.3
v 4.8 2 8
v 4.8 2.1 8.8
v 4.8 2.1 8.6
v 4.8 2.1 8
v 4.8 2.3 8.6
v 4.8 2.3 8.5
v 4.8 2.3 8.1
v 4.8 2.3 8
v 4.8 2.4 8.5
v 4.8 2.4 8.1
v 4.9 0.6 8.4
v 4.9 0.6 8.2
v 4.9 0.8 8.4
v 4.9 0.8 8.2
v 4.9 1.1 8.3
v 4.9 1.1 8.2
v 4.9 1.2 8.3
v 4.9 1.2 8.2
v 4.9 1.3 8.4
v 4.9 1.3 8.3
v 4.9 1.3 8.2
v 4.9 1.4 8.4
v 4.9 1.4 8.2
v 4.9 1.9 8.7
v 4.9 1.9 8.3
v 4.9 2 8.7
v 4.9 2 8.3
v 4.1 2 8.9
v 4.1 2.1 8.9
v 4.7 2 8.9
v 4.7 2.1 8.9
v 4 2 8.8
v 4 2.1 8.8
v 4.1 2 8.8
v 4.1 2.1 8.8
v 4.7 2 8.8
v 4.7 2.1 8.8
v 4.8 2 8.8
v 4.8 2.1 8.8
v 3.9 1.9 8.7
v 3.9 2 8.7
v 4 1.7 8.7
v 4 1.9 8.7
v 4 2 8.7
v 4.3 1.7 8.7
v 4.3 1.8 8.7
v 4.3 1.9 8.7
v 4.3 2 8.7
v 4.5 1.7 8.7
v 4.5 1.8 8.7
v 4.5 1.9 8.7
v 4.5 2 8.7
v 4.8 1.7 8.7
v 4.8 1.9 8.7
v 4.8 2 8.7
v 4.9 1.9 8.7
v 4.9 2 8.7
v 4 2.1 8.6
v 4 2.3 8.6
v 4.1 1.5 8.6
v 4.1 1.7 8.6
v 4.1 2.3 8.6
v 4.1 2.4 8.6
v 4.2 2.1 8.6
v 4.2 2.2 8.6
v 4.2 2.3 8.6
v 4.3 1.5 8.6
v 4.3 1.6 8.6
v 4.3 1.7 8.6
v 4.3 1.8 8.6
v 4.3 1.9 8.6
v 4.3 2 8.6
v 4.3 2.1 8.6
v 4.3 2.2 8.6
v 4.4 2.1 8.6
v 4.4 2.3 8.6
v 4.5 1.5 8.6
v 4.5 1.6 8.6
v 4.5 1.7 8.6
v 4.5 1.8 8.6
v 4.5 1.9 8.6
v 4.5 2 8.6
v 4.5 2.2 8.6
v 4.5 2.3 8.6
v 4.6 2.1 8.6
v 4.6 2.2 8.6
v 4.7 1.5 8.6
v 4.7 1.7 8.6
v 4.7 2.3 8.6
v 4.7 2.4 8.6
v 4.8 2.1 8.6
v 4.8 2.3 8.6
v 4 1.7 8.5
v 4 1.9 8.5
v 4 2.3 8.5
v 4 2.4 8.5
v 4.1 0 8.5
v 4.1 0.1 8.5
v 4.1 0.7 8.5
v 4.1 0.8 8.5
v 4.1 0.9 8.5
v 4.1 1.4 8.5
v 4.1 1.7 8.5
v 4.1 1.9 8.5
v 4.1 2.3 8.5
v 4.1 2.4 8.5
v 4.2 0.8 8.5
v 4.2 0.9 8.5
v 4.2 1.4 8.5
v 4.2 1.5 8.5
v 4.3 0 8.5
v 4.3 0.1 8.5
v 4.3 0.8 8.5
v 4.3 0.9 8.5
v 4.3 1.3 8.5
v 4.3 1.4 8.5
v 4.3 1.5 8.5
v 4.5 0 8.5
v 4.5 0.1 8.5
v 4.5 0.8 8.5
v 4.5 0.9 8.5
v 4.5 1.1 8.5
v 4.5 1.2 8.5
v 4.5 1.3 8.5
v 4.5 1.4 8.5
v 4.5 1.5 8.5
v 4.6 0.8 8.5
v 4.6 0.9 8.5
v 4.6 1.4 8.5
v 4.6 1.5 8.5
v 4.7 0 8.5
v 4.7 0.1 8.5
v 4.7 0.7 8.5
v 4.7 0.8 8.5
v 4.7 0.9 8.5
v 4.7 1.1 8.5
v 4.7 1.2 8.5
v 4.7 1.3 8.5
v 4.7 1.4 8.5
v 4.7 1.7 8.5
v 4.7 1.9 8.5
v 4.7 2.3 8.5
v 4.7 2.4 8.5
v 4.8 1.7 8.5
v 4.8 1.9 8.5
v 4.8 2.3 8.5
v 4.8 2.4 8.5
v 3.6 1.2 8.4
v 3.6 1.6 8.4
v 3.6 1.8 8.4
v 3.8 1.4 8.4
v 3.8 1.6 8.4
v 3.8 1.8 8.4
v 3.9 1.3 8.4
v 3.9 1.4 8.4
v 4 1.6 8.4
v 4 1.7 8.4
v 4.1 0.1 8.4
v 4.1 0.7 8.4
v 4.1 1.2 8.4
v 4.1 1.3 8.4
v 4.1 1.4 8.4
v 4.1 1.6 8.4
v 4.1 1.7 8.4
v 4.3 0.1 8.4
v 4.3 0.7 8.4
v 4.3 1.4 8.4
v 4.3 1.5 8.4
v 4.5 0.1 8.4
v 4.5 0.7 8.4
v 4.5 1.4 8.4
v 4.5 1.5 8.4
v 4.7 0.1 8.4
v 4.7 0.6 8.4
v 4.7 0.7 8.4
v 4.7 0.8 8.4
v 4.7 0.9 8.4
v 4.7 1.1 8.4
v 4.7 1.2 8.4
v 4.7 1.3 8.4
v 4.7 1.4 8.4
v 4.7 1.6 8.4
v 4.7 1.7 8.4
v 4.8 1.6 8.4
v 4.8 1.7 8.4
v 4.9 0.6 8.4
v 4.9 0.8 8.4
v 4.9 1.3 8.4
v 4.9 1.4 8.4
v 3.7 1.8 8.3
v 3.7 2 8.3
v 3.8 1.8 8.3
v 3.8 2 8.3
v 4 1.7 8.6
v 4 1.9 8.6
v 4.1 1.7 8.6
v 4.1 1.9 8.6
v 4.7 1.7 8.6
v 4.7 1.9 8.6
v 4.8 1.7 8.6
v 4.8 1.9 8.6
v 3.9 1.9 8.3
v 3.9 2 8.3
v 4 1.6 8.3
v 4 1.7 8.3
v 4 1.9 8.3
v 4 2 8.3
v 4.1 1.6 8.3
v 4.1 1.7 8.3
v 4.7 1.6 8.3
v 4.7 1.7 8.3
v 4.8 1.6 8.3
v 4.8 1.7 8.3
v 4.8 1.9 8.3
v 4.8 2 8.3
v 4.9 1.9 8.3
v 4.9 2 8.3
v 3.6 1.2 8.2
v 3.6 1.6 8.2
v 3.6 1.8 8.2
v 3.7 1.8 8.2
v 3.7 2 8.2
v 3.8 1.3 8.2
v 3.8 1.4 8.2
v 3.8 1.6 8.2
v 3.8 2 8.2
v 3.9 1.3 8.2
v 3.9 1.4 8.2
v 4.1 0 8.2
v 4.1 0.1 8.2
v 4.1 0.7 8.2
v 4.1 1.2 8.2
v 4.1 1.3 8.2
v 4.1 1.4 8.2
v 4.3 0 8.2
v 4.3 0.1 8.2
v 4.3 0.7 8.2
v 4.5 0 8.2
v 4.5 0.1 8.2
v 4.5 0.7 8.2
v 4.7 0 8.2
v 4.7 0.1 8.2
v 4.7 0.6 8.2
v 4.7 0.7 8.2
v 4.7 0.8 8.2
v 4.7 0.9 8.2
v 4.7 1.3 8.2
v 4.7 1.4 8.2
v 4.8 1.1 8.2
v 4.8 1.2 8.2
v 4.8 1.3 8.2
v 4.9 0.6 8.2
v 4.9 0.8 8.2
v 4.9 1.1 8.2
v 4.9 1.2 8.2
v 4.9 1.3 8.2
v 4.9 1.4 8.2
v 4 2.3 8.1
v 4 2.4 8.1
v 4.1 0.7 8.1
v 4.1 0.8 8.1
v 4.1 0.9 8.1
v 4.1 1.4 8.1
v 4.1 1.5 8.1
v 4.1 1.7 8.1
v 4.1 2.3 8.1
v 4.1 2.4 8.1
v 4.2 0.8 8.1
v 4.2 0.9 8.1
v 4.2 1.4 8.1
v 4.2 1.5 8.1
v 4.3 0.8 8.1
v 4.3 0.9 8.1
v 4.5 0.8 8.1
v 4.5 0.9 8.1
v 4.6 0.8 8.1
v 4.6 0.9 8.1
v 4.6 1.4 8.1
v 4.6 1.5 8.1
v 4.7 0.7 8.1
v 4.7 0.8 8.1
v 4.7 0.9 8.1
v 4.7 1.4 8.1
v 4.7 1.5 8.1
v 4.7 1.7 8.1
v 4.7 2.3 8.1
v 4.7 2.4 8.1
v 4.8 2.3 8.1
v 4.8 2.4 8.1
v 4 1.7 8
v 4 2 8
v 4 2.1 8
v 4 2.3 8
v 4.1 2.3 8
v 4.1 2.4 8
v 4.7 2.3 8
v 4.7 2.4 8
v 4.8 1.7 8
v 4.8 2 8
v 4.8 2.1 8
v 4.8 2.3 8
v 4.1 0 8.5
v 4.3 0 8.5
v 4.5 0 8.5
v 4.7 0 8.5
v 4.1 0 8.2
v 4.3 0 8.2
v 4.5 0 8.2
v 4.7 0 8.2
v 4.7 0.6 8.4
v 4.9 0.6 8.4
v 4.7 0.6 8.2
v 4.9 0.6 8.2
v 4.1 0.7 8.5
v 4.7 0.7 8.5
v 4.1 0.7 8.4
v 4.3 0.7 8.4
v 4.5 0.7 8.4
v 4.7 0.7 8.4
v 4.1 0.7 8.2
v 4.3 0.7 8.2
v 4.5 0.7 8.2
v 4.7 0.7 8.2
v 4.1 0.7 8.1
v 4.7 0.7 8.1
v 3.6 1.2 8.4
v 4.1 1.2 8.4
v 3.6 1.2 8.2
v 4.1 1.2 8.2
v 4.1 1.5 8.6
v 4.3 1.5 8.6
v 4.5 1.5 8.6
v 4.7 1.5 8.6
v 4.2 1.5 8.5
v 4.3 1.5 8.5
v 4.5 1.5 8.5
v 4.6 1.5 8.5
v 4.3 1.5 8.4
v 4.5 1.5 8.4
v 4.1 1.5 8.1
v 4.2 1.5 8.1
v 4.6 1.5 8.1
v 4.7 1.5 8.1
v 4 1.6 8.4
v 4.1 1.6 8.4
v 4.7 1.6 8.4
v 4.8 1.6 8.4
v 4 1.6 8.3
v 4.1 1.6 8.3
v 4.7 1.6 8.3
v 4.8 1.6 8.3
v 4 1.7 8.7
v 4.3 1.7 8.7
v 4.5 1.7 8.7
v 4.8 1.7 8.7
v 4 1.7 8.6
v 4.1 1.7 8.6
v 4.3 1.7 8.6
v 4.5 1.7 8.6
v 4.7 1.7 8.6
v 4.8 1.7 8.6
v 4 1.7 8.5
v 4.1 1.7 8.5
v 4.7 1.7 8.5
v 4.8 1.7 8.5
v 4 1.7 8.4
v 4.1 1.7 8.4
v 4.7 1.7 8.4
v 4.8 1.7 8.4
v 4 1.7 8.3
v 4.1 1.7 8.3
v 4.7 1.7 8.3
v 4.8 1.7 8.3
v 4.1 1.7 8.1
v 4.7 1.7 8.1
v 4 1.7 8
v 4.8 1.7 8
v 4.3 1.8 8.7
v 4.5 1.8 8.7
v 4.3 1.8 8.6
v 4.5 1.8 8.6
v 3.9 1.9 8.7
v 4 1.9 8.7
v 4.8 1.9 8.7
v 4.9 1.9 8.7
v 4 1.9 8.6
v 4.1 1.9 8.6
v 4.7 1.9 8.6
v 4.8 1.9 8.6
v 4 1.9 8.5
v 4.1 1.9 8.5
v 4.7 1.9 8.5
v 4.8 1.9 8.5
v 4 1.9 8.4
v 4.8 1.9 8.4
v 3.9 1.9 8.3
v 4 1.9 8.3
v 4.8 1.9 8.3
v 4.9 1.9 8.3
v 4.1 2 8.9
v 4.7 2 8.9
v 4 2 8.8
v 4.1 2 8.8
v 4.7 2 8.8
v 4.8 2 8.8
v 4 2 8.7
v 4.3 2 8.7
v 4.5 2 8.7
v 4.8 2 8.7
v 4.3 2 8.6
v 4.5 2 8.6
v 4.1 0.1 8.5
v 4.3 0.1 8.5
v 4.5 0.1 8.5
v 4.7 0.1 8.5
v 4.1 0.1 8.4
v 4.3 0.1 8.4
v 4.5 0.1 8.4
v 4.7 0.1 8.4
v 4.1 1.4 8.5
v 4.2 1.4 8.5
v 4.3 1.4 8.5
v 4.5 1.4 8.5
v 4.6 1.4 8.5
v 4.7 1.4 8.5
v 3.8 1.4 8.4
v 3.9 1.4 8.4
v 4.1 1.4 8.4
v 4.3 1.4 8.4
v 4.5 1.4 8.4
v 4.7 1.4 8.4
v 4.9 1.4 8.4
v 3.8 1.4 8.3
v 3.9 1.4 8.3
v 3.8 1.4 8.2
v 3.9 1.4 8.2
v 4.1 1.4 8.2
v 4.7 1.4 8.2
v 4.9 1.4 8.2
v 4.1 1.4 8.1
v 4.2 1.4 8.1
v 4.6 1.4 8.1
v 4.7 1.4 8.1
v 3.6 1.8 8.4
v 3.8 1.8 8.4
v 3.7 1.8 8.3
v 3.8 1.8 8.3
v 3.6 1.8 8.2
v 3.7 1.8 8.2
v 4.3 1.9 8.7
v 4.5 1.9 8.7
v 4.3 1.9 8.6
v 4.5 1.9 8.6
v 3.9 2 8.7
v 4 2 8.7
v 4.8 2 8.7
v 4.9 2 8.7
v 4 2 8.6
v 4.8 2 8.6
v 3.7 2 8.3
v 3.8 2 8.3
v 3.9 2 8.3
v 4 2 8.3
v 4.8 2 8.3
v 4.9 2 8.3
v 3.7 2 8.2
v 3.8 2 8.2
v 4.1 2.1 8.9
v 4.7 2.1 8.9
v 4 2.1 8.8
v 4.1 2.1 8.8
v 4.7 2.1 8.8
v 4.8 2.1 8.8
v 4 2.1 8.6
v 4.2 2.1 8.6
v 4.3 2.1 8.6
v 4.4 2.1 8.6
v 4.6 2.1 8.6
v 4.8 2.1 8.6
v 4 2.3 8.6
v 4.1 2.3 8.6
v 4.7 2.3 8.6
v 4.8 2.3 8.6
v 4 2.3 8.5
v 4.1 2.3 8.5
v 4.7 2.3 8.5
v 4.8 2.3 8.5
v 4 2.3 8.1
v 4.1 2.3 8.1
v 4.7 2.3 8.1
v 4.8 2.3 8.1
v 4 2.3 8
v 4.1 2.3 8
v 4.7 2.3 8
v 4.8 2.3 8
v 4.1 2.4 8.6
v 4.7 2.4 8.6
v 4 2.4 8.5
v 4.1 2.4 8.5
v 4.7 2.4 8.5
v 4.8 2.4 8.5
v 4 2.4 8.1
v 4.1 2.4 8.1
v 4.7 2.4 8.1
v 4.8 2.4 8.1
v 4.1 2.4 8
v 4.7 2.4 8

# faces
f 3/8/1 2/8/1 1/8/1
f 4/8/1 2/8/1 3/8/1
f 5/1/1 4/1/1 3/1/1
f 6/1/1 4/1/1 5/1/1
f 9/1/1 8/1/1 7/1/1
f 10/1/1 8/1/1 9/1/1
f 13/7/1 12/7/1 11/7/1
f 14/7/1 12/7/1 13/7/1
f 20/2/1 16/2/1 15/2/1
f 21/2/1 16/2/1 20/2/1
f 23/7/1 18/7/1 17/7/1
f 24/7/1 18/7/1 23/7/1
f 25/7/1 20/7/1 19/7/1
f 26/2/1 21/2/1 20/2/1
f 26/7/1 20/7/1 25/7/1
f 27/7/1 22/7/1 21/7/1
f 27/2/1 21/2/1 26/2/1
f 31/7/1 22/7/1 27/7/1
f 32/7/1 22/7/1 31/7/1
f 33/7/1 30/7/1 29/7/1
f 33/7/1 29/7/1 28/7/1
f 34/4/1 32/4/1 31/4/1
f 34/7/1 30/7/1 33/7/1
f 34/4/1 31/4/1 30/4/1
f 35/4/1 32/4/1 34/4/1
f 36/3/1 35/3/1 34/3/1
f 37/3/1 35/3/1 36/3/1
f 38/3/1 35/3/1 37/3/1
f 39/3/1 35/3/1 38/3/1
f 40/3/1 38/3/1 37/3/1
f 41/3/1 38/3/1 40/3/1
f 44/7/1 43/7/1 42/7/1
f 45/7/1 43/7/1 44/7/1
f 46/7/1 43/7/1 45/7/1
f 48/3/1 46/3/1 45/3/1
f 49/3/1 46/3/1 48/3/1
f 51/3/1 49/3/1 48/3/1
f 51/3/1 50/3/1 49/3/1
f 51/3/1 48/3/1 47/3/1
f 52/3/1 50/3/1 51/3/1
f 53/3/1 50/3/1 52/3/1
f 54/3/1 50/3/1 53/3/1
f 55/7/1 52/7/1 51/7/1
f 56/3/1 53/3/1 52/3/1
f 56/7/1 52/7/1 55/7/1
f 57/7/1 54/7/1 53/7/1
f 57/3/1 53/3/1 56/3/1
f 58/7/1 54/7/1 57/7/1
f 59/8/1 56/8/1 55/8/1
f 59/8/1 57/8/1 56/8/1
f 59/8/1 58/8/1 57/8/1
f 60/8/1 58/8/1 59/8/1
f 61/8/1 59/8/1 55/8/1
f 62/8/1 58/8/1 60/8/1
f 63/8/1 61/8/1 55/8/1
f 64/8/1 61/8/1 63/8/1
f 65/8/1 58/8/1 62/8/1
f 66/8/1 58/8/1 65/8/1
f 69/1/1 68/1/1 67/1/1
f 70/1/1 68/1/1 69/1/1
f 71/1/1 69/1/1 67/1/1
f 72/1/1 69/1/1 71/1/1
f 73/1/1 69/1/1 72/1/1
f 74/1/1 68/1/1 70/1/1
f 75/1/1 68/1/1 74/1/1
f 76/1/1 72/1/1 71/1/1
f 77/1/1 72/1/1 76/1/1
f 80/7/1 79/7/1 78/7/1
f 81/7/1 79/7/1 80/7/1
f 86/3/1 83/3/1 82/3/1
f 87/3/1 83/3/1 86/3/1
f 88/3/1 85/3/1 84/3/1
f 89/3/1 85/3/1 88/3/1
f 92/8/1 91/8/1 90/8/1
f 93/8/1 91/8/1 92/8/1
f 96/7/1 95/7/1 94/7/1
f 97/7/1 95/7/1 96/7/1
f 98/7/1 95/7/1 97/7/1
f 99/3/1 98/3/1 97/3/1
f 100/3/1 98/3/1 99/3/1
f 103/8/1 102/8/1 101/8/1
f 104/8/1 102/8/1 103/8/1
f 107/7/1 106/7/1 105/7/1
f 108/7/1 106/7/1 107/7/1
f 111/7/1 110/7/1 109/7/1
f 112/7/1 110/7/1 111/7/1
f 113/8/2 114/8/2 116/8/2
f 114/8/2 115/8/2 116/8/2
f 116/8/2 115/8/2 117/8/2
f 116/1/2 117/1/2 118/1/2
f 118/1/2 117/1/2 119/1/2
f 119/1/2 117/1/2 120/1/2
f 120/1/2 117/1/2 121/1/2
f 122/7/2 123/7/2 124/7/2
f 124/7/2 123/7/2 125/7/2
f 125/7/2 123/7/2 126/7/2
f 125/3/2 126/3/2 127/3/2
f 127/3/2 126/3/2 128/3/2
f 129/8/2 130/8/2 131/8/2
f 131/8/2 130/8/2 132/8/2
f 133/7/2 134/7/2 135/7/2
f 135/7/2 134/7/2 136/7/2
f 137/7/2 138/7/2 139/7/2
f 139/7/2 138/7/2 140/7/2
f 141/8/2 142/8/2 143/8/2
f 143/8/2 142/8/2 144/8/2
f 145/7/2 146/7/2 147/7/2
f 147/7/2 146/7/2 148/7/2
f 148/7/2 146/7/2 149/7/2
f 148/3/2 149/3/2 150/3/2
f 150/3/2 149/3/2 151/3/2
f 152/3/2 153/3/2 156/3/2
f 156/3/2 153/3/2 157/3/2
f 154/3/2 155/3/2 158/3/2
f 158/3/2 155/3/2 159/3/2
f 156/7/2 157/7/2 160/7/2
f 160/7/2 157/7/2 161/7/2
f 158/7/2 159/7/2 162/7/2
f 162/7/2 159/7/2 163/7/2
f 160/8/2 161/8/2 164/8/2
f 164/8/2 161/8/2 165/8/2
f 164/5/2 165/5/2 166/5/2
f 166/5/2 165/5/2 167/5/2
f 166/9/2 167/9/2 168/9/2
f 168/9/2 167/9/2 169/9/2
f 162/8/2 163/8/2 170/8/2
f 168/8/2 169/8/2 171/8/2
f 171/8/2 169/8/2 172/8/2
f 170/8/2 163/8/2 173/8/2
f 173/8/2 163/8/2 174/8/2
f 175/1/2 176/1/2 177/1/2
f 177/1/2 176/1/2 178/1/2
f 175/1/2 177/1/2 179/1/2
f 179/1/2 177/1/2 180/1/2
f 180/1/2 177/1/2 181/1/2
f 178/1/2 176/1/2 182/1/2
f 182/1/2 176/1/2 183/1/2
f 179/1/2 180/1/2 184/1/2
f 184/1/2 180/1/2 185/1/2
f 186/7/2 187/7/2 188/7/2
f 188/7/2 187/7/2 189/7/2
f 190/3/2 191/3/2 194/3/2
f 194/3/2 191/3/2 195/3/2
f 192/3/2 193/3/2 196/3/2
f 196/3/2 193/3/2 197/3/2
f 198/2/2 199/2/2 203/2/2
f 203/2/2 199/2/2 204/2/2
f 200/7/2 201/7/2 206/7/2
f 206/7/2 201/7/2 207/7/2
f 202/7/2 203/7/2 208/7/2
f 203/2/2 204/2/2 209/2/2
f 208/7/2 203/7/2 209/7/2
f 204/7/2 205/7/2 210/7/2
f 209/2/2 204/2/2 210/2/2
f 210/7/2 205/7/2 214/7/2
f 214/7/2 205/7/2 215/7/2
f 212/7/2 213/7/2 216/7/2
f 211/7/2 212/7/2 216/7/2
f 214/4/2 215/4/2 217/4/2
f 216/7/2 213/7/2 217/7/2
f 213/4/2 214/4/2 217/4/2
f 217/4/2 215/4/2 218/4/2
f 217/3/2 218/3/2 219/3/2
f 219/3/2 218/3/2 220/3/2
f 220/3/2 218/3/2 221/3/2
f 221/3/2 218/3/2 222/3/2
f 220/3/2 221/3/2 223/3/2
f 223/3/2 221/3/2 224/3/2
f 225/1/2 226/1/2 227/1/2
f 227/1/2 226/1/2 228/1/2
f 227/8/2 228/8/2 229/8/2
f 229/8/2 228/8/2 230/8/2
f 227/8/2 229/8/2 231/8/2
f 229/3/2 230/3/2 231/3/2
f 231/3/2 230/3/2 232/3/2
f 227/8/2 231/8/2 233/8/2
f 231/9/2 232/9/2 234/9/2
f 233/8/2 231/8/2 234/8/2
f 234/9/2 232/9/2 235/9/2
f 233/3/2 234/3/2 236/3/2
f 234/3/2 235/3/2 236/3/2
f 236/3/2 235/3/2 237/3/2
f 238/7/2 239/7/2 240/7/2
f 240/7/2 239/7/2 241/7/2
f 244/7/3 243/7/3 242/7/3
f 245/7/3 243/7/3 244/7/3
f 248/7/3 247/7/3 246/7/3
f 249/7/3 247/7/3 248/7/3
f 252/7/3 251/7/3 250/7/3
f 253/7/3 251/7/3 252/7/3
f 257/7/3 255/7/3 254/7/3
f 258/7/3 255/7/3 257/7/3
f 259/7/3 257/7/3 256/7/3
f 259/7/3 258/7/3 257/7/3
f 260/7/3 258/7/3 259/7/3
f 261/7/3 258/7/3 260/7/3
f 262/7/3 258/7/3 261/7/3
f 264/7/3 261/7/3 260/7/3
f 265/7/3 261/7/3 264/7/3
f 267/7/3 264/7/3 263/7/3
f 267/7/3 266/7/3 265/7/3
f 267/7/3 265/7/3 264/7/3
f 268/7/3 266/7/3 267/7/3
f 269/7/3 266/7/3 268/7/3
f 270/7/3 269/7/3 268/7/3
f 271/7/3 269/7/3 270/7/3
f 276/3/3 273/3/3 272/3/3
f 278/3/3 276/3/3 272/3/3
f 278/3/3 277/3/3 276/3/3
f 279/3/3 277/3/3 278/3/3
f 280/3/3 277/3/3 279/3/3
f 281/1/3 275/1/3 274/1/3
f 282/1/3 275/1/3 281/1/3
f 283/1/3 275/1/3 282/1/3
f 287/5/3 279/5/3 278/5/3
f 288/9/3 280/9/3 279/9/3
f 288/5/3 279/5/3 287/5/3
f 289/9/3 288/9/3 287/9/3
f 290/3/3 277/3/3 280/3/3
f 290/9/3 288/9/3 289/9/3
f 290/9/3 280/9/3 288/9/3
f 291/10/3 282/10/3 281/10/3
f 292/1/3 283/1/3 282/1/3
f 292/10/3 282/10/3 291/10/3
f 292/1/3 284/1/3 283/1/3
f 293/1/3 284/1/3 292/1/3
f 294/1/3 284/1/3 293/1/3
f 295/1/3 286/1/3 285/1/3
f 296/1/3 286/1/3 295/1/3
f 297/6/3 290/6/3 289/6/3
f 298/3/3 277/3/3 290/3/3
f 298/6/3 290/6/3 297/6/3
f 299/6/3 297/6/3 289/6/3
f 300/3/3 298/3/3 297/3/3
f 300/6/3 297/6/3 299/6/3
f 301/1/3 292/1/3 291/1/3
f 301/1/3 293/1/3 292/1/3
f 302/1/3 293/1/3 301/1/3
f 303/3/3 277/3/3 298/3/3
f 303/3/3 298/3/3 300/3/3
f 303/3/3 300/3/3 299/3/3
f 304/3/3 277/3/3 303/3/3
f 305/3/3 303/3/3 299/3/3
f 306/3/3 303/3/3 305/3/3
f 317/7/3 308/7/3 307/7/3
f 318/7/3 308/7/3 317/7/3
f 319/3/3 310/3/3 309/3/3
f 320/3/3 310/3/3 319/3/3
f 321/3/3 314/3/3 313/3/3
f 321/7/3 315/7/3 314/7/3
f 322/8/3 316/8/3 315/8/3
f 322/7/3 315/7/3 321/7/3
f 323/8/3 316/8/3 322/8/3
f 325/7/3 312/7/3 311/7/3
f 326/7/3 312/7/3 325/7/3
f 327/3/3 321/3/3 313/3/3
f 327/3/3 322/3/3 321/3/3
f 328/8/3 324/8/3 323/8/3
f 328/3/3 322/3/3 327/3/3
f 328/8/3 323/8/3 322/8/3
f 329/8/3 324/8/3 328/8/3
f 330/8/3 324/8/3 329/8/3
f 331/8/3 324/8/3 330/8/3
f 334/3/3 327/3/3 313/3/3
f 334/9/3 328/9/3 327/9/3
f 335/8/3 329/8/3 328/8/3
f 335/9/3 328/9/3 334/9/3
f 336/8/3 329/8/3 335/8/3
f 337/8/3 329/8/3 336/8/3
f 338/11/3 330/11/3 329/11/3
f 338/8/3 329/8/3 337/8/3
f 339/11/3 330/11/3 338/11/3
f 341/3/3 334/3/3 313/3/3
f 341/3/3 335/3/3 334/3/3
f 342/8/3 336/8/3 335/8/3
f 342/3/3 335/3/3 341/3/3
f 343/8/3 340/8/3 339/8/3
f 343/8/3 339/8/3 338/8/3
f 344/8/3 340/8/3 343/8/3
f 345/7/3 333/7/3 332/7/3
f 346/7/3 333/7/3 345/7/3
f 347/3/3 341/3/3 313/3/3
f 348/7/3 342/7/3 341/7/3
f 348/3/3 341/3/3 347/3/3
f 349/8/3 336/8/3 342/8/3
f 349/7/3 342/7/3 348/7/3
f 350/5/3 337/5/3 336/5/3
f 350/8/3 336/8/3 349/8/3
f 351/9/3 338/9/3 337/9/3
f 351/5/3 337/5/3 350/5/3
f 352/8/3 343/8/3 338/8/3
f 352/9/3 338/9/3 351/9/3
f 353/8/3 343/8/3 352/8/3
f 358/7/3 355/7/3 354/7/3
f 359/7/3 355/7/3 358/7/3
f 360/3/3 357/3/3 356/3/3
f 361/3/3 357/3/3 360/3/3
f 365/8/3 363/8/3 362/8/3
f 366/1/3 364/1/3 363/1/3
f 366/8/3 363/8/3 365/8/3
f 367/1/3 364/1/3 366/1/3
f 368/8/3 365/8/3 362/8/3
f 369/8/3 365/8/3 368/8/3
f 374/8/3 368/8/3 362/8/3
f 375/3/3 369/3/3 368/3/3
f 375/8/3 368/8/3 374/8/3
f 376/3/3 369/3/3 375/3/3
f 377/2/3 371/2/3 370/2/3
f 378/2/3 371/2/3 377/2/3
f 379/3/3 373/3/3 372/3/3
f 380/3/3 373/3/3 379/3/3
f 385/1/3 382/1/3 381/1/3
f 386/1/3 382/1/3 385/1/3
f 387/3/3 384/3/3 383/3/3
f 388/3/3 384/3/3 387/3/3
f 389/3/3 384/3/3 388/3/3
f 398/2/3 397/2/3 396/2/3
f 399/2/3 397/2/3 398/2/3
f 400/1/3 389/1/3 388/1/3
f 400/1/3 390/1/3 389/1/3
f 401/8/3 394/8/3 393/8/3
f 401/1/3 390/1/3 400/1/3
f 401/8/3 391/8/3 390/8/3
f 401/8/3 393/8/3 392/8/3
f 401/8/3 392/8/3 391/8/3
f 402/3/3 395/3/3 394/3/3
f 402/8/3 394/8/3 401/8/3
f 403/3/3 395/3/3 402/3/3
f 406/1/3 405/1/3 404/1/3
f 407/1/3 405/1/3 406/1/3
f 408/7/4 409/7/4 410/7/4
f 410/7/4 409/7/4 411/7/4
f 412/7/4 413/7/4 414/7/4
f 414/7/4 413/7/4 415/7/4
f 416/7/4 417/7/4 420/7/4
f 420/7/4 417/7/4 421/7/4
f 418/2/4 419/2/4 422/2/4
f 422/2/4 419/2/4 423/2/4
f 424/2/4 425/2/4 426/2/4
f 426/2/4 425/2/4 427/2/4
f 428/7/4 429/7/4 430/7/4
f 430/7/4 429/7/4 431/7/4
f 433/1/4 434/1/4 435/1/4
f 432/8/4 433/8/4 437/8/4
f 437/8/4 433/8/4 438/8/4
f 435/1/4 436/1/4 439/1/4
f 438/8/4 433/8/4 439/8/4
f 433/1/4 435/1/4 439/1/4
f 439/1/4 436/1/4 440/1/4
f 437/9/4 438/9/4 441/9/4
f 432/8/4 437/8/4 441/8/4
f 441/9/4 438/9/4 442/9/4
f 432/8/4 441/8/4 446/8/4
f 441/3/4 442/3/4 447/3/4
f 446/8/4 441/8/4 447/8/4
f 447/3/4 442/3/4 448/3/4
f 443/7/4 444/7/4 449/7/4
f 444/3/4 445/3/4 450/3/4
f 449/7/4 444/7/4 450/7/4
f 450/3/4 445/3/4 451/3/4
f 452/7/4 453/7/4 455/7/4
f 453/3/4 454/3/4 456/3/4
f 455/7/4 453/7/4 456/7/4
f 456/3/4 454/3/4 457/3/4
f 457/3/4 454/3/4 458/3/4
f 460/8/4 461/8/4 463/8/4
f 459/8/4 460/8/4 463/8/4
f 463/8/4 461/8/4 464/8/4
f 461/3/4 462/3/4 465/3/4
f 464/8/4 461/8/4 465/8/4
f 457/1/4 458/1/4 466/1/4
f 458/1/4 459/1/4 466/1/4
f 459/8/4 463/8/4 467/8/4
f 466/1/4 459/1/4 467/1/4
f 463/3/4 464/3/4 468/3/4
f 467/8/4 463/8/4 468/8/4
f 464/9/4 465/9/4 469/9/4
f 468/3/4 464/3/4 469/3/4
f 465/3/4 462/3/4 470/3/4
f 469/9/4 465/9/4 470/9/4
f 470/3/4 462/3/4 471/3/4
f 472/3/4 473/3/4 480/3/4
f 480/3/4 473/3/4 481/3/4
f 474/3/4 475/3/4 482/3/4
f 475/7/4 476/7/4 482/7/4
f 476/8/4 477/8/4 483/8/4
f 482/7/4 476/7/4 483/7/4
f 483/8/4 477/8/4 484/8/4
f 478/1/4 479/1/4 485/1/4
f 474/3/4 482/3/4 486/3/4
f 482/3/4 483/3/4 486/3/4
f 483/8/4 484/8/4 487/8/4
f 486/3/4 483/3/4 487/3/4
f 484/8/4 485/8/4 487/8/4
f 474/3/4 486/3/4 488/3/4
f 486/7/4 487/7/4 488/7/4
f 487/8/4 485/8/4 489/8/4
f 488/7/4 487/7/4 489/7/4
f 474/3/4 488/3/4 490/3/4
f 488/3/4 489/3/4 490/3/4
f 489/8/4 485/8/4 491/8/4
f 490/3/4 489/3/4 491/3/4
f 491/8/4 485/8/4 492/8/4
f 485/1/4 479/1/4 493/1/4
f 492/8/4 485/8/4 493/8/4
f 474/3/4 490/3/4 494/3/4
f 490/7/4 491/7/4 495/7/4
f 494/3/4 490/3/4 495/3/4
f 491/8/4 492/8/4 496/8/4
f 495/7/4 491/7/4 496/7/4
f 496/8/4 492/8/4 497/8/4
f 493/1/4 479/1/4 498/1/4
f 498/1/4 479/1/4 499/1/4
f 500/3/4 501/3/4 502/3/4
f 502/3/4 501/3/4 503/3/4
f 506/3/4 507/3/4 508/3/4
f 506/3/4 508/3/4 510/3/4
f 508/3/4 509/3/4 510/3/4
f 510/3/4 509/3/4 511/3/4
f 504/7/4 505/7/4 512/7/4
f 505/4/4 506/4/4 513/4/4
f 512/7/4 505/7/4 513/7/4
f 506/3/4 510/3/4 514/3/4
f 513/4/4 506/4/4 514/4/4
f 514/3/4 510/3/4 515/3/4
f 520/7/5 517/7/5 516/7/5
f 521/7/5 517/7/5 520/7/5
f 522/7/5 519/7/5 518/7/5
f 523/7/5 519/7/5 522/7/5
f 526/1/5 525/1/5 524/1/5
f 527/1/5 525/1/5 526/1/5
f 530/3/5 529/3/5 528/3/5
f 531/3/5 529/3/5 530/3/5
f 532/3/5 529/3/5 531/3/5
f 533/3/5 529/3/5 532/3/5
f 535/3/5 532/3/5 531/3/5
f 536/3/5 532/3/5 535/3/5
f 538/3/5 535/3/5 534/3/5
f 538/3/5 537/3/5 536/3/5
f 538/3/5 536/3/5 535/3/5
f 539/3/5 537/3/5 538/3/5
f 542/8/5 541/8/5 540/8/5
f 543/8/5 541/8/5 542/8/5
f 548/1/5 545/1/5 544/1/5
f 549/10/5 546/10/5 545/10/5
f 549/1/5 545/1/5 548/1/5
f 550/1/5 547/1/5 546/1/5
f 550/10/5 546/10/5 549/10/5
f 551/1/5 547/1/5 550/1/5
f 552/7/5 550/7/5 549/7/5
f 553/7/5 550/7/5 552/7/5
f 554/1/5 548/1/5 544/1/5
f 555/1/5 548/1/5 554/1/5
f 556/1/5 547/1/5 551/1/5
f 557/1/5 547/1/5 556/1/5
f 562/2/5 559/2/5 558/2/5
f 563/2/5 559/2/5 562/2/5
f 564/2/5 561/2/5 560/2/5
f 565/2/5 561/2/5 564/2/5
f 570/7/5 567/7/5 566/7/5
f 571/7/5 567/7/5 570/7/5
f 572/7/5 567/7/5 571/7/5
f 573/7/5 569/7/5 568/7/5
f 574/7/5 569/7/5 573/7/5
f 575/7/5 569/7/5 574/7/5
f 580/7/5 577/7/5 576/7/5
f 581/7/5 577/7/5 580/7/5
f 582/7/5 579/7/5 578/7/5
f 583/7/5 579/7/5 582/7/5
f 588/7/5 585/7/5 584/7/5
f 589/7/5 587/7/5 586/7/5
f 590/7/5 588/7/5 584/7/5
f 590/7/5 589/7/5 588/7/5
f 591/7/5 587/7/5 589/7/5
f 591/7/5 589/7/5 590/7/5
f 594/7/5 593/7/5 592/7/5
f 595/7/5 593/7/5 594/7/5
f 600/7/5 597/7/5 596/7/5
f 603/7/5 599/7/5 598/7/5
f 604/7/5 601/7/5 600/7/5
f 604/7/5 600/7/5 596/7/5
f 605/7/5 601/7/5 604/7/5
f 606/7/5 603/7/5 602/7/5
f 607/7/5 599/7/5 603/7/5
f 607/7/5 603/7/5 606/7/5
f 608/7/5 604/7/5 596/7/5
f 609/7/5 599/7/5 607/7/5
f 610/7/5 608/7/5 596/7/5
f 611/7/5 608/7/5 610/7/5
f 612/7/5 599/7/5 609/7/5
f 613/7/5 599/7/5 612/7/5
f 617/7/5 615/7/5 614/7/5
f 618/7/5 615/7/5 617/7/5
f 620/7/5 617/7/5 616/7/5
f 620/7/5 619/7/5 618/7/5
f 620/7/5 618/7/5 617/7/5
f 621/7/5 619/7/5 620/7/5
f 622/7/5 619/7/5 621/7/5
f 623/7/5 619/7/5 622/7/5
f 624/7/5 622/7/5 621/7/5
f 625/7/5 622/7/5 624/7/5
f 626/7/6 627/7/6 630/7/6
f 630/7/6 627/7/6 631/7/6
f 628/7/6 629/7/6 632/7/6
f 632/7/6 629/7/6 633/7/6
f 634/8/6 635/8/6 642/8/6
f 636/11/6 637/11/6 643/11/6
f 643/11/6 637/11/6 644/11/6
f 638/8/6 639/8/6 645/8/6
f 640/8/6 641/8/6 647/8/6
f 641/3/6 642/3/6 648/3/6
f 647/8/6 641/8/6 648/8/6
f 647/9/6 648/9/6 649/9/6
f 648/3/6 642/3/6 650/3/6
f 649/9/6 648/9/6 650/9/6
f 642/8/6 635/8/6 651/8/6
f 650/3/6 642/3/6 651/3/6
f 645/3/6 646/3/6 652/3/6
f 638/8/6 645/8/6 652/8/6
f 652/3/6 646/3/6 653/3/6
f 651/8/6 635/8/6 654/8/6
f 654/8/6 635/8/6 655/8/6
f 638/8/6 652/8/6 656/8/6
f 656/8/6 652/8/6 657/8/6
f 658/1/6 659/1/6 660/1/6
f 660/1/6 659/1/6 661/1/6
f 658/1/6 660/1/6 662/1/6
f 662/1/6 660/1/6 663/1/6
f 664/7/6 665/7/6 666/7/6
f 666/7/6 665/7/6 667/7/6
f 668/7/6 669/7/6 672/7/6
f 670/7/6 671/7/6 673/7/6
f 668/7/6 672/7/6 676/7/6
f 676/7/6 672/7/6 677/7/6
f 673/7/6 671/7/6 678/7/6
f 678/7/6 671/7/6 679/7/6
f 674/1/6 675/1/6 680/1/6
f 680/1/6 675/1/6 681/1/6
f 682/7/6 683/7/6 685/7/6
f 685/7/6 683/7/6 686/7/6
f 684/7/6 685/7/6 688/7/6
f 686/7/6 687/7/6 688/7/6
f 685/7/6 686/7/6 688/7/6
f 688/7/6 687/7/6 689/7/6
f 689/7/6 687/7/6 690/7/6
f 690/7/6 687/7/6 691/7/6
f 691/7/6 687/7/6 692/7/6
f 692/7/6 687/7/6 693/7/6
f 694/3/6 695/3/6 698/3/6
f 698/3/6 695/3/6 699/3/6
f 696/3/6 697/3/6 700/3/6
f 700/3/6 697/3/6 701/3/6
f 702/3/6 703/3/6 706/3/6
f 706/3/6 703/3/6 707/3/6
f 704/3/6 705/3/6 708/3/6
f 708/3/6 705/3/6 709/3/6
f 710/3/6 711/3/6 713/3/6
f 713/3/6 711/3/6 714/3/6
f 712/3/6 713/3/6 716/3/6
f 714/3/6 715/3/6 716/3/6
f 713/3/6 714/3/6 716/3/6
f 716/3/6 715/3/6 717/3/6
f 717/3/6 715/3/6 718/3/6
f 718/3/6 715/3/6 719/3/6
f 717/3/6 718/3/6 720/3/6
f 720/3/6 718/3/6 721/3/6
