# generated by tools/rig_people.py — do not edit
mtllib people.mtl
o leg-l
usemtl palette
v -3 0 -1
v -3 0 2
v -3 1 2
v -3 1 -1
v -3 1 0
v -3 3 2
v -3 3 0
v -3 4 2
v -3 4 0
v -3 5 2
v -3 5 0
v -3 5 1
v -3 6 1
v -3 6 0
v -3 6 2
v -3 7 2
v -3 7 0
v -1 1 -1
v -1 1 2
v -1 0 2
v -1 0 -1
v -1 3 0
v -1 3 2
v -1 1 0
v -1 4 0
v -1 4 2
v -1 7 0
v -1 7 2
v -1 5 0
v -2 5 0
v -2 7 0
v -2 6 0
vt 0.5253906 0.5
vt 0.0410156 0.5
vt 0.3652344 0.5
vt 0.3613281 0.5
vt 0.3574219 0.5
vn -1 0 0
vn 1 0 0
vn 0 0 1
vn 0 0 -1
vn 0 1 0
vn 0 -1 0
f 1/1/1 2/1/1 3/1/1 4/1/1
f 5/2/1 3/2/1 6/2/1 7/2/1
f 7/3/1 6/3/1 8/3/1 9/3/1
f 9/4/1 8/4/1 10/4/1 11/4/1
f 11/5/1 12/5/1 13/5/1 14/5/1
f 14/4/1 15/4/1 16/4/1 17/4/1
f 12/4/1 10/4/1 15/4/1 13/4/1
f 18/1/2 19/1/2 20/1/2 21/1/2
f 22/2/2 23/2/2 19/2/2 24/2/2
f 25/3/2 26/3/2 23/3/2 22/3/2
f 27/4/2 28/4/2 26/4/2 25/4/2
f 19/1/3 3/1/3 2/1/3 20/1/3
f 23/2/3 6/2/3 3/2/3 19/2/3
f 26/3/3 8/3/3 6/3/3 23/3/3
f 28/4/3 16/4/3 8/4/3 26/4/3
f 21/1/4 1/1/4 4/1/4 18/1/4
f 24/2/4 5/2/4 7/2/4 22/2/4
f 22/3/4 7/3/4 9/3/4 25/3/4
f 25/4/4 9/4/4 11/4/4 29/4/4
f 29/4/4 30/4/4 31/4/4 27/4/4
f 30/5/4 11/5/4 14/5/4 32/5/4
f 32/4/4 14/4/4 17/4/4 31/4/4
f 18/1/5 4/1/5 5/1/5 24/1/5
f 27/4/5 17/4/5 16/4/5 28/4/5
f 20/1/6 2/1/6 1/1/6 21/1/6
