# generated by tools/rig_people.py — do not edit
mtllib people.mtl
o arm-r
usemtl palette
v 3 6 -1.5
v 3 6 0.5
v 3 8 0.5
v 3 8 -1.5
v 3 10 -1.5
v 3 10 -0.5
v 3 11 -0.5
v 3 11 -1.5
v 3 11 0.5
v 3 13 0.5
v 3 13 -1.5
v 3 10 0.5
v 2 8 -1.5
v 2 8 0.5
v 2 10 0.5
v 2 10 -1.5
v 2 13 -1.5
v 2 13 0.5
v 2 14 0.5
v 2 14 -1.5
v 4 8 -1.5
v 4 8 0.5
v 4 6 0.5
v 4 6 -1.5
v 4 11 -1.5
v 4 11 -0.5
v 4 8 -0.5
v 4 14 -1.5
v 4 14 0.5
v 4 11 0.5
v 3 14 0.5
v 3 14 -1.5
vt 0.9902344 0.5
vt 0.9824219 0.5
vn -1 0 0
vn 1 0 0
vn 0 0 1
vn 0 0 -1
vn 0 1 0
vn 0 -1 0
f 1/1/1 2/1/1 3/1/1 4/1/1
f 5/2/1 6/2/1 7/2/1 8/2/1
f 8/1/1 9/1/1 10/1/1 11/1/1
f 6/1/1 12/1/1 9/1/1 7/1/1
f 13/1/1 14/1/1 15/1/1 16/1/1
f 17/1/1 18/1/1 19/1/1 20/1/1
f 21/1/2 22/1/2 23/1/2 24/1/2
f 25/2/2 26/2/2 27/2/2 21/2/2
f 28/1/2 29/1/2 30/1/2 25/1/2
f 26/1/2 30/1/2 22/1/2 27/1/2
f 29/1/3 31/1/3 2/1/3 23/1/3
f 12/1/3 15/1/3 14/1/3 3/1/3
f 31/1/3 19/1/3 18/1/3 10/1/3
f 24/1/4 1/1/4 4/1/4 21/1/4
f 21/2/4 4/2/4 8/2/4 25/2/4
f 25/1/4 8/1/4 32/1/4 28/1/4
f 4/1/4 13/1/4 16/1/4 5/1/4
f 11/1/4 17/1/4 20/1/4 32/1/4
f 5/1/5 16/1/5 15/1/5 12/1/5
f 28/1/5 20/1/5 19/1/5 29/1/5
f 23/1/6 2/1/6 1/1/6 24/1/6
f 3/1/6 14/1/6 13/1/6 4/1/6
f 10/1/6 18/1/6 17/1/6 11/1/6
