# generated by tools/rig_people.py — do not edit
mtllib people.mtl
o body
usemtl palette
v 1 19 -2
v 1 19 -1
v 1 20 -1
v 1 20 -2
v -1 14 1
v -1 14 3
v -1 15 3
v -1 15 1
v -2 24 4
v -2 24 5
v -2 25 5
v -2 25 4
v -3 21 -5
v -3 21 -4
v -3 22 -4
v -3 22 -5
v -3 19 -2
v -3 19 -1
v -3 20 -1
v -3 20 -2
v -3 23 -2
v -3 23 -1
v -3 24 -1
v -3 24 -2
v -3 15 -1
v -3 15 4
v -3 16 4
v -3 16 -1
v -3 16 1
v -3 17 1
v -3 17 -1
v -3 17 0
v -3 18 0
v -3 18 -1
v -3 24 4
v -3 25 4
v -3 25 -1
v -3 7 0
v -3 7 1
v -3 8 1
v -3 8 0
v -3 8 4
v -3 14 4
v -3 14 0
v -3 7 3
v -3 8 3
v -3 7 4
v -3 16 5
v -3 17 5
v -3 17 4
v -3 23 4
v -3 23 5
v -3 24 5
v -4 21 -4
v -4 21 -2
v -4 22 -2
v -4 22 -4
v -4 21 5
v -4 23 5
v -4 23 -2
v -4 18 -1
v -4 18 1
v -4 21 1
v -4 21 -1
v -4 23 -1
v -4 23 4
v -4 24 4
v -4 24 -1
v -4 17 0
v -4 17 1
v -4 18 0
v -4 16 1
v -4 16 2
v -4 19 2
v -4 19 1
v -4 19 5
v -4 16 4
v -4 19 4
v -4 17 4
v -4 17 5
v 4 22 -4
v 4 22 -2
v 4 21 -2
v 4 21 -4
v 4 23 -2
v 4 23 5
v 4 21 5
v 4 21 -1
v 4 19 5
v 4 19 -1
v 4 24 -1
v 4 24 4
v 4 23 4
v 4 23 -1
v 4 19 0
v 4 19 1
v 4 17 1
v 4 17 0
v 4 18 1
v 4 18 2
v 4 16 2
v 4 16 1
v 4 18 5
v 4 18 4
v 4 16 4
v 4 17 5
v 4 17 4
v 3 22 -5
v 3 22 -4
v 3 21 -4
v 3 21 -5
v 3 20 -2
v 3 20 -1
v 3 19 -1
v 3 19 -2
v 3 24 -2
v 3 24 -1
v 3 23 -1
v 3 23 -2
v 3 16 -1
v 3 16 4
v 3 15 4
v 3 15 -1
v 3 17 -1
v 3 17 1
v 3 16 1
v 3 19 0
v 3 17 0
v 3 25 -1
v 3 25 4
v 3 24 4
v 3 8 0
v 3 8 1
v 3 7 1
v 3 7 0
v 3 14 0
v 3 14 4
v 3 8 4
v 3 8 3
v 3 7 3
v 3 7 4
v 3 17 4
v 3 17 5
v 3 16 5
v 3 24 5
v 3 23 5
v 3 23 4
v 2 25 4
v 2 25 5
v 2 24 5
v 2 24 4
v 1 15 1
v 1 15 3
v 1 14 3
v 1 14 1
v -1 20 -2
v -1 20 -1
v -1 19 -1
v -1 19 -2
v 3 13 4
v -3 13 4
v 2 14 4
v 2 13 4
v -2 14 4
v -2 13 4
v 3 21 -1
v 1 16 -1
v 1 18 -1
v 3 18 -1
v 2 18 -1
v 2 19 -1
v -3 21 -1
v -1 16 -1
v -1 17 -1
v 1 17 -1
v -1 18 -1
v -2 18 -1
v -2 19 -1
v -3 9 0
v 3 9 0
v -0 9 0
v -0 12 0
v 3 12 0
v 2 12 0
v 2 14 0
v -0 14 0
v -1 9 0
v -1 10 0
v -0 10 0
v -3 10 0
v -3 11 0
v -0 11 0
v -1 11 0
v -1 12 0
v -3 12 0
v -3 13 0
v -0 13 0
v -2 13 0
v -2 14 0
v -2 14 1
v 2 14 1
v 1 14 4
v -2 14 3
v 1 7 3
v 1 7 1
v -1 7 3
v -1 7 1
v 3 15 1
v -3 15 1
v 1 15 4
v -3 15 3
v 3 16 2
v -3 16 2
vt 0.4902344 0.5
vt 0.0410156 0.5
vt 0.9394531 0.5
vt 0.5097656 0.5
vt 0.9628906 0.5
vt 0.0527344 0.5
vt 0.9785156 0.5
vt 0.5253906 0.5
vt 0.9746094 0.5
vn -1 0 0
vn 1 0 0
vn 0 0 1
vn 0 0 -1
vn 0 1 0
vn 0 -1 0
f 1/1/1 2/1/1 3/1/1 4/1/1
f 5/2/1 6/2/1 7/2/1 8/2/1
f 9/3/1 10/3/1 11/3/1 12/3/1
f 13/4/1 14/4/1 15/4/1 16/4/1
f 17/1/1 18/1/1 19/1/1 20/1/1
f 21/3/1 22/3/1 23/3/1 24/3/1
f 25/2/1 26/2/1 27/2/1 28/2/1
f 28/2/1 29/2/1 30/2/1 31/2/1
f 31/2/1 32/2/1 33/2/1 34/2/1
f 23/3/1 35/3/1 36/3/1 37/3/1
f 38/5/1 39/5/1 40/5/1 41/5/1
f 41/3/1 42/3/1 43/3/1 44/3/1
f 39/3/1 45/3/1 46/3/1 40/3/1
f 45/5/1 47/5/1 42/5/1 46/5/1
f 27/1/1 48/1/1 49/1/1 50/1/1
f 51/3/1 52/3/1 53/3/1 35/3/1
f 54/4/1 55/4/1 56/4/1 57/4/1
f 55/3/1 58/3/1 59/3/1 60/3/1
f 61/1/1 62/1/1 63/1/1 64/1/1
f 65/3/1 66/3/1 67/3/1 68/3/1
f 69/1/1 70/1/1 62/1/1 71/1/1
f 72/6/1 73/6/1 74/6/1 75/6/1
f 75/1/1 76/1/1 58/1/1 63/1/1
f 73/1/1 77/1/1 78/1/1 74/1/1
f 79/1/1 80/1/1 76/1/1 78/1/1
f 81/4/2 82/4/2 83/4/2 84/4/2
f 85/3/2 86/3/2 87/3/2 83/3/2
f 88/1/2 87/1/2 89/1/2 90/1/2
f 91/3/2 92/3/2 93/3/2 94/3/2
f 95/1/2 96/1/2 97/1/2 98/1/2
f 99/6/2 100/6/2 101/6/2 102/6/2
f 96/1/2 89/1/2 103/1/2 99/1/2
f 100/1/2 104/1/2 105/1/2 101/1/2
f 104/1/2 103/1/2 106/1/2 107/1/2
f 108/4/2 109/4/2 110/4/2 111/4/2
f 112/1/2 113/1/2 114/1/2 115/1/2
f 116/3/2 117/3/2 118/3/2 119/3/2
f 120/2/2 121/2/2 122/2/2 123/2/2
f 124/2/2 125/2/2 126/2/2 120/2/2
f 114/2/2 127/2/2 128/2/2 124/2/2
f 129/3/2 130/3/2 131/3/2 117/3/2
f 132/5/2 133/5/2 134/5/2 135/5/2
f 136/3/2 137/3/2 138/3/2 132/3/2
f 133/3/2 139/3/2 140/3/2 134/3/2
f 139/5/2 138/5/2 141/5/2 140/5/2
f 142/1/2 143/1/2 144/1/2 121/1/2
f 131/3/2 145/3/2 146/3/2 147/3/2
f 148/3/2 149/3/2 150/3/2 151/3/2
f 152/2/2 153/2/2 154/2/2 155/2/2
f 156/1/2 157/1/2 158/1/2 159/1/2
f 153/2/3 7/2/3 6/2/3 154/2/3
f 107/1/3 142/1/3 121/1/3 105/1/3
f 92/3/3 131/3/3 147/3/3 93/3/3
f 138/5/3 42/5/3 47/5/3 141/5/3
f 160/3/3 161/3/3 42/3/3 138/3/3
f 137/3/3 162/3/3 163/3/3 160/3/3
f 121/2/3 27/2/3 26/2/3 122/2/3
f 130/3/3 148/3/3 151/3/3 131/3/3
f 162/7/3 164/7/3 165/7/3 163/7/3
f 164/3/3 43/3/3 161/3/3 165/3/3
f 12/3/3 36/3/3 35/3/3 9/3/3
f 50/1/3 79/1/3 77/1/3 27/1/3
f 35/3/3 67/3/3 66/3/3 51/3/3
f 87/1/3 58/1/3 80/1/3 106/1/3
f 86/3/3 59/3/3 58/3/3 87/3/3
f 143/1/3 49/1/3 48/1/3 144/1/3
f 145/3/3 53/3/3 52/3/3 146/3/3
f 149/3/3 11/3/3 10/3/3 150/3/3
f 111/4/4 13/4/4 16/4/4 108/4/4
f 84/4/4 110/4/4 109/4/4 81/4/4
f 14/4/4 54/4/4 57/4/4 15/4/4
f 82/3/4 56/3/4 60/3/4 85/3/4
f 115/1/4 1/1/4 4/1/4 112/1/4
f 119/3/4 21/3/4 24/3/4 116/3/4
f 159/1/4 17/1/4 20/1/4 156/1/4
f 90/1/4 114/1/4 166/1/4 88/1/4
f 94/3/4 118/3/4 117/3/4 91/3/4
f 123/2/4 25/2/4 28/2/4 120/2/4
f 120/2/4 167/2/4 168/2/4 169/2/4
f 169/2/4 170/2/4 171/2/4 114/2/4
f 113/2/4 19/2/4 172/2/4 166/2/4
f 117/3/4 23/3/4 37/3/4 129/3/4
f 170/8/4 168/8/4 2/8/4 171/8/4
f 167/9/4 173/9/4 174/9/4 175/9/4
f 175/2/4 31/2/4 34/2/4 168/2/4
f 168/2/4 176/2/4 157/2/4 3/2/4
f 173/2/4 28/2/4 31/2/4 174/2/4
f 176/8/4 177/8/4 178/8/4 158/8/4
f 177/2/4 34/2/4 18/2/4 178/2/4
f 34/1/4 61/1/4 64/1/4 172/1/4
f 22/3/4 65/3/4 68/3/4 23/3/4
f 98/1/4 128/1/4 127/1/4 95/1/4
f 135/5/4 38/5/4 41/5/4 132/5/4
f 132/3/4 41/3/4 179/3/4 180/3/4
f 180/3/4 181/3/4 182/3/4 183/3/4
f 183/3/4 184/3/4 185/3/4 136/3/4
f 184/7/4 182/7/4 186/7/4 185/7/4
f 181/7/4 187/7/4 188/7/4 189/7/4
f 189/3/4 190/3/4 191/3/4 192/3/4
f 192/7/4 193/7/4 194/7/4 182/7/4
f 182/3/4 195/3/4 196/3/4 197/3/4
f 197/7/4 198/7/4 199/7/4 186/7/4
f 187/3/4 179/3/4 190/3/4 188/3/4
f 193/3/4 191/3/4 195/3/4 194/3/4
f 198/3/4 196/3/4 44/3/4 199/3/4
f 32/1/4 69/1/4 71/1/4 33/1/4
f 102/6/4 126/6/4 125/6/4 97/6/4
f 155/2/4 5/2/4 8/2/4 152/2/4
f 29/6/4 72/6/4 70/6/4 30/6/4
f 136/3/5 185/3/5 162/3/5 137/3/5
f 185/7/5 199/7/5 200/7/5 201/7/5
f 201/7/5 155/7/5 202/7/5 162/7/5
f 154/7/5 203/7/5 164/7/5 202/7/5
f 5/7/5 200/7/5 203/7/5 6/7/5
f 199/3/5 44/3/5 43/3/5 164/3/5
f 112/1/5 4/1/5 3/1/5 113/1/5
f 156/1/5 20/1/5 19/1/5 157/1/5
f 81/4/5 57/4/5 56/4/5 82/4/5
f 108/4/5 16/4/5 15/4/5 109/4/5
f 85/3/5 119/3/5 118/3/5 94/3/5
f 93/3/5 147/3/5 146/3/5 86/3/5
f 21/3/5 60/3/5 65/3/5 22/3/5
f 51/3/5 66/3/5 59/3/5 52/3/5
f 91/3/5 117/3/5 131/3/5 92/3/5
f 116/3/5 24/3/5 23/3/5 117/3/5
f 131/3/5 151/3/5 150/3/5 145/3/5
f 9/3/5 35/3/5 53/3/5 10/3/5
f 23/3/5 68/3/5 67/3/5 35/3/5
f 129/3/5 37/3/5 36/3/5 130/3/5
f 148/3/5 12/3/5 11/3/5 149/3/5
f 134/5/6 39/5/6 38/5/6 135/5/6
f 140/3/6 204/3/6 205/3/6 134/3/6
f 141/5/6 47/5/6 45/5/6 140/5/6
f 204/5/6 206/5/6 207/5/6 205/5/6
f 206/3/6 45/3/6 39/3/6 207/3/6
f 208/2/6 209/2/6 25/2/6 123/2/6
f 122/2/6 210/2/6 152/2/6 208/2/6
f 210/2/6 26/2/6 211/2/6 153/2/6
f 7/2/6 211/2/6 209/2/6 8/2/6
f 101/6/6 212/6/6 126/6/6 102/6/6
f 105/1/6 121/1/6 212/1/6 101/1/6
f 144/1/6 48/1/6 27/1/6 121/1/6
f 213/6/6 73/6/6 72/6/6 29/6/6
f 27/1/6 77/1/6 73/1/6 213/1/6
f 97/1/6 125/1/6 128/1/6 98/1/6
f 106/1/6 143/1/6 142/1/6 107/1/6
f 30/1/6 70/1/6 69/1/6 32/1/6
f 49/1/6 80/1/6 79/1/6 50/1/6
f 33/1/6 71/1/6 61/1/6 34/1/6
f 95/1/6 127/1/6 114/1/6 90/1/6
f 114/1/6 2/1/6 1/1/6 115/1/6
f 158/1/6 18/1/6 17/1/6 159/1/6
f 83/4/6 55/4/6 54/4/6 84/4/6
f 88/3/6 64/3/6 55/3/6 83/3/6
f 110/4/6 14/4/6 13/4/6 111/4/6
