# MagicaVoxel @ Ephtracy

# group
o 

# material
mtllib Character-21.mtl
usemtl palette

# normals
vn -1 0 0
vn 1 0 0
vn 0 0 1
vn 0 0 -1
vn 0 -1 0
vn 0 1 0

# texcoords
vt 0.0371094 0.5
vt 0.0488281 0.5
vt 0.474609 0.5
vt 0.525391 0.5
vt 0.673828 0.5
vt 0.681641 0.5
vt 0.880859 0.5
vt 0.896484 0.5
vt 0.970703 0.5

# verts
v -0.7 0.6 3.3
v -0.7 0.6 3.1
v -0.7 1.1 3.3
v -0.7 1.1 3.1
v -0.7 1.2 3.3
v -0.7 1.2 3.1
v -0.7 1.4 3.3
v -0.7 1.4 3.1
v -0.7 2 3.7
v -0.7 2 3.2
v -0.7 2.1 3.7
v -0.7 2.1 3.2
v -0.6 1.6 3.3
v -0.6 1.6 3.2
v -0.6 1.6 2.9
v -0.6 1.7 3.4
v -0.6 1.7 3.3
v -0.6 1.9 3.5
v -0.6 1.9 3.4
v -0.6 1.9 3.3
v -0.6 1.9 3.2
v -0.6 2 3.8
v -0.6 2 3.7
v -0.6 2 3.5
v -0.6 2 3.2
v -0.6 2 2.9
v -0.6 2.1 3.8
v -0.6 2.1 3.7
v -0.6 2.1 3.6
v -0.6 2.1 3.2
v -0.6 2.3 3.6
v -0.6 2.3 3.5
v -0.6 2.4 3.5
v -0.6 2.4 3.4
v -0.6 2.4 3
v -0.6 2.4 2.9
v -0.6 2.5 3.4
v -0.6 2.5 3
v -0.5 0 3.4
v -0.5 0 3.1
v -0.5 0.1 3.4
v -0.5 0.1 3.3
v -0.5 0.1 3.1
v -0.5 0.2 3.3
v -0.5 0.2 3.1
v -0.5 0.6 3.3
v -0.5 0.6 3.1
v -0.5 0.7 3.4
v -0.5 0.7 3.3
v -0.5 0.7 3.1
v -0.5 0.7 3
v -0.5 1.1 3.3
v -0.5 1.1 3.1
v -0.5 1.2 3.3
v -0.5 1.2 3.1
v -0.5 1.4 3.4
v -0.5 1.4 3.3
v -0.5 1.4 3.1
v -0.5 1.4 3
v -0.5 1.5 3.5
v -0.5 1.5 3
v -0.5 1.6 3.3
v -0.5 1.6 3.2
v -0.5 1.6 3
v -0.5 1.7 3.4
v -0.5 1.7 3.3
v -0.5 1.9 3.6
v -0.5 1.9 3.5
v -0.5 1.9 3.4
v -0.5 2 3.6
v -0.5 2 3.5
v -0.5 2.3 3.6
v -0.5 2.3 3.5
v -0.5 2.4 3.6
v -0.5 2.4 3.5
v -0.5 2.4 3.4
v -0.5 2.4 3
v -0.5 2.4 2.9
v -0.5 2.5 3.5
v -0.5 2.5 3.4
v -0.5 2.5 3
v -0.5 2.5 2.9
v -0.3 1.4 3.3
v -0.3 1.4 3.1
v -0.3 1.5 3.3
v -0.3 1.5 3.1
v -0.1 0 3.4
v -0.1 0 3.1
v -0.1 0.1 3.4
v -0.1 0.1 3.3
v -0.1 0.1 3.1
v -0.1 0.2 3.3
v -0.1 0.2 3.1
v -0.1 0.7 3.3
v -0.1 0.7 3.1
v -0.1 1.9 3.6
v -0.1 1.9 3.5
v -0.1 2 3.6
v -0.1 2 3.5
v -0.3 0 3.4
v -0.3 0 3.1
v -0.3 0.1 3.4
v -0.3 0.1 3.3
v -0.3 0.1 3.1
v -0.3 0.2 3.3
v -0.3 0.2 3.1
v -0.3 0.7 3.3
v -0.3 0.7 3.1
v -0.3 1.9 3.6
v -0.3 1.9 3.5
v -0.3 2 3.6
v -0.3 2 3.5
v -0.1 1.4 3.3
v -0.1 1.4 3.1
v -0.1 1.5 3.3
v -0.1 1.5 3.1
v 0.1 0 3.4
v 0.1 0 3.1
v 0.1 0.1 3.4
v 0.1 0.1 3.3
v 0.1 0.1 3.1
v 0.1 0.2 3.3
v 0.1 0.2 3.1
v 0.1 0.6 3.3
v 0.1 0.6 3.1
v 0.1 0.7 3.4
v 0.1 0.7 3.3
v 0.1 0.7 3.1
v 0.1 0.7 3
v 0.1 1.1 3.3
v 0.1 1.1 3.1
v 0.1 1.2 3.3
v 0.1 1.2 3.1
v 0.1 1.4 3.4
v 0.1 1.4 3.3
v 0.1 1.4 3.1
v 0.1 1.4 3
v 0.1 1.5 3.5
v 0.1 1.5 3
v 0.1 1.6 3.3
v 0.1 1.6 3.2
v 0.1 1.6 3
v 0.1 1.7 3.4
v 0.1 1.7 3.3
v 0.1 1.9 3.6
v 0.1 1.9 3.5
v 0.1 2 3.6
v 0.1 2 3.5
v 0.1 2 3.4
v 0.1 2.3 3.6
v 0.1 2.3 3.5
v 0.1 2.4 3.6
v 0.1 2.4 3.5
v 0.1 2.4 3.4
v 0.1 2.4 3
v 0.1 2.4 2.9
v 0.1 2.5 3.5
v 0.1 2.5 3.4
v 0.1 2.5 3
v 0.1 2.5 2.9
v 0.2 1.6 3.3
v 0.2 1.6 3.2
v 0.2 1.6 2.9
v 0.2 1.7 3.4
v 0.2 1.7 3.3
v 0.2 1.9 3.3
v 0.2 1.9 3.2
v 0.2 2 3.8
v 0.2 2 3.7
v 0.2 2 3.4
v 0.2 2 3.2
v 0.2 2 2.9
v 0.2 2.1 3.8
v 0.2 2.1 3.7
v 0.2 2.1 3.6
v 0.2 2.1 3.2
v 0.2 2.3 3.6
v 0.2 2.3 3.5
v 0.2 2.4 3.5
v 0.2 2.4 3.4
v 0.2 2.4 3
v 0.2 2.4 2.9
v 0.2 2.5 3.4
v 0.2 2.5 3
v 0.3 0.6 3.3
v 0.3 0.6 3.1
v 0.3 1.1 3.3
v 0.3 1.1 3.1
v 0.3 1.2 3.3
v 0.3 1.2 3.1
v 0.3 1.4 3.3
v 0.3 1.4 3.1
v 0.3 2 3.7
v 0.3 2 3.2
v 0.3 2.1 3.7
v 0.3 2.1 3.2
v -0.6 2 3.8
v -0.6 2.1 3.8
v 0.2 2 3.8
v 0.2 2.1 3.8
v -0.7 2 3.7
v -0.7 2.1 3.7
v -0.6 2 3.7
v -0.6 2.1 3.7
v 0.2 2 3.7
v 0.2 2.1 3.7
v 0.3 2 3.7
v 0.3 2.1 3.7
v -0.6 2.1 3.6
v -0.6 2.3 3.6
v -0.5 1.9 3.6
v -0.5 2 3.6
v -0.5 2.3 3.6
v -0.5 2.4 3.6
v -0.3 1.9 3.6
v -0.3 2 3.6
v -0.1 1.9 3.6
v -0.1 2 3.6
v 0.1 1.9 3.6
v 0.1 2 3.6
v 0.1 2.3 3.6
v 0.1 2.4 3.6
v 0.2 2.1 3.6
v 0.2 2.3 3.6
v -0.6 1.9 3.5
v -0.6 2 3.5
v -0.6 2.3 3.5
v -0.6 2.4 3.5
v -0.5 1.5 3.5
v -0.5 1.9 3.5
v -0.5 2 3.5
v -0.5 2.3 3.5
v -0.5 2.4 3.5
v -0.5 2.5 3.5
v -0.4 1.8 3.5
v -0.4 1.9 3.5
v -0.3 1.6 3.5
v -0.3 1.7 3.5
v -0.3 1.8 3.5
v -0.3 1.9 3.5
v -0.3 2 3.5
v -0.1 1.6 3.5
v -0.1 1.7 3.5
v -0.1 1.8 3.5
v -0.1 1.9 3.5
v -0.1 2 3.5
v 0 1.8 3.5
v 0 1.9 3.5
v 0.1 1.5 3.5
v 0.1 1.9 3.5
v 0.1 2.3 3.5
v 0.1 2.4 3.5
v 0.1 2.5 3.5
v 0.2 2.3 3.5
v 0.2 2.4 3.5
v -0.6 1.7 3.4
v -0.6 1.9 3.4
v -0.6 2.4 3.4
v -0.6 2.5 3.4
v -0.5 0 3.4
v -0.5 0.1 3.4
v -0.5 0.7 3.4
v -0.5 1.4 3.4
v -0.5 1.7 3.4
v -0.5 1.9 3.4
v -0.5 2.4 3.4
v -0.5 2.5 3.4
v -0.4 0.8 3.4
v -0.4 1 3.4
v -0.4 1.1 3.4
v -0.4 1.4 3.4
v -0.3 0 3.4
v -0.3 0.1 3.4
v -0.3 1.3 3.4
v -0.3 1.4 3.4
v -0.1 0 3.4
v -0.1 0.1 3.4
v -0.1 1.3 3.4
v -0.1 1.4 3.4
v 0 0.8 3.4
v 0 1 3.4
v 0 1.1 3.4
v 0 1.4 3.4
v 0.1 0 3.4
v 0.1 0.1 3.4
v 0.1 0.7 3.4
v 0.1 1.4 3.4
v 0.1 1.7 3.4
v 0.1 2 3.4
v 0.1 2.4 3.4
v 0.1 2.5 3.4
v 0.2 1.7 3.4
v 0.2 2 3.4
v 0.2 2.4 3.4
v 0.2 2.5 3.4
v -0.7 0.6 3.3
v -0.7 1.1 3.3
v -0.7 1.2 3.3
v -0.7 1.4 3.3
v -0.6 1.6 3.3
v -0.6 1.7 3.3
v -0.5 0.1 3.3
v -0.5 0.2 3.3
v -0.5 0.6 3.3
v -0.5 0.7 3.3
v -0.5 1.1 3.3
v -0.5 1.2 3.3
v -0.5 1.4 3.3
v -0.5 1.6 3.3
v -0.5 1.7 3.3
v -0.3 0.1 3.3
v -0.3 0.2 3.3
v -0.3 0.7 3.3
v -0.3 1.4 3.3
v -0.3 1.5 3.3
v -0.1 0.1 3.3
v -0.1 0.2 3.3
v -0.1 0.7 3.3
v -0.1 1.4 3.3
v -0.1 1.5 3.3
v 0.1 0.1 3.3
v 0.1 0.2 3.3
v 0.1 0.6 3.3
v 0.1 0.7 3.3
v 0.1 1.1 3.3
v 0.1 1.2 3.3
v 0.1 1.4 3.3
v 0.1 1.6 3.3
v 0.1 1.7 3.3
v 0.2 1.6 3.3
v 0.2 1.7 3.3
v 0.3 0.6 3.3
v 0.3 1.1 3.3
v 0.3 1.2 3.3
v 0.3 1.4 3.3
v -0.7 2 3.2
v -0.7 2.1 3.2
v -0.6 2 3.2
v -0.6 2.1 3.2
v 0.2 2 3.2
v 0.2 2.1 3.2
v 0.3 2 3.2
v 0.3 2.1 3.2
v -0.7 0.6 3.1
v -0.7 1.1 3.1
v -0.7 1.2 3.1
v -0.7 1.4 3.1
v -0.5 0 3.1
v -0.5 0.1 3.1
v -0.5 0.2 3.1
v -0.5 0.6 3.1
v -0.5 0.7 3.1
v -0.5 1.1 3.1
v -0.5 1.2 3.1
v -0.5 1.4 3.1
v -0.3 0 3.1
v -0.3 0.1 3.1
v -0.3 0.2 3.1
v -0.3 0.7 3.1
v -0.3 1.4 3.1
v -0.3 1.5 3.1
v -0.1 0 3.1
v -0.1 0.1 3.1
v -0.1 0.2 3.1
v -0.1 0.7 3.1
v -0.1 1.4 3.1
v -0.1 1.5 3.1
v 0.1 0 3.1
v 0.1 0.1 3.1
v 0.1 0.2 3.1
v 0.1 0.6 3.1
v 0.1 0.7 3.1
v 0.1 1.1 3.1
v 0.1 1.2 3.1
v 0.1 1.4 3.1
v 0.3 0.6 3.1
v 0.3 1.1 3.1
v 0.3 1.2 3.1
v 0.3 1.4 3.1
v -0.6 2.4 3
v -0.6 2.5 3
v -0.5 0.7 3
v -0.5 1.4 3
v -0.5 1.5 3
v -0.5 1.6 3
v -0.5 2.4 3
v -0.5 2.5 3
v -0.4 1.1 3
v -0.4 1.4 3
v 0 1.1 3
v 0 1.4 3
v 0.1 0.7 3
v 0.1 1.4 3
v 0.1 1.5 3
v 0.1 1.6 3
v 0.1 2.4 3
v 0.1 2.5 3
v 0.2 2.4 3
v 0.2 2.5 3
v -0.6 1.6 2.9
v -0.6 2 2.9
v -0.6 2.4 2.9
v -0.5 2.4 2.9
v -0.5 2.5 2.9
v 0.1 2.4 2.9
v 0.1 2.5 2.9
v 0.2 1.6 2.9
v 0.2 2 2.9
v 0.2 2.4 2.9
v -0.5 0 3.4
v -0.3 0 3.4
v -0.1 0 3.4
v 0.1 0 3.4
v -0.5 0 3.1
v -0.3 0 3.1
v -0.1 0 3.1
v 0.1 0 3.1
v -0.7 0.6 3.3
v -0.5 0.6 3.3
v 0.1 0.6 3.3
v 0.3 0.6 3.3
v -0.7 0.6 3.1
v -0.5 0.6 3.1
v 0.1 0.6 3.1
v 0.3 0.6 3.1
v -0.5 0.7 3.4
v 0.1 0.7 3.4
v -0.5 0.7 3.3
v -0.3 0.7 3.3
v -0.1 0.7 3.3
v 0.1 0.7 3.3
v -0.5 0.7 3.1
v -0.3 0.7 3.1
v -0.1 0.7 3.1
v 0.1 0.7 3.1
v -0.5 0.7 3
v 0.1 0.7 3
v -0.5 1.5 3.5
v 0.1 1.5 3.5
v -0.3 1.5 3.3
v -0.1 1.5 3.3
v -0.3 1.5 3.1
v -0.1 1.5 3.1
v -0.5 1.5 3
v 0.1 1.5 3
v -0.6 1.6 3.3
v -0.5 1.6 3.3
v 0.1 1.6 3.3
v 0.2 1.6 3.3
v -0.6 1.6 3.2
v -0.5 1.6 3.2
v 0.1 1.6 3.2
v 0.2 1.6 3.2
v -0.5 1.6 3
v 0.1 1.6 3
v -0.6 1.6 2.9
v 0.2 1.6 2.9
v -0.6 1.7 3.4
v -0.5 1.7 3.4
v 0.1 1.7 3.4
v 0.2 1.7 3.4
v -0.6 1.7 3.3
v -0.5 1.7 3.3
v 0.1 1.7 3.3
v 0.2 1.7 3.3
v -0.5 1.9 3.6
v -0.3 1.9 3.6
v -0.1 1.9 3.6
v 0.1 1.9 3.6
v -0.6 1.9 3.5
v -0.5 1.9 3.5
v -0.4 1.9 3.5
v -0.3 1.9 3.5
v -0.1 1.9 3.5
v 0 1.9 3.5
v 0.1 1.9 3.5
v -0.6 1.9 3.4
v -0.5 1.9 3.4
v -0.6 2 3.8
v 0.2 2 3.8
v -0.7 2 3.7
v -0.6 2 3.7
v 0.2 2 3.7
v 0.3 2 3.7
v -0.5 2 3.6
v -0.3 2 3.6
v -0.1 2 3.6
v 0.1 2 3.6
v -0.6 2 3.5
v -0.5 2 3.5
v -0.3 2 3.5
v -0.1 2 3.5
v 0.1 2 3.5
v 0.1 2 3.4
v 0.2 2 3.4
v -0.7 2 3.2
v -0.6 2 3.2
v 0.2 2 3.2
v 0.3 2 3.2
v -0.5 0.1 3.4
v -0.3 0.1 3.4
v -0.1 0.1 3.4
v 0.1 0.1 3.4
v -0.5 0.1 3.3
v -0.3 0.1 3.3
v -0.1 0.1 3.3
v 0.1 0.1 3.3
v -0.5 1.4 3.4
v -0.4 1.4 3.4
v -0.3 1.4 3.4
v -0.1 1.4 3.4
v 0 1.4 3.4
v 0.1 1.4 3.4
v -0.7 1.4 3.3
v -0.5 1.4 3.3
v -0.3 1.4 3.3
v -0.1 1.4 3.3
v 0.1 1.4 3.3
v 0.3 1.4 3.3
v -0.7 1.4 3.1
v -0.5 1.4 3.1
v -0.3 1.4 3.1
v -0.1 1.4 3.1
v 0.1 1.4 3.1
v 0.3 1.4 3.1
v -0.5 1.4 3
v -0.4 1.4 3
v 0 1.4 3
v 0.1 1.4 3
v -0.6 2.1 3.8
v 0.2 2.1 3.8
v -0.7 2.1 3.7
v -0.6 2.1 3.7
v 0.2 2.1 3.7
v 0.3 2.1 3.7
v -0.6 2.1 3.6
v 0.2 2.1 3.6
v -0.7 2.1 3.2
v -0.6 2.1 3.2
v 0.2 2.1 3.2
v 0.3 2.1 3.2
v -0.6 2.3 3.6
v -0.5 2.3 3.6
v 0.1 2.3 3.6
v 0.2 2.3 3.6
v -0.6 2.3 3.5
v -0.5 2.3 3.5
v 0.1 2.3 3.5
v 0.2 2.3 3.5
v -0.5 2.4 3.6
v 0.1 2.4 3.6
v -0.6 2.4 3.5
v -0.5 2.4 3.5
v 0.1 2.4 3.5
v 0.2 2.4 3.5
v -0.6 2.4 3.4
v -0.5 2.4 3.4
v 0.1 2.4 3.4
v 0.2 2.4 3.4
v -0.6 2.4 3
v -0.5 2.4 3
v 0.1 2.4 3
v 0.2 2.4 3
v -0.6 2.4 2.9
v -0.5 2.4 2.9
v 0.1 2.4 2.9
v 0.2 2.4 2.9
v -0.5 2.5 3.5
v 0.1 2.5 3.5
v -0.6 2.5 3.4
v -0.5 2.5 3.4
v 0.1 2.5 3.4
v 0.2 2.5 3.4
v -0.6 2.5 3
v -0.5 2.5 3
v 0.1 2.5 3
v 0.2 2.5 3
v -0.5 2.5 2.9
v 0.1 2.5 2.9

# faces
f 3/1/1 2/1/1 1/1/1
f 4/1/1 2/1/1 3/1/1
f 5/7/1 4/7/1 3/7/1
f 6/7/1 4/7/1 5/7/1
f 7/8/1 6/8/1 5/8/1
f 8/8/1 6/8/1 7/8/1
f 11/8/1 10/8/1 9/8/1
f 12/8/1 10/8/1 11/8/1
f 17/2/1 14/2/1 13/2/1
f 19/3/1 17/3/1 16/3/1
f 20/2/1 14/2/1 17/2/1
f 20/3/1 17/3/1 19/3/1
f 21/3/1 15/3/1 14/3/1
f 21/2/1 14/2/1 20/2/1
f 24/3/1 20/3/1 19/3/1
f 24/3/1 19/3/1 18/3/1
f 24/3/1 21/3/1 20/3/1
f 25/3/1 15/3/1 21/3/1
f 25/3/1 21/3/1 24/3/1
f 26/3/1 15/3/1 25/3/1
f 27/8/1 23/8/1 22/8/1
f 28/8/1 23/8/1 27/8/1
f 30/8/1 26/8/1 25/8/1
f 31/8/1 30/8/1 29/8/1
f 32/8/1 30/8/1 31/8/1
f 33/8/1 30/8/1 32/8/1
f 34/8/1 30/8/1 33/8/1
f 35/8/1 26/8/1 30/8/1
f 35/8/1 30/8/1 34/8/1
f 36/8/1 26/8/1 35/8/1
f 37/8/1 35/8/1 34/8/1
f 38/8/1 35/8/1 37/8/1
f 41/4/1 40/4/1 39/4/1
f 42/4/1 40/4/1 41/4/1
f 43/4/1 40/4/1 42/4/1
f 44/5/1 43/5/1 42/5/1
f 45/5/1 43/5/1 44/5/1
f 46/6/1 45/6/1 44/6/1
f 47/6/1 45/6/1 46/6/1
f 52/6/1 49/6/1 48/6/1
f 53/6/1 51/6/1 50/6/1
f 54/6/1 52/6/1 48/6/1
f 55/6/1 51/6/1 53/6/1
f 56/6/1 54/6/1 48/6/1
f 57/6/1 54/6/1 56/6/1
f 58/6/1 51/6/1 55/6/1
f 59/6/1 51/6/1 58/6/1
f 62/1/1 61/1/1 60/1/1
f 63/1/1 61/1/1 62/1/1
f 64/1/1 61/1/1 63/1/1
f 65/1/1 62/1/1 60/1/1
f 66/1/1 62/1/1 65/1/1
f 68/1/1 65/1/1 60/1/1
f 69/1/1 65/1/1 68/1/1
f 70/3/1 68/3/1 67/3/1
f 71/3/1 68/3/1 70/3/1
f 74/8/1 73/8/1 72/8/1
f 75/8/1 73/8/1 74/8/1
f 79/8/1 76/8/1 75/8/1
f 80/8/1 76/8/1 79/8/1
f 81/8/1 78/8/1 77/8/1
f 82/8/1 78/8/1 81/8/1
f 85/1/1 84/1/1 83/1/1
f 86/1/1 84/1/1 85/1/1
f 89/4/1 88/4/1 87/4/1
f 90/4/1 88/4/1 89/4/1
f 91/4/1 88/4/1 90/4/1
f 92/5/1 91/5/1 90/5/1
f 93/5/1 91/5/1 92/5/1
f 94/6/1 93/6/1 92/6/1
f 95/6/1 93/6/1 94/6/1
f 98/3/1 97/3/1 96/3/1
f 99/3/1 97/3/1 98/3/1
f 100/4/2 101/4/2 102/4/2
f 102/4/2 101/4/2 103/4/2
f 103/4/2 101/4/2 104/4/2
f 103/5/2 104/5/2 105/5/2
f 105/5/2 104/5/2 106/5/2
f 105/6/2 106/6/2 107/6/2
f 107/6/2 106/6/2 108/6/2
f 109/3/2 110/3/2 111/3/2
f 111/3/2 110/3/2 112/3/2
f 113/1/2 114/1/2 115/1/2
f 115/1/2 114/1/2 116/1/2
f 117/4/2 118/4/2 119/4/2
f 119/4/2 118/4/2 120/4/2
f 120/4/2 118/4/2 121/4/2
f 120/5/2 121/5/2 122/5/2
f 122/5/2 121/5/2 123/5/2
f 122/6/2 123/6/2 124/6/2
f 124/6/2 123/6/2 125/6/2
f 126/6/2 127/6/2 130/6/2
f 128/6/2 129/6/2 131/6/2
f 126/6/2 130/6/2 132/6/2
f 131/6/2 129/6/2 133/6/2
f 126/6/2 132/6/2 134/6/2
f 134/6/2 132/6/2 135/6/2
f 133/6/2 129/6/2 136/6/2
f 136/6/2 129/6/2 137/6/2
f 138/1/2 139/1/2 140/1/2
f 140/1/2 139/1/2 141/1/2
f 141/1/2 139/1/2 142/1/2
f 138/1/2 140/1/2 143/1/2
f 143/1/2 140/1/2 144/1/2
f 138/1/2 143/1/2 146/1/2
f 145/3/2 146/3/2 147/3/2
f 146/1/2 143/1/2 148/1/2
f 147/3/2 146/3/2 148/3/2
f 148/1/2 143/1/2 149/1/2
f 150/8/2 151/8/2 152/8/2
f 152/8/2 151/8/2 153/8/2
f 153/8/2 154/8/2 157/8/2
f 157/8/2 154/8/2 158/8/2
f 155/8/2 156/8/2 159/8/2
f 159/8/2 156/8/2 160/8/2
f 161/2/2 162/2/2 165/2/2
f 165/2/2 162/2/2 166/2/2
f 164/3/2 165/3/2 166/3/2
f 162/3/2 163/3/2 167/3/2
f 166/2/2 162/2/2 167/2/2
f 164/3/2 166/3/2 170/3/2
f 166/3/2 167/3/2 170/3/2
f 167/3/2 163/3/2 171/3/2
f 170/3/2 167/3/2 171/3/2
f 171/3/2 163/3/2 172/3/2
f 168/8/2 169/8/2 173/8/2
f 173/8/2 169/8/2 174/8/2
f 171/8/2 172/8/2 176/8/2
f 175/8/2 176/8/2 177/8/2
f 177/8/2 176/8/2 178/8/2
f 178/8/2 176/8/2 179/8/2
f 179/8/2 176/8/2 180/8/2
f 176/8/2 172/8/2 181/8/2
f 180/8/2 176/8/2 181/8/2
f 181/8/2 172/8/2 182/8/2
f 180/8/2 181/8/2 183/8/2
f 183/8/2 181/8/2 184/8/2
f 185/1/2 186/1/2 187/1/2
f 187/1/2 186/1/2 188/1/2
f 187/7/2 188/7/2 189/7/2
f 189/7/2 188/7/2 190/7/2
f 189/8/2 190/8/2 191/8/2
f 191/8/2 190/8/2 192/8/2
f 193/8/2 194/8/2 195/8/2
f 195/8/2 194/8/2 196/8/2
f 199/8/3 198/8/3 197/8/3
f 200/8/3 198/8/3 199/8/3
f 203/8/3 202/8/3 201/8/3
f 204/8/3 202/8/3 203/8/3
f 207/8/3 206/8/3 205/8/3
f 208/8/3 206/8/3 207/8/3
f 213/8/3 210/8/3 209/8/3
f 215/3/3 212/3/3 211/3/3
f 216/3/3 212/3/3 215/3/3
f 219/3/3 218/3/3 217/3/3
f 220/3/3 218/3/3 219/3/3
f 221/8/3 214/8/3 213/8/3
f 221/8/3 213/8/3 209/8/3
f 222/8/3 214/8/3 221/8/3
f 223/8/3 221/8/3 209/8/3
f 224/8/3 221/8/3 223/8/3
f 230/3/3 226/3/3 225/3/3
f 231/3/3 226/3/3 230/3/3
f 232/8/3 228/8/3 227/8/3
f 233/8/3 228/8/3 232/8/3
f 235/1/3 230/1/3 229/1/3
f 236/1/3 230/1/3 235/1/3
f 237/1/3 235/1/3 229/1/3
f 238/1/3 235/1/3 237/1/3
f 239/4/3 236/4/3 235/4/3
f 239/1/3 235/1/3 238/1/3
f 240/4/3 236/4/3 239/4/3
f 242/9/3 238/9/3 237/9/3
f 242/1/3 237/1/3 229/1/3
f 243/1/3 240/1/3 239/1/3
f 243/9/3 238/9/3 242/9/3
f 243/1/3 241/1/3 240/1/3
f 243/1/3 239/1/3 238/1/3
f 244/1/3 241/1/3 243/1/3
f 245/1/3 241/1/3 244/1/3
f 246/1/3 241/1/3 245/1/3
f 247/1/3 243/1/3 242/1/3
f 247/1/3 244/1/3 243/1/3
f 247/4/3 245/4/3 244/4/3
f 248/4/3 245/4/3 247/4/3
f 249/1/3 242/1/3 229/1/3
f 249/1/3 247/1/3 242/1/3
f 249/1/3 248/1/3 247/1/3
f 250/1/3 248/1/3 249/1/3
f 252/8/3 234/8/3 233/8/3
f 253/8/3 234/8/3 252/8/3
f 254/8/3 252/8/3 251/8/3
f 255/8/3 252/8/3 254/8/3
f 264/3/3 257/3/3 256/3/3
f 265/3/3 257/3/3 264/3/3
f 266/8/3 259/8/3 258/8/3
f 267/8/3 259/8/3 266/8/3
f 268/6/3 263/6/3 262/6/3
f 269/6/3 263/6/3 268/6/3
f 270/6/3 263/6/3 269/6/3
f 271/6/3 263/6/3 270/6/3
f 272/4/3 261/4/3 260/4/3
f 273/4/3 261/4/3 272/4/3
f 274/8/3 271/8/3 270/8/3
f 275/8/3 271/8/3 274/8/3
f 278/8/3 274/8/3 270/8/3
f 278/7/3 275/7/3 274/7/3
f 279/7/3 275/7/3 278/7/3
f 280/6/3 268/6/3 262/6/3
f 280/5/3 269/5/3 268/5/3
f 281/6/3 270/6/3 269/6/3
f 281/5/3 269/5/3 280/5/3
f 282/8/3 279/8/3 278/8/3
f 282/6/3 270/6/3 281/6/3
f 282/8/3 278/8/3 270/8/3
f 283/8/3 279/8/3 282/8/3
f 284/4/3 277/4/3 276/4/3
f 285/4/3 277/4/3 284/4/3
f 286/6/3 281/6/3 280/6/3
f 286/6/3 280/6/3 262/6/3
f 286/6/3 282/6/3 281/6/3
f 286/6/3 283/6/3 282/6/3
f 287/6/3 283/6/3 286/6/3
f 292/3/3 289/3/3 288/3/3
f 293/3/3 289/3/3 292/3/3
f 294/8/3 291/8/3 290/8/3
f 295/8/3 291/8/3 294/8/3
f 304/1/3 297/1/3 296/1/3
f 305/1/3 297/1/3 304/1/3
f 306/7/3 298/7/3 297/7/3
f 306/1/3 297/1/3 305/1/3
f 307/8/3 299/8/3 298/8/3
f 307/7/3 298/7/3 306/7/3
f 308/8/3 299/8/3 307/8/3
f 309/2/3 301/2/3 300/2/3
f 310/2/3 301/2/3 309/2/3
f 311/5/3 303/5/3 302/5/3
f 312/6/3 305/6/3 304/6/3
f 312/5/3 303/5/3 311/5/3
f 312/6/3 304/6/3 303/6/3
f 313/6/3 305/6/3 312/6/3
f 319/1/3 315/1/3 314/1/3
f 320/1/3 315/1/3 319/1/3
f 321/5/3 317/5/3 316/5/3
f 322/6/3 318/6/3 317/6/3
f 322/5/3 317/5/3 321/5/3
f 323/6/3 318/6/3 322/6/3
f 324/6/3 318/6/3 323/6/3
f 330/2/3 329/2/3 328/2/3
f 331/2/3 329/2/3 330/2/3
f 332/1/3 325/1/3 324/1/3
f 332/1/3 324/1/3 323/1/3
f 333/7/3 326/7/3 325/7/3
f 333/1/3 325/1/3 332/1/3
f 334/8/3 327/8/3 326/8/3
f 334/7/3 326/7/3 333/7/3
f 335/8/3 327/8/3 334/8/3
f 336/8/4 337/8/4 338/8/4
f 338/8/4 337/8/4 339/8/4
f 340/8/4 341/8/4 342/8/4
f 342/8/4 341/8/4 343/8/4
f 344/1/4 345/1/4 351/1/4
f 351/1/4 345/1/4 352/1/4
f 345/7/4 346/7/4 353/7/4
f 352/1/4 345/1/4 353/1/4
f 346/8/4 347/8/4 354/8/4
f 353/7/4 346/7/4 354/7/4
f 354/8/4 347/8/4 355/8/4
f 348/4/4 349/4/4 356/4/4
f 349/5/4 350/5/4 357/5/4
f 356/4/4 349/4/4 357/4/4
f 351/6/4 352/6/4 358/6/4
f 357/5/4 350/5/4 358/5/4
f 350/6/4 351/6/4 358/6/4
f 358/6/4 352/6/4 359/6/4
f 360/1/4 361/1/4 366/1/4
f 366/1/4 361/1/4 367/1/4
f 362/4/4 363/4/4 368/4/4
f 363/5/4 364/5/4 369/5/4
f 368/4/4 363/4/4 369/4/4
f 364/6/4 365/6/4 370/6/4
f 369/5/4 364/5/4 370/5/4
f 370/6/4 365/6/4 371/6/4
f 371/6/4 365/6/4 372/6/4
f 372/1/4 373/1/4 376/1/4
f 371/1/4 372/1/4 376/1/4
f 373/7/4 374/7/4 377/7/4
f 376/1/4 373/1/4 377/1/4
f 374/8/4 375/8/4 378/8/4
f 377/7/4 374/7/4 378/7/4
f 378/8/4 375/8/4 379/8/4
f 380/8/4 381/8/4 386/8/4
f 386/8/4 381/8/4 387/8/4
f 382/6/4 383/6/4 388/6/4
f 388/6/4 383/6/4 389/6/4
f 382/6/4 388/6/4 390/6/4
f 388/8/4 389/8/4 390/8/4
f 390/8/4 389/8/4 391/8/4
f 382/6/4 390/6/4 392/6/4
f 390/6/4 391/6/4 392/6/4
f 392/6/4 391/6/4 393/6/4
f 384/1/4 385/1/4 394/1/4
f 394/1/4 385/1/4 395/1/4
f 396/8/4 397/8/4 398/8/4
f 398/8/4 397/8/4 399/8/4
f 401/8/4 402/8/4 403/8/4
f 401/8/4 403/8/4 405/8/4
f 403/8/4 404/8/4 405/8/4
f 405/8/4 404/8/4 406/8/4
f 400/3/4 401/3/4 407/3/4
f 401/8/4 405/8/4 408/8/4
f 407/3/4 401/3/4 408/3/4
f 408/8/4 405/8/4 409/8/4
f 414/4/5 411/4/5 410/4/5
f 415/4/5 411/4/5 414/4/5
f 416/4/5 413/4/5 412/4/5
f 417/4/5 413/4/5 416/4/5
f 422/1/5 419/1/5 418/1/5
f 423/1/5 419/1/5 422/1/5
f 424/1/5 421/1/5 420/1/5
f 425/1/5 421/1/5 424/1/5
f 428/6/5 427/6/5 426/6/5
f 429/6/5 427/6/5 428/6/5
f 430/6/5 427/6/5 429/6/5
f 431/6/5 427/6/5 430/6/5
f 433/6/5 430/6/5 429/6/5
f 434/6/5 430/6/5 433/6/5
f 436/6/5 433/6/5 432/6/5
f 436/6/5 435/6/5 434/6/5
f 436/6/5 434/6/5 433/6/5
f 437/6/5 435/6/5 436/6/5
f 440/1/5 439/1/5 438/1/5
f 441/1/5 439/1/5 440/1/5
f 442/1/5 440/1/5 438/1/5
f 443/1/5 439/1/5 441/1/5
f 444/1/5 442/1/5 438/1/5
f 444/1/5 443/1/5 442/1/5
f 445/1/5 439/1/5 443/1/5
f 445/1/5 443/1/5 444/1/5
f 450/2/5 447/2/5 446/2/5
f 451/2/5 447/2/5 450/2/5
f 452/2/5 449/2/5 448/2/5
f 453/2/5 449/2/5 452/2/5
f 454/3/5 451/3/5 450/3/5
f 455/3/5 453/3/5 452/3/5
f 456/3/5 454/3/5 450/3/5
f 456/3/5 455/3/5 454/3/5
f 457/3/5 453/3/5 455/3/5
f 457/3/5 455/3/5 456/3/5
f 462/3/5 459/3/5 458/3/5
f 463/3/5 459/3/5 462/3/5
f 464/3/5 461/3/5 460/3/5
f 465/3/5 461/3/5 464/3/5
f 471/3/5 467/3/5 466/3/5
f 472/3/5 467/3/5 471/3/5
f 473/3/5 467/3/5 472/3/5
f 474/3/5 469/3/5 468/3/5
f 475/3/5 469/3/5 474/3/5
f 476/3/5 469/3/5 475/3/5
f 477/3/5 471/3/5 470/3/5
f 478/3/5 471/3/5 477/3/5
f 482/8/5 480/8/5 479/8/5
f 483/8/5 480/8/5 482/8/5
f 485/8/5 482/8/5 481/8/5
f 485/8/5 484/8/5 483/8/5
f 485/8/5 483/8/5 482/8/5
f 486/8/5 484/8/5 485/8/5
f 487/8/5 484/8/5 486/8/5
f 488/8/5 484/8/5 487/8/5
f 489/8/5 485/8/5 481/8/5
f 490/8/5 485/8/5 489/8/5
f 491/8/5 487/8/5 486/8/5
f 492/8/5 487/8/5 491/8/5
f 493/8/5 484/8/5 488/8/5
f 494/8/5 484/8/5 493/8/5
f 495/8/5 484/8/5 494/8/5
f 496/8/5 489/8/5 481/8/5
f 497/8/5 489/8/5 496/8/5
f 498/8/5 484/8/5 495/8/5
f 499/8/5 484/8/5 498/8/5
f 500/4/6 501/4/6 504/4/6
f 504/4/6 501/4/6 505/4/6
f 502/4/6 503/4/6 506/4/6
f 506/4/6 503/4/6 507/4/6
f 508/6/6 509/6/6 515/6/6
f 509/8/6 510/8/6 516/8/6
f 510/7/6 511/7/6 516/7/6
f 511/8/6 512/8/6 517/8/6
f 516/7/6 511/7/6 517/7/6
f 512/6/6 513/6/6 518/6/6
f 514/8/6 515/8/6 520/8/6
f 515/6/6 509/6/6 521/6/6
f 520/8/6 515/8/6 521/8/6
f 509/8/6 516/8/6 522/8/6
f 517/8/6 512/8/6 523/8/6
f 518/8/6 519/8/6 524/8/6
f 512/6/6 518/6/6 524/6/6
f 524/8/6 519/8/6 525/8/6
f 521/6/6 509/6/6 526/6/6
f 509/8/6 522/8/6 527/8/6
f 526/6/6 509/6/6 527/6/6
f 522/8/6 523/8/6 527/8/6
f 523/8/6 512/8/6 528/8/6
f 527/8/6 523/8/6 528/8/6
f 512/6/6 524/6/6 528/6/6
f 528/6/6 524/6/6 529/6/6
f 530/8/6 531/8/6 533/8/6
f 533/8/6 531/8/6 534/8/6
f 532/8/6 533/8/6 536/8/6
f 534/8/6 535/8/6 536/8/6
f 533/8/6 534/8/6 536/8/6
f 536/8/6 535/8/6 537/8/6
f 532/8/6 536/8/6 538/8/6
f 538/8/6 536/8/6 539/8/6
f 537/8/6 535/8/6 540/8/6
f 540/8/6 535/8/6 541/8/6
f 542/8/6 543/8/6 546/8/6
f 546/8/6 543/8/6 547/8/6
f 544/8/6 545/8/6 548/8/6
f 548/8/6 545/8/6 549/8/6
f 550/8/6 551/8/6 553/8/6
f 553/8/6 551/8/6 554/8/6
f 552/8/6 553/8/6 556/8/6
f 556/8/6 553/8/6 557/8/6
f 554/8/6 555/8/6 558/8/6
f 558/8/6 555/8/6 559/8/6
f 560/8/6 561/8/6 564/8/6
f 564/8/6 561/8/6 565/8/6
f 562/8/6 563/8/6 566/8/6
f 566/8/6 563/8/6 567/8/6
f 568/8/6 569/8/6 571/8/6
f 571/8/6 569/8/6 572/8/6
f 570/8/6 571/8/6 574/8/6
f 572/8/6 573/8/6 574/8/6
f 571/8/6 572/8/6 574/8/6
f 574/8/6 573/8/6 575/8/6
f 575/8/6 573/8/6 576/8/6
f 576/8/6 573/8/6 577/8/6
f 575/8/6 576/8/6 578/8/6
f 578/8/6 576/8/6 579/8/6
