# generated by tools/rig_people.py — do not edit
mtllib people.mtl
o body
usemtl palette
v 4 15 -2.5
v 4 15 -0.5
v 4 16 -0.5
v 4 16 -2.5
v 4 23 -1.5
v 4 23 0.5
v 4 24 0.5
v 4 24 -1.5
v 3 24 -1.5
v 3 24 0.5
v 3 25 0.5
v 3 25 -1.5
v 2 19 -4.5
v 2 19 -3.5
v 2 20 -3.5
v 2 20 -4.5
v 1 20 -4.5
v 1 20 -3.5
v 1 21 -3.5
v 1 21 -4.5
v -1 14 -1.5
v -1 14 0.5
v -1 15 0.5
v -1 15 -1.5
v -2 24 0.5
v -2 24 4.5
v -2 25 4.5
v -2 25 0.5
v -2 23 1.5
v -2 23 4.5
v -2 24 1.5
v -2 25 1.5
v -2 26 4.5
v -2 26 1.5
v -2 21 2.5
v -2 21 3.5
v -2 23 3.5
v -2 23 2.5
v -3 19 -4.5
v -3 19 -3.5
v -3 20 -3.5
v -3 20 -4.5
v -3 22 -4.5
v -3 22 -3.5
v -3 23 -3.5
v -3 23 -4.5
v -3 15 -3.5
v -3 15 -0.5
v -3 16 -0.5
v -3 16 -3.5
v -3 16 -2.5
v -3 17 -2.5
v -3 17 -3.5
v -3 18 -2.5
v -3 18 -3.5
v -3 23 1.5
v -3 24 1.5
v -3 24 -3.5
v -3 7 -2.5
v -3 7 -1.5
v -3 9 -1.5
v -3 9 -2.5
v -3 10 -1.5
v -3 10 -2.5
v -3 10 1.5
v -3 13 1.5
v -3 13 -2.5
v -3 14 1.5
v -3 14 -2.5
v -3 7 0.5
v -3 8 0.5
v -3 8 -1.5
v -3 10 0.5
v -3 7 1.5
v -3 9 1.5
v -3 9 0.5
v -3 22 1.5
v -3 22 2.5
v -3 23 2.5
v -4 20 -4.5
v -4 20 -1.5
v -4 22 -1.5
v -4 22 -4.5
v -4 18 -3.5
v -4 18 -2.5
v -4 20 -2.5
v -4 20 -3.5
v -4 22 -3.5
v -4 23 -1.5
v -4 23 -3.5
v -4 19 -2.5
v -4 19 -1.5
v -4 25 -1.5
v -4 25 0.5
v -4 26 0.5
v -4 26 -1.5
v -4 19 0.5
v -4 19 2.5
v -4 22 2.5
v -4 22 0.5
v -4 22 1.5
v -4 23 1.5
v -4 23 0.5
v -4 15 1.5
v -4 15 2.5
v -4 19 1.5
v -5 19 -1.5
v -5 19 0.5
v -5 25 0.5
v -5 25 -1.5
v -6 15 -2.5
v -6 15 1.5
v -6 16 1.5
v -6 16 -2.5
v -6 16 -1.5
v -6 19 -1.5
v -6 19 -2.5
v -6 16 0.5
v -6 18 0.5
v -6 18 -1.5
v -6 18 1.5
v -6 19 1.5
v 6 16 -2.5
v 6 16 1.5
v 6 15 1.5
v 6 15 -2.5
v 6 19 -2.5
v 6 19 -1.5
v 6 16 -1.5
v 6 18 -1.5
v 6 18 0.5
v 6 16 0.5
v 6 19 1.5
v 6 18 1.5
v 5 25 -1.5
v 5 25 0.5
v 5 19 0.5
v 5 19 -1.5
v 4 23 -3.5
v 4 19 -1.5
v 4 19 -3.5
v 4 26 -1.5
v 4 26 0.5
v 4 25 0.5
v 4 25 -1.5
v 4 22 0.5
v 4 22 2.5
v 4 19 2.5
v 4 19 0.5
v 4 23 1.5
v 4 22 1.5
v 4 19 1.5
v 4 15 2.5
v 4 15 1.5
v 3 23 -4.5
v 3 23 -3.5
v 3 19 -3.5
v 3 19 -4.5
v 3 16 -3.5
v 3 16 -0.5
v 3 15 -0.5
v 3 15 -3.5
v 3 17 -3.5
v 3 17 -2.5
v 3 16 -2.5
v 3 19 -2.5
v 3 24 -3.5
v 3 24 1.5
v 3 23 1.5
v 3 9 -2.5
v 3 9 -1.5
v 3 7 -1.5
v 3 7 -2.5
v 3 10 -2.5
v 3 10 -1.5
v 3 13 -2.5
v 3 13 1.5
v 3 10 1.5
v 3 14 -2.5
v 3 14 1.5
v 3 8 -1.5
v 3 8 0.5
v 3 7 0.5
v 3 10 0.5
v 3 9 0.5
v 3 9 1.5
v 3 7 1.5
v 3 23 2.5
v 3 22 2.5
v 3 22 1.5
v 2 25 0.5
v 2 25 4.5
v 2 24 4.5
v 2 24 0.5
v 2 24 1.5
v 2 23 4.5
v 2 23 1.5
v 2 26 1.5
v 2 26 4.5
v 2 25 1.5
v 2 23 2.5
v 2 23 3.5
v 2 21 3.5
v 2 21 2.5
v 1 15 -1.5
v 1 15 0.5
v 1 14 0.5
v 1 14 -1.5
v -0 21 -4.5
v -0 21 -3.5
v -0 20 -3.5
v -0 20 -4.5
v -1 20 -4.5
v -1 20 -3.5
v -1 19 -3.5
v -1 19 -4.5
v -3 25 -1.5
v -3 25 0.5
v -3 24 0.5
v -3 24 -1.5
v -4 16 -2.5
v -4 16 -0.5
v -4 15 -0.5
v -4 15 -2.5
v -4 24 -1.5
v -4 24 0.5
v 3 26 0.5
v -5 24 0.5
v 5 19 1.5
v 5 15 1.5
v -5 19 1.5
v -5 15 1.5
v 4 21 2.5
v -4 21 2.5
v 2 22 2.5
v -2 22 2.5
v 2 23 -4.5
v 1 23 -4.5
v -4 21 -4.5
v 1 22 -4.5
v 1 15 -3.5
v 1 16 -3.5
v 2 16 -3.5
v 2 17 -3.5
v -2 16 -3.5
v -2 17 -3.5
v 1 17 -3.5
v 1 19 -3.5
v -1 15 -3.5
v -1 16 -3.5
v -1 17 -3.5
v -2 19 -3.5
v 5 15 -2.5
v 5 19 -2.5
v 4 19 -2.5
v -5 15 -2.5
v -5 19 -2.5
v 3 26 -1.5
v -5 24 -1.5
v -3 14 -1.5
v 3 14 -1.5
v 1 14 1.5
v -3 14 0.5
v 1 7 0.5
v 1 7 -1.5
v -1 7 0.5
v -1 7 -1.5
v 3 15 2.5
v 3 15 1.5
v 1 15 1.5
v 1 15 -2.5
v -1 15 -2.5
v -3 15 -1.5
v -3 15 -2.5
v -3 15 1.5
v -3 15 0.5
v 4 16 -1.5
v 3 16 -1.5
v -3 16 -1.5
v -4 16 -1.5
vt 0.5214844 0.5
vt 0.9824219 0.5
vt 0.4824219 0.5
vt 0.0410156 0.5
vt 0.5449219 0.5
vt 0.5566406 0.5
vt 0.7753906 0.5
vt 0.6855469 0.5
vt 0.5253906 0.5
vt 0.5527344 0.5
vt 0.0527344 0.5
vn -1 0 0
vn 1 0 0
vn 0 0 1
vn 0 0 -1
vn 0 1 0
vn 0 -1 0
f 1/1/1 2/1/1 3/1/1 4/1/1
f 5/2/1 6/2/1 7/2/1 8/2/1
f 9/2/1 10/2/1 11/2/1 12/2/1
f 13/3/1 14/3/1 15/3/1 16/3/1
f 17/3/1 18/3/1 19/3/1 20/3/1
f 21/4/1 22/4/1 23/4/1 24/4/1
f 25/3/1 26/3/1 27/3/1 28/3/1
f 29/3/1 30/3/1 26/3/1 31/3/1
f 32/3/1 27/3/1 33/3/1 34/3/1
f 35/3/1 36/3/1 37/3/1 38/3/1
f 39/3/1 40/3/1 41/3/1 42/3/1
f 43/3/1 44/3/1 45/3/1 46/3/1
f 47/4/1 48/4/1 49/4/1 50/4/1
f 50/5/1 51/5/1 52/5/1 53/5/1
f 53/4/1 52/4/1 54/4/1 55/4/1
f 45/3/1 56/3/1 57/3/1 58/3/1
f 59/6/1 60/6/1 61/6/1 62/6/1
f 62/4/1 61/4/1 63/4/1 64/4/1
f 64/7/1 65/7/1 66/7/1 67/7/1
f 67/4/1 66/4/1 68/4/1 69/4/1
f 60/8/1 70/8/1 71/8/1 72/8/1
f 72/3/1 71/3/1 73/3/1 63/3/1
f 70/6/1 74/6/1 75/6/1 76/6/1
f 76/4/1 75/4/1 65/4/1 73/4/1
f 77/3/1 78/3/1 79/3/1 56/3/1
f 80/3/1 81/3/1 82/3/1 83/3/1
f 84/3/1 85/3/1 86/3/1 87/3/1
f 88/3/1 82/3/1 89/3/1 90/3/1
f 91/3/1 92/3/1 81/3/1 86/3/1
f 93/2/1 94/2/1 95/2/1 96/2/1
f 97/3/1 98/3/1 99/3/1 100/3/1
f 100/3/1 101/3/1 102/3/1 103/3/1
f 104/3/1 105/3/1 98/3/1 106/3/1
f 107/2/1 108/2/1 109/2/1 110/2/1
f 111/2/1 112/2/1 113/2/1 114/2/1
f 114/2/1 115/2/1 116/2/1 117/2/1
f 115/1/1 118/1/1 119/1/1 120/1/1
f 120/2/1 121/2/1 122/2/1 116/2/1
f 118/2/1 113/2/1 121/2/1 119/2/1
f 123/2/2 124/2/2 125/2/2 126/2/2
f 127/2/2 128/2/2 129/2/2 123/2/2
f 130/1/2 131/1/2 132/1/2 129/1/2
f 128/2/2 133/2/2 134/2/2 130/2/2
f 131/2/2 134/2/2 124/2/2 132/2/2
f 135/2/2 136/2/2 137/2/2 138/2/2
f 139/3/2 5/3/2 140/3/2 141/3/2
f 142/2/2 143/2/2 144/2/2 145/2/2
f 146/3/2 147/3/2 148/3/2 149/3/2
f 6/3/2 150/3/2 151/3/2 146/3/2
f 152/3/2 148/3/2 153/3/2 154/3/2
f 155/3/2 156/3/2 157/3/2 158/3/2
f 159/4/2 160/4/2 161/4/2 162/4/2
f 163/5/2 164/5/2 165/5/2 159/5/2
f 157/4/2 166/4/2 164/4/2 163/4/2
f 167/3/2 168/3/2 169/3/2 156/3/2
f 170/6/2 171/6/2 172/6/2 173/6/2
f 174/4/2 175/4/2 171/4/2 170/4/2
f 176/7/2 177/7/2 178/7/2 174/7/2
f 179/4/2 180/4/2 177/4/2 176/4/2
f 181/8/2 182/8/2 183/8/2 172/8/2
f 175/3/2 184/3/2 182/3/2 181/3/2
f 185/6/2 186/6/2 187/6/2 183/6/2
f 184/4/2 178/4/2 186/4/2 185/4/2
f 169/3/2 188/3/2 189/3/2 190/3/2
f 191/3/2 192/3/2 193/3/2 194/3/2
f 195/3/2 193/3/2 196/3/2 197/3/2
f 198/3/2 199/3/2 192/3/2 200/3/2
f 201/3/2 202/3/2 203/3/2 204/3/2
f 205/4/2 206/4/2 207/4/2 208/4/2
f 209/3/2 210/3/2 211/3/2 212/3/2
f 213/3/2 214/3/2 215/3/2 216/3/2
f 217/2/2 218/2/2 219/2/2 220/2/2
f 221/1/2 222/1/2 223/1/2 224/1/2
f 225/2/2 226/2/2 103/2/2 89/2/2
f 136/2/3 144/2/3 149/2/3 137/2/3
f 143/2/3 227/2/3 10/2/3 7/2/3
f 227/2/3 95/2/3 94/2/3 11/2/3
f 206/4/3 23/4/3 22/4/3 207/4/3
f 218/2/3 109/2/3 228/2/3 219/2/3
f 226/2/3 228/2/3 108/2/3 97/2/3
f 133/2/3 229/2/3 230/2/3 125/2/3
f 229/1/3 152/1/3 154/1/3 230/1/3
f 150/3/3 169/3/3 190/3/3 151/3/3
f 186/6/3 75/6/3 74/6/3 187/6/3
f 178/4/3 65/4/3 75/4/3 186/4/3
f 177/7/3 66/7/3 65/7/3 178/7/3
f 180/4/3 68/4/3 66/4/3 177/4/3
f 168/3/3 195/3/3 197/3/3 169/3/3
f 31/3/3 57/3/3 56/3/3 29/3/3
f 56/3/3 102/3/3 101/3/3 77/3/3
f 106/1/3 231/1/3 232/1/3 104/1/3
f 231/2/3 122/2/3 112/2/3 232/2/3
f 233/3/3 234/3/3 105/3/3 153/3/3
f 147/3/3 235/3/3 204/3/3 233/3/3
f 188/3/3 201/3/3 235/3/3 189/3/3
f 236/3/3 99/3/3 234/3/3 35/3/3
f 38/3/3 79/3/3 78/3/3 236/3/3
f 202/3/3 37/3/3 36/3/3 203/3/3
f 199/3/3 33/3/3 30/3/3 196/3/3
f 158/3/4 13/3/4 237/3/4 155/3/4
f 16/3/4 17/3/4 238/3/4 237/3/4
f 20/3/4 239/3/4 83/3/4 240/3/4
f 240/3/4 43/3/4 46/3/4 238/3/4
f 212/3/4 80/3/4 239/3/4 209/3/4
f 216/3/4 39/3/4 42/3/4 213/3/4
f 141/3/4 157/3/4 156/3/4 139/3/4
f 162/4/4 241/4/4 242/4/4 159/4/4
f 159/5/4 243/5/4 244/5/4 163/5/4
f 163/4/4 244/4/4 14/4/4 157/4/4
f 156/3/4 45/3/4 58/3/4 167/3/4
f 243/4/4 245/4/4 246/4/4 244/4/4
f 244/9/4 247/9/4 248/9/4 14/9/4
f 14/4/4 215/4/4 214/4/4 15/4/4
f 241/10/4 249/10/4 250/10/4 242/10/4
f 247/4/4 251/4/4 215/4/4 248/4/4
f 18/4/4 211/4/4 210/4/4 19/4/4
f 249/4/4 47/4/4 50/4/4 250/4/4
f 251/9/4 246/9/4 252/9/4 215/9/4
f 245/5/4 50/5/4 53/5/4 246/5/4
f 246/4/4 53/4/4 40/4/4 252/4/4
f 55/3/4 84/3/4 87/3/4 41/3/4
f 44/3/4 88/3/4 90/3/4 45/3/4
f 126/2/4 253/2/4 254/2/4 127/2/4
f 253/1/4 1/1/4 255/1/4 254/1/4
f 4/3/4 165/3/4 166/3/4 255/3/4
f 173/6/4 59/6/4 62/6/4 170/6/4
f 170/4/4 62/4/4 64/4/4 174/4/4
f 174/7/4 64/7/4 67/7/4 176/7/4
f 176/4/4 67/4/4 69/4/4 179/4/4
f 51/3/4 221/3/4 85/3/4 54/3/4
f 224/1/4 256/1/4 257/1/4 91/1/4
f 256/2/4 111/2/4 117/2/4 257/2/4
f 138/2/4 140/2/4 145/2/4 135/2/4
f 8/2/4 9/2/4 258/2/4 142/2/4
f 12/2/4 93/2/4 96/2/4 258/2/4
f 208/4/4 21/4/4 24/4/4 205/4/4
f 220/2/4 259/2/4 110/2/4 217/2/4
f 92/2/4 107/2/4 259/2/4 225/2/4
f 2/3/4 161/3/4 160/3/4 3/3/4
f 48/3/4 223/3/4 222/3/4 49/3/4
f 194/3/4 25/3/4 28/3/4 191/3/4
f 200/3/4 32/3/4 34/3/4 198/3/4
f 179/4/5 69/4/5 260/4/5 261/4/5
f 261/4/5 208/4/5 262/4/5 180/4/5
f 207/4/5 263/4/5 68/4/5 262/4/5
f 21/4/5 260/4/5 263/4/5 22/4/5
f 127/2/5 254/2/5 229/2/5 133/2/5
f 254/1/5 255/1/5 140/1/5 138/1/5
f 137/1/5 149/1/5 152/1/5 229/1/5
f 91/1/5 257/1/5 107/1/5 92/1/5
f 97/1/5 108/1/5 231/1/5 106/1/5
f 257/2/5 117/2/5 122/2/5 231/2/5
f 151/3/5 190/3/5 189/3/5 147/3/5
f 43/3/5 83/3/5 88/3/5 44/3/5
f 77/3/5 101/3/5 99/3/5 78/3/5
f 139/3/5 156/3/5 169/3/5 150/3/5
f 155/3/5 46/3/5 45/3/5 156/3/5
f 169/3/5 197/3/5 201/3/5 188/3/5
f 29/3/5 56/3/5 79/3/5 38/3/5
f 45/3/5 90/3/5 102/3/5 56/3/5
f 167/3/5 58/3/5 219/3/5 10/3/5
f 10/3/5 194/3/5 195/3/5 168/3/5
f 25/3/5 219/3/5 57/3/5 31/3/5
f 135/2/5 145/2/5 144/2/5 136/2/5
f 191/3/5 28/3/5 32/3/5 200/3/5
f 93/2/5 110/2/5 109/2/5 94/2/5
f 142/2/5 96/2/5 95/2/5 143/2/5
f 198/3/5 34/3/5 33/3/5 199/3/5
f 172/6/6 60/6/6 59/6/6 173/6/6
f 183/8/6 264/8/6 265/8/6 172/8/6
f 187/6/6 74/6/6 70/6/6 183/6/6
f 264/6/6 266/6/6 267/6/6 265/6/6
f 266/8/6 70/8/6 60/8/6 267/8/6
f 125/2/6 230/2/6 253/2/6 126/2/6
f 230/1/6 154/1/6 1/1/6 253/1/6
f 153/3/6 268/3/6 161/3/6 2/3/6
f 269/4/6 270/4/6 241/4/6 162/4/6
f 268/3/6 105/3/6 104/3/6 269/3/6
f 271/10/6 272/10/6 249/10/6 241/10/6
f 205/4/6 273/4/6 274/4/6 271/4/6
f 270/4/6 275/4/6 276/4/6 206/4/6
f 272/4/6 274/4/6 47/4/6 249/4/6
f 23/4/6 276/4/6 273/4/6 24/4/6
f 275/3/6 104/3/6 223/3/6 48/3/6
f 104/1/6 232/1/6 256/1/6 224/1/6
f 232/2/6 112/2/6 111/2/6 256/2/6
f 277/3/6 278/3/6 165/3/6 4/3/6
f 3/11/6 160/11/6 278/11/6 277/11/6
f 279/3/6 280/3/6 221/3/6 51/3/6
f 49/11/6 222/11/6 280/11/6 279/11/6
f 54/3/6 85/3/6 84/3/6 55/3/6
f 255/3/6 166/3/6 157/3/6 141/3/6
f 157/3/6 14/3/6 13/3/6 158/3/6
f 215/3/6 40/3/6 39/3/6 216/3/6
f 15/3/6 18/3/6 17/3/6 16/3/6
f 211/3/6 214/3/6 213/3/6 212/3/6
f 41/3/6 87/3/6 80/3/6 42/3/6
f 203/3/6 36/3/6 35/3/6 204/3/6
f 19/3/6 210/3/6 209/3/6 20/3/6
f 196/3/6 30/3/6 37/3/6 202/3/6
f 7/2/6 10/2/6 9/2/6 8/2/6
f 219/2/6 226/2/6 225/2/6 220/2/6
f 11/2/6 218/2/6 217/2/6 12/2/6
