# generated by tools/rig_people.py — do not edit
mtllib people.mtl
o arm-r
usemtl palette
v 3 12 -3
v 3 12 1
v 3 14 1
v 3 14 -3
v 3 6 -2
v 3 6 0
v 3 8 0
v 3 8 -2
v 3 9 0
v 3 9 -2
v 3 12 0
v 3 12 -2
v 6 14 -3
v 6 14 1
v 6 12 1
v 6 12 -3
v 5 8 -2
v 5 8 0
v 5 6 0
v 5 6 -2
v 5 9 -2
v 5 9 0
v 5 12 -2
v 5 12 0
v 6 12 -2
v 5 12 1
vt 0.5214844 0.5
vt 0.8769531 0.5
vt 0.9394531 0.5
vn -1 0 0
vn 1 0 0
vn 0 0 1
vn 0 0 -1
vn 0 1 0
vn 0 -1 0
f 1/1/1 2/1/1 3/1/1 4/1/1
f 5/1/1 6/1/1 7/1/1 8/1/1
f 8/2/1 7/2/1 9/2/1 10/2/1
f 10/3/1 9/3/1 11/3/1 12/3/1
f 13/1/2 14/1/2 15/1/2 16/1/2
f 17/1/2 18/1/2 19/1/2 20/1/2
f 21/2/2 22/2/2 18/2/2 17/2/2
f 23/3/2 24/3/2 22/3/2 21/3/2
f 18/1/3 7/1/3 6/1/3 19/1/3
f 22/2/3 9/2/3 7/2/3 18/2/3
f 24/3/3 11/3/3 9/3/3 22/3/3
f 14/1/3 3/1/3 2/1/3 15/1/3
f 16/1/4 1/1/4 4/1/4 13/1/4
f 20/1/4 5/1/4 8/1/4 17/1/4
f 17/2/4 8/2/4 10/2/4 21/2/4
f 21/3/4 10/3/4 12/3/4 23/3/4
f 13/1/5 4/1/5 3/1/5 14/1/5
f 19/1/6 6/1/6 5/1/6 20/1/6
f 25/1/6 12/1/6 1/1/6 16/1/6
f 15/1/6 26/1/6 23/1/6 25/1/6
f 26/1/6 2/1/6 11/1/6 24/1/6
