# generated by tools/rig_people.py — do not edit
mtllib people.mtl
o body
usemtl palette
v 3 14 0.5
v 3 14 2.5
v 3 15 2.5
v 3 15 0.5
v 1 19 -3.5
v 1 19 -2.5
v 1 20 -2.5
v 1 20 -3.5
v -1 14 -0.5
v -1 14 1.5
v -1 15 1.5
v -1 15 -0.5
v -3 17 -3.5
v -3 17 -2.5
v -3 19 -2.5
v -3 19 -3.5
v -3 20 -2.5
v -3 20 -3.5
v -3 23 -3.5
v -3 23 -2.5
v -3 24 -2.5
v -3 24 -3.5
v -3 15 -2.5
v -3 15 0.5
v -3 16 0.5
v -3 16 -2.5
v -3 16 -1.5
v -3 17 -1.5
v -3 19 -1.5
v -3 7 -1.5
v -3 7 -0.5
v -3 8 -0.5
v -3 8 -1.5
v -3 8 2.5
v -3 9 2.5
v -3 9 -1.5
v -3 10 2.5
v -3 10 -1.5
v -3 11 2.5
v -3 11 -1.5
v -3 14 2.5
v -3 14 -1.5
v -3 7 1.5
v -3 8 1.5
v -3 7 2.5
v -3 23 2.5
v -3 23 3.5
v -3 24 3.5
v -3 24 2.5
v -4 20 -3.5
v -4 20 -2.5
v -4 22 -2.5
v -4 22 -3.5
v -4 22 -1.5
v -4 23 -1.5
v -4 23 -3.5
v -4 19 -2.5
v -4 19 -0.5
v -4 20 -0.5
v -4 20 -1.5
v -4 23 -2.5
v -4 23 2.5
v -4 24 2.5
v -4 24 -2.5
v -4 16 -1.5
v -4 16 0.5
v -4 18 0.5
v -4 18 -1.5
v -4 18 -0.5
v -4 19 -1.5
v -4 23 -0.5
v -4 21 0.5
v -4 21 -0.5
v -4 21 3.5
v -4 23 3.5
v -4 14 0.5
v -4 14 3.5
v -4 15 3.5
v -4 15 0.5
v -4 15 2.5
v -4 16 2.5
v -4 16 1.5
v -4 21 1.5
v -4 21 2.5
v -4 19 3.5
v -4 19 2.5
v 4 20 -2.5
v 4 20 -0.5
v 4 19 -0.5
v 4 19 -2.5
v 4 23 -2.5
v 4 23 -1.5
v 4 20 -1.5
v 4 18 -1.5
v 4 18 0.5
v 4 16 0.5
v 4 16 -1.5
v 4 19 -1.5
v 4 18 -0.5
v 4 23 -0.5
v 4 22 -0.5
v 4 22 0.5
v 4 23 3.5
v 4 22 3.5
v 4 15 0.5
v 4 15 3.5
v 4 14 3.5
v 4 14 0.5
v 4 16 2.5
v 4 15 2.5
v 4 21 0.5
v 4 21 1.5
v 4 16 1.5
v 4 21 3.5
v 4 18 1.5
v 4 18 2.5
v 4 20 1.5
v 4 20 2.5
v 4 20 3.5
v 4 19 2.5
v 4 19 3.5
v 3 20 -3.5
v 3 20 -2.5
v 3 19 -2.5
v 3 19 -3.5
v 3 24 -3.5
v 3 24 -2.5
v 3 21 -2.5
v 3 21 -3.5
v 3 16 -2.5
v 3 16 0.5
v 3 15 -2.5
v 3 17 -2.5
v 3 17 -1.5
v 3 16 -1.5
v 3 19 -1.5
v 3 24 2.5
v 3 23 2.5
v 3 23 -2.5
v 3 8 -1.5
v 3 8 -0.5
v 3 7 -0.5
v 3 7 -1.5
v 3 9 -1.5
v 3 9 2.5
v 3 8 2.5
v 3 10 -1.5
v 3 10 2.5
v 3 11 -1.5
v 3 11 2.5
v 3 14 -1.5
v 3 8 1.5
v 3 7 1.5
v 3 7 2.5
v 2 24 2.5
v 2 24 3.5
v 2 23 3.5
v 2 23 2.5
v 1 21 -3.5
v 1 21 -2.5
v 1 15 -0.5
v 1 15 1.5
v 1 14 1.5
v 1 14 -0.5
v -1 20 -3.5
v -1 20 -2.5
v -1 19 -2.5
v -1 19 -3.5
v -2 19 -3.5
v -2 19 -2.5
v -2 17 -2.5
v -2 17 -3.5
v -3 15 2.5
v -3 14 0.5
v 2 8 2.5
v 2 7 2.5
v 1 11 2.5
v 1 10 2.5
v -2 8 2.5
v -2 7 2.5
v -1 11 2.5
v -1 10 2.5
v 3 19 3.5
v 3 15 3.5
v 3 23 3.5
v 3 16 3.5
v -3 16 3.5
v -3 15 3.5
v 3 17 3.5
v 2 17 3.5
v 2 16 3.5
v 3 18 3.5
v 1 18 3.5
v 1 17 3.5
v 3 22 3.5
v 2 22 3.5
v 2 18 3.5
v -4 22 3.5
v 1 16 3.5
v 2 19 3.5
v 1 19 3.5
v 2 21 3.5
v 1 21 3.5
v -1 22 3.5
v -1 21 3.5
v 1 24 3.5
v 1 23 3.5
v 1 20 3.5
v -0 20 3.5
v -0 16 3.5
v -1 20 3.5
v -0 24 3.5
v -0 23 3.5
v -0 17 3.5
v -2 17 3.5
v -2 16 3.5
v -1 17 3.5
v -2 22 3.5
v -2 21 3.5
v -3 21 3.5
v -3 19 3.5
v 2 21 -3.5
v 2 24 -3.5
v 1 24 -3.5
v -0 20 -3.5
v -0 24 -3.5
v -2 20 -3.5
v -2 21 -3.5
v -0 21 -3.5
v -1 21 -3.5
v -1 22 -3.5
v -0 22 -3.5
v -0 23 -3.5
v -1 23 -3.5
v -1 24 -3.5
v -2 22 -3.5
v -2 23 -3.5
v -2 24 -3.5
v -3 21 -3.5
v -3 22 -3.5
v 1 15 -2.5
v 1 17 -2.5
v 2 17 -2.5
v 2 19 -2.5
v -1 15 -2.5
v -1 16 -2.5
v 1 16 -2.5
v -1 17 -2.5
v 2 7 -1.5
v 2 8 -1.5
v 1 10 -1.5
v 1 11 -1.5
v -2 7 -1.5
v -2 8 -1.5
v -1 10 -1.5
v -1 11 -1.5
v -3 14 -0.5
v 3 14 -0.5
v 1 14 2.5
v -3 14 1.5
v 3 23 -1.5
v 3 23 -0.5
v 1 24 -2.5
v 2 24 -2.5
v -0 24 -2.5
v -0 24 -0.5
v 2 24 -0.5
v 1 24 -0.5
v 1 24 2.5
v -0 24 0.5
v 1 24 0.5
v -1 24 0.5
v -1 24 3.5
v -2 24 1.5
v -1 24 1.5
v -4 24 1.5
v -1 24 2.5
v -3 24 1.5
v 2 7 -0.5
v 2 7 1.5
v -2 7 -0.5
v -2 7 1.5
v 3 14 3.5
v -4 14 2.5
v 1 15 2.5
v 1 15 -1.5
v -1 15 -1.5
v -3 15 -0.5
v -3 15 -1.5
v -3 15 1.5
v -0 20 -2.5
v 2 21 -2.5
vt 0.8105469 0.5
vt 0.7480469 0.5
vt 0.8066406 0.5
vt 0.5644531 0.5
vt 0.9746094 0.5
vt 0.5292969 0.5
vt 0.3222656 0.5
vt 0.1621094 0.5
vn -1 0 0
vn 1 0 0
vn 0 0 1
vn 0 0 -1
vn 0 1 0
vn 0 -1 0
f 1/1/1 2/1/1 3/1/1 4/1/1
f 5/1/1 6/1/1 7/1/1 8/1/1
f 9/2/1 10/2/1 11/2/1 12/2/1
f 13/1/1 14/1/1 15/1/1 16/1/1
f 16/3/1 15/3/1 17/3/1 18/3/1
f 19/1/1 20/1/1 21/1/1 22/1/1
f 23/4/1 24/4/1 25/4/1 26/4/1
f 26/4/1 27/4/1 28/4/1 14/4/1
f 14/5/1 28/5/1 29/5/1 15/5/1
f 30/4/1 31/4/1 32/4/1 33/4/1
f 33/2/1 34/2/1 35/2/1 36/2/1
f 36/6/1 35/6/1 37/6/1 38/6/1
f 38/4/1 37/4/1 39/4/1 40/4/1
f 40/2/1 39/2/1 41/2/1 42/2/1
f 31/2/1 43/2/1 44/2/1 32/2/1
f 43/4/1 45/4/1 34/4/1 44/4/1
f 46/1/1 47/1/1 48/1/1 49/1/1
f 50/7/1 51/7/1 52/7/1 53/7/1
f 53/1/1 54/1/1 55/1/1 56/1/1
f 57/1/1 58/1/1 59/1/1 51/1/1
f 51/1/1 60/1/1 54/1/1 52/1/1
f 61/1/1 62/1/1 63/1/1 64/1/1
f 65/1/1 66/1/1 67/1/1 68/1/1
f 68/1/1 69/1/1 58/1/1 70/1/1
f 60/7/1 59/7/1 71/7/1 55/7/1
f 69/3/1 67/3/1 72/3/1 73/3/1
f 73/1/1 74/1/1 75/1/1 71/1/1
f 76/1/1 77/1/1 78/1/1 79/1/1
f 79/1/1 80/1/1 81/1/1 66/1/1
f 66/7/1 82/7/1 83/7/1 72/7/1
f 82/1/1 81/1/1 84/1/1 83/1/1
f 80/7/1 78/7/1 85/7/1 86/7/1
f 86/1/1 85/1/1 74/1/1 84/1/1
f 87/1/2 88/1/2 89/1/2 90/1/2
f 91/1/2 92/1/2 93/1/2 87/1/2
f 94/1/2 95/1/2 96/1/2 97/1/2
f 98/1/2 89/1/2 99/1/2 94/1/2
f 92/7/2 100/7/2 88/7/2 93/7/2
f 101/3/2 102/3/2 95/3/2 99/3/2
f 100/1/2 103/1/2 104/1/2 101/1/2
f 105/1/2 106/1/2 107/1/2 108/1/2
f 96/1/2 109/1/2 110/1/2 105/1/2
f 111/7/2 112/7/2 113/7/2 96/7/2
f 102/1/2 104/1/2 114/1/2 111/1/2
f 115/1/2 116/1/2 109/1/2 113/1/2
f 117/3/2 118/3/2 116/3/2 115/3/2
f 112/1/2 114/1/2 119/1/2 117/1/2
f 120/7/2 121/7/2 106/7/2 110/7/2
f 118/1/2 119/1/2 121/1/2 120/1/2
f 122/1/2 123/1/2 124/1/2 125/1/2
f 126/1/2 127/1/2 128/1/2 129/1/2
f 130/4/2 131/4/2 4/4/2 132/4/2
f 133/4/2 134/4/2 135/4/2 130/4/2
f 124/5/2 136/5/2 134/5/2 133/5/2
f 127/1/2 137/1/2 138/1/2 139/1/2
f 140/4/2 141/4/2 142/4/2 143/4/2
f 144/2/2 145/2/2 146/2/2 140/2/2
f 147/6/2 148/6/2 145/6/2 144/6/2
f 149/4/2 150/4/2 148/4/2 147/4/2
f 151/2/2 2/2/2 150/2/2 149/2/2
f 141/2/2 152/2/2 153/2/2 142/2/2
f 152/4/2 146/4/2 154/4/2 153/4/2
f 155/1/2 156/1/2 157/1/2 158/1/2
f 159/1/2 160/1/2 7/1/2 8/1/2
f 161/2/2 162/2/2 163/2/2 164/2/2
f 165/7/2 166/7/2 167/7/2 168/7/2
f 169/1/2 170/1/2 171/1/2 172/1/2
f 24/1/2 173/1/2 41/1/2 174/1/2
f 162/2/3 11/2/3 10/2/3 163/2/3
f 146/4/3 175/4/3 176/4/3 154/4/3
f 145/2/3 35/2/3 34/2/3 146/2/3
f 148/6/3 37/6/3 35/6/3 145/6/3
f 150/4/3 177/4/3 178/4/3 148/4/3
f 2/2/3 41/2/3 39/2/3 150/2/3
f 137/1/3 155/1/3 158/1/3 138/1/3
f 175/2/3 179/2/3 180/2/3 176/2/3
f 177/2/3 181/2/3 182/2/3 178/2/3
f 181/4/3 39/4/3 37/4/3 182/4/3
f 179/4/3 34/4/3 45/4/3 180/4/3
f 49/1/3 63/1/3 62/1/3 46/1/3
f 106/1/3 78/1/3 77/1/3 107/1/3
f 121/7/3 183/7/3 184/7/3 106/7/3
f 103/1/3 185/1/3 183/1/3 121/1/3
f 186/1/3 187/1/3 188/1/3 184/1/3
f 189/3/3 190/3/3 191/3/3 186/3/3
f 192/1/3 193/1/3 194/1/3 189/1/3
f 195/7/3 196/7/3 197/7/3 192/7/3
f 185/1/3 75/1/3 198/1/3 195/1/3
f 190/1/3 194/1/3 199/1/3 191/1/3
f 200/1/3 201/1/3 193/1/3 197/1/3
f 202/3/3 203/3/3 201/3/3 200/3/3
f 196/1/3 204/1/3 205/1/3 202/1/3
f 156/1/3 206/1/3 207/1/3 157/1/3
f 208/7/3 209/7/3 210/7/3 199/7/3
f 203/1/3 205/1/3 211/1/3 208/1/3
f 206/7/3 212/7/3 213/7/3 207/7/3
f 214/1/3 215/1/3 216/1/3 210/1/3
f 209/1/3 211/1/3 217/1/3 214/1/3
f 212/1/3 48/1/3 47/1/3 213/1/3
f 204/7/3 218/7/3 215/7/3 217/7/3
f 219/3/3 220/3/3 187/3/3 216/3/3
f 218/1/3 198/1/3 74/1/3 219/1/3
f 221/7/3 85/7/3 78/7/3 188/7/3
f 220/1/3 74/1/3 85/1/3 221/1/3
f 125/1/4 5/1/4 8/1/4 122/1/4
f 129/1/4 222/1/4 223/1/4 126/1/4
f 222/7/4 159/7/4 224/7/4 223/7/4
f 8/1/4 225/1/4 226/1/4 224/1/4
f 225/7/4 227/7/4 228/7/4 229/7/4
f 229/7/4 230/7/4 231/7/4 232/7/4
f 232/1/4 53/1/4 56/1/4 233/1/4
f 233/3/4 234/3/4 235/3/4 226/3/4
f 168/7/4 169/7/4 227/7/4 165/7/4
f 230/3/4 228/3/4 236/3/4 231/3/4
f 234/7/4 237/7/4 238/7/4 235/7/4
f 172/1/4 13/1/4 16/1/4 169/1/4
f 169/3/4 16/3/4 239/3/4 228/3/4
f 228/1/4 239/1/4 240/1/4 236/1/4
f 237/1/4 19/1/4 22/1/4 238/1/4
f 18/7/4 50/7/4 53/7/4 240/7/4
f 90/1/4 124/1/4 139/1/4 91/1/4
f 132/4/4 241/4/4 242/4/4 133/4/4
f 133/5/4 243/5/4 244/5/4 124/5/4
f 123/4/4 7/4/4 160/4/4 128/4/4
f 243/6/4 242/6/4 6/6/4 244/6/4
f 241/8/4 245/8/4 246/8/4 247/8/4
f 247/4/4 26/4/4 14/4/4 242/4/4
f 242/4/4 248/4/4 166/4/4 7/4/4
f 245/4/4 23/4/4 26/4/4 246/4/4
f 248/6/4 171/6/4 170/6/4 167/6/4
f 15/1/4 57/1/4 51/1/4 17/1/4
f 20/1/4 61/1/4 64/1/4 21/1/4
f 97/1/4 135/1/4 136/1/4 98/1/4
f 143/4/4 249/4/4 250/4/4 140/4/4
f 140/2/4 33/2/4 36/2/4 144/2/4
f 144/6/4 36/6/4 38/6/4 147/6/4
f 147/4/4 251/4/4 252/4/4 149/4/4
f 149/2/4 40/2/4 42/2/4 151/2/4
f 249/2/4 253/2/4 254/2/4 250/2/4
f 251/2/4 255/2/4 256/2/4 252/2/4
f 255/4/4 38/4/4 40/4/4 256/4/4
f 253/4/4 30/4/4 33/4/4 254/4/4
f 27/1/4 65/1/4 70/1/4 29/1/4
f 164/2/4 9/2/4 12/2/4 161/2/4
f 108/1/4 1/1/4 131/1/4 96/1/4
f 174/1/4 76/1/4 66/1/4 25/1/4
f 2/1/4 41/1/4 173/1/4 3/1/4
f 151/2/5 42/2/5 257/2/5 258/2/5
f 258/2/5 164/2/5 259/2/5 2/2/5
f 163/2/5 260/2/5 41/2/5 259/2/5
f 9/2/5 257/2/5 260/2/5 10/2/5
f 122/1/5 8/1/5 7/1/5 123/1/5
f 91/1/5 139/1/5 261/1/5 92/1/5
f 92/7/5 261/7/5 262/7/5 100/7/5
f 100/1/5 262/1/5 185/1/5 103/1/5
f 138/1/5 158/1/5 157/1/5 185/1/5
f 19/1/5 56/1/5 61/1/5 20/1/5
f 46/1/5 62/1/5 75/1/5 47/1/5
f 126/1/5 223/1/5 155/1/5 137/1/5
f 223/7/5 224/7/5 263/7/5 264/7/5
f 264/1/5 265/1/5 266/1/5 267/1/5
f 267/3/5 268/3/5 269/3/5 155/3/5
f 155/1/5 269/1/5 206/1/5 156/1/5
f 224/1/5 226/1/5 265/1/5 263/1/5
f 268/1/5 266/1/5 270/1/5 271/1/5
f 271/7/5 270/7/5 212/7/5 206/7/5
f 226/3/5 235/3/5 272/3/5 270/3/5
f 270/1/5 272/1/5 273/1/5 212/1/5
f 235/7/5 238/7/5 274/7/5 275/7/5
f 275/1/5 276/1/5 63/1/5 277/1/5
f 277/1/5 49/1/5 48/1/5 273/1/5
f 238/1/5 22/1/5 278/1/5 274/1/5
f 21/1/5 64/1/5 276/1/5 278/1/5
f 142/4/6 279/4/6 249/4/6 143/4/6
f 153/2/6 43/2/6 31/2/6 142/2/6
f 154/4/6 176/4/6 280/4/6 153/4/6
f 279/2/6 281/2/6 253/2/6 249/2/6
f 176/2/6 180/2/6 282/2/6 280/2/6
f 281/4/6 31/4/6 30/4/6 253/4/6
f 180/4/6 45/4/6 43/4/6 282/4/6
f 107/1/6 283/1/6 1/1/6 108/1/6
f 283/1/6 77/1/6 284/1/6 2/1/6
f 41/1/6 284/1/6 76/1/6 174/1/6
f 3/4/6 285/4/6 241/4/6 132/4/6
f 286/8/6 287/8/6 245/8/6 241/8/6
f 161/4/6 288/4/6 289/4/6 286/4/6
f 285/4/6 173/4/6 290/4/6 162/4/6
f 287/4/6 289/4/6 23/4/6 245/4/6
f 11/4/6 290/4/6 288/4/6 12/4/6
f 96/1/6 131/1/6 135/1/6 97/1/6
f 25/1/6 66/1/6 65/1/6 27/1/6
f 171/1/6 14/1/6 13/1/6 172/1/6
f 98/1/6 136/1/6 124/1/6 90/1/6
f 124/1/6 6/1/6 5/1/6 125/1/6
f 167/7/6 170/7/6 169/7/6 168/7/6
f 29/1/6 70/1/6 57/1/6 15/1/6
f 7/1/6 291/1/6 225/1/6 8/1/6
f 291/7/6 166/7/6 165/7/6 225/7/6
f 17/7/6 51/7/6 50/7/6 18/7/6
f 128/1/6 292/1/6 222/1/6 129/1/6
f 292/7/6 160/7/6 159/7/6 222/7/6
