# generated by tools/rig_people.py — do not edit
mtllib people.mtl
o body
usemtl palette
v 2 14 -3.5
v 2 14 -2.5
v 2 15 -2.5
v 2 15 -3.5
v 1 15 -3.5
v 1 15 -2.5
v 1 16 -2.5
v 1 16 -3.5
v 1 19 -3.5
v 1 19 -2.5
v 1 20 -2.5
v 1 20 -3.5
v -1 14 -0.5
v -1 14 1.5
v -1 15 1.5
v -1 15 -0.5
v -2 16 -3.5
v -2 16 -2.5
v -2 17 -2.5
v -2 17 -3.5
v -3 14 -3.5
v -3 14 -2.5
v -3 16 -2.5
v -3 16 -3.5
v -3 19 -3.5
v -3 19 -2.5
v -3 20 -2.5
v -3 20 -3.5
v -3 23 -3.5
v -3 23 -2.5
v -3 24 -2.5
v -3 24 -3.5
v -3 15 -2.5
v -3 15 2.5
v -3 16 2.5
v -3 16 -0.5
v -3 18 -0.5
v -3 18 -2.5
v -3 18 -1.5
v -3 21 -1.5
v -3 21 -2.5
v -3 7 -1.5
v -3 7 2.5
v -3 10 2.5
v -3 10 -1.5
v -3 10 -0.5
v -3 11 -0.5
v -3 11 -1.5
v -3 11 2.5
v -3 14 2.5
v -3 14 -1.5
v -3 22 2.5
v -3 22 3.5
v -3 23 3.5
v -3 23 2.5
v -4 21 -3.5
v -4 21 3.5
v -4 22 3.5
v -4 22 -3.5
v -4 22 2.5
v -4 23 2.5
v -4 23 -3.5
v -4 23 -2.5
v -4 24 2.5
v -4 24 -2.5
v -4 18 -1.5
v -4 18 -0.5
v -4 21 -0.5
v -4 21 -1.5
v -4 16 -0.5
v -4 16 0.5
v -4 19 0.5
v -4 19 -0.5
v -4 19 3.5
v -4 16 3.5
v 4 20 -2.5
v 4 20 3.5
v 4 19 3.5
v 4 19 -2.5
v 4 19 -1.5
v 4 19 -0.5
v 4 18 -0.5
v 4 18 -1.5
v 4 22 -1.5
v 4 22 3.5
v 4 20 -1.5
v 4 23 -1.5
v 4 23 2.5
v 4 22 2.5
v 4 19 0.5
v 4 16 0.5
v 4 16 -0.5
v 4 16 3.5
v 3 16 -3.5
v 3 16 -2.5
v 3 14 -2.5
v 3 14 -3.5
v 3 20 -3.5
v 3 20 -2.5
v 3 19 -2.5
v 3 19 -3.5
v 3 16 2.5
v 3 15 2.5
v 3 15 -2.5
v 3 18 -2.5
v 3 18 -0.5
v 3 16 -0.5
v 3 19 -1.5
v 3 18 -1.5
v 3 21 -2.5
v 3 21 -1.5
v 3 20 -1.5
v 3 23 -2.5
v 3 23 -1.5
v 3 10 -1.5
v 3 10 2.5
v 3 7 2.5
v 3 7 -1.5
v 3 11 -1.5
v 3 11 -0.5
v 3 10 -0.5
v 3 14 -1.5
v 3 14 2.5
v 3 11 2.5
v 3 23 2.5
v 3 23 3.5
v 3 22 3.5
v 3 22 2.5
v 2 17 -3.5
v 2 17 -2.5
v 2 16 -2.5
v 2 16 -3.5
v 1 24 -3.5
v 1 24 -2.5
v 1 21 -2.5
v 1 21 -3.5
v 1 24 2.5
v 1 23 2.5
v 1 23 -2.5
v 1 15 -0.5
v 1 15 1.5
v 1 14 1.5
v 1 14 -0.5
v -1 16 -3.5
v -1 16 -2.5
v -1 15 -2.5
v -1 15 -3.5
v -1 20 -3.5
v -1 20 -2.5
v -1 19 -2.5
v -1 19 -3.5
v -2 15 -3.5
v -2 15 -2.5
v -2 14 -2.5
v -2 14 -3.5
v 2 14 2.5
v 2 11 2.5
v 2 12 2.5
v 1 12 2.5
v 1 11 2.5
v 2 13 2.5
v 1 13 2.5
v -0 14 2.5
v -0 13 2.5
v -1 12 2.5
v -1 11 2.5
v -0 12 2.5
v -1 13 2.5
v -1 14 2.5
v -2 12 2.5
v -2 11 2.5
v -2 13 2.5
v -2 14 2.5
v 1 17 -3.5
v 1 23 -3.5
v -3 15 -3.5
v 2 19 -2.5
v -3 17 -2.5
v 2 18 -2.5
v 1 18 -2.5
v -1 18 -2.5
v -2 18 -2.5
v -2 19 -2.5
v 2 10 -1.5
v 2 11 -1.5
v 2 14 -1.5
v -2 10 -1.5
v -2 11 -1.5
v 1 11 -1.5
v 1 12 -1.5
v 2 12 -1.5
v 1 13 -1.5
v 2 13 -1.5
v 1 14 -1.5
v -0 11 -1.5
v -0 12 -1.5
v -0 13 -1.5
v -1 13 -1.5
v -1 14 -1.5
v -1 11 -1.5
v -1 12 -1.5
v -2 12 -1.5
v -2 13 -1.5
v -2 14 -1.5
v 1 14 2.5
v -0 14 1.5
v -2 14 -0.5
v 1 23 -1.5
v -3 24 2.5
v 3 15 -0.5
v -3 15 -0.5
v 1 15 2.5
v -3 15 1.5
v 3 16 0.5
v 3 16 3.5
v -4 16 2.5
v -3 16 0.5
v -4 21 -2.5
vt 0.4824219 0.5
vt 0.0410156 0.5
vt 0.9628906 0.5
vt 0.9003906 0.5
vt 0.0527344 0.5
vt 0.0761719 0.5
vt 0.0800781 0.5
vt 0.0722656 0.5
vt 0.5292969 0.5
vn -1 0 0
vn 1 0 0
vn 0 0 1
vn 0 0 -1
vn 0 1 0
vn 0 -1 0
f 1/1/1 2/1/1 3/1/1 4/1/1
f 5/1/1 6/1/1 7/1/1 8/1/1
f 9/1/1 10/1/1 11/1/1 12/1/1
f 13/2/1 14/2/1 15/2/1 16/2/1
f 17/1/1 18/1/1 19/1/1 20/1/1
f 21/1/1 22/1/1 23/1/1 24/1/1
f 25/1/1 26/1/1 27/1/1 28/1/1
f 29/1/1 30/1/1 31/1/1 32/1/1
f 33/2/1 34/2/1 35/2/1 23/2/1
f 23/2/1 36/2/1 37/2/1 38/2/1
f 38/2/1 39/2/1 40/2/1 41/2/1
f 42/3/1 43/3/1 44/3/1 45/3/1
f 45/4/1 46/4/1 47/4/1 48/4/1
f 48/3/1 49/3/1 50/3/1 51/3/1
f 46/3/1 44/3/1 49/3/1 47/3/1
f 52/1/1 53/1/1 54/1/1 55/1/1
f 56/1/1 57/1/1 58/1/1 59/1/1
f 59/1/1 60/1/1 61/1/1 62/1/1
f 63/1/1 61/1/1 64/1/1 65/1/1
f 66/1/1 67/1/1 68/1/1 69/1/1
f 70/5/1 71/5/1 72/5/1 73/5/1
f 73/1/1 74/1/1 57/1/1 68/1/1
f 71/1/1 75/1/1 74/1/1 72/1/1
f 76/1/2 77/1/2 78/1/2 79/1/2
f 80/1/2 81/1/2 82/1/2 83/1/2
f 84/1/2 85/1/2 77/1/2 86/1/2
f 87/1/2 88/1/2 89/1/2 84/1/2
f 81/5/2 90/5/2 91/5/2 92/5/2
f 90/1/2 78/1/2 93/1/2 91/1/2
f 94/1/2 95/1/2 96/1/2 97/1/2
f 98/1/2 99/1/2 100/1/2 101/1/2
f 95/2/2 102/2/2 103/2/2 104/2/2
f 105/2/2 106/2/2 107/2/2 95/2/2
f 100/2/2 108/2/2 109/2/2 105/2/2
f 110/2/2 111/2/2 112/2/2 99/2/2
f 113/1/2 114/1/2 111/1/2 110/1/2
f 115/3/2 116/3/2 117/3/2 118/3/2
f 119/4/2 120/4/2 121/4/2 115/4/2
f 122/3/2 123/3/2 124/3/2 119/3/2
f 120/3/2 124/3/2 116/3/2 121/3/2
f 125/1/2 126/1/2 127/1/2 128/1/2
f 129/1/2 130/1/2 131/1/2 132/1/2
f 133/1/2 134/1/2 135/1/2 136/1/2
f 134/1/2 137/1/2 138/1/2 139/1/2
f 140/2/2 141/2/2 142/2/2 143/2/2
f 144/1/2 145/1/2 146/1/2 147/1/2
f 148/1/2 149/1/2 150/1/2 151/1/2
f 152/1/2 153/1/2 154/1/2 155/1/2
f 104/1/3 3/1/3 2/1/3 96/1/3
f 153/1/3 33/1/3 22/1/3 154/1/3
f 141/2/3 15/2/3 14/2/3 142/2/3
f 88/1/3 125/1/3 128/1/3 89/1/3
f 124/3/3 49/3/3 43/3/3 117/3/3
f 123/3/3 156/3/3 157/3/3 124/3/3
f 102/2/3 35/2/3 34/2/3 103/2/3
f 158/6/3 159/6/3 160/6/3 157/6/3
f 161/7/3 162/7/3 159/7/3 158/7/3
f 156/8/3 163/8/3 164/8/3 161/8/3
f 159/7/3 165/7/3 166/7/3 160/7/3
f 162/6/3 164/6/3 167/6/3 159/6/3
f 137/1/3 64/1/3 61/1/3 138/1/3
f 164/8/3 168/8/3 165/8/3 167/8/3
f 163/6/3 169/6/3 168/6/3 164/6/3
f 165/8/3 170/8/3 171/8/3 166/8/3
f 168/7/3 172/7/3 170/7/3 165/7/3
f 169/8/3 173/8/3 172/8/3 168/8/3
f 173/3/3 50/3/3 49/3/3 171/3/3
f 55/1/3 61/1/3 60/1/3 52/1/3
f 85/1/3 58/1/3 75/1/3 93/1/3
f 126/1/3 54/1/3 53/1/3 127/1/3
f 97/1/4 1/1/4 132/1/4 94/1/4
f 101/1/4 9/1/4 12/1/4 98/1/4
f 4/1/4 5/1/4 174/1/4 129/1/4
f 8/1/4 17/1/4 20/1/4 174/1/4
f 136/1/4 56/1/4 62/1/4 175/1/4
f 175/1/4 29/1/4 32/1/4 133/1/4
f 147/1/4 176/1/4 24/1/4 144/1/4
f 151/1/4 25/1/4 28/1/4 148/1/4
f 155/1/4 21/1/4 176/1/4 152/1/4
f 79/1/4 100/1/4 99/1/4 76/1/4
f 95/2/4 131/2/4 177/2/4 100/2/4
f 99/2/4 27/2/4 41/2/4 110/2/4
f 110/1/4 135/1/4 139/1/4 113/1/4
f 130/2/4 178/2/4 38/2/4 179/2/4
f 179/9/4 180/9/4 10/9/4 177/9/4
f 6/2/4 146/2/4 145/2/4 7/2/4
f 180/2/4 181/2/4 149/2/4 11/2/4
f 181/9/4 182/9/4 183/9/4 150/9/4
f 18/2/4 23/2/4 178/2/4 19/2/4
f 182/2/4 38/2/4 26/2/4 183/2/4
f 30/1/4 63/1/4 65/1/4 31/1/4
f 83/1/4 109/1/4 108/1/4 80/1/4
f 86/1/4 112/1/4 114/1/4 87/1/4
f 118/3/4 42/3/4 45/3/4 115/3/4
f 115/4/4 184/4/4 185/4/4 119/4/4
f 119/3/4 185/3/4 186/3/4 122/3/4
f 184/3/4 187/3/4 188/3/4 185/3/4
f 185/6/4 189/6/4 190/6/4 191/6/4
f 191/7/4 190/7/4 192/7/4 193/7/4
f 193/8/4 192/8/4 194/8/4 186/8/4
f 189/7/4 195/7/4 196/7/4 190/7/4
f 190/8/4 196/8/4 197/8/4 192/8/4
f 192/2/4 198/2/4 199/2/4 194/2/4
f 195/8/4 200/8/4 201/8/4 196/8/4
f 196/7/4 201/7/4 198/7/4 197/7/4
f 200/7/4 188/7/4 202/7/4 201/7/4
f 201/8/4 202/8/4 203/8/4 198/8/4
f 198/6/4 203/6/4 204/6/4 199/6/4
f 187/4/4 45/4/4 48/4/4 188/4/4
f 188/3/4 48/3/4 51/3/4 204/3/4
f 39/1/4 66/1/4 69/1/4 40/1/4
f 92/5/4 107/5/4 106/5/4 82/5/4
f 143/2/4 13/2/4 16/2/4 140/2/4
f 36/5/4 70/5/4 67/5/4 37/5/4
f 122/3/5 186/3/5 156/3/5 123/3/5
f 186/8/5 194/8/5 205/8/5 156/8/5
f 194/2/5 199/2/5 13/2/5 143/2/5
f 142/8/5 206/8/5 163/8/5 205/8/5
f 206/6/5 14/6/5 169/6/5 163/6/5
f 199/6/5 204/6/5 207/6/5 13/6/5
f 13/8/5 207/8/5 173/8/5 169/8/5
f 204/3/5 51/3/5 50/3/5 173/3/5
f 94/1/5 132/1/5 131/1/5 95/1/5
f 17/1/5 24/1/5 23/1/5 18/1/5
f 129/1/5 20/1/5 19/1/5 130/1/5
f 76/1/5 99/1/5 112/1/5 86/1/5
f 98/1/5 12/1/5 11/1/5 99/1/5
f 148/1/5 28/1/5 27/1/5 149/1/5
f 89/1/5 128/1/5 127/1/5 85/1/5
f 52/1/5 60/1/5 58/1/5 53/1/5
f 87/1/5 208/1/5 138/1/5 88/1/5
f 113/1/5 139/1/5 208/1/5 114/1/5
f 125/1/5 55/1/5 54/1/5 126/1/5
f 29/1/5 62/1/5 63/1/5 30/1/5
f 133/1/5 32/1/5 209/1/5 137/1/5
f 31/1/5 65/1/5 64/1/5 209/1/5
f 117/3/6 43/3/6 42/3/6 118/3/6
f 96/1/6 2/1/6 1/1/6 97/1/6
f 154/1/6 22/1/6 21/1/6 155/1/6
f 210/2/6 211/2/6 33/2/6 104/2/6
f 103/2/6 212/2/6 140/2/6 210/2/6
f 3/1/6 6/1/6 5/1/6 4/1/6
f 212/2/6 34/2/6 213/2/6 141/2/6
f 146/1/6 153/1/6 152/1/6 147/1/6
f 15/2/6 213/2/6 211/2/6 16/2/6
f 91/5/6 214/5/6 107/5/6 92/5/6
f 93/1/6 215/1/6 214/1/6 91/1/6
f 215/1/6 75/1/6 216/1/6 102/1/6
f 7/1/6 145/1/6 144/1/6 8/1/6
f 217/5/6 71/5/6 70/5/6 36/5/6
f 35/1/6 216/1/6 71/1/6 217/1/6
f 82/1/6 106/1/6 109/1/6 83/1/6
f 37/1/6 67/1/6 66/1/6 39/1/6
f 80/1/6 108/1/6 100/1/6 79/1/6
f 100/1/6 10/1/6 9/1/6 101/1/6
f 150/1/6 26/1/6 25/1/6 151/1/6
f 135/1/6 218/1/6 56/1/6 136/1/6
f 40/1/6 69/1/6 218/1/6 41/1/6
