# generated by tools/rig_people.py — do not edit
mtllib people.mtl
o body
usemtl palette
v 1 19 -3.5
v 1 19 -2.5
v 1 20 -2.5
v 1 20 -3.5
v -1 14 -0.5
v -1 14 1.5
v -1 15 1.5
v -1 15 -0.5
v -3 18 -3.5
v -3 18 -2.5
v -3 19 -2.5
v -3 19 -3.5
v -3 20 -2.5
v -3 20 -3.5
v -3 23 -3.5
v -3 23 -2.5
v -3 24 -2.5
v -3 24 -3.5
v -3 15 -2.5
v -3 15 -1.5
v -3 17 -1.5
v -3 17 -2.5
v -3 18 -1.5
v -3 19 -1.5
v -3 7 -1.5
v -3 7 -0.5
v -3 8 -0.5
v -3 8 -1.5
v -3 8 2.5
v -3 14 2.5
v -3 14 -1.5
v -3 15 0.5
v -3 16 0.5
v -3 16 -1.5
v -3 7 1.5
v -3 8 1.5
v -3 7 2.5
v -3 23 2.5
v -3 23 3.5
v -3 24 3.5
v -3 24 2.5
v -4 20 -3.5
v -4 20 -1.5
v -4 23 -1.5
v -4 23 -3.5
v -4 19 -2.5
v -4 19 -1.5
v -4 20 -2.5
v -4 23 -2.5
v -4 23 2.5
v -4 24 2.5
v -4 24 -2.5
v -4 16 -1.5
v -4 16 -0.5
v -4 19 -0.5
v -4 19 0.5
v -4 21 0.5
v -4 21 -1.5
v -4 21 -0.5
v -4 22 -0.5
v -4 22 -1.5
v -4 22 3.5
v -4 23 3.5
v -4 16 0.5
v -4 21 3.5
v -4 17 0.5
v -4 17 1.5
v -4 21 1.5
v -4 17 2.5
v -4 20 2.5
v -4 20 1.5
v -4 20 3.5
v -4 17 3.5
v -5 15 0.5
v -5 15 3.5
v -5 17 3.5
v -5 17 0.5
v 5 17 0.5
v 5 17 3.5
v 5 15 3.5
v 5 15 0.5
v 4 23 -2.5
v 4 23 -1.5
v 4 19 -1.5
v 4 19 -2.5
v 4 19 -0.5
v 4 16 -0.5
v 4 16 -1.5
v 4 21 -1.5
v 4 21 -0.5
v 4 23 3.5
v 4 21 3.5
v 4 19 0.5
v 4 16 0.5
v 4 21 0.5
v 4 19 2.5
v 4 17 2.5
v 4 17 0.5
v 4 20 0.5
v 4 20 1.5
v 4 19 1.5
v 4 20 3.5
v 4 19 3.5
v 4 17 3.5
v 3 20 -3.5
v 3 20 -2.5
v 3 19 -2.5
v 3 19 -3.5
v 3 23 -3.5
v 3 23 -2.5
v 3 21 -2.5
v 3 21 -3.5
v 3 17 -2.5
v 3 17 -1.5
v 3 15 -1.5
v 3 15 -2.5
v 3 18 -2.5
v 3 18 -1.5
v 3 19 -1.5
v 3 24 -2.5
v 3 24 2.5
v 3 23 2.5
v 3 8 -1.5
v 3 8 -0.5
v 3 7 -0.5
v 3 7 -1.5
v 3 14 -1.5
v 3 14 2.5
v 3 8 2.5
v 3 16 -1.5
v 3 16 0.5
v 3 15 0.5
v 3 8 1.5
v 3 7 1.5
v 3 7 2.5
v 2 24 -3.5
v 2 24 -2.5
v 2 23 -2.5
v 2 23 -3.5
v 2 24 2.5
v 2 24 3.5
v 2 23 3.5
v 2 23 2.5
v 1 21 -3.5
v 1 21 -2.5
v 1 15 -0.5
v 1 15 1.5
v 1 14 1.5
v 1 14 -0.5
v -1 20 -3.5
v -1 20 -2.5
v -1 19 -2.5
v -1 19 -3.5
v -2 19 -3.5
v -2 19 -2.5
v -2 18 -2.5
v -2 18 -3.5
v 5 16 3.5
v -5 16 3.5
v -0 17 3.5
v -0 16 3.5
v 4 18 3.5
v -0 18 3.5
v 3 23 3.5
v 3 18 3.5
v 3 21 3.5
v 2 21 3.5
v 2 18 3.5
v -0 21 3.5
v -0 19 3.5
v -1 19 3.5
v -1 16 3.5
v -2 21 3.5
v -2 19 3.5
v -2 16 3.5
v -3 21 3.5
v -3 16 3.5
v -3 17 3.5
v 2 21 -3.5
v -0 21 -3.5
v -0 22 -3.5
v 2 22 -3.5
v 1 22 -3.5
v 1 23 -3.5
v -0 20 -3.5
v -1 22 -3.5
v -1 23 -3.5
v -3 21 -3.5
v -1 21 -3.5
v -2 21 -3.5
v -2 23 -3.5
v -4 21 -3.5
v 2 17 -2.5
v 2 18 -2.5
v 2 19 -2.5
v -2 17 -2.5
v 1 18 -2.5
v -1 18 -2.5
v -3 12 -1.5
v 3 12 -1.5
v -0 12 -1.5
v -0 13 -1.5
v 3 13 -1.5
v 1 13 -1.5
v 1 14 -1.5
v -1 13 -1.5
v -1 14 -1.5
v -1 12 -1.5
v 5 16 0.5
v -5 16 0.5
v 1 14 2.5
v -3 14 1.5
v 1 7 1.5
v 1 7 -0.5
v -1 7 1.5
v -1 7 -0.5
v 3 15 3.5
v 3 15 -0.5
v -3 15 -0.5
v 3 15 2.5
v 1 15 2.5
v -5 15 2.5
v -3 15 2.5
v -3 15 1.5
v 3 16 -0.5
v -3 16 -0.5
v -0 20 -2.5
v 2 21 -2.5
vt 0.4824219 0.5
vt 0.0410156 0.5
vt 0.4863281 0.5
vt 0.9785156 0.5
vt 0.5449219 0.5
vt 0.2910156 0.5
vt 0.7792969 0.5
vt 0.5292969 0.5
vt 0.0527344 0.5
vn -1 0 0
vn 1 0 0
vn 0 0 1
vn 0 0 -1
vn 0 1 0
vn 0 -1 0
f 1/1/1 2/1/1 3/1/1 4/1/1
f 5/2/1 6/2/1 7/2/1 8/2/1
f 9/1/1 10/1/1 11/1/1 12/1/1
f 12/3/1 11/3/1 13/3/1 14/3/1
f 15/1/1 16/1/1 17/1/1 18/1/1
f 19/4/1 20/4/1 21/4/1 22/4/1
f 22/5/1 21/5/1 23/5/1 10/5/1
f 10/2/1 23/2/1 24/2/1 11/2/1
f 25/6/1 26/6/1 27/6/1 28/6/1
f 28/7/1 29/7/1 30/7/1 31/7/1
f 20/2/1 32/2/1 33/2/1 34/2/1
f 26/8/1 35/8/1 36/8/1 27/8/1
f 35/6/1 37/6/1 29/6/1 36/6/1
f 38/1/1 39/1/1 40/1/1 41/1/1
f 42/1/1 43/1/1 44/1/1 45/1/1
f 46/1/1 47/1/1 43/1/1 48/1/1
f 49/1/1 50/1/1 51/1/1 52/1/1
f 53/1/1 54/1/1 55/1/1 47/1/1
f 47/3/1 56/3/1 57/3/1 58/3/1
f 58/3/1 59/3/1 60/3/1 61/3/1
f 61/1/1 62/1/1 63/1/1 44/1/1
f 54/9/1 64/9/1 56/9/1 55/9/1
f 59/1/1 65/1/1 62/1/1 60/1/1
f 66/1/1 67/1/1 68/1/1 57/1/1
f 67/3/1 69/3/1 70/3/1 71/3/1
f 71/1/1 72/1/1 65/1/1 68/1/1
f 69/1/1 73/1/1 72/1/1 70/1/1
f 74/1/1 75/1/1 76/1/1 77/1/1
f 78/1/2 79/1/2 80/1/2 81/1/2
f 82/1/2 83/1/2 84/1/2 85/1/2
f 84/1/2 86/1/2 87/1/2 88/1/2
f 89/3/2 90/3/2 86/3/2 84/3/2
f 83/1/2 91/1/2 92/1/2 89/1/2
f 86/9/2 93/9/2 94/9/2 87/9/2
f 90/1/2 95/1/2 93/1/2 86/1/2
f 93/3/2 96/3/2 97/3/2 98/3/2
f 99/3/2 100/3/2 101/3/2 93/3/2
f 95/1/2 92/1/2 102/1/2 99/1/2
f 100/1/2 102/1/2 103/1/2 101/1/2
f 96/1/2 103/1/2 104/1/2 97/1/2
f 105/1/2 106/1/2 107/1/2 108/1/2
f 109/1/2 110/1/2 111/1/2 112/1/2
f 113/4/2 114/4/2 115/4/2 116/4/2
f 117/5/2 118/5/2 114/5/2 113/5/2
f 107/2/2 119/2/2 118/2/2 117/2/2
f 120/1/2 121/1/2 122/1/2 110/1/2
f 123/6/2 124/6/2 125/6/2 126/6/2
f 127/7/2 128/7/2 129/7/2 123/7/2
f 130/2/2 131/2/2 132/2/2 115/2/2
f 124/8/2 133/8/2 134/8/2 125/8/2
f 133/6/2 129/6/2 135/6/2 134/6/2
f 136/1/2 137/1/2 138/1/2 139/1/2
f 140/1/2 141/1/2 142/1/2 143/1/2
f 144/3/2 145/3/2 3/3/2 4/3/2
f 146/2/2 147/2/2 148/2/2 149/2/2
f 150/3/2 151/3/2 152/3/2 153/3/2
f 154/1/2 155/1/2 156/1/2 157/1/2
f 147/2/3 7/2/3 6/2/3 148/2/3
f 129/6/3 29/6/3 37/6/3 135/6/3
f 128/7/3 30/7/3 29/7/3 129/7/3
f 121/1/3 140/1/3 143/1/3 122/1/3
f 41/1/3 51/1/3 50/1/3 38/1/3
f 158/1/3 159/1/3 75/1/3 80/1/3
f 79/1/3 160/1/3 161/1/3 158/1/3
f 162/1/3 163/1/3 160/1/3 104/1/3
f 91/1/3 164/1/3 165/1/3 162/1/3
f 166/3/3 167/3/3 168/3/3 165/3/3
f 164/1/3 63/1/3 65/1/3 166/1/3
f 167/1/3 169/1/3 163/1/3 168/1/3
f 141/1/3 40/1/3 39/1/3 142/1/3
f 170/3/3 171/3/3 172/3/3 161/3/3
f 169/1/3 173/1/3 174/1/3 170/1/3
f 171/1/3 174/1/3 175/1/3 172/1/3
f 173/3/3 176/3/3 177/3/3 175/3/3
f 178/1/3 76/1/3 159/1/3 177/1/3
f 176/1/3 65/1/3 73/1/3 178/1/3
f 108/1/4 1/1/4 4/1/4 105/1/4
f 112/1/4 179/1/4 139/1/4 109/1/4
f 179/3/4 180/3/4 181/3/4 182/3/4
f 182/3/4 183/3/4 184/3/4 139/3/4
f 139/1/4 15/1/4 18/1/4 136/1/4
f 4/3/4 185/3/4 180/3/4 144/3/4
f 183/1/4 186/1/4 187/1/4 184/1/4
f 185/1/4 150/1/4 186/1/4 181/1/4
f 153/3/4 12/3/4 188/3/4 189/3/4
f 189/3/4 190/3/4 191/3/4 187/3/4
f 157/1/4 9/1/4 12/1/4 154/1/4
f 190/1/4 192/1/4 45/1/4 191/1/4
f 14/1/4 42/1/4 192/1/4 188/1/4
f 85/1/4 107/1/4 110/1/4 82/1/4
f 116/4/4 19/4/4 22/4/4 113/4/4
f 113/5/4 193/5/4 194/5/4 117/5/4
f 117/2/4 194/2/4 195/2/4 107/2/4
f 106/2/4 3/2/4 145/2/4 111/2/4
f 110/1/4 138/1/4 137/1/4 120/1/4
f 193/4/4 196/4/4 156/4/4 194/4/4
f 194/8/4 197/8/4 2/8/4 195/8/4
f 197/2/4 198/2/4 151/2/4 3/2/4
f 198/8/4 156/8/4 155/8/4 152/8/4
f 196/5/4 22/5/4 10/5/4 156/5/4
f 11/1/4 46/1/4 48/1/4 13/1/4
f 16/1/4 49/1/4 52/1/4 17/1/4
f 88/1/4 130/1/4 119/1/4 84/1/4
f 126/6/4 25/6/4 28/6/4 123/6/4
f 123/7/4 28/7/4 199/7/4 200/7/4
f 200/7/4 201/7/4 202/7/4 203/7/4
f 203/7/4 204/7/4 205/7/4 127/7/4
f 204/4/4 206/4/4 207/4/4 205/4/4
f 201/4/4 208/4/4 206/4/4 202/4/4
f 208/7/4 199/7/4 31/7/4 207/7/4
f 34/1/4 53/1/4 47/1/4 24/1/4
f 149/2/4 5/2/4 8/2/4 146/2/4
f 81/1/4 132/1/4 131/1/4 209/1/4
f 209/1/4 94/1/4 98/1/4 78/1/4
f 32/1/4 74/1/4 210/1/4 33/1/4
f 64/1/4 210/1/4 77/1/4 66/1/4
f 127/7/5 205/7/5 211/7/5 128/7/5
f 205/4/5 207/4/5 5/4/5 149/4/5
f 148/7/5 212/7/5 30/7/5 211/7/5
f 207/7/5 31/7/5 212/7/5 6/7/5
f 78/1/5 98/1/5 104/1/5 79/1/5
f 66/1/5 77/1/5 76/1/5 73/1/5
f 105/1/5 4/1/5 3/1/5 106/1/5
f 82/1/5 110/1/5 164/1/5 91/1/5
f 109/1/5 139/1/5 138/1/5 110/1/5
f 122/1/5 143/1/5 142/1/5 164/1/5
f 15/1/5 45/1/5 49/1/5 16/1/5
f 38/1/5 50/1/5 63/1/5 39/1/5
f 120/1/5 52/1/5 51/1/5 121/1/5
f 136/1/5 18/1/5 17/1/5 137/1/5
f 140/1/5 41/1/5 40/1/5 141/1/5
f 125/6/6 26/6/6 25/6/6 126/6/6
f 134/8/6 213/8/6 214/8/6 125/8/6
f 135/6/6 37/6/6 35/6/6 134/6/6
f 213/6/6 215/6/6 216/6/6 214/6/6
f 215/8/6 35/8/6 26/8/6 216/8/6
f 80/1/6 217/1/6 132/1/6 81/1/6
f 115/4/6 20/4/6 19/4/6 116/4/6
f 218/2/6 219/2/6 20/2/6 115/2/6
f 220/2/6 221/2/6 146/2/6 218/2/6
f 217/1/6 75/1/6 222/1/6 220/1/6
f 221/2/6 223/2/6 224/2/6 147/2/6
f 7/2/6 224/2/6 219/2/6 8/2/6
f 223/1/6 222/1/6 74/1/6 32/1/6
f 87/1/6 225/1/6 130/1/6 88/1/6
f 94/9/6 131/9/6 225/9/6 87/9/6
f 226/1/6 54/1/6 53/1/6 34/1/6
f 33/9/6 64/9/6 54/9/6 226/9/6
f 156/1/6 10/1/6 9/1/6 157/1/6
f 84/1/6 119/1/6 107/1/6 85/1/6
f 107/1/6 2/1/6 1/1/6 108/1/6
f 152/3/6 155/3/6 154/3/6 153/3/6
f 24/1/6 47/1/6 46/1/6 11/1/6
f 3/3/6 227/3/6 185/3/6 4/3/6
f 227/1/6 151/1/6 150/1/6 185/1/6
f 13/1/6 48/1/6 42/1/6 14/1/6
f 111/1/6 228/1/6 179/1/6 112/1/6
f 228/3/6 145/3/6 144/3/6 179/3/6
