# MagicaVoxel @ Ephtracy

# group
o 

# material
mtllib Character-4.mtl
usemtl palette

# normals
vn -1 0 0
vn 1 0 0
vn 0 0 1
vn 0 0 -1
vn 0 -1 0
vn 0 1 0

# texcoords
vt 0.0371094 0.5
vt 0.0488281 0.5
vt 0.173828 0.5
vt 0.525391 0.5
vt 0.544922 0.5
vt 0.548828 0.5
vt 0.607422 0.5
vt 0.611328 0.5
vt 0.615234 0.5
vt 0.646484 0.5
vt 0.677734 0.5

# verts
v 1.8 0.6 -3.8
v 1.8 0.6 -4
v 1.8 0.8 -3.8
v 1.8 0.8 -4
v 1.8 1.4 -3.8
v 1.8 1.4 -4
v 1.8 1.5 -3.9
v 1.8 1.5 -4.3
v 1.8 1.6 -3.9
v 1.8 1.6 -4.3
v 1.9 1.6 -3.7
v 1.9 1.6 -3.8
v 1.9 1.6 -3.9
v 1.9 1.6 -4.2
v 1.9 1.8 -3.9
v 1.9 1.8 -4.2
v 1.9 1.9 -3.6
v 1.9 1.9 -3.7
v 1.9 1.9 -3.8
v 1.9 1.9 -3.9
v 1.9 2.2 -4.1
v 1.9 2.2 -4.2
v 1.9 2.3 -3.6
v 1.9 2.3 -4.1
v 2 0 -3.7
v 2 0 -4
v 2 0.1 -3.7
v 2 0.1 -3.8
v 2 0.1 -4
v 2 0.3 -3.8
v 2 0.3 -4
v 2 0.6 -3.7
v 2 0.6 -3.8
v 2 0.6 -4
v 2 0.6 -4.1
v 2 0.8 -3.7
v 2 0.8 -3.8
v 2 0.8 -4
v 2 0.8 -4.1
v 2 0.9 -3.7
v 2 0.9 -3.8
v 2 0.9 -4
v 2 0.9 -4.1
v 2 1.4 -3.7
v 2 1.4 -3.8
v 2 1.4 -4
v 2 1.4 -4.1
v 2 1.5 -3.6
v 2 1.5 -3.9
v 2 1.6 -3.6
v 2 1.6 -3.7
v 2 1.6 -3.8
v 2 1.6 -3.9
v 2 1.8 -3.6
v 2 1.8 -3.7
v 2 1.9 -3.5
v 2 1.9 -3.6
v 2 1.9 -3.7
v 2 2.2 -3.5
v 2 2.2 -3.6
v 2 2.2 -4.1
v 2 2.2 -4.2
v 2 2.3 -3.6
v 2 2.3 -4.1
v 2 2.3 -4.2
v 2 2.4 -3.5
v 2 2.4 -4.1
v 2.1 2.3 -4.1
v 2.1 2.3 -4.2
v 2.1 2.4 -4.1
v 2.1 2.4 -4.2
v 2.2 1.4 -3.8
v 2.2 1.4 -4
v 2.2 1.5 -3.8
v 2.2 1.5 -4
v 2.3 2 -3.5
v 2.3 2 -3.6
v 2.3 2.2 -3.5
v 2.3 2.2 -3.6
v 2.4 0 -3.7
v 2.4 0 -4
v 2.4 0.1 -3.7
v 2.4 0.1 -3.8
v 2.4 0.1 -4
v 2.4 0.3 -3.8
v 2.4 0.3 -4
v 2.4 0.6 -3.8
v 2.4 0.6 -4
v 2.4 1.9 -3.5
v 2.4 1.9 -3.6
v 2.4 2 -3.5
v 2.4 2 -3.6
v 2.1 2 -3.5
v 2.1 2 -3.6
v 2.1 2.1 -3.5
v 2.1 2.1 -3.6
v 2.2 0 -3.7
v 2.2 0 -4
v 2.2 0.1 -3.7
v 2.2 0.1 -3.8
v 2.2 0.1 -4
v 2.2 0.3 -3.8
v 2.2 0.3 -4
v 2.2 0.6 -3.8
v 2.2 0.6 -4
v 2.2 1.9 -3.5
v 2.2 1.9 -3.6
v 2.2 2 -3.5
v 2.2 2 -3.6
v 2.2 2.1 -3.5
v 2.2 2.1 -3.6
v 2.2 2.2 -3.5
v 2.2 2.2 -3.6
v 2.4 1.4 -3.8
v 2.4 1.4 -4
v 2.4 1.5 -3.8
v 2.4 1.5 -4
v 2.4 2.3 -3.5
v 2.4 2.3 -3.6
v 2.4 2.4 -3.5
v 2.4 2.4 -3.6
v 2.5 2.3 -4.1
v 2.5 2.3 -4.2
v 2.5 2.4 -4.1
v 2.5 2.4 -4.2
v 2.6 0 -3.7
v 2.6 0 -4
v 2.6 0.1 -3.7
v 2.6 0.1 -3.8
v 2.6 0.1 -4
v 2.6 0.3 -3.8
v 2.6 0.3 -4
v 2.6 0.6 -3.7
v 2.6 0.6 -3.8
v 2.6 0.6 -4
v 2.6 0.6 -4.1
v 2.6 0.8 -3.7
v 2.6 0.8 -3.8
v 2.6 0.8 -4
v 2.6 0.8 -4.1
v 2.6 0.9 -3.7
v 2.6 0.9 -3.8
v 2.6 0.9 -4
v 2.6 0.9 -4.1
v 2.6 1.4 -3.7
v 2.6 1.4 -3.8
v 2.6 1.4 -4
v 2.6 1.4 -4.1
v 2.6 1.5 -3.6
v 2.6 1.5 -3.9
v 2.6 1.6 -3.6
v 2.6 1.6 -3.7
v 2.6 1.6 -3.8
v 2.6 1.6 -3.9
v 2.6 1.8 -3.6
v 2.6 1.8 -3.7
v 2.6 1.9 -3.5
v 2.6 1.9 -3.6
v 2.6 2 -3.5
v 2.6 2 -3.6
v 2.6 2 -3.7
v 2.6 2.2 -4.1
v 2.6 2.2 -4.2
v 2.6 2.3 -3.6
v 2.6 2.3 -4.1
v 2.6 2.3 -4.2
v 2.6 2.4 -3.6
v 2.6 2.4 -4.1
v 2.7 1.6 -3.7
v 2.7 1.6 -3.8
v 2.7 1.6 -3.9
v 2.7 1.6 -4.2
v 2.7 1.8 -3.9
v 2.7 1.8 -4.2
v 2.7 1.9 -3.8
v 2.7 1.9 -3.9
v 2.7 2 -3.5
v 2.7 2 -3.7
v 2.7 2.2 -4.1
v 2.7 2.2 -4.2
v 2.7 2.3 -3.5
v 2.7 2.3 -4.1
v 2.8 0.6 -3.8
v 2.8 0.6 -4
v 2.8 0.8 -3.8
v 2.8 0.8 -4
v 2.8 1.4 -3.8
v 2.8 1.4 -4
v 2.8 1.5 -3.9
v 2.8 1.5 -4.3
v 2.8 1.6 -3.9
v 2.8 1.6 -4.3
v 2 1.9 -3.5
v 2 2.2 -3.5
v 2 2.4 -3.5
v 2.1 1.9 -3.5
v 2.1 2 -3.5
v 2.1 2.1 -3.5
v 2.1 2.2 -3.5
v 2.1 2.4 -3.5
v 2.2 1.9 -3.5
v 2.2 2 -3.5
v 2.2 2.1 -3.5
v 2.2 2.2 -3.5
v 2.3 2 -3.5
v 2.3 2.2 -3.5
v 2.3 2.4 -3.5
v 2.4 1.9 -3.5
v 2.4 2 -3.5
v 2.4 2.3 -3.5
v 2.4 2.4 -3.5
v 2.6 1.9 -3.5
v 2.6 2 -3.5
v 2.7 2 -3.5
v 2.7 2.3 -3.5
v 1.9 1.9 -3.6
v 1.9 2.3 -3.6
v 2 1.5 -3.6
v 2 1.6 -3.6
v 2 1.8 -3.6
v 2 1.9 -3.6
v 2 2.2 -3.6
v 2 2.3 -3.6
v 2.1 1.6 -3.6
v 2.1 1.8 -3.6
v 2.1 1.9 -3.6
v 2.1 2 -3.6
v 2.1 2.1 -3.6
v 2.2 1.6 -3.6
v 2.2 1.7 -3.6
v 2.2 1.8 -3.6
v 2.2 1.9 -3.6
v 2.2 2 -3.6
v 2.2 2.1 -3.6
v 2.2 2.2 -3.6
v 2.3 2 -3.6
v 2.3 2.2 -3.6
v 2.4 1.6 -3.6
v 2.4 1.7 -3.6
v 2.4 1.8 -3.6
v 2.4 1.9 -3.6
v 2.4 2 -3.6
v 2.4 2.3 -3.6
v 2.4 2.4 -3.6
v 2.5 1.6 -3.6
v 2.5 1.8 -3.6
v 2.5 1.9 -3.6
v 2.6 1.5 -3.6
v 2.6 1.6 -3.6
v 2.6 1.8 -3.6
v 2.6 1.9 -3.6
v 2.6 2.3 -3.6
v 2.6 2.4 -3.6
v 1.9 1.6 -3.7
v 1.9 1.9 -3.7
v 2 0 -3.7
v 2 0.1 -3.7
v 2 0.6 -3.7
v 2 0.8 -3.7
v 2 0.9 -3.7
v 2 1.4 -3.7
v 2 1.6 -3.7
v 2 1.8 -3.7
v 2 1.9 -3.7
v 2.2 0 -3.7
v 2.2 0.1 -3.7
v 2.2 0.9 -3.7
v 2.2 1 -3.7
v 2.2 1.2 -3.7
v 2.2 1.4 -3.7
v 2.3 1 -3.7
v 2.3 1.1 -3.7
v 2.3 1.2 -3.7
v 2.3 1.3 -3.7
v 2.4 0 -3.7
v 2.4 0.1 -3.7
v 2.4 0.9 -3.7
v 2.4 1.1 -3.7
v 2.4 1.3 -3.7
v 2.4 1.4 -3.7
v 2.6 0 -3.7
v 2.6 0.1 -3.7
v 2.6 0.6 -3.7
v 2.6 0.8 -3.7
v 2.6 0.9 -3.7
v 2.6 1.4 -3.7
v 2.6 1.6 -3.7
v 2.6 1.8 -3.7
v 2.6 2 -3.7
v 2.7 1.6 -3.7
v 2.7 2 -3.7
v 1.8 0.6 -3.8
v 1.8 0.8 -3.8
v 1.8 1.4 -3.8
v 2 0.1 -3.8
v 2 0.3 -3.8
v 2 0.6 -3.8
v 2 0.8 -3.8
v 2 0.9 -3.8
v 2 1.4 -3.8
v 2.2 0.1 -3.8
v 2.2 0.3 -3.8
v 2.2 0.6 -3.8
v 2.2 1.4 -3.8
v 2.2 1.5 -3.8
v 2.4 0.1 -3.8
v 2.4 0.3 -3.8
v 2.4 0.6 -3.8
v 2.4 1.4 -3.8
v 2.4 1.5 -3.8
v 2.6 0.1 -3.8
v 2.6 0.3 -3.8
v 2.6 0.6 -3.8
v 2.6 0.8 -3.8
v 2.6 0.9 -3.8
v 2.6 1.4 -3.8
v 2.8 0.6 -3.8
v 2.8 0.8 -3.8
v 2.8 1.4 -3.8
v 1.8 1.5 -3.9
v 1.8 1.6 -3.9
v 1.9 1.5 -3.9
v 1.9 1.6 -3.9
v 2 1.5 -3.9
v 2 1.6 -3.9
v 2.6 1.5 -3.9
v 2.6 1.6 -3.9
v 2.7 1.5 -3.9
v 2.7 1.6 -3.9
v 2.8 1.5 -3.9
v 2.8 1.6 -3.9
v 1.8 0.6 -4
v 1.8 0.8 -4
v 1.8 1.4 -4
v 2 0 -4
v 2 0.1 -4
v 2 0.3 -4
v 2 0.6 -4
v 2 0.8 -4
v 2 0.9 -4
v 2 1.4 -4
v 2.2 0 -4
v 2.2 0.1 -4
v 2.2 0.3 -4
v 2.2 0.6 -4
v 2.2 1.4 -4
v 2.2 1.5 -4
v 2.4 0 -4
v 2.4 0.1 -4
v 2.4 0.3 -4
v 2.4 0.6 -4
v 2.4 1.4 -4
v 2.4 1.5 -4
v 2.6 0 -4
v 2.6 0.1 -4
v 2.6 0.3 -4
v 2.6 0.6 -4
v 2.6 0.8 -4
v 2.6 0.9 -4
v 2.6 1.4 -4
v 2.8 0.6 -4
v 2.8 0.8 -4
v 2.8 1.4 -4
v 1.9 2.2 -4.1
v 1.9 2.3 -4.1
v 2 0.6 -4.1
v 2 0.8 -4.1
v 2 0.9 -4.1
v 2 1.4 -4.1
v 2 2.2 -4.1
v 2 2.3 -4.1
v 2 2.4 -4.1
v 2.1 2.3 -4.1
v 2.1 2.4 -4.1
v 2.5 2.3 -4.1
v 2.5 2.4 -4.1
v 2.6 0.6 -4.1
v 2.6 0.8 -4.1
v 2.6 0.9 -4.1
v 2.6 1.4 -4.1
v 2.6 2.2 -4.1
v 2.6 2.3 -4.1
v 2.6 2.4 -4.1
v 2.7 2.2 -4.1
v 2.7 2.3 -4.1
v 1.9 1.6 -4.2
v 1.9 1.8 -4.2
v 1.9 2.2 -4.2
v 2 2.2 -4.2
v 2 2.3 -4.2
v 2.1 2.3 -4.2
v 2.1 2.4 -4.2
v 2.5 2.3 -4.2
v 2.5 2.4 -4.2
v 2.6 2.2 -4.2
v 2.6 2.3 -4.2
v 2.7 1.6 -4.2
v 2.7 1.8 -4.2
v 2.7 2.2 -4.2
v 1.8 1.5 -4.3
v 1.8 1.6 -4.3
v 2.8 1.5 -4.3
v 2.8 1.6 -4.3
v 2 0 -3.7
v 2.2 0 -3.7
v 2.4 0 -3.7
v 2.6 0 -3.7
v 2 0 -4
v 2.2 0 -4
v 2.4 0 -4
v 2.6 0 -4
v 2 0.6 -3.7
v 2.6 0.6 -3.7
v 1.8 0.6 -3.8
v 2 0.6 -3.8
v 2.2 0.6 -3.8
v 2.4 0.6 -3.8
v 2.6 0.6 -3.8
v 2.8 0.6 -3.8
v 1.8 0.6 -4
v 2 0.6 -4
v 2.2 0.6 -4
v 2.4 0.6 -4
v 2.6 0.6 -4
v 2.8 0.6 -4
v 2 0.6 -4.1
v 2.6 0.6 -4.1
v 2 1.5 -3.6
v 2.6 1.5 -3.6
v 2.2 1.5 -3.8
v 2.4 1.5 -3.8
v 1.8 1.5 -3.9
v 1.9 1.5 -3.9
v 2 1.5 -3.9
v 2.6 1.5 -3.9
v 2.7 1.5 -3.9
v 2.8 1.5 -3.9
v 2.2 1.5 -4
v 2.4 1.5 -4
v 2 1.5 -4.1
v 2.6 1.5 -4.1
v 1.9 1.5 -4.2
v 2.7 1.5 -4.2
v 1.8 1.5 -4.3
v 2.8 1.5 -4.3
v 1.9 1.6 -3.7
v 2 1.6 -3.7
v 2.6 1.6 -3.7
v 2.7 1.6 -3.7
v 1.9 1.6 -3.8
v 2 1.6 -3.8
v 2.6 1.6 -3.8
v 2.7 1.6 -3.8
v 1.9 1.6 -3.9
v 2 1.6 -3.9
v 2.6 1.6 -3.9
v 2.7 1.6 -3.9
v 2 1.9 -3.5
v 2.1 1.9 -3.5
v 2.2 1.9 -3.5
v 2.4 1.9 -3.5
v 2.6 1.9 -3.5
v 1.9 1.9 -3.6
v 2 1.9 -3.6
v 2.1 1.9 -3.6
v 2.2 1.9 -3.6
v 2.4 1.9 -3.6
v 2.5 1.9 -3.6
v 2.6 1.9 -3.6
v 1.9 1.9 -3.7
v 2 1.9 -3.7
v 2.3 2 -3.5
v 2.4 2 -3.5
v 2.6 2 -3.5
v 2.7 2 -3.5
v 2.3 2 -3.6
v 2.4 2 -3.6
v 2.6 2 -3.6
v 2.6 2 -3.7
v 2.7 2 -3.7
v 2.1 2.1 -3.5
v 2.2 2.1 -3.5
v 2.1 2.1 -3.6
v 2.2 2.1 -3.6
v 2.2 2.2 -3.5
v 2.3 2.2 -3.5
v 2.2 2.2 -3.6
v 2.3 2.2 -3.6
v 2 0.1 -3.7
v 2.2 0.1 -3.7
v 2.4 0.1 -3.7
v 2.6 0.1 -3.7
v 2 0.1 -3.8
v 2.2 0.1 -3.8
v 2.4 0.1 -3.8
v 2.6 0.1 -3.8
v 2 1.4 -3.7
v 2.2 1.4 -3.7
v 2.4 1.4 -3.7
v 2.6 1.4 -3.7
v 1.8 1.4 -3.8
v 2 1.4 -3.8
v 2.2 1.4 -3.8
v 2.4 1.4 -3.8
v 2.6 1.4 -3.8
v 2.8 1.4 -3.8
v 1.8 1.4 -4
v 2 1.4 -4
v 2.2 1.4 -4
v 2.4 1.4 -4
v 2.6 1.4 -4
v 2.8 1.4 -4
v 2 1.4 -4.1
v 2.6 1.4 -4.1
v 1.8 1.6 -3.9
v 1.9 1.6 -3.9
v 2.7 1.6 -3.9
v 2.8 1.6 -3.9
v 1.9 1.6 -4.2
v 2.7 1.6 -4.2
v 1.8 1.6 -4.3
v 2.8 1.6 -4.3
v 2.1 2 -3.5
v 2.2 2 -3.5
v 2.1 2 -3.6
v 2.2 2 -3.6
v 1.9 2.2 -4.1
v 2 2.2 -4.1
v 2.6 2.2 -4.1
v 2.7 2.2 -4.1
v 1.9 2.2 -4.2
v 2 2.2 -4.2
v 2.6 2.2 -4.2
v 2.7 2.2 -4.2
v 2.4 2.3 -3.5
v 2.7 2.3 -3.5
v 1.9 2.3 -3.6
v 2 2.3 -3.6
v 2.4 2.3 -3.6
v 2.6 2.3 -3.6
v 1.9 2.3 -4.1
v 2 2.3 -4.1
v 2.1 2.3 -4.1
v 2.5 2.3 -4.1
v 2.6 2.3 -4.1
v 2.7 2.3 -4.1
v 2 2.3 -4.2
v 2.1 2.3 -4.2
v 2.5 2.3 -4.2
v 2.6 2.3 -4.2
v 2 2.4 -3.5
v 2.1 2.4 -3.5
v 2.3 2.4 -3.5
v 2.4 2.4 -3.5
v 2.1 2.4 -3.6
v 2.3 2.4 -3.6
v 2.4 2.4 -3.6
v 2.6 2.4 -3.6
v 2 2.4 -4.1
v 2.1 2.4 -4.1
v 2.5 2.4 -4.1
v 2.6 2.4 -4.1
v 2.1 2.4 -4.2
v 2.5 2.4 -4.2

# faces
f 3/1/1 2/1/1 1/1/1
f 4/1/1 2/1/1 3/1/1
f 5/3/1 4/3/1 3/3/1
f 6/3/1 4/3/1 5/3/1
f 9/10/1 8/10/1 7/10/1
f 10/10/1 8/10/1 9/10/1
f 15/2/1 13/2/1 12/2/1
f 15/10/1 14/10/1 13/10/1
f 16/10/1 14/10/1 15/10/1
f 18/3/1 12/3/1 11/3/1
f 19/2/1 15/2/1 12/2/1
f 19/3/1 12/3/1 18/3/1
f 20/3/1 16/3/1 15/3/1
f 20/2/1 15/2/1 19/2/1
f 21/3/1 18/3/1 17/3/1
f 21/3/1 16/3/1 20/3/1
f 21/3/1 20/3/1 19/3/1
f 21/3/1 19/3/1 18/3/1
f 22/3/1 16/3/1 21/3/1
f 23/3/1 21/3/1 17/3/1
f 24/3/1 21/3/1 23/3/1
f 27/4/1 26/4/1 25/4/1
f 28/4/1 26/4/1 27/4/1
f 29/4/1 26/4/1 28/4/1
f 30/1/1 29/1/1 28/1/1
f 31/1/1 29/1/1 30/1/1
f 33/4/1 31/4/1 30/4/1
f 34/4/1 31/4/1 33/4/1
f 36/11/1 33/11/1 32/11/1
f 37/11/1 33/11/1 36/11/1
f 38/11/1 35/11/1 34/11/1
f 39/11/1 35/11/1 38/11/1
f 40/7/1 37/7/1 36/7/1
f 41/7/1 37/7/1 40/7/1
f 42/7/1 39/7/1 38/7/1
f 43/7/1 39/7/1 42/7/1
f 44/3/1 41/3/1 40/3/1
f 45/3/1 41/3/1 44/3/1
f 46/3/1 43/3/1 42/3/1
f 47/3/1 43/3/1 46/3/1
f 50/1/1 49/1/1 48/1/1
f 51/1/1 49/1/1 50/1/1
f 52/1/1 49/1/1 51/1/1
f 53/1/1 49/1/1 52/1/1
f 54/5/1 51/5/1 50/5/1
f 55/5/1 51/5/1 54/5/1
f 57/1/1 55/1/1 54/1/1
f 58/1/1 55/1/1 57/1/1
f 59/10/1 57/10/1 56/10/1
f 60/10/1 57/10/1 59/10/1
f 63/3/1 60/3/1 59/3/1
f 64/3/1 62/3/1 61/3/1
f 65/3/1 62/3/1 64/3/1
f 66/3/1 63/3/1 59/3/1
f 66/3/1 64/3/1 63/3/1
f 67/3/1 64/3/1 66/3/1
f 70/3/1 69/3/1 68/3/1
f 71/3/1 69/3/1 70/3/1
f 74/1/1 73/1/1 72/1/1
f 75/1/1 73/1/1 74/1/1
f 78/3/1 77/3/1 76/3/1
f 79/3/1 77/3/1 78/3/1
f 82/4/1 81/4/1 80/4/1
f 83/4/1 81/4/1 82/4/1
f 84/4/1 81/4/1 83/4/1
f 85/1/1 84/1/1 83/1/1
f 86/1/1 84/1/1 85/1/1
f 87/4/1 86/4/1 85/4/1
f 88/4/1 86/4/1 87/4/1
f 91/3/1 90/3/1 89/3/1
f 92/3/1 90/3/1 91/3/1
f 93/10/2 94/10/2 95/10/2
f 95/10/2 94/10/2 96/10/2
f 97/4/2 98/4/2 99/4/2
f 99/4/2 98/4/2 100/4/2
f 100/4/2 98/4/2 101/4/2
f 100/1/2 101/1/2 102/1/2
f 102/1/2 101/1/2 103/1/2
f 102/4/2 103/4/2 104/4/2
f 104/4/2 103/4/2 105/4/2
f 106/4/2 107/4/2 108/4/2
f 108/4/2 107/4/2 109/4/2
f 110/10/2 111/10/2 112/10/2
f 112/10/2 111/10/2 113/10/2
f 114/1/2 115/1/2 116/1/2
f 116/1/2 115/1/2 117/1/2
f 118/3/2 119/3/2 120/3/2
f 120/3/2 119/3/2 121/3/2
f 122/3/2 123/3/2 124/3/2
f 124/3/2 123/3/2 125/3/2
f 126/4/2 127/4/2 128/4/2
f 128/4/2 127/4/2 129/4/2
f 129/4/2 127/4/2 130/4/2
f 129/1/2 130/1/2 131/1/2
f 131/1/2 130/1/2 132/1/2
f 131/4/2 132/4/2 134/4/2
f 134/4/2 132/4/2 135/4/2
f 133/11/2 134/11/2 137/11/2
f 137/11/2 134/11/2 138/11/2
f 135/11/2 136/11/2 139/11/2
f 139/11/2 136/11/2 140/11/2
f 137/7/2 138/7/2 141/7/2
f 141/7/2 138/7/2 142/7/2
f 139/7/2 140/7/2 143/7/2
f 143/7/2 140/7/2 144/7/2
f 141/3/2 142/3/2 145/3/2
f 145/3/2 142/3/2 146/3/2
f 143/3/2 144/3/2 147/3/2
f 147/3/2 144/3/2 148/3/2
f 149/1/2 150/1/2 151/1/2
f 151/1/2 150/1/2 152/1/2
f 152/1/2 150/1/2 153/1/2
f 153/1/2 150/1/2 154/1/2
f 151/5/2 152/5/2 155/5/2
f 155/5/2 152/5/2 156/5/2
f 155/1/2 156/1/2 158/1/2
f 157/3/2 158/3/2 159/3/2
f 158/1/2 156/1/2 160/1/2
f 159/3/2 158/3/2 160/3/2
f 160/1/2 156/1/2 161/1/2
f 162/3/2 163/3/2 165/3/2
f 165/3/2 163/3/2 166/3/2
f 164/3/2 165/3/2 167/3/2
f 167/3/2 165/3/2 168/3/2
f 170/2/2 171/2/2 173/2/2
f 171/10/2 172/10/2 173/10/2
f 173/10/2 172/10/2 174/10/2
f 169/3/2 170/3/2 175/3/2
f 170/2/2 173/2/2 175/2/2
f 173/3/2 174/3/2 176/3/2
f 175/2/2 173/2/2 176/2/2
f 169/3/2 175/3/2 178/3/2
f 175/3/2 176/3/2 178/3/2
f 176/3/2 174/3/2 179/3/2
f 177/3/2 178/3/2 179/3/2
f 178/3/2 176/3/2 179/3/2
f 179/3/2 174/3/2 180/3/2
f 177/3/2 179/3/2 181/3/2
f 181/3/2 179/3/2 182/3/2
f 183/1/2 184/1/2 185/1/2
f 185/1/2 184/1/2 186/1/2
f 185/3/2 186/3/2 187/3/2
f 187/3/2 186/3/2 188/3/2
f 189/10/2 190/10/2 191/10/2
f 191/10/2 190/10/2 192/10/2
f 196/10/3 194/10/3 193/10/3
f 197/10/3 194/10/3 196/10/3
f 198/10/3 194/10/3 197/10/3
f 199/3/3 195/3/3 194/3/3
f 199/10/3 194/10/3 198/10/3
f 200/3/3 195/3/3 199/3/3
f 201/4/3 197/4/3 196/4/3
f 202/4/3 197/4/3 201/4/3
f 203/10/3 200/10/3 199/10/3
f 203/10/3 199/10/3 198/10/3
f 204/10/3 200/10/3 203/10/3
f 206/10/3 200/10/3 204/10/3
f 207/10/3 200/10/3 206/10/3
f 209/3/3 206/3/3 205/3/3
f 209/3/3 207/3/3 206/3/3
f 210/3/3 207/3/3 209/3/3
f 211/3/3 207/3/3 210/3/3
f 212/3/3 209/3/3 208/3/3
f 212/3/3 210/3/3 209/3/3
f 213/3/3 210/3/3 212/3/3
f 214/3/3 210/3/3 213/3/3
f 215/3/3 210/3/3 214/3/3
f 221/3/3 217/3/3 216/3/3
f 222/3/3 217/3/3 221/3/3
f 223/3/3 217/3/3 222/3/3
f 224/5/3 220/5/3 219/5/3
f 224/1/3 219/1/3 218/1/3
f 225/1/3 221/1/3 220/1/3
f 225/5/3 220/5/3 224/5/3
f 226/1/3 221/1/3 225/1/3
f 229/1/3 224/1/3 218/1/3
f 229/1/3 225/1/3 224/1/3
f 230/1/3 225/1/3 229/1/3
f 231/4/3 226/4/3 225/4/3
f 231/1/3 225/1/3 230/1/3
f 232/4/3 226/4/3 231/4/3
f 233/1/3 228/1/3 227/1/3
f 234/1/3 228/1/3 233/1/3
f 236/1/3 232/1/3 231/1/3
f 236/1/3 235/1/3 234/1/3
f 236/1/3 234/1/3 233/1/3
f 236/1/3 233/1/3 232/1/3
f 236/1/3 231/1/3 230/1/3
f 237/1/3 235/1/3 236/1/3
f 238/6/3 230/6/3 229/6/3
f 238/1/3 229/1/3 218/1/3
f 239/1/3 236/1/3 230/1/3
f 239/6/3 230/6/3 238/6/3
f 240/1/3 236/1/3 239/1/3
f 241/1/3 236/1/3 240/1/3
f 242/1/3 236/1/3 241/1/3
f 245/1/3 238/1/3 218/1/3
f 245/1/3 240/1/3 239/1/3
f 245/1/3 239/1/3 238/1/3
f 246/4/3 241/4/3 240/4/3
f 246/1/3 240/1/3 245/1/3
f 247/4/3 241/4/3 246/4/3
f 248/1/3 245/1/3 218/1/3
f 249/5/3 246/5/3 245/5/3
f 249/1/3 245/1/3 248/1/3
f 250/1/3 247/1/3 246/1/3
f 250/5/3 246/5/3 249/5/3
f 251/1/3 247/1/3 250/1/3
f 252/3/3 244/3/3 243/3/3
f 253/3/3 244/3/3 252/3/3
f 262/3/3 255/3/3 254/3/3
f 263/3/3 255/3/3 262/3/3
f 264/3/3 255/3/3 263/3/3
f 265/4/3 257/4/3 256/4/3
f 266/4/3 257/4/3 265/4/3
f 267/3/3 261/3/3 260/3/3
f 267/7/3 260/7/3 259/7/3
f 268/3/3 261/3/3 267/3/3
f 269/3/3 261/3/3 268/3/3
f 270/3/3 261/3/3 269/3/3
f 271/7/3 268/7/3 267/7/3
f 271/9/3 269/9/3 268/9/3
f 272/9/3 269/9/3 271/9/3
f 273/7/3 270/7/3 269/7/3
f 273/9/3 269/9/3 272/9/3
f 274/7/3 270/7/3 273/7/3
f 277/7/3 267/7/3 259/7/3
f 277/7/3 272/7/3 271/7/3
f 277/7/3 271/7/3 267/7/3
f 278/8/3 274/8/3 273/8/3
f 278/7/3 272/7/3 277/7/3
f 278/8/3 273/8/3 272/8/3
f 279/7/3 270/7/3 274/7/3
f 279/8/3 274/8/3 278/8/3
f 280/7/3 270/7/3 279/7/3
f 281/4/3 276/4/3 275/4/3
f 282/4/3 276/4/3 281/4/3
f 283/11/3 259/11/3 258/11/3
f 284/7/3 277/7/3 259/7/3
f 284/11/3 259/11/3 283/11/3
f 285/3/3 278/3/3 277/3/3
f 285/7/3 277/7/3 284/7/3
f 285/3/3 279/3/3 278/3/3
f 285/3/3 280/3/3 279/3/3
f 286/3/3 280/3/3 285/3/3
f 290/3/3 289/3/3 288/3/3
f 290/3/3 288/3/3 287/3/3
f 291/3/3 289/3/3 290/3/3
f 297/1/3 293/1/3 292/1/3
f 298/3/3 294/3/3 293/3/3
f 298/1/3 293/1/3 297/1/3
f 299/3/3 294/3/3 298/3/3
f 300/3/3 294/3/3 299/3/3
f 301/1/3 296/1/3 295/1/3
f 302/4/3 297/4/3 296/4/3
f 302/1/3 296/1/3 301/1/3
f 303/4/3 297/4/3 302/4/3
f 309/1/3 305/1/3 304/1/3
f 310/1/3 305/1/3 309/1/3
f 311/1/3 307/1/3 306/1/3
f 312/4/3 308/4/3 307/4/3
f 312/1/3 307/1/3 311/1/3
f 313/4/3 308/4/3 312/4/3
f 317/1/3 314/1/3 313/1/3
f 318/3/3 316/3/3 315/3/3
f 318/1/3 314/1/3 317/1/3
f 318/3/3 315/3/3 314/3/3
f 319/3/3 316/3/3 318/3/3
f 322/10/3 321/10/3 320/10/3
f 323/10/3 321/10/3 322/10/3
f 324/4/3 323/4/3 322/4/3
f 325/4/3 323/4/3 324/4/3
f 328/4/3 327/4/3 326/4/3
f 329/4/3 327/4/3 328/4/3
f 330/10/3 329/10/3 328/10/3
f 331/10/3 329/10/3 330/10/3
f 332/1/4 333/1/4 338/1/4
f 333/3/4 334/3/4 339/3/4
f 338/1/4 333/1/4 339/1/4
f 339/3/4 334/3/4 340/3/4
f 340/3/4 334/3/4 341/3/4
f 335/4/4 336/4/4 342/4/4
f 336/1/4 337/1/4 343/1/4
f 342/4/4 336/4/4 343/4/4
f 337/4/4 338/4/4 344/4/4
f 343/1/4 337/1/4 344/1/4
f 344/4/4 338/4/4 345/4/4
f 346/1/4 347/1/4 352/1/4
f 352/1/4 347/1/4 353/1/4
f 348/4/4 349/4/4 354/4/4
f 349/1/4 350/1/4 355/1/4
f 354/4/4 349/4/4 355/4/4
f 350/4/4 351/4/4 356/4/4
f 355/1/4 350/1/4 356/1/4
f 356/4/4 351/4/4 357/4/4
f 357/1/4 358/1/4 361/1/4
f 359/3/4 360/3/4 362/3/4
f 361/1/4 358/1/4 362/1/4
f 358/3/4 359/3/4 362/3/4
f 362/3/4 360/3/4 363/3/4
f 364/3/4 365/3/4 370/3/4
f 370/3/4 365/3/4 371/3/4
f 371/3/4 372/3/4 373/3/4
f 373/3/4 372/3/4 374/3/4
f 366/11/4 367/11/4 377/11/4
f 367/7/4 368/7/4 378/7/4
f 377/11/4 367/11/4 378/11/4
f 368/3/4 369/3/4 379/3/4
f 378/7/4 368/7/4 379/7/4
f 379/3/4 369/3/4 380/3/4
f 375/3/4 376/3/4 382/3/4
f 382/3/4 376/3/4 383/3/4
f 381/3/4 382/3/4 384/3/4
f 384/3/4 382/3/4 385/3/4
f 387/3/4 388/3/4 389/3/4
f 389/3/4 390/3/4 391/3/4
f 389/3/4 391/3/4 393/3/4
f 391/3/4 392/3/4 393/3/4
f 393/3/4 392/3/4 394/3/4
f 387/3/4 389/3/4 395/3/4
f 389/3/4 393/3/4 395/3/4
f 395/3/4 393/3/4 396/3/4
f 386/10/4 387/10/4 397/10/4
f 387/3/4 395/3/4 398/3/4
f 397/10/4 387/10/4 398/10/4
f 398/3/4 395/3/4 399/3/4
f 400/10/4 401/10/4 402/10/4
f 402/10/4 401/10/4 403/10/4
f 408/4/5 405/4/5 404/4/5
f 409/4/5 405/4/5 408/4/5
f 410/4/5 407/4/5 406/4/5
f 411/4/5 407/4/5 410/4/5
f 415/11/5 413/11/5 412/11/5
f 416/11/5 413/11/5 415/11/5
f 417/11/5 413/11/5 416/11/5
f 418/11/5 413/11/5 417/11/5
f 420/1/5 415/1/5 414/1/5
f 421/1/5 415/1/5 420/1/5
f 422/11/5 417/11/5 416/11/5
f 423/11/5 417/11/5 422/11/5
f 424/1/5 419/1/5 418/1/5
f 425/1/5 419/1/5 424/1/5
f 426/11/5 423/11/5 422/11/5
f 426/11/5 424/11/5 423/11/5
f 426/11/5 422/11/5 421/11/5
f 427/11/5 424/11/5 426/11/5
f 430/1/5 429/1/5 428/1/5
f 431/1/5 429/1/5 430/1/5
f 434/1/5 430/1/5 428/1/5
f 435/1/5 429/1/5 431/1/5
f 438/1/5 430/1/5 434/1/5
f 439/1/5 435/1/5 431/1/5
f 440/4/5 434/4/5 433/4/5
f 440/1/5 439/1/5 438/1/5
f 440/1/5 438/1/5 434/1/5
f 441/1/5 435/1/5 439/1/5
f 441/1/5 439/1/5 440/1/5
f 441/4/5 436/4/5 435/4/5
f 442/10/5 433/10/5 432/10/5
f 442/4/5 440/4/5 433/4/5
f 442/4/5 441/4/5 440/4/5
f 443/4/5 436/4/5 441/4/5
f 443/4/5 441/4/5 442/4/5
f 443/10/5 437/10/5 436/10/5
f 444/10/5 442/10/5 432/10/5
f 444/10/5 443/10/5 442/10/5
f 445/10/5 437/10/5 443/10/5
f 445/10/5 443/10/5 444/10/5
f 450/3/5 447/3/5 446/3/5
f 451/3/5 447/3/5 450/3/5
f 452/3/5 449/3/5 448/3/5
f 453/3/5 449/3/5 452/3/5
f 454/2/5 451/2/5 450/2/5
f 455/2/5 451/2/5 454/2/5
f 456/2/5 453/2/5 452/2/5
f 457/2/5 453/2/5 456/2/5
f 464/10/5 459/10/5 458/10/5
f 465/4/5 460/4/5 459/4/5
f 465/10/5 459/10/5 464/10/5
f 466/4/5 460/4/5 465/4/5
f 467/3/5 462/3/5 461/3/5
f 468/3/5 462/3/5 467/3/5
f 469/3/5 462/3/5 468/3/5
f 470/3/5 464/3/5 463/3/5
f 471/3/5 464/3/5 470/3/5
f 476/3/5 473/3/5 472/3/5
f 477/3/5 473/3/5 476/3/5
f 478/3/5 475/3/5 474/3/5
f 479/3/5 475/3/5 478/3/5
f 480/3/5 475/3/5 479/3/5
f 483/10/5 482/10/5 481/10/5
f 484/10/5 482/10/5 483/10/5
f 487/10/5 486/10/5 485/10/5
f 488/10/5 486/10/5 487/10/5
f 489/4/6 490/4/6 493/4/6
f 493/4/6 490/4/6 494/4/6
f 491/4/6 492/4/6 495/4/6
f 495/4/6 492/4/6 496/4/6
f 497/3/6 498/3/6 502/3/6
f 498/7/6 499/7/6 503/7/6
f 502/3/6 498/3/6 503/3/6
f 499/3/6 500/3/6 504/3/6
f 503/7/6 499/7/6 504/7/6
f 504/3/6 500/3/6 505/3/6
f 502/3/6 503/3/6 507/3/6
f 501/3/6 502/3/6 507/3/6
f 507/3/6 503/3/6 508/3/6
f 508/3/6 503/3/6 509/3/6
f 505/3/6 506/3/6 510/3/6
f 504/3/6 505/3/6 510/3/6
f 510/3/6 506/3/6 511/3/6
f 511/3/6 506/3/6 512/3/6
f 508/3/6 509/3/6 513/3/6
f 510/3/6 511/3/6 513/3/6
f 509/3/6 510/3/6 513/3/6
f 513/3/6 511/3/6 514/3/6
f 515/10/6 516/10/6 519/10/6
f 517/10/6 518/10/6 520/10/6
f 515/10/6 519/10/6 521/10/6
f 519/10/6 520/10/6 521/10/6
f 520/10/6 518/10/6 522/10/6
f 521/10/6 520/10/6 522/10/6
f 523/4/6 524/4/6 525/4/6
f 525/4/6 524/4/6 526/4/6
f 527/3/6 528/3/6 531/3/6
f 531/3/6 528/3/6 532/3/6
f 529/3/6 530/3/6 533/3/6
f 533/3/6 530/3/6 534/3/6
f 535/3/6 536/3/6 539/3/6
f 539/3/6 536/3/6 540/3/6
f 537/3/6 538/3/6 541/3/6
f 541/3/6 538/3/6 542/3/6
f 540/3/6 536/3/6 545/3/6
f 545/3/6 536/3/6 546/3/6
f 542/3/6 543/3/6 547/3/6
f 547/3/6 543/3/6 548/3/6
f 544/3/6 545/3/6 549/3/6
f 549/3/6 545/3/6 550/3/6
f 551/3/6 552/3/6 555/3/6
f 552/10/6 553/10/6 555/10/6
f 553/3/6 554/3/6 556/3/6
f 555/10/6 553/10/6 556/10/6
f 556/3/6 554/3/6 557/3/6
f 551/3/6 555/3/6 559/3/6
f 557/3/6 558/3/6 559/3/6
f 556/3/6 557/3/6 559/3/6
f 555/3/6 556/3/6 559/3/6
f 559/3/6 558/3/6 560/3/6
f 560/3/6 558/3/6 561/3/6
f 561/3/6 558/3/6 562/3/6
f 560/3/6 561/3/6 563/3/6
f 563/3/6 561/3/6 564/3/6
