# generated by tools/rig_people.py — do not edit
mtllib people.mtl
o leg-l
usemtl palette
v -1 6 -2.5
v -1 6 -1.5
v -1 7 -1.5
v -1 7 -2.5
v -3 0 -1.5
v -3 0 1.5
v -3 1 1.5
v -3 1 -1.5
v -3 1 -0.5
v -3 2 1.5
v -3 2 -0.5
v -3 7 1.5
v -3 7 -0.5
v -0 7 -2.5
v -0 7 -1.5
v -0 6 -1.5
v -0 6 -2.5
v -1 1 -1.5
v -1 1 1.5
v -1 0 1.5
v -1 0 -1.5
v -1 2 -0.5
v -1 2 1.5
v -1 1 -0.5
v -1 7 -0.5
v -1 7 1.5
vt 0.8066406 0.5
vt 0.5253906 0.5
vt 0.0410156 0.5
vt 0.2792969 0.5
vn -1 0 0
vn 1 0 0
vn 0 0 1
vn 0 0 -1
vn 0 1 0
vn 0 -1 0
f 1/1/1 2/1/1 3/1/1 4/1/1
f 5/2/1 6/2/1 7/2/1 8/2/1
f 9/3/1 7/3/1 10/3/1 11/3/1
f 11/4/1 10/4/1 12/4/1 13/4/1
f 14/1/2 15/1/2 16/1/2 17/1/2
f 18/2/2 19/2/2 20/2/2 21/2/2
f 22/3/2 23/3/2 19/3/2 24/3/2
f 25/4/2 26/4/2 23/4/2 22/4/2
f 15/1/3 3/1/3 2/1/3 16/1/3
f 19/2/3 7/2/3 6/2/3 20/2/3
f 23/3/3 10/3/3 7/3/3 19/3/3
f 26/4/3 12/4/3 10/4/3 23/4/3
f 17/1/4 1/1/4 4/1/4 14/1/4
f 21/2/4 5/2/4 8/2/4 18/2/4
f 24/3/4 9/3/4 11/3/4 22/3/4
f 22/4/4 11/4/4 13/4/4 25/4/4
f 18/2/5 8/2/5 9/2/5 24/2/5
f 14/1/5 4/1/5 3/1/5 15/1/5
f 25/4/5 13/4/5 12/4/5 26/4/5
f 20/2/6 6/2/6 5/2/6 21/2/6
f 16/1/6 2/1/6 1/1/6 17/1/6
