# generated by tools/rig_people.py — do not edit
mtllib people.mtl
o body
usemtl palette
v 1 19 -3
v 1 19 -2
v 1 20 -2
v 1 20 -3
v -1 21 -4
v -1 21 -2
v -1 22 -2
v -1 22 -4
v -1 22 -3
v -1 23 -3
v -1 23 -4
v -1 24 -3
v -1 24 -4
v -1 24 -2
v -1 25 -2
v -1 25 -3
v -1 14 0
v -1 14 2
v -1 15 2
v -1 15 0
v -3 19 -3
v -3 19 -2
v -3 20 -2
v -3 20 -3
v -3 22 -3
v -3 22 -2
v -3 24 -2
v -3 24 -3
v -3 15 -2
v -3 15 0
v -3 17 0
v -3 17 -2
v -3 17 -1
v -3 20 -1
v -3 24 -1
v -3 25 -1
v -3 25 -2
v -3 7 -1
v -3 7 0
v -3 8 0
v -3 8 -1
v -3 8 3
v -3 9 3
v -3 9 -1
v -3 14 3
v -3 14 -1
v -3 7 2
v -3 8 2
v -3 15 3
v -3 16 3
v -3 16 0
v -3 7 3
v -3 24 3
v -3 24 4
v -3 25 4
v -3 25 3
v -4 20 -2
v -4 20 -1
v -4 23 -1
v -4 23 -2
v -4 23 0
v -4 24 0
v -4 24 -2
v -4 17 -1
v -4 17 0
v -4 22 0
v -4 22 -1
v -4 22 4
v -4 23 4
v -4 24 -1
v -4 24 1
v -4 25 1
v -4 25 -1
v -4 16 0
v -4 16 1
v -4 19 1
v -4 19 0
v -4 19 2
v -4 21 2
v -4 21 0
v -4 21 1
v -4 22 1
v -4 24 4
v -4 16 4
v -4 18 4
v -4 18 1
v -4 18 2
v -4 21 4
v -4 24 3
v -4 25 3
v 4 22 -2
v 4 22 0
v 4 19 0
v 4 19 -2
v 4 23 -2
v 4 23 -1
v 4 22 -1
v 4 24 -2
v 4 24 4
v 4 23 4
v 4 19 -1
v 4 17 0
v 4 17 -1
v 4 22 4
v 4 19 1
v 4 16 1
v 4 16 0
v 4 20 0
v 4 20 4
v 4 19 4
v 4 21 0
v 4 21 2
v 4 20 2
v 4 21 4
v 4 17 1
v 4 17 4
v 4 16 4
v 4 19 3
v 4 17 3
v 4 18 3
v 4 18 4
v 3 22 -4
v 3 22 -2
v 3 21 -2
v 3 21 -4
v 3 24 -4
v 3 24 -3
v 3 22 -3
v 3 20 -3
v 3 20 -2
v 3 19 -2
v 3 19 -3
v 3 25 -3
v 3 25 -2
v 3 17 -2
v 3 17 0
v 3 15 0
v 3 15 -2
v 3 19 -1
v 3 17 -1
v 3 25 4
v 3 24 4
v 3 24 -2
v 3 8 -1
v 3 8 0
v 3 7 0
v 3 7 -1
v 3 9 -1
v 3 9 3
v 3 8 3
v 3 13 -1
v 3 13 3
v 3 14 -1
v 3 14 0
v 3 13 0
v 3 8 2
v 3 7 2
v 3 14 3
v 3 16 0
v 3 16 3
v 3 15 3
v 3 7 3
v 1 15 0
v 1 15 2
v 1 14 2
v 1 14 0
v -1 20 -3
v -1 20 -2
v -1 19 -2
v -1 19 -3
v 3 20 4
v 3 18 4
v 1 24 4
v 1 20 4
v 1 18 4
v 1 22 4
v -3 22 4
v -3 18 4
v 2 21 -4
v 2 22 -4
v 2 24 -4
v -0 22 -4
v -0 23 -4
v 2 23 -4
v 1 23 -4
v 1 24 -4
v -2 22 -3
v -2 23 -3
v -3 23 -3
v 3 23 -2
v -3 18 -2
v 3 18 -2
v 2 18 -2
v 2 19 -2
v -3 21 -2
v 1 18 -2
v -1 18 -2
v -2 18 -2
v -2 19 -2
v -3 23 -2
v -3 11 -1
v 3 11 -1
v 1 11 -1
v 1 13 -1
v 2 13 -1
v 2 14 -1
v -3 13 -1
v -0 11 -1
v -0 12 -1
v 1 12 -1
v -1 12 -1
v -1 13 -1
v -3 12 -1
v -2 12 -1
v -2 13 -1
v 2 14 0
v 1 14 3
v -3 14 0
v -3 14 2
v 1 24 -3
v -1 25 4
v -3 25 1
v 1 7 2
v 1 7 0
v -1 7 2
v -1 7 0
v 1 15 3
v -3 15 2
v 3 16 1
v 3 16 4
v -4 16 3
v -3 16 1
v 2 21 -2
v 2 21 -3
v -1 21 -3
v -0 21 -2
v -0 21 -3
v -2 22 -2
vt 0.4511719 0.5
vt 0.4550781 0.5
vt 0.0410156 0.5
vt 0.9628906 0.5
vt 0.4785156 0.5
vt 0.2636719 0.5
vt 0.4472656 0.5
vt 0.0527344 0.5
vt 0.2597656 0.5
vt 0.5292969 0.5
vn -1 0 0
vn 1 0 0
vn 0 0 1
vn 0 0 -1
vn 0 1 0
vn 0 -1 0
f 1/1/1 2/1/1 3/1/1 4/1/1
f 5/2/1 6/2/1 7/2/1 8/2/1
f 8/2/1 9/2/1 10/2/1 11/2/1
f 11/1/1 10/1/1 12/1/1 13/1/1
f 12/1/1 14/1/1 15/1/1 16/1/1
f 17/3/1 18/3/1 19/3/1 20/3/1
f 21/1/1 22/1/1 23/1/1 24/1/1
f 25/1/1 26/1/1 27/1/1 28/1/1
f 29/1/1 30/1/1 31/1/1 32/1/1
f 32/3/1 33/3/1 34/3/1 23/3/1
f 27/1/1 35/1/1 36/1/1 37/1/1
f 38/4/1 39/4/1 40/4/1 41/4/1
f 41/5/1 42/5/1 43/5/1 44/5/1
f 44/6/1 43/6/1 45/6/1 46/6/1
f 39/3/1 47/3/1 48/3/1 40/3/1
f 30/3/1 49/3/1 50/3/1 51/3/1
f 47/4/1 52/4/1 42/4/1 48/4/1
f 53/1/1 54/1/1 55/1/1 56/1/1
f 57/1/1 58/1/1 59/1/1 60/1/1
f 60/7/1 61/7/1 62/7/1 63/7/1
f 64/2/1 65/2/1 66/2/1 67/2/1
f 67/1/1 68/1/1 69/1/1 59/1/1
f 70/7/1 71/7/1 72/7/1 73/7/1
f 74/8/1 75/8/1 76/8/1 77/8/1
f 77/2/1 78/2/1 79/2/1 80/2/1
f 80/2/1 81/2/1 82/2/1 66/2/1
f 61/1/1 69/1/1 83/1/1 62/1/1
f 75/1/1 84/1/1 85/1/1 86/1/1
f 86/2/1 87/2/1 78/2/1 76/2/1
f 81/1/1 88/1/1 68/1/1 82/1/1
f 71/1/1 89/1/1 90/1/1 72/1/1
f 87/1/1 85/1/1 88/1/1 79/1/1
f 91/1/2 92/1/2 93/1/2 94/1/2
f 95/7/2 96/7/2 97/7/2 91/7/2
f 98/1/2 99/1/2 100/1/2 95/1/2
f 101/1/2 93/1/2 102/1/2 103/1/2
f 96/1/2 100/1/2 104/1/2 97/1/2
f 93/8/2 105/8/2 106/8/2 107/8/2
f 108/2/2 109/2/2 110/2/2 93/2/2
f 111/2/2 112/2/2 113/2/2 108/2/2
f 92/1/2 104/1/2 114/1/2 111/1/2
f 115/1/2 116/1/2 117/1/2 106/1/2
f 105/2/2 118/2/2 119/2/2 115/2/2
f 112/1/2 114/1/2 109/1/2 113/1/2
f 120/1/2 121/1/2 116/1/2 119/1/2
f 118/2/2 110/2/2 121/2/2 120/2/2
f 122/1/2 123/1/2 124/1/2 125/1/2
f 126/7/2 127/7/2 128/7/2 122/7/2
f 129/1/2 130/1/2 131/1/2 132/1/2
f 133/1/2 134/1/2 123/1/2 128/1/2
f 135/1/2 136/1/2 137/1/2 138/1/2
f 131/3/2 139/3/2 140/3/2 135/3/2
f 134/1/2 141/1/2 142/1/2 143/1/2
f 144/4/2 145/4/2 146/4/2 147/4/2
f 148/5/2 149/5/2 150/5/2 144/5/2
f 151/6/2 152/6/2 149/6/2 148/6/2
f 153/9/2 154/9/2 155/9/2 151/9/2
f 145/3/2 156/3/2 157/3/2 146/3/2
f 154/6/2 158/6/2 152/6/2 155/6/2
f 159/3/2 160/3/2 161/3/2 137/3/2
f 156/4/2 150/4/2 162/4/2 157/4/2
f 163/3/2 164/3/2 165/3/2 166/3/2
f 167/1/2 168/1/2 169/1/2 170/1/2
f 164/3/3 19/3/3 18/3/3 165/3/3
f 150/4/3 42/4/3 52/4/3 162/4/3
f 149/5/3 43/5/3 42/5/3 150/5/3
f 158/6/3 45/6/3 43/6/3 149/6/3
f 160/3/3 50/3/3 49/3/3 161/3/3
f 56/1/3 90/1/3 89/1/3 53/1/3
f 121/1/3 85/1/3 84/1/3 117/1/3
f 109/2/3 171/2/3 172/2/3 121/2/3
f 99/1/3 173/1/3 174/1/3 109/1/3
f 171/1/3 174/1/3 175/1/3 172/1/3
f 141/1/3 55/1/3 54/1/3 142/1/3
f 176/2/3 177/2/3 178/2/3 175/2/3
f 173/1/3 83/1/3 68/1/3 176/1/3
f 177/1/3 68/1/3 85/1/3 178/1/3
f 125/1/4 179/1/4 180/1/4 122/1/4
f 122/7/4 180/7/4 181/7/4 126/7/4
f 179/2/4 5/2/4 8/2/4 180/2/4
f 180/1/4 182/1/4 183/1/4 184/1/4
f 184/7/4 185/7/4 186/7/4 181/7/4
f 185/1/4 11/1/4 13/1/4 186/1/4
f 182/2/4 8/2/4 11/2/4 183/2/4
f 132/1/4 1/1/4 4/1/4 129/1/4
f 127/1/4 12/1/4 16/1/4 133/1/4
f 170/1/4 21/1/4 24/1/4 167/1/4
f 9/2/4 187/2/4 188/2/4 10/2/4
f 10/1/4 189/1/4 28/1/4 12/1/4
f 187/1/4 25/1/4 189/1/4 188/1/4
f 94/1/4 131/1/4 123/1/4 91/1/4
f 91/7/4 123/7/4 190/7/4 95/7/4
f 95/1/4 190/1/4 143/1/4 98/1/4
f 138/1/4 29/1/4 32/1/4 135/1/4
f 135/3/4 32/3/4 191/3/4 192/3/4
f 192/3/4 193/3/4 194/3/4 131/3/4
f 130/3/4 23/3/4 195/3/4 124/3/4
f 193/10/4 196/10/4 2/10/4 194/10/4
f 196/3/4 197/3/4 168/3/4 3/3/4
f 197/10/4 198/10/4 199/10/4 169/10/4
f 6/3/4 195/3/4 26/3/4 7/3/4
f 14/1/4 27/1/4 37/1/4 15/1/4
f 198/3/4 191/3/4 22/3/4 199/3/4
f 23/1/4 57/1/4 60/1/4 200/1/4
f 200/7/4 60/7/4 63/7/4 27/7/4
f 103/1/4 140/1/4 139/1/4 101/1/4
f 147/4/4 38/4/4 41/4/4 144/4/4
f 144/5/4 41/5/4 44/5/4 148/5/4
f 148/6/4 44/6/4 201/6/4 202/6/4
f 202/6/4 203/6/4 204/6/4 151/6/4
f 151/9/4 205/9/4 206/9/4 153/9/4
f 205/6/4 207/6/4 46/6/4 206/6/4
f 203/9/4 208/9/4 209/9/4 210/9/4
f 210/6/4 211/6/4 212/6/4 204/6/4
f 208/6/4 201/6/4 213/6/4 209/6/4
f 211/9/4 214/9/4 215/9/4 212/9/4
f 214/6/4 213/6/4 207/6/4 215/6/4
f 33/2/4 64/2/4 58/2/4 34/2/4
f 35/7/4 70/7/4 73/7/4 36/7/4
f 107/8/4 159/8/4 136/8/4 102/8/4
f 166/3/4 17/3/4 20/3/4 163/3/4
f 51/8/4 74/8/4 65/8/4 31/8/4
f 153/9/5 206/9/5 216/9/5 154/9/5
f 154/6/5 166/6/5 217/6/5 158/6/5
f 206/6/5 46/6/5 218/6/5 216/6/5
f 165/6/5 219/6/5 45/6/5 217/6/5
f 17/6/5 218/6/5 219/6/5 18/6/5
f 129/1/5 4/1/5 3/1/5 130/1/5
f 167/1/5 24/1/5 23/1/5 168/1/5
f 98/1/5 143/1/5 142/1/5 99/1/5
f 126/7/5 186/7/5 220/7/5 127/7/5
f 186/1/5 13/1/5 12/1/5 220/1/5
f 12/1/5 28/1/5 27/1/5 14/1/5
f 27/7/5 63/7/5 70/7/5 35/7/5
f 53/1/5 89/1/5 83/1/5 54/1/5
f 133/1/5 16/1/5 221/1/5 141/1/5
f 15/1/5 37/1/5 55/1/5 221/1/5
f 36/7/5 73/7/5 72/7/5 222/7/5
f 222/1/5 72/1/5 90/1/5 56/1/5
f 146/4/6 39/4/6 38/4/6 147/4/6
f 157/3/6 223/3/6 224/3/6 146/3/6
f 162/4/6 52/4/6 47/4/6 157/4/6
f 223/4/6 225/4/6 226/4/6 224/4/6
f 225/3/6 47/3/6 39/3/6 226/3/6
f 137/1/6 30/1/6 29/1/6 138/1/6
f 161/3/6 227/3/6 163/3/6 137/3/6
f 227/3/6 49/3/6 228/3/6 164/3/6
f 19/3/6 228/3/6 30/3/6 20/3/6
f 106/8/6 229/8/6 159/8/6 107/8/6
f 117/1/6 230/1/6 229/1/6 106/1/6
f 230/1/6 84/1/6 231/1/6 160/1/6
f 232/8/6 75/8/6 74/8/6 51/8/6
f 50/1/6 231/1/6 75/1/6 232/1/6
f 102/1/6 136/1/6 140/1/6 103/1/6
f 31/2/6 65/2/6 64/2/6 33/2/6
f 101/1/6 139/1/6 131/1/6 94/1/6
f 131/1/6 2/1/6 1/1/6 132/1/6
f 169/1/6 22/1/6 21/1/6 170/1/6
f 34/1/6 58/1/6 57/1/6 23/1/6
f 124/1/6 233/1/6 179/1/6 125/1/6
f 234/2/6 235/2/6 5/2/6 179/2/6
f 233/1/6 236/1/6 237/1/6 234/1/6
f 236/2/6 6/2/6 235/2/6 237/2/6
f 7/2/6 238/2/6 187/2/6 9/2/6
f 238/1/6 26/1/6 25/1/6 187/1/6
