# MagicaVoxel @ Ephtracy

# group
o 

# material
mtllib Character-0.mtl
usemtl palette

# normals
vn -1 0 0
vn 1 0 0
vn 0 0 1
vn 0 0 -1
vn 0 -1 0
vn 0 1 0

# texcoords
vt 0.0371094 0.5
vt 0.0488281 0.5
vt 0.447266 0.5
vt 0.451172 0.5
vt 0.474609 0.5
vt 0.521484 0.5
vt 0.525391 0.5
vt 0.873047 0.5
vt 0.978516 0.5
vt 0.982422 0.5
vt 0.986328 0.5
vt 0.990234 0.5

# verts
v 3.8 0.9 -3.4
v 3.8 0.9 -3.6
v 3.8 0.9 -4
v 3.8 1.1 -3.4
v 3.8 1.1 -3.6
v 3.8 1.1 -3.8
v 3.8 1.4 -3.8
v 3.8 1.4 -4
v 3.9 0 -3.5
v 3.9 0 -3.6
v 3.9 0.9 -3.5
v 3.9 0.9 -3.6
v 3.9 1.1 -3.5
v 3.9 1.1 -3.6
v 3.9 1.3 -3.5
v 3.9 1.3 -3.6
v 3.9 1.6 -3.8
v 3.9 1.6 -3.9
v 3.9 1.6 -4.2
v 3.9 1.7 -3.7
v 3.9 1.7 -3.8
v 3.9 1.8 -3.7
v 3.9 1.8 -3.8
v 3.9 1.8 -4
v 3.9 1.8 -4.2
v 3.9 1.9 -3.6
v 3.9 1.9 -3.7
v 3.9 1.9 -3.8
v 3.9 1.9 -3.9
v 3.9 1.9 -4
v 3.9 2.3 -3.6
v 3.9 2.3 -3.7
v 3.9 2.4 -3.7
v 3.9 2.4 -4.2
v 4 0 -3.7
v 4 0 -4
v 4 0.1 -3.7
v 4 0.1 -3.8
v 4 0.1 -4
v 4 0.7 -3.7
v 4 0.7 -3.8
v 4 0.7 -4
v 4 0.7 -4.1
v 4 0.8 -3.7
v 4 0.8 -3.8
v 4 0.8 -4
v 4 0.8 -4.1
v 4 0.9 -3.7
v 4 0.9 -3.8
v 4 0.9 -4
v 4 0.9 -4.1
v 4 1 -4
v 4 1 -4.1
v 4 1.1 -3.7
v 4 1.1 -3.8
v 4 1.1 -4
v 4 1.1 -4.1
v 4 1.2 -3.7
v 4 1.2 -3.8
v 4 1.2 -4
v 4 1.2 -4.1
v 4 1.3 -3.7
v 4 1.3 -3.8
v 4 1.3 -4
v 4 1.3 -4.1
v 4 1.4 -3.7
v 4 1.4 -3.8
v 4 1.4 -4
v 4 1.4 -4.1
v 4 1.5 -3.6
v 4 1.5 -3.8
v 4 1.5 -4.1
v 4 1.6 -3.6
v 4 1.6 -3.7
v 4 1.6 -3.8
v 4 1.6 -3.9
v 4 1.6 -4.1
v 4 1.7 -3.6
v 4 1.7 -3.7
v 4 1.7 -3.8
v 4 1.8 -3.7
v 4 1.9 -3.5
v 4 1.9 -3.6
v 4 1.9 -3.7
v 4 2 -3.5
v 4 2 -3.6
v 4 2.3 -3.6
v 4 2.3 -3.7
v 4 2.4 -3.6
v 4 2.4 -3.7
v 4.1 1.4 -3.6
v 4.1 1.4 -3.7
v 4.1 1.4 -3.8
v 4.1 1.5 -3.6
v 4.1 1.5 -3.8
v 4.2 1.4 -3.8
v 4.2 1.4 -4
v 4.2 1.5 -3.8
v 4.2 1.5 -4
v 4.4 0 -3.7
v 4.4 0 -4
v 4.4 0.1 -3.7
v 4.4 0.1 -3.8
v 4.4 0.1 -4
v 4.4 0.7 -3.8
v 4.4 0.7 -4
v 4.4 1.9 -3.5
v 4.4 1.9 -3.6
v 4.4 2 -3.5
v 4.4 2 -3.6
v 4 0 -3.5
v 4 0 -3.6
v 4 0.9 -3.4
v 4 0.9 -3.5
v 4 0.9 -3.6
v 4 0.9 -3.7
v 4 1 -3.7
v 4 1.1 -3.4
v 4 1.1 -3.5
v 4 1.1 -3.6
v 4 1.1 -3.7
v 4 1.3 -3.5
v 4 1.3 -3.6
v 4.2 0 -3.7
v 4.2 0 -4
v 4.2 0.1 -3.7
v 4.2 0.1 -3.8
v 4.2 0.1 -4
v 4.2 0.7 -3.8
v 4.2 0.7 -4
v 4.2 1.9 -3.5
v 4.2 1.9 -3.6
v 4.2 2 -3.5
v 4.2 2 -3.6
v 4.4 1.4 -3.8
v 4.4 1.4 -4
v 4.4 1.5 -3.8
v 4.4 1.5 -4
v 4.5 1.4 -3.6
v 4.5 1.4 -3.7
v 4.5 1.4 -3.8
v 4.5 1.5 -3.6
v 4.5 1.5 -3.7
v 4.5 1.5 -3.8
v 4.6 0 -3.7
v 4.6 0 -4
v 4.6 0.1 -3.7
v 4.6 0.1 -3.8
v 4.6 0.1 -4
v 4.6 0.6 -3.8
v 4.6 0.6 -4
v 4.6 0.7 -3.7
v 4.6 0.7 -3.8
v 4.6 0.7 -4
v 4.6 0.7 -4.1
v 4.6 0.8 -3.7
v 4.6 0.8 -3.8
v 4.6 0.8 -4
v 4.6 0.8 -4.1
v 4.6 0.9 -3.7
v 4.6 0.9 -3.8
v 4.6 0.9 -4
v 4.6 0.9 -4.1
v 4.6 1 -3.7
v 4.6 1 -3.8
v 4.6 1 -4
v 4.6 1 -4.1
v 4.6 1.1 -3.7
v 4.6 1.1 -3.8
v 4.6 1.1 -4
v 4.6 1.1 -4.1
v 4.6 1.2 -3.7
v 4.6 1.2 -3.8
v 4.6 1.2 -4
v 4.6 1.2 -4.1
v 4.6 1.3 -3.7
v 4.6 1.3 -3.8
v 4.6 1.3 -4
v 4.6 1.3 -4.1
v 4.6 1.4 -3.7
v 4.6 1.4 -3.8
v 4.6 1.4 -4
v 4.6 1.4 -4.1
v 4.6 1.5 -3.6
v 4.6 1.5 -3.7
v 4.6 1.5 -3.8
v 4.6 1.5 -4.1
v 4.6 1.6 -3.6
v 4.6 1.6 -3.7
v 4.6 1.6 -3.8
v 4.6 1.6 -3.9
v 4.6 1.6 -4.1
v 4.6 1.7 -3.6
v 4.6 1.7 -3.7
v 4.6 1.7 -3.8
v 4.6 1.8 -3.7
v 4.6 1.9 -3.5
v 4.6 1.9 -3.6
v 4.6 2 -3.5
v 4.6 2 -3.6
v 4.6 2 -3.7
v 4.6 2.3 -3.6
v 4.6 2.3 -3.7
v 4.6 2.4 -3.6
v 4.6 2.4 -3.7
v 4.7 1.6 -3.8
v 4.7 1.6 -3.9
v 4.7 1.6 -4.2
v 4.7 1.7 -3.7
v 4.7 1.7 -3.8
v 4.7 1.8 -3.7
v 4.7 1.8 -3.8
v 4.7 1.9 -3.8
v 4.7 1.9 -3.9
v 4.7 1.9 -4
v 4.7 1.9 -4.2
v 4.7 2 -3.6
v 4.7 2 -3.7
v 4.7 2 -3.9
v 4.7 2 -4
v 4.7 2.3 -3.6
v 4.7 2.3 -3.7
v 4.7 2.4 -3.7
v 4.7 2.4 -4.2
v 4.8 0.6 -3.8
v 4.8 0.6 -4
v 4.8 0.8 -3.8
v 4.8 0.8 -4
v 4.8 1.4 -3.8
v 4.8 1.4 -4
v 3.8 0.9 -3.4
v 3.8 1.1 -3.4
v 4 0.9 -3.4
v 4 1.1 -3.4
v 3.9 0 -3.5
v 3.9 0.9 -3.5
v 3.9 1.1 -3.5
v 3.9 1.3 -3.5
v 4 0 -3.5
v 4 0.9 -3.5
v 4 1.1 -3.5
v 4 1.3 -3.5
v 4 1.9 -3.5
v 4 2 -3.5
v 4.2 1.9 -3.5
v 4.2 2 -3.5
v 4.4 1.9 -3.5
v 4.4 2 -3.5
v 4.6 1.9 -3.5
v 4.6 2 -3.5
v 3.9 1.9 -3.6
v 3.9 2.3 -3.6
v 4 1.5 -3.6
v 4 1.6 -3.6
v 4 1.7 -3.6
v 4 1.9 -3.6
v 4 2 -3.6
v 4 2.3 -3.6
v 4 2.4 -3.6
v 4.1 1.4 -3.6
v 4.1 1.5 -3.6
v 4.1 1.6 -3.6
v 4.1 1.7 -3.6
v 4.1 1.8 -3.6
v 4.1 1.9 -3.6
v 4.2 1.4 -3.6
v 4.2 1.5 -3.6
v 4.2 1.8 -3.6
v 4.2 1.9 -3.6
v 4.2 2 -3.6
v 4.4 1.5 -3.6
v 4.4 1.6 -3.6
v 4.4 1.8 -3.6
v 4.4 1.9 -3.6
v 4.4 2 -3.6
v 4.5 1.4 -3.6
v 4.5 1.5 -3.6
v 4.5 1.8 -3.6
v 4.5 1.9 -3.6
v 4.6 1.5 -3.6
v 4.6 1.6 -3.6
v 4.6 1.7 -3.6
v 4.6 1.9 -3.6
v 4.6 2 -3.6
v 4.6 2.3 -3.6
v 4.6 2.4 -3.6
v 4.7 2 -3.6
v 4.7 2.3 -3.6
v 3.9 1.7 -3.7
v 3.9 1.8 -3.7
v 3.9 1.9 -3.7
v 3.9 2.3 -3.7
v 3.9 2.4 -3.7
v 4 0 -3.7
v 4 0.1 -3.7
v 4 0.7 -3.7
v 4 0.8 -3.7
v 4 0.9 -3.7
v 4 1 -3.7
v 4 1.1 -3.7
v 4 1.2 -3.7
v 4 1.3 -3.7
v 4 1.4 -3.7
v 4 1.7 -3.7
v 4 1.8 -3.7
v 4 1.9 -3.7
v 4 2.3 -3.7
v 4 2.4 -3.7
v 4.1 1.3 -3.7
v 4.1 1.4 -3.7
v 4.2 0 -3.7
v 4.2 0.1 -3.7
v 4.2 1.4 -3.7
v 4.4 0 -3.7
v 4.4 0.1 -3.7
v 4.5 1.3 -3.7
v 4.5 1.4 -3.7
v 4.6 0 -3.7
v 4.6 0.1 -3.7
v 4.6 0.7 -3.7
v 4.6 0.8 -3.7
v 4.6 0.9 -3.7
v 4.6 1 -3.7
v 4.6 1.1 -3.7
v 4.6 1.2 -3.7
v 4.6 1.3 -3.7
v 4.6 1.4 -3.7
v 4.6 1.7 -3.7
v 4.6 1.8 -3.7
v 4.6 2 -3.7
v 4.6 2.3 -3.7
v 4.6 2.4 -3.7
v 4.7 1.7 -3.7
v 4.7 1.8 -3.7
v 4.7 2 -3.7
v 4.7 2.3 -3.7
v 4.7 2.4 -3.7
v 3.8 1.1 -3.8
v 3.8 1.4 -3.8
v 3.9 1.6 -3.8
v 3.9 1.7 -3.8
v 4 0.1 -3.8
v 4 0.7 -3.8
v 4 1.1 -3.8
v 4 1.2 -3.8
v 4 1.3 -3.8
v 4 1.4 -3.8
v 4 1.6 -3.8
v 4 1.7 -3.8
v 4.2 0.1 -3.8
v 4.2 0.7 -3.8
v 4.4 0.1 -3.8
v 4.4 0.7 -3.8
v 4.6 0.1 -3.8
v 4.6 0.6 -3.8
v 4.6 0.7 -3.8
v 4.6 0.8 -3.8
v 4.6 0.9 -3.8
v 4.6 1 -3.8
v 4.6 1.1 -3.8
v 4.6 1.2 -3.8
v 4.6 1.3 -3.8
v 4.6 1.4 -3.8
v 4.6 1.6 -3.8
v 4.6 1.7 -3.8
v 4.7 1.6 -3.8
v 4.7 1.7 -3.8
v 4.8 0.6 -3.8
v 4.8 0.8 -3.8
v 4.8 1.4 -3.8
v 3.9 0 -3.6
v 3.9 0.9 -3.6
v 3.9 1.1 -3.6
v 3.9 1.3 -3.6
v 4 0 -3.6
v 4 0.9 -3.6
v 4 1.1 -3.6
v 4 1.3 -3.6
v 4.1 1.4 -3.8
v 4.1 1.5 -3.8
v 4.2 1.4 -3.8
v 4.2 1.5 -3.8
v 4.4 1.4 -3.8
v 4.4 1.5 -3.8
v 4.5 1.4 -3.8
v 4.5 1.5 -3.8
v 3.8 0.9 -4
v 3.8 1.4 -4
v 4 0 -4
v 4 0.1 -4
v 4 0.7 -4
v 4 0.9 -4
v 4 1 -4
v 4 1.1 -4
v 4 1.2 -4
v 4 1.3 -4
v 4 1.4 -4
v 4.2 0 -4
v 4.2 0.1 -4
v 4.2 0.7 -4
v 4.2 1.4 -4
v 4.2 1.5 -4
v 4.4 0 -4
v 4.4 0.1 -4
v 4.4 0.7 -4
v 4.4 1.4 -4
v 4.4 1.5 -4
v 4.6 0 -4
v 4.6 0.1 -4
v 4.6 0.6 -4
v 4.6 0.7 -4
v 4.6 0.8 -4
v 4.6 0.9 -4
v 4.6 1 -4
v 4.6 1.1 -4
v 4.6 1.2 -4
v 4.6 1.3 -4
v 4.6 1.4 -4
v 4.8 0.6 -4
v 4.8 0.8 -4
v 4.8 1.4 -4
v 4 0.7 -4.1
v 4 0.8 -4.1
v 4 0.9 -4.1
v 4 1 -4.1
v 4 1.1 -4.1
v 4 1.2 -4.1
v 4 1.3 -4.1
v 4 1.4 -4.1
v 4 1.5 -4.1
v 4 1.6 -4.1
v 4.6 0.7 -4.1
v 4.6 0.8 -4.1
v 4.6 0.9 -4.1
v 4.6 1 -4.1
v 4.6 1.1 -4.1
v 4.6 1.2 -4.1
v 4.6 1.3 -4.1
v 4.6 1.4 -4.1
v 4.6 1.5 -4.1
v 4.6 1.6 -4.1
v 3.9 1.6 -4.2
v 3.9 1.8 -4.2
v 3.9 2.4 -4.2
v 4 1.8 -4.2
v 4 1.9 -4.2
v 4.2 1.7 -4.2
v 4.2 1.8 -4.2
v 4.3 1.7 -4.2
v 4.3 1.8 -4.2
v 4.3 1.9 -4.2
v 4.6 1.8 -4.2
v 4.6 1.9 -4.2
v 4.7 1.6 -4.2
v 4.7 1.9 -4.2
v 4.7 2.4 -4.2
v 3.9 0 -3.5
v 4 0 -3.5
v 3.9 0 -3.6
v 4 0 -3.6
v 4 0 -3.7
v 4.2 0 -3.7
v 4.4 0 -3.7
v 4.6 0 -3.7
v 4 0 -4
v 4.2 0 -4
v 4.4 0 -4
v 4.6 0 -4
v 4.6 0.6 -3.8
v 4.8 0.6 -3.8
v 4.6 0.6 -4
v 4.8 0.6 -4
v 4 0.7 -3.7
v 4.6 0.7 -3.7
v 4 0.7 -3.8
v 4.2 0.7 -3.8
v 4.4 0.7 -3.8
v 4.6 0.7 -3.8
v 4 0.7 -4
v 4.2 0.7 -4
v 4.4 0.7 -4
v 4.6 0.7 -4
v 4 0.7 -4.1
v 4.6 0.7 -4.1
v 3.8 0.9 -3.4
v 4 0.9 -3.4
v 3.9 0.9 -3.5
v 4 0.9 -3.5
v 3.8 0.9 -3.6
v 3.9 0.9 -3.6
v 4 0.9 -3.6
v 4 0.9 -3.7
v 4 0.9 -3.8
v 3.8 0.9 -4
v 4 0.9 -4
v 4.1 1.4 -3.6
v 4.2 1.4 -3.6
v 4.5 1.4 -3.6
v 4.1 1.4 -3.7
v 4.2 1.4 -3.7
v 4.5 1.4 -3.7
v 4 1.5 -3.6
v 4.1 1.5 -3.6
v 4.5 1.5 -3.6
v 4.6 1.5 -3.6
v 4.5 1.5 -3.7
v 4.6 1.5 -3.7
v 4 1.5 -3.8
v 4.1 1.5 -3.8
v 4.2 1.5 -3.8
v 4.4 1.5 -3.8
v 4.5 1.5 -3.8
v 4.6 1.5 -3.8
v 4.2 1.5 -4
v 4.4 1.5 -4
v 4 1.5 -4.1
v 4.6 1.5 -4.1
v 3.9 1.6 -3.8
v 4 1.6 -3.8
v 4.6 1.6 -3.8
v 4.7 1.6 -3.8
v 3.9 1.6 -3.9
v 4 1.6 -3.9
v 4.6 1.6 -3.9
v 4.7 1.6 -3.9
v 4 1.6 -4.1
v 4.6 1.6 -4.1
v 3.9 1.6 -4.2
v 4.7 1.6 -4.2
v 3.9 1.7 -3.7
v 4 1.7 -3.7
v 4.6 1.7 -3.7
v 4.7 1.7 -3.7
v 3.9 1.7 -3.8
v 4 1.7 -3.8
v 4.6 1.7 -3.8
v 4.7 1.7 -3.8
v 4 1.9 -3.5
v 4.2 1.9 -3.5
v 4.4 1.9 -3.5
v 4.6 1.9 -3.5
v 3.9 1.9 -3.6
v 4 1.9 -3.6
v 4.1 1.9 -3.6
v 4.2 1.9 -3.6
v 4.4 1.9 -3.6
v 4.5 1.9 -3.6
v 4.6 1.9 -3.6
v 3.9 1.9 -3.7
v 4 1.9 -3.7
v 4.6 2 -3.6
v 4.7 2 -3.6
v 4.6 2 -3.7
v 4.7 2 -3.7
v 4 0.1 -3.7
v 4.2 0.1 -3.7
v 4.4 0.1 -3.7
v 4.6 0.1 -3.7
v 4 0.1 -3.8
v 4.2 0.1 -3.8
v 4.4 0.1 -3.8
v 4.6 0.1 -3.8
v 3.8 1.1 -3.4
v 4 1.1 -3.4
v 3.9 1.1 -3.5
v 4 1.1 -3.5
v 3.8 1.1 -3.6
v 3.9 1.1 -3.6
v 4 1.1 -3.6
v 4 1.1 -3.7
v 3.8 1.1 -3.8
v 4 1.1 -3.8
v 3.9 1.3 -3.5
v 4 1.3 -3.5
v 3.9 1.3 -3.6
v 4 1.3 -3.6
v 4 1.4 -3.7
v 4.1 1.4 -3.7
v 4.5 1.4 -3.7
v 4.6 1.4 -3.7
v 3.8 1.4 -3.8
v 4 1.4 -3.8
v 4.1 1.4 -3.8
v 4.2 1.4 -3.8
v 4.4 1.4 -3.8
v 4.5 1.4 -3.8
v 4.6 1.4 -3.8
v 4.8 1.4 -3.8
v 3.8 1.4 -4
v 4 1.4 -4
v 4.2 1.4 -4
v 4.4 1.4 -4
v 4.6 1.4 -4
v 4.8 1.4 -4
v 4 1.4 -4.1
v 4.6 1.4 -4.1
v 4 2 -3.5
v 4.2 2 -3.5
v 4.4 2 -3.5
v 4.6 2 -3.5
v 4 2 -3.6
v 4.2 2 -3.6
v 4.4 2 -3.6
v 4.6 2 -3.6
v 3.9 2.3 -3.6
v 4 2.3 -3.6
v 4.6 2.3 -3.6
v 4.7 2.3 -3.6
v 3.9 2.3 -3.7
v 4 2.3 -3.7
v 4.6 2.3 -3.7
v 4.7 2.3 -3.7
v 4 2.4 -3.6
v 4.6 2.4 -3.6
v 3.9 2.4 -3.7
v 4 2.4 -3.7
v 4.6 2.4 -3.7
v 4.7 2.4 -3.7
v 4 2.4 -4.1
v 4.6 2.4 -4.1
v 3.9 2.4 -4.2
v 4.7 2.4 -4.2

# faces
f 4/1/1 2/1/1 1/1/1
f 5/9/1 3/9/1 2/9/1
f 5/1/1 2/1/1 4/1/1
f 6/9/1 3/9/1 5/9/1
f 7/9/1 3/9/1 6/9/1
f 8/9/1 3/9/1 7/9/1
f 11/5/1 10/5/1 9/5/1
f 12/5/1 10/5/1 11/5/1
f 15/5/1 14/5/1 13/5/1
f 16/5/1 14/5/1 15/5/1
f 21/2/1 18/2/1 17/2/1
f 22/12/1 21/12/1 20/12/1
f 23/2/1 18/2/1 21/2/1
f 23/12/1 21/12/1 22/12/1
f 24/12/1 19/12/1 18/12/1
f 25/12/1 19/12/1 24/12/1
f 27/11/1 23/11/1 22/11/1
f 28/2/1 18/2/1 23/2/1
f 28/11/1 23/11/1 27/11/1
f 29/12/1 24/12/1 18/12/1
f 29/2/1 18/2/1 28/2/1
f 30/11/1 25/11/1 24/11/1
f 30/12/1 24/12/1 29/12/1
f 31/11/1 27/11/1 26/11/1
f 31/11/1 28/11/1 27/11/1
f 31/11/1 30/11/1 29/11/1
f 31/11/1 29/11/1 28/11/1
f 32/11/1 30/11/1 31/11/1
f 33/11/1 30/11/1 32/11/1
f 34/11/1 25/11/1 30/11/1
f 34/11/1 30/11/1 33/11/1
f 37/5/1 36/5/1 35/5/1
f 38/5/1 36/5/1 37/5/1
f 39/5/1 36/5/1 38/5/1
f 41/6/1 39/6/1 38/6/1
f 42/6/1 39/6/1 41/6/1
f 44/6/1 42/6/1 41/6/1
f 44/6/1 43/6/1 42/6/1
f 44/6/1 41/6/1 40/6/1
f 45/6/1 43/6/1 44/6/1
f 46/6/1 43/6/1 45/6/1
f 47/6/1 43/6/1 46/6/1
f 48/4/1 45/4/1 44/4/1
f 49/3/1 46/3/1 45/3/1
f 49/4/1 45/4/1 48/4/1
f 50/4/1 47/4/1 46/4/1
f 50/3/1 46/3/1 49/3/1
f 51/4/1 47/4/1 50/4/1
f 52/3/1 51/3/1 50/3/1
f 53/3/1 51/3/1 52/3/1
f 56/4/1 53/4/1 52/4/1
f 57/4/1 53/4/1 56/4/1
f 58/3/1 55/3/1 54/3/1
f 59/3/1 55/3/1 58/3/1
f 60/3/1 57/3/1 56/3/1
f 61/3/1 57/3/1 60/3/1
f 62/4/1 59/4/1 58/4/1
f 63/4/1 59/4/1 62/4/1
f 64/4/1 61/4/1 60/4/1
f 65/4/1 61/4/1 64/4/1
f 66/3/1 63/3/1 62/3/1
f 67/3/1 63/3/1 66/3/1
f 68/3/1 65/3/1 64/3/1
f 69/3/1 65/3/1 68/3/1
f 73/12/1 71/12/1 70/12/1
f 74/12/1 71/12/1 73/12/1
f 75/1/1 72/1/1 71/1/1
f 75/12/1 71/12/1 74/12/1
f 76/1/1 72/1/1 75/1/1
f 77/1/1 72/1/1 76/1/1
f 78/11/1 74/11/1 73/11/1
f 79/12/1 75/12/1 74/12/1
f 79/11/1 74/11/1 78/11/1
f 80/12/1 75/12/1 79/12/1
f 81/1/1 79/1/1 78/1/1
f 83/1/1 81/1/1 78/1/1
f 84/1/1 81/1/1 83/1/1
f 85/12/1 83/12/1 82/12/1
f 86/12/1 83/12/1 85/12/1
f 89/1/1 88/1/1 87/1/1
f 90/1/1 88/1/1 89/1/1
f 94/12/1 92/12/1 91/12/1
f 94/12/1 93/12/1 92/12/1
f 95/12/1 93/12/1 94/12/1
f 98/1/1 97/1/1 96/1/1
f 99/1/1 97/1/1 98/1/1
f 102/5/1 101/5/1 100/5/1
f 103/5/1 101/5/1 102/5/1
f 104/5/1 101/5/1 103/5/1
f 105/6/1 104/6/1 103/6/1
f 106/6/1 104/6/1 105/6/1
f 109/12/1 108/12/1 107/12/1
f 110/12/1 108/12/1 109/12/1
f 111/5/2 112/5/2 114/5/2
f 114/5/2 112/5/2 115/5/2
f 115/9/2 116/9/2 117/9/2
f 113/1/2 114/1/2 118/1/2
f 114/5/2 115/5/2 119/5/2
f 118/1/2 114/1/2 119/1/2
f 115/9/2 117/9/2 120/9/2
f 119/5/2 115/5/2 120/5/2
f 120/9/2 117/9/2 121/9/2
f 119/5/2 120/5/2 122/5/2
f 122/5/2 120/5/2 123/5/2
f 124/5/2 125/5/2 126/5/2
f 126/5/2 125/5/2 127/5/2
f 127/5/2 125/5/2 128/5/2
f 127/6/2 128/6/2 129/6/2
f 129/6/2 128/6/2 130/6/2
f 131/12/2 132/12/2 133/12/2
f 133/12/2 132/12/2 134/12/2
f 135/1/2 136/1/2 137/1/2
f 137/1/2 136/1/2 138/1/2
f 139/11/2 140/11/2 142/11/2
f 140/12/2 141/12/2 143/12/2
f 142/11/2 140/11/2 143/11/2
f 143/12/2 141/12/2 144/12/2
f 145/5/2 146/5/2 147/5/2
f 147/5/2 146/5/2 148/5/2
f 148/5/2 146/5/2 149/5/2
f 148/6/2 149/6/2 150/6/2
f 150/6/2 149/6/2 151/6/2
f 152/6/2 153/6/2 156/6/2
f 156/6/2 153/6/2 157/6/2
f 154/6/2 155/6/2 158/6/2
f 158/6/2 155/6/2 159/6/2
f 156/4/2 157/4/2 160/4/2
f 160/4/2 157/4/2 161/4/2
f 158/4/2 159/4/2 162/4/2
f 162/4/2 159/4/2 163/4/2
f 160/3/2 161/3/2 164/3/2
f 164/3/2 161/3/2 165/3/2
f 162/3/2 163/3/2 166/3/2
f 166/3/2 163/3/2 167/3/2
f 164/4/2 165/4/2 168/4/2
f 168/4/2 165/4/2 169/4/2
f 166/4/2 167/4/2 170/4/2
f 170/4/2 167/4/2 171/4/2
f 168/3/2 169/3/2 172/3/2
f 172/3/2 169/3/2 173/3/2
f 170/3/2 171/3/2 174/3/2
f 174/3/2 171/3/2 175/3/2
f 172/4/2 173/4/2 176/4/2
f 176/4/2 173/4/2 177/4/2
f 174/4/2 175/4/2 178/4/2
f 178/4/2 175/4/2 179/4/2
f 176/3/2 177/3/2 180/3/2
f 180/3/2 177/3/2 181/3/2
f 178/3/2 179/3/2 182/3/2
f 182/3/2 179/3/2 183/3/2
f 184/11/2 185/11/2 188/11/2
f 185/12/2 186/12/2 189/12/2
f 188/11/2 185/11/2 189/11/2
f 186/1/2 187/1/2 190/1/2
f 189/12/2 186/12/2 190/12/2
f 190/1/2 187/1/2 191/1/2
f 191/1/2 187/1/2 192/1/2
f 188/12/2 189/12/2 193/12/2
f 189/11/2 190/11/2 194/11/2
f 193/12/2 189/12/2 194/12/2
f 194/11/2 190/11/2 195/11/2
f 193/1/2 194/1/2 196/1/2
f 193/1/2 196/1/2 198/1/2
f 197/12/2 198/12/2 199/12/2
f 198/1/2 196/1/2 200/1/2
f 199/12/2 198/12/2 200/12/2
f 200/1/2 196/1/2 201/1/2
f 202/1/2 203/1/2 204/1/2
f 204/1/2 203/1/2 205/1/2
f 206/2/2 207/2/2 210/2/2
f 209/12/2 210/12/2 211/12/2
f 210/2/2 207/2/2 212/2/2
f 211/12/2 210/12/2 212/12/2
f 211/11/2 212/11/2 213/11/2
f 212/2/2 207/2/2 213/2/2
f 207/12/2 208/12/2 214/12/2
f 213/2/2 207/2/2 214/2/2
f 214/12/2 208/12/2 215/12/2
f 215/12/2 208/12/2 216/12/2
f 211/11/2 213/11/2 218/11/2
f 213/11/2 214/11/2 218/11/2
f 214/12/2 215/12/2 219/12/2
f 218/11/2 214/11/2 219/11/2
f 215/11/2 216/11/2 220/11/2
f 219/12/2 215/12/2 220/12/2
f 218/11/2 219/11/2 221/11/2
f 217/11/2 218/11/2 221/11/2
f 219/11/2 220/11/2 221/11/2
f 221/11/2 220/11/2 222/11/2
f 222/11/2 220/11/2 223/11/2
f 220/11/2 216/11/2 224/11/2
f 223/11/2 220/11/2 224/11/2
f 225/1/2 226/1/2 227/1/2
f 227/1/2 226/1/2 228/1/2
f 227/9/2 228/9/2 229/9/2
f 229/9/2 228/9/2 230/9/2
f 233/1/3 232/1/3 231/1/3
f 234/1/3 232/1/3 233/1/3
f 239/5/3 236/5/3 235/5/3
f 240/5/3 236/5/3 239/5/3
f 241/5/3 238/5/3 237/5/3
f 242/5/3 238/5/3 241/5/3
f 245/12/3 244/12/3 243/12/3
f 246/12/3 244/12/3 245/12/3
f 249/12/3 248/12/3 247/12/3
f 250/12/3 248/12/3 249/12/3
f 256/11/3 252/11/3 251/11/3
f 257/11/3 252/11/3 256/11/3
f 258/11/3 252/11/3 257/11/3
f 261/12/3 254/12/3 253/12/3
f 262/11/3 255/11/3 254/11/3
f 262/12/3 254/12/3 261/12/3
f 263/1/3 256/1/3 255/1/3
f 263/11/3 255/11/3 262/11/3
f 264/1/3 256/1/3 263/1/3
f 265/1/3 256/1/3 264/1/3
f 266/12/3 261/12/3 260/12/3
f 266/12/3 262/12/3 261/12/3
f 266/12/3 263/12/3 262/12/3
f 267/12/3 263/12/3 266/12/3
f 268/7/3 265/7/3 264/7/3
f 268/1/3 264/1/3 263/1/3
f 269/7/3 265/7/3 268/7/3
f 270/1/3 258/1/3 257/1/3
f 270/1/3 259/1/3 258/1/3
f 271/12/3 263/12/3 267/12/3
f 271/11/3 267/11/3 266/11/3
f 272/12/3 263/12/3 271/12/3
f 273/1/3 269/1/3 268/1/3
f 273/1/3 268/1/3 263/1/3
f 273/1/3 270/1/3 269/1/3
f 274/1/3 270/1/3 273/1/3
f 275/1/3 259/1/3 270/1/3
f 275/1/3 270/1/3 274/1/3
f 276/11/3 272/11/3 271/11/3
f 276/11/3 271/11/3 266/11/3
f 277/11/3 272/11/3 276/11/3
f 278/1/3 273/1/3 263/1/3
f 278/7/3 274/7/3 273/7/3
f 279/7/3 274/7/3 278/7/3
f 280/11/3 272/11/3 277/11/3
f 281/12/3 263/12/3 272/12/3
f 281/11/3 272/11/3 280/11/3
f 282/1/3 279/1/3 278/1/3
f 282/12/3 263/12/3 281/12/3
f 282/1/3 278/1/3 263/1/3
f 283/1/3 279/1/3 282/1/3
f 284/1/3 259/1/3 275/1/3
f 285/1/3 259/1/3 284/1/3
f 286/1/3 259/1/3 285/1/3
f 287/11/3 285/11/3 284/11/3
f 288/11/3 285/11/3 287/11/3
f 304/12/3 290/12/3 289/12/3
f 305/11/3 291/11/3 290/11/3
f 305/12/3 290/12/3 304/12/3
f 306/11/3 291/11/3 305/11/3
f 307/11/3 293/11/3 292/11/3
f 308/11/3 293/11/3 307/11/3
f 309/3/3 303/3/3 302/3/3
f 309/4/3 302/4/3 301/4/3
f 310/3/3 303/3/3 309/3/3
f 311/5/3 295/5/3 294/5/3
f 312/5/3 295/5/3 311/5/3
f 313/9/3 310/9/3 309/9/3
f 316/4/3 309/4/3 301/4/3
f 316/9/3 313/9/3 309/9/3
f 317/9/3 313/9/3 316/9/3
f 318/5/3 315/5/3 314/5/3
f 319/5/3 315/5/3 318/5/3
f 320/6/3 297/6/3 296/6/3
f 321/4/3 298/4/3 297/4/3
f 321/6/3 297/6/3 320/6/3
f 322/3/3 299/3/3 298/3/3
f 322/4/3 298/4/3 321/4/3
f 323/4/3 300/4/3 299/4/3
f 323/3/3 299/3/3 322/3/3
f 324/3/3 301/3/3 300/3/3
f 324/4/3 300/4/3 323/4/3
f 325/4/3 316/4/3 301/4/3
f 325/3/3 301/3/3 324/3/3
f 326/3/3 317/3/3 316/3/3
f 326/4/3 316/4/3 325/4/3
f 327/3/3 317/3/3 326/3/3
f 333/12/3 329/12/3 328/12/3
f 334/11/3 330/11/3 329/11/3
f 334/12/3 329/12/3 333/12/3
f 335/11/3 330/11/3 334/11/3
f 336/11/3 332/11/3 331/11/3
f 337/11/3 332/11/3 336/11/3
f 344/9/3 339/9/3 338/9/3
f 345/9/3 339/9/3 344/9/3
f 346/9/3 339/9/3 345/9/3
f 347/9/3 339/9/3 346/9/3
f 348/2/3 341/2/3 340/2/3
f 349/2/3 341/2/3 348/2/3
f 350/6/3 343/6/3 342/6/3
f 351/6/3 343/6/3 350/6/3
f 354/6/3 353/6/3 352/6/3
f 355/6/3 353/6/3 354/6/3
f 356/6/3 353/6/3 355/6/3
f 366/2/3 365/2/3 364/2/3
f 367/2/3 365/2/3 366/2/3
f 368/1/3 356/1/3 355/1/3
f 368/1/3 357/1/3 356/1/3
f 369/9/3 363/9/3 362/9/3
f 369/1/3 357/1/3 368/1/3
f 369/9/3 358/9/3 357/9/3
f 369/9/3 362/9/3 361/9/3
f 369/9/3 361/9/3 360/9/3
f 369/9/3 360/9/3 359/9/3
f 369/9/3 359/9/3 358/9/3
f 370/9/3 363/9/3 369/9/3
f 371/5/4 372/5/4 375/5/4
f 375/5/4 372/5/4 376/5/4
f 373/5/4 374/5/4 377/5/4
f 377/5/4 374/5/4 378/5/4
f 379/12/4 380/12/4 381/12/4
f 381/12/4 380/12/4 382/12/4
f 383/12/4 384/12/4 385/12/4
f 385/12/4 384/12/4 386/12/4
f 387/9/4 388/9/4 392/9/4
f 392/9/4 388/9/4 393/9/4
f 393/9/4 388/9/4 394/9/4
f 394/9/4 388/9/4 395/9/4
f 395/9/4 388/9/4 396/9/4
f 396/9/4 388/9/4 397/9/4
f 389/5/4 390/5/4 398/5/4
f 390/6/4 391/6/4 399/6/4
f 398/5/4 390/5/4 399/5/4
f 399/6/4 391/6/4 400/6/4
f 401/1/4 402/1/4 406/1/4
f 406/1/4 402/1/4 407/1/4
f 403/5/4 404/5/4 408/5/4
f 404/6/4 405/6/4 409/6/4
f 408/5/4 404/5/4 409/5/4
f 409/6/4 405/6/4 410/6/4
f 410/6/4 405/6/4 411/6/4
f 410/1/4 411/1/4 419/1/4
f 411/1/4 412/1/4 419/1/4
f 417/9/4 418/9/4 420/9/4
f 419/1/4 412/1/4 420/1/4
f 416/9/4 417/9/4 420/9/4
f 413/9/4 414/9/4 420/9/4
f 412/9/4 413/9/4 420/9/4
f 414/9/4 415/9/4 420/9/4
f 415/9/4 416/9/4 420/9/4
f 420/9/4 418/9/4 421/9/4
f 422/6/4 423/6/4 432/6/4
f 423/4/4 424/4/4 433/4/4
f 432/6/4 423/6/4 433/6/4
f 424/3/4 425/3/4 434/3/4
f 433/4/4 424/4/4 434/4/4
f 425/4/4 426/4/4 435/4/4
f 434/3/4 425/3/4 435/3/4
f 426/3/4 427/3/4 436/3/4
f 435/4/4 426/4/4 436/4/4
f 427/4/4 428/4/4 437/4/4
f 436/3/4 427/3/4 437/3/4
f 428/3/4 429/3/4 438/3/4
f 437/4/4 428/4/4 438/4/4
f 438/3/4 429/3/4 439/3/4
f 430/1/4 431/1/4 440/1/4
f 440/1/4 431/1/4 441/1/4
f 442/12/4 443/12/4 445/12/4
f 443/11/4 444/11/4 445/11/4
f 445/11/4 444/11/4 446/11/4
f 442/12/4 445/12/4 447/12/4
f 445/12/4 446/12/4 447/12/4
f 447/12/4 446/12/4 448/12/4
f 442/12/4 447/12/4 449/12/4
f 447/10/4 448/10/4 449/10/4
f 448/12/4 446/12/4 450/12/4
f 449/10/4 448/10/4 450/10/4
f 446/11/4 444/11/4 451/11/4
f 450/12/4 446/12/4 451/12/4
f 449/12/4 450/12/4 452/12/4
f 450/11/4 451/11/4 452/11/4
f 451/11/4 444/11/4 453/11/4
f 452/11/4 451/11/4 453/11/4
f 449/12/4 452/12/4 454/12/4
f 442/12/4 449/12/4 454/12/4
f 452/12/4 453/12/4 454/12/4
f 453/11/4 444/11/4 455/11/4
f 454/12/4 453/12/4 455/12/4
f 455/11/4 444/11/4 456/11/4
f 459/5/5 458/5/5 457/5/5
f 460/5/5 458/5/5 459/5/5
f 465/5/5 462/5/5 461/5/5
f 466/5/5 462/5/5 465/5/5
f 467/5/5 464/5/5 463/5/5
f 468/5/5 464/5/5 467/5/5
f 471/1/5 470/1/5 469/1/5
f 472/1/5 470/1/5 471/1/5
f 475/6/5 474/6/5 473/6/5
f 476/6/5 474/6/5 475/6/5
f 477/6/5 474/6/5 476/6/5
f 478/6/5 474/6/5 477/6/5
f 480/6/5 477/6/5 476/6/5
f 481/6/5 477/6/5 480/6/5
f 483/6/5 480/6/5 479/6/5
f 483/6/5 482/6/5 481/6/5
f 483/6/5 481/6/5 480/6/5
f 484/6/5 482/6/5 483/6/5
f 487/1/5 486/1/5 485/1/5
f 488/1/5 486/1/5 487/1/5
f 489/1/5 487/1/5 485/1/5
f 490/1/5 487/1/5 489/1/5
f 492/9/5 490/9/5 489/9/5
f 492/9/5 491/9/5 490/9/5
f 493/9/5 492/9/5 489/9/5
f 494/9/5 493/9/5 489/9/5
f 495/9/5 493/9/5 494/9/5
f 499/12/5 497/12/5 496/12/5
f 500/11/5 498/11/5 497/11/5
f 500/12/5 497/12/5 499/12/5
f 501/11/5 498/11/5 500/11/5
f 506/11/5 505/11/5 504/11/5
f 507/11/5 505/11/5 506/11/5
f 508/12/5 503/12/5 502/12/5
f 509/12/5 503/12/5 508/12/5
f 512/12/5 507/12/5 506/12/5
f 513/12/5 507/12/5 512/12/5
f 514/1/5 510/1/5 509/1/5
f 514/1/5 509/1/5 508/1/5
f 515/1/5 513/1/5 512/1/5
f 515/1/5 512/1/5 511/1/5
f 516/1/5 514/1/5 508/1/5
f 516/1/5 515/1/5 514/1/5
f 517/1/5 513/1/5 515/1/5
f 517/1/5 515/1/5 516/1/5
f 522/2/5 519/2/5 518/2/5
f 523/2/5 519/2/5 522/2/5
f 524/2/5 521/2/5 520/2/5
f 525/2/5 521/2/5 524/2/5
f 526/12/5 523/12/5 522/12/5
f 527/12/5 525/12/5 524/12/5
f 528/12/5 526/12/5 522/12/5
f 528/12/5 527/12/5 526/12/5
f 529/12/5 525/12/5 527/12/5
f 529/12/5 527/12/5 528/12/5
f 534/12/5 531/12/5 530/12/5
f 535/12/5 531/12/5 534/12/5
f 536/12/5 533/12/5 532/12/5
f 537/12/5 533/12/5 536/12/5
f 543/12/5 539/12/5 538/12/5
f 544/12/5 539/12/5 543/12/5
f 545/12/5 539/12/5 544/12/5
f 546/12/5 541/12/5 540/12/5
f 547/12/5 541/12/5 546/12/5
f 548/12/5 541/12/5 547/12/5
f 549/11/5 543/11/5 542/11/5
f 550/11/5 543/11/5 549/11/5
f 553/11/5 552/11/5 551/11/5
f 554/11/5 552/11/5 553/11/5
f 555/5/6 556/5/6 559/5/6
f 559/5/6 556/5/6 560/5/6
f 557/5/6 558/5/6 561/5/6
f 561/5/6 558/5/6 562/5/6
f 563/1/6 564/1/6 565/1/6
f 565/1/6 564/1/6 566/1/6
f 563/1/6 565/1/6 567/1/6
f 567/1/6 565/1/6 568/1/6
f 567/9/6 568/9/6 570/9/6
f 568/9/6 569/9/6 570/9/6
f 567/9/6 570/9/6 571/9/6
f 571/9/6 570/9/6 572/9/6
f 573/5/6 574/5/6 575/5/6
f 575/5/6 574/5/6 576/5/6
f 577/3/6 578/3/6 582/3/6
f 582/3/6 578/3/6 583/3/6
f 579/3/6 580/3/6 586/3/6
f 586/3/6 580/3/6 587/3/6
f 581/9/6 582/9/6 589/9/6
f 583/3/6 584/3/6 590/3/6
f 589/9/6 582/9/6 590/9/6
f 582/3/6 583/3/6 590/3/6
f 590/3/6 584/3/6 591/3/6
f 586/3/6 587/3/6 592/3/6
f 585/3/6 586/3/6 592/3/6
f 587/9/6 588/9/6 593/9/6
f 592/3/6 587/3/6 593/3/6
f 593/9/6 588/9/6 594/9/6
f 591/3/6 592/3/6 595/3/6
f 590/3/6 591/3/6 595/3/6
f 592/3/6 593/3/6 595/3/6
f 595/3/6 593/3/6 596/3/6
f 597/12/6 598/12/6 601/12/6
f 601/12/6 598/12/6 602/12/6
f 599/12/6 600/12/6 603/12/6
f 603/12/6 600/12/6 604/12/6
f 605/11/6 606/11/6 609/11/6
f 609/11/6 606/11/6 610/11/6
f 607/11/6 608/11/6 611/11/6
f 611/11/6 608/11/6 612/11/6
f 613/1/6 614/1/6 616/1/6
f 616/1/6 614/1/6 617/1/6
f 615/11/6 616/11/6 619/11/6
f 616/1/6 617/1/6 619/1/6
f 617/11/6 618/11/6 620/11/6
f 619/1/6 617/1/6 620/1/6
f 615/11/6 619/11/6 621/11/6
f 619/11/6 620/11/6 621/11/6
f 620/11/6 618/11/6 622/11/6
f 621/11/6 620/11/6 622/11/6
