# MagicaVoxel @ Ephtracy

# group
o 

# material
mtllib Character-14.mtl
usemtl palette

# normals
vn -1 0 0
vn 1 0 0
vn 0 0 1
vn 0 0 -1
vn 0 -1 0
vn 0 1 0

# texcoords
vt 0.0371094 0.5
vt 0.0488281 0.5
vt 0.0761719 0.5
vt 0.525391 0.5
vt 0.541016 0.5
vt 0.548828 0.5
vt 0.619141 0.5
vt 0.974609 0.5

# verts
v -5.5 0.6 1
v -5.5 0.6 0.8
v -5.5 1.2 1
v -5.5 1.2 0.8
v -5.5 1.4 1
v -5.5 1.4 0.8
v -5.4 1.6 1.1
v -5.4 1.6 1
v -5.4 1.6 0.9
v -5.4 1.6 0.6
v -5.4 1.9 1.2
v -5.4 1.9 1.1
v -5.4 1.9 1
v -5.4 1.9 0.9
v -5.4 2.3 1.2
v -5.4 2.3 0.6
v -5.3 0 1.1
v -5.3 0 0.8
v -5.3 0.1 1.1
v -5.3 0.1 1
v -5.3 0.1 0.8
v -5.3 0.2 1
v -5.3 0.2 0.8
v -5.3 0.5 1.1
v -5.3 0.5 1
v -5.3 0.6 1
v -5.3 0.6 0.8
v -5.3 0.7 0.8
v -5.3 0.7 0.7
v -5.3 0.8 0.8
v -5.3 0.8 0.7
v -5.3 1.2 1
v -5.3 1.2 0.8
v -5.3 1.4 1.1
v -5.3 1.4 1
v -5.3 1.4 0.8
v -5.3 1.4 0.7
v -5.3 1.5 1.2
v -5.3 1.5 0.7
v -5.3 1.6 1.2
v -5.3 1.6 1.1
v -5.3 1.6 1
v -5.3 1.6 0.9
v -5.3 1.6 0.7
v -5.3 1.8 1.2
v -5.3 1.8 1.1
v -5.3 1.9 1.3
v -5.3 1.9 1.2
v -5.3 1.9 1.1
v -5.3 2 1.3
v -5.3 2 1.2
v -5.3 2.1 1.3
v -5.3 2.1 1.2
v -5.3 2.3 1.2
v -5.3 2.3 0.7
v -5.3 2.4 1.3
v -5.3 2.4 0.7
v -5.2 1.9 0.6
v -5.2 1.9 0.5
v -5.2 2 0.5
v -5.2 2 0.3
v -5.2 2.3 0.7
v -5.2 2.3 0.6
v -5.2 2.3 0.3
v -5.2 2.4 0.7
v -5.2 2.4 0.6
v -5.1 1.4 1
v -5.1 1.4 0.8
v -5.1 1.5 1
v -5.1 1.5 0.8
v -5.1 1.8 0.4
v -5.1 1.8 0.2
v -5.1 2 1.3
v -5.1 2 1.2
v -5.1 2 0.4
v -5.1 2 0.3
v -5.1 2.1 1.3
v -5.1 2.1 1.2
v -5.1 2.2 0.3
v -5.1 2.2 0.2
v -4.9 0 1.1
v -4.9 0 0.8
v -4.9 0.1 1.1
v -4.9 0.1 1
v -4.9 0.1 0.8
v -4.9 0.2 1
v -4.9 0.2 0.8
v -4.9 0.5 1
v -4.9 0.7 1
v -4.9 0.7 0.8
v -4.9 1.9 1.3
v -4.9 1.9 1.2
v -4.9 2 1.3
v -4.9 2 1.2
v -4.8 1.7 1.3
v -4.8 1.7 1.2
v -4.8 1.8 1.2
v -4.8 1.9 1.3
v -4.8 1.9 1.2
v -5.1 0 1.1
v -5.1 0 0.8
v -5.1 0.1 1.1
v -5.1 0.1 1
v -5.1 0.1 0.8
v -5.1 0.2 1
v -5.1 0.2 0.8
v -5.1 0.5 1
v -5.1 0.7 1
v -5.1 0.7 0.8
v -5.1 1.9 1.3
v -5.1 1.9 1.2
v -5.1 2 1.3
v -5.1 2 1.2
v -4.9 1.4 1
v -4.9 1.4 0.8
v -4.9 1.5 1
v -4.9 1.5 0.8
v -4.9 1.8 0.4
v -4.9 1.8 0.2
v -4.9 2 0.4
v -4.9 2 0.3
v -4.9 2.2 0.3
v -4.9 2.2 0.2
v -4.8 1.9 0.6
v -4.8 1.9 0.5
v -4.8 2 0.5
v -4.8 2 0.3
v -4.8 2.3 0.6
v -4.8 2.3 0.3
v -4.7 0 1.1
v -4.7 0 0.8
v -4.7 0.1 1.1
v -4.7 0.1 1
v -4.7 0.1 0.8
v -4.7 0.2 1
v -4.7 0.2 0.8
v -4.7 0.5 1.1
v -4.7 0.5 1
v -4.7 0.6 1
v -4.7 0.6 0.8
v -4.7 0.7 0.8
v -4.7 0.7 0.7
v -4.7 0.8 0.8
v -4.7 0.8 0.7
v -4.7 1.2 1
v -4.7 1.2 0.8
v -4.7 1.4 1.1
v -4.7 1.4 1
v -4.7 1.4 0.8
v -4.7 1.4 0.7
v -4.7 1.5 1.2
v -4.7 1.5 0.7
v -4.7 1.6 1.2
v -4.7 1.6 1.1
v -4.7 1.6 1
v -4.7 1.6 0.9
v -4.7 1.6 0.7
v -4.7 1.7 1.3
v -4.7 1.7 1.2
v -4.7 1.8 1.2
v -4.7 1.8 1.1
v -4.7 2 1.3
v -4.7 2 1.2
v -4.7 2 1.1
v -4.7 2.3 1.3
v -4.7 2.3 1.2
v -4.7 2.3 0.7
v -4.7 2.3 0.6
v -4.7 2.4 1.3
v -4.7 2.4 1.2
v -4.7 2.4 0.7
v -4.7 2.4 0.6
v -4.6 1.6 1.1
v -4.6 1.6 1
v -4.6 1.6 0.9
v -4.6 1.6 0.6
v -4.6 1.9 1
v -4.6 1.9 0.9
v -4.6 2 1.3
v -4.6 2 1.1
v -4.6 2.3 1.3
v -4.6 2.3 1.2
v -4.6 2.3 0.7
v -4.6 2.3 0.6
v -4.6 2.4 1.2
v -4.6 2.4 0.7
v -4.5 0.6 1
v -4.5 0.6 0.8
v -4.5 1.2 1
v -4.5 1.2 0.8
v -4.5 1.4 1
v -4.5 1.4 0.8
v -5.3 1.9 1.3
v -5.3 2 1.3
v -5.3 2.1 1.3
v -5.3 2.4 1.3
v -5.1 1.9 1.3
v -5.1 2 1.3
v -5.1 2.1 1.3
v -4.9 1.9 1.3
v -4.9 2 1.3
v -4.8 1.7 1.3
v -4.8 1.9 1.3
v -4.7 1.7 1.3
v -4.7 2 1.3
v -4.7 2.3 1.3
v -4.7 2.4 1.3
v -4.6 2 1.3
v -4.6 2.3 1.3
v -5.4 1.9 1.2
v -5.4 2.3 1.2
v -5.3 1.5 1.2
v -5.3 1.6 1.2
v -5.3 1.8 1.2
v -5.3 1.9 1.2
v -5.3 2 1.2
v -5.3 2.1 1.2
v -5.3 2.3 1.2
v -5.2 1.6 1.2
v -5.2 1.8 1.2
v -5.2 1.9 1.2
v -5.1 1.6 1.2
v -5.1 1.7 1.2
v -5.1 1.8 1.2
v -5.1 1.9 1.2
v -5.1 2 1.2
v -5.1 2.1 1.2
v -4.9 1.6 1.2
v -4.9 1.7 1.2
v -4.9 1.8 1.2
v -4.9 1.9 1.2
v -4.9 2 1.2
v -4.8 1.6 1.2
v -4.8 1.7 1.2
v -4.8 1.8 1.2
v -4.8 1.9 1.2
v -4.7 1.5 1.2
v -4.7 1.6 1.2
v -4.7 1.7 1.2
v -4.7 2.3 1.2
v -4.7 2.4 1.2
v -4.6 2.3 1.2
v -4.6 2.4 1.2
v -5.4 1.6 1.1
v -5.4 1.9 1.1
v -5.3 0 1.1
v -5.3 0.1 1.1
v -5.3 0.5 1.1
v -5.3 1.4 1.1
v -5.3 1.6 1.1
v -5.3 1.8 1.1
v -5.3 1.9 1.1
v -5.2 1.2 1.1
v -5.2 1.4 1.1
v -5.1 0 1.1
v -5.1 0.1 1.1
v -5.1 1.1 1.1
v -5.1 1.2 1.1
v -4.9 0 1.1
v -4.9 0.1 1.1
v -4.9 1.1 1.1
v -4.9 1.2 1.1
v -4.8 1.2 1.1
v -4.8 1.4 1.1
v -4.7 0 1.1
v -4.7 0.1 1.1
v -4.7 0.5 1.1
v -4.7 1.4 1.1
v -4.7 1.6 1.1
v -4.7 1.8 1.1
v -4.7 2 1.1
v -4.6 1.6 1.1
v -4.6 2 1.1
v -5.5 0.6 1
v -5.5 1.2 1
v -5.5 1.4 1
v -5.3 0.1 1
v -5.3 0.2 1
v -5.3 0.5 1
v -5.3 0.6 1
v -5.3 1.2 1
v -5.3 1.4 1
v -5.1 0.1 1
v -5.1 0.2 1
v -5.1 0.5 1
v -5.1 1.4 1
v -5.1 1.5 1
v -4.9 0.1 1
v -4.9 0.2 1
v -4.9 0.5 1
v -4.9 1.4 1
v -4.9 1.5 1
v -4.7 0.1 1
v -4.7 0.2 1
v -4.7 0.5 1
v -4.7 0.6 1
v -4.7 1.2 1
v -4.7 1.4 1
v -4.5 0.6 1
v -4.5 1.2 1
v -4.5 1.4 1
v -5.1 1.8 0.4
v -5.1 2 0.4
v -4.9 1.8 0.4
v -4.9 2 0.4
v -5.1 0.5 1
v -5.1 0.7 1
v -4.9 0.5 1
v -4.9 0.7 1
v -5.5 0.6 0.8
v -5.5 1.2 0.8
v -5.5 1.4 0.8
v -5.3 0 0.8
v -5.3 0.1 0.8
v -5.3 0.2 0.8
v -5.3 0.6 0.8
v -5.3 0.7 0.8
v -5.3 0.8 0.8
v -5.3 1.2 0.8
v -5.3 1.4 0.8
v -5.1 0 0.8
v -5.1 0.1 0.8
v -5.1 0.2 0.8
v -5.1 0.7 0.8
v -5.1 1.4 0.8
v -5.1 1.5 0.8
v -4.9 0 0.8
v -4.9 0.1 0.8
v -4.9 0.2 0.8
v -4.9 0.7 0.8
v -4.9 1.4 0.8
v -4.9 1.5 0.8
v -4.7 0 0.8
v -4.7 0.1 0.8
v -4.7 0.2 0.8
v -4.7 0.6 0.8
v -4.7 0.7 0.8
v -4.7 0.8 0.8
v -4.7 1.2 0.8
v -4.7 1.4 0.8
v -4.5 0.6 0.8
v -4.5 1.2 0.8
v -4.5 1.4 0.8
v -5.3 0.7 0.7
v -5.3 0.8 0.7
v -5.3 1.4 0.7
v -5.3 1.5 0.7
v -5.3 1.6 0.7
v -5.3 2.3 0.7
v -5.3 2.4 0.7
v -5.2 2.3 0.7
v -5.2 2.4 0.7
v -4.7 0.7 0.7
v -4.7 0.8 0.7
v -4.7 1.4 0.7
v -4.7 1.5 0.7
v -4.7 1.6 0.7
v -4.7 2.3 0.7
v -4.7 2.4 0.7
v -4.6 2.3 0.7
v -4.6 2.4 0.7
v -5.4 1.6 0.6
v -5.4 2.3 0.6
v -5.2 1.9 0.6
v -5.2 2.3 0.6
v -5.2 2.4 0.6
v -4.8 1.9 0.6
v -4.8 2.3 0.6
v -4.7 2.3 0.6
v -4.7 2.4 0.6
v -4.6 1.6 0.6
v -4.6 2.3 0.6
v -5.2 1.9 0.5
v -5.2 2 0.5
v -4.8 1.9 0.5
v -4.8 2 0.5
v -5.2 2 0.3
v -5.2 2.3 0.3
v -5.1 2 0.3
v -5.1 2.2 0.3
v -4.9 2 0.3
v -4.9 2.2 0.3
v -4.8 2 0.3
v -4.8 2.3 0.3
v -5.1 1.8 0.2
v -5.1 2.2 0.2
v -4.9 1.8 0.2
v -4.9 2.2 0.2
v -5.3 0 1.1
v -5.1 0 1.1
v -4.9 0 1.1
v -4.7 0 1.1
v -5.3 0 0.8
v -5.1 0 0.8
v -4.9 0 0.8
v -4.7 0 0.8
v -5.3 0.5 1.1
v -4.7 0.5 1.1
v -5.3 0.5 1
v -5.1 0.5 1
v -4.9 0.5 1
v -4.7 0.5 1
v -5.5 0.6 1
v -5.3 0.6 1
v -4.7 0.6 1
v -4.5 0.6 1
v -5.5 0.6 0.8
v -5.3 0.6 0.8
v -4.7 0.6 0.8
v -4.5 0.6 0.8
v -5.1 0.7 1
v -4.9 0.7 1
v -5.3 0.7 0.8
v -5.1 0.7 0.8
v -4.9 0.7 0.8
v -4.7 0.7 0.8
v -5.3 0.7 0.7
v -4.7 0.7 0.7
v -5.3 1.5 1.2
v -4.7 1.5 1.2
v -5.1 1.5 1
v -4.9 1.5 1
v -5.1 1.5 0.8
v -4.9 1.5 0.8
v -5.3 1.5 0.7
v -4.7 1.5 0.7
v -5.4 1.6 1.1
v -5.3 1.6 1.1
v -4.7 1.6 1.1
v -4.6 1.6 1.1
v -5.4 1.6 1
v -5.3 1.6 1
v -4.7 1.6 1
v -4.6 1.6 1
v -5.4 1.6 0.9
v -5.3 1.6 0.9
v -4.7 1.6 0.9
v -4.6 1.6 0.9
v -5.3 1.6 0.7
v -4.7 1.6 0.7
v -5.4 1.6 0.6
v -4.6 1.6 0.6
v -4.8 1.7 1.3
v -4.7 1.7 1.3
v -4.8 1.7 1.2
v -4.7 1.7 1.2
v -5.1 1.8 0.4
v -4.9 1.8 0.4
v -5.1 1.8 0.2
v -4.9 1.8 0.2
v -5.3 1.9 1.3
v -5.1 1.9 1.3
v -4.9 1.9 1.3
v -4.8 1.9 1.3
v -5.4 1.9 1.2
v -5.3 1.9 1.2
v -5.2 1.9 1.2
v -5.1 1.9 1.2
v -4.9 1.9 1.2
v -4.8 1.9 1.2
v -5.4 1.9 1.1
v -5.3 1.9 1.1
v -5.2 1.9 0.6
v -4.8 1.9 0.6
v -5.2 1.9 0.5
v -4.8 1.9 0.5
v -5.1 2 1.3
v -4.9 2 1.3
v -4.7 2 1.3
v -4.6 2 1.3
v -5.1 2 1.2
v -4.9 2 1.2
v -4.7 2 1.2
v -4.7 2 1.1
v -4.6 2 1.1
v -5.2 2 0.5
v -4.8 2 0.5
v -5.1 2 0.4
v -4.9 2 0.4
v -5.2 2 0.3
v -5.1 2 0.3
v -4.9 2 0.3
v -4.8 2 0.3
v -5.3 2.1 1.3
v -5.1 2.1 1.3
v -5.3 2.1 1.2
v -5.1 2.1 1.2
v -5.3 0.1 1.1
v -5.1 0.1 1.1
v -4.9 0.1 1.1
v -4.7 0.1 1.1
v -5.3 0.1 1
v -5.1 0.1 1
v -4.9 0.1 1
v -4.7 0.1 1
v -5.3 1.4 1.1
v -5.2 1.4 1.1
v -4.8 1.4 1.1
v -4.7 1.4 1.1
v -5.5 1.4 1
v -5.3 1.4 1
v -5.1 1.4 1
v -4.9 1.4 1
v -4.7 1.4 1
v -4.5 1.4 1
v -5.5 1.4 0.8
v -5.3 1.4 0.8
v -5.2 1.4 0.8
v -5.1 1.4 0.8
v -4.9 1.4 0.8
v -4.8 1.4 0.8
v -4.7 1.4 0.8
v -4.5 1.4 0.8
v -5.3 1.4 0.7
v -4.7 1.4 0.7
v -5.3 2 1.3
v -5.1 2 1.3
v -5.3 2 1.2
v -5.1 2 1.2
v -5.1 2.2 0.3
v -4.9 2.2 0.3
v -5.1 2.2 0.2
v -4.9 2.2 0.2
v -4.7 2.3 1.3
v -4.6 2.3 1.3
v -5.4 2.3 1.2
v -5.3 2.3 1.2
v -4.7 2.3 1.2
v -4.6 2.3 1.2
v -5.3 2.3 0.7
v -5.2 2.3 0.7
v -4.7 2.3 0.7
v -4.6 2.3 0.7
v -5.4 2.3 0.6
v -5.2 2.3 0.6
v -4.8 2.3 0.6
v -4.7 2.3 0.6
v -4.6 2.3 0.6
v -5.2 2.3 0.3
v -4.8 2.3 0.3
v -5.3 2.4 1.3
v -4.7 2.4 1.3
v -4.7 2.4 1.2
v -4.6 2.4 1.2
v -5.3 2.4 0.7
v -5.2 2.4 0.7
v -4.7 2.4 0.7
v -4.6 2.4 0.7
v -5.2 2.4 0.6
v -4.7 2.4 0.6

# faces
f 3/1/1 2/1/1 1/1/1
f 4/1/1 2/1/1 3/1/1
f 5/8/1 4/8/1 3/8/1
f 6/8/1 4/8/1 5/8/1
f 12/3/1 8/3/1 7/3/1
f 13/2/1 9/2/1 8/2/1
f 13/3/1 8/3/1 12/3/1
f 14/3/1 10/3/1 9/3/1
f 14/2/1 9/2/1 13/2/1
f 15/3/1 13/3/1 12/3/1
f 15/3/1 12/3/1 11/3/1
f 15/3/1 14/3/1 13/3/1
f 16/3/1 10/3/1 14/3/1
f 16/3/1 14/3/1 15/3/1
f 19/4/1 18/4/1 17/4/1
f 20/4/1 18/4/1 19/4/1
f 21/4/1 18/4/1 20/4/1
f 22/1/1 21/1/1 20/1/1
f 23/1/1 21/1/1 22/1/1
f 25/4/1 23/4/1 22/4/1
f 26/4/1 23/4/1 25/4/1
f 26/7/1 25/7/1 24/7/1
f 27/4/1 23/4/1 26/4/1
f 30/4/1 29/4/1 28/4/1
f 31/4/1 29/4/1 30/4/1
f 32/7/1 26/7/1 24/7/1
f 33/8/1 31/8/1 30/8/1
f 34/7/1 32/7/1 24/7/1
f 35/7/1 32/7/1 34/7/1
f 36/8/1 31/8/1 33/8/1
f 37/8/1 31/8/1 36/8/1
f 40/1/1 39/1/1 38/1/1
f 41/1/1 39/1/1 40/1/1
f 42/1/1 39/1/1 41/1/1
f 43/1/1 39/1/1 42/1/1
f 44/1/1 39/1/1 43/1/1
f 45/5/1 41/5/1 40/5/1
f 46/5/1 41/5/1 45/5/1
f 48/1/1 46/1/1 45/1/1
f 49/1/1 46/1/1 48/1/1
f 50/3/1 48/3/1 47/3/1
f 51/3/1 48/3/1 50/3/1
f 54/3/1 53/3/1 52/3/1
f 56/3/1 54/3/1 52/3/1
f 56/3/1 55/3/1 54/3/1
f 57/3/1 55/3/1 56/3/1
f 60/3/1 59/3/1 58/3/1
f 63/3/1 60/3/1 58/3/1
f 63/3/1 61/3/1 60/3/1
f 64/3/1 61/3/1 63/3/1
f 65/3/1 63/3/1 62/3/1
f 66/3/1 63/3/1 65/3/1
f 69/1/1 68/1/1 67/1/1
f 70/1/1 68/1/1 69/1/1
f 75/3/1 72/3/1 71/3/1
f 76/3/1 72/3/1 75/3/1
f 77/3/1 74/3/1 73/3/1
f 78/3/1 74/3/1 77/3/1
f 79/3/1 72/3/1 76/3/1
f 80/3/1 72/3/1 79/3/1
f 83/4/1 82/4/1 81/4/1
f 84/4/1 82/4/1 83/4/1
f 85/4/1 82/4/1 84/4/1
f 86/1/1 85/1/1 84/1/1
f 87/1/1 85/1/1 86/1/1
f 88/4/1 87/4/1 86/4/1
f 89/4/1 87/4/1 88/4/1
f 90/4/1 87/4/1 89/4/1
f 93/3/1 92/3/1 91/3/1
f 94/3/1 92/3/1 93/3/1
f 97/3/1 96/3/1 95/3/1
f 98/3/1 97/3/1 95/3/1
f 99/3/1 97/3/1 98/3/1
f 100/4/2 101/4/2 102/4/2
f 102/4/2 101/4/2 103/4/2
f 103/4/2 101/4/2 104/4/2
f 103/1/2 104/1/2 105/1/2
f 105/1/2 104/1/2 106/1/2
f 105/4/2 106/4/2 107/4/2
f 107/4/2 106/4/2 108/4/2
f 108/4/2 106/4/2 109/4/2
f 110/3/2 111/3/2 112/3/2
f 112/3/2 111/3/2 113/3/2
f 114/1/2 115/1/2 116/1/2
f 116/1/2 115/1/2 117/1/2
f 118/3/2 119/3/2 120/3/2
f 120/3/2 119/3/2 121/3/2
f 121/3/2 119/3/2 122/3/2
f 122/3/2 119/3/2 123/3/2
f 124/3/2 125/3/2 126/3/2
f 124/3/2 126/3/2 128/3/2
f 126/3/2 127/3/2 128/3/2
f 128/3/2 127/3/2 129/3/2
f 130/4/2 131/4/2 132/4/2
f 132/4/2 131/4/2 133/4/2
f 133/4/2 131/4/2 134/4/2
f 133/1/2 134/1/2 135/1/2
f 135/1/2 134/1/2 136/1/2
f 135/4/2 136/4/2 138/4/2
f 138/4/2 136/4/2 139/4/2
f 137/7/2 138/7/2 139/7/2
f 139/4/2 136/4/2 140/4/2
f 141/4/2 142/4/2 143/4/2
f 143/4/2 142/4/2 144/4/2
f 137/7/2 139/7/2 145/7/2
f 143/8/2 144/8/2 146/8/2
f 137/7/2 145/7/2 147/7/2
f 147/7/2 145/7/2 148/7/2
f 146/8/2 144/8/2 149/8/2
f 149/8/2 144/8/2 150/8/2
f 151/1/2 152/1/2 153/1/2
f 153/1/2 152/1/2 154/1/2
f 154/1/2 152/1/2 155/1/2
f 155/1/2 152/1/2 156/1/2
f 156/1/2 152/1/2 157/1/2
f 153/5/2 154/5/2 159/5/2
f 159/5/2 154/5/2 160/5/2
f 158/3/2 159/3/2 160/3/2
f 160/5/2 154/5/2 161/5/2
f 158/3/2 160/3/2 162/3/2
f 160/1/2 161/1/2 163/1/2
f 162/3/2 160/3/2 163/3/2
f 163/1/2 161/1/2 164/1/2
f 165/3/2 166/3/2 169/3/2
f 169/3/2 166/3/2 170/3/2
f 167/3/2 168/3/2 171/3/2
f 171/3/2 168/3/2 172/3/2
f 173/3/2 174/3/2 177/3/2
f 174/2/2 175/2/2 177/2/2
f 175/3/2 176/3/2 178/3/2
f 177/2/2 175/2/2 178/2/2
f 173/3/2 177/3/2 180/3/2
f 177/3/2 178/3/2 180/3/2
f 179/3/2 180/3/2 181/3/2
f 181/3/2 180/3/2 182/3/2
f 178/3/2 176/3/2 183/3/2
f 182/3/2 180/3/2 183/3/2
f 180/3/2 178/3/2 183/3/2
f 183/3/2 176/3/2 184/3/2
f 182/3/2 183/3/2 185/3/2
f 185/3/2 183/3/2 186/3/2
f 187/1/2 188/1/2 189/1/2
f 189/1/2 188/1/2 190/1/2
f 189/8/2 190/8/2 191/8/2
f 191/8/2 190/8/2 192/8/2
f 197/3/3 194/3/3 193/3/3
f 198/3/3 194/3/3 197/3/3
f 199/3/3 196/3/3 195/3/3
f 201/3/3 199/3/3 198/3/3
f 203/3/3 201/3/3 200/3/3
f 204/3/3 203/3/3 202/3/3
f 205/3/3 199/3/3 201/3/3
f 205/3/3 203/3/3 204/3/3
f 205/3/3 201/3/3 203/3/3
f 206/3/3 196/3/3 199/3/3
f 206/3/3 199/3/3 205/3/3
f 207/3/3 196/3/3 206/3/3
f 208/3/3 206/3/3 205/3/3
f 209/3/3 206/3/3 208/3/3
f 215/3/3 211/3/3 210/3/3
f 216/3/3 211/3/3 215/3/3
f 217/3/3 211/3/3 216/3/3
f 218/3/3 211/3/3 217/3/3
f 219/5/3 214/5/3 213/5/3
f 219/1/3 213/1/3 212/1/3
f 220/1/3 215/1/3 214/1/3
f 220/5/3 214/5/3 219/5/3
f 221/1/3 215/1/3 220/1/3
f 222/1/3 219/1/3 212/1/3
f 222/1/3 220/1/3 219/1/3
f 223/1/3 220/1/3 222/1/3
f 224/4/3 221/4/3 220/4/3
f 224/1/3 220/1/3 223/1/3
f 225/4/3 221/4/3 224/4/3
f 226/1/3 217/1/3 216/1/3
f 227/1/3 217/1/3 226/1/3
f 228/6/3 223/6/3 222/6/3
f 228/1/3 222/1/3 212/1/3
f 229/1/3 225/1/3 224/1/3
f 229/6/3 223/6/3 228/6/3
f 229/1/3 224/1/3 223/1/3
f 229/1/3 226/1/3 225/1/3
f 230/1/3 226/1/3 229/1/3
f 231/1/3 226/1/3 230/1/3
f 232/1/3 226/1/3 231/1/3
f 233/1/3 228/1/3 212/1/3
f 233/1/3 229/1/3 228/1/3
f 233/1/3 230/1/3 229/1/3
f 234/1/3 230/1/3 233/1/3
f 235/4/3 231/4/3 230/4/3
f 235/1/3 230/1/3 234/1/3
f 236/4/3 231/4/3 235/4/3
f 237/1/3 233/1/3 212/1/3
f 238/5/3 234/5/3 233/5/3
f 238/1/3 233/1/3 237/1/3
f 239/5/3 234/5/3 238/5/3
f 242/3/3 241/3/3 240/3/3
f 243/3/3 241/3/3 242/3/3
f 250/3/3 245/3/3 244/3/3
f 251/3/3 245/3/3 250/3/3
f 252/3/3 245/3/3 251/3/3
f 253/7/3 249/7/3 248/7/3
f 254/7/3 249/7/3 253/7/3
f 255/4/3 247/4/3 246/4/3
f 256/4/3 247/4/3 255/4/3
f 257/7/3 253/7/3 248/7/3
f 258/8/3 254/8/3 253/8/3
f 258/7/3 253/7/3 257/7/3
f 261/7/3 257/7/3 248/7/3
f 261/8/3 258/8/3 257/8/3
f 262/8/3 254/8/3 258/8/3
f 262/8/3 258/8/3 261/8/3
f 263/7/3 262/7/3 261/7/3
f 263/8/3 254/8/3 262/8/3
f 264/8/3 254/8/3 263/8/3
f 265/4/3 260/4/3 259/4/3
f 266/4/3 260/4/3 265/4/3
f 267/7/3 261/7/3 248/7/3
f 267/7/3 263/7/3 261/7/3
f 267/7/3 264/7/3 263/7/3
f 268/7/3 264/7/3 267/7/3
f 272/3/3 270/3/3 269/3/3
f 272/3/3 271/3/3 270/3/3
f 273/3/3 271/3/3 272/3/3
f 280/1/3 275/1/3 274/1/3
f 281/8/3 276/8/3 275/8/3
f 281/1/3 275/1/3 280/1/3
f 282/8/3 276/8/3 281/8/3
f 283/1/3 278/1/3 277/1/3
f 284/4/3 279/4/3 278/4/3
f 284/1/3 278/1/3 283/1/3
f 285/4/3 279/4/3 284/4/3
f 291/1/3 287/1/3 286/1/3
f 292/1/3 287/1/3 291/1/3
f 293/1/3 289/1/3 288/1/3
f 294/4/3 290/4/3 289/4/3
f 294/1/3 289/1/3 293/1/3
f 295/4/3 290/4/3 294/4/3
f 299/1/3 297/1/3 296/1/3
f 300/8/3 298/8/3 297/8/3
f 300/1/3 297/1/3 299/1/3
f 301/8/3 298/8/3 300/8/3
f 304/3/3 303/3/3 302/3/3
f 305/3/3 303/3/3 304/3/3
f 306/7/4 307/7/4 308/7/4
f 308/7/4 307/7/4 309/7/4
f 310/1/4 311/1/4 316/1/4
f 316/1/4 311/1/4 317/1/4
f 317/1/4 311/1/4 318/1/4
f 311/8/4 312/8/4 319/8/4
f 318/1/4 311/1/4 319/1/4
f 319/8/4 312/8/4 320/8/4
f 313/4/4 314/4/4 321/4/4
f 314/1/4 315/1/4 322/1/4
f 321/4/4 314/4/4 322/4/4
f 316/4/4 317/4/4 323/4/4
f 322/1/4 315/1/4 323/1/4
f 315/4/4 316/4/4 323/4/4
f 323/4/4 317/4/4 324/4/4
f 325/1/4 326/1/4 331/1/4
f 331/1/4 326/1/4 332/1/4
f 327/4/4 328/4/4 333/4/4
f 328/1/4 329/1/4 334/1/4
f 333/4/4 328/4/4 334/4/4
f 329/4/4 330/4/4 335/4/4
f 334/1/4 329/1/4 335/1/4
f 335/4/4 330/4/4 336/4/4
f 336/4/4 330/4/4 337/4/4
f 338/1/4 339/1/4 341/1/4
f 337/1/4 338/1/4 341/1/4
f 336/1/4 337/1/4 341/1/4
f 339/8/4 340/8/4 342/8/4
f 341/1/4 339/1/4 342/1/4
f 342/8/4 340/8/4 343/8/4
f 349/3/4 350/3/4 351/3/4
f 351/3/4 350/3/4 352/3/4
f 344/4/4 345/4/4 353/4/4
f 345/8/4 346/8/4 354/8/4
f 353/4/4 345/4/4 354/4/4
f 354/8/4 346/8/4 355/8/4
f 347/1/4 348/1/4 356/1/4
f 356/1/4 348/1/4 357/1/4
f 358/3/4 359/3/4 360/3/4
f 360/3/4 359/3/4 361/3/4
f 362/3/4 363/3/4 364/3/4
f 364/3/4 363/3/4 365/3/4
f 362/3/4 364/3/4 367/3/4
f 365/3/4 366/3/4 368/3/4
f 368/3/4 366/3/4 369/3/4
f 367/3/4 368/3/4 369/3/4
f 369/3/4 366/3/4 370/3/4
f 362/3/4 367/3/4 371/3/4
f 367/3/4 369/3/4 371/3/4
f 371/3/4 369/3/4 372/3/4
f 373/3/4 374/3/4 375/3/4
f 375/3/4 374/3/4 376/3/4
f 377/3/4 378/3/4 379/3/4
f 379/3/4 378/3/4 380/3/4
f 380/3/4 378/3/4 382/3/4
f 381/3/4 382/3/4 383/3/4
f 382/3/4 378/3/4 384/3/4
f 383/3/4 382/3/4 384/3/4
f 385/3/4 386/3/4 387/3/4
f 387/3/4 386/3/4 388/3/4
f 393/4/5 390/4/5 389/4/5
f 394/4/5 390/4/5 393/4/5
f 395/4/5 392/4/5 391/4/5
f 396/4/5 392/4/5 395/4/5
f 399/7/5 398/7/5 397/7/5
f 400/7/5 398/7/5 399/7/5
f 401/7/5 398/7/5 400/7/5
f 402/7/5 398/7/5 401/7/5
f 407/1/5 404/1/5 403/1/5
f 408/1/5 404/1/5 407/1/5
f 409/1/5 406/1/5 405/1/5
f 410/1/5 406/1/5 409/1/5
f 414/4/5 412/4/5 411/4/5
f 415/4/5 412/4/5 414/4/5
f 417/4/5 414/4/5 413/4/5
f 417/4/5 416/4/5 415/4/5
f 417/4/5 415/4/5 414/4/5
f 418/4/5 416/4/5 417/4/5
f 421/1/5 420/1/5 419/1/5
f 422/1/5 420/1/5 421/1/5
f 423/1/5 421/1/5 419/1/5
f 424/1/5 420/1/5 422/1/5
f 425/1/5 423/1/5 419/1/5
f 425/1/5 424/1/5 423/1/5
f 426/1/5 420/1/5 424/1/5
f 426/1/5 424/1/5 425/1/5
f 431/3/5 428/3/5 427/3/5
f 432/3/5 428/3/5 431/3/5
f 433/3/5 430/3/5 429/3/5
f 434/3/5 430/3/5 433/3/5
f 435/2/5 432/2/5 431/2/5
f 436/2/5 432/2/5 435/2/5
f 437/2/5 434/2/5 433/2/5
f 438/2/5 434/2/5 437/2/5
f 439/3/5 436/3/5 435/3/5
f 440/3/5 438/3/5 437/3/5
f 441/3/5 439/3/5 435/3/5
f 441/3/5 440/3/5 439/3/5
f 442/3/5 438/3/5 440/3/5
f 442/3/5 440/3/5 441/3/5
f 445/3/5 444/3/5 443/3/5
f 446/3/5 444/3/5 445/3/5
f 449/3/5 448/3/5 447/3/5
f 450/3/5 448/3/5 449/3/5
f 456/3/5 452/3/5 451/3/5
f 457/3/5 452/3/5 456/3/5
f 458/3/5 452/3/5 457/3/5
f 459/3/5 454/3/5 453/3/5
f 460/3/5 454/3/5 459/3/5
f 461/3/5 456/3/5 455/3/5
f 462/3/5 456/3/5 461/3/5
f 465/3/5 464/3/5 463/3/5
f 466/3/5 464/3/5 465/3/5
f 471/3/5 468/3/5 467/3/5
f 472/3/5 468/3/5 471/3/5
f 473/3/5 470/3/5 469/3/5
f 474/3/5 470/3/5 473/3/5
f 475/3/5 470/3/5 474/3/5
f 478/3/5 477/3/5 476/3/5
f 479/3/5 477/3/5 478/3/5
f 480/3/5 478/3/5 476/3/5
f 481/3/5 478/3/5 480/3/5
f 482/3/5 477/3/5 479/3/5
f 483/3/5 477/3/5 482/3/5
f 486/3/5 485/3/5 484/3/5
f 487/3/5 485/3/5 486/3/5
f 488/4/6 489/4/6 492/4/6
f 492/4/6 489/4/6 493/4/6
f 490/4/6 491/4/6 494/4/6
f 494/4/6 491/4/6 495/4/6
f 496/7/6 497/7/6 501/7/6
f 497/8/6 498/8/6 502/8/6
f 502/8/6 498/8/6 503/8/6
f 498/7/6 499/7/6 504/7/6
f 500/8/6 501/8/6 506/8/6
f 501/7/6 497/7/6 507/7/6
f 506/8/6 501/8/6 507/8/6
f 497/8/6 502/8/6 508/8/6
f 507/7/6 497/7/6 508/7/6
f 508/8/6 502/8/6 509/8/6
f 503/8/6 498/8/6 510/8/6
f 498/7/6 504/7/6 511/7/6
f 510/8/6 498/8/6 511/8/6
f 504/8/6 505/8/6 512/8/6
f 511/7/6 504/7/6 512/7/6
f 512/8/6 505/8/6 513/8/6
f 508/8/6 509/8/6 514/8/6
f 510/8/6 511/8/6 514/8/6
f 511/8/6 512/8/6 514/8/6
f 507/8/6 508/8/6 514/8/6
f 509/8/6 510/8/6 514/8/6
f 514/8/6 512/8/6 515/8/6
f 516/3/6 517/3/6 518/3/6
f 518/3/6 517/3/6 519/3/6
f 520/3/6 521/3/6 522/3/6
f 522/3/6 521/3/6 523/3/6
f 524/3/6 525/3/6 528/3/6
f 528/3/6 525/3/6 529/3/6
f 526/3/6 527/3/6 530/3/6
f 526/3/6 530/3/6 534/3/6
f 530/3/6 531/3/6 534/3/6
f 534/3/6 531/3/6 535/3/6
f 532/3/6 533/3/6 537/3/6
f 537/3/6 533/3/6 538/3/6
f 535/3/6 536/3/6 539/3/6
f 539/3/6 536/3/6 540/3/6
f 541/3/6 542/3/6 543/3/6
f 541/3/6 543/3/6 545/3/6
f 543/3/6 544/3/6 545/3/6
f 545/3/6 544/3/6 546/3/6
f 546/3/6 544/3/6 547/3/6
f 547/3/6 544/3/6 548/3/6
f 546/3/6 547/3/6 549/3/6
f 549/3/6 547/3/6 550/3/6
