# MagicaVoxel @ Ephtracy

# group
o 

# material
mtllib Character-5.mtl
usemtl palette

# normals
vn -1 0 0
vn 1 0 0
vn 0 0 1
vn 0 0 -1
vn 0 -1 0
vn 0 1 0

# texcoords
vt 0.0371094 0.5
vt 0.0488281 0.5
vt 0.294922 0.5
vt 0.470703 0.5
vt 0.509766 0.5
vt 0.517578 0.5
vt 0.521484 0.5
vt 0.541016 0.5
vt 0.548828 0.5
vt 0.931641 0.5
vt 0.935547 0.5
vt 0.978516 0.5

# verts
v -0.7 0.8 8.3
v -0.7 0.8 8.1
v -0.7 1 8.3
v -0.7 1 8.1
v -0.7 1.3 8.2
v -0.7 1.3 8.1
v -0.7 1.3 8
v -0.7 1.4 8.3
v -0.7 1.4 8.2
v -0.7 1.6 8.2
v -0.7 1.6 8
v -0.6 1.6 8.2
v -0.6 1.6 8
v -0.6 1.8 8.2
v -0.6 1.8 8
v -0.5 1.8 8.2
v -0.5 1.8 8
v -0.5 2.1 8.2
v -0.5 2.1 8
v -0.4 1.6 8.4
v -0.4 1.6 8.3
v -0.4 1.6 8.2
v -0.4 1.6 8
v -0.4 1.6 7.9
v -0.4 1.9 8.5
v -0.4 1.9 8.4
v -0.4 1.9 8.3
v -0.4 1.9 8.2
v -0.4 2 8.6
v -0.4 2 8.5
v -0.4 2.1 8.8
v -0.4 2.1 8.6
v -0.4 2.1 8.2
v -0.4 2.1 8
v -0.4 2.1 7.9
v -0.4 2.2 8.8
v -0.4 2.2 8.6
v -0.4 2.3 8.6
v -0.4 2.3 8.5
v -0.4 2.3 8
v -0.4 2.3 7.9
v -0.4 2.4 8.5
v -0.4 2.4 8
v -0.3 0.1 8.8
v -0.3 0.1 8.5
v -0.3 0.2 8.8
v -0.3 0.2 8.7
v -0.3 0.2 8.5
v -0.3 0.5 8.7
v -0.3 0.5 8.5
v -0.3 0.6 8.7
v -0.3 0.6 8.5
v -0.3 0.6 8.1
v -0.3 0.7 8.1
v -0.3 0.7 8
v -0.3 0.8 8.7
v -0.3 0.8 8.4
v -0.3 0.9 8.4
v -0.3 0.9 8
v -0.3 1.2 8.3
v -0.3 1.2 8.1
v -0.3 1.4 8.4
v -0.3 1.4 8.3
v -0.3 1.4 8.1
v -0.3 1.4 8
v -0.3 1.5 8.5
v -0.3 1.5 8
v -0.3 1.6 8.5
v -0.3 1.6 8.4
v -0.3 1.6 8.3
v -0.3 1.6 8.2
v -0.3 1.6 8
v -0.3 1.8 8.5
v -0.3 1.8 8.4
v -0.3 1.9 8.6
v -0.3 1.9 8.5
v -0.3 1.9 8.4
v -0.3 2 8.6
v -0.3 2 8.5
v -0.3 2.1 8.9
v -0.3 2.1 8.8
v -0.3 2.2 8.9
v -0.3 2.2 8.8
v -0.3 2.3 8.6
v -0.3 2.3 8.5
v -0.3 2.3 8
v -0.3 2.3 7.9
v -0.3 2.4 8.6
v -0.3 2.4 8.5
v -0.3 2.4 8
v -0.3 2.4 7.9
v -0.3 2.5 8.5
v -0.3 2.5 8
v -0.2 2.4 8
v -0.2 2.4 7.9
v -0.2 2.5 8
v -0.2 2.5 7.9
v -0.1 1.4 8.3
v -0.1 1.4 8.1
v -0.1 1.5 8.3
v -0.1 1.5 8.1
v 0.1 0 8.4
v 0.1 0 8.1
v 0.1 0.1 8.4
v 0.1 0.1 8.3
v 0.1 0.1 8.1
v 0.1 0.4 8.3
v 0.1 0.4 8.1
v 0.1 0.5 8.3
v 0.1 0.5 8.1
v 0.1 0.7 8.3
v 0.1 0.7 8.1
v 0.1 1.9 8.6
v 0.1 1.9 8.5
v 0.1 2 8.6
v 0.1 2 8.5
v 0.4 1.4 8.2
v 0.4 1.4 8.1
v 0.4 1.4 8
v 0.4 1.6 8.2
v 0.4 1.6 8
v 0.5 0.8 8.3
v 0.5 0.8 8.1
v 0.5 1 8.3
v 0.5 1 8.1
v 0.5 1.2 8.3
v 0.5 1.2 8.1
v 0.5 1.3 8.1
v 0.5 1.3 8
v 0.5 1.4 8.1
v 0.5 1.4 8
v -0.5 0.8 8.3
v -0.5 0.8 8.1
v -0.5 1 8.3
v -0.5 1 8.1
v -0.5 1.2 8.3
v -0.5 1.2 8.1
v -0.5 1.3 8.1
v -0.5 1.3 8
v -0.5 1.4 8.1
v -0.5 1.4 8
v -0.4 1.4 8.2
v -0.4 1.4 8.1
v -0.4 1.4 8
v -0.4 1.6 8.2
v -0.4 1.6 8
v -0.1 0.1 8.8
v -0.1 0.1 8.5
v -0.1 0.2 8.8
v -0.1 0.2 8.7
v -0.1 0.2 8.5
v -0.1 0.5 8.7
v -0.1 0.5 8.5
v -0.1 0.6 8.7
v -0.1 0.6 8.5
v -0.1 0.6 8.1
v -0.1 0.7 8.4
v -0.1 0.7 8.1
v -0.1 0.8 8.7
v -0.1 0.8 8.4
v -0.1 1.9 8.6
v -0.1 1.9 8.5
v -0.1 2 8.6
v -0.1 2 8.5
v 0.1 1.4 8.3
v 0.1 1.4 8.1
v 0.1 1.5 8.3
v 0.1 1.5 8.1
v 0.2 2.4 8
v 0.2 2.4 7.9
v 0.2 2.5 8
v 0.2 2.5 7.9
v 0.3 0 8.4
v 0.3 0 8.1
v 0.3 0.1 8.4
v 0.3 0.1 8.3
v 0.3 0.1 8.1
v 0.3 0.4 8.3
v 0.3 0.4 8.1
v 0.3 0.5 8.3
v 0.3 0.5 8.1
v 0.3 0.7 8.4
v 0.3 0.7 8.3
v 0.3 0.7 8.1
v 0.3 0.7 8
v 0.3 0.9 8.4
v 0.3 0.9 8
v 0.3 1.2 8.3
v 0.3 1.2 8.1
v 0.3 1.4 8.4
v 0.3 1.4 8.3
v 0.3 1.4 8.1
v 0.3 1.4 8
v 0.3 1.5 8.5
v 0.3 1.5 8
v 0.3 1.6 8.5
v 0.3 1.6 8.4
v 0.3 1.6 8.3
v 0.3 1.6 8.2
v 0.3 1.6 8
v 0.3 1.8 8.5
v 0.3 1.8 8.4
v 0.3 1.9 8.6
v 0.3 1.9 8.5
v 0.3 2 8.6
v 0.3 2 8.5
v 0.3 2 8.4
v 0.3 2.1 8.9
v 0.3 2.1 8.8
v 0.3 2.2 8.9
v 0.3 2.2 8.8
v 0.3 2.3 8.6
v 0.3 2.3 8.5
v 0.3 2.3 8
v 0.3 2.3 7.9
v 0.3 2.4 8.6
v 0.3 2.4 8.5
v 0.3 2.4 8
v 0.3 2.4 7.9
v 0.3 2.5 8.5
v 0.3 2.5 8
v 0.4 1.6 8.4
v 0.4 1.6 8.3
v 0.4 1.6 8.2
v 0.4 1.6 8
v 0.4 1.6 7.9
v 0.4 1.9 8.3
v 0.4 1.9 8.2
v 0.4 2 8.6
v 0.4 2 8.4
v 0.4 2.1 8.8
v 0.4 2.1 8.6
v 0.4 2.1 8.2
v 0.4 2.1 8
v 0.4 2.1 7.9
v 0.4 2.2 8.8
v 0.4 2.2 8.6
v 0.4 2.3 8.6
v 0.4 2.3 8.5
v 0.4 2.3 8
v 0.4 2.3 7.9
v 0.4 2.4 8.5
v 0.4 2.4 8
v 0.5 1.8 8.2
v 0.5 1.8 8
v 0.5 2.1 8.2
v 0.5 2.1 8
v 0.6 1.6 8.2
v 0.6 1.6 8
v 0.6 1.8 8.2
v 0.6 1.8 8
v 0.7 0.8 8.3
v 0.7 0.8 8.1
v 0.7 1 8.3
v 0.7 1 8.1
v 0.7 1.3 8.2
v 0.7 1.3 8.1
v 0.7 1.3 8
v 0.7 1.4 8.3
v 0.7 1.4 8.2
v 0.7 1.6 8.2
v 0.7 1.6 8
v -0.3 2.1 8.9
v -0.3 2.2 8.9
v 0.3 2.1 8.9
v 0.3 2.2 8.9
v -0.4 2.1 8.8
v -0.4 2.2 8.8
v -0.3 0.1 8.8
v -0.3 0.2 8.8
v -0.3 2.1 8.8
v -0.3 2.2 8.8
v -0.1 0.1 8.8
v -0.1 0.2 8.8
v 0.3 2.1 8.8
v 0.3 2.2 8.8
v 0.4 2.1 8.8
v 0.4 2.2 8.8
v -0.3 0.2 8.7
v -0.3 0.5 8.7
v -0.3 0.6 8.7
v -0.3 0.8 8.7
v -0.1 0.2 8.7
v -0.1 0.5 8.7
v -0.1 0.6 8.7
v -0.1 0.8 8.7
v -0.4 2 8.6
v -0.4 2.1 8.6
v -0.4 2.2 8.6
v -0.4 2.3 8.6
v -0.3 1.9 8.6
v -0.3 2 8.6
v -0.3 2.3 8.6
v -0.3 2.4 8.6
v -0.1 1.9 8.6
v -0.1 2 8.6
v 0.1 1.9 8.6
v 0.1 2 8.6
v 0.3 1.9 8.6
v 0.3 2 8.6
v 0.3 2.3 8.6
v 0.3 2.4 8.6
v 0.4 2 8.6
v 0.4 2.1 8.6
v 0.4 2.2 8.6
v 0.4 2.3 8.6
v -0.4 1.9 8.5
v -0.4 2 8.5
v -0.4 2.3 8.5
v -0.4 2.4 8.5
v -0.3 1.5 8.5
v -0.3 1.6 8.5
v -0.3 1.8 8.5
v -0.3 1.9 8.5
v -0.3 2 8.5
v -0.3 2.3 8.5
v -0.3 2.4 8.5
v -0.3 2.5 8.5
v -0.2 1.6 8.5
v -0.2 1.8 8.5
v -0.2 1.9 8.5
v -0.1 1.6 8.5
v -0.1 1.7 8.5
v -0.1 1.8 8.5
v -0.1 1.9 8.5
v -0.1 2 8.5
v 0.1 1.6 8.5
v 0.1 1.7 8.5
v 0.1 1.8 8.5
v 0.1 1.9 8.5
v 0.1 2 8.5
v 0.2 1.6 8.5
v 0.2 1.8 8.5
v 0.2 1.9 8.5
v 0.3 1.5 8.5
v 0.3 1.6 8.5
v 0.3 1.8 8.5
v 0.3 1.9 8.5
v 0.3 2.3 8.5
v 0.3 2.4 8.5
v 0.3 2.5 8.5
v 0.4 2.3 8.5
v 0.4 2.4 8.5
v -0.4 1.6 8.4
v -0.4 1.9 8.4
v -0.3 0.8 8.4
v -0.3 0.9 8.4
v -0.3 1.4 8.4
v -0.3 1.6 8.4
v -0.3 1.8 8.4
v -0.3 1.9 8.4
v -0.2 1.1 8.4
v -0.2 1.3 8.4
v -0.1 0.7 8.4
v -0.1 0.8 8.4
v -0.1 1 8.4
v -0.1 1.1 8.4
v 0.1 0 8.4
v 0.1 0.1 8.4
v 0.1 1 8.4
v 0.1 1.1 8.4
v 0.2 1.1 8.4
v 0.2 1.3 8.4
v 0.3 0 8.4
v 0.3 0.1 8.4
v 0.3 0.7 8.4
v 0.3 0.9 8.4
v 0.3 1.4 8.4
v 0.3 1.6 8.4
v 0.3 1.8 8.4
v 0.3 2 8.4
v 0.4 1.6 8.4
v 0.4 2 8.4
v -0.7 0.8 8.3
v -0.7 1 8.3
v -0.7 1.4 8.3
v -0.5 0.8 8.3
v -0.5 1 8.3
v -0.5 1.2 8.3
v -0.3 1.2 8.3
v -0.3 1.4 8.3
v -0.1 1.4 8.3
v -0.1 1.5 8.3
v 0.1 0.1 8.3
v 0.1 0.4 8.3
v 0.1 0.5 8.3
v 0.1 0.7 8.3
v 0.1 1.4 8.3
v 0.1 1.5 8.3
v 0.3 0.1 8.3
v 0.3 0.4 8.3
v 0.3 0.5 8.3
v 0.3 0.7 8.3
v 0.3 1.2 8.3
v 0.3 1.4 8.3
v 0.5 0.8 8.3
v 0.5 1 8.3
v 0.5 1.2 8.3
v 0.7 0.8 8.3
v 0.7 1 8.3
v 0.7 1.4 8.3
v -0.7 1.4 8.2
v -0.7 1.6 8.2
v -0.6 1.6 8.2
v -0.6 1.8 8.2
v -0.5 1.8 8.2
v -0.5 2.1 8.2
v -0.4 1.4 8.2
v -0.4 1.6 8.2
v -0.4 1.9 8.2
v -0.4 2.1 8.2
v 0.4 1.4 8.2
v 0.4 1.6 8.2
v 0.4 1.9 8.2
v 0.4 2.1 8.2
v 0.5 1.8 8.2
v 0.5 2.1 8.2
v 0.6 1.6 8.2
v 0.6 1.8 8.2
v 0.7 1.4 8.2
v 0.7 1.6 8.2
v -0.3 0.1 8.5
v -0.3 0.2 8.5
v -0.3 0.5 8.5
v -0.3 0.6 8.5
v -0.1 0.1 8.5
v -0.1 0.2 8.5
v -0.1 0.5 8.5
v -0.1 0.6 8.5
v -0.7 0.8 8.1
v -0.7 1 8.1
v -0.7 1.3 8.1
v -0.5 0.8 8.1
v -0.5 1 8.1
v -0.5 1.2 8.1
v -0.5 1.3 8.1
v -0.5 1.4 8.1
v -0.4 1.4 8.1
v -0.3 0.6 8.1
v -0.3 0.7 8.1
v -0.3 1.2 8.1
v -0.3 1.4 8.1
v -0.1 0.6 8.1
v -0.1 0.7 8.1
v -0.1 1.4 8.1
v -0.1 1.5 8.1
v 0.1 0 8.1
v 0.1 0.1 8.1
v 0.1 0.4 8.1
v 0.1 0.5 8.1
v 0.1 0.7 8.1
v 0.1 1.4 8.1
v 0.1 1.5 8.1
v 0.3 0 8.1
v 0.3 0.1 8.1
v 0.3 0.4 8.1
v 0.3 0.5 8.1
v 0.3 0.7 8.1
v 0.3 1.2 8.1
v 0.3 1.4 8.1
v 0.4 1.4 8.1
v 0.5 0.8 8.1
v 0.5 1 8.1
v 0.5 1.2 8.1
v 0.5 1.3 8.1
v 0.5 1.4 8.1
v 0.7 0.8 8.1
v 0.7 1 8.1
v 0.7 1.3 8.1
v -0.7 1.3 8
v -0.7 1.6 8
v -0.6 1.6 8
v -0.6 1.8 8
v -0.5 1.3 8
v -0.5 1.4 8
v -0.5 1.8 8
v -0.5 2.1 8
v -0.4 1.4 8
v -0.4 1.6 8
v -0.4 2.1 8
v -0.4 2.3 8
v -0.4 2.4 8
v -0.3 0.7 8
v -0.3 0.9 8
v -0.3 1.4 8
v -0.3 1.5 8
v -0.3 1.6 8
v -0.3 2.3 8
v -0.3 2.4 8
v -0.3 2.5 8
v -0.2 2.4 8
v -0.2 2.5 8
v 0.2 2.4 8
v 0.2 2.5 8
v 0.3 0.7 8
v 0.3 0.9 8
v 0.3 1.4 8
v 0.3 1.5 8
v 0.3 1.6 8
v 0.3 2.3 8
v 0.3 2.4 8
v 0.3 2.5 8
v 0.4 1.4 8
v 0.4 1.6 8
v 0.4 2.1 8
v 0.4 2.3 8
v 0.4 2.4 8
v 0.5 1.3 8
v 0.5 1.4 8
v 0.5 1.8 8
v 0.5 2.1 8
v 0.6 1.6 8
v 0.6 1.8 8
v 0.7 1.3 8
v 0.7 1.6 8
v -0.4 1.6 7.9
v -0.4 2.1 7.9
v -0.4 2.3 7.9
v -0.3 2.3 7.9
v -0.3 2.4 7.9
v -0.2 2.4 7.9
v -0.2 2.5 7.9
v 0.2 2.4 7.9
v 0.2 2.5 7.9
v 0.3 2.3 7.9
v 0.3 2.4 7.9
v 0.4 1.6 7.9
v 0.4 2.1 7.9
v 0.4 2.3 7.9
v 0.1 0 8.4
v 0.3 0 8.4
v 0.1 0 8.1
v 0.3 0 8.1
v -0.3 0.1 8.8
v -0.1 0.1 8.8
v -0.3 0.1 8.5
v -0.1 0.1 8.5
v -0.3 0.6 8.5
v -0.1 0.6 8.5
v -0.3 0.6 8.1
v -0.1 0.6 8.1
v -0.1 0.7 8.4
v 0.3 0.7 8.4
v 0.1 0.7 8.3
v 0.3 0.7 8.3
v -0.3 0.7 8.1
v -0.1 0.7 8.1
v 0.1 0.7 8.1
v 0.3 0.7 8.1
v -0.3 0.7 8
v 0.3 0.7 8
v -0.7 0.8 8.3
v -0.5 0.8 8.3
v 0.5 0.8 8.3
v 0.7 0.8 8.3
v -0.7 0.8 8.1
v -0.5 0.8 8.1
v 0.5 0.8 8.1
v 0.7 0.8 8.1
v -0.5 1.2 8.3
v -0.3 1.2 8.3
v 0.3 1.2 8.3
v 0.5 1.2 8.3
v -0.5 1.2 8.1
v -0.3 1.2 8.1
v 0.3 1.2 8.1
v 0.5 1.2 8.1
v -0.7 1.3 8.1
v -0.5 1.3 8.1
v 0.5 1.3 8.1
v 0.7 1.3 8.1
v -0.7 1.3 8
v -0.5 1.3 8
v 0.5 1.3 8
v 0.7 1.3 8
v -0.5 1.4 8.1
v -0.4 1.4 8.1
v 0.4 1.4 8.1
v 0.5 1.4 8.1
v -0.5 1.4 8
v -0.4 1.4 8
v 0.4 1.4 8
v 0.5 1.4 8
v -0.3 1.5 8.5
v 0.3 1.5 8.5
v -0.1 1.5 8.3
v 0.1 1.5 8.3
v -0.1 1.5 8.1
v 0.1 1.5 8.1
v -0.3 1.5 8
v 0.3 1.5 8
v -0.4 1.6 8.4
v -0.3 1.6 8.4
v 0.3 1.6 8.4
v 0.4 1.6 8.4
v -0.4 1.6 8.3
v -0.3 1.6 8.3
v 0.3 1.6 8.3
v 0.4 1.6 8.3
v -0.4 1.6 8.2
v -0.3 1.6 8.2
v 0.3 1.6 8.2
v 0.4 1.6 8.2
v -0.4 1.6 8
v -0.3 1.6 8
v 0.3 1.6 8
v 0.4 1.6 8
v -0.4 1.6 7.9
v 0.4 1.6 7.9
v -0.3 1.9 8.6
v -0.1 1.9 8.6
v 0.1 1.9 8.6
v 0.3 1.9 8.6
v -0.4 1.9 8.5
v -0.3 1.9 8.5
v -0.2 1.9 8.5
v -0.1 1.9 8.5
v 0.1 1.9 8.5
v 0.2 1.9 8.5
v 0.3 1.9 8.5
v -0.4 1.9 8.4
v -0.3 1.9 8.4
v -0.4 2 8.6
v -0.3 2 8.6
v -0.1 2 8.6
v 0.1 2 8.6
v 0.3 2 8.6
v 0.4 2 8.6
v -0.4 2 8.5
v -0.3 2 8.5
v -0.1 2 8.5
v 0.1 2 8.5
v 0.3 2 8.5
v 0.3 2 8.4
v 0.4 2 8.4
v -0.3 2.1 8.9
v 0.3 2.1 8.9
v -0.4 2.1 8.8
v -0.3 2.1 8.8
v 0.3 2.1 8.8
v 0.4 2.1 8.8
v -0.4 2.1 8.6
v 0.4 2.1 8.6
v 0.1 0.1 8.4
v 0.3 0.1 8.4
v 0.1 0.1 8.3
v 0.3 0.1 8.3
v -0.3 0.2 8.8
v -0.1 0.2 8.8
v -0.3 0.2 8.7
v -0.1 0.2 8.7
v -0.3 0.8 8.7
v -0.1 0.8 8.7
v -0.3 0.8 8.4
v -0.1 0.8 8.4
v -0.3 1.4 8.4
v 0.3 1.4 8.4
v -0.7 1.4 8.3
v -0.3 1.4 8.3
v -0.1 1.4 8.3
v 0.1 1.4 8.3
v 0.3 1.4 8.3
v 0.7 1.4 8.3
v -0.7 1.4 8.2
v -0.4 1.4 8.2
v 0.4 1.4 8.2
v 0.7 1.4 8.2
v -0.4 1.4 8.1
v -0.3 1.4 8.1
v -0.1 1.4 8.1
v 0.1 1.4 8.1
v 0.3 1.4 8.1
v 0.4 1.4 8.1
v -0.3 1.4 8
v 0.3 1.4 8
v -0.7 1.6 8.2
v -0.6 1.6 8.2
v 0.6 1.6 8.2
v 0.7 1.6 8.2
v -0.7 1.6 8
v -0.6 1.6 8
v 0.6 1.6 8
v 0.7 1.6 8
v -0.6 1.8 8.2
v -0.5 1.8 8.2
v 0.5 1.8 8.2
v 0.6 1.8 8.2
v -0.6 1.8 8
v -0.5 1.8 8
v 0.5 1.8 8
v 0.6 1.8 8
v -0.5 2.1 8.2
v -0.4 2.1 8.2
v 0.4 2.1 8.2
v 0.5 2.1 8.2
v -0.5 2.1 8
v -0.4 2.1 8
v 0.4 2.1 8
v 0.5 2.1 8
v -0.3 2.2 8.9
v 0.3 2.2 8.9
v -0.4 2.2 8.8
v -0.3 2.2 8.8
v 0.3 2.2 8.8
v 0.4 2.2 8.8
v -0.4 2.2 8.6
v 0.4 2.2 8.6
v -0.4 2.3 8.6
v -0.3 2.3 8.6
v 0.3 2.3 8.6
v 0.4 2.3 8.6
v -0.4 2.3 8.5
v -0.3 2.3 8.5
v 0.3 2.3 8.5
v 0.4 2.3 8.5
v -0.4 2.3 8
v -0.3 2.3 8
v 0.3 2.3 8
v 0.4 2.3 8
v -0.4 2.3 7.9
v -0.3 2.3 7.9
v 0.3 2.3 7.9
v 0.4 2.3 7.9
v -0.3 2.4 8.6
v 0.3 2.4 8.6
v -0.4 2.4 8.5
v -0.3 2.4 8.5
v 0.3 2.4 8.5
v 0.4 2.4 8.5
v -0.4 2.4 8
v -0.3 2.4 8
v -0.2 2.4 8
v 0.2 2.4 8
v 0.3 2.4 8
v 0.4 2.4 8
v -0.3 2.4 7.9
v -0.2 2.4 7.9
v 0.2 2.4 7.9
v 0.3 2.4 7.9
v -0.3 2.5 8.5
v 0.3 2.5 8.5
v -0.3 2.5 8
v -0.2 2.5 8
v 0.2 2.5 8
v 0.3 2.5 8
v -0.2 2.5 7.9
v 0.2 2.5 7.9

# faces
f 3/1/1 2/1/1 1/1/1
f 4/1/1 2/1/1 3/1/1
f 5/10/1 4/10/1 3/10/1
f 6/10/1 4/10/1 5/10/1
f 8/10/1 5/10/1 3/10/1
f 9/4/1 6/4/1 5/4/1
f 9/10/1 5/10/1 8/10/1
f 9/4/1 7/4/1 6/4/1
f 10/4/1 7/4/1 9/4/1
f 11/4/1 7/4/1 10/4/1
f 14/4/1 13/4/1 12/4/1
f 15/4/1 13/4/1 14/4/1
f 18/4/1 17/4/1 16/4/1
f 19/4/1 17/4/1 18/4/1
f 26/4/1 21/4/1 20/4/1
f 27/2/1 22/2/1 21/2/1
f 27/4/1 21/4/1 26/4/1
f 28/2/1 22/2/1 27/2/1
f 30/4/1 26/4/1 25/4/1
f 30/4/1 27/4/1 26/4/1
f 30/4/1 28/4/1 27/4/1
f 32/4/1 30/4/1 29/4/1
f 33/4/1 28/4/1 30/4/1
f 33/4/1 30/4/1 32/4/1
f 34/4/1 24/4/1 23/4/1
f 35/4/1 24/4/1 34/4/1
f 36/3/1 33/3/1 32/3/1
f 36/3/1 32/3/1 31/3/1
f 36/3/1 35/3/1 34/3/1
f 36/3/1 34/3/1 33/3/1
f 37/3/1 35/3/1 36/3/1
f 38/3/1 35/3/1 37/3/1
f 39/3/1 35/3/1 38/3/1
f 40/3/1 35/3/1 39/3/1
f 41/3/1 35/3/1 40/3/1
f 42/3/1 40/3/1 39/3/1
f 43/3/1 40/3/1 42/3/1
f 46/6/1 45/6/1 44/6/1
f 47/6/1 45/6/1 46/6/1
f 48/6/1 45/6/1 47/6/1
f 49/1/1 48/1/1 47/1/1
f 50/1/1 48/1/1 49/1/1
f 51/5/1 50/5/1 49/5/1
f 52/5/1 50/5/1 51/5/1
f 54/6/1 52/6/1 51/6/1
f 54/6/1 53/6/1 52/6/1
f 56/6/1 54/6/1 51/6/1
f 56/6/1 55/6/1 54/6/1
f 57/6/1 55/6/1 56/6/1
f 58/6/1 55/6/1 57/6/1
f 59/6/1 55/6/1 58/6/1
f 60/10/1 59/10/1 58/10/1
f 61/10/1 59/10/1 60/10/1
f 62/10/1 60/10/1 58/10/1
f 63/10/1 60/10/1 62/10/1
f 64/10/1 59/10/1 61/10/1
f 65/10/1 59/10/1 64/10/1
f 68/1/1 67/1/1 66/1/1
f 69/1/1 67/1/1 68/1/1
f 70/1/1 67/1/1 69/1/1
f 71/1/1 67/1/1 70/1/1
f 72/1/1 67/1/1 71/1/1
f 73/8/1 69/8/1 68/8/1
f 74/8/1 69/8/1 73/8/1
f 76/1/1 74/1/1 73/1/1
f 77/1/1 74/1/1 76/1/1
f 78/4/1 76/4/1 75/4/1
f 79/4/1 76/4/1 78/4/1
f 82/3/1 81/3/1 80/3/1
f 83/3/1 81/3/1 82/3/1
f 88/3/1 85/3/1 84/3/1
f 89/3/1 85/3/1 88/3/1
f 90/3/1 87/3/1 86/3/1
f 91/3/1 87/3/1 90/3/1
f 92/3/1 90/3/1 89/3/1
f 93/3/1 90/3/1 92/3/1
f 96/3/1 95/3/1 94/3/1
f 97/3/1 95/3/1 96/3/1
f 100/1/1 99/1/1 98/1/1
f 101/1/1 99/1/1 100/1/1
f 104/6/1 103/6/1 102/6/1
f 105/6/1 103/6/1 104/6/1
f 106/6/1 103/6/1 105/6/1
f 107/1/1 106/1/1 105/1/1
f 108/1/1 106/1/1 107/1/1
f 109/5/1 108/5/1 107/5/1
f 110/5/1 108/5/1 109/5/1
f 111/6/1 110/6/1 109/6/1
f 112/6/1 110/6/1 111/6/1
f 115/4/1 114/4/1 113/4/1
f 116/4/1 114/4/1 115/4/1
f 120/4/1 118/4/1 117/4/1
f 120/4/1 119/4/1 118/4/1
f 121/4/1 119/4/1 120/4/1
f 124/1/1 123/1/1 122/1/1
f 125/1/1 123/1/1 124/1/1
f 126/10/1 125/10/1 124/10/1
f 127/10/1 125/10/1 126/10/1
f 130/4/1 129/4/1 128/4/1
f 131/4/1 129/4/1 130/4/1
f 132/1/2 133/1/2 134/1/2
f 134/1/2 133/1/2 135/1/2
f 134/10/2 135/10/2 136/10/2
f 136/10/2 135/10/2 137/10/2
f 138/4/2 139/4/2 140/4/2
f 140/4/2 139/4/2 141/4/2
f 142/4/2 143/4/2 145/4/2
f 143/4/2 144/4/2 145/4/2
f 145/4/2 144/4/2 146/4/2
f 147/6/2 148/6/2 149/6/2
f 149/6/2 148/6/2 150/6/2
f 150/6/2 148/6/2 151/6/2
f 150/1/2 151/1/2 152/1/2
f 152/1/2 151/1/2 153/1/2
f 152/5/2 153/5/2 154/5/2
f 154/5/2 153/5/2 155/5/2
f 154/6/2 155/6/2 157/6/2
f 155/6/2 156/6/2 157/6/2
f 157/6/2 156/6/2 158/6/2
f 154/6/2 157/6/2 159/6/2
f 159/6/2 157/6/2 160/6/2
f 161/4/2 162/4/2 163/4/2
f 163/4/2 162/4/2 164/4/2
f 165/1/2 166/1/2 167/1/2
f 167/1/2 166/1/2 168/1/2
f 169/3/2 170/3/2 171/3/2
f 171/3/2 170/3/2 172/3/2
f 173/6/2 174/6/2 175/6/2
f 175/6/2 174/6/2 176/6/2
f 176/6/2 174/6/2 177/6/2
f 176/1/2 177/1/2 178/1/2
f 178/1/2 177/1/2 179/1/2
f 178/5/2 179/5/2 180/5/2
f 180/5/2 179/5/2 181/5/2
f 180/6/2 181/6/2 183/6/2
f 183/6/2 181/6/2 184/6/2
f 183/6/2 184/6/2 186/6/2
f 184/6/2 185/6/2 186/6/2
f 182/6/2 183/6/2 186/6/2
f 186/6/2 185/6/2 187/6/2
f 186/10/2 187/10/2 188/10/2
f 188/10/2 187/10/2 189/10/2
f 186/10/2 188/10/2 190/10/2
f 190/10/2 188/10/2 191/10/2
f 189/10/2 187/10/2 192/10/2
f 192/10/2 187/10/2 193/10/2
f 194/1/2 195/1/2 196/1/2
f 196/1/2 195/1/2 197/1/2
f 197/1/2 195/1/2 198/1/2
f 198/1/2 195/1/2 199/1/2
f 199/1/2 195/1/2 200/1/2
f 196/8/2 197/8/2 201/8/2
f 201/8/2 197/8/2 202/8/2
f 201/1/2 202/1/2 204/1/2
f 203/4/2 204/4/2 205/4/2
f 204/1/2 202/1/2 206/1/2
f 205/4/2 204/4/2 206/4/2
f 206/1/2 202/1/2 207/1/2
f 208/3/2 209/3/2 210/3/2
f 210/3/2 209/3/2 211/3/2
f 212/3/2 213/3/2 216/3/2
f 216/3/2 213/3/2 217/3/2
f 214/3/2 215/3/2 218/3/2
f 218/3/2 215/3/2 219/3/2
f 217/3/2 218/3/2 220/3/2
f 220/3/2 218/3/2 221/3/2
f 222/4/2 223/4/2 227/4/2
f 223/2/2 224/2/2 227/2/2
f 227/2/2 224/2/2 228/2/2
f 222/4/2 227/4/2 230/4/2
f 227/4/2 228/4/2 230/4/2
f 229/4/2 230/4/2 232/4/2
f 230/4/2 228/4/2 233/4/2
f 232/4/2 230/4/2 233/4/2
f 225/4/2 226/4/2 234/4/2
f 234/4/2 226/4/2 235/4/2
f 232/3/2 233/3/2 236/3/2
f 231/3/2 232/3/2 236/3/2
f 234/3/2 235/3/2 236/3/2
f 233/3/2 234/3/2 236/3/2
f 236/3/2 235/3/2 237/3/2
f 237/3/2 235/3/2 238/3/2
f 238/3/2 235/3/2 239/3/2
f 239/3/2 235/3/2 240/3/2
f 240/3/2 235/3/2 241/3/2
f 239/3/2 240/3/2 242/3/2
f 242/3/2 240/3/2 243/3/2
f 244/4/2 245/4/2 246/4/2
f 246/4/2 245/4/2 247/4/2
f 248/4/2 249/4/2 250/4/2
f 250/4/2 249/4/2 251/4/2
f 252/1/2 253/1/2 254/1/2
f 254/1/2 253/1/2 255/1/2
f 254/10/2 255/10/2 256/10/2
f 256/10/2 255/10/2 257/10/2
f 254/10/2 256/10/2 259/10/2
f 256/4/2 257/4/2 260/4/2
f 259/10/2 256/10/2 260/10/2
f 257/4/2 258/4/2 260/4/2
f 260/4/2 258/4/2 261/4/2
f 261/4/2 258/4/2 262/4/2
f 265/3/3 264/3/3 263/3/3
f 266/3/3 264/3/3 265/3/3
f 271/3/3 268/3/3 267/3/3
f 272/3/3 268/3/3 271/3/3
f 273/6/3 270/6/3 269/6/3
f 274/6/3 270/6/3 273/6/3
f 277/3/3 276/3/3 275/3/3
f 278/3/3 276/3/3 277/3/3
f 283/1/3 280/1/3 279/1/3
f 284/5/3 281/5/3 280/5/3
f 284/1/3 280/1/3 283/1/3
f 285/6/3 282/6/3 281/6/3
f 285/5/3 281/5/3 284/5/3
f 286/6/3 282/6/3 285/6/3
f 292/4/3 288/4/3 287/4/3
f 293/3/3 290/3/3 289/3/3
f 295/4/3 292/4/3 291/4/3
f 296/4/3 288/4/3 292/4/3
f 296/4/3 292/4/3 295/4/3
f 298/4/3 288/4/3 296/4/3
f 299/4/3 298/4/3 297/4/3
f 300/4/3 288/4/3 298/4/3
f 300/4/3 298/4/3 299/4/3
f 301/3/3 294/3/3 293/3/3
f 301/3/3 293/3/3 289/3/3
f 302/3/3 294/3/3 301/3/3
f 303/4/3 288/4/3 300/4/3
f 304/4/3 288/4/3 303/4/3
f 305/3/3 301/3/3 289/3/3
f 306/3/3 301/3/3 305/3/3
f 314/4/3 308/4/3 307/4/3
f 315/4/3 308/4/3 314/4/3
f 316/3/3 310/3/3 309/3/3
f 317/3/3 310/3/3 316/3/3
f 319/8/3 313/8/3 312/8/3
f 319/1/3 312/1/3 311/1/3
f 320/1/3 314/1/3 313/1/3
f 320/8/3 313/8/3 319/8/3
f 321/1/3 314/1/3 320/1/3
f 322/1/3 319/1/3 311/1/3
f 322/1/3 320/1/3 319/1/3
f 323/1/3 320/1/3 322/1/3
f 324/7/3 321/7/3 320/7/3
f 324/1/3 320/1/3 323/1/3
f 325/7/3 321/7/3 324/7/3
f 327/9/3 323/9/3 322/9/3
f 327/1/3 322/1/3 311/1/3
f 328/1/3 325/1/3 324/1/3
f 328/9/3 323/9/3 327/9/3
f 328/1/3 326/1/3 325/1/3
f 328/1/3 324/1/3 323/1/3
f 329/1/3 326/1/3 328/1/3
f 330/1/3 326/1/3 329/1/3
f 331/1/3 326/1/3 330/1/3
f 332/1/3 327/1/3 311/1/3
f 332/1/3 328/1/3 327/1/3
f 332/1/3 329/1/3 328/1/3
f 333/7/3 330/7/3 329/7/3
f 333/1/3 329/1/3 332/1/3
f 334/7/3 330/7/3 333/7/3
f 335/1/3 332/1/3 311/1/3
f 336/8/3 333/8/3 332/8/3
f 336/1/3 332/1/3 335/1/3
f 337/1/3 334/1/3 333/1/3
f 337/8/3 333/8/3 336/8/3
f 338/1/3 334/1/3 337/1/3
f 340/3/3 318/3/3 317/3/3
f 341/3/3 318/3/3 340/3/3
f 342/3/3 340/3/3 339/3/3
f 343/3/3 340/3/3 342/3/3
f 349/4/3 345/4/3 344/4/3
f 350/4/3 345/4/3 349/4/3
f 351/4/3 345/4/3 350/4/3
f 352/10/3 348/10/3 347/10/3
f 353/10/3 348/10/3 352/10/3
f 355/6/3 347/6/3 346/6/3
f 356/10/3 352/10/3 347/10/3
f 357/12/3 353/12/3 352/12/3
f 357/10/3 352/10/3 356/10/3
f 360/10/3 356/10/3 347/10/3
f 360/12/3 357/12/3 356/12/3
f 361/12/3 353/12/3 357/12/3
f 361/12/3 357/12/3 360/12/3
f 362/10/3 361/10/3 360/10/3
f 362/12/3 353/12/3 361/12/3
f 363/10/3 348/10/3 353/10/3
f 363/12/3 353/12/3 362/12/3
f 364/6/3 359/6/3 358/6/3
f 365/6/3 359/6/3 364/6/3
f 366/6/3 355/6/3 354/6/3
f 367/10/3 362/10/3 360/10/3
f 367/6/3 355/6/3 366/6/3
f 367/6/3 347/6/3 355/6/3
f 367/10/3 360/10/3 347/10/3
f 367/10/3 363/10/3 362/10/3
f 368/10/3 348/10/3 363/10/3
f 368/10/3 363/10/3 367/10/3
f 372/4/3 370/4/3 369/4/3
f 372/4/3 371/4/3 370/4/3
f 373/4/3 371/4/3 372/4/3
f 377/1/3 375/1/3 374/1/3
f 378/10/3 376/10/3 375/10/3
f 378/1/3 375/1/3 377/1/3
f 379/10/3 376/10/3 378/10/3
f 380/10/3 376/10/3 379/10/3
f 381/10/3 376/10/3 380/10/3
f 388/1/3 383/1/3 382/1/3
f 389/1/3 383/1/3 388/1/3
f 390/1/3 385/1/3 384/1/3
f 391/5/3 386/5/3 385/5/3
f 391/1/3 385/1/3 390/1/3
f 392/6/3 387/6/3 386/6/3
f 392/5/3 386/5/3 391/5/3
f 393/6/3 387/6/3 392/6/3
f 398/10/3 395/10/3 394/10/3
f 399/1/3 397/1/3 396/1/3
f 400/10/3 398/10/3 397/10/3
f 400/1/3 397/1/3 399/1/3
f 401/10/3 395/10/3 398/10/3
f 401/10/3 398/10/3 400/10/3
f 404/4/3 403/4/3 402/4/3
f 406/4/3 405/4/3 404/4/3
f 408/4/3 404/4/3 402/4/3
f 408/4/3 407/4/3 406/4/3
f 408/4/3 406/4/3 404/4/3
f 409/4/3 407/4/3 408/4/3
f 410/4/3 407/4/3 409/4/3
f 411/4/3 407/4/3 410/4/3
f 416/4/3 413/4/3 412/4/3
f 416/4/3 415/4/3 414/4/3
f 416/4/3 414/4/3 413/4/3
f 417/4/3 415/4/3 416/4/3
f 418/4/3 416/4/3 412/4/3
f 419/4/3 416/4/3 418/4/3
f 420/4/3 418/4/3 412/4/3
f 421/4/3 418/4/3 420/4/3
f 422/6/4 423/6/4 426/6/4
f 423/1/4 424/1/4 427/1/4
f 426/6/4 423/6/4 427/6/4
f 424/5/4 425/5/4 428/5/4
f 427/1/4 424/1/4 428/1/4
f 428/5/4 425/5/4 429/5/4
f 430/1/4 431/1/4 433/1/4
f 431/10/4 432/10/4 434/10/4
f 433/1/4 431/1/4 434/1/4
f 434/10/4 432/10/4 435/10/4
f 435/10/4 432/10/4 436/10/4
f 436/10/4 437/10/4 438/10/4
f 435/10/4 436/10/4 438/10/4
f 435/10/4 438/10/4 441/10/4
f 441/10/4 438/10/4 442/10/4
f 439/6/4 440/6/4 443/6/4
f 443/6/4 440/6/4 444/6/4
f 445/1/4 446/1/4 452/1/4
f 452/1/4 446/1/4 453/1/4
f 447/6/4 448/6/4 454/6/4
f 448/1/4 449/1/4 455/1/4
f 454/6/4 448/6/4 455/6/4
f 449/5/4 450/5/4 456/5/4
f 455/1/4 449/1/4 456/1/4
f 450/6/4 451/6/4 457/6/4
f 456/5/4 450/5/4 457/5/4
f 457/6/4 451/6/4 458/6/4
f 459/10/4 460/10/4 461/10/4
f 459/10/4 461/10/4 464/10/4
f 464/10/4 461/10/4 465/10/4
f 465/10/4 461/10/4 466/10/4
f 462/1/4 463/1/4 467/1/4
f 463/10/4 464/10/4 468/10/4
f 467/1/4 463/1/4 468/1/4
f 464/10/4 465/10/4 468/10/4
f 468/10/4 465/10/4 469/10/4
f 470/4/4 471/4/4 472/4/4
f 470/4/4 472/4/4 474/4/4
f 472/4/4 473/4/4 474/4/4
f 474/4/4 473/4/4 475/4/4
f 475/4/4 473/4/4 476/4/4
f 476/4/4 477/4/4 478/4/4
f 475/4/4 476/4/4 478/4/4
f 478/4/4 477/4/4 479/4/4
f 479/4/4 477/4/4 480/4/4
f 481/3/4 482/3/4 488/3/4
f 488/3/4 482/3/4 489/3/4
f 489/3/4 490/3/4 491/3/4
f 491/3/4 490/3/4 492/3/4
f 483/6/4 484/6/4 495/6/4
f 484/10/4 485/10/4 496/10/4
f 495/6/4 484/6/4 496/6/4
f 496/10/4 485/10/4 497/10/4
f 486/1/4 487/1/4 498/1/4
f 498/1/4 487/1/4 499/1/4
f 493/3/4 494/3/4 501/3/4
f 501/3/4 494/3/4 502/3/4
f 500/3/4 501/3/4 506/3/4
f 506/3/4 501/3/4 507/3/4
f 504/4/4 505/4/4 509/4/4
f 503/4/4 504/4/4 509/4/4
f 509/4/4 505/4/4 510/4/4
f 510/4/4 505/4/4 511/4/4
f 508/4/4 509/4/4 512/4/4
f 509/4/4 510/4/4 512/4/4
f 512/4/4 510/4/4 513/4/4
f 508/4/4 512/4/4 514/4/4
f 514/4/4 512/4/4 515/4/4
f 517/3/4 518/3/4 519/3/4
f 519/3/4 520/3/4 521/3/4
f 519/3/4 521/3/4 523/3/4
f 521/3/4 522/3/4 523/3/4
f 523/3/4 522/3/4 524/3/4
f 517/3/4 519/3/4 525/3/4
f 519/3/4 523/3/4 525/3/4
f 525/3/4 523/3/4 526/3/4
f 516/4/4 517/4/4 527/4/4
f 517/3/4 525/3/4 528/3/4
f 527/4/4 517/4/4 528/4/4
f 528/3/4 525/3/4 529/3/4
f 532/6/5 531/6/5 530/6/5
f 533/6/5 531/6/5 532/6/5
f 536/6/5 535/6/5 534/6/5
f 537/6/5 535/6/5 536/6/5
f 540/6/5 539/6/5 538/6/5
f 541/6/5 539/6/5 540/6/5
f 544/6/5 543/6/5 542/6/5
f 545/6/5 543/6/5 544/6/5
f 547/6/5 544/6/5 542/6/5
f 548/6/5 544/6/5 547/6/5
f 550/6/5 547/6/5 546/6/5
f 550/6/5 549/6/5 548/6/5
f 550/6/5 548/6/5 547/6/5
f 551/6/5 549/6/5 550/6/5
f 556/1/5 553/1/5 552/1/5
f 557/1/5 553/1/5 556/1/5
f 558/1/5 555/1/5 554/1/5
f 559/1/5 555/1/5 558/1/5
f 564/10/5 561/10/5 560/10/5
f 565/10/5 561/10/5 564/10/5
f 566/10/5 563/10/5 562/10/5
f 567/10/5 563/10/5 566/10/5
f 572/4/5 569/4/5 568/4/5
f 573/4/5 569/4/5 572/4/5
f 574/4/5 571/4/5 570/4/5
f 575/4/5 571/4/5 574/4/5
f 580/4/5 577/4/5 576/4/5
f 581/4/5 577/4/5 580/4/5
f 582/4/5 579/4/5 578/4/5
f 583/4/5 579/4/5 582/4/5
f 586/1/5 585/1/5 584/1/5
f 587/1/5 585/1/5 586/1/5
f 588/1/5 586/1/5 584/1/5
f 589/1/5 585/1/5 587/1/5
f 590/1/5 588/1/5 584/1/5
f 590/1/5 589/1/5 588/1/5
f 591/1/5 585/1/5 589/1/5
f 591/1/5 589/1/5 590/1/5
f 596/4/5 593/4/5 592/4/5
f 597/4/5 593/4/5 596/4/5
f 598/4/5 595/4/5 594/4/5
f 599/4/5 595/4/5 598/4/5
f 600/2/5 597/2/5 596/2/5
f 601/2/5 597/2/5 600/2/5
f 602/2/5 599/2/5 598/2/5
f 603/2/5 599/2/5 602/2/5
f 604/4/5 601/4/5 600/4/5
f 605/4/5 601/4/5 604/4/5
f 606/4/5 603/4/5 602/4/5
f 607/4/5 603/4/5 606/4/5
f 608/4/5 605/4/5 604/4/5
f 608/4/5 606/4/5 605/4/5
f 608/4/5 607/4/5 606/4/5
f 609/4/5 607/4/5 608/4/5
f 615/4/5 611/4/5 610/4/5
f 616/4/5 611/4/5 615/4/5
f 617/4/5 611/4/5 616/4/5
f 618/4/5 613/4/5 612/4/5
f 619/4/5 613/4/5 618/4/5
f 620/4/5 613/4/5 619/4/5
f 621/4/5 615/4/5 614/4/5
f 622/4/5 615/4/5 621/4/5
f 629/4/5 624/4/5 623/4/5
f 630/4/5 624/4/5 629/4/5
f 631/4/5 626/4/5 625/4/5
f 632/4/5 626/4/5 631/4/5
f 633/4/5 628/4/5 627/4/5
f 634/4/5 628/4/5 633/4/5
f 635/4/5 628/4/5 634/4/5
f 639/3/5 637/3/5 636/3/5
f 640/3/5 637/3/5 639/3/5
f 642/3/5 639/3/5 638/3/5
f 642/3/5 641/3/5 640/3/5
f 642/3/5 640/3/5 639/3/5
f 643/3/5 641/3/5 642/3/5
f 644/6/6 645/6/6 646/6/6
f 646/6/6 645/6/6 647/6/6
f 648/6/6 649/6/6 650/6/6
f 650/6/6 649/6/6 651/6/6
f 652/6/6 653/6/6 654/6/6
f 654/6/6 653/6/6 655/6/6
f 656/10/6 657/10/6 659/10/6
f 659/10/6 657/10/6 660/10/6
f 660/10/6 657/10/6 661/10/6
f 661/10/6 657/10/6 662/10/6
f 658/10/6 659/10/6 664/10/6
f 659/10/6 660/10/6 664/10/6
f 664/10/6 660/10/6 665/10/6
f 662/10/6 663/10/6 666/10/6
f 661/10/6 662/10/6 666/10/6
f 666/10/6 663/10/6 667/10/6
f 665/10/6 660/10/6 668/10/6
f 668/10/6 660/10/6 669/10/6
f 669/10/6 660/10/6 670/10/6
f 661/10/6 666/10/6 671/10/6
f 671/10/6 666/10/6 672/10/6
f 672/10/6 666/10/6 673/10/6
f 669/10/6 670/10/6 674/10/6
f 671/10/6 672/10/6 674/10/6
f 670/10/6 671/10/6 674/10/6
f 674/10/6 672/10/6 675/10/6
f 676/4/6 677/4/6 680/4/6
f 680/4/6 677/4/6 681/4/6
f 678/4/6 679/4/6 682/4/6
f 682/4/6 679/4/6 683/4/6
f 684/4/6 685/4/6 688/4/6
f 688/4/6 685/4/6 689/4/6
f 686/4/6 687/4/6 690/4/6
f 690/4/6 687/4/6 691/4/6
f 692/4/6 693/4/6 696/4/6
f 696/4/6 693/4/6 697/4/6
f 694/4/6 695/4/6 698/4/6
f 698/4/6 695/4/6 699/4/6
f 700/3/6 701/3/6 703/3/6
f 703/3/6 701/3/6 704/3/6
f 702/3/6 703/3/6 706/3/6
f 704/3/6 705/3/6 706/3/6
f 703/3/6 704/3/6 706/3/6
f 706/3/6 705/3/6 707/3/6
f 708/3/6 709/3/6 712/3/6
f 712/3/6 709/3/6 713/3/6
f 710/3/6 711/3/6 714/3/6
f 714/3/6 711/3/6 715/3/6
f 716/3/6 717/3/6 720/3/6
f 720/3/6 717/3/6 721/3/6
f 718/3/6 719/3/6 722/3/6
f 722/3/6 719/3/6 723/3/6
f 724/3/6 725/3/6 727/3/6
f 727/3/6 725/3/6 728/3/6
f 726/3/6 727/3/6 730/3/6
f 730/3/6 727/3/6 731/3/6
f 728/3/6 729/3/6 734/3/6
f 734/3/6 729/3/6 735/3/6
f 731/3/6 732/3/6 736/3/6
f 736/3/6 732/3/6 737/3/6
f 733/3/6 734/3/6 738/3/6
f 738/3/6 734/3/6 739/3/6
f 740/3/6 741/3/6 742/3/6
f 742/3/6 741/3/6 743/3/6
f 743/3/6 741/3/6 744/3/6
f 744/3/6 741/3/6 745/3/6
f 743/3/6 744/3/6 746/3/6
f 746/3/6 744/3/6 747/3/6
