# MagicaVoxel @ Ephtracy

# group
o 

# material
mtllib Character-6.mtl
usemtl palette

# normals
vn -1 0 0
vn 1 0 0
vn 0 0 1
vn 0 0 -1
vn 0 -1 0
vn 0 1 0

# texcoords
vt 0.0371094 0.5
vt 0.0488281 0.5
vt 0.259766 0.5
vt 0.478516 0.5
vt 0.521484 0.5
vt 0.541016 0.5
vt 0.548828 0.5
vt 0.552734 0.5
vt 0.681641 0.5
vt 0.904297 0.5
vt 0.974609 0.5

# verts
v -2.9 0.6 8.4
v -2.9 0.6 8.2
v -2.9 1.4 8.4
v -2.9 1.4 8.2
v -2.8 1.5 8.3
v -2.8 1.5 8
v -2.8 1.6 8.5
v -2.8 1.6 8.4
v -2.8 1.6 8.3
v -2.8 1.9 8.6
v -2.8 1.9 8.5
v -2.8 1.9 8.4
v -2.8 1.9 8.3
v -2.8 2 8.5
v -2.8 2 8.4
v -2.8 2 8.3
v -2.8 2 8.2
v -2.8 2.1 8.6
v -2.8 2.1 8.5
v -2.8 2.1 8.4
v -2.8 2.1 8.3
v -2.8 2.1 8.2
v -2.8 2.2 8.6
v -2.8 2.2 8.5
v -2.8 2.2 8.4
v -2.8 2.2 8.3
v -2.8 2.2 8.1
v -2.8 2.2 8
v -2.8 2.3 8.6
v -2.8 2.3 8.5
v -2.8 2.3 8.4
v -2.8 2.3 8.1
v -2.8 2.4 8.6
v -2.8 2.4 8.5
v -2.7 0 8.5
v -2.7 0 8.2
v -2.7 0.1 8.5
v -2.7 0.1 8.4
v -2.7 0.1 8.2
v -2.7 0.5 8.4
v -2.7 0.5 8.2
v -2.7 0.6 8.4
v -2.7 0.6 8.2
v -2.7 0.7 8.5
v -2.7 0.7 8.4
v -2.7 0.7 8.2
v -2.7 0.7 8.1
v -2.7 0.9 8.5
v -2.7 0.9 8.4
v -2.7 0.9 8.2
v -2.7 0.9 8.1
v -2.7 1 8.5
v -2.7 1 8.4
v -2.7 1 8.2
v -2.7 1 8.1
v -2.7 1.3 8.5
v -2.7 1.3 8.4
v -2.7 1.3 8.2
v -2.7 1.3 8.1
v -2.7 1.4 8.5
v -2.7 1.4 8.4
v -2.7 1.4 8.2
v -2.7 1.4 8.1
v -2.7 1.5 8.6
v -2.7 1.5 8.3
v -2.7 1.6 8.6
v -2.7 1.6 8.5
v -2.7 1.6 8.4
v -2.7 1.6 8.3
v -2.7 1.8 8.6
v -2.7 1.8 8.5
v -2.7 1.9 8.7
v -2.7 1.9 8.6
v -2.7 1.9 8.5
v -2.7 2.1 8.6
v -2.7 2.2 8.6
v -2.7 2.2 8.1
v -2.7 2.2 8
v -2.7 2.3 8.7
v -2.7 2.3 8.6
v -2.7 2.3 8.5
v -2.7 2.3 8.4
v -2.7 2.3 8.1
v -2.7 2.3 8
v -2.7 2.4 8.7
v -2.7 2.4 8.6
v -2.7 2.4 8.5
v -2.7 2.4 8.1
v -2.6 2.1 8
v -2.6 2.1 7.9
v -2.6 2.3 8.1
v -2.6 2.3 8
v -2.6 2.3 7.9
v -2.6 2.3 7.8
v -2.6 2.4 8.2
v -2.6 2.4 8.1
v -2.6 2.5 8.2
v -2.6 2.5 8.1
v -2.6 2.6 8.1
v -2.6 2.6 7.8
v -2.5 1.4 8.4
v -2.5 1.4 8.2
v -2.5 1.5 8.4
v -2.5 1.5 8.2
v -2.4 2 8.7
v -2.4 2 8.6
v -2.4 2.2 8.7
v -2.4 2.2 8.6
v -2.3 0 8.5
v -2.3 0 8.2
v -2.3 0.1 8.5
v -2.3 0.1 8.4
v -2.3 0.1 8.2
v -2.3 0.5 8.4
v -2.3 0.5 8.2
v -2.3 0.7 8.4
v -2.3 0.7 8.2
v -2.3 1.9 8.7
v -2.3 1.9 8.6
v -2.3 2 8.7
v -2.3 2 8.6
v -2.6 2 8.7
v -2.6 2 8.6
v -2.6 2.1 8.7
v -2.6 2.1 8.6
v -2.5 0 8.5
v -2.5 0 8.2
v -2.5 0.1 8.5
v -2.5 0.1 8.4
v -2.5 0.1 8.2
v -2.5 0.5 8.4
v -2.5 0.5 8.2
v -2.5 0.7 8.4
v -2.5 0.7 8.2
v -2.5 1.9 8.7
v -2.5 1.9 8.6
v -2.5 2 8.7
v -2.5 2 8.6
v -2.5 2.1 8.7
v -2.5 2.1 8.6
v -2.5 2.2 8.7
v -2.5 2.2 8.6
v -2.3 1.4 8.4
v -2.3 1.4 8.2
v -2.3 1.5 8.4
v -2.3 1.5 8.2
v -2.2 2.1 8
v -2.2 2.1 7.9
v -2.2 2.3 8.1
v -2.2 2.3 8
v -2.2 2.3 7.9
v -2.2 2.3 7.8
v -2.2 2.4 8.2
v -2.2 2.4 8.1
v -2.2 2.5 8.2
v -2.2 2.5 8.1
v -2.2 2.6 8.1
v -2.2 2.6 7.8
v -2.1 0 8.5
v -2.1 0 8.2
v -2.1 0.1 8.5
v -2.1 0.1 8.4
v -2.1 0.1 8.2
v -2.1 0.5 8.4
v -2.1 0.5 8.2
v -2.1 0.6 8.4
v -2.1 0.6 8.2
v -2.1 0.7 8.5
v -2.1 0.7 8.4
v -2.1 0.7 8.2
v -2.1 0.7 8.1
v -2.1 0.9 8.5
v -2.1 0.9 8.4
v -2.1 0.9 8.2
v -2.1 0.9 8.1
v -2.1 1 8.5
v -2.1 1 8.4
v -2.1 1 8.2
v -2.1 1 8.1
v -2.1 1.3 8.5
v -2.1 1.3 8.4
v -2.1 1.3 8.2
v -2.1 1.3 8.1
v -2.1 1.4 8.5
v -2.1 1.4 8.4
v -2.1 1.4 8.2
v -2.1 1.4 8.1
v -2.1 1.5 8.6
v -2.1 1.5 8.3
v -2.1 1.6 8.6
v -2.1 1.6 8.5
v -2.1 1.6 8.4
v -2.1 1.6 8.3
v -2.1 1.8 8.6
v -2.1 1.8 8.5
v -2.1 1.9 8.7
v -2.1 1.9 8.6
v -2.1 2 8.7
v -2.1 2 8.6
v -2.1 2 8.5
v -2.1 2.2 8.1
v -2.1 2.2 8
v -2.1 2.3 8.7
v -2.1 2.3 8.6
v -2.1 2.3 8.5
v -2.1 2.3 8.4
v -2.1 2.3 8.1
v -2.1 2.3 8
v -2.1 2.4 8.7
v -2.1 2.4 8.6
v -2.1 2.4 8.5
v -2.1 2.4 8.1
v -2 1.5 8.3
v -2 1.5 8
v -2 1.6 8.5
v -2 1.6 8.4
v -2 1.6 8.3
v -2 1.9 8.4
v -2 1.9 8.3
v -2 2 8.7
v -2 2 8.5
v -2 2 8.4
v -2 2 8.3
v -2 2 8.2
v -2 2.1 8.6
v -2 2.1 8.5
v -2 2.1 8.4
v -2 2.1 8.3
v -2 2.1 8.2
v -2 2.2 8.7
v -2 2.2 8.6
v -2 2.2 8.5
v -2 2.2 8.4
v -2 2.2 8.3
v -2 2.2 8.1
v -2 2.2 8
v -2 2.3 8.7
v -2 2.3 8.6
v -2 2.3 8.5
v -2 2.3 8.4
v -2 2.3 8.1
v -2 2.4 8.6
v -2 2.4 8.5
v -1.9 0.6 8.4
v -1.9 0.6 8.2
v -1.9 1.4 8.4
v -1.9 1.4 8.2
v -2.7 1.9 8.7
v -2.7 2.3 8.7
v -2.7 2.4 8.7
v -2.6 2 8.7
v -2.6 2.1 8.7
v -2.6 2.2 8.7
v -2.6 2.3 8.7
v -2.6 2.4 8.7
v -2.5 1.9 8.7
v -2.5 2 8.7
v -2.5 2.1 8.7
v -2.5 2.2 8.7
v -2.5 2.3 8.7
v -2.5 2.4 8.7
v -2.4 2 8.7
v -2.4 2.2 8.7
v -2.3 1.9 8.7
v -2.3 2 8.7
v -2.3 2.2 8.7
v -2.3 2.3 8.7
v -2.3 2.4 8.7
v -2.2 2.2 8.7
v -2.2 2.3 8.7
v -2.2 2.4 8.7
v -2.1 1.9 8.7
v -2.1 2 8.7
v -2.1 2.2 8.7
v -2.1 2.3 8.7
v -2.1 2.4 8.7
v -2 2 8.7
v -2 2.2 8.7
v -2 2.3 8.7
v -2.8 1.9 8.6
v -2.8 2.1 8.6
v -2.8 2.2 8.6
v -2.8 2.3 8.6
v -2.8 2.4 8.6
v -2.7 1.5 8.6
v -2.7 1.6 8.6
v -2.7 1.8 8.6
v -2.7 1.9 8.6
v -2.7 2.1 8.6
v -2.7 2.2 8.6
v -2.7 2.3 8.6
v -2.7 2.4 8.6
v -2.6 1.6 8.6
v -2.6 1.8 8.6
v -2.6 1.9 8.6
v -2.6 2 8.6
v -2.6 2.1 8.6
v -2.5 1.5 8.6
v -2.5 1.6 8.6
v -2.5 1.8 8.6
v -2.5 1.9 8.6
v -2.5 2 8.6
v -2.5 2.1 8.6
v -2.5 2.2 8.6
v -2.4 2 8.6
v -2.4 2.2 8.6
v -2.3 1.5 8.6
v -2.3 1.6 8.6
v -2.3 1.8 8.6
v -2.3 1.9 8.6
v -2.3 2 8.6
v -2.2 1.6 8.6
v -2.2 1.8 8.6
v -2.2 1.9 8.6
v -2.1 1.5 8.6
v -2.1 1.6 8.6
v -2.1 1.8 8.6
v -2.1 1.9 8.6
v -2.1 2.3 8.6
v -2.1 2.4 8.6
v -2 2.3 8.6
v -2 2.4 8.6
v -2.8 1.6 8.5
v -2.8 1.9 8.5
v -2.7 0 8.5
v -2.7 0.1 8.5
v -2.7 0.7 8.5
v -2.7 0.9 8.5
v -2.7 1 8.5
v -2.7 1.3 8.5
v -2.7 1.4 8.5
v -2.7 1.6 8.5
v -2.7 1.8 8.5
v -2.7 1.9 8.5
v -2.5 0 8.5
v -2.5 0.1 8.5
v -2.3 0 8.5
v -2.3 0.1 8.5
v -2.1 0 8.5
v -2.1 0.1 8.5
v -2.1 0.7 8.5
v -2.1 0.9 8.5
v -2.1 1 8.5
v -2.1 1.3 8.5
v -2.1 1.4 8.5
v -2.1 1.6 8.5
v -2.1 1.8 8.5
v -2.1 2 8.5
v -2 1.6 8.5
v -2 2 8.5
v -2.9 0.6 8.4
v -2.9 1.4 8.4
v -2.7 0.1 8.4
v -2.7 0.5 8.4
v -2.7 0.6 8.4
v -2.7 0.7 8.4
v -2.7 0.9 8.4
v -2.7 1 8.4
v -2.7 1.3 8.4
v -2.7 1.4 8.4
v -2.5 0.1 8.4
v -2.5 0.5 8.4
v -2.5 0.7 8.4
v -2.5 1.4 8.4
v -2.5 1.5 8.4
v -2.3 0.1 8.4
v -2.3 0.5 8.4
v -2.3 0.7 8.4
v -2.3 1.4 8.4
v -2.3 1.5 8.4
v -2.1 0.1 8.4
v -2.1 0.5 8.4
v -2.1 0.6 8.4
v -2.1 0.7 8.4
v -2.1 0.9 8.4
v -2.1 1 8.4
v -2.1 1.3 8.4
v -2.1 1.4 8.4
v -1.9 0.6 8.4
v -1.9 1.4 8.4
v -2.8 1.5 8.3
v -2.8 1.6 8.3
v -2.7 1.5 8.3
v -2.7 1.6 8.3
v -2.1 1.5 8.3
v -2.1 1.6 8.3
v -2 1.5 8.3
v -2 1.6 8.3
v -2.6 2.4 8.2
v -2.6 2.5 8.2
v -2.2 2.4 8.2
v -2.2 2.5 8.2
v -2.6 2.5 8.1
v -2.6 2.6 8.1
v -2.2 2.5 8.1
v -2.2 2.6 8.1
v -2.8 2.3 8.5
v -2.8 2.4 8.5
v -2.7 2.3 8.5
v -2.7 2.4 8.5
v -2.1 2.3 8.5
v -2.1 2.4 8.5
v -2 2.3 8.5
v -2 2.4 8.5
v -2.9 0.6 8.2
v -2.9 1.4 8.2
v -2.7 0 8.2
v -2.7 0.1 8.2
v -2.7 0.5 8.2
v -2.7 0.6 8.2
v -2.7 0.7 8.2
v -2.7 0.9 8.2
v -2.7 1 8.2
v -2.7 1.3 8.2
v -2.7 1.4 8.2
v -2.5 0 8.2
v -2.5 0.1 8.2
v -2.5 0.5 8.2
v -2.5 0.7 8.2
v -2.5 1.4 8.2
v -2.5 1.5 8.2
v -2.3 0 8.2
v -2.3 0.1 8.2
v -2.3 0.5 8.2
v -2.3 0.7 8.2
v -2.3 1.4 8.2
v -2.3 1.5 8.2
v -2.1 0 8.2
v -2.1 0.1 8.2
v -2.1 0.5 8.2
v -2.1 0.6 8.2
v -2.1 0.7 8.2
v -2.1 0.9 8.2
v -2.1 1 8.2
v -2.1 1.3 8.2
v -2.1 1.4 8.2
v -1.9 0.6 8.2
v -1.9 1.4 8.2
v -2.8 2.2 8.1
v -2.8 2.3 8.1
v -2.7 0.7 8.1
v -2.7 0.9 8.1
v -2.7 1 8.1
v -2.7 1.3 8.1
v -2.7 1.4 8.1
v -2.7 2.2 8.1
v -2.7 2.3 8.1
v -2.7 2.4 8.1
v -2.6 2.3 8.1
v -2.6 2.4 8.1
v -2.2 2.3 8.1
v -2.2 2.4 8.1
v -2.1 0.7 8.1
v -2.1 0.9 8.1
v -2.1 1 8.1
v -2.1 1.3 8.1
v -2.1 1.4 8.1
v -2.1 2.2 8.1
v -2.1 2.3 8.1
v -2.1 2.4 8.1
v -2 2.2 8.1
v -2 2.3 8.1
v -2.8 1.5 8
v -2.8 2.2 8
v -2.7 2.2 8
v -2.7 2.3 8
v -2.6 2.1 8
v -2.6 2.3 8
v -2.2 2.1 8
v -2.2 2.3 8
v -2.1 2.2 8
v -2.1 2.3 8
v -2 1.5 8
v -2 2.2 8
v -2.6 2.1 7.9
v -2.6 2.3 7.9
v -2.2 2.1 7.9
v -2.2 2.3 7.9
v -2.6 2.3 7.8
v -2.6 2.6 7.8
v -2.2 2.3 7.8
v -2.2 2.6 7.8
v -2.7 0 8.5
v -2.5 0 8.5
v -2.3 0 8.5
v -2.1 0 8.5
v -2.7 0 8.2
v -2.5 0 8.2
v -2.3 0 8.2
v -2.1 0 8.2
v -2.9 0.6 8.4
v -2.7 0.6 8.4
v -2.1 0.6 8.4
v -1.9 0.6 8.4
v -2.9 0.6 8.2
v -2.7 0.6 8.2
v -2.1 0.6 8.2
v -1.9 0.6 8.2
v -2.7 0.7 8.5
v -2.1 0.7 8.5
v -2.7 0.7 8.4
v -2.5 0.7 8.4
v -2.3 0.7 8.4
v -2.1 0.7 8.4
v -2.7 0.7 8.2
v -2.5 0.7 8.2
v -2.3 0.7 8.2
v -2.1 0.7 8.2
v -2.7 0.7 8.1
v -2.1 0.7 8.1
v -2.7 1.5 8.6
v -2.5 1.5 8.6
v -2.3 1.5 8.6
v -2.1 1.5 8.6
v -2.5 1.5 8.5
v -2.3 1.5 8.5
v -2.5 1.5 8.4
v -2.3 1.5 8.4
v -2.8 1.5 8.3
v -2.7 1.5 8.3
v -2.1 1.5 8.3
v -2 1.5 8.3
v -2.5 1.5 8.2
v -2.3 1.5 8.2
v -2.7 1.5 8.1
v -2.1 1.5 8.1
v -2.8 1.5 8
v -2 1.5 8
v -2.8 1.6 8.5
v -2.7 1.6 8.5
v -2.1 1.6 8.5
v -2 1.6 8.5
v -2.8 1.6 8.4
v -2.7 1.6 8.4
v -2.1 1.6 8.4
v -2 1.6 8.4
v -2.8 1.6 8.3
v -2.7 1.6 8.3
v -2.1 1.6 8.3
v -2 1.6 8.3
v -2.7 1.9 8.7
v -2.5 1.9 8.7
v -2.3 1.9 8.7
v -2.1 1.9 8.7
v -2.8 1.9 8.6
v -2.7 1.9 8.6
v -2.6 1.9 8.6
v -2.5 1.9 8.6
v -2.3 1.9 8.6
v -2.2 1.9 8.6
v -2.1 1.9 8.6
v -2.8 1.9 8.5
v -2.7 1.9 8.5
v -2.4 2 8.7
v -2.3 2 8.7
v -2.1 2 8.7
v -2 2 8.7
v -2.4 2 8.6
v -2.3 2 8.6
v -2.1 2 8.6
v -2.1 2 8.5
v -2 2 8.5
v -2.6 2.1 8.7
v -2.5 2.1 8.7
v -2.6 2.1 8.6
v -2.5 2.1 8.6
v -2.6 2.1 8
v -2.2 2.1 8
v -2.6 2.1 7.9
v -2.2 2.1 7.9
v -2.5 2.2 8.7
v -2.4 2.2 8.7
v -2.5 2.2 8.6
v -2.4 2.2 8.6
v -2.6 2.3 7.9
v -2.2 2.3 7.9
v -2.6 2.3 7.8
v -2.2 2.3 7.8
v -2.7 0.1 8.5
v -2.5 0.1 8.5
v -2.3 0.1 8.5
v -2.1 0.1 8.5
v -2.7 0.1 8.4
v -2.5 0.1 8.4
v -2.3 0.1 8.4
v -2.1 0.1 8.4
v -2.7 1.4 8.5
v -2.1 1.4 8.5
v -2.9 1.4 8.4
v -2.7 1.4 8.4
v -2.5 1.4 8.4
v -2.3 1.4 8.4
v -2.1 1.4 8.4
v -1.9 1.4 8.4
v -2.9 1.4 8.2
v -2.7 1.4 8.2
v -2.5 1.4 8.2
v -2.3 1.4 8.2
v -2.1 1.4 8.2
v -1.9 1.4 8.2
v -2.7 1.4 8.1
v -2.1 1.4 8.1
v -2.6 2 8.7
v -2.5 2 8.7
v -2.6 2 8.6
v -2.5 2 8.6
v -2.8 2.2 8.1
v -2.7 2.2 8.1
v -2.1 2.2 8.1
v -2 2.2 8.1
v -2.8 2.2 8
v -2.7 2.2 8
v -2.1 2.2 8
v -2 2.2 8
v -2.1 2.3 8.7
v -2 2.3 8.7
v -2.1 2.3 8.6
v -2 2.3 8.6
v -2.8 2.3 8.5
v -2.7 2.3 8.5
v -2.1 2.3 8.5
v -2 2.3 8.5
v -2.8 2.3 8.4
v -2.7 2.3 8.4
v -2.1 2.3 8.4
v -2 2.3 8.4
v -2.8 2.3 8.1
v -2.7 2.3 8.1
v -2.6 2.3 8.1
v -2.2 2.3 8.1
v -2.1 2.3 8.1
v -2 2.3 8.1
v -2.7 2.3 8
v -2.6 2.3 8
v -2.2 2.3 8
v -2.1 2.3 8
v -2.7 2.4 8.7
v -2.6 2.4 8.7
v -2.5 2.4 8.7
v -2.3 2.4 8.7
v -2.2 2.4 8.7
v -2.1 2.4 8.7
v -2.8 2.4 8.6
v -2.7 2.4 8.6
v -2.6 2.4 8.6
v -2.5 2.4 8.6
v -2.3 2.4 8.6
v -2.2 2.4 8.6
v -2.1 2.4 8.6
v -2 2.4 8.6
v -2.8 2.4 8.5
v -2.7 2.4 8.5
v -2.6 2.4 8.5
v -2.5 2.4 8.5
v -2.3 2.4 8.5
v -2.2 2.4 8.5
v -2.1 2.4 8.5
v -2 2.4 8.5
v -2.6 2.4 8.2
v -2.2 2.4 8.2
v -2.7 2.4 8.1
v -2.6 2.4 8.1
v -2.2 2.4 8.1
v -2.1 2.4 8.1
v -2.6 2.5 8.2
v -2.2 2.5 8.2
v -2.6 2.5 8.1
v -2.2 2.5 8.1
v -2.6 2.6 8.1
v -2.2 2.6 8.1
v -2.6 2.6 7.8
v -2.2 2.6 7.8

# faces
f 3/1/1 2/1/1 1/1/1
f 4/1/1 2/1/1 3/1/1
f 9/4/1 6/4/1 5/4/1
f 11/4/1 8/4/1 7/4/1
f 12/2/1 9/2/1 8/2/1
f 12/4/1 8/4/1 11/4/1
f 13/4/1 6/4/1 9/4/1
f 13/2/1 9/2/1 12/2/1
f 14/4/1 11/4/1 10/4/1
f 14/4/1 12/4/1 11/4/1
f 15/11/1 13/11/1 12/11/1
f 15/4/1 12/4/1 14/4/1
f 16/4/1 6/4/1 13/4/1
f 16/11/1 13/11/1 15/11/1
f 17/4/1 6/4/1 16/4/1
f 18/4/1 14/4/1 10/4/1
f 19/11/1 15/11/1 14/11/1
f 19/4/1 14/4/1 18/4/1
f 20/10/1 16/10/1 15/10/1
f 20/11/1 15/11/1 19/11/1
f 21/11/1 17/11/1 16/11/1
f 21/10/1 16/10/1 20/10/1
f 22/4/1 6/4/1 17/4/1
f 22/11/1 17/11/1 21/11/1
f 23/11/1 19/11/1 18/11/1
f 24/4/1 20/4/1 19/4/1
f 24/11/1 19/11/1 23/11/1
f 25/11/1 21/11/1 20/11/1
f 25/4/1 20/4/1 24/4/1
f 26/4/1 22/4/1 21/4/1
f 26/11/1 21/11/1 25/11/1
f 27/4/1 6/4/1 22/4/1
f 27/4/1 22/4/1 26/4/1
f 28/4/1 6/4/1 27/4/1
f 29/10/1 24/10/1 23/10/1
f 30/11/1 25/11/1 24/11/1
f 30/10/1 24/10/1 29/10/1
f 31/4/1 26/4/1 25/4/1
f 31/11/1 25/11/1 30/11/1
f 31/4/1 27/4/1 26/4/1
f 32/4/1 27/4/1 31/4/1
f 33/11/1 30/11/1 29/11/1
f 34/11/1 30/11/1 33/11/1
f 37/8/1 36/8/1 35/8/1
f 38/8/1 36/8/1 37/8/1
f 39/8/1 36/8/1 38/8/1
f 40/1/1 39/1/1 38/1/1
f 41/1/1 39/1/1 40/1/1
f 42/3/1 41/3/1 40/3/1
f 43/3/1 41/3/1 42/3/1
f 48/3/1 45/3/1 44/3/1
f 49/3/1 45/3/1 48/3/1
f 50/3/1 47/3/1 46/3/1
f 51/3/1 47/3/1 50/3/1
f 52/1/1 49/1/1 48/1/1
f 53/1/1 49/1/1 52/1/1
f 54/1/1 51/1/1 50/1/1
f 55/1/1 51/1/1 54/1/1
f 56/11/1 53/11/1 52/11/1
f 57/11/1 53/11/1 56/11/1
f 58/11/1 55/11/1 54/11/1
f 59/11/1 55/11/1 58/11/1
f 60/1/1 57/1/1 56/1/1
f 61/1/1 57/1/1 60/1/1
f 62/1/1 59/1/1 58/1/1
f 63/1/1 59/1/1 62/1/1
f 66/1/1 65/1/1 64/1/1
f 67/1/1 65/1/1 66/1/1
f 68/1/1 65/1/1 67/1/1
f 69/1/1 65/1/1 68/1/1
f 70/6/1 67/6/1 66/6/1
f 71/6/1 67/6/1 70/6/1
f 73/1/1 71/1/1 70/1/1
f 74/1/1 71/1/1 73/1/1
f 75/4/1 73/4/1 72/4/1
f 76/4/1 75/4/1 72/4/1
f 79/4/1 76/4/1 72/4/1
f 80/4/1 76/4/1 79/4/1
f 83/4/1 78/4/1 77/4/1
f 84/4/1 78/4/1 83/4/1
f 85/11/1 80/11/1 79/11/1
f 86/11/1 80/11/1 85/11/1
f 87/4/1 82/4/1 81/4/1
f 87/4/1 83/4/1 82/4/1
f 88/4/1 83/4/1 87/4/1
f 92/4/1 90/4/1 89/4/1
f 93/4/1 90/4/1 92/4/1
f 96/4/1 92/4/1 91/4/1
f 96/4/1 94/4/1 93/4/1
f 96/4/1 93/4/1 92/4/1
f 97/4/1 96/4/1 95/4/1
f 98/4/1 94/4/1 96/4/1
f 98/4/1 96/4/1 97/4/1
f 99/4/1 94/4/1 98/4/1
f 100/4/1 94/4/1 99/4/1
f 103/1/1 102/1/1 101/1/1
f 104/1/1 102/1/1 103/1/1
f 107/4/1 106/4/1 105/4/1
f 108/4/1 106/4/1 107/4/1
f 111/8/1 110/8/1 109/8/1
f 112/8/1 110/8/1 111/8/1
f 113/8/1 110/8/1 112/8/1
f 114/1/1 113/1/1 112/1/1
f 115/1/1 113/1/1 114/1/1
f 116/3/1 115/3/1 114/3/1
f 117/3/1 115/3/1 116/3/1
f 120/4/1 119/4/1 118/4/1
f 121/4/1 119/4/1 120/4/1
f 122/4/2 123/4/2 124/4/2
f 124/4/2 123/4/2 125/4/2
f 126/8/2 127/8/2 128/8/2
f 128/8/2 127/8/2 129/8/2
f 129/8/2 127/8/2 130/8/2
f 129/1/2 130/1/2 131/1/2
f 131/1/2 130/1/2 132/1/2
f 131/3/2 132/3/2 133/3/2
f 133/3/2 132/3/2 134/3/2
f 135/4/2 136/4/2 137/4/2
f 137/4/2 136/4/2 138/4/2
f 139/4/2 140/4/2 141/4/2
f 141/4/2 140/4/2 142/4/2
f 143/1/2 144/1/2 145/1/2
f 145/1/2 144/1/2 146/1/2
f 147/4/2 148/4/2 150/4/2
f 150/4/2 148/4/2 151/4/2
f 149/4/2 150/4/2 154/4/2
f 151/4/2 152/4/2 154/4/2
f 150/4/2 151/4/2 154/4/2
f 153/4/2 154/4/2 155/4/2
f 154/4/2 152/4/2 156/4/2
f 155/4/2 154/4/2 156/4/2
f 156/4/2 152/4/2 157/4/2
f 157/4/2 152/4/2 158/4/2
f 159/8/2 160/8/2 161/8/2
f 161/8/2 160/8/2 162/8/2
f 162/8/2 160/8/2 163/8/2
f 162/1/2 163/1/2 164/1/2
f 164/1/2 163/1/2 165/1/2
f 164/3/2 165/3/2 166/3/2
f 166/3/2 165/3/2 167/3/2
f 168/3/2 169/3/2 172/3/2
f 172/3/2 169/3/2 173/3/2
f 170/3/2 171/3/2 174/3/2
f 174/3/2 171/3/2 175/3/2
f 172/1/2 173/1/2 176/1/2
f 176/1/2 173/1/2 177/1/2
f 174/1/2 175/1/2 178/1/2
f 178/1/2 175/1/2 179/1/2
f 176/11/2 177/11/2 180/11/2
f 180/11/2 177/11/2 181/11/2
f 178/11/2 179/11/2 182/11/2
f 182/11/2 179/11/2 183/11/2
f 180/1/2 181/1/2 184/1/2
f 184/1/2 181/1/2 185/1/2
f 182/1/2 183/1/2 186/1/2
f 186/1/2 183/1/2 187/1/2
f 188/1/2 189/1/2 190/1/2
f 190/1/2 189/1/2 191/1/2
f 191/1/2 189/1/2 192/1/2
f 192/1/2 189/1/2 193/1/2
f 190/6/2 191/6/2 194/6/2
f 194/6/2 191/6/2 195/6/2
f 194/1/2 195/1/2 197/1/2
f 196/4/2 197/4/2 198/4/2
f 197/1/2 195/1/2 199/1/2
f 198/4/2 197/4/2 199/4/2
f 199/1/2 195/1/2 200/1/2
f 201/4/2 202/4/2 207/4/2
f 207/4/2 202/4/2 208/4/2
f 203/11/2 204/11/2 209/11/2
f 209/11/2 204/11/2 210/11/2
f 205/4/2 206/4/2 211/4/2
f 206/4/2 207/4/2 211/4/2
f 211/4/2 207/4/2 212/4/2
f 213/4/2 214/4/2 217/4/2
f 215/4/2 216/4/2 218/4/2
f 216/2/2 217/2/2 218/2/2
f 217/4/2 214/4/2 219/4/2
f 218/2/2 217/2/2 219/2/2
f 215/4/2 218/4/2 221/4/2
f 218/11/2 219/11/2 222/11/2
f 221/4/2 218/4/2 222/4/2
f 219/4/2 214/4/2 223/4/2
f 222/11/2 219/11/2 223/11/2
f 223/4/2 214/4/2 224/4/2
f 220/4/2 221/4/2 225/4/2
f 221/11/2 222/11/2 226/11/2
f 225/4/2 221/4/2 226/4/2
f 222/10/2 223/10/2 227/10/2
f 226/11/2 222/11/2 227/11/2
f 223/11/2 224/11/2 228/11/2
f 227/10/2 223/10/2 228/10/2
f 224/4/2 214/4/2 229/4/2
f 228/11/2 224/11/2 229/11/2
f 220/4/2 225/4/2 230/4/2
f 225/11/2 226/11/2 231/11/2
f 230/4/2 225/4/2 231/4/2
f 226/4/2 227/4/2 232/4/2
f 231/11/2 226/11/2 232/11/2
f 227/11/2 228/11/2 233/11/2
f 232/4/2 227/4/2 233/4/2
f 228/4/2 229/4/2 234/4/2
f 233/11/2 228/11/2 234/11/2
f 229/4/2 214/4/2 235/4/2
f 234/4/2 229/4/2 235/4/2
f 235/4/2 214/4/2 236/4/2
f 230/11/2 231/11/2 237/11/2
f 231/10/2 232/10/2 238/10/2
f 237/11/2 231/11/2 238/11/2
f 232/11/2 233/11/2 239/11/2
f 238/10/2 232/10/2 239/10/2
f 233/4/2 234/4/2 240/4/2
f 239/11/2 233/11/2 240/11/2
f 234/4/2 235/4/2 240/4/2
f 240/4/2 235/4/2 241/4/2
f 238/11/2 239/11/2 242/11/2
f 242/11/2 239/11/2 243/11/2
f 244/1/2 245/1/2 246/1/2
f 246/1/2 245/1/2 247/1/2
f 251/4/3 249/4/3 248/4/3
f 252/4/3 249/4/3 251/4/3
f 253/4/3 249/4/3 252/4/3
f 254/11/3 250/11/3 249/11/3
f 254/4/3 249/4/3 253/4/3
f 255/11/3 250/11/3 254/11/3
f 256/4/3 251/4/3 248/4/3
f 257/4/3 251/4/3 256/4/3
f 258/4/3 253/4/3 252/4/3
f 259/11/3 254/11/3 253/11/3
f 259/4/3 253/4/3 258/4/3
f 260/10/3 255/10/3 254/10/3
f 260/11/3 254/11/3 259/11/3
f 261/10/3 255/10/3 260/10/3
f 263/4/3 260/4/3 259/4/3
f 265/4/3 263/4/3 262/4/3
f 266/4/3 260/4/3 263/4/3
f 266/4/3 263/4/3 265/4/3
f 267/11/3 261/11/3 260/11/3
f 267/4/3 260/4/3 266/4/3
f 268/11/3 261/11/3 267/11/3
f 269/4/3 266/4/3 265/4/3
f 269/4/3 265/4/3 264/4/3
f 269/11/3 267/11/3 266/11/3
f 270/10/3 268/10/3 267/10/3
f 270/11/3 267/11/3 269/11/3
f 271/10/3 268/10/3 270/10/3
f 272/4/3 269/4/3 264/4/3
f 272/4/3 270/4/3 269/4/3
f 273/4/3 270/4/3 272/4/3
f 274/4/3 270/4/3 273/4/3
f 275/11/3 271/11/3 270/11/3
f 275/4/3 270/4/3 274/4/3
f 276/11/3 271/11/3 275/11/3
f 277/4/3 274/4/3 273/4/3
f 278/11/3 275/11/3 274/11/3
f 278/4/3 274/4/3 277/4/3
f 279/11/3 275/11/3 278/11/3
f 288/4/3 281/4/3 280/4/3
f 289/11/3 282/11/3 281/11/3
f 289/4/3 281/4/3 288/4/3
f 290/10/3 283/10/3 282/10/3
f 290/11/3 282/11/3 289/11/3
f 291/11/3 284/11/3 283/11/3
f 291/10/3 283/10/3 290/10/3
f 292/11/3 284/11/3 291/11/3
f 293/6/3 287/6/3 286/6/3
f 293/1/3 286/1/3 285/1/3
f 294/1/3 288/1/3 287/1/3
f 294/6/3 287/6/3 293/6/3
f 295/1/3 288/1/3 294/1/3
f 298/1/3 293/1/3 285/1/3
f 298/1/3 294/1/3 293/1/3
f 299/1/3 294/1/3 298/1/3
f 300/5/3 295/5/3 294/5/3
f 300/1/3 294/1/3 299/1/3
f 301/5/3 295/5/3 300/5/3
f 302/1/3 297/1/3 296/1/3
f 303/1/3 297/1/3 302/1/3
f 305/1/3 301/1/3 300/1/3
f 305/1/3 304/1/3 303/1/3
f 305/1/3 303/1/3 302/1/3
f 305/1/3 302/1/3 301/1/3
f 305/1/3 300/1/3 299/1/3
f 306/1/3 304/1/3 305/1/3
f 307/7/3 299/7/3 298/7/3
f 308/1/3 305/1/3 299/1/3
f 308/7/3 299/7/3 307/7/3
f 309/1/3 305/1/3 308/1/3
f 310/1/3 305/1/3 309/1/3
f 311/1/3 305/1/3 310/1/3
f 312/1/3 308/1/3 307/1/3
f 312/1/3 309/1/3 308/1/3
f 313/5/3 310/5/3 309/5/3
f 313/1/3 309/1/3 312/1/3
f 314/5/3 310/5/3 313/5/3
f 315/1/3 312/1/3 307/1/3
f 316/6/3 313/6/3 312/6/3
f 316/1/3 312/1/3 315/1/3
f 317/1/3 314/1/3 313/1/3
f 317/6/3 313/6/3 316/6/3
f 318/1/3 314/1/3 317/1/3
f 321/11/3 320/11/3 319/11/3
f 322/11/3 320/11/3 321/11/3
f 332/4/3 324/4/3 323/4/3
f 333/4/3 324/4/3 332/4/3
f 334/4/3 324/4/3 333/4/3
f 335/8/3 326/8/3 325/8/3
f 336/8/3 326/8/3 335/8/3
f 339/8/3 338/8/3 337/8/3
f 340/8/3 338/8/3 339/8/3
f 341/3/3 328/3/3 327/3/3
f 342/1/3 329/1/3 328/1/3
f 342/3/3 328/3/3 341/3/3
f 343/11/3 330/11/3 329/11/3
f 343/1/3 329/1/3 342/1/3
f 344/1/3 331/1/3 330/1/3
f 344/11/3 330/11/3 343/11/3
f 345/1/3 331/1/3 344/1/3
f 349/4/3 348/4/3 347/4/3
f 349/4/3 347/4/3 346/4/3
f 350/4/3 348/4/3 349/4/3
f 355/1/3 352/1/3 351/1/3
f 356/1/3 352/1/3 355/1/3
f 357/1/3 352/1/3 356/1/3
f 358/1/3 352/1/3 357/1/3
f 359/1/3 352/1/3 358/1/3
f 360/1/3 352/1/3 359/1/3
f 361/1/3 354/1/3 353/1/3
f 362/3/3 355/3/3 354/3/3
f 362/1/3 354/1/3 361/1/3
f 362/3/3 356/3/3 355/3/3
f 363/3/3 356/3/3 362/3/3
f 369/1/3 365/1/3 364/1/3
f 370/1/3 365/1/3 369/1/3
f 371/1/3 367/1/3 366/1/3
f 372/3/3 368/3/3 367/3/3
f 372/1/3 367/1/3 371/1/3
f 373/3/3 368/3/3 372/3/3
f 374/3/3 368/3/3 373/3/3
f 379/1/3 378/1/3 377/1/3
f 379/1/3 377/1/3 376/1/3
f 379/1/3 376/1/3 375/1/3
f 379/1/3 375/1/3 374/1/3
f 379/1/3 374/1/3 373/1/3
f 380/1/3 378/1/3 379/1/3
f 383/4/3 382/4/3 381/4/3
f 384/4/3 382/4/3 383/4/3
f 387/4/3 386/4/3 385/4/3
f 388/4/3 386/4/3 387/4/3
f 391/4/3 390/4/3 389/4/3
f 392/4/3 390/4/3 391/4/3
f 395/4/3 394/4/3 393/4/3
f 396/4/3 394/4/3 395/4/3
f 397/11/4 398/11/4 399/11/4
f 399/11/4 398/11/4 400/11/4
f 401/11/4 402/11/4 403/11/4
f 403/11/4 402/11/4 404/11/4
f 405/1/4 406/1/4 410/1/4
f 410/1/4 406/1/4 411/1/4
f 411/1/4 406/1/4 412/1/4
f 412/1/4 406/1/4 413/1/4
f 413/1/4 406/1/4 414/1/4
f 414/1/4 406/1/4 415/1/4
f 407/8/4 408/8/4 416/8/4
f 408/1/4 409/1/4 417/1/4
f 416/8/4 408/8/4 417/8/4
f 409/3/4 410/3/4 418/3/4
f 417/1/4 409/1/4 418/1/4
f 410/3/4 411/3/4 418/3/4
f 418/3/4 411/3/4 419/3/4
f 420/1/4 421/1/4 426/1/4
f 426/1/4 421/1/4 427/1/4
f 422/8/4 423/8/4 428/8/4
f 423/1/4 424/1/4 429/1/4
f 428/8/4 423/8/4 429/8/4
f 424/3/4 425/3/4 430/3/4
f 429/1/4 424/1/4 430/1/4
f 430/3/4 425/3/4 431/3/4
f 431/3/4 425/3/4 432/3/4
f 435/1/4 436/1/4 437/1/4
f 434/1/4 435/1/4 437/1/4
f 433/1/4 434/1/4 437/1/4
f 432/1/4 433/1/4 437/1/4
f 431/1/4 432/1/4 437/1/4
f 437/1/4 436/1/4 438/1/4
f 439/4/4 440/4/4 446/4/4
f 446/4/4 440/4/4 447/4/4
f 447/4/4 448/4/4 449/4/4
f 449/4/4 448/4/4 450/4/4
f 441/3/4 442/3/4 453/3/4
f 442/1/4 443/1/4 454/1/4
f 453/3/4 442/3/4 454/3/4
f 443/11/4 444/11/4 455/11/4
f 454/1/4 443/1/4 455/1/4
f 444/1/4 445/1/4 456/1/4
f 455/11/4 444/11/4 456/11/4
f 456/1/4 445/1/4 457/1/4
f 451/4/4 452/4/4 459/4/4
f 459/4/4 452/4/4 460/4/4
f 458/4/4 459/4/4 461/4/4
f 461/4/4 459/4/4 462/4/4
f 463/4/4 464/4/4 465/4/4
f 463/4/4 465/4/4 467/4/4
f 465/4/4 466/4/4 467/4/4
f 467/4/4 466/4/4 468/4/4
f 463/4/4 467/4/4 469/4/4
f 469/4/4 470/4/4 471/4/4
f 471/4/4 470/4/4 472/4/4
f 463/4/4 469/4/4 473/4/4
f 469/4/4 471/4/4 473/4/4
f 473/4/4 471/4/4 474/4/4
f 475/4/4 476/4/4 477/4/4
f 477/4/4 476/4/4 478/4/4
f 479/4/4 480/4/4 481/4/4
f 481/4/4 480/4/4 482/4/4
f 487/8/5 484/8/5 483/8/5
f 488/8/5 484/8/5 487/8/5
f 489/8/5 486/8/5 485/8/5
f 490/8/5 486/8/5 489/8/5
f 495/1/5 492/1/5 491/1/5
f 496/1/5 492/1/5 495/1/5
f 497/1/5 494/1/5 493/1/5
f 498/1/5 494/1/5 497/1/5
f 501/3/5 500/3/5 499/3/5
f 502/3/5 500/3/5 501/3/5
f 503/3/5 500/3/5 502/3/5
f 504/3/5 500/3/5 503/3/5
f 506/3/5 503/3/5 502/3/5
f 507/3/5 503/3/5 506/3/5
f 509/3/5 506/3/5 505/3/5
f 509/3/5 508/3/5 507/3/5
f 509/3/5 507/3/5 506/3/5
f 510/3/5 508/3/5 509/3/5
f 515/1/5 512/1/5 511/1/5
f 515/7/5 513/7/5 512/7/5
f 516/1/5 514/1/5 513/1/5
f 516/7/5 513/7/5 515/7/5
f 517/1/5 515/1/5 511/1/5
f 517/1/5 516/1/5 515/1/5
f 518/1/5 514/1/5 516/1/5
f 518/1/5 516/1/5 517/1/5
f 520/1/5 517/1/5 511/1/5
f 521/1/5 514/1/5 518/1/5
f 523/1/5 517/1/5 520/1/5
f 524/1/5 521/1/5 518/1/5
f 525/4/5 520/4/5 519/4/5
f 525/1/5 524/1/5 523/1/5
f 525/1/5 523/1/5 520/1/5
f 526/1/5 521/1/5 524/1/5
f 526/1/5 524/1/5 525/1/5
f 526/4/5 522/4/5 521/4/5
f 527/4/5 525/4/5 519/4/5
f 527/4/5 526/4/5 525/4/5
f 528/4/5 522/4/5 526/4/5
f 528/4/5 526/4/5 527/4/5
f 533/4/5 530/4/5 529/4/5
f 534/4/5 530/4/5 533/4/5
f 535/4/5 532/4/5 531/4/5
f 536/4/5 532/4/5 535/4/5
f 537/2/5 534/2/5 533/2/5
f 538/2/5 534/2/5 537/2/5
f 539/2/5 536/2/5 535/2/5
f 540/2/5 536/2/5 539/2/5
f 546/4/5 542/4/5 541/4/5
f 547/4/5 542/4/5 546/4/5
f 548/4/5 542/4/5 547/4/5
f 549/4/5 544/4/5 543/4/5
f 550/4/5 544/4/5 549/4/5
f 551/4/5 544/4/5 550/4/5
f 552/4/5 546/4/5 545/4/5
f 553/4/5 546/4/5 552/4/5
f 558/4/5 555/4/5 554/4/5
f 559/4/5 555/4/5 558/4/5
f 560/4/5 557/4/5 556/4/5
f 561/4/5 557/4/5 560/4/5
f 562/4/5 557/4/5 561/4/5
f 565/4/5 564/4/5 563/4/5
f 566/4/5 564/4/5 565/4/5
f 569/4/5 568/4/5 567/4/5
f 570/4/5 568/4/5 569/4/5
f 573/4/5 572/4/5 571/4/5
f 574/4/5 572/4/5 573/4/5
f 577/4/5 576/4/5 575/4/5
f 578/4/5 576/4/5 577/4/5
f 579/8/6 580/8/6 583/8/6
f 583/8/6 580/8/6 584/8/6
f 581/8/6 582/8/6 585/8/6
f 585/8/6 582/8/6 586/8/6
f 587/1/6 588/1/6 590/1/6
f 590/1/6 588/1/6 591/1/6
f 591/1/6 588/1/6 592/1/6
f 592/1/6 588/1/6 593/1/6
f 589/1/6 590/1/6 595/1/6
f 590/1/6 591/1/6 595/1/6
f 595/1/6 591/1/6 596/1/6
f 596/1/6 591/1/6 597/1/6
f 593/1/6 594/1/6 598/1/6
f 592/1/6 593/1/6 598/1/6
f 598/1/6 594/1/6 599/1/6
f 599/1/6 594/1/6 600/1/6
f 596/1/6 597/1/6 601/1/6
f 598/1/6 599/1/6 601/1/6
f 597/1/6 598/1/6 601/1/6
f 601/1/6 599/1/6 602/1/6
f 603/4/6 604/4/6 605/4/6
f 605/4/6 604/4/6 606/4/6
f 607/4/6 608/4/6 611/4/6
f 611/4/6 608/4/6 612/4/6
f 609/4/6 610/4/6 613/4/6
f 613/4/6 610/4/6 614/4/6
f 615/11/6 616/11/6 617/11/6
f 617/11/6 616/11/6 618/11/6
f 619/11/6 620/11/6 623/11/6
f 623/11/6 620/11/6 624/11/6
f 621/11/6 622/11/6 625/11/6
f 625/11/6 622/11/6 626/11/6
f 623/4/6 624/4/6 627/4/6
f 627/4/6 624/4/6 628/4/6
f 625/4/6 626/4/6 631/4/6
f 631/4/6 626/4/6 632/4/6
f 628/4/6 629/4/6 633/4/6
f 633/4/6 629/4/6 634/4/6
f 630/4/6 631/4/6 635/4/6
f 635/4/6 631/4/6 636/4/6
f 637/11/6 638/11/6 644/11/6
f 638/10/6 639/10/6 645/10/6
f 644/11/6 638/11/6 645/11/6
f 639/11/6 640/11/6 646/11/6
f 645/10/6 639/10/6 646/10/6
f 640/10/6 641/10/6 647/10/6
f 646/11/6 640/11/6 647/11/6
f 641/11/6 642/11/6 648/11/6
f 647/10/6 641/10/6 648/10/6
f 648/11/6 642/11/6 649/11/6
f 643/11/6 644/11/6 651/11/6
f 644/4/6 645/4/6 652/4/6
f 651/11/6 644/11/6 652/11/6
f 645/11/6 646/11/6 653/11/6
f 652/4/6 645/4/6 653/4/6
f 646/4/6 647/4/6 654/4/6
f 653/11/6 646/11/6 654/11/6
f 647/11/6 648/11/6 655/11/6
f 654/4/6 647/4/6 655/4/6
f 648/4/6 649/4/6 656/4/6
f 655/11/6 648/11/6 656/11/6
f 649/11/6 650/11/6 657/11/6
f 656/4/6 649/4/6 657/4/6
f 657/11/6 650/11/6 658/11/6
f 652/4/6 653/4/6 659/4/6
f 655/4/6 656/4/6 659/4/6
f 656/4/6 657/4/6 659/4/6
f 654/4/6 655/4/6 659/4/6
f 653/4/6 654/4/6 659/4/6
f 659/4/6 657/4/6 660/4/6
f 652/4/6 659/4/6 661/4/6
f 661/4/6 659/4/6 662/4/6
f 660/4/6 657/4/6 663/4/6
f 663/4/6 657/4/6 664/4/6
f 665/4/6 666/4/6 667/4/6
f 667/4/6 666/4/6 668/4/6
f 669/4/6 670/4/6 671/4/6
f 671/4/6 670/4/6 672/4/6
