# MagicaVoxel @ Ephtracy

# group
o 

# material
mtllib Character-28.mtl
usemtl palette

# normals
vn -1 0 0
vn 1 0 0
vn 0 0 1
vn 0 0 -1
vn 0 -1 0
vn 0 1 0

# texcoords
vt 0.408203 0.5
vt 0.416016 0.5
vt 0.447266 0.5
vt 0.458984 0.5
vt 0.486328 0.5
vt 0.525391 0.5
vt 0.892578 0.5
vt 0.958984 0.5
vt 0.966797 0.5
vt 0.982422 0.5

# verts
v 1.5 0.6 3.4
v 1.5 0.6 3.2
v 1.5 0.8 3.4
v 1.5 0.8 3.2
v 1.5 0.9 3.4
v 1.5 0.9 3.2
v 1.5 1.1 3.4
v 1.5 1.1 3.2
v 1.5 1.2 3.4
v 1.5 1.2 3.2
v 1.5 1.4 3.4
v 1.5 1.4 3.2
v 1.5 2.1 3.5
v 1.5 2.1 3.1
v 1.5 2.3 3.5
v 1.5 2.3 3.4
v 1.5 2.4 3.4
v 1.5 2.4 3.1
v 1.6 1.6 3.4
v 1.6 1.6 3.3
v 1.6 1.7 3.5
v 1.6 1.7 3.4
v 1.6 1.7 3.3
v 1.6 1.7 3
v 1.6 1.8 3.4
v 1.6 1.8 3.3
v 1.6 2 3.6
v 1.6 2 3.5
v 1.6 2 3
v 1.6 2.1 3.6
v 1.6 2.1 3.5
v 1.6 2.1 3.1
v 1.6 2.1 3
v 1.6 2.2 3.7
v 1.6 2.2 3.6
v 1.6 2.3 3.7
v 1.6 2.3 3.6
v 1.6 2.3 3.5
v 1.6 2.3 3.4
v 1.6 2.3 3.1
v 1.6 2.3 3
v 1.6 2.4 3.4
v 1.6 2.4 3.1
v 1.6 2.5 3.6
v 1.6 2.5 3.5
v 1.6 2.5 3.2
v 1.6 2.5 3.1
v 1.6 2.6 3.5
v 1.6 2.6 3.2
v 1.7 0 3.5
v 1.7 0 3.2
v 1.7 0.1 3.5
v 1.7 0.1 3.4
v 1.7 0.1 3.2
v 1.7 0.2 3.4
v 1.7 0.2 3.2
v 1.7 0.4 3.4
v 1.7 0.4 3.2
v 1.7 0.6 3.4
v 1.7 0.6 3.2
v 1.7 0.7 3.5
v 1.7 0.7 3.4
v 1.7 0.7 3.2
v 1.7 0.7 3.1
v 1.7 0.8 3.5
v 1.7 0.8 3.4
v 1.7 0.8 3.2
v 1.7 0.8 3.1
v 1.7 0.9 3.5
v 1.7 0.9 3.4
v 1.7 0.9 3.2
v 1.7 0.9 3.1
v 1.7 1.1 3.4
v 1.7 1.1 3.2
v 1.7 1.2 3.4
v 1.7 1.2 3.2
v 1.7 1.4 3.5
v 1.7 1.4 3.4
v 1.7 1.4 3.2
v 1.7 1.4 3.1
v 1.7 1.5 3.6
v 1.7 1.5 3.1
v 1.7 1.6 3.4
v 1.7 1.6 3.3
v 1.7 1.7 3.5
v 1.7 1.7 3.4
v 1.7 1.7 3.3
v 1.7 1.7 3.1
v 1.7 1.9 3.7
v 1.7 1.9 3.6
v 1.7 2 3.7
v 1.7 2 3.6
v 1.7 2 3.5
v 1.7 2.1 3.7
v 1.7 2.1 3.6
v 1.7 2.2 3.7
v 1.7 2.2 3.6
v 1.7 2.2 3
v 1.7 2.2 2.9
v 1.7 2.3 3.7
v 1.7 2.3 3.6
v 1.7 2.3 3.1
v 1.7 2.3 3
v 1.7 2.3 2.9
v 1.7 2.4 3.7
v 1.7 2.4 3.6
v 1.7 2.4 3.1
v 1.7 2.4 3
v 1.7 2.5 3.6
v 1.7 2.5 3.5
v 1.7 2.5 3.2
v 1.7 2.5 3.1
v 1.7 2.6 3.6
v 1.7 2.6 3.5
v 1.7 2.6 3.2
v 1.7 2.6 3.1
v 1.8 2.1 3
v 1.8 2.1 2.9
v 1.8 2.2 3
v 1.8 2.2 2.9
v 1.8 2.3 3
v 1.8 2.3 2.9
v 1.8 2.4 3
v 1.8 2.4 2.9
v 1.9 1.4 3.4
v 1.9 1.4 3.2
v 1.9 1.5 3.4
v 1.9 1.5 3.2
v 1.9 2.1 3.8
v 1.9 2.1 3.7
v 1.9 2.4 3.8
v 1.9 2.4 3.7
v 1.9 2.4 3.6
v 1.9 2.4 3.1
v 1.9 2.4 3
v 1.9 2.5 3.7
v 1.9 2.5 3.6
v 1.9 2.5 3.1
v 1.9 2.5 3
v 2.1 0 3.5
v 2.1 0 3.2
v 2.1 0.1 3.5
v 2.1 0.1 3.4
v 2.1 0.1 3.2
v 2.1 0.2 3.4
v 2.1 0.2 3.2
v 2.1 0.4 3.4
v 2.1 0.4 3.2
v 2.1 0.7 3.4
v 2.1 0.7 3.2
v 2.1 1.9 3.7
v 2.1 1.9 3.6
v 2.1 2 3.7
v 2.1 2 3.6
v 1.9 0 3.5
v 1.9 0 3.2
v 1.9 0.1 3.5
v 1.9 0.1 3.4
v 1.9 0.1 3.2
v 1.9 0.2 3.4
v 1.9 0.2 3.2
v 1.9 0.4 3.4
v 1.9 0.4 3.2
v 1.9 0.7 3.4
v 1.9 0.7 3.2
v 1.9 1.9 3.7
v 1.9 1.9 3.6
v 1.9 2 3.7
v 1.9 2 3.6
v 2.1 1.4 3.4
v 2.1 1.4 3.2
v 2.1 1.5 3.4
v 2.1 1.5 3.2
v 2.2 2.3 3.8
v 2.2 2.3 3.7
v 2.2 2.3 3
v 2.2 2.3 2.9
v 2.2 2.4 3.8
v 2.2 2.4 3.7
v 2.2 2.4 3.1
v 2.2 2.4 3
v 2.2 2.4 2.9
v 2.2 2.5 3.2
v 2.2 2.5 3.1
v 2.2 2.5 3
v 2.2 2.6 3.2
v 2.2 2.6 3.1
v 2.3 0 3.5
v 2.3 0 3.2
v 2.3 0.1 3.5
v 2.3 0.1 3.4
v 2.3 0.1 3.2
v 2.3 0.2 3.4
v 2.3 0.2 3.2
v 2.3 0.4 3.4
v 2.3 0.4 3.2
v 2.3 0.6 3.4
v 2.3 0.6 3.2
v 2.3 0.7 3.5
v 2.3 0.7 3.4
v 2.3 0.7 3.2
v 2.3 0.7 3.1
v 2.3 0.8 3.5
v 2.3 0.8 3.4
v 2.3 0.8 3.2
v 2.3 0.8 3.1
v 2.3 0.9 3.5
v 2.3 0.9 3.4
v 2.3 0.9 3.2
v 2.3 0.9 3.1
v 2.3 1.1 3.4
v 2.3 1.1 3.2
v 2.3 1.2 3.4
v 2.3 1.2 3.2
v 2.3 1.4 3.5
v 2.3 1.4 3.4
v 2.3 1.4 3.2
v 2.3 1.4 3.1
v 2.3 1.5 3.6
v 2.3 1.5 3.1
v 2.3 1.6 3.4
v 2.3 1.6 3.3
v 2.3 1.7 3.5
v 2.3 1.7 3.4
v 2.3 1.7 3.3
v 2.3 1.7 3.1
v 2.3 1.9 3.7
v 2.3 1.9 3.6
v 2.3 2 3.7
v 2.3 2 3.6
v 2.3 2 3.5
v 2.3 2.1 3.8
v 2.3 2.1 3.7
v 2.3 2.1 3.6
v 2.3 2.1 3
v 2.3 2.1 2.9
v 2.3 2.3 3.8
v 2.3 2.3 3.7
v 2.3 2.3 3.1
v 2.3 2.3 3
v 2.3 2.3 2.9
v 2.3 2.4 3.7
v 2.3 2.4 3.6
v 2.3 2.4 3.2
v 2.3 2.4 3.1
v 2.3 2.4 3
v 2.3 2.5 3.7
v 2.3 2.5 3.6
v 2.3 2.5 3.2
v 2.3 2.5 3.1
v 2.3 2.6 3.6
v 2.3 2.6 3.2
v 2.4 1.6 3.4
v 2.4 1.6 3.3
v 2.4 1.7 3.5
v 2.4 1.7 3.4
v 2.4 1.7 3.3
v 2.4 1.7 3
v 2.4 1.8 3.4
v 2.4 1.8 3.3
v 2.4 2 3.6
v 2.4 2 3.5
v 2.4 2 3
v 2.4 2.1 3.7
v 2.4 2.1 3.6
v 2.4 2.1 3.1
v 2.4 2.1 3
v 2.4 2.3 3.1
v 2.4 2.3 3
v 2.4 2.4 3.7
v 2.4 2.4 3.6
v 2.4 2.4 3.2
v 2.4 2.5 3.6
v 2.4 2.5 3.2
v 2.5 0.6 3.4
v 2.5 0.6 3.2
v 2.5 0.8 3.4
v 2.5 0.8 3.2
v 2.5 0.9 3.4
v 2.5 0.9 3.2
v 2.5 1.1 3.4
v 2.5 1.1 3.2
v 2.5 1.2 3.4
v 2.5 1.2 3.2
v 2.5 1.4 3.4
v 2.5 1.4 3.2
v 2.5 2.1 3.6
v 2.5 2.1 3.1
v 2.5 2.4 3.6
v 2.5 2.4 3.1
v 1.9 2.1 3.8
v 1.9 2.4 3.8
v 2.2 2.3 3.8
v 2.2 2.4 3.8
v 2.3 2.1 3.8
v 2.3 2.3 3.8
v 1.6 2.2 3.7
v 1.6 2.3 3.7
v 1.7 1.9 3.7
v 1.7 2 3.7
v 1.7 2.1 3.7
v 1.7 2.2 3.7
v 1.7 2.3 3.7
v 1.7 2.4 3.7
v 1.9 1.9 3.7
v 1.9 2 3.7
v 1.9 2.1 3.7
v 1.9 2.4 3.7
v 1.9 2.5 3.7
v 2.1 1.9 3.7
v 2.1 2 3.7
v 2.2 2.3 3.7
v 2.2 2.4 3.7
v 2.3 1.9 3.7
v 2.3 2 3.7
v 2.3 2.1 3.7
v 2.3 2.3 3.7
v 2.3 2.4 3.7
v 2.3 2.5 3.7
v 2.4 2.1 3.7
v 2.4 2.4 3.7
v 1.6 2 3.6
v 1.6 2.1 3.6
v 1.6 2.2 3.6
v 1.6 2.3 3.6
v 1.6 2.5 3.6
v 1.7 1.5 3.6
v 1.7 1.9 3.6
v 1.7 2 3.6
v 1.7 2.1 3.6
v 1.7 2.2 3.6
v 1.7 2.3 3.6
v 1.7 2.4 3.6
v 1.7 2.5 3.6
v 1.7 2.6 3.6
v 1.8 1.8 3.6
v 1.8 1.9 3.6
v 1.9 1.6 3.6
v 1.9 1.7 3.6
v 1.9 1.8 3.6
v 1.9 1.9 3.6
v 1.9 2 3.6
v 1.9 2.4 3.6
v 1.9 2.5 3.6
v 2.1 1.6 3.6
v 2.1 1.7 3.6
v 2.1 1.8 3.6
v 2.1 1.9 3.6
v 2.1 2 3.6
v 2.2 1.8 3.6
v 2.2 1.9 3.6
v 2.3 1.5 3.6
v 2.3 1.9 3.6
v 2.3 2 3.6
v 2.3 2.1 3.6
v 2.3 2.4 3.6
v 2.3 2.5 3.6
v 2.3 2.6 3.6
v 2.4 2 3.6
v 2.4 2.1 3.6
v 2.4 2.4 3.6
v 2.4 2.5 3.6
v 2.5 2.1 3.6
v 2.5 2.4 3.6
v 1.5 2.1 3.5
v 1.5 2.3 3.5
v 1.6 1.7 3.5
v 1.6 2 3.5
v 1.6 2.1 3.5
v 1.6 2.3 3.5
v 1.6 2.5 3.5
v 1.6 2.6 3.5
v 1.7 0 3.5
v 1.7 0.1 3.5
v 1.7 0.7 3.5
v 1.7 0.8 3.5
v 1.7 0.9 3.5
v 1.7 1.4 3.5
v 1.7 1.7 3.5
v 1.7 2 3.5
v 1.7 2.5 3.5
v 1.7 2.6 3.5
v 1.8 1 3.5
v 1.8 1.1 3.5
v 1.8 1.2 3.5
v 1.8 1.3 3.5
v 1.9 0 3.5
v 1.9 0.1 3.5
v 1.9 1.1 3.5
v 1.9 1.2 3.5
v 2 1 3.5
v 2 1.3 3.5
v 2.1 0 3.5
v 2.1 0.1 3.5
v 2.1 1 3.5
v 2.1 1.3 3.5
v 2.2 1 3.5
v 2.2 1.3 3.5
v 2.3 0 3.5
v 2.3 0.1 3.5
v 2.3 0.7 3.5
v 2.3 0.8 3.5
v 2.3 0.9 3.5
v 2.3 1.4 3.5
v 2.3 1.7 3.5
v 2.3 2 3.5
v 2.4 1.7 3.5
v 2.4 2 3.5
v 1.5 0.6 3.4
v 1.5 0.8 3.4
v 1.5 0.9 3.4
v 1.5 1.1 3.4
v 1.5 1.2 3.4
v 1.5 1.4 3.4
v 1.5 2.3 3.4
v 1.5 2.4 3.4
v 1.6 1.6 3.4
v 1.6 1.7 3.4
v 1.6 2.3 3.4
v 1.6 2.4 3.4
v 1.7 0.1 3.4
v 1.7 0.2 3.4
v 1.7 0.4 3.4
v 1.7 0.6 3.4
v 1.7 0.7 3.4
v 1.7 0.8 3.4
v 1.7 0.9 3.4
v 1.7 1.1 3.4
v 1.7 1.2 3.4
v 1.7 1.4 3.4
v 1.7 1.6 3.4
v 1.7 1.7 3.4
v 1.9 0.1 3.4
v 1.9 0.2 3.4
v 1.9 0.4 3.4
v 1.9 0.7 3.4
v 1.9 1.4 3.4
v 1.9 1.5 3.4
v 2.1 0.1 3.4
v 2.1 0.2 3.4
v 2.1 0.4 3.4
v 2.1 0.7 3.4
v 2.1 1.4 3.4
v 2.1 1.5 3.4
v 2.3 0.1 3.4
v 2.3 0.2 3.4
v 2.3 0.4 3.4
v 2.3 0.6 3.4
v 2.3 0.7 3.4
v 2.3 0.8 3.4
v 2.3 0.9 3.4
v 2.3 1.1 3.4
v 2.3 1.2 3.4
v 2.3 1.4 3.4
v 2.3 1.6 3.4
v 2.3 1.7 3.4
v 2.4 1.6 3.4
v 2.4 1.7 3.4
v 2.5 0.6 3.4
v 2.5 0.8 3.4
v 2.5 0.9 3.4
v 2.5 1.1 3.4
v 2.5 1.2 3.4
v 2.5 1.4 3.4
v 1.6 1.6 3.3
v 1.6 1.7 3.3
v 1.7 1.6 3.3
v 1.7 1.7 3.3
v 2.3 1.6 3.3
v 2.3 1.7 3.3
v 2.4 1.6 3.3
v 2.4 1.7 3.3
v 1.5 0.6 3.2
v 1.5 0.8 3.2
v 1.5 0.9 3.2
v 1.5 1.1 3.2
v 1.5 1.2 3.2
v 1.5 1.4 3.2
v 1.6 2.5 3.2
v 1.6 2.6 3.2
v 1.7 0 3.2
v 1.7 0.1 3.2
v 1.7 0.2 3.2
v 1.7 0.4 3.2
v 1.7 0.6 3.2
v 1.7 0.7 3.2
v 1.7 0.8 3.2
v 1.7 0.9 3.2
v 1.7 1.1 3.2
v 1.7 1.2 3.2
v 1.7 1.4 3.2
v 1.7 2.5 3.2
v 1.7 2.6 3.2
v 1.9 0 3.2
v 1.9 0.1 3.2
v 1.9 0.2 3.2
v 1.9 0.4 3.2
v 1.9 0.7 3.2
v 1.9 1.4 3.2
v 1.9 1.5 3.2
v 2.1 0 3.2
v 2.1 0.1 3.2
v 2.1 0.2 3.2
v 2.1 0.4 3.2
v 2.1 0.7 3.2
v 2.1 1.4 3.2
v 2.1 1.5 3.2
v 2.2 2.5 3.2
v 2.2 2.6 3.2
v 2.3 0 3.2
v 2.3 0.1 3.2
v 2.3 0.2 3.2
v 2.3 0.4 3.2
v 2.3 0.6 3.2
v 2.3 0.7 3.2
v 2.3 0.8 3.2
v 2.3 0.9 3.2
v 2.3 1.1 3.2
v 2.3 1.2 3.2
v 2.3 1.4 3.2
v 2.3 2.4 3.2
v 2.3 2.5 3.2
v 2.3 2.6 3.2
v 2.4 2.4 3.2
v 2.4 2.5 3.2
v 2.5 0.6 3.2
v 2.5 0.8 3.2
v 2.5 0.9 3.2
v 2.5 1.1 3.2
v 2.5 1.2 3.2
v 2.5 1.4 3.2
v 1.5 2.1 3.1
v 1.5 2.4 3.1
v 1.6 2.1 3.1
v 1.6 2.3 3.1
v 1.6 2.4 3.1
v 1.6 2.5 3.1
v 1.7 0.7 3.1
v 1.7 0.8 3.1
v 1.7 0.9 3.1
v 1.7 1.4 3.1
v 1.7 1.5 3.1
v 1.7 1.7 3.1
v 1.7 2.3 3.1
v 1.7 2.4 3.1
v 1.7 2.5 3.1
v 1.7 2.6 3.1
v 1.9 2.4 3.1
v 1.9 2.5 3.1
v 2.2 2.4 3.1
v 2.2 2.5 3.1
v 2.2 2.6 3.1
v 2.3 0.7 3.1
v 2.3 0.8 3.1
v 2.3 0.9 3.1
v 2.3 1.4 3.1
v 2.3 1.5 3.1
v 2.3 1.7 3.1
v 2.3 2.3 3.1
v 2.3 2.4 3.1
v 2.3 2.5 3.1
v 2.4 2.1 3.1
v 2.4 2.3 3.1
v 2.5 2.1 3.1
v 2.5 2.4 3.1
v 1.6 1.7 3
v 1.6 2 3
v 1.6 2.1 3
v 1.6 2.3 3
v 1.7 2.2 3
v 1.7 2.3 3
v 1.7 2.4 3
v 1.8 2.1 3
v 1.8 2.2 3
v 1.8 2.3 3
v 1.8 2.4 3
v 1.9 2.4 3
v 1.9 2.5 3
v 2.2 2.3 3
v 2.2 2.4 3
v 2.2 2.5 3
v 2.3 2.1 3
v 2.3 2.3 3
v 2.3 2.4 3
v 2.4 1.7 3
v 2.4 2 3
v 2.4 2.1 3
v 2.4 2.3 3
v 1.7 2.2 2.9
v 1.7 2.3 2.9
v 1.8 2.1 2.9
v 1.8 2.2 2.9
v 1.8 2.3 2.9
v 1.8 2.4 2.9
v 2.2 2.3 2.9
v 2.2 2.4 2.9
v 2.3 2.1 2.9
v 2.3 2.3 2.9
v 1.7 0 3.5
v 1.9 0 3.5
v 2.1 0 3.5
v 2.3 0 3.5
v 1.7 0 3.2
v 1.9 0 3.2
v 2.1 0 3.2
v 2.3 0 3.2
v 1.5 0.6 3.4
v 1.7 0.6 3.4
v 2.3 0.6 3.4
v 2.5 0.6 3.4
v 1.5 0.6 3.2
v 1.7 0.6 3.2
v 2.3 0.6 3.2
v 2.5 0.6 3.2
v 1.7 0.7 3.5
v 2.3 0.7 3.5
v 1.7 0.7 3.4
v 1.9 0.7 3.4
v 2.1 0.7 3.4
v 2.3 0.7 3.4
v 1.7 0.7 3.2
v 1.9 0.7 3.2
v 2.1 0.7 3.2
v 2.3 0.7 3.2
v 1.7 0.7 3.1
v 2.3 0.7 3.1
v 1.7 1.5 3.6
v 2.3 1.5 3.6
v 1.9 1.5 3.4
v 2.1 1.5 3.4
v 1.9 1.5 3.2
v 2.1 1.5 3.2
v 1.7 1.5 3.1
v 2.3 1.5 3.1
v 1.6 1.6 3.4
v 1.7 1.6 3.4
v 2.3 1.6 3.4
v 2.4 1.6 3.4
v 1.6 1.6 3.3
v 1.7 1.6 3.3
v 2.3 1.6 3.3
v 2.4 1.6 3.3
v 1.6 1.7 3.5
v 1.7 1.7 3.5
v 2.3 1.7 3.5
v 2.4 1.7 3.5
v 1.6 1.7 3.4
v 1.7 1.7 3.4
v 2.3 1.7 3.4
v 2.4 1.7 3.4
v 1.6 1.7 3.3
v 1.7 1.7 3.3
v 2.3 1.7 3.3
v 2.4 1.7 3.3
v 1.7 1.7 3.1
v 2.3 1.7 3.1
v 1.6 1.7 3
v 2.4 1.7 3
v 1.7 1.9 3.7
v 1.9 1.9 3.7
v 2.1 1.9 3.7
v 2.3 1.9 3.7
v 1.7 1.9 3.6
v 1.8 1.9 3.6
v 1.9 1.9 3.6
v 2.1 1.9 3.6
v 2.2 1.9 3.6
v 2.3 1.9 3.6
v 1.9 2 3.7
v 2.1 2 3.7
v 1.6 2 3.6
v 1.7 2 3.6
v 1.9 2 3.6
v 2.1 2 3.6
v 2.3 2 3.6
v 2.4 2 3.6
v 1.6 2 3.5
v 1.7 2 3.5
v 2.3 2 3.5
v 2.4 2 3.5
v 1.9 2.1 3.8
v 2.3 2.1 3.8
v 1.9 2.1 3.7
v 2.3 2.1 3.7
v 2.4 2.1 3.7
v 2.3 2.1 3.6
v 2.4 2.1 3.6
v 2.5 2.1 3.6
v 1.5 2.1 3.5
v 1.6 2.1 3.5
v 1.5 2.1 3.1
v 1.6 2.1 3.1
v 2.4 2.1 3.1
v 2.5 2.1 3.1
v 1.8 2.1 3
v 2.3 2.1 3
v 1.8 2.1 2.9
v 2.3 2.1 2.9
v 1.6 2.2 3.7
v 1.7 2.2 3.7
v 1.6 2.2 3.6
v 1.7 2.2 3.6
v 1.7 2.2 3
v 1.8 2.2 3
v 1.7 2.2 2.9
v 1.8 2.2 2.9
v 1.7 0.1 3.5
v 1.9 0.1 3.5
v 2.1 0.1 3.5
v 2.3 0.1 3.5
v 1.7 0.1 3.4
v 1.9 0.1 3.4
v 2.1 0.1 3.4
v 2.3 0.1 3.4
v 1.7 1.4 3.5
v 2.3 1.4 3.5
v 1.5 1.4 3.4
v 1.7 1.4 3.4
v 1.9 1.4 3.4
v 2.1 1.4 3.4
v 2.3 1.4 3.4
v 2.5 1.4 3.4
v 1.5 1.4 3.2
v 1.7 1.4 3.2
v 1.9 1.4 3.2
v 2.1 1.4 3.2
v 2.3 1.4 3.2
v 2.5 1.4 3.2
v 1.7 1.4 3.1
v 2.3 1.4 3.1
v 2.2 2.3 3.8
v 2.3 2.3 3.8
v 1.6 2.3 3.7
v 1.7 2.3 3.7
v 2.2 2.3 3.7
v 2.3 2.3 3.7
v 1.6 2.3 3.6
v 1.7 2.3 3.6
v 1.5 2.3 3.5
v 1.6 2.3 3.5
v 1.5 2.3 3.4
v 1.6 2.3 3.4
v 1.6 2.3 3.1
v 1.7 2.3 3.1
v 2.3 2.3 3.1
v 2.4 2.3 3.1
v 1.6 2.3 3
v 1.7 2.3 3
v 1.8 2.3 3
v 2.2 2.3 3
v 2.3 2.3 3
v 2.4 2.3 3
v 1.7 2.3 2.9
v 1.8 2.3 2.9
v 2.2 2.3 2.9
v 2.3 2.3 2.9
v 1.9 2.4 3.8
v 2.2 2.4 3.8
v 1.7 2.4 3.7
v 1.9 2.4 3.7
v 2.2 2.4 3.7
v 2.3 2.4 3.7
v 2.4 2.4 3.7
v 1.7 2.4 3.6
v 1.9 2.4 3.6
v 2.3 2.4 3.6
v 2.4 2.4 3.6
v 2.5 2.4 3.6
v 1.5 2.4 3.4
v 1.6 2.4 3.4
v 2.3 2.4 3.2
v 2.4 2.4 3.2
v 1.5 2.4 3.1
v 1.6 2.4 3.1
v 1.7 2.4 3.1
v 1.9 2.4 3.1
v 2.2 2.4 3.1
v 2.3 2.4 3.1
v 2.5 2.4 3.1
v 1.7 2.4 3
v 1.8 2.4 3
v 1.9 2.4 3
v 2.2 2.4 3
v 2.3 2.4 3
v 1.8 2.4 2.9
v 2.2 2.4 2.9
v 1.9 2.5 3.7
v 2.3 2.5 3.7
v 1.6 2.5 3.6
v 1.7 2.5 3.6
v 1.9 2.5 3.6
v 2.3 2.5 3.6
v 2.4 2.5 3.6
v 1.6 2.5 3.5
v 1.7 2.5 3.5
v 1.6 2.5 3.2
v 1.7 2.5 3.2
v 2.2 2.5 3.2
v 2.3 2.5 3.2
v 2.4 2.5 3.2
v 1.6 2.5 3.1
v 1.7 2.5 3.1
v 1.9 2.5 3.1
v 2.2 2.5 3.1
v 2.3 2.5 3.1
v 1.9 2.5 3
v 2.2 2.5 3
v 1.7 2.6 3.6
v 2.3 2.6 3.6
v 1.6 2.6 3.5
v 1.7 2.6 3.5
v 1.6 2.6 3.2
v 1.7 2.6 3.2
v 2.2 2.6 3.2
v 2.3 2.6 3.2
v 1.7 2.6 3.1
v 2.2 2.6 3.1

# faces
f 3/8/1 2/8/1 1/8/1
f 4/8/1 2/8/1 3/8/1
f 5/10/1 4/10/1 3/10/1
f 6/10/1 4/10/1 5/10/1
f 7/8/1 6/8/1 5/8/1
f 8/8/1 6/8/1 7/8/1
f 9/7/1 8/7/1 7/7/1
f 10/7/1 8/7/1 9/7/1
f 11/1/1 10/1/1 9/1/1
f 12/1/1 10/1/1 11/1/1
f 15/5/1 14/5/1 13/5/1
f 16/5/1 14/5/1 15/5/1
f 17/5/1 14/5/1 16/5/1
f 18/5/1 14/5/1 17/5/1
f 22/8/1 20/8/1 19/8/1
f 23/8/1 20/8/1 22/8/1
f 25/5/1 22/5/1 21/5/1
f 25/8/1 23/8/1 22/8/1
f 26/5/1 24/5/1 23/5/1
f 26/8/1 23/8/1 25/8/1
f 28/5/1 25/5/1 21/5/1
f 28/5/1 26/5/1 25/5/1
f 29/5/1 24/5/1 26/5/1
f 29/5/1 26/5/1 28/5/1
f 30/10/1 28/10/1 27/10/1
f 30/10/1 29/10/1 28/10/1
f 31/10/1 29/10/1 30/10/1
f 32/10/1 29/10/1 31/10/1
f 33/10/1 29/10/1 32/10/1
f 35/5/1 31/5/1 30/5/1
f 36/5/1 35/5/1 34/5/1
f 37/5/1 31/5/1 35/5/1
f 37/5/1 35/5/1 36/5/1
f 38/5/1 31/5/1 37/5/1
f 40/5/1 33/5/1 32/5/1
f 41/5/1 33/5/1 40/5/1
f 42/5/1 39/5/1 38/5/1
f 42/5/1 38/5/1 37/5/1
f 44/5/1 42/5/1 37/5/1
f 44/5/1 43/5/1 42/5/1
f 45/5/1 43/5/1 44/5/1
f 46/5/1 43/5/1 45/5/1
f 47/5/1 43/5/1 46/5/1
f 48/5/1 46/5/1 45/5/1
f 49/5/1 46/5/1 48/5/1
f 52/4/1 51/4/1 50/4/1
f 53/4/1 51/4/1 52/4/1
f 54/4/1 51/4/1 53/4/1
f 55/10/1 54/10/1 53/10/1
f 56/10/1 54/10/1 55/10/1
f 57/8/1 56/8/1 55/8/1
f 58/8/1 56/8/1 57/8/1
f 59/4/1 58/4/1 57/4/1
f 60/4/1 58/4/1 59/4/1
f 65/4/1 62/4/1 61/4/1
f 66/4/1 62/4/1 65/4/1
f 67/4/1 64/4/1 63/4/1
f 68/4/1 64/4/1 67/4/1
f 69/3/1 66/3/1 65/3/1
f 70/3/1 66/3/1 69/3/1
f 71/3/1 68/3/1 67/3/1
f 72/3/1 68/3/1 71/3/1
f 73/1/1 70/1/1 69/1/1
f 74/1/1 72/1/1 71/1/1
f 75/1/1 73/1/1 69/1/1
f 76/1/1 72/1/1 74/1/1
f 77/1/1 75/1/1 69/1/1
f 78/1/1 75/1/1 77/1/1
f 79/1/1 72/1/1 76/1/1
f 80/1/1 72/1/1 79/1/1
f 83/8/1 82/8/1 81/8/1
f 84/8/1 82/8/1 83/8/1
f 85/8/1 83/8/1 81/8/1
f 86/8/1 83/8/1 85/8/1
f 87/8/1 82/8/1 84/8/1
f 88/8/1 82/8/1 87/8/1
f 90/8/1 85/8/1 81/8/1
f 91/5/1 90/5/1 89/5/1
f 92/8/1 85/8/1 90/8/1
f 92/5/1 90/5/1 91/5/1
f 93/8/1 85/8/1 92/8/1
f 94/10/1 92/10/1 91/10/1
f 95/10/1 92/10/1 94/10/1
f 96/5/1 95/5/1 94/5/1
f 97/5/1 95/5/1 96/5/1
f 103/5/1 99/5/1 98/5/1
f 104/5/1 99/5/1 103/5/1
f 105/5/1 101/5/1 100/5/1
f 106/5/1 101/5/1 105/5/1
f 107/5/1 103/5/1 102/5/1
f 108/5/1 103/5/1 107/5/1
f 113/5/1 110/5/1 109/5/1
f 114/5/1 110/5/1 113/5/1
f 115/5/1 112/5/1 111/5/1
f 116/5/1 112/5/1 115/5/1
f 119/5/1 118/5/1 117/5/1
f 120/5/1 118/5/1 119/5/1
f 123/5/1 122/5/1 121/5/1
f 124/5/1 122/5/1 123/5/1
f 127/8/1 126/8/1 125/8/1
f 128/8/1 126/8/1 127/8/1
f 131/5/1 130/5/1 129/5/1
f 132/5/1 130/5/1 131/5/1
f 136/5/1 133/5/1 132/5/1
f 137/5/1 133/5/1 136/5/1
f 138/5/1 135/5/1 134/5/1
f 139/5/1 135/5/1 138/5/1
f 142/4/1 141/4/1 140/4/1
f 143/4/1 141/4/1 142/4/1
f 144/4/1 141/4/1 143/4/1
f 145/10/1 144/10/1 143/10/1
f 146/10/1 144/10/1 145/10/1
f 147/8/1 146/8/1 145/8/1
f 148/8/1 146/8/1 147/8/1
f 149/4/1 148/4/1 147/4/1
f 150/4/1 148/4/1 149/4/1
f 153/5/1 152/5/1 151/5/1
f 154/5/1 152/5/1 153/5/1
f 155/4/2 156/4/2 157/4/2
f 157/4/2 156/4/2 158/4/2
f 158/4/2 156/4/2 159/4/2
f 158/10/2 159/10/2 160/10/2
f 160/10/2 159/10/2 161/10/2
f 160/8/2 161/8/2 162/8/2
f 162/8/2 161/8/2 163/8/2
f 162/4/2 163/4/2 164/4/2
f 164/4/2 163/4/2 165/4/2
f 166/5/2 167/5/2 168/5/2
f 168/5/2 167/5/2 169/5/2
f 170/8/2 171/8/2 172/8/2
f 172/8/2 171/8/2 173/8/2
f 174/5/2 175/5/2 178/5/2
f 178/5/2 175/5/2 179/5/2
f 176/5/2 177/5/2 181/5/2
f 181/5/2 177/5/2 182/5/2
f 180/5/2 181/5/2 184/5/2
f 184/5/2 181/5/2 185/5/2
f 183/5/2 184/5/2 186/5/2
f 186/5/2 184/5/2 187/5/2
f 188/4/2 189/4/2 190/4/2
f 190/4/2 189/4/2 191/4/2
f 191/4/2 189/4/2 192/4/2
f 191/10/2 192/10/2 193/10/2
f 193/10/2 192/10/2 194/10/2
f 193/8/2 194/8/2 195/8/2
f 195/8/2 194/8/2 196/8/2
f 195/4/2 196/4/2 197/4/2
f 197/4/2 196/4/2 198/4/2
f 199/4/2 200/4/2 203/4/2
f 203/4/2 200/4/2 204/4/2
f 201/4/2 202/4/2 205/4/2
f 205/4/2 202/4/2 206/4/2
f 203/3/2 204/3/2 207/3/2
f 207/3/2 204/3/2 208/3/2
f 205/3/2 206/3/2 209/3/2
f 209/3/2 206/3/2 210/3/2
f 207/1/2 208/1/2 211/1/2
f 209/1/2 210/1/2 212/1/2
f 207/1/2 211/1/2 213/1/2
f 212/1/2 210/1/2 214/1/2
f 207/1/2 213/1/2 215/1/2
f 215/1/2 213/1/2 216/1/2
f 214/1/2 210/1/2 217/1/2
f 217/1/2 210/1/2 218/1/2
f 219/8/2 220/8/2 221/8/2
f 221/8/2 220/8/2 222/8/2
f 219/8/2 221/8/2 223/8/2
f 223/8/2 221/8/2 224/8/2
f 222/8/2 220/8/2 225/8/2
f 225/8/2 220/8/2 226/8/2
f 219/8/2 223/8/2 228/8/2
f 227/5/2 228/5/2 229/5/2
f 228/8/2 223/8/2 230/8/2
f 229/5/2 228/5/2 230/5/2
f 230/8/2 223/8/2 231/8/2
f 229/10/2 230/10/2 233/10/2
f 233/10/2 230/10/2 234/10/2
f 232/5/2 233/5/2 237/5/2
f 237/5/2 233/5/2 238/5/2
f 235/5/2 236/5/2 240/5/2
f 240/5/2 236/5/2 241/5/2
f 239/5/2 240/5/2 245/5/2
f 245/5/2 240/5/2 246/5/2
f 242/5/2 243/5/2 247/5/2
f 247/5/2 243/5/2 248/5/2
f 244/5/2 245/5/2 249/5/2
f 249/5/2 245/5/2 250/5/2
f 248/5/2 249/5/2 251/5/2
f 251/5/2 249/5/2 252/5/2
f 253/8/2 254/8/2 256/8/2
f 256/8/2 254/8/2 257/8/2
f 255/5/2 256/5/2 259/5/2
f 256/8/2 257/8/2 259/8/2
f 257/5/2 258/5/2 260/5/2
f 259/8/2 257/8/2 260/8/2
f 255/5/2 259/5/2 262/5/2
f 259/5/2 260/5/2 262/5/2
f 260/5/2 258/5/2 263/5/2
f 262/5/2 260/5/2 263/5/2
f 261/10/2 262/10/2 265/10/2
f 262/10/2 263/10/2 265/10/2
f 265/10/2 263/10/2 266/10/2
f 266/10/2 263/10/2 267/10/2
f 266/5/2 267/5/2 268/5/2
f 268/5/2 267/5/2 269/5/2
f 264/5/2 265/5/2 270/5/2
f 270/5/2 265/5/2 271/5/2
f 271/5/2 272/5/2 273/5/2
f 273/5/2 272/5/2 274/5/2
f 275/8/2 276/8/2 277/8/2
f 277/8/2 276/8/2 278/8/2
f 277/10/2 278/10/2 279/10/2
f 279/10/2 278/10/2 280/10/2
f 279/8/2 280/8/2 281/8/2
f 281/8/2 280/8/2 282/8/2
f 281/7/2 282/7/2 283/7/2
f 283/7/2 282/7/2 284/7/2
f 283/1/2 284/1/2 285/1/2
f 285/1/2 284/1/2 286/1/2
f 287/5/2 288/5/2 289/5/2
f 289/5/2 288/5/2 290/5/2
f 293/5/3 292/5/3 291/5/3
f 294/5/3 292/5/3 293/5/3
f 295/5/3 293/5/3 291/5/3
f 296/5/3 293/5/3 295/5/3
f 302/5/3 298/5/3 297/5/3
f 303/5/3 298/5/3 302/5/3
f 305/5/3 300/5/3 299/5/3
f 306/10/3 301/10/3 300/10/3
f 306/5/3 300/5/3 305/5/3
f 307/5/3 304/5/3 303/5/3
f 307/10/3 301/10/3 306/10/3
f 307/5/3 302/5/3 301/5/3
f 307/5/3 303/5/3 302/5/3
f 308/5/3 304/5/3 307/5/3
f 311/10/3 307/10/3 306/10/3
f 313/5/3 309/5/3 308/5/3
f 314/5/3 311/5/3 310/5/3
f 315/10/3 307/10/3 311/10/3
f 315/5/3 311/5/3 314/5/3
f 316/10/3 307/10/3 315/10/3
f 317/5/3 313/5/3 312/5/3
f 318/5/3 309/5/3 313/5/3
f 318/5/3 313/5/3 317/5/3
f 319/5/3 309/5/3 318/5/3
f 320/5/3 317/5/3 316/5/3
f 320/5/3 318/5/3 317/5/3
f 321/5/3 318/5/3 320/5/3
f 329/10/3 323/10/3 322/10/3
f 330/5/3 324/5/3 323/5/3
f 330/10/3 323/10/3 329/10/3
f 331/5/3 324/5/3 330/5/3
f 332/5/3 326/5/3 325/5/3
f 333/5/3 326/5/3 332/5/3
f 334/5/3 326/5/3 333/5/3
f 336/8/3 328/8/3 327/8/3
f 337/8/3 328/8/3 336/8/3
f 338/8/3 336/8/3 327/8/3
f 339/8/3 336/8/3 338/8/3
f 340/6/3 337/6/3 336/6/3
f 340/8/3 336/8/3 339/8/3
f 341/6/3 337/6/3 340/6/3
f 343/5/3 335/5/3 334/5/3
f 343/5/3 334/5/3 333/5/3
f 344/5/3 335/5/3 343/5/3
f 345/9/3 339/9/3 338/9/3
f 345/8/3 338/8/3 327/8/3
f 346/8/3 342/8/3 341/8/3
f 346/9/3 339/9/3 345/9/3
f 346/8/3 340/8/3 339/8/3
f 346/8/3 341/8/3 340/8/3
f 347/8/3 342/8/3 346/8/3
f 348/8/3 342/8/3 347/8/3
f 349/8/3 342/8/3 348/8/3
f 350/8/3 346/8/3 345/8/3
f 350/8/3 347/8/3 346/8/3
f 350/6/3 348/6/3 347/6/3
f 351/6/3 348/6/3 350/6/3
f 352/8/3 345/8/3 327/8/3
f 352/8/3 350/8/3 345/8/3
f 352/8/3 351/8/3 350/8/3
f 353/8/3 351/8/3 352/8/3
f 357/5/3 335/5/3 344/5/3
f 358/5/3 335/5/3 357/5/3
f 359/10/3 355/10/3 354/10/3
f 360/10/3 355/10/3 359/10/3
f 361/5/3 357/5/3 356/5/3
f 362/5/3 357/5/3 361/5/3
f 363/5/3 361/5/3 360/5/3
f 364/5/3 361/5/3 363/5/3
f 369/5/3 366/5/3 365/5/3
f 370/5/3 366/5/3 369/5/3
f 379/5/3 368/5/3 367/5/3
f 380/5/3 368/5/3 379/5/3
f 381/5/3 372/5/3 371/5/3
f 382/5/3 372/5/3 381/5/3
f 383/1/3 378/1/3 377/1/3
f 384/1/3 378/1/3 383/1/3
f 385/1/3 378/1/3 384/1/3
f 386/1/3 378/1/3 385/1/3
f 387/4/3 374/4/3 373/4/3
f 388/4/3 374/4/3 387/4/3
f 389/4/3 384/4/3 383/4/3
f 389/1/3 385/1/3 384/1/3
f 390/4/3 386/4/3 385/4/3
f 390/1/3 385/1/3 389/1/3
f 391/1/3 383/1/3 377/1/3
f 391/4/3 390/4/3 389/4/3
f 391/4/3 389/4/3 383/4/3
f 392/1/3 378/1/3 386/1/3
f 392/4/3 390/4/3 391/4/3
f 392/4/3 386/4/3 390/4/3
f 395/1/3 391/1/3 377/1/3
f 395/1/3 392/1/3 391/1/3
f 396/1/3 378/1/3 392/1/3
f 396/1/3 392/1/3 395/1/3
f 397/1/3 395/1/3 377/1/3
f 397/4/3 396/4/3 395/4/3
f 398/1/3 378/1/3 396/1/3
f 398/4/3 396/4/3 397/4/3
f 399/4/3 394/4/3 393/4/3
f 400/4/3 394/4/3 399/4/3
f 401/4/3 376/4/3 375/4/3
f 402/3/3 377/3/3 376/3/3
f 402/4/3 376/4/3 401/4/3
f 403/1/3 397/1/3 377/1/3
f 403/3/3 377/3/3 402/3/3
f 403/1/3 398/1/3 397/1/3
f 404/1/3 378/1/3 398/1/3
f 404/1/3 398/1/3 403/1/3
f 407/5/3 406/5/3 405/5/3
f 408/5/3 406/5/3 407/5/3
f 419/5/3 416/5/3 415/5/3
f 420/5/3 416/5/3 419/5/3
f 424/8/3 410/8/3 409/8/3
f 425/8/3 410/8/3 424/8/3
f 426/10/3 411/10/3 410/10/3
f 426/8/3 410/8/3 425/8/3
f 427/8/3 412/8/3 411/8/3
f 427/10/3 411/10/3 426/10/3
f 428/7/3 413/7/3 412/7/3
f 428/8/3 412/8/3 427/8/3
f 429/1/3 414/1/3 413/1/3
f 429/7/3 413/7/3 428/7/3
f 430/1/3 414/1/3 429/1/3
f 431/8/3 418/8/3 417/8/3
f 432/8/3 418/8/3 431/8/3
f 433/10/3 422/10/3 421/10/3
f 434/8/3 423/8/3 422/8/3
f 434/10/3 422/10/3 433/10/3
f 435/4/3 425/4/3 424/4/3
f 435/8/3 423/8/3 434/8/3
f 435/4/3 424/4/3 423/4/3
f 436/4/3 425/4/3 435/4/3
f 443/8/3 438/8/3 437/8/3
f 444/8/3 438/8/3 443/8/3
f 445/10/3 440/10/3 439/10/3
f 446/8/3 441/8/3 440/8/3
f 446/10/3 440/10/3 445/10/3
f 447/4/3 442/4/3 441/4/3
f 447/8/3 441/8/3 446/8/3
f 448/4/3 442/4/3 447/4/3
f 449/4/3 442/4/3 448/4/3
f 457/8/3 456/8/3 455/8/3
f 458/8/3 456/8/3 457/8/3
f 459/8/3 449/8/3 448/8/3
f 459/8/3 450/8/3 449/8/3
f 460/10/3 451/10/3 450/10/3
f 460/8/3 450/8/3 459/8/3
f 461/8/3 452/8/3 451/8/3
f 461/10/3 451/10/3 460/10/3
f 462/7/3 453/7/3 452/7/3
f 462/8/3 452/8/3 461/8/3
f 463/1/3 454/1/3 453/1/3
f 463/7/3 453/7/3 462/7/3
f 464/1/3 454/1/3 463/1/3
f 465/8/4 466/8/4 467/8/4
f 467/8/4 466/8/4 468/8/4
f 469/8/4 470/8/4 471/8/4
f 471/8/4 470/8/4 472/8/4
f 473/8/4 474/8/4 485/8/4
f 485/8/4 474/8/4 486/8/4
f 474/10/4 475/10/4 487/10/4
f 486/8/4 474/8/4 487/8/4
f 475/8/4 476/8/4 488/8/4
f 487/10/4 475/10/4 488/10/4
f 476/7/4 477/7/4 489/7/4
f 488/8/4 476/8/4 489/8/4
f 477/1/4 478/1/4 490/1/4
f 489/7/4 477/7/4 490/7/4
f 490/1/4 478/1/4 491/1/4
f 479/5/4 480/5/4 492/5/4
f 492/5/4 480/5/4 493/5/4
f 481/4/4 482/4/4 494/4/4
f 482/10/4 483/10/4 495/10/4
f 494/4/4 482/4/4 495/4/4
f 483/8/4 484/8/4 496/8/4
f 495/10/4 483/10/4 496/10/4
f 485/4/4 486/4/4 497/4/4
f 496/8/4 484/8/4 497/8/4
f 484/4/4 485/4/4 497/4/4
f 497/4/4 486/4/4 498/4/4
f 499/8/4 500/8/4 506/8/4
f 506/8/4 500/8/4 507/8/4
f 501/4/4 502/4/4 510/4/4
f 502/10/4 503/10/4 511/10/4
f 510/4/4 502/4/4 511/4/4
f 503/8/4 504/8/4 512/8/4
f 511/10/4 503/10/4 512/10/4
f 504/4/4 505/4/4 513/4/4
f 512/8/4 504/8/4 513/8/4
f 513/4/4 505/4/4 514/4/4
f 514/4/4 505/4/4 515/4/4
f 508/5/4 509/5/4 522/5/4
f 522/5/4 509/5/4 523/5/4
f 521/5/4 522/5/4 524/5/4
f 524/5/4 522/5/4 525/5/4
f 514/8/4 515/8/4 526/8/4
f 515/8/4 516/8/4 526/8/4
f 516/10/4 517/10/4 527/10/4
f 526/8/4 516/8/4 527/8/4
f 517/8/4 518/8/4 528/8/4
f 527/10/4 517/10/4 528/10/4
f 518/7/4 519/7/4 529/7/4
f 528/8/4 518/8/4 529/8/4
f 519/1/4 520/1/4 530/1/4
f 529/7/4 519/7/4 530/7/4
f 530/1/4 520/1/4 531/1/4
f 532/5/4 533/5/4 534/5/4
f 534/5/4 533/5/4 535/5/4
f 535/5/4 533/5/4 536/5/4
f 536/5/4 537/5/4 544/5/4
f 535/5/4 536/5/4 544/5/4
f 544/5/4 537/5/4 545/5/4
f 545/5/4 537/5/4 546/5/4
f 546/5/4 547/5/4 548/5/4
f 545/5/4 546/5/4 548/5/4
f 548/5/4 547/5/4 549/5/4
f 549/5/4 547/5/4 551/5/4
f 551/5/4 547/5/4 552/5/4
f 538/4/4 539/4/4 553/4/4
f 539/3/4 540/3/4 554/3/4
f 553/4/4 539/4/4 554/4/4
f 540/1/4 541/1/4 555/1/4
f 554/3/4 540/3/4 555/3/4
f 555/1/4 541/1/4 556/1/4
f 542/8/4 543/8/4 557/8/4
f 557/8/4 543/8/4 558/8/4
f 550/5/4 551/5/4 560/5/4
f 560/5/4 551/5/4 561/5/4
f 559/5/4 560/5/4 563/5/4
f 562/5/4 563/5/4 564/5/4
f 563/5/4 560/5/4 565/5/4
f 564/5/4 563/5/4 565/5/4
f 568/5/4 569/5/4 570/5/4
f 570/5/4 569/5/4 571/5/4
f 567/10/4 568/10/4 573/10/4
f 568/5/4 570/5/4 573/5/4
f 573/5/4 570/5/4 574/5/4
f 571/5/4 572/5/4 575/5/4
f 575/5/4 572/5/4 576/5/4
f 577/5/4 578/5/4 580/5/4
f 580/5/4 578/5/4 581/5/4
f 567/10/4 573/10/4 582/10/4
f 579/5/4 580/5/4 583/5/4
f 583/5/4 580/5/4 584/5/4
f 566/5/4 567/5/4 585/5/4
f 567/10/4 582/10/4 586/10/4
f 585/5/4 567/5/4 586/5/4
f 582/5/4 583/5/4 587/5/4
f 586/10/4 582/10/4 587/10/4
f 587/5/4 583/5/4 588/5/4
f 589/5/4 590/5/4 592/5/4
f 592/5/4 590/5/4 593/5/4
f 591/5/4 592/5/4 595/5/4
f 593/5/4 594/5/4 595/5/4
f 592/5/4 593/5/4 595/5/4
f 595/5/4 594/5/4 596/5/4
f 591/5/4 595/5/4 597/5/4
f 597/5/4 595/5/4 598/5/4
f 603/4/5 600/4/5 599/4/5
f 604/4/5 600/4/5 603/4/5
f 605/4/5 602/4/5 601/4/5
f 606/4/5 602/4/5 605/4/5
f 611/8/5 608/8/5 607/8/5
f 612/8/5 608/8/5 611/8/5
f 613/8/5 610/8/5 609/8/5
f 614/8/5 610/8/5 613/8/5
f 617/4/5 616/4/5 615/4/5
f 618/4/5 616/4/5 617/4/5
f 619/4/5 616/4/5 618/4/5
f 620/4/5 616/4/5 619/4/5
f 622/4/5 619/4/5 618/4/5
f 623/4/5 619/4/5 622/4/5
f 625/4/5 622/4/5 621/4/5
f 625/4/5 624/4/5 623/4/5
f 625/4/5 623/4/5 622/4/5
f 626/4/5 624/4/5 625/4/5
f 629/8/5 628/8/5 627/8/5
f 630/8/5 628/8/5 629/8/5
f 631/8/5 629/8/5 627/8/5
f 632/8/5 628/8/5 630/8/5
f 633/8/5 631/8/5 627/8/5
f 633/8/5 632/8/5 631/8/5
f 634/8/5 628/8/5 632/8/5
f 634/8/5 632/8/5 633/8/5
f 639/8/5 636/8/5 635/8/5
f 640/8/5 636/8/5 639/8/5
f 641/8/5 638/8/5 637/8/5
f 642/8/5 638/8/5 641/8/5
f 647/5/5 644/5/5 643/5/5
f 648/5/5 644/5/5 647/5/5
f 649/5/5 646/5/5 645/5/5
f 650/5/5 646/5/5 649/5/5
f 655/5/5 652/5/5 651/5/5
f 656/5/5 654/5/5 653/5/5
f 657/5/5 655/5/5 651/5/5
f 657/5/5 656/5/5 655/5/5
f 658/5/5 654/5/5 656/5/5
f 658/5/5 656/5/5 657/5/5
f 663/5/5 660/5/5 659/5/5
f 664/5/5 660/5/5 663/5/5
f 665/5/5 660/5/5 664/5/5
f 666/5/5 662/5/5 661/5/5
f 667/5/5 662/5/5 666/5/5
f 668/5/5 662/5/5 667/5/5
f 673/10/5 670/10/5 669/10/5
f 674/10/5 670/10/5 673/10/5
f 677/10/5 672/10/5 671/10/5
f 678/10/5 672/10/5 677/10/5
f 679/10/5 676/10/5 675/10/5
f 680/10/5 676/10/5 679/10/5
f 683/5/5 682/5/5 681/5/5
f 684/5/5 682/5/5 683/5/5
f 686/5/5 685/5/5 684/5/5
f 687/5/5 685/5/5 686/5/5
f 691/5/5 690/5/5 689/5/5
f 692/5/5 690/5/5 691/5/5
f 693/5/5 688/5/5 687/5/5
f 694/5/5 688/5/5 693/5/5
f 697/5/5 696/5/5 695/5/5
f 698/5/5 696/5/5 697/5/5
f 701/5/5 700/5/5 699/5/5
f 702/5/5 700/5/5 701/5/5
f 705/5/5 704/5/5 703/5/5
f 706/5/5 704/5/5 705/5/5
f 707/4/6 708/4/6 711/4/6
f 711/4/6 708/4/6 712/4/6
f 709/4/6 710/4/6 713/4/6
f 713/4/6 710/4/6 714/4/6
f 715/1/6 716/1/6 718/1/6
f 718/1/6 716/1/6 719/1/6
f 719/1/6 716/1/6 720/1/6
f 720/1/6 716/1/6 721/1/6
f 717/1/6 718/1/6 723/1/6
f 718/1/6 719/1/6 723/1/6
f 723/1/6 719/1/6 724/1/6
f 724/1/6 719/1/6 725/1/6
f 721/1/6 722/1/6 726/1/6
f 720/1/6 721/1/6 726/1/6
f 726/1/6 722/1/6 727/1/6
f 727/1/6 722/1/6 728/1/6
f 724/1/6 725/1/6 729/1/6
f 726/1/6 727/1/6 729/1/6
f 725/1/6 726/1/6 729/1/6
f 729/1/6 727/1/6 730/1/6
f 731/5/6 732/5/6 735/5/6
f 735/5/6 732/5/6 736/5/6
f 733/5/6 734/5/6 737/5/6
f 737/5/6 734/5/6 738/5/6
f 739/5/6 740/5/6 741/5/6
f 741/5/6 740/5/6 742/5/6
f 743/5/6 744/5/6 747/5/6
f 747/5/6 744/5/6 748/5/6
f 745/5/6 746/5/6 751/5/6
f 751/5/6 746/5/6 752/5/6
f 748/5/6 749/5/6 753/5/6
f 753/5/6 749/5/6 754/5/6
f 750/5/6 751/5/6 755/5/6
f 755/5/6 751/5/6 756/5/6
f 757/5/6 758/5/6 760/5/6
f 760/5/6 758/5/6 761/5/6
f 759/5/6 760/5/6 764/5/6
f 764/5/6 760/5/6 765/5/6
f 762/5/6 763/5/6 766/5/6
f 766/5/6 763/5/6 767/5/6
f 767/5/6 768/5/6 772/5/6
f 769/5/6 770/5/6 773/5/6
f 773/5/6 770/5/6 774/5/6
f 771/5/6 772/5/6 778/5/6
f 772/5/6 768/5/6 779/5/6
f 778/5/6 772/5/6 779/5/6
f 775/5/6 776/5/6 780/5/6
f 780/5/6 776/5/6 781/5/6
f 781/5/6 776/5/6 782/5/6
f 777/5/6 778/5/6 783/5/6
f 783/5/6 778/5/6 784/5/6
f 781/5/6 782/5/6 785/5/6
f 782/5/6 783/5/6 785/5/6
f 785/5/6 783/5/6 786/5/6
f 787/5/6 788/5/6 791/5/6
f 791/5/6 788/5/6 792/5/6
f 789/5/6 790/5/6 794/5/6
f 794/5/6 790/5/6 795/5/6
f 792/5/6 793/5/6 799/5/6
f 799/5/6 793/5/6 800/5/6
f 796/5/6 797/5/6 801/5/6
f 801/5/6 797/5/6 802/5/6
f 798/5/6 799/5/6 804/5/6
f 804/5/6 799/5/6 805/5/6
f 803/5/6 804/5/6 806/5/6
f 806/5/6 804/5/6 807/5/6
f 808/5/6 809/5/6 811/5/6
f 810/5/6 811/5/6 812/5/6
f 811/5/6 809/5/6 813/5/6
f 812/5/6 811/5/6 813/5/6
f 813/5/6 809/5/6 814/5/6
f 814/5/6 809/5/6 815/5/6
f 813/5/6 814/5/6 816/5/6
f 816/5/6 814/5/6 817/5/6
