# generated by tools/rig_people.py — do not edit
mtllib people.mtl
o leg-l
usemtl palette
v -3 0 -1.5
v -3 0 1.5
v -3 1 1.5
v -3 1 -1.5
v -3 1 -0.5
v -3 4 1.5
v -3 4 -0.5
v -3 7 1.5
v -3 7 -0.5
v -1 1 -1.5
v -1 1 1.5
v -1 0 1.5
v -1 0 -1.5
v -1 4 -0.5
v -1 4 1.5
v -1 1 -0.5
v -1 7 -0.5
v -1 7 1.5
vt 0.0292969 0.5
vt 0.0410156 0.5
vn -1 0 0
vn 1 0 0
vn 0 0 1
vn 0 0 -1
vn 0 1 0
vn 0 -1 0
f 1/1/1 2/1/1 3/1/1 4/1/1
f 5/2/1 3/2/1 6/2/1 7/2/1
f 7/1/1 6/1/1 8/1/1 9/1/1
f 10/1/2 11/1/2 12/1/2 13/1/2
f 14/2/2 15/2/2 11/2/2 16/2/2
f 17/1/2 18/1/2 15/1/2 14/1/2
f 11/1/3 3/1/3 2/1/3 12/1/3
f 15/2/3 6/2/3 3/2/3 11/2/3
f 18/1/3 8/1/3 6/1/3 15/1/3
f 13/1/4 1/1/4 4/1/4 10/1/4
f 16/2/4 5/2/4 7/2/4 14/2/4
f 14/1/4 7/1/4 9/1/4 17/1/4
f 10/1/5 4/1/5 5/1/5 16/1/5
f 17/1/5 9/1/5 8/1/5 18/1/5
f 12/1/6 2/1/6 1/1/6 13/1/6
