# generated by tools/rig_people.py — do not edit
mtllib people.mtl
o arm-l
usemtl palette
v -5 6 -0.5
v -5 6 1.5
v -5 8 1.5
v -5 8 -0.5
v -5 9 1.5
v -5 9 -0.5
v -5 11 1.5
v -5 11 -0.5
v -5 14 1.5
v -5 14 -0.5
v -3 8 -0.5
v -3 8 1.5
v -3 6 1.5
v -3 6 -0.5
v -3 9 -0.5
v -3 9 1.5
v -3 11 -0.5
v -3 11 1.5
v -3 14 -0.5
v -3 14 1.5
vt 0.0410156 0.5
vt 0.5292969 0.5
vt 0.9785156 0.5
vn -1 0 0
vn 1 0 0
vn 0 0 1
vn 0 0 -1
vn 0 1 0
vn 0 -1 0
f 1/1/1 2/1/1 3/1/1 4/1/1
f 4/2/1 3/2/1 5/2/1 6/2/1
f 6/1/1 5/1/1 7/1/1 8/1/1
f 8/3/1 7/3/1 9/3/1 10/3/1
f 11/1/2 12/1/2 13/1/2 14/1/2
f 15/2/2 16/2/2 12/2/2 11/2/2
f 17/1/2 18/1/2 16/1/2 15/1/2
f 19/3/2 20/3/2 18/3/2 17/3/2
f 12/1/3 3/1/3 2/1/3 13/1/3
f 16/2/3 5/2/3 3/2/3 12/2/3
f 18/1/3 7/1/3 5/1/3 16/1/3
f 20/3/3 9/3/3 7/3/3 18/3/3
f 14/1/4 1/1/4 4/1/4 11/1/4
f 11/2/4 4/2/4 6/2/4 15/2/4
f 15/1/4 6/1/4 8/1/4 17/1/4
f 17/3/4 8/3/4 10/3/4 19/3/4
f 19/3/5 10/3/5 9/3/5 20/3/5
f 13/1/6 2/1/6 1/1/6 14/1/6
