# generated by tools/rig_people.py — do not edit
mtllib people.mtl
o body
usemtl palette
v -1 14 -1.5
v -1 14 0.5
v -1 15 0.5
v -1 15 -1.5
v -2 15 -3.5
v -2 15 1.5
v -2 17 1.5
v -2 17 -3.5
v -2 11 -2.5
v -2 11 -1.5
v -2 12 -1.5
v -2 12 -2.5
v -2 12 1.5
v -2 14 1.5
v -2 14 -2.5
v -2 7 -1.5
v -2 7 1.5
v -2 8 1.5
v -2 8 -1.5
v -2 8 -0.5
v -2 10 -0.5
v -2 10 -1.5
v -2 10 1.5
v -2 17 2.5
v -2 18 2.5
v -2 18 1.5
v -3 17 -3.5
v -3 17 1.5
v -3 18 1.5
v -3 18 -3.5
v -3 24 -3.5
v -3 24 -2.5
v -3 25 -2.5
v -3 25 -3.5
v -3 24 2.5
v -3 24 3.5
v -3 25 3.5
v -3 25 2.5
v -4 18 -3.5
v -4 18 3.5
v -4 24 3.5
v -4 24 -3.5
v -4 24 -2.5
v -4 24 2.5
v -4 25 2.5
v -4 25 -2.5
v 4 22 -3.5
v 4 22 3.5
v 4 18 3.5
v 4 18 -3.5
v 4 24 -3.5
v 4 24 -2.5
v 4 22 -2.5
v 4 24 3.5
v 4 25 -2.5
v 4 25 2.5
v 4 24 2.5
v 3 18 -3.5
v 3 18 1.5
v 3 17 1.5
v 3 17 -3.5
v 3 25 -3.5
v 3 25 -2.5
v 3 24 -2.5
v 3 24 -3.5
v 3 25 2.5
v 3 25 3.5
v 3 24 3.5
v 3 24 2.5
v 2 17 -3.5
v 2 17 1.5
v 2 15 1.5
v 2 15 -3.5
v 2 12 -2.5
v 2 12 -1.5
v 2 11 -1.5
v 2 11 -2.5
v 2 14 -2.5
v 2 14 1.5
v 2 12 1.5
v 2 7 1.5
v 2 7 -1.5
v 2 18 1.5
v 2 18 2.5
v 2 17 2.5
v 1 15 -1.5
v 1 15 0.5
v 1 14 0.5
v 1 14 -1.5
v 3 22 -3.5
v 1 18 -3.5
v 1 20 -3.5
v 3 20 -3.5
v 2 20 -3.5
v 2 22 -3.5
v -4 22 -3.5
v -4 23 -3.5
v 3 23 -3.5
v 2 23 -3.5
v 2 25 -3.5
v -2 16 -3.5
v 2 16 -3.5
v 1 16 -3.5
v 1 17 -3.5
v 1 22 -3.5
v 2 24 -3.5
v 1 24 -3.5
v 1 25 -3.5
v -1 16 -3.5
v -1 17 -3.5
v -1 18 -3.5
v -1 22 -3.5
v -3 20 -3.5
v -1 20 -3.5
v -2 20 -3.5
v -2 22 -3.5
v -3 22 -3.5
v 2 8 -1.5
v -1 8 -1.5
v -1 10 -1.5
v 2 10 -1.5
v 1 10 -1.5
v 1 11 -1.5
v -1 11 -1.5
v -2 14 -1.5
v 2 14 -1.5
v 1 14 1.5
v -2 14 0.5
v 1 25 -2.5
v 2 15 -1.5
v -2 15 -1.5
v 1 15 1.5
v -2 15 0.5
v 3 18 3.5
v 2 18 3.5
v -4 18 2.5
v -4 18 1.5
vt 0.3613281 0.5
vt 0.3574219 0.5
vt 0.3496094 0.5
vt 0.5292969 0.5
vt 0.9824219 0.5
vt 0.3652344 0.5
vn -1 0 0
vn 1 0 0
vn 0 0 1
vn 0 0 -1
vn 0 1 0
vn 0 -1 0
f 1/1/1 2/1/1 3/1/1 4/1/1
f 5/2/1 6/2/1 7/2/1 8/2/1
f 9/1/1 10/1/1 11/1/1 12/1/1
f 12/2/1 13/2/1 14/2/1 15/2/1
f 16/2/1 17/2/1 18/2/1 19/2/1
f 19/3/1 20/3/1 21/3/1 22/3/1
f 22/2/1 23/2/1 13/2/1 11/2/1
f 20/2/1 18/2/1 23/2/1 21/2/1
f 7/2/1 24/2/1 25/2/1 26/2/1
f 27/2/1 28/2/1 29/2/1 30/2/1
f 31/2/1 32/2/1 33/2/1 34/2/1
f 35/2/1 36/2/1 37/2/1 38/2/1
f 39/2/1 40/2/1 41/2/1 42/2/1
f 43/2/1 44/2/1 45/2/1 46/2/1
f 47/2/2 48/2/2 49/2/2 50/2/2
f 51/3/2 52/3/2 53/3/2 47/3/2
f 52/2/2 54/2/2 48/2/2 53/2/2
f 55/2/2 56/2/2 57/2/2 52/2/2
f 58/2/2 59/2/2 60/2/2 61/2/2
f 62/3/2 63/3/2 64/3/2 65/3/2
f 66/2/2 67/2/2 68/2/2 69/2/2
f 70/2/2 71/2/2 72/2/2 73/2/2
f 74/1/2 75/1/2 76/1/2 77/1/2
f 78/2/2 79/2/2 80/2/2 74/2/2
f 75/2/2 80/2/2 81/2/2 82/2/2
f 83/2/2 84/2/2 85/2/2 71/2/2
f 86/1/2 87/1/2 88/1/2 89/1/2
f 87/1/3 3/1/3 2/1/3 88/1/3
f 59/2/3 83/2/3 71/2/3 60/2/3
f 79/2/3 14/2/3 17/2/3 81/2/3
f 71/2/3 7/2/3 6/2/3 72/2/3
f 26/2/3 29/2/3 28/2/3 7/2/3
f 56/2/3 66/2/3 69/2/3 57/2/3
f 84/2/3 25/2/3 24/2/3 85/2/3
f 38/2/3 45/2/3 44/2/3 35/2/3
f 54/2/3 41/2/3 40/2/3 49/2/3
f 67/2/3 37/2/3 36/2/3 68/2/3
f 50/2/4 58/2/4 90/2/4 47/2/4
f 47/3/4 90/3/4 65/3/4 51/3/4
f 61/2/4 27/2/4 30/2/4 58/2/4
f 58/4/4 91/4/4 92/4/4 93/4/4
f 93/5/4 94/5/4 95/5/4 90/5/4
f 90/2/4 96/2/4 97/2/4 98/2/4
f 98/3/4 99/3/4 100/3/4 62/3/4
f 73/2/4 5/2/4 101/2/4 102/2/4
f 102/2/4 103/2/4 104/2/4 70/2/4
f 94/4/4 92/4/4 105/4/4 95/4/4
f 99/2/4 97/2/4 42/2/4 106/2/4
f 106/3/4 107/3/4 108/3/4 100/3/4
f 103/6/4 109/6/4 110/6/4 104/6/4
f 91/2/4 111/2/4 112/2/4 105/2/4
f 107/2/4 31/2/4 34/2/4 108/2/4
f 109/2/4 101/2/4 8/2/4 110/2/4
f 111/4/4 30/4/4 113/4/4 114/4/4
f 114/4/4 115/4/4 116/4/4 112/4/4
f 115/5/4 113/5/4 117/5/4 116/5/4
f 30/2/4 39/2/4 96/2/4 117/2/4
f 52/2/4 64/2/4 63/2/4 55/2/4
f 77/1/4 9/1/4 12/1/4 74/1/4
f 74/2/4 12/2/4 15/2/4 78/2/4
f 32/2/4 43/2/4 46/2/4 33/2/4
f 82/2/4 16/2/4 19/2/4 118/2/4
f 118/2/4 119/2/4 120/2/4 121/2/4
f 121/2/4 122/2/4 123/2/4 76/2/4
f 122/1/4 120/1/4 124/1/4 123/1/4
f 89/1/4 1/1/4 4/1/4 86/1/4
f 119/3/4 19/3/4 22/3/4 120/3/4
f 120/2/4 22/2/4 10/2/4 124/2/4
f 78/2/5 15/2/5 125/2/5 126/2/5
f 126/2/5 89/2/5 127/2/5 79/2/5
f 88/2/5 128/2/5 14/2/5 127/2/5
f 1/2/5 125/2/5 128/2/5 2/2/5
f 51/3/5 65/3/5 64/3/5 52/3/5
f 57/2/5 69/2/5 68/2/5 54/2/5
f 31/2/5 42/2/5 43/2/5 32/2/5
f 35/2/5 44/2/5 41/2/5 36/2/5
f 55/2/5 46/2/5 45/2/5 56/2/5
f 62/3/5 108/3/5 129/3/5 63/3/5
f 66/2/5 38/2/5 37/2/5 67/2/5
f 108/2/5 34/2/5 33/2/5 129/2/5
f 81/2/6 17/2/6 16/2/6 82/2/6
f 76/1/6 10/1/6 9/1/6 77/1/6
f 130/2/6 131/2/6 5/2/6 73/2/6
f 72/2/6 132/2/6 86/2/6 130/2/6
f 132/2/6 6/2/6 133/2/6 87/2/6
f 3/2/6 133/2/6 131/2/6 4/2/6
f 60/2/6 71/2/6 70/2/6 61/2/6
f 85/2/6 24/2/6 7/2/6 71/2/6
f 7/2/6 28/2/6 27/2/6 8/2/6
f 49/2/6 134/2/6 58/2/6 50/2/6
f 134/2/6 135/2/6 83/2/6 59/2/6
f 135/2/6 40/2/6 136/2/6 84/2/6
f 25/2/6 136/2/6 137/2/6 26/2/6
f 29/2/6 137/2/6 39/2/6 30/2/6
