# MagicaVoxel @ Ephtracy

# group
o 

# material
mtllib Character-12.mtl
usemtl palette

# normals
vn -1 0 0
vn 1 0 0
vn 0 0 1
vn 0 0 -1
vn 0 -1 0
vn 0 1 0

# texcoords
vt 0.0371094 0.5
vt 0.0488281 0.5
vt 0.470703 0.5
vt 0.521484 0.5
vt 0.541016 0.5
vt 0.548828 0.5
vt 0.927734 0.5
vt 0.935547 0.5
vt 0.978516 0.5
vt 0.986328 0.5

# verts
v 1.4 0.6 5.8
v 1.4 0.6 5.6
v 1.4 1.2 5.8
v 1.4 1.2 5.6
v 1.4 1.4 5.8
v 1.4 1.4 5.6
v 1.5 1.6 5.9
v 1.5 1.6 5.8
v 1.5 1.6 5.7
v 1.5 1.6 5.4
v 1.5 1.9 6
v 1.5 1.9 5.9
v 1.5 1.9 5.8
v 1.5 1.9 5.7
v 1.5 2 6.1
v 1.5 2 6
v 1.5 2.1 6.3
v 1.5 2.1 6.1
v 1.5 2.1 5.8
v 1.5 2.1 5.4
v 1.5 2.2 6.3
v 1.5 2.2 6.1
v 1.5 2.3 6.1
v 1.5 2.3 6
v 1.5 2.3 5.5
v 1.5 2.3 5.4
v 1.5 2.4 6
v 1.5 2.4 5.8
v 1.5 2.4 5.5
v 1.6 0 5.9
v 1.6 0 5.6
v 1.6 0.1 5.9
v 1.6 0.1 5.8
v 1.6 0.2 5.8
v 1.6 0.2 5.6
v 1.6 0.4 5.8
v 1.6 0.4 5.6
v 1.6 0.6 5.8
v 1.6 0.6 5.6
v 1.6 0.7 5.9
v 1.6 0.7 5.8
v 1.6 0.7 5.6
v 1.6 0.7 5.5
v 1.6 1.2 5.9
v 1.6 1.2 5.8
v 1.6 1.2 5.6
v 1.6 1.3 5.9
v 1.6 1.3 5.8
v 1.6 1.4 5.9
v 1.6 1.4 5.8
v 1.6 1.4 5.6
v 1.6 1.4 5.5
v 1.6 1.5 6
v 1.6 1.5 5.5
v 1.6 1.6 6
v 1.6 1.6 5.9
v 1.6 1.6 5.8
v 1.6 1.6 5.7
v 1.6 1.6 5.5
v 1.6 1.8 6
v 1.6 1.8 5.9
v 1.6 1.9 6.1
v 1.6 1.9 6
v 1.6 1.9 5.9
v 1.6 2 6.1
v 1.6 2 6
v 1.6 2.1 6.4
v 1.6 2.1 6.3
v 1.6 2.2 6.4
v 1.6 2.2 6.3
v 1.6 2.3 6.1
v 1.6 2.3 6
v 1.6 2.3 5.5
v 1.6 2.3 5.4
v 1.6 2.4 6.1
v 1.6 2.4 6
v 1.6 2.4 5.8
v 1.6 2.4 5.5
v 1.6 2.4 5.4
v 1.6 2.5 6
v 1.6 2.5 5.8
v 1.6 2.5 5.5
v 1.7 1.7 5.4
v 1.7 1.7 5.3
v 1.7 1.9 5.4
v 1.7 1.9 5.3
v 1.7 2.4 5.5
v 1.7 2.4 5.4
v 1.7 2.5 5.5
v 1.7 2.5 5.4
v 1.8 1.3 5.1
v 1.8 1.3 5
v 1.8 1.4 5.8
v 1.8 1.4 5.6
v 1.8 1.4 5.2
v 1.8 1.4 5.1
v 1.8 1.5 5.8
v 1.8 1.5 5.6
v 1.8 1.5 5.3
v 1.8 1.5 5.2
v 1.8 1.6 5.1
v 1.8 1.6 5
v 1.8 1.7 5.3
v 1.8 1.9 5.4
v 1.8 1.9 5.3
v 1.8 1.9 5.1
v 1.8 2 5.4
v 1.8 2 5.3
v 2 0 5.9
v 2 0 5.6
v 2 0.1 5.9
v 2 0.1 5.8
v 2 0.2 5.8
v 2 0.2 5.6
v 2 0.4 5.8
v 2 0.4 5.6
v 2 0.7 5.8
v 2 0.7 5.6
v 2 1.9 6.1
v 2 1.9 6
v 2 2 6.1
v 2 2 6
v 1.8 0 5.9
v 1.8 0 5.6
v 1.8 0.1 5.9
v 1.8 0.1 5.8
v 1.8 0.2 5.8
v 1.8 0.2 5.6
v 1.8 0.4 5.8
v 1.8 0.4 5.6
v 1.8 0.7 5.8
v 1.8 0.7 5.6
v 1.8 1.9 6.1
v 1.8 1.9 6
v 1.8 2 6.1
v 1.8 2 6
v 1.9 1.3 5.1
v 1.9 1.3 5
v 1.9 1.4 5.1
v 1.9 1.4 5
v 1.9 1.8 5.2
v 1.9 1.8 5.1
v 1.9 1.9 5.2
v 1.9 1.9 5.1
v 2 1.4 5.8
v 2 1.4 5.6
v 2 1.4 5.2
v 2 1.4 5
v 2 1.5 5.8
v 2 1.5 5.6
v 2 1.5 5.3
v 2 1.5 5.2
v 2 1.6 5.1
v 2 1.6 5
v 2 1.7 5.3
v 2 1.8 5.2
v 2 1.8 5.1
v 2 1.9 5.3
v 2 1.9 5.2
v 2.1 1.7 5.4
v 2.1 1.7 5.3
v 2.1 2 5.4
v 2.1 2 5.3
v 2.1 2.4 5.5
v 2.1 2.4 5.4
v 2.1 2.5 5.5
v 2.1 2.5 5.4
v 2.2 0 5.9
v 2.2 0 5.6
v 2.2 0.1 5.9
v 2.2 0.1 5.8
v 2.2 0.2 5.8
v 2.2 0.2 5.6
v 2.2 0.4 5.8
v 2.2 0.4 5.6
v 2.2 0.6 5.8
v 2.2 0.6 5.6
v 2.2 0.7 5.9
v 2.2 0.7 5.8
v 2.2 0.7 5.6
v 2.2 0.7 5.5
v 2.2 1.2 5.9
v 2.2 1.2 5.8
v 2.2 1.2 5.6
v 2.2 1.3 5.9
v 2.2 1.3 5.8
v 2.2 1.4 5.9
v 2.2 1.4 5.8
v 2.2 1.4 5.6
v 2.2 1.4 5.5
v 2.2 1.5 6
v 2.2 1.5 5.5
v 2.2 1.6 6
v 2.2 1.6 5.9
v 2.2 1.6 5.8
v 2.2 1.6 5.7
v 2.2 1.6 5.5
v 2.2 1.8 6
v 2.2 1.8 5.9
v 2.2 1.9 6.1
v 2.2 1.9 6
v 2.2 2 6.1
v 2.2 2 6
v 2.2 2 5.9
v 2.2 2.1 6.4
v 2.2 2.1 6.3
v 2.2 2.2 6.4
v 2.2 2.2 6.3
v 2.2 2.3 6.1
v 2.2 2.3 6
v 2.2 2.3 5.5
v 2.2 2.3 5.4
v 2.2 2.4 6.1
v 2.2 2.4 6
v 2.2 2.4 5.8
v 2.2 2.4 5.5
v 2.2 2.4 5.4
v 2.2 2.5 6
v 2.2 2.5 5.8
v 2.2 2.5 5.5
v 2.3 1.6 5.9
v 2.3 1.6 5.8
v 2.3 1.6 5.7
v 2.3 1.6 5.4
v 2.3 1.9 5.8
v 2.3 1.9 5.7
v 2.3 2 6.1
v 2.3 2 5.9
v 2.3 2.1 6.3
v 2.3 2.1 6.1
v 2.3 2.1 5.8
v 2.3 2.1 5.4
v 2.3 2.2 6.3
v 2.3 2.2 6.1
v 2.3 2.3 6.1
v 2.3 2.3 6
v 2.3 2.3 5.5
v 2.3 2.3 5.4
v 2.3 2.4 6
v 2.3 2.4 5.8
v 2.3 2.4 5.5
v 2.4 0.6 5.8
v 2.4 0.6 5.6
v 2.4 1.2 5.8
v 2.4 1.2 5.6
v 2.4 1.4 5.8
v 2.4 1.4 5.6
v 1.6 2.1 6.4
v 1.6 2.2 6.4
v 2.2 2.1 6.4
v 2.2 2.2 6.4
v 1.5 2.1 6.3
v 1.5 2.2 6.3
v 1.6 2.1 6.3
v 1.6 2.2 6.3
v 2.2 2.1 6.3
v 2.2 2.2 6.3
v 2.3 2.1 6.3
v 2.3 2.2 6.3
v 1.5 2 6.1
v 1.5 2.1 6.1
v 1.5 2.2 6.1
v 1.5 2.3 6.1
v 1.6 1.9 6.1
v 1.6 2 6.1
v 1.6 2.3 6.1
v 1.6 2.4 6.1
v 1.7 2.2 6.1
v 1.7 2.4 6.1
v 1.8 1.9 6.1
v 1.8 2 6.1
v 1.8 2.3 6.1
v 1.8 2.4 6.1
v 1.9 2.2 6.1
v 1.9 2.3 6.1
v 1.9 2.4 6.1
v 2 1.9 6.1
v 2 2 6.1
v 2 2.3 6.1
v 2 2.4 6.1
v 2.1 2.2 6.1
v 2.1 2.3 6.1
v 2.2 1.9 6.1
v 2.2 2 6.1
v 2.2 2.3 6.1
v 2.2 2.4 6.1
v 2.3 2 6.1
v 2.3 2.1 6.1
v 2.3 2.2 6.1
v 2.3 2.3 6.1
v 1.5 1.9 6
v 1.5 2 6
v 1.5 2.3 6
v 1.5 2.4 6
v 1.6 1.5 6
v 1.6 1.6 6
v 1.6 1.8 6
v 1.6 1.9 6
v 1.6 2 6
v 1.6 2.3 6
v 1.6 2.4 6
v 1.6 2.5 6
v 1.7 1.6 6
v 1.7 1.8 6
v 1.7 1.9 6
v 1.7 2.4 6
v 1.8 1.6 6
v 1.8 1.7 6
v 1.8 1.8 6
v 1.8 1.9 6
v 1.8 2 6
v 1.8 2.4 6
v 1.9 2.4 6
v 2 1.6 6
v 2 1.7 6
v 2 1.8 6
v 2 1.9 6
v 2 2 6
v 2 2.4 6
v 2.1 1.6 6
v 2.1 1.8 6
v 2.1 1.9 6
v 2.2 1.5 6
v 2.2 1.6 6
v 2.2 1.8 6
v 2.2 1.9 6
v 2.2 2.3 6
v 2.2 2.4 6
v 2.2 2.5 6
v 2.3 2.3 6
v 2.3 2.4 6
v 1.5 1.6 5.9
v 1.5 1.9 5.9
v 1.6 0 5.9
v 1.6 0.1 5.9
v 1.6 0.7 5.9
v 1.6 1.2 5.9
v 1.6 1.3 5.9
v 1.6 1.4 5.9
v 1.6 1.6 5.9
v 1.6 1.8 5.9
v 1.6 1.9 5.9
v 1.7 0.9 5.9
v 1.7 1.1 5.9
v 1.7 1.2 5.9
v 1.7 1.3 5.9
v 1.7 1.4 5.9
v 1.8 0 5.9
v 1.8 0.1 5.9
v 2 0 5.9
v 2 0.1 5.9
v 2.1 0.9 5.9
v 2.1 1.1 5.9
v 2.1 1.2 5.9
v 2.1 1.3 5.9
v 2.1 1.4 5.9
v 2.2 0 5.9
v 2.2 0.1 5.9
v 2.2 0.7 5.9
v 2.2 1.2 5.9
v 2.2 1.3 5.9
v 2.2 1.4 5.9
v 2.2 1.6 5.9
v 2.2 1.8 5.9
v 2.2 2 5.9
v 2.3 1.6 5.9
v 2.3 2 5.9
v 1.4 0.6 5.8
v 1.4 1.2 5.8
v 1.4 1.4 5.8
v 1.6 0.1 5.8
v 1.6 0.2 5.8
v 1.6 0.4 5.8
v 1.6 0.6 5.8
v 1.6 0.7 5.8
v 1.6 1.2 5.8
v 1.6 1.3 5.8
v 1.6 1.4 5.8
v 1.8 0.1 5.8
v 1.8 0.2 5.8
v 1.8 0.4 5.8
v 1.8 0.7 5.8
v 1.8 1.4 5.8
v 1.8 1.5 5.8
v 2 0.1 5.8
v 2 0.2 5.8
v 2 0.4 5.8
v 2 0.7 5.8
v 2 1.4 5.8
v 2 1.5 5.8
v 2.2 0.1 5.8
v 2.2 0.2 5.8
v 2.2 0.4 5.8
v 2.2 0.6 5.8
v 2.2 0.7 5.8
v 2.2 1.2 5.8
v 2.2 1.3 5.8
v 2.2 1.4 5.8
v 2.4 0.6 5.8
v 2.4 1.2 5.8
v 2.4 1.4 5.8
v 1.8 1.5 5.3
v 1.8 1.7 5.3
v 2 1.5 5.3
v 2 1.7 5.3
v 1.8 1.4 5.2
v 1.8 1.5 5.2
v 2 1.4 5.2
v 2 1.5 5.2
v 1.8 1.3 5.1
v 1.8 1.4 5.1
v 1.9 1.3 5.1
v 1.9 1.4 5.1
v 1.4 0.6 5.6
v 1.4 1.2 5.6
v 1.4 1.4 5.6
v 1.6 0 5.6
v 1.6 0.2 5.6
v 1.6 0.4 5.6
v 1.6 0.6 5.6
v 1.6 0.7 5.6
v 1.6 1.2 5.6
v 1.6 1.4 5.6
v 1.8 0 5.6
v 1.8 0.2 5.6
v 1.8 0.4 5.6
v 1.8 0.7 5.6
v 1.8 1.4 5.6
v 1.8 1.5 5.6
v 2 0 5.6
v 2 0.2 5.6
v 2 0.4 5.6
v 2 0.7 5.6
v 2 1.4 5.6
v 2 1.5 5.6
v 2.2 0 5.6
v 2.2 0.2 5.6
v 2.2 0.4 5.6
v 2.2 0.6 5.6
v 2.2 0.7 5.6
v 2.2 1.2 5.6
v 2.2 1.4 5.6
v 2.4 0.6 5.6
v 2.4 1.2 5.6
v 2.4 1.4 5.6
v 1.5 2.3 5.5
v 1.5 2.4 5.5
v 1.6 0.7 5.5
v 1.6 1.4 5.5
v 1.6 1.5 5.5
v 1.6 1.6 5.5
v 1.6 2.3 5.5
v 1.6 2.4 5.5
v 1.6 2.5 5.5
v 1.7 1.2 5.5
v 1.7 1.4 5.5
v 1.7 2.4 5.5
v 1.7 2.5 5.5
v 2.1 1.2 5.5
v 2.1 1.4 5.5
v 2.1 2.4 5.5
v 2.1 2.5 5.5
v 2.2 0.7 5.5
v 2.2 1.4 5.5
v 2.2 1.5 5.5
v 2.2 1.6 5.5
v 2.2 2.3 5.5
v 2.2 2.4 5.5
v 2.2 2.5 5.5
v 2.3 2.3 5.5
v 2.3 2.4 5.5
v 1.5 1.6 5.4
v 1.5 2.1 5.4
v 1.5 2.3 5.4
v 1.6 2.3 5.4
v 1.6 2.4 5.4
v 1.7 1.7 5.4
v 1.7 1.9 5.4
v 1.7 2.4 5.4
v 1.7 2.5 5.4
v 1.8 1.9 5.4
v 1.8 2 5.4
v 2.1 1.7 5.4
v 2.1 2 5.4
v 2.1 2.4 5.4
v 2.1 2.5 5.4
v 2.2 2.3 5.4
v 2.2 2.4 5.4
v 2.3 1.6 5.4
v 2.3 2.1 5.4
v 2.3 2.3 5.4
v 1.7 1.7 5.3
v 1.7 1.9 5.3
v 1.8 1.7 5.3
v 1.8 1.9 5.3
v 1.8 2 5.3
v 2 1.7 5.3
v 2 1.9 5.3
v 2.1 1.7 5.3
v 2.1 2 5.3
v 1.9 1.8 5.2
v 1.9 1.9 5.2
v 2 1.8 5.2
v 2 1.9 5.2
v 1.8 1.6 5.1
v 1.8 1.9 5.1
v 1.9 1.8 5.1
v 1.9 1.9 5.1
v 2 1.6 5.1
v 2 1.8 5.1
v 1.8 1.3 5
v 1.8 1.6 5
v 1.9 1.3 5
v 1.9 1.4 5
v 2 1.4 5
v 2 1.6 5
v 1.6 0 5.9
v 1.8 0 5.9
v 2 0 5.9
v 2.2 0 5.9
v 1.6 0 5.6
v 1.8 0 5.6
v 2 0 5.6
v 2.2 0 5.6
v 1.4 0.6 5.8
v 1.6 0.6 5.8
v 2.2 0.6 5.8
v 2.4 0.6 5.8
v 1.4 0.6 5.6
v 1.6 0.6 5.6
v 2.2 0.6 5.6
v 2.4 0.6 5.6
v 1.6 0.7 5.9
v 2.2 0.7 5.9
v 1.6 0.7 5.8
v 1.8 0.7 5.8
v 2 0.7 5.8
v 2.2 0.7 5.8
v 1.6 0.7 5.6
v 1.8 0.7 5.6
v 2 0.7 5.6
v 2.2 0.7 5.6
v 1.6 0.7 5.5
v 2.2 0.7 5.5
v 1.8 1.3 5.1
v 1.9 1.3 5.1
v 1.8 1.3 5
v 1.9 1.3 5
v 1.8 1.4 5.2
v 2 1.4 5.2
v 1.8 1.4 5.1
v 1.9 1.4 5.1
v 1.9 1.4 5
v 2 1.4 5
v 1.6 1.5 6
v 2.2 1.5 6
v 1.8 1.5 5.8
v 2 1.5 5.8
v 1.8 1.5 5.6
v 2 1.5 5.6
v 1.6 1.5 5.5
v 2.2 1.5 5.5
v 1.8 1.5 5.3
v 2 1.5 5.3
v 1.8 1.5 5.2
v 2 1.5 5.2
v 1.5 1.6 5.9
v 1.6 1.6 5.9
v 2.2 1.6 5.9
v 2.3 1.6 5.9
v 1.5 1.6 5.8
v 1.6 1.6 5.8
v 2.2 1.6 5.8
v 2.3 1.6 5.8
v 1.5 1.6 5.7
v 1.6 1.6 5.7
v 2.2 1.6 5.7
v 2.3 1.6 5.7
v 1.6 1.6 5.5
v 2.2 1.6 5.5
v 1.5 1.6 5.4
v 2.3 1.6 5.4
v 1.7 1.7 5.4
v 2.1 1.7 5.4
v 1.7 1.7 5.3
v 1.8 1.7 5.3
v 2 1.7 5.3
v 2.1 1.7 5.3
v 1.6 1.9 6.1
v 1.8 1.9 6.1
v 2 1.9 6.1
v 2.2 1.9 6.1
v 1.5 1.9 6
v 1.6 1.9 6
v 1.7 1.9 6
v 1.8 1.9 6
v 2 1.9 6
v 2.1 1.9 6
v 2.2 1.9 6
v 1.5 1.9 5.9
v 1.6 1.9 5.9
v 1.5 2 6.1
v 1.6 2 6.1
v 1.8 2 6.1
v 2 2 6.1
v 2.2 2 6.1
v 2.3 2 6.1
v 1.5 2 6
v 1.6 2 6
v 1.8 2 6
v 2 2 6
v 2.2 2 6
v 2.2 2 5.9
v 2.3 2 5.9
v 1.6 2.1 6.4
v 2.2 2.1 6.4
v 1.5 2.1 6.3
v 1.6 2.1 6.3
v 2.2 2.1 6.3
v 2.3 2.1 6.3
v 1.5 2.1 6.1
v 2.3 2.1 6.1
v 1.6 0.1 5.9
v 1.8 0.1 5.9
v 2 0.1 5.9
v 2.2 0.1 5.9
v 1.6 0.1 5.8
v 1.8 0.1 5.8
v 2 0.1 5.8
v 2.2 0.1 5.8
v 1.6 1.4 5.9
v 1.7 1.4 5.9
v 2.1 1.4 5.9
v 2.2 1.4 5.9
v 1.4 1.4 5.8
v 1.6 1.4 5.8
v 1.8 1.4 5.8
v 2 1.4 5.8
v 2.2 1.4 5.8
v 2.4 1.4 5.8
v 1.4 1.4 5.6
v 1.6 1.4 5.6
v 1.8 1.4 5.6
v 2 1.4 5.6
v 2.2 1.4 5.6
v 2.4 1.4 5.6
v 1.6 1.4 5.5
v 1.7 1.4 5.5
v 2.1 1.4 5.5
v 2.2 1.4 5.5
v 1.8 1.6 5.1
v 2 1.6 5.1
v 1.8 1.6 5
v 2 1.6 5
v 1.9 1.8 5.2
v 2 1.8 5.2
v 1.9 1.8 5.1
v 2 1.8 5.1
v 1.7 1.9 5.4
v 1.8 1.9 5.4
v 1.7 1.9 5.3
v 1.8 1.9 5.3
v 2 1.9 5.3
v 1.9 1.9 5.2
v 2 1.9 5.2
v 1.8 1.9 5.1
v 1.9 1.9 5.1
v 1.8 2 5.4
v 2.1 2 5.4
v 1.8 2 5.3
v 2.1 2 5.3
v 1.6 2.2 6.4
v 2.2 2.2 6.4
v 1.5 2.2 6.3
v 1.6 2.2 6.3
v 2.2 2.2 6.3
v 2.3 2.2 6.3
v 1.5 2.2 6.1
v 1.7 2.2 6.1
v 1.9 2.2 6.1
v 2.1 2.2 6.1
v 2.3 2.2 6.1
v 1.5 2.3 6.1
v 1.6 2.3 6.1
v 2.2 2.3 6.1
v 2.3 2.3 6.1
v 1.5 2.3 6
v 1.6 2.3 6
v 2.2 2.3 6
v 2.3 2.3 6
v 1.5 2.3 5.5
v 1.6 2.3 5.5
v 2.2 2.3 5.5
v 2.3 2.3 5.5
v 1.5 2.3 5.4
v 1.6 2.3 5.4
v 2.2 2.3 5.4
v 2.3 2.3 5.4
v 1.6 2.4 6.1
v 1.7 2.4 6.1
v 1.8 2.4 6.1
v 1.9 2.4 6.1
v 2 2.4 6.1
v 2.2 2.4 6.1
v 1.5 2.4 6
v 1.6 2.4 6
v 1.7 2.4 6
v 1.8 2.4 6
v 1.9 2.4 6
v 2 2.4 6
v 2.2 2.4 6
v 2.3 2.4 6
v 1.5 2.4 5.8
v 1.6 2.4 5.8
v 2.2 2.4 5.8
v 2.3 2.4 5.8
v 1.5 2.4 5.5
v 1.6 2.4 5.5
v 1.7 2.4 5.5
v 2.1 2.4 5.5
v 2.2 2.4 5.5
v 2.3 2.4 5.5
v 1.6 2.4 5.4
v 1.7 2.4 5.4
v 2.1 2.4 5.4
v 2.2 2.4 5.4
v 1.6 2.5 6
v 2.2 2.5 6
v 1.6 2.5 5.8
v 2.2 2.5 5.8
v 1.6 2.5 5.5
v 1.7 2.5 5.5
v 2.1 2.5 5.5
v 2.2 2.5 5.5
v 1.7 2.5 5.4
v 2.1 2.5 5.4

# faces
f 3/1/1 2/1/1 1/1/1
f 4/1/1 2/1/1 3/1/1
f 5/9/1 4/9/1 3/9/1
f 6/9/1 4/9/1 5/9/1
f 12/3/1 8/3/1 7/3/1
f 13/2/1 9/2/1 8/2/1
f 13/3/1 8/3/1 12/3/1
f 14/3/1 10/3/1 9/3/1
f 14/2/1 9/2/1 13/2/1
f 16/3/1 13/3/1 12/3/1
f 16/3/1 12/3/1 11/3/1
f 16/3/1 14/3/1 13/3/1
f 18/3/1 16/3/1 15/3/1
f 19/3/1 14/3/1 16/3/1
f 19/3/1 16/3/1 18/3/1
f 20/3/1 10/3/1 14/3/1
f 20/3/1 14/3/1 19/3/1
f 21/8/1 19/8/1 18/8/1
f 21/8/1 18/8/1 17/8/1
f 22/8/1 19/8/1 21/8/1
f 23/8/1 19/8/1 22/8/1
f 24/8/1 19/8/1 23/8/1
f 25/9/1 20/9/1 19/9/1
f 26/9/1 20/9/1 25/9/1
f 27/8/1 19/8/1 24/8/1
f 28/9/1 25/9/1 19/9/1
f 28/8/1 19/8/1 27/8/1
f 29/9/1 25/9/1 28/9/1
f 32/3/1 31/3/1 30/3/1
f 33/3/1 31/3/1 32/3/1
f 34/3/1 31/3/1 33/3/1
f 35/3/1 31/3/1 34/3/1
f 36/1/1 35/1/1 34/1/1
f 37/1/1 35/1/1 36/1/1
f 38/8/1 37/8/1 36/8/1
f 39/8/1 37/8/1 38/8/1
f 44/8/1 41/8/1 40/8/1
f 45/8/1 41/8/1 44/8/1
f 46/8/1 43/8/1 42/8/1
f 47/10/1 45/10/1 44/10/1
f 48/10/1 45/10/1 47/10/1
f 49/8/1 48/8/1 47/8/1
f 50/8/1 48/8/1 49/8/1
f 51/8/1 43/8/1 46/8/1
f 52/8/1 43/8/1 51/8/1
f 55/1/1 54/1/1 53/1/1
f 56/1/1 54/1/1 55/1/1
f 57/1/1 54/1/1 56/1/1
f 58/1/1 54/1/1 57/1/1
f 59/1/1 54/1/1 58/1/1
f 60/5/1 56/5/1 55/5/1
f 61/5/1 56/5/1 60/5/1
f 63/1/1 61/1/1 60/1/1
f 64/1/1 61/1/1 63/1/1
f 65/3/1 63/3/1 62/3/1
f 66/3/1 63/3/1 65/3/1
f 69/8/1 68/8/1 67/8/1
f 70/8/1 68/8/1 69/8/1
f 75/8/1 72/8/1 71/8/1
f 76/8/1 72/8/1 75/8/1
f 78/9/1 74/9/1 73/9/1
f 79/9/1 74/9/1 78/9/1
f 80/8/1 77/8/1 76/8/1
f 81/9/1 78/9/1 77/9/1
f 81/8/1 77/8/1 80/8/1
f 82/9/1 78/9/1 81/9/1
f 85/3/1 84/3/1 83/3/1
f 86/3/1 84/3/1 85/3/1
f 89/9/1 88/9/1 87/9/1
f 90/9/1 88/9/1 89/9/1
f 96/3/1 92/3/1 91/3/1
f 97/1/1 94/1/1 93/1/1
f 98/1/1 94/1/1 97/1/1
f 100/3/1 96/3/1 95/3/1
f 101/3/1 100/3/1 99/3/1
f 101/3/1 96/3/1 100/3/1
f 101/3/1 92/3/1 96/3/1
f 102/3/1 92/3/1 101/3/1
f 103/3/1 101/3/1 99/3/1
f 105/3/1 101/3/1 103/3/1
f 106/3/1 101/3/1 105/3/1
f 107/3/1 105/3/1 104/3/1
f 108/3/1 105/3/1 107/3/1
f 111/3/1 110/3/1 109/3/1
f 112/3/1 110/3/1 111/3/1
f 113/3/1 110/3/1 112/3/1
f 114/3/1 110/3/1 113/3/1
f 115/1/1 114/1/1 113/1/1
f 116/1/1 114/1/1 115/1/1
f 117/8/1 116/8/1 115/8/1
f 118/8/1 116/8/1 117/8/1
f 121/3/1 120/3/1 119/3/1
f 122/3/1 120/3/1 121/3/1
f 123/3/2 124/3/2 125/3/2
f 125/3/2 124/3/2 126/3/2
f 126/3/2 124/3/2 127/3/2
f 127/3/2 124/3/2 128/3/2
f 127/1/2 128/1/2 129/1/2
f 129/1/2 128/1/2 130/1/2
f 129/8/2 130/8/2 131/8/2
f 131/8/2 130/8/2 132/8/2
f 133/3/2 134/3/2 135/3/2
f 135/3/2 134/3/2 136/3/2
f 137/3/2 138/3/2 139/3/2
f 139/3/2 138/3/2 140/3/2
f 141/3/2 142/3/2 143/3/2
f 143/3/2 142/3/2 144/3/2
f 145/1/2 146/1/2 149/1/2
f 149/1/2 146/1/2 150/1/2
f 147/3/2 148/3/2 152/3/2
f 151/3/2 152/3/2 153/3/2
f 152/3/2 148/3/2 153/3/2
f 153/3/2 148/3/2 154/3/2
f 151/3/2 153/3/2 155/3/2
f 155/3/2 153/3/2 156/3/2
f 156/3/2 153/3/2 157/3/2
f 155/3/2 156/3/2 158/3/2
f 158/3/2 156/3/2 159/3/2
f 160/3/2 161/3/2 162/3/2
f 162/3/2 161/3/2 163/3/2
f 164/9/2 165/9/2 166/9/2
f 166/9/2 165/9/2 167/9/2
f 168/3/2 169/3/2 170/3/2
f 170/3/2 169/3/2 171/3/2
f 171/3/2 169/3/2 172/3/2
f 172/3/2 169/3/2 173/3/2
f 172/1/2 173/1/2 174/1/2
f 174/1/2 173/1/2 175/1/2
f 174/8/2 175/8/2 176/8/2
f 176/8/2 175/8/2 177/8/2
f 178/8/2 179/8/2 182/8/2
f 182/8/2 179/8/2 183/8/2
f 180/8/2 181/8/2 184/8/2
f 182/10/2 183/10/2 185/10/2
f 185/10/2 183/10/2 186/10/2
f 185/8/2 186/8/2 187/8/2
f 187/8/2 186/8/2 188/8/2
f 184/8/2 181/8/2 189/8/2
f 189/8/2 181/8/2 190/8/2
f 191/1/2 192/1/2 193/1/2
f 193/1/2 192/1/2 194/1/2
f 194/1/2 192/1/2 195/1/2
f 195/1/2 192/1/2 196/1/2
f 196/1/2 192/1/2 197/1/2
f 193/5/2 194/5/2 198/5/2
f 198/5/2 194/5/2 199/5/2
f 198/1/2 199/1/2 201/1/2
f 200/3/2 201/3/2 202/3/2
f 201/1/2 199/1/2 203/1/2
f 202/3/2 201/3/2 203/3/2
f 203/1/2 199/1/2 204/1/2
f 205/8/2 206/8/2 207/8/2
f 207/8/2 206/8/2 208/8/2
f 209/8/2 210/8/2 213/8/2
f 213/8/2 210/8/2 214/8/2
f 211/9/2 212/9/2 216/9/2
f 216/9/2 212/9/2 217/9/2
f 214/8/2 215/8/2 218/8/2
f 215/9/2 216/9/2 219/9/2
f 218/8/2 215/8/2 219/8/2
f 219/9/2 216/9/2 220/9/2
f 221/3/2 222/3/2 225/3/2
f 222/2/2 223/2/2 225/2/2
f 223/3/2 224/3/2 226/3/2
f 225/2/2 223/2/2 226/2/2
f 221/3/2 225/3/2 228/3/2
f 225/3/2 226/3/2 228/3/2
f 227/3/2 228/3/2 230/3/2
f 228/3/2 226/3/2 231/3/2
f 230/3/2 228/3/2 231/3/2
f 226/3/2 224/3/2 232/3/2
f 231/3/2 226/3/2 232/3/2
f 230/8/2 231/8/2 233/8/2
f 229/8/2 230/8/2 233/8/2
f 233/8/2 231/8/2 234/8/2
f 234/8/2 231/8/2 235/8/2
f 235/8/2 231/8/2 236/8/2
f 231/9/2 232/9/2 237/9/2
f 237/9/2 232/9/2 238/9/2
f 236/8/2 231/8/2 239/8/2
f 231/9/2 237/9/2 240/9/2
f 239/8/2 231/8/2 240/8/2
f 240/9/2 237/9/2 241/9/2
f 242/1/2 243/1/2 244/1/2
f 244/1/2 243/1/2 245/1/2
f 244/9/2 245/9/2 246/9/2
f 246/9/2 245/9/2 247/9/2
f 250/8/3 249/8/3 248/8/3
f 251/8/3 249/8/3 250/8/3
f 254/8/3 253/8/3 252/8/3
f 255/8/3 253/8/3 254/8/3
f 258/8/3 257/8/3 256/8/3
f 259/8/3 257/8/3 258/8/3
f 265/3/3 261/3/3 260/3/3
f 266/8/3 263/8/3 262/8/3
f 268/8/3 266/8/3 262/8/3
f 268/8/3 267/8/3 266/8/3
f 269/8/3 267/8/3 268/8/3
f 270/3/3 265/3/3 264/3/3
f 271/3/3 261/3/3 265/3/3
f 271/3/3 265/3/3 270/3/3
f 272/9/3 269/9/3 268/9/3
f 273/9/3 269/9/3 272/9/3
f 274/9/3 272/9/3 268/9/3
f 275/8/3 273/8/3 272/8/3
f 275/9/3 272/9/3 274/9/3
f 276/8/3 273/8/3 275/8/3
f 278/3/3 261/3/3 271/3/3
f 279/4/3 275/4/3 274/4/3
f 279/4/3 276/4/3 275/4/3
f 280/4/3 276/4/3 279/4/3
f 281/4/3 279/4/3 274/4/3
f 282/8/3 280/8/3 279/8/3
f 282/4/3 279/4/3 281/4/3
f 283/3/3 278/3/3 277/3/3
f 284/3/3 261/3/3 278/3/3
f 284/3/3 278/3/3 283/3/3
f 285/8/3 280/8/3 282/8/3
f 285/8/3 282/8/3 281/8/3
f 286/8/3 280/8/3 285/8/3
f 287/3/3 261/3/3 284/3/3
f 288/3/3 261/3/3 287/3/3
f 289/8/3 285/8/3 281/8/3
f 290/8/3 285/8/3 289/8/3
f 298/3/3 292/3/3 291/3/3
f 299/3/3 292/3/3 298/3/3
f 300/8/3 294/8/3 293/8/3
f 301/8/3 294/8/3 300/8/3
f 303/5/3 297/5/3 296/5/3
f 303/1/3 296/1/3 295/1/3
f 304/1/3 298/1/3 297/1/3
f 304/5/3 297/5/3 303/5/3
f 305/1/3 298/1/3 304/1/3
f 306/8/3 302/8/3 301/8/3
f 307/1/3 303/1/3 295/1/3
f 307/1/3 304/1/3 303/1/3
f 308/1/3 304/1/3 307/1/3
f 309/4/3 305/4/3 304/4/3
f 309/1/3 304/1/3 308/1/3
f 310/4/3 305/4/3 309/4/3
f 312/8/3 302/8/3 306/8/3
f 313/8/3 302/8/3 312/8/3
f 314/6/3 308/6/3 307/6/3
f 314/1/3 307/1/3 295/1/3
f 315/1/3 311/1/3 310/1/3
f 315/6/3 308/6/3 314/6/3
f 315/1/3 309/1/3 308/1/3
f 315/1/3 310/1/3 309/1/3
f 316/1/3 311/1/3 315/1/3
f 317/1/3 311/1/3 316/1/3
f 318/1/3 311/1/3 317/1/3
f 319/8/3 302/8/3 313/8/3
f 320/1/3 314/1/3 295/1/3
f 320/1/3 315/1/3 314/1/3
f 320/1/3 316/1/3 315/1/3
f 321/4/3 317/4/3 316/4/3
f 321/1/3 316/1/3 320/1/3
f 322/4/3 317/4/3 321/4/3
f 323/1/3 320/1/3 295/1/3
f 324/5/3 321/5/3 320/5/3
f 324/1/3 320/1/3 323/1/3
f 325/1/3 322/1/3 321/1/3
f 325/5/3 321/5/3 324/5/3
f 326/1/3 322/1/3 325/1/3
f 328/8/3 302/8/3 319/8/3
f 329/8/3 302/8/3 328/8/3
f 330/8/3 328/8/3 327/8/3
f 331/8/3 328/8/3 330/8/3
f 340/3/3 333/3/3 332/3/3
f 341/3/3 333/3/3 340/3/3
f 342/3/3 333/3/3 341/3/3
f 343/8/3 337/8/3 336/8/3
f 344/8/3 337/8/3 343/8/3
f 345/10/3 338/10/3 337/10/3
f 345/8/3 337/8/3 344/8/3
f 346/8/3 339/8/3 338/8/3
f 346/10/3 338/10/3 345/10/3
f 347/8/3 339/8/3 346/8/3
f 348/3/3 335/3/3 334/3/3
f 349/3/3 335/3/3 348/3/3
f 352/7/3 344/7/3 343/7/3
f 352/8/3 343/8/3 336/8/3
f 353/8/3 345/8/3 344/8/3
f 353/7/3 344/7/3 352/7/3
f 354/9/3 346/9/3 345/9/3
f 354/8/3 345/8/3 353/8/3
f 354/9/3 347/9/3 346/9/3
f 355/9/3 347/9/3 354/9/3
f 356/9/3 347/9/3 355/9/3
f 357/3/3 351/3/3 350/3/3
f 358/3/3 351/3/3 357/3/3
f 359/8/3 352/8/3 336/8/3
f 359/8/3 353/8/3 352/8/3
f 359/8/3 354/8/3 353/8/3
f 360/10/3 355/10/3 354/10/3
f 360/8/3 354/8/3 359/8/3
f 361/8/3 356/8/3 355/8/3
f 361/10/3 355/10/3 360/10/3
f 362/8/3 356/8/3 361/8/3
f 366/3/3 365/3/3 364/3/3
f 366/3/3 364/3/3 363/3/3
f 367/3/3 365/3/3 366/3/3
f 374/1/3 369/1/3 368/1/3
f 375/1/3 369/1/3 374/1/3
f 376/9/3 370/9/3 369/9/3
f 376/1/3 369/1/3 375/1/3
f 377/9/3 370/9/3 376/9/3
f 378/9/3 370/9/3 377/9/3
f 379/3/3 372/3/3 371/3/3
f 380/1/3 373/1/3 372/1/3
f 380/3/3 372/3/3 379/3/3
f 381/8/3 375/8/3 374/8/3
f 381/1/3 373/1/3 380/1/3
f 381/8/3 374/8/3 373/8/3
f 382/8/3 375/8/3 381/8/3
f 389/1/3 384/1/3 383/1/3
f 390/1/3 384/1/3 389/1/3
f 391/3/3 386/3/3 385/3/3
f 392/1/3 387/1/3 386/1/3
f 392/3/3 386/3/3 391/3/3
f 393/8/3 388/8/3 387/8/3
f 393/1/3 387/1/3 392/1/3
f 394/8/3 388/8/3 393/8/3
f 395/8/3 388/8/3 394/8/3
f 399/1/3 396/1/3 395/1/3
f 399/1/3 395/1/3 394/1/3
f 400/9/3 398/9/3 397/9/3
f 400/1/3 396/1/3 399/1/3
f 400/9/3 397/9/3 396/9/3
f 401/9/3 398/9/3 400/9/3
f 404/3/3 403/3/3 402/3/3
f 405/3/3 403/3/3 404/3/3
f 408/3/3 407/3/3 406/3/3
f 409/3/3 407/3/3 408/3/3
f 412/3/3 411/3/3 410/3/3
f 413/3/3 411/3/3 412/3/3
f 414/1/4 415/1/4 420/1/4
f 420/1/4 415/1/4 421/1/4
f 415/9/4 416/9/4 422/9/4
f 421/1/4 415/1/4 422/1/4
f 422/9/4 416/9/4 423/9/4
f 417/3/4 418/3/4 424/3/4
f 418/1/4 419/1/4 425/1/4
f 424/3/4 418/3/4 425/3/4
f 420/8/4 421/8/4 426/8/4
f 425/1/4 419/1/4 426/1/4
f 419/8/4 420/8/4 426/8/4
f 426/8/4 421/8/4 427/8/4
f 428/1/4 429/1/4 434/1/4
f 434/1/4 429/1/4 435/1/4
f 430/3/4 431/3/4 436/3/4
f 431/1/4 432/1/4 437/1/4
f 436/3/4 431/3/4 437/3/4
f 432/8/4 433/8/4 438/8/4
f 437/1/4 432/1/4 438/1/4
f 438/8/4 433/8/4 439/8/4
f 439/8/4 433/8/4 440/8/4
f 440/1/4 441/1/4 443/1/4
f 439/1/4 440/1/4 443/1/4
f 441/9/4 442/9/4 444/9/4
f 443/1/4 441/1/4 444/1/4
f 444/9/4 442/9/4 445/9/4
f 446/9/4 447/9/4 452/9/4
f 452/9/4 447/9/4 453/9/4
f 448/8/4 449/8/4 455/8/4
f 455/8/4 449/8/4 456/8/4
f 453/9/4 454/9/4 457/9/4
f 457/9/4 454/9/4 458/9/4
f 455/9/4 456/9/4 459/9/4
f 448/8/4 455/8/4 459/8/4
f 459/9/4 456/9/4 460/9/4
f 448/8/4 459/8/4 463/8/4
f 459/8/4 460/8/4 463/8/4
f 463/8/4 460/8/4 464/8/4
f 450/1/4 451/1/4 465/1/4
f 465/1/4 451/1/4 466/1/4
f 461/9/4 462/9/4 468/9/4
f 468/9/4 462/9/4 469/9/4
f 467/9/4 468/9/4 470/9/4
f 470/9/4 468/9/4 471/9/4
f 473/9/4 474/9/4 475/9/4
f 472/3/4 473/3/4 477/3/4
f 477/3/4 473/3/4 478/3/4
f 475/9/4 476/9/4 479/9/4
f 478/3/4 473/3/4 481/3/4
f 481/3/4 473/3/4 482/3/4
f 472/3/4 477/3/4 483/3/4
f 482/3/4 473/3/4 484/3/4
f 479/9/4 480/9/4 485/9/4
f 475/9/4 479/9/4 485/9/4
f 485/9/4 480/9/4 486/9/4
f 473/9/4 475/9/4 487/9/4
f 475/9/4 485/9/4 487/9/4
f 487/9/4 485/9/4 488/9/4
f 483/3/4 484/3/4 489/3/4
f 472/3/4 483/3/4 489/3/4
f 473/9/4 487/9/4 490/9/4
f 489/3/4 484/3/4 490/3/4
f 484/3/4 473/3/4 490/3/4
f 490/9/4 487/9/4 491/9/4
f 492/3/4 493/3/4 494/3/4
f 494/3/4 493/3/4 495/3/4
f 495/3/4 496/3/4 498/3/4
f 497/3/4 498/3/4 499/3/4
f 498/3/4 496/3/4 500/3/4
f 499/3/4 498/3/4 500/3/4
f 501/3/4 502/3/4 503/3/4
f 503/3/4 502/3/4 504/3/4
f 505/3/4 506/3/4 507/3/4
f 507/3/4 506/3/4 508/3/4
f 505/3/4 507/3/4 509/3/4
f 509/3/4 507/3/4 510/3/4
f 511/3/4 512/3/4 513/3/4
f 513/3/4 512/3/4 514/3/4
f 514/3/4 512/3/4 515/3/4
f 515/3/4 512/3/4 516/3/4
f 521/3/5 518/3/5 517/3/5
f 522/3/5 518/3/5 521/3/5
f 523/3/5 520/3/5 519/3/5
f 524/3/5 520/3/5 523/3/5
f 529/1/5 526/1/5 525/1/5
f 530/1/5 526/1/5 529/1/5
f 531/1/5 528/1/5 527/1/5
f 532/1/5 528/1/5 531/1/5
f 535/8/5 534/8/5 533/8/5
f 536/8/5 534/8/5 535/8/5
f 537/8/5 534/8/5 536/8/5
f 538/8/5 534/8/5 537/8/5
f 540/8/5 537/8/5 536/8/5
f 541/8/5 537/8/5 540/8/5
f 543/8/5 540/8/5 539/8/5
f 543/8/5 542/8/5 541/8/5
f 543/8/5 541/8/5 540/8/5
f 544/8/5 542/8/5 543/8/5
f 547/3/5 546/3/5 545/3/5
f 548/3/5 546/3/5 547/3/5
f 551/3/5 550/3/5 549/3/5
f 552/3/5 550/3/5 551/3/5
f 553/3/5 550/3/5 552/3/5
f 554/3/5 550/3/5 553/3/5
f 557/1/5 556/1/5 555/1/5
f 558/1/5 556/1/5 557/1/5
f 559/1/5 557/1/5 555/1/5
f 560/1/5 556/1/5 558/1/5
f 561/1/5 559/1/5 555/1/5
f 561/1/5 560/1/5 559/1/5
f 562/1/5 556/1/5 560/1/5
f 562/1/5 560/1/5 561/1/5
f 565/3/5 564/3/5 563/3/5
f 566/3/5 564/3/5 565/3/5
f 571/3/5 568/3/5 567/3/5
f 572/3/5 568/3/5 571/3/5
f 573/3/5 570/3/5 569/3/5
f 574/3/5 570/3/5 573/3/5
f 575/2/5 572/2/5 571/2/5
f 576/2/5 572/2/5 575/2/5
f 577/2/5 574/2/5 573/2/5
f 578/2/5 574/2/5 577/2/5
f 579/3/5 576/3/5 575/3/5
f 580/3/5 578/3/5 577/3/5
f 581/3/5 579/3/5 575/3/5
f 581/3/5 580/3/5 579/3/5
f 582/3/5 578/3/5 580/3/5
f 582/3/5 580/3/5 581/3/5
f 585/3/5 584/3/5 583/3/5
f 586/3/5 584/3/5 585/3/5
f 587/3/5 584/3/5 586/3/5
f 588/3/5 584/3/5 587/3/5
f 594/3/5 590/3/5 589/3/5
f 595/3/5 590/3/5 594/3/5
f 596/3/5 590/3/5 595/3/5
f 597/3/5 592/3/5 591/3/5
f 598/3/5 592/3/5 597/3/5
f 599/3/5 592/3/5 598/3/5
f 600/3/5 594/3/5 593/3/5
f 601/3/5 594/3/5 600/3/5
f 608/3/5 603/3/5 602/3/5
f 609/3/5 603/3/5 608/3/5
f 610/3/5 605/3/5 604/3/5
f 611/3/5 605/3/5 610/3/5
f 612/3/5 607/3/5 606/3/5
f 613/3/5 607/3/5 612/3/5
f 614/3/5 607/3/5 613/3/5
f 618/8/5 616/8/5 615/8/5
f 619/8/5 616/8/5 618/8/5
f 621/8/5 618/8/5 617/8/5
f 621/8/5 620/8/5 619/8/5
f 621/8/5 619/8/5 618/8/5
f 622/8/5 620/8/5 621/8/5
f 623/3/6 624/3/6 627/3/6
f 627/3/6 624/3/6 628/3/6
f 625/3/6 626/3/6 629/3/6
f 629/3/6 626/3/6 630/3/6
f 631/8/6 632/8/6 636/8/6
f 632/9/6 633/9/6 637/9/6
f 637/9/6 633/9/6 638/9/6
f 633/8/6 634/8/6 639/8/6
f 635/9/6 636/9/6 641/9/6
f 636/8/6 632/8/6 642/8/6
f 641/9/6 636/9/6 642/9/6
f 632/9/6 637/9/6 643/9/6
f 638/9/6 633/9/6 644/9/6
f 639/9/6 640/9/6 645/9/6
f 633/8/6 639/8/6 645/8/6
f 645/9/6 640/9/6 646/9/6
f 642/8/6 632/8/6 647/8/6
f 632/9/6 643/9/6 648/9/6
f 647/8/6 632/8/6 648/8/6
f 643/9/6 644/9/6 648/9/6
f 644/9/6 633/9/6 649/9/6
f 648/9/6 644/9/6 649/9/6
f 633/8/6 645/8/6 649/8/6
f 649/8/6 645/8/6 650/8/6
f 651/3/6 652/3/6 653/3/6
f 653/3/6 652/3/6 654/3/6
f 655/3/6 656/3/6 657/3/6
f 657/3/6 656/3/6 658/3/6
f 659/3/6 660/3/6 661/3/6
f 661/3/6 660/3/6 662/3/6
f 662/3/6 663/3/6 664/3/6
f 664/3/6 663/3/6 665/3/6
f 662/3/6 664/3/6 666/3/6
f 666/3/6 664/3/6 667/3/6
f 668/3/6 669/3/6 670/3/6
f 670/3/6 669/3/6 671/3/6
f 672/8/6 673/8/6 675/8/6
f 675/8/6 673/8/6 676/8/6
f 674/8/6 675/8/6 678/8/6
f 676/8/6 677/8/6 678/8/6
f 675/8/6 676/8/6 678/8/6
f 678/8/6 677/8/6 679/8/6
f 679/8/6 677/8/6 680/8/6
f 680/8/6 677/8/6 681/8/6
f 681/8/6 677/8/6 682/8/6
f 683/8/6 684/8/6 687/8/6
f 687/8/6 684/8/6 688/8/6
f 685/8/6 686/8/6 689/8/6
f 689/8/6 686/8/6 690/8/6
f 691/9/6 692/9/6 695/9/6
f 695/9/6 692/9/6 696/9/6
f 693/9/6 694/9/6 697/9/6
f 697/9/6 694/9/6 698/9/6
f 699/8/6 700/8/6 706/8/6
f 700/9/6 701/9/6 707/9/6
f 706/8/6 700/8/6 707/8/6
f 701/8/6 702/8/6 708/8/6
f 707/9/6 701/9/6 708/9/6
f 702/4/6 703/4/6 709/4/6
f 708/8/6 702/8/6 709/8/6
f 703/8/6 704/8/6 710/8/6
f 709/4/6 703/4/6 710/4/6
f 710/8/6 704/8/6 711/8/6
f 705/8/6 706/8/6 713/8/6
f 713/8/6 706/8/6 714/8/6
f 711/8/6 712/8/6 715/8/6
f 715/8/6 712/8/6 716/8/6
f 713/9/6 714/9/6 717/9/6
f 717/9/6 714/9/6 718/9/6
f 715/9/6 716/9/6 721/9/6
f 721/9/6 716/9/6 722/9/6
f 718/9/6 719/9/6 723/9/6
f 723/9/6 719/9/6 724/9/6
f 720/9/6 721/9/6 725/9/6
f 725/9/6 721/9/6 726/9/6
f 727/8/6 728/8/6 729/8/6
f 729/8/6 728/8/6 730/8/6
f 729/9/6 730/9/6 731/9/6
f 731/9/6 730/9/6 732/9/6
f 732/9/6 730/9/6 733/9/6
f 733/9/6 730/9/6 734/9/6
f 732/9/6 733/9/6 735/9/6
f 735/9/6 733/9/6 736/9/6
