# MagicaVoxel @ Ephtracy

# group
o 

# material
mtllib Character-20.mtl
usemtl palette

# normals
vn -1 0 0
vn 1 0 0
vn 0 0 1
vn 0 0 -1
vn 0 -1 0
vn 0 1 0

# texcoords
vt 0.0371094 0.5
vt 0.0488281 0.5
vt 0.474609 0.5
vt 0.486328 0.5
vt 0.505859 0.5
vt 0.513672 0.5
vt 0.525391 0.5
vt 0.775391 0.5
vt 0.873047 0.5
vt 0.978516 0.5

# verts
v 3.8 0.9 3.8
v 3.8 0.9 3.6
v 3.8 0.9 3.2
v 3.8 1.1 3.8
v 3.8 1.1 3.6
v 3.8 1.1 3.4
v 3.8 1.4 3.4
v 3.8 1.4 3.2
v 3.9 1.1 3.8
v 3.9 1.1 3.7
v 3.9 1.2 3.8
v 3.9 1.2 3.7
v 3.9 1.6 3.4
v 3.9 1.6 3.3
v 3.9 1.6 3
v 3.9 1.7 3.5
v 3.9 1.7 3.4
v 3.9 1.9 3.6
v 3.9 1.9 3.5
v 3.9 1.9 3.4
v 3.9 1.9 3.3
v 3.9 2.4 3.6
v 3.9 2.4 3
v 4 0 3.5
v 4 0 3.2
v 4 0.1 3.5
v 4 0.1 3.4
v 4 0.1 3.2
v 4 0.2 3.4
v 4 0.2 3.2
v 4 0.7 3.5
v 4 0.7 3.4
v 4 0.7 3.2
v 4 0.7 3.1
v 4 0.8 3.5
v 4 0.8 3.1
v 4 0.9 3.9
v 4 0.9 3.8
v 4 0.9 3.5
v 4 0.9 3.2
v 4 1.1 3.8
v 4 1.1 3.7
v 4 1.1 3.6
v 4 1.1 3.5
v 4 1.1 3.4
v 4 1.2 3.8
v 4 1.2 3.7
v 4 1.3 3.9
v 4 1.3 3.6
v 4 1.4 3.5
v 4 1.4 3.4
v 4 1.4 3.2
v 4 1.4 3.1
v 4 1.5 3.6
v 4 1.5 3.4
v 4 1.5 3.1
v 4 1.6 3.4
v 4 1.6 3.3
v 4 1.6 3.1
v 4 1.7 3.6
v 4 1.7 3.5
v 4 1.7 3.4
v 4 1.9 3.7
v 4 1.9 3.6
v 4 1.9 3.5
v 4 2 3.7
v 4 2 3.6
v 4 2.1 3.8
v 4 2.1 3.6
v 4 2.4 3.8
v 4 2.4 3.7
v 4 2.4 3.6
v 4 2.4 3
v 4 2.5 3.7
v 4 2.5 3
v 4.2 1.4 3.4
v 4.2 1.4 3.2
v 4.2 1.5 3.4
v 4.2 1.5 3.2
v 4.4 0 3.5
v 4.4 0 3.2
v 4.4 0.1 3.5
v 4.4 0.1 3.4
v 4.4 0.1 3.2
v 4.4 0.2 3.4
v 4.4 0.2 3.2
v 4.4 0.7 3.4
v 4.4 0.7 3.2
v 4.4 1.9 3.7
v 4.4 1.9 3.6
v 4.4 2 3.7
v 4.4 2 3.6
v 4 0.9 3.6
v 4 0.9 3.5
v 4 1.1 3.6
v 4 1.1 3.5
v 4.2 0 3.5
v 4.2 0 3.2
v 4.2 0.1 3.5
v 4.2 0.1 3.4
v 4.2 0.1 3.2
v 4.2 0.2 3.4
v 4.2 0.2 3.2
v 4.2 0.7 3.4
v 4.2 0.7 3.2
v 4.2 1.9 3.7
v 4.2 1.9 3.6
v 4.2 2 3.7
v 4.2 2 3.6
v 4.3 0.9 3.9
v 4.3 0.9 3.6
v 4.3 1.3 3.9
v 4.3 1.3 3.6
v 4.4 1.4 3.4
v 4.4 1.4 3.2
v 4.4 1.5 3.4
v 4.4 1.5 3.2
v 4.4 2.1 3.8
v 4.4 2.1 3.6
v 4.4 2.2 3.7
v 4.4 2.2 3.6
v 4.4 2.4 3.8
v 4.4 2.4 3.7
v 4.4 2.4 3.6
v 4.4 2.5 3.7
v 4.4 2.5 3.6
v 4.6 0 3.5
v 4.6 0 3.2
v 4.6 0.1 3.5
v 4.6 0.1 3.4
v 4.6 0.1 3.2
v 4.6 0.2 3.4
v 4.6 0.2 3.2
v 4.6 0.6 3.4
v 4.6 0.6 3.2
v 4.6 0.7 3.5
v 4.6 0.7 3.4
v 4.6 0.7 3.2
v 4.6 0.7 3.1
v 4.6 0.8 3.5
v 4.6 0.8 3.4
v 4.6 0.8 3.2
v 4.6 0.8 3.1
v 4.6 1.4 3.5
v 4.6 1.4 3.4
v 4.6 1.4 3.2
v 4.6 1.4 3.1
v 4.6 1.5 3.6
v 4.6 1.5 3.4
v 4.6 1.5 3.1
v 4.6 1.6 3.4
v 4.6 1.6 3.3
v 4.6 1.6 3.1
v 4.6 1.7 3.6
v 4.6 1.7 3.5
v 4.6 1.7 3.4
v 4.6 1.9 3.7
v 4.6 1.9 3.6
v 4.6 2 3.7
v 4.6 2 3.6
v 4.6 2 3.5
v 4.6 2.2 3.7
v 4.6 2.2 3.6
v 4.6 2.4 3.7
v 4.6 2.4 3.6
v 4.6 2.4 3.5
v 4.6 2.4 3.1
v 4.6 2.4 3
v 4.6 2.5 3.6
v 4.6 2.5 3.5
v 4.6 2.5 3.1
v 4.6 2.5 3
v 4.7 1.6 3.4
v 4.7 1.6 3.3
v 4.7 1.6 3
v 4.7 1.7 3.5
v 4.7 1.7 3.4
v 4.7 1.9 3.4
v 4.7 1.9 3.3
v 4.7 2 3.6
v 4.7 2 3.5
v 4.7 2.4 3.6
v 4.7 2.4 3.5
v 4.7 2.4 3.1
v 4.7 2.4 3
v 4.7 2.5 3.5
v 4.7 2.5 3.1
v 4.8 0.6 3.4
v 4.8 0.6 3.2
v 4.8 0.8 3.4
v 4.8 0.8 3.2
v 4.8 1.4 3.4
v 4.8 1.4 3.2
v 4 0.9 3.9
v 4 1.3 3.9
v 4.3 0.9 3.9
v 4.3 1.3 3.9
v 3.8 0.9 3.8
v 3.8 1.1 3.8
v 3.9 1.1 3.8
v 3.9 1.2 3.8
v 4 0.9 3.8
v 4 1.1 3.8
v 4 1.2 3.8
v 4 2.1 3.8
v 4 2.4 3.8
v 4.4 2.1 3.8
v 4.4 2.4 3.8
v 4 1.9 3.7
v 4 2 3.7
v 4 2.4 3.7
v 4 2.5 3.7
v 4.2 1.9 3.7
v 4.2 2 3.7
v 4.4 1.9 3.7
v 4.4 2 3.7
v 4.4 2.2 3.7
v 4.4 2.4 3.7
v 4.4 2.5 3.7
v 4.6 1.9 3.7
v 4.6 2 3.7
v 4.6 2.2 3.7
v 4.6 2.4 3.7
v 3.9 1.9 3.6
v 3.9 2.4 3.6
v 4 1.5 3.6
v 4 1.7 3.6
v 4 1.9 3.6
v 4 2 3.6
v 4 2.1 3.6
v 4 2.4 3.6
v 4.1 1.8 3.6
v 4.1 1.9 3.6
v 4.2 1.8 3.6
v 4.2 1.9 3.6
v 4.2 2 3.6
v 4.4 1.8 3.6
v 4.4 1.9 3.6
v 4.4 2 3.6
v 4.4 2.1 3.6
v 4.4 2.2 3.6
v 4.4 2.4 3.6
v 4.4 2.5 3.6
v 4.5 1.8 3.6
v 4.5 1.9 3.6
v 4.6 1.5 3.6
v 4.6 1.7 3.6
v 4.6 1.9 3.6
v 4.6 2 3.6
v 4.6 2.2 3.6
v 4.6 2.4 3.6
v 4.6 2.5 3.6
v 4.7 2 3.6
v 4.7 2.4 3.6
v 3.9 1.7 3.5
v 3.9 1.9 3.5
v 4 0 3.5
v 4 0.1 3.5
v 4 0.7 3.5
v 4 0.8 3.5
v 4 0.9 3.5
v 4 1.1 3.5
v 4 1.4 3.5
v 4 1.7 3.5
v 4 1.9 3.5
v 4.2 0 3.5
v 4.2 0.1 3.5
v 4.4 0 3.5
v 4.4 0.1 3.5
v 4.6 0 3.5
v 4.6 0.1 3.5
v 4.6 0.7 3.5
v 4.6 0.8 3.5
v 4.6 1.4 3.5
v 4.6 1.7 3.5
v 4.6 2 3.5
v 4.6 2.4 3.5
v 4.6 2.5 3.5
v 4.7 1.7 3.5
v 4.7 2 3.5
v 4.7 2.4 3.5
v 4.7 2.5 3.5
v 3.8 1.1 3.4
v 3.8 1.4 3.4
v 3.9 1.6 3.4
v 3.9 1.7 3.4
v 4 0.1 3.4
v 4 0.2 3.4
v 4 0.7 3.4
v 4 1.1 3.4
v 4 1.4 3.4
v 4 1.6 3.4
v 4 1.7 3.4
v 4.2 0.1 3.4
v 4.2 0.2 3.4
v 4.2 0.7 3.4
v 4.2 1.4 3.4
v 4.2 1.5 3.4
v 4.4 0.1 3.4
v 4.4 0.2 3.4
v 4.4 0.7 3.4
v 4.4 1.4 3.4
v 4.4 1.5 3.4
v 4.6 0.1 3.4
v 4.6 0.2 3.4
v 4.6 0.6 3.4
v 4.6 0.7 3.4
v 4.6 0.8 3.4
v 4.6 1.4 3.4
v 4.6 1.6 3.4
v 4.6 1.7 3.4
v 4.7 1.6 3.4
v 4.7 1.7 3.4
v 4.8 0.6 3.4
v 4.8 0.8 3.4
v 4.8 1.4 3.4
v 3.9 1.1 3.7
v 3.9 1.2 3.7
v 4 1.1 3.7
v 4 1.2 3.7
v 4 0.9 3.6
v 4 1.1 3.6
v 4 1.3 3.6
v 4.3 0.9 3.6
v 4.3 1.3 3.6
v 3.8 0.9 3.2
v 3.8 1.4 3.2
v 4 0 3.2
v 4 0.1 3.2
v 4 0.2 3.2
v 4 0.7 3.2
v 4 0.9 3.2
v 4 1.4 3.2
v 4.2 0 3.2
v 4.2 0.1 3.2
v 4.2 0.2 3.2
v 4.2 0.7 3.2
v 4.2 1.4 3.2
v 4.2 1.5 3.2
v 4.4 0 3.2
v 4.4 0.1 3.2
v 4.4 0.2 3.2
v 4.4 0.7 3.2
v 4.4 1.4 3.2
v 4.4 1.5 3.2
v 4.6 0 3.2
v 4.6 0.1 3.2
v 4.6 0.2 3.2
v 4.6 0.6 3.2
v 4.6 0.7 3.2
v 4.6 0.8 3.2
v 4.6 1.4 3.2
v 4.8 0.6 3.2
v 4.8 0.8 3.2
v 4.8 1.4 3.2
v 4 0.7 3.1
v 4 0.8 3.1
v 4 1.4 3.1
v 4 1.5 3.1
v 4 1.6 3.1
v 4.6 0.7 3.1
v 4.6 0.8 3.1
v 4.6 1.4 3.1
v 4.6 1.5 3.1
v 4.6 1.6 3.1
v 4.6 2.4 3.1
v 4.6 2.5 3.1
v 4.7 2.4 3.1
v 4.7 2.5 3.1
v 3.9 1.6 3
v 3.9 2.4 3
v 4 2.4 3
v 4 2.5 3
v 4.6 2.4 3
v 4.6 2.5 3
v 4.7 1.6 3
v 4.7 2.4 3
v 4 0 3.5
v 4.2 0 3.5
v 4.4 0 3.5
v 4.6 0 3.5
v 4 0 3.2
v 4.2 0 3.2
v 4.4 0 3.2
v 4.6 0 3.2
v 4.6 0.6 3.4
v 4.8 0.6 3.4
v 4.6 0.6 3.2
v 4.8 0.6 3.2
v 4 0.7 3.5
v 4.6 0.7 3.5
v 4 0.7 3.4
v 4.2 0.7 3.4
v 4.4 0.7 3.4
v 4.6 0.7 3.4
v 4 0.7 3.2
v 4.2 0.7 3.2
v 4.4 0.7 3.2
v 4.6 0.7 3.2
v 4 0.7 3.1
v 4.6 0.7 3.1
v 4 0.9 3.9
v 4.3 0.9 3.9
v 3.8 0.9 3.8
v 4 0.9 3.8
v 3.8 0.9 3.6
v 4 0.9 3.6
v 4.3 0.9 3.6
v 4 0.9 3.5
v 3.8 0.9 3.2
v 4 0.9 3.2
v 4 1.5 3.6
v 4.6 1.5 3.6
v 4 1.5 3.4
v 4.2 1.5 3.4
v 4.4 1.5 3.4
v 4.6 1.5 3.4
v 4.2 1.5 3.2
v 4.4 1.5 3.2
v 4 1.5 3.1
v 4.6 1.5 3.1
v 3.9 1.6 3.4
v 4 1.6 3.4
v 4.6 1.6 3.4
v 4.7 1.6 3.4
v 3.9 1.6 3.3
v 4 1.6 3.3
v 4.6 1.6 3.3
v 4.7 1.6 3.3
v 4 1.6 3.1
v 4.6 1.6 3.1
v 3.9 1.6 3
v 4.7 1.6 3
v 3.9 1.7 3.5
v 4 1.7 3.5
v 4.6 1.7 3.5
v 4.7 1.7 3.5
v 3.9 1.7 3.4
v 4 1.7 3.4
v 4.6 1.7 3.4
v 4.7 1.7 3.4
v 4 1.9 3.7
v 4.2 1.9 3.7
v 4.4 1.9 3.7
v 4.6 1.9 3.7
v 3.9 1.9 3.6
v 4 1.9 3.6
v 4.1 1.9 3.6
v 4.2 1.9 3.6
v 4.4 1.9 3.6
v 4.5 1.9 3.6
v 4.6 1.9 3.6
v 3.9 1.9 3.5
v 4 1.9 3.5
v 4.6 2 3.6
v 4.7 2 3.6
v 4.6 2 3.5
v 4.7 2 3.5
v 4 2.1 3.8
v 4.4 2.1 3.8
v 4 2.1 3.6
v 4.4 2.1 3.6
v 4.4 2.2 3.7
v 4.6 2.2 3.7
v 4.4 2.2 3.6
v 4.6 2.2 3.6
v 4 0.1 3.5
v 4.2 0.1 3.5
v 4.4 0.1 3.5
v 4.6 0.1 3.5
v 4 0.1 3.4
v 4.2 0.1 3.4
v 4.4 0.1 3.4
v 4.6 0.1 3.4
v 3.8 1.1 3.8
v 3.9 1.1 3.8
v 3.9 1.1 3.7
v 4 1.1 3.7
v 3.8 1.1 3.6
v 4 1.1 3.6
v 4 1.1 3.5
v 3.8 1.1 3.4
v 4 1.1 3.4
v 3.9 1.2 3.8
v 4 1.2 3.8
v 3.9 1.2 3.7
v 4 1.2 3.7
v 4 1.3 3.9
v 4.3 1.3 3.9
v 4.1 1.3 3.8
v 4.2 1.3 3.8
v 4.1 1.3 3.7
v 4.2 1.3 3.7
v 4 1.3 3.6
v 4.3 1.3 3.6
v 4 1.4 3.5
v 4.6 1.4 3.5
v 3.8 1.4 3.4
v 4 1.4 3.4
v 4.2 1.4 3.4
v 4.4 1.4 3.4
v 4.6 1.4 3.4
v 4.8 1.4 3.4
v 3.8 1.4 3.2
v 4 1.4 3.2
v 4.2 1.4 3.2
v 4.4 1.4 3.2
v 4.6 1.4 3.2
v 4.8 1.4 3.2
v 4 1.4 3.1
v 4.6 1.4 3.1
v 4 2 3.7
v 4.2 2 3.7
v 4.4 2 3.7
v 4.6 2 3.7
v 4 2 3.6
v 4.2 2 3.6
v 4.4 2 3.6
v 4.6 2 3.6
v 4 2.4 3.8
v 4.4 2.4 3.8
v 4 2.4 3.7
v 4.4 2.4 3.7
v 4.6 2.4 3.7
v 3.9 2.4 3.6
v 4 2.4 3.6
v 4.4 2.4 3.6
v 4.6 2.4 3.6
v 4.7 2.4 3.6
v 4.6 2.4 3.5
v 4.7 2.4 3.5
v 4.6 2.4 3.1
v 4.7 2.4 3.1
v 3.9 2.4 3
v 4 2.4 3
v 4.6 2.4 3
v 4.7 2.4 3
v 4 2.5 3.7
v 4.4 2.5 3.7
v 4.4 2.5 3.6
v 4.6 2.5 3.6
v 4.6 2.5 3.5
v 4.7 2.5 3.5
v 4.6 2.5 3.1
v 4.7 2.5 3.1
v 4 2.5 3
v 4.6 2.5 3

# faces
f 4/1/1 2/1/1 1/1/1
f 5/8/1 3/8/1 2/8/1
f 5/1/1 2/1/1 4/1/1
f 6/8/1 3/8/1 5/8/1
f 7/8/1 3/8/1 6/8/1
f 8/8/1 3/8/1 7/8/1
f 11/10/1 10/10/1 9/10/1
f 12/10/1 10/10/1 11/10/1
f 17/2/1 14/2/1 13/2/1
f 19/3/1 17/3/1 16/3/1
f 20/2/1 14/2/1 17/2/1
f 20/3/1 17/3/1 19/3/1
f 21/3/1 15/3/1 14/3/1
f 21/2/1 14/2/1 20/2/1
f 22/3/1 20/3/1 19/3/1
f 22/3/1 19/3/1 18/3/1
f 22/3/1 21/3/1 20/3/1
f 23/3/1 15/3/1 21/3/1
f 23/3/1 21/3/1 22/3/1
f 26/3/1 25/3/1 24/3/1
f 27/3/1 25/3/1 26/3/1
f 28/3/1 25/3/1 27/3/1
f 29/5/1 28/5/1 27/5/1
f 30/5/1 28/5/1 29/5/1
f 32/6/1 30/6/1 29/6/1
f 33/6/1 30/6/1 32/6/1
f 35/6/1 33/6/1 32/6/1
f 35/6/1 34/6/1 33/6/1
f 35/6/1 32/6/1 31/6/1
f 36/6/1 34/6/1 35/6/1
f 39/8/1 36/8/1 35/8/1
f 40/8/1 36/8/1 39/8/1
f 41/10/1 38/10/1 37/10/1
f 46/10/1 41/10/1 37/10/1
f 47/10/1 43/10/1 42/10/1
f 48/10/1 46/10/1 37/10/1
f 48/10/1 47/10/1 46/10/1
f 49/10/1 43/10/1 47/10/1
f 49/10/1 47/10/1 48/10/1
f 50/8/1 45/8/1 44/8/1
f 51/8/1 45/8/1 50/8/1
f 52/8/1 36/8/1 40/8/1
f 53/8/1 36/8/1 52/8/1
f 57/3/1 55/3/1 54/3/1
f 57/1/1 56/1/1 55/1/1
f 58/1/1 56/1/1 57/1/1
f 59/1/1 56/1/1 58/1/1
f 60/3/1 57/3/1 54/3/1
f 61/3/1 57/3/1 60/3/1
f 62/3/1 57/3/1 61/3/1
f 64/1/1 61/1/1 60/1/1
f 65/1/1 61/1/1 64/1/1
f 66/3/1 64/3/1 63/3/1
f 67/3/1 64/3/1 66/3/1
f 70/3/1 69/3/1 68/3/1
f 71/3/1 69/3/1 70/3/1
f 72/3/1 69/3/1 71/3/1
f 74/3/1 72/3/1 71/3/1
f 74/3/1 73/3/1 72/3/1
f 75/3/1 73/3/1 74/3/1
f 78/1/1 77/1/1 76/1/1
f 79/1/1 77/1/1 78/1/1
f 82/3/1 81/3/1 80/3/1
f 83/3/1 81/3/1 82/3/1
f 84/3/1 81/3/1 83/3/1
f 85/5/1 84/5/1 83/5/1
f 86/5/1 84/5/1 85/5/1
f 87/6/1 86/6/1 85/6/1
f 88/6/1 86/6/1 87/6/1
f 91/3/1 90/3/1 89/3/1
f 92/3/1 90/3/1 91/3/1
f 93/8/2 94/8/2 95/8/2
f 95/8/2 94/8/2 96/8/2
f 97/3/2 98/3/2 99/3/2
f 99/3/2 98/3/2 100/3/2
f 100/3/2 98/3/2 101/3/2
f 100/5/2 101/5/2 102/5/2
f 102/5/2 101/5/2 103/5/2
f 102/6/2 103/6/2 104/6/2
f 104/6/2 103/6/2 105/6/2
f 106/3/2 107/3/2 108/3/2
f 108/3/2 107/3/2 109/3/2
f 110/10/2 111/10/2 112/10/2
f 112/10/2 111/10/2 113/10/2
f 114/1/2 115/1/2 116/1/2
f 116/1/2 115/1/2 117/1/2
f 118/3/2 119/3/2 120/3/2
f 120/3/2 119/3/2 121/3/2
f 118/3/2 120/3/2 122/3/2
f 122/3/2 120/3/2 123/3/2
f 123/3/2 124/3/2 125/3/2
f 125/3/2 124/3/2 126/3/2
f 127/3/2 128/3/2 129/3/2
f 129/3/2 128/3/2 130/3/2
f 130/3/2 128/3/2 131/3/2
f 130/5/2 131/5/2 132/5/2
f 132/5/2 131/5/2 133/5/2
f 132/6/2 133/6/2 134/6/2
f 134/6/2 133/6/2 135/6/2
f 136/6/2 137/6/2 140/6/2
f 140/6/2 137/6/2 141/6/2
f 138/6/2 139/6/2 142/6/2
f 142/6/2 139/6/2 143/6/2
f 140/8/2 141/8/2 144/8/2
f 144/8/2 141/8/2 145/8/2
f 142/8/2 143/8/2 146/8/2
f 146/8/2 143/8/2 147/8/2
f 148/3/2 149/3/2 151/3/2
f 149/1/2 150/1/2 151/1/2
f 151/1/2 150/1/2 152/1/2
f 152/1/2 150/1/2 153/1/2
f 148/3/2 151/3/2 154/3/2
f 154/3/2 151/3/2 155/3/2
f 155/3/2 151/3/2 156/3/2
f 154/1/2 155/1/2 158/1/2
f 157/3/2 158/3/2 159/3/2
f 158/1/2 155/1/2 160/1/2
f 159/3/2 158/3/2 160/3/2
f 160/1/2 155/1/2 161/1/2
f 162/3/2 163/3/2 164/3/2
f 164/3/2 163/3/2 165/3/2
f 165/3/2 166/3/2 169/3/2
f 169/3/2 166/3/2 170/3/2
f 167/3/2 168/3/2 171/3/2
f 171/3/2 168/3/2 172/3/2
f 173/2/2 174/2/2 177/2/2
f 177/2/2 174/2/2 178/2/2
f 176/3/2 177/3/2 178/3/2
f 174/3/2 175/3/2 179/3/2
f 178/2/2 174/2/2 179/2/2
f 176/3/2 178/3/2 181/3/2
f 178/3/2 179/3/2 181/3/2
f 180/3/2 181/3/2 182/3/2
f 181/3/2 179/3/2 183/3/2
f 182/3/2 181/3/2 183/3/2
f 179/3/2 175/3/2 184/3/2
f 183/3/2 179/3/2 184/3/2
f 184/3/2 175/3/2 185/3/2
f 183/3/2 184/3/2 186/3/2
f 186/3/2 184/3/2 187/3/2
f 188/1/2 189/1/2 190/1/2
f 190/1/2 189/1/2 191/1/2
f 190/8/2 191/8/2 192/8/2
f 192/8/2 191/8/2 193/8/2
f 196/10/3 195/10/3 194/10/3
f 197/10/3 195/10/3 196/10/3
f 200/1/3 199/1/3 198/1/3
f 202/1/3 200/1/3 198/1/3
f 203/10/3 201/10/3 200/10/3
f 203/1/3 200/1/3 202/1/3
f 204/10/3 201/10/3 203/10/3
f 207/3/3 206/3/3 205/3/3
f 208/3/3 206/3/3 207/3/3
f 213/3/3 210/3/3 209/3/3
f 214/3/3 210/3/3 213/3/3
f 218/3/3 212/3/3 211/3/3
f 219/3/3 212/3/3 218/3/3
f 220/3/3 216/3/3 215/3/3
f 221/3/3 216/3/3 220/3/3
f 222/3/3 218/3/3 217/3/3
f 223/3/3 218/3/3 222/3/3
f 228/3/3 225/3/3 224/3/3
f 229/3/3 225/3/3 228/3/3
f 230/3/3 225/3/3 229/3/3
f 231/3/3 225/3/3 230/3/3
f 232/1/3 228/1/3 227/1/3
f 233/1/3 228/1/3 232/1/3
f 234/1/3 232/1/3 227/1/3
f 234/7/3 233/7/3 232/7/3
f 235/7/3 233/7/3 234/7/3
f 236/1/3 230/1/3 229/1/3
f 237/1/3 235/1/3 234/1/3
f 237/1/3 236/1/3 235/1/3
f 237/1/3 234/1/3 227/1/3
f 238/1/3 236/1/3 237/1/3
f 239/1/3 230/1/3 236/1/3
f 239/1/3 236/1/3 238/1/3
f 240/1/3 230/1/3 239/1/3
f 244/7/3 238/7/3 237/7/3
f 244/1/3 237/1/3 227/1/3
f 245/7/3 238/7/3 244/7/3
f 246/3/3 227/3/3 226/3/3
f 247/1/3 244/1/3 227/1/3
f 247/3/3 227/3/3 246/3/3
f 247/1/3 245/1/3 244/1/3
f 248/1/3 245/1/3 247/1/3
f 249/1/3 241/1/3 240/1/3
f 249/1/3 240/1/3 239/1/3
f 250/1/3 241/1/3 249/1/3
f 251/3/3 243/3/3 242/3/3
f 252/3/3 243/3/3 251/3/3
f 253/3/3 251/3/3 250/3/3
f 253/3/3 250/3/3 249/3/3
f 254/3/3 251/3/3 253/3/3
f 264/3/3 256/3/3 255/3/3
f 265/3/3 256/3/3 264/3/3
f 266/3/3 258/3/3 257/3/3
f 267/3/3 258/3/3 266/3/3
f 270/3/3 269/3/3 268/3/3
f 271/3/3 269/3/3 270/3/3
f 272/6/3 260/6/3 259/6/3
f 273/8/3 263/8/3 262/8/3
f 273/6/3 260/6/3 272/6/3
f 273/8/3 261/8/3 260/8/3
f 273/8/3 262/8/3 261/8/3
f 274/8/3 263/8/3 273/8/3
f 279/3/3 276/3/3 275/3/3
f 280/3/3 276/3/3 279/3/3
f 281/3/3 278/3/3 277/3/3
f 282/3/3 278/3/3 281/3/3
f 290/8/3 284/8/3 283/8/3
f 291/8/3 284/8/3 290/8/3
f 292/2/3 286/2/3 285/2/3
f 293/2/3 286/2/3 292/2/3
f 294/5/3 288/5/3 287/5/3
f 295/6/3 289/6/3 288/6/3
f 295/5/3 288/5/3 294/5/3
f 296/6/3 289/6/3 295/6/3
f 302/1/3 298/1/3 297/1/3
f 303/1/3 298/1/3 302/1/3
f 304/5/3 300/5/3 299/5/3
f 305/6/3 301/6/3 300/6/3
f 305/5/3 300/5/3 304/5/3
f 306/6/3 301/6/3 305/6/3
f 307/6/3 301/6/3 306/6/3
f 312/2/3 311/2/3 310/2/3
f 313/2/3 311/2/3 312/2/3
f 314/1/3 308/1/3 307/1/3
f 314/1/3 307/1/3 306/1/3
f 315/8/3 309/8/3 308/8/3
f 315/1/3 308/1/3 314/1/3
f 316/8/3 309/8/3 315/8/3
f 317/10/4 318/10/4 319/10/4
f 319/10/4 318/10/4 320/10/4
f 321/10/4 322/10/4 324/10/4
f 322/10/4 323/10/4 324/10/4
f 324/10/4 323/10/4 325/10/4
f 326/8/4 327/8/4 332/8/4
f 332/8/4 327/8/4 333/8/4
f 328/3/4 329/3/4 334/3/4
f 329/5/4 330/5/4 335/5/4
f 334/3/4 329/3/4 335/3/4
f 330/6/4 331/6/4 336/6/4
f 335/5/4 330/5/4 336/5/4
f 336/6/4 331/6/4 337/6/4
f 338/1/4 339/1/4 344/1/4
f 344/1/4 339/1/4 345/1/4
f 340/3/4 341/3/4 346/3/4
f 341/5/4 342/5/4 347/5/4
f 346/3/4 341/3/4 347/3/4
f 342/6/4 343/6/4 348/6/4
f 347/5/4 342/5/4 348/5/4
f 348/6/4 343/6/4 349/6/4
f 349/6/4 343/6/4 350/6/4
f 350/1/4 351/1/4 353/1/4
f 349/1/4 350/1/4 353/1/4
f 351/8/4 352/8/4 354/8/4
f 353/1/4 351/1/4 354/1/4
f 354/8/4 352/8/4 355/8/4
f 356/6/4 357/6/4 361/6/4
f 357/8/4 358/8/4 362/8/4
f 361/6/4 357/6/4 362/6/4
f 362/8/4 358/8/4 363/8/4
f 359/1/4 360/1/4 364/1/4
f 364/1/4 360/1/4 365/1/4
f 366/3/4 367/3/4 368/3/4
f 368/3/4 367/3/4 369/3/4
f 370/3/4 371/3/4 372/3/4
f 370/3/4 372/3/4 374/3/4
f 372/3/4 373/3/4 374/3/4
f 374/3/4 373/3/4 375/3/4
f 370/3/4 374/3/4 376/3/4
f 376/3/4 374/3/4 377/3/4
f 382/3/5 379/3/5 378/3/5
f 383/3/5 379/3/5 382/3/5
f 384/3/5 381/3/5 380/3/5
f 385/3/5 381/3/5 384/3/5
f 388/1/5 387/1/5 386/1/5
f 389/1/5 387/1/5 388/1/5
f 392/6/5 391/6/5 390/6/5
f 393/6/5 391/6/5 392/6/5
f 394/6/5 391/6/5 393/6/5
f 395/6/5 391/6/5 394/6/5
f 397/6/5 394/6/5 393/6/5
f 398/6/5 394/6/5 397/6/5
f 400/6/5 397/6/5 396/6/5
f 400/6/5 399/6/5 398/6/5
f 400/6/5 398/6/5 397/6/5
f 401/6/5 399/6/5 400/6/5
f 405/10/5 403/10/5 402/10/5
f 406/1/5 405/1/5 404/1/5
f 407/10/5 403/10/5 405/10/5
f 407/1/5 405/1/5 406/1/5
f 408/10/5 403/10/5 407/10/5
f 409/8/5 407/8/5 406/8/5
f 410/8/5 409/8/5 406/8/5
f 411/8/5 409/8/5 410/8/5
f 414/3/5 413/3/5 412/3/5
f 415/3/5 413/3/5 414/3/5
f 416/3/5 413/3/5 415/3/5
f 417/3/5 413/3/5 416/3/5
f 418/1/5 415/1/5 414/1/5
f 419/1/5 417/1/5 416/1/5
f 420/1/5 418/1/5 414/1/5
f 420/1/5 419/1/5 418/1/5
f 421/1/5 417/1/5 419/1/5
f 421/1/5 419/1/5 420/1/5
f 426/2/5 423/2/5 422/2/5
f 427/2/5 423/2/5 426/2/5
f 428/2/5 425/2/5 424/2/5
f 429/2/5 425/2/5 428/2/5
f 430/3/5 427/3/5 426/3/5
f 431/3/5 429/3/5 428/3/5
f 432/3/5 430/3/5 426/3/5
f 432/3/5 431/3/5 430/3/5
f 433/3/5 429/3/5 431/3/5
f 433/3/5 431/3/5 432/3/5
f 438/3/5 435/3/5 434/3/5
f 439/3/5 435/3/5 438/3/5
f 440/3/5 437/3/5 436/3/5
f 441/3/5 437/3/5 440/3/5
f 447/3/5 443/3/5 442/3/5
f 448/3/5 443/3/5 447/3/5
f 449/3/5 443/3/5 448/3/5
f 450/3/5 445/3/5 444/3/5
f 451/3/5 445/3/5 450/3/5
f 452/3/5 445/3/5 451/3/5
f 453/3/5 447/3/5 446/3/5
f 454/3/5 447/3/5 453/3/5
f 457/3/5 456/3/5 455/3/5
f 458/3/5 456/3/5 457/3/5
f 461/3/5 460/3/5 459/3/5
f 462/3/5 460/3/5 461/3/5
f 465/3/5 464/3/5 463/3/5
f 466/3/5 464/3/5 465/3/5
f 467/3/6 468/3/6 471/3/6
f 471/3/6 468/3/6 472/3/6
f 469/3/6 470/3/6 473/3/6
f 473/3/6 470/3/6 474/3/6
f 475/1/6 476/1/6 477/1/6
f 475/1/6 477/1/6 479/1/6
f 477/1/6 478/1/6 479/1/6
f 479/1/6 478/1/6 480/1/6
f 479/8/6 480/8/6 481/8/6
f 479/8/6 481/8/6 482/8/6
f 482/8/6 481/8/6 483/8/6
f 484/10/6 485/10/6 486/10/6
f 486/10/6 485/10/6 487/10/6
f 488/10/6 489/10/6 490/10/6
f 490/10/6 489/10/6 491/10/6
f 488/10/6 490/10/6 492/10/6
f 490/4/6 491/4/6 492/4/6
f 491/10/6 489/10/6 493/10/6
f 492/4/6 491/4/6 493/4/6
f 488/10/6 492/10/6 494/10/6
f 492/10/6 493/10/6 494/10/6
f 493/10/6 489/10/6 495/10/6
f 494/10/6 493/10/6 495/10/6
f 496/8/6 497/8/6 499/8/6
f 499/8/6 497/8/6 500/8/6
f 500/8/6 497/8/6 501/8/6
f 501/8/6 497/8/6 502/8/6
f 498/8/6 499/8/6 504/8/6
f 499/8/6 500/8/6 504/8/6
f 504/8/6 500/8/6 505/8/6
f 505/8/6 500/8/6 506/8/6
f 502/8/6 503/8/6 507/8/6
f 501/8/6 502/8/6 507/8/6
f 507/8/6 503/8/6 508/8/6
f 508/8/6 503/8/6 509/8/6
f 505/8/6 506/8/6 510/8/6
f 507/8/6 508/8/6 510/8/6
f 506/8/6 507/8/6 510/8/6
f 510/8/6 508/8/6 511/8/6
f 512/3/6 513/3/6 516/3/6
f 516/3/6 513/3/6 517/3/6
f 514/3/6 515/3/6 518/3/6
f 518/3/6 515/3/6 519/3/6
f 520/3/6 521/3/6 522/3/6
f 522/3/6 521/3/6 523/3/6
f 523/3/6 524/3/6 527/3/6
f 527/3/6 524/3/6 528/3/6
f 528/3/6 529/3/6 530/3/6
f 530/3/6 529/3/6 531/3/6
f 525/3/6 526/3/6 534/3/6
f 534/3/6 526/3/6 535/3/6
f 532/3/6 533/3/6 536/3/6
f 536/3/6 533/3/6 537/3/6
f 538/3/6 539/3/6 540/3/6
f 540/3/6 541/3/6 542/3/6
f 540/3/6 542/3/6 544/3/6
f 542/3/6 543/3/6 544/3/6
f 544/3/6 543/3/6 545/3/6
f 538/3/6 540/3/6 546/3/6
f 540/3/6 544/3/6 546/3/6
f 546/3/6 544/3/6 547/3/6
