# generated by tools/rig_people.py — do not edit
mtllib people.mtl
o leg-r
usemtl palette
v 1 0 -1
v 1 0 2
v 1 1 2
v 1 1 -1
v 1 1 0
v 1 3 2
v 1 3 0
v 1 4 2
v 1 4 0
v 1 7 2
v 1 7 0
v 3 1 -1
v 3 1 2
v 3 0 2
v 3 0 -1
v 3 3 0
v 3 3 2
v 3 1 0
v 3 4 0
v 3 4 2
v 3 7 0
v 3 7 2
vt 0.5253906 0.5
vt 0.0410156 0.5
vt 0.3652344 0.5
vt 0.3613281 0.5
vn -1 0 0
vn 1 0 0
vn 0 0 1
vn 0 0 -1
vn 0 1 0
vn 0 -1 0
f 1/1/1 2/1/1 3/1/1 4/1/1
f 5/2/1 3/2/1 6/2/1 7/2/1
f 7/3/1 6/3/1 8/3/1 9/3/1
f 9/4/1 8/4/1 10/4/1 11/4/1
f 12/1/2 13/1/2 14/1/2 15/1/2
f 16/2/2 17/2/2 13/2/2 18/2/2
f 19/3/2 20/3/2 17/3/2 16/3/2
f 21/4/2 22/4/2 20/4/2 19/4/2
f 13/1/3 3/1/3 2/1/3 14/1/3
f 17/2/3 6/2/3 3/2/3 13/2/3
f 20/3/3 8/3/3 6/3/3 17/3/3
f 22/4/3 10/4/3 8/4/3 20/4/3
f 15/1/4 1/1/4 4/1/4 12/1/4
f 18/2/4 5/2/4 7/2/4 16/2/4
f 16/3/4 7/3/4 9/3/4 19/3/4
f 19/4/4 9/4/4 11/4/4 21/4/4
f 12/1/5 4/1/5 5/1/5 18/1/5
f 21/4/5 11/4/5 10/4/5 22/4/5
f 14/1/6 2/1/6 1/1/6 15/1/6
