# MagicaVoxel @ Ephtracy

# group
o 

# material
mtllib Character-26.mtl
usemtl palette

# normals
vn -1 0 0
vn 1 0 0
vn 0 0 1
vn 0 0 -1
vn 0 -1 0
vn 0 1 0

# texcoords
vt 0.0371094 0.5
vt 0.0488281 0.5
vt 0.369141 0.5
vt 0.373047 0.5
vt 0.470703 0.5
vt 0.478516 0.5
vt 0.525391 0.5
vt 0.705078 0.5
vt 0.962891 0.5
vt 0.970703 0.5

# verts
v -0.7 0.6 -1.3
v -0.7 0.6 -1.5
v -0.7 0.8 -1.3
v -0.7 0.8 -1.5
v -0.7 0.9 -1.3
v -0.7 0.9 -1.5
v -0.7 1 -1.3
v -0.7 1 -1.5
v -0.7 1.1 -1.3
v -0.7 1.1 -1.4
v -0.7 1.2 -1.4
v -0.7 1.2 -1.5
v -0.7 1.4 -1.3
v -0.7 1.4 -1.5
v -0.6 1.6 -1.3
v -0.6 1.6 -1.4
v -0.6 1.7 -1.2
v -0.6 1.7 -1.3
v -0.6 1.7 -1.4
v -0.6 1.7 -1.7
v -0.6 1.9 -1.1
v -0.6 1.9 -1.2
v -0.6 1.9 -1.3
v -0.6 1.9 -1.4
v -0.6 2 -1
v -0.6 2 -1.1
v -0.6 2 -1.7
v -0.6 2.1 -1.1
v -0.6 2.1 -1.7
v -0.6 2.2 -1.1
v -0.6 2.2 -1.7
v -0.6 2.3 -1
v -0.6 2.3 -1.1
v -0.6 2.3 -1.2
v -0.6 2.3 -1.6
v -0.6 2.3 -1.7
v -0.6 2.4 -1.2
v -0.6 2.4 -1.6
v -0.5 0 -1.2
v -0.5 0 -1.5
v -0.5 0.1 -1.2
v -0.5 0.1 -1.3
v -0.5 0.1 -1.5
v -0.5 0.3 -1.3
v -0.5 0.3 -1.4
v -0.5 0.5 -1.3
v -0.5 0.5 -1.4
v -0.5 0.6 -1.3
v -0.5 0.6 -1.5
v -0.5 0.7 -1.2
v -0.5 0.7 -1.3
v -0.5 0.7 -1.5
v -0.5 0.7 -1.6
v -0.5 0.8 -1.2
v -0.5 0.8 -1.3
v -0.5 0.8 -1.5
v -0.5 0.8 -1.6
v -0.5 0.9 -1.2
v -0.5 0.9 -1.3
v -0.5 0.9 -1.5
v -0.5 1 -1.2
v -0.5 1 -1.3
v -0.5 1 -1.5
v -0.5 1 -1.6
v -0.5 1.1 -1.3
v -0.5 1.1 -1.5
v -0.5 1.1 -1.6
v -0.5 1.1 -1.7
v -0.5 1.2 -1.2
v -0.5 1.2 -1.3
v -0.5 1.2 -1.5
v -0.5 1.2 -1.6
v -0.5 1.3 -1.2
v -0.5 1.3 -1.3
v -0.5 1.3 -1.5
v -0.5 1.3 -1.6
v -0.5 1.4 -1.2
v -0.5 1.4 -1.3
v -0.5 1.4 -1.5
v -0.5 1.4 -1.6
v -0.5 1.5 -1.1
v -0.5 1.5 -1.3
v -0.5 1.5 -1.6
v -0.5 1.6 -1.1
v -0.5 1.6 -1.2
v -0.5 1.6 -1.3
v -0.5 1.6 -1.4
v -0.5 1.6 -1.6
v -0.5 1.6 -1.7
v -0.5 1.7 -1.2
v -0.5 1.7 -1.3
v -0.5 1.7 -1.4
v -0.5 1.7 -1.6
v -0.5 1.9 -1
v -0.5 1.9 -1.1
v -0.5 1.9 -1.2
v -0.5 2 -1
v -0.5 2 -1.1
v -0.5 2.3 -1.1
v -0.5 2.3 -1.2
v -0.5 2.3 -1.6
v -0.5 2.3 -1.7
v -0.5 2.4 -1.1
v -0.5 2.4 -1.2
v -0.5 2.4 -1.6
v -0.5 2.4 -1.7
v -0.3 1.4 -1.3
v -0.3 1.4 -1.5
v -0.3 1.5 -1.3
v -0.3 1.5 -1.5
v -0.1 0 -1.2
v -0.1 0 -1.5
v -0.1 0.1 -1.2
v -0.1 0.1 -1.3
v -0.1 0.1 -1.5
v -0.1 0.3 -1.3
v -0.1 0.3 -1.4
v -0.1 0.5 -1.3
v -0.1 0.5 -1.4
v -0.1 0.7 -1.3
v -0.1 0.7 -1.5
v -0.1 1.9 -1
v -0.1 1.9 -1.1
v -0.1 2 -1
v -0.1 2 -1.1
v -0.4 1.4 -1.6
v -0.4 1.4 -1.7
v -0.4 1.5 -1.6
v -0.4 1.6 -1.6
v -0.4 1.6 -1.7
v -0.3 0 -1.2
v -0.3 0 -1.5
v -0.3 0.1 -1.2
v -0.3 0.1 -1.3
v -0.3 0.1 -1.5
v -0.3 0.3 -1.3
v -0.3 0.3 -1.4
v -0.3 0.5 -1.3
v -0.3 0.5 -1.4
v -0.3 0.7 -1.3
v -0.3 0.7 -1.5
v -0.3 1.1 -1.6
v -0.3 1.1 -1.7
v -0.3 1.3 -1.6
v -0.3 1.4 -1.6
v -0.3 1.4 -1.7
v -0.3 1.9 -1
v -0.3 1.9 -1.1
v -0.3 2 -1
v -0.3 2 -1.1
v -0.1 1.4 -1.3
v -0.1 1.4 -1.5
v -0.1 1.5 -1.3
v -0.1 1.5 -1.5
v 0.1 0 -1.2
v 0.1 0 -1.5
v 0.1 0.1 -1.2
v 0.1 0.1 -1.3
v 0.1 0.1 -1.5
v 0.1 0.3 -1.3
v 0.1 0.3 -1.4
v 0.1 0.5 -1.3
v 0.1 0.5 -1.4
v 0.1 0.6 -1.3
v 0.1 0.6 -1.5
v 0.1 0.7 -1.2
v 0.1 0.7 -1.3
v 0.1 0.7 -1.5
v 0.1 0.7 -1.6
v 0.1 0.8 -1.2
v 0.1 0.8 -1.3
v 0.1 0.8 -1.5
v 0.1 0.8 -1.6
v 0.1 0.9 -1.2
v 0.1 0.9 -1.3
v 0.1 0.9 -1.5
v 0.1 1 -1.2
v 0.1 1 -1.3
v 0.1 1 -1.5
v 0.1 1 -1.6
v 0.1 1.1 -1.3
v 0.1 1.1 -1.5
v 0.1 1.1 -1.6
v 0.1 1.2 -1.2
v 0.1 1.2 -1.3
v 0.1 1.2 -1.5
v 0.1 1.2 -1.6
v 0.1 1.3 -1.2
v 0.1 1.3 -1.3
v 0.1 1.3 -1.5
v 0.1 1.3 -1.6
v 0.1 1.4 -1.2
v 0.1 1.4 -1.3
v 0.1 1.4 -1.5
v 0.1 1.4 -1.6
v 0.1 1.5 -1.1
v 0.1 1.5 -1.3
v 0.1 1.5 -1.6
v 0.1 1.6 -1.1
v 0.1 1.6 -1.2
v 0.1 1.6 -1.3
v 0.1 1.6 -1.4
v 0.1 1.7 -1.2
v 0.1 1.7 -1.3
v 0.1 1.7 -1.4
v 0.1 1.7 -1.6
v 0.1 1.9 -1
v 0.1 1.9 -1.1
v 0.1 2 -1
v 0.1 2 -1.1
v 0.1 2 -1.2
v 0.1 2.3 -1.1
v 0.1 2.3 -1.2
v 0.1 2.3 -1.6
v 0.1 2.3 -1.7
v 0.1 2.4 -1.1
v 0.1 2.4 -1.2
v 0.1 2.4 -1.6
v 0.1 2.4 -1.7
v 0.2 1.6 -1.3
v 0.2 1.6 -1.4
v 0.2 1.7 -1.2
v 0.2 1.7 -1.3
v 0.2 1.7 -1.4
v 0.2 1.7 -1.7
v 0.2 1.9 -1.3
v 0.2 1.9 -1.4
v 0.2 2 -1
v 0.2 2 -1.1
v 0.2 2 -1.2
v 0.2 2 -1.7
v 0.2 2.1 -1.1
v 0.2 2.1 -1.7
v 0.2 2.2 -1.1
v 0.2 2.2 -1.7
v 0.2 2.3 -1
v 0.2 2.3 -1.1
v 0.2 2.3 -1.2
v 0.2 2.3 -1.6
v 0.2 2.3 -1.7
v 0.2 2.4 -1.2
v 0.2 2.4 -1.6
v 0.3 0.6 -1.3
v 0.3 0.6 -1.5
v 0.3 0.8 -1.3
v 0.3 0.8 -1.5
v 0.3 0.9 -1.3
v 0.3 0.9 -1.5
v 0.3 1 -1.3
v 0.3 1 -1.5
v 0.3 1.1 -1.3
v 0.3 1.1 -1.4
v 0.3 1.2 -1.4
v 0.3 1.2 -1.5
v 0.3 1.4 -1.3
v 0.3 1.4 -1.5
v -0.6 2 -1
v -0.6 2.3 -1
v -0.5 1.9 -1
v -0.5 2 -1
v -0.5 2.2 -1
v -0.3 1.9 -1
v -0.3 2 -1
v -0.3 2.2 -1
v -0.1 1.9 -1
v -0.1 2 -1
v -0.1 2.2 -1
v 0.1 1.9 -1
v 0.1 2 -1
v 0.1 2.2 -1
v 0.2 2 -1
v 0.2 2.3 -1
v -0.6 1.9 -1.1
v -0.6 2 -1.1
v -0.5 1.5 -1.1
v -0.5 1.6 -1.1
v -0.5 1.9 -1.1
v -0.5 2 -1.1
v -0.5 2.3 -1.1
v -0.5 2.4 -1.1
v -0.4 1.8 -1.1
v -0.4 1.9 -1.1
v -0.3 1.6 -1.1
v -0.3 1.7 -1.1
v -0.3 1.8 -1.1
v -0.3 1.9 -1.1
v -0.3 2 -1.1
v -0.1 1.6 -1.1
v -0.1 1.7 -1.1
v -0.1 1.8 -1.1
v -0.1 1.9 -1.1
v -0.1 2 -1.1
v 0 1.8 -1.1
v 0 1.9 -1.1
v 0.1 1.5 -1.1
v 0.1 1.6 -1.1
v 0.1 1.9 -1.1
v 0.1 2.3 -1.1
v 0.1 2.4 -1.1
v -0.6 1.7 -1.2
v -0.6 1.9 -1.2
v -0.6 2.3 -1.2
v -0.6 2.4 -1.2
v -0.5 0 -1.2
v -0.5 0.1 -1.2
v -0.5 0.7 -1.2
v -0.5 0.8 -1.2
v -0.5 0.9 -1.2
v -0.5 1 -1.2
v -0.5 1.2 -1.2
v -0.5 1.3 -1.2
v -0.5 1.4 -1.2
v -0.5 1.7 -1.2
v -0.5 1.9 -1.2
v -0.5 2.3 -1.2
v -0.5 2.4 -1.2
v -0.4 0.9 -1.2
v -0.4 1 -1.2
v -0.4 1.3 -1.2
v -0.4 1.4 -1.2
v -0.3 0 -1.2
v -0.3 0.1 -1.2
v -0.3 0.7 -1.2
v -0.3 0.8 -1.2
v -0.3 0.9 -1.2
v -0.3 1 -1.2
v -0.3 1.1 -1.2
v -0.3 1.2 -1.2
v -0.3 1.3 -1.2
v -0.3 1.4 -1.2
v -0.2 0.9 -1.2
v -0.2 1 -1.2
v -0.2 1.1 -1.2
v -0.2 1.2 -1.2
v -0.1 0 -1.2
v -0.1 0.1 -1.2
v -0.1 0.7 -1.2
v -0.1 0.8 -1.2
v -0.1 0.9 -1.2
v -0.1 1 -1.2
v -0.1 1.1 -1.2
v -0.1 1.2 -1.2
v -0.1 1.3 -1.2
v -0.1 1.4 -1.2
v 0 0.9 -1.2
v 0 1 -1.2
v 0 1.3 -1.2
v 0 1.4 -1.2
v 0.1 0 -1.2
v 0.1 0.1 -1.2
v 0.1 0.7 -1.2
v 0.1 0.8 -1.2
v 0.1 0.9 -1.2
v 0.1 1 -1.2
v 0.1 1.2 -1.2
v 0.1 1.3 -1.2
v 0.1 1.4 -1.2
v 0.1 1.7 -1.2
v 0.1 2 -1.2
v 0.1 2.3 -1.2
v 0.1 2.4 -1.2
v 0.2 1.7 -1.2
v 0.2 2 -1.2
v 0.2 2.3 -1.2
v 0.2 2.4 -1.2
v -0.7 0.6 -1.3
v -0.7 0.8 -1.3
v -0.7 0.9 -1.3
v -0.7 1 -1.3
v -0.7 1.1 -1.3
v -0.7 1.4 -1.3
v -0.6 1.6 -1.3
v -0.6 1.7 -1.3
v -0.5 0.1 -1.3
v -0.5 0.3 -1.3
v -0.5 0.5 -1.3
v -0.5 0.6 -1.3
v -0.5 0.7 -1.3
v -0.5 0.8 -1.3
v -0.5 0.9 -1.3
v -0.5 1 -1.3
v -0.5 1.1 -1.3
v -0.5 1.2 -1.3
v -0.5 1.3 -1.3
v -0.5 1.4 -1.3
v -0.5 1.6 -1.3
v -0.5 1.7 -1.3
v -0.3 0.1 -1.3
v -0.3 0.3 -1.3
v -0.3 0.5 -1.3
v -0.3 0.7 -1.3
v -0.3 1.4 -1.3
v -0.3 1.5 -1.3
v -0.1 0.1 -1.3
v -0.1 0.3 -1.3
v -0.1 0.5 -1.3
v -0.1 0.7 -1.3
v -0.1 1.4 -1.3
v -0.1 1.5 -1.3
v 0.1 0.1 -1.3
v 0.1 0.3 -1.3
v 0.1 0.5 -1.3
v 0.1 0.6 -1.3
v 0.1 0.7 -1.3
v 0.1 0.8 -1.3
v 0.1 0.9 -1.3
v 0.1 1 -1.3
v 0.1 1.1 -1.3
v 0.1 1.2 -1.3
v 0.1 1.3 -1.3
v 0.1 1.4 -1.3
v 0.1 1.6 -1.3
v 0.1 1.7 -1.3
v 0.2 1.6 -1.3
v 0.2 1.7 -1.3
v 0.3 0.6 -1.3
v 0.3 0.8 -1.3
v 0.3 0.9 -1.3
v 0.3 1 -1.3
v 0.3 1.1 -1.3
v 0.3 1.4 -1.3
v -0.5 1.4 -1.6
v -0.5 1.5 -1.6
v -0.4 1.4 -1.6
v -0.4 1.5 -1.6
v -0.6 1.6 -1.4
v -0.6 1.7 -1.4
v -0.5 1.6 -1.4
v -0.5 1.7 -1.4
v 0.1 1.6 -1.4
v 0.1 1.7 -1.4
v 0.2 1.6 -1.4
v 0.2 1.7 -1.4
v -0.7 0.6 -1.5
v -0.7 0.8 -1.5
v -0.7 0.9 -1.5
v -0.7 1 -1.5
v -0.7 1.2 -1.5
v -0.7 1.4 -1.5
v -0.5 0 -1.5
v -0.5 0.1 -1.5
v -0.5 0.6 -1.5
v -0.5 0.7 -1.5
v -0.5 0.8 -1.5
v -0.5 0.9 -1.5
v -0.5 1 -1.5
v -0.5 1.1 -1.5
v -0.5 1.2 -1.5
v -0.5 1.3 -1.5
v -0.5 1.4 -1.5
v -0.3 0 -1.5
v -0.3 0.1 -1.5
v -0.3 0.7 -1.5
v -0.3 1.4 -1.5
v -0.3 1.5 -1.5
v -0.1 0 -1.5
v -0.1 0.1 -1.5
v -0.1 0.7 -1.5
v -0.1 1.4 -1.5
v -0.1 1.5 -1.5
v 0.1 0 -1.5
v 0.1 0.1 -1.5
v 0.1 0.6 -1.5
v 0.1 0.7 -1.5
v 0.1 0.8 -1.5
v 0.1 0.9 -1.5
v 0.1 1 -1.5
v 0.1 1.1 -1.5
v 0.1 1.2 -1.5
v 0.1 1.3 -1.5
v 0.1 1.4 -1.5
v 0.3 0.6 -1.5
v 0.3 0.8 -1.5
v 0.3 0.9 -1.5
v 0.3 1 -1.5
v 0.3 1.2 -1.5
v 0.3 1.4 -1.5
v -0.6 2.3 -1.6
v -0.6 2.4 -1.6
v -0.5 0.7 -1.6
v -0.5 0.8 -1.6
v -0.5 1 -1.6
v -0.5 1.1 -1.6
v -0.5 1.6 -1.6
v -0.5 1.7 -1.6
v -0.5 2.3 -1.6
v -0.5 2.4 -1.6
v -0.4 1.5 -1.6
v -0.4 1.6 -1.6
v -0.3 0.7 -1.6
v -0.3 0.8 -1.6
v -0.3 1 -1.6
v -0.3 1.1 -1.6
v -0.3 1.3 -1.6
v -0.3 1.4 -1.6
v -0.1 0.7 -1.6
v -0.1 0.8 -1.6
v -0.1 1 -1.6
v -0.1 1.1 -1.6
v -0.1 1.2 -1.6
v 0 1.3 -1.6
v 0 1.4 -1.6
v 0.1 0.7 -1.6
v 0.1 0.8 -1.6
v 0.1 1 -1.6
v 0.1 1.1 -1.6
v 0.1 1.2 -1.6
v 0.1 1.3 -1.6
v 0.1 1.4 -1.6
v 0.1 1.5 -1.6
v 0.1 1.7 -1.6
v 0.1 2.3 -1.6
v 0.1 2.4 -1.6
v 0.2 2.3 -1.6
v 0.2 2.4 -1.6
v -0.6 1.7 -1.7
v -0.6 2 -1.7
v -0.6 2.1 -1.7
v -0.6 2.2 -1.7
v -0.6 2.3 -1.7
v -0.5 1.1 -1.7
v -0.5 1.6 -1.7
v -0.5 2.3 -1.7
v -0.5 2.4 -1.7
v -0.4 1.4 -1.7
v -0.4 1.6 -1.7
v -0.3 1.1 -1.7
v -0.3 1.4 -1.7
v 0.1 2.3 -1.7
v 0.1 2.4 -1.7
v 0.2 1.7 -1.7
v 0.2 2 -1.7
v 0.2 2.1 -1.7
v 0.2 2.2 -1.7
v 0.2 2.3 -1.7
v -0.5 0 -1.2
v -0.3 0 -1.2
v -0.1 0 -1.2
v 0.1 0 -1.2
v -0.5 0 -1.5
v -0.3 0 -1.5
v -0.1 0 -1.5
v 0.1 0 -1.5
v -0.7 0.6 -1.3
v -0.5 0.6 -1.3
v 0.1 0.6 -1.3
v 0.3 0.6 -1.3
v -0.7 0.6 -1.5
v -0.5 0.6 -1.5
v 0.1 0.6 -1.5
v 0.3 0.6 -1.5
v -0.5 0.7 -1.2
v -0.3 0.7 -1.2
v -0.1 0.7 -1.2
v 0.1 0.7 -1.2
v -0.5 0.7 -1.3
v -0.3 0.7 -1.3
v -0.1 0.7 -1.3
v 0.1 0.7 -1.3
v -0.5 0.7 -1.5
v -0.3 0.7 -1.5
v -0.1 0.7 -1.5
v 0.1 0.7 -1.5
v -0.5 0.7 -1.6
v -0.3 0.7 -1.6
v -0.1 0.7 -1.6
v 0.1 0.7 -1.6
v -0.5 1.1 -1.6
v -0.3 1.1 -1.6
v -0.5 1.1 -1.7
v -0.3 1.1 -1.7
v -0.5 1.5 -1.1
v 0.1 1.5 -1.1
v -0.4 1.5 -1.2
v 0 1.5 -1.2
v -0.5 1.5 -1.3
v -0.4 1.5 -1.3
v -0.3 1.5 -1.3
v -0.1 1.5 -1.3
v 0 1.5 -1.3
v 0.1 1.5 -1.3
v -0.3 1.5 -1.5
v -0.1 1.5 -1.5
v -0.5 1.5 -1.6
v -0.4 1.5 -1.6
v 0.1 1.5 -1.6
v -0.6 1.6 -1.3
v -0.5 1.6 -1.3
v 0.1 1.6 -1.3
v 0.2 1.6 -1.3
v -0.6 1.6 -1.4
v -0.5 1.6 -1.4
v 0.1 1.6 -1.4
v 0.2 1.6 -1.4
v -0.6 1.7 -1.2
v -0.5 1.7 -1.2
v 0.1 1.7 -1.2
v 0.2 1.7 -1.2
v -0.6 1.7 -1.3
v -0.5 1.7 -1.3
v 0.1 1.7 -1.3
v 0.2 1.7 -1.3
v -0.6 1.7 -1.4
v -0.5 1.7 -1.4
v 0.1 1.7 -1.4
v 0.2 1.7 -1.4
v -0.5 1.7 -1.6
v 0.1 1.7 -1.6
v -0.6 1.7 -1.7
v 0.2 1.7 -1.7
v -0.5 1.9 -1
v -0.3 1.9 -1
v -0.1 1.9 -1
v 0.1 1.9 -1
v -0.6 1.9 -1.1
v -0.5 1.9 -1.1
v -0.4 1.9 -1.1
v -0.3 1.9 -1.1
v -0.1 1.9 -1.1
v 0 1.9 -1.1
v 0.1 1.9 -1.1
v -0.6 1.9 -1.2
v -0.5 1.9 -1.2
v -0.6 2 -1
v -0.5 2 -1
v -0.3 2 -1
v -0.1 2 -1
v 0.1 2 -1
v 0.2 2 -1
v -0.6 2 -1.1
v -0.5 2 -1.1
v -0.3 2 -1.1
v -0.1 2 -1.1
v 0.1 2 -1.1
v 0.2 2 -1.1
v 0.1 2 -1.2
v 0.2 2 -1.2
v -0.5 0.1 -1.2
v -0.3 0.1 -1.2
v -0.1 0.1 -1.2
v 0.1 0.1 -1.2
v -0.5 0.1 -1.3
v -0.3 0.1 -1.3
v -0.1 0.1 -1.3
v 0.1 0.1 -1.3
v -0.5 1.4 -1.2
v -0.4 1.4 -1.2
v -0.3 1.4 -1.2
v -0.1 1.4 -1.2
v 0 1.4 -1.2
v 0.1 1.4 -1.2
v -0.7 1.4 -1.3
v -0.5 1.4 -1.3
v -0.4 1.4 -1.3
v -0.3 1.4 -1.3
v -0.1 1.4 -1.3
v 0 1.4 -1.3
v 0.1 1.4 -1.3
v 0.3 1.4 -1.3
v -0.7 1.4 -1.5
v -0.5 1.4 -1.5
v -0.4 1.4 -1.5
v -0.3 1.4 -1.5
v -0.1 1.4 -1.5
v 0 1.4 -1.5
v 0.1 1.4 -1.5
v 0.3 1.4 -1.5
v -0.5 1.4 -1.6
v -0.4 1.4 -1.6
v -0.3 1.4 -1.6
v 0 1.4 -1.6
v 0.1 1.4 -1.6
v -0.4 1.4 -1.7
v -0.3 1.4 -1.7
v -0.5 1.6 -1.6
v -0.4 1.6 -1.6
v -0.5 1.6 -1.7
v -0.4 1.6 -1.7
v -0.6 2.3 -1
v 0.2 2.3 -1
v -0.6 2.3 -1.1
v -0.5 2.3 -1.1
v 0.1 2.3 -1.1
v 0.2 2.3 -1.1
v -0.6 2.3 -1.2
v -0.5 2.3 -1.2
v 0.1 2.3 -1.2
v 0.2 2.3 -1.2
v -0.6 2.3 -1.6
v -0.5 2.3 -1.6
v 0.1 2.3 -1.6
v 0.2 2.3 -1.6
v -0.6 2.3 -1.7
v -0.5 2.3 -1.7
v 0.1 2.3 -1.7
v 0.2 2.3 -1.7
v -0.5 2.4 -1.1
v 0.1 2.4 -1.1
v -0.6 2.4 -1.2
v -0.5 2.4 -1.2
v 0.1 2.4 -1.2
v 0.2 2.4 -1.2
v -0.6 2.4 -1.6
v -0.5 2.4 -1.6
v 0.1 2.4 -1.6
v 0.2 2.4 -1.6
v -0.5 2.4 -1.7
v 0.1 2.4 -1.7

# faces
f 3/7/1 2/7/1 1/7/1
f 4/7/1 2/7/1 3/7/1
f 5/1/1 4/1/1 3/1/1
f 6/1/1 4/1/1 5/1/1
f 7/3/1 6/3/1 5/3/1
f 8/3/1 6/3/1 7/3/1
f 9/7/1 8/7/1 7/7/1
f 10/7/1 8/7/1 9/7/1
f 11/3/1 10/3/1 9/3/1
f 11/7/1 8/7/1 10/7/1
f 12/7/1 8/7/1 11/7/1
f 13/3/1 11/3/1 9/3/1
f 13/3/1 12/3/1 11/3/1
f 14/3/1 12/3/1 13/3/1
f 18/2/1 16/2/1 15/2/1
f 19/2/1 16/2/1 18/2/1
f 22/7/1 18/7/1 17/7/1
f 23/2/1 19/2/1 18/2/1
f 23/7/1 18/7/1 22/7/1
f 24/7/1 20/7/1 19/7/1
f 24/2/1 19/2/1 23/2/1
f 26/7/1 23/7/1 22/7/1
f 26/7/1 22/7/1 21/7/1
f 26/7/1 24/7/1 23/7/1
f 27/7/1 20/7/1 24/7/1
f 27/7/1 24/7/1 26/7/1
f 28/7/1 26/7/1 25/7/1
f 28/3/1 27/3/1 26/3/1
f 29/3/1 27/3/1 28/3/1
f 30/7/1 28/7/1 25/7/1
f 30/7/1 29/7/1 28/7/1
f 31/7/1 29/7/1 30/7/1
f 32/7/1 30/7/1 25/7/1
f 33/3/1 31/3/1 30/3/1
f 33/7/1 30/7/1 32/7/1
f 34/3/1 31/3/1 33/3/1
f 35/3/1 31/3/1 34/3/1
f 36/3/1 31/3/1 35/3/1
f 37/3/1 35/3/1 34/3/1
f 38/3/1 35/3/1 37/3/1
f 41/6/1 40/6/1 39/6/1
f 42/6/1 40/6/1 41/6/1
f 43/6/1 40/6/1 42/6/1
f 44/3/1 43/3/1 42/3/1
f 45/3/1 43/3/1 44/3/1
f 46/7/1 45/7/1 44/7/1
f 47/3/1 43/3/1 45/3/1
f 47/7/1 45/7/1 46/7/1
f 48/3/1 47/3/1 46/3/1
f 49/3/1 43/3/1 47/3/1
f 49/3/1 47/3/1 48/3/1
f 54/3/1 51/3/1 50/3/1
f 55/3/1 51/3/1 54/3/1
f 56/3/1 53/3/1 52/3/1
f 57/3/1 53/3/1 56/3/1
f 58/6/1 55/6/1 54/6/1
f 59/6/1 55/6/1 58/6/1
f 60/6/1 57/6/1 56/6/1
f 61/5/1 59/5/1 58/5/1
f 62/5/1 59/5/1 61/5/1
f 63/6/1 57/6/1 60/6/1
f 64/6/1 57/6/1 63/6/1
f 65/6/1 62/6/1 61/6/1
f 66/5/1 64/5/1 63/5/1
f 67/5/1 64/5/1 66/5/1
f 69/6/1 65/6/1 61/6/1
f 70/6/1 65/6/1 69/6/1
f 71/6/1 67/6/1 66/6/1
f 72/7/1 68/7/1 67/7/1
f 72/6/1 67/6/1 71/6/1
f 73/9/1 70/9/1 69/9/1
f 74/9/1 70/9/1 73/9/1
f 75/5/1 72/5/1 71/5/1
f 76/7/1 68/7/1 72/7/1
f 76/5/1 72/5/1 75/5/1
f 77/6/1 74/6/1 73/6/1
f 78/6/1 74/6/1 77/6/1
f 79/6/1 76/6/1 75/6/1
f 80/7/1 68/7/1 76/7/1
f 80/6/1 76/6/1 79/6/1
f 83/7/1 68/7/1 80/7/1
f 84/7/1 82/7/1 81/7/1
f 85/7/1 82/7/1 84/7/1
f 86/1/1 83/1/1 82/1/1
f 86/7/1 82/7/1 85/7/1
f 87/1/1 83/1/1 86/1/1
f 88/7/1 68/7/1 83/7/1
f 88/1/1 83/1/1 87/1/1
f 89/7/1 68/7/1 88/7/1
f 90/1/1 85/1/1 84/1/1
f 90/7/1 86/7/1 85/7/1
f 91/7/1 86/7/1 90/7/1
f 92/1/1 88/1/1 87/1/1
f 93/1/1 88/1/1 92/1/1
f 95/1/1 90/1/1 84/1/1
f 96/1/1 90/1/1 95/1/1
f 97/7/1 95/7/1 94/7/1
f 98/7/1 95/7/1 97/7/1
f 103/3/1 100/3/1 99/3/1
f 104/3/1 100/3/1 103/3/1
f 105/3/1 102/3/1 101/3/1
f 106/3/1 102/3/1 105/3/1
f 109/1/1 108/1/1 107/1/1
f 110/1/1 108/1/1 109/1/1
f 113/6/1 112/6/1 111/6/1
f 114/6/1 112/6/1 113/6/1
f 115/6/1 112/6/1 114/6/1
f 116/3/1 115/3/1 114/3/1
f 117/3/1 115/3/1 116/3/1
f 118/7/1 117/7/1 116/7/1
f 119/3/1 115/3/1 117/3/1
f 119/7/1 117/7/1 118/7/1
f 120/3/1 119/3/1 118/3/1
f 121/3/1 115/3/1 119/3/1
f 121/3/1 119/3/1 120/3/1
f 124/7/1 123/7/1 122/7/1
f 125/7/1 123/7/1 124/7/1
f 126/7/2 127/7/2 128/7/2
f 128/7/2 127/7/2 129/7/2
f 129/7/2 127/7/2 130/7/2
f 131/6/2 132/6/2 133/6/2
f 133/6/2 132/6/2 134/6/2
f 134/6/2 132/6/2 135/6/2
f 134/3/2 135/3/2 136/3/2
f 136/3/2 135/3/2 137/3/2
f 136/7/2 137/7/2 138/7/2
f 137/3/2 135/3/2 139/3/2
f 138/7/2 137/7/2 139/7/2
f 138/3/2 139/3/2 140/3/2
f 139/3/2 135/3/2 141/3/2
f 140/3/2 139/3/2 141/3/2
f 142/7/2 143/7/2 144/7/2
f 144/7/2 143/7/2 145/7/2
f 145/7/2 143/7/2 146/7/2
f 147/7/2 148/7/2 149/7/2
f 149/7/2 148/7/2 150/7/2
f 151/1/2 152/1/2 153/1/2
f 153/1/2 152/1/2 154/1/2
f 155/6/2 156/6/2 157/6/2
f 157/6/2 156/6/2 158/6/2
f 158/6/2 156/6/2 159/6/2
f 158/3/2 159/3/2 160/3/2
f 160/3/2 159/3/2 161/3/2
f 160/7/2 161/7/2 162/7/2
f 161/3/2 159/3/2 163/3/2
f 162/7/2 161/7/2 163/7/2
f 162/3/2 163/3/2 164/3/2
f 163/3/2 159/3/2 165/3/2
f 164/3/2 163/3/2 165/3/2
f 166/3/2 167/3/2 170/3/2
f 170/3/2 167/3/2 171/3/2
f 168/3/2 169/3/2 172/3/2
f 172/3/2 169/3/2 173/3/2
f 170/6/2 171/6/2 174/6/2
f 174/6/2 171/6/2 175/6/2
f 172/6/2 173/6/2 176/6/2
f 174/5/2 175/5/2 177/5/2
f 177/5/2 175/5/2 178/5/2
f 176/6/2 173/6/2 179/6/2
f 179/6/2 173/6/2 180/6/2
f 177/6/2 178/6/2 181/6/2
f 179/5/2 180/5/2 182/5/2
f 182/5/2 180/5/2 183/5/2
f 177/6/2 181/6/2 184/6/2
f 184/6/2 181/6/2 185/6/2
f 182/6/2 183/6/2 186/6/2
f 186/6/2 183/6/2 187/6/2
f 184/9/2 185/9/2 188/9/2
f 188/9/2 185/9/2 189/9/2
f 186/5/2 187/5/2 190/5/2
f 190/5/2 187/5/2 191/5/2
f 188/6/2 189/6/2 192/6/2
f 192/6/2 189/6/2 193/6/2
f 190/6/2 191/6/2 194/6/2
f 194/6/2 191/6/2 195/6/2
f 196/7/2 197/7/2 199/7/2
f 199/7/2 197/7/2 200/7/2
f 197/1/2 198/1/2 201/1/2
f 200/7/2 197/7/2 201/7/2
f 201/1/2 198/1/2 202/1/2
f 199/1/2 200/1/2 203/1/2
f 200/7/2 201/7/2 203/7/2
f 203/7/2 201/7/2 204/7/2
f 202/1/2 198/1/2 205/1/2
f 205/1/2 198/1/2 206/1/2
f 199/1/2 203/1/2 208/1/2
f 207/7/2 208/7/2 209/7/2
f 208/1/2 203/1/2 210/1/2
f 209/7/2 208/7/2 210/7/2
f 210/1/2 203/1/2 211/1/2
f 212/3/2 213/3/2 216/3/2
f 216/3/2 213/3/2 217/3/2
f 214/3/2 215/3/2 218/3/2
f 218/3/2 215/3/2 219/3/2
f 220/2/2 221/2/2 223/2/2
f 223/2/2 221/2/2 224/2/2
f 222/7/2 223/7/2 226/7/2
f 223/2/2 224/2/2 226/2/2
f 224/7/2 225/7/2 227/7/2
f 226/2/2 224/2/2 227/2/2
f 222/7/2 226/7/2 230/7/2
f 226/7/2 227/7/2 230/7/2
f 227/7/2 225/7/2 231/7/2
f 230/7/2 227/7/2 231/7/2
f 228/7/2 229/7/2 232/7/2
f 229/3/2 230/3/2 232/3/2
f 230/3/2 231/3/2 232/3/2
f 232/3/2 231/3/2 233/3/2
f 228/7/2 232/7/2 234/7/2
f 232/7/2 233/7/2 234/7/2
f 234/7/2 233/7/2 235/7/2
f 228/7/2 234/7/2 236/7/2
f 234/3/2 235/3/2 237/3/2
f 236/7/2 234/7/2 237/7/2
f 237/3/2 235/3/2 238/3/2
f 238/3/2 235/3/2 239/3/2
f 239/3/2 235/3/2 240/3/2
f 238/3/2 239/3/2 241/3/2
f 241/3/2 239/3/2 242/3/2
f 243/7/2 244/7/2 245/7/2
f 245/7/2 244/7/2 246/7/2
f 245/1/2 246/1/2 247/1/2
f 247/1/2 246/1/2 248/1/2
f 247/3/2 248/3/2 249/3/2
f 249/3/2 248/3/2 250/3/2
f 249/7/2 250/7/2 251/7/2
f 251/7/2 250/7/2 252/7/2
f 251/3/2 252/3/2 253/3/2
f 252/7/2 250/7/2 253/7/2
f 253/7/2 250/7/2 254/7/2
f 251/3/2 253/3/2 255/3/2
f 253/3/2 254/3/2 255/3/2
f 255/3/2 254/3/2 256/3/2
f 260/7/3 258/7/3 257/7/3
f 261/7/3 258/7/3 260/7/3
f 262/7/3 260/7/3 259/7/3
f 263/8/3 261/8/3 260/8/3
f 263/7/3 260/7/3 262/7/3
f 264/7/3 258/7/3 261/7/3
f 264/8/3 261/8/3 263/8/3
f 266/7/3 264/7/3 263/7/3
f 267/7/3 258/7/3 264/7/3
f 267/7/3 264/7/3 266/7/3
f 268/7/3 266/7/3 265/7/3
f 269/8/3 267/8/3 266/8/3
f 269/7/3 266/7/3 268/7/3
f 270/7/3 258/7/3 267/7/3
f 270/8/3 267/8/3 269/8/3
f 271/7/3 270/7/3 269/7/3
f 272/7/3 258/7/3 270/7/3
f 272/7/3 270/7/3 271/7/3
f 277/7/3 274/7/3 273/7/3
f 278/7/3 274/7/3 277/7/3
f 281/1/3 277/1/3 276/1/3
f 282/1/3 277/1/3 281/1/3
f 283/7/3 276/7/3 275/7/3
f 283/1/3 281/1/3 276/1/3
f 284/1/3 281/1/3 283/1/3
f 285/7/3 282/7/3 281/7/3
f 285/1/3 281/1/3 284/1/3
f 286/7/3 282/7/3 285/7/3
f 288/10/3 284/10/3 283/10/3
f 288/7/3 283/7/3 275/7/3
f 289/1/3 286/1/3 285/1/3
f 289/10/3 284/10/3 288/10/3
f 289/1/3 287/1/3 286/1/3
f 289/1/3 285/1/3 284/1/3
f 290/1/3 287/1/3 289/1/3
f 291/1/3 287/1/3 290/1/3
f 292/1/3 287/1/3 291/1/3
f 293/1/3 289/1/3 288/1/3
f 293/1/3 290/1/3 289/1/3
f 293/7/3 291/7/3 290/7/3
f 294/7/3 291/7/3 293/7/3
f 295/7/3 288/7/3 275/7/3
f 296/1/3 293/1/3 288/1/3
f 296/7/3 288/7/3 295/7/3
f 296/1/3 294/1/3 293/1/3
f 297/1/3 294/1/3 296/1/3
f 298/3/3 280/3/3 279/3/3
f 299/3/3 280/3/3 298/3/3
f 313/7/3 301/7/3 300/7/3
f 314/7/3 301/7/3 313/7/3
f 315/3/3 303/3/3 302/3/3
f 316/3/3 303/3/3 315/3/3
f 317/6/3 308/6/3 307/6/3
f 317/5/3 309/5/3 308/5/3
f 318/6/3 310/6/3 309/6/3
f 318/5/3 309/5/3 317/5/3
f 319/6/3 312/6/3 311/6/3
f 319/9/3 311/9/3 310/9/3
f 320/6/3 312/6/3 319/6/3
f 321/6/3 305/6/3 304/6/3
f 322/6/3 305/6/3 321/6/3
f 323/3/3 307/3/3 306/3/3
f 324/6/3 317/6/3 307/6/3
f 324/3/3 307/3/3 323/3/3
f 325/9/3 318/9/3 317/9/3
f 325/6/3 317/6/3 324/6/3
f 326/6/3 310/6/3 318/6/3
f 326/9/3 318/9/3 325/9/3
f 327/6/3 310/6/3 326/6/3
f 328/9/3 319/9/3 310/9/3
f 328/6/3 310/6/3 327/6/3
f 329/3/3 320/3/3 319/3/3
f 329/9/3 319/9/3 328/9/3
f 330/3/3 320/3/3 329/3/3
f 331/5/3 325/5/3 324/5/3
f 331/5/3 324/5/3 323/5/3
f 331/5/3 326/5/3 325/5/3
f 332/9/3 327/9/3 326/9/3
f 332/5/3 326/5/3 331/5/3
f 333/5/3 329/5/3 328/5/3
f 333/9/3 327/9/3 332/9/3
f 333/5/3 328/5/3 327/5/3
f 334/5/3 329/5/3 333/5/3
f 337/5/3 331/5/3 323/5/3
f 338/5/3 331/5/3 337/5/3
f 339/9/3 332/9/3 331/9/3
f 339/5/3 331/5/3 338/5/3
f 340/5/3 333/5/3 332/5/3
f 340/9/3 332/9/3 339/9/3
f 341/9/3 334/9/3 333/9/3
f 341/5/3 333/5/3 340/5/3
f 342/5/3 329/5/3 334/5/3
f 342/9/3 334/9/3 341/9/3
f 343/4/3 330/4/3 329/4/3
f 343/5/3 329/5/3 342/5/3
f 344/4/3 330/4/3 343/4/3
f 345/6/3 339/6/3 338/6/3
f 345/9/3 340/9/3 339/9/3
f 346/6/3 342/6/3 341/6/3
f 346/9/3 340/9/3 345/9/3
f 346/6/3 341/6/3 340/6/3
f 347/3/3 344/3/3 343/3/3
f 347/9/3 343/9/3 342/9/3
f 348/3/3 344/3/3 347/3/3
f 349/6/3 336/6/3 335/6/3
f 350/6/3 336/6/3 349/6/3
f 351/3/3 338/3/3 337/3/3
f 352/6/3 345/6/3 338/6/3
f 352/3/3 338/3/3 351/3/3
f 353/5/3 346/5/3 345/5/3
f 353/6/3 345/6/3 352/6/3
f 354/6/3 342/6/3 346/6/3
f 354/5/3 346/5/3 353/5/3
f 355/9/3 347/9/3 342/9/3
f 355/6/3 342/6/3 354/6/3
f 356/6/3 348/6/3 347/6/3
f 356/9/3 347/9/3 355/9/3
f 357/6/3 348/6/3 356/6/3
f 362/7/3 359/7/3 358/7/3
f 363/7/3 359/7/3 362/7/3
f 364/3/3 361/3/3 360/3/3
f 365/3/3 361/3/3 364/3/3
f 377/7/3 367/7/3 366/7/3
f 378/7/3 367/7/3 377/7/3
f 379/1/3 368/1/3 367/1/3
f 379/7/3 367/7/3 378/7/3
f 380/3/3 369/3/3 368/3/3
f 380/1/3 368/1/3 379/1/3
f 381/7/3 370/7/3 369/7/3
f 381/3/3 369/3/3 380/3/3
f 382/3/3 371/3/3 370/3/3
f 382/7/3 370/7/3 381/7/3
f 383/3/3 371/3/3 382/3/3
f 384/3/3 371/3/3 383/3/3
f 385/3/3 371/3/3 384/3/3
f 386/2/3 373/2/3 372/2/3
f 387/2/3 373/2/3 386/2/3
f 388/3/3 375/3/3 374/3/3
f 389/7/3 376/7/3 375/7/3
f 389/3/3 375/3/3 388/3/3
f 390/3/3 378/3/3 377/3/3
f 390/7/3 376/7/3 389/7/3
f 390/3/3 377/3/3 376/3/3
f 391/3/3 378/3/3 390/3/3
f 398/1/3 393/1/3 392/1/3
f 399/1/3 393/1/3 398/1/3
f 400/3/3 395/3/3 394/3/3
f 401/7/3 396/7/3 395/7/3
f 401/3/3 395/3/3 400/3/3
f 402/3/3 397/3/3 396/3/3
f 402/7/3 396/7/3 401/7/3
f 403/3/3 397/3/3 402/3/3
f 404/3/3 397/3/3 403/3/3
f 414/2/3 413/2/3 412/2/3
f 415/2/3 413/2/3 414/2/3
f 416/7/3 404/7/3 403/7/3
f 416/7/3 405/7/3 404/7/3
f 417/1/3 406/1/3 405/1/3
f 417/7/3 405/7/3 416/7/3
f 418/3/3 407/3/3 406/3/3
f 418/1/3 406/1/3 417/1/3
f 419/7/3 408/7/3 407/7/3
f 419/3/3 407/3/3 418/3/3
f 420/3/3 410/3/3 409/3/3
f 420/7/3 408/7/3 419/7/3
f 420/3/3 411/3/3 410/3/3
f 420/3/3 409/3/3 408/3/3
f 421/3/3 411/3/3 420/3/3
f 424/7/3 423/7/3 422/7/3
f 425/7/3 423/7/3 424/7/3
f 426/2/4 427/2/4 428/2/4
f 428/2/4 427/2/4 429/2/4
f 430/2/4 431/2/4 432/2/4
f 432/2/4 431/2/4 433/2/4
f 434/7/4 435/7/4 442/7/4
f 442/7/4 435/7/4 443/7/4
f 435/1/4 436/1/4 444/1/4
f 443/7/4 435/7/4 444/7/4
f 436/3/4 437/3/4 445/3/4
f 444/1/4 436/1/4 445/1/4
f 437/7/4 438/7/4 446/7/4
f 445/3/4 437/3/4 446/3/4
f 446/7/4 438/7/4 447/7/4
f 438/3/4 439/3/4 448/3/4
f 447/7/4 438/7/4 448/7/4
f 448/3/4 439/3/4 449/3/4
f 449/3/4 439/3/4 450/3/4
f 440/6/4 441/6/4 451/6/4
f 442/3/4 443/3/4 452/3/4
f 451/6/4 441/6/4 452/6/4
f 441/3/4 442/3/4 452/3/4
f 452/3/4 443/3/4 453/3/4
f 454/1/4 455/1/4 459/1/4
f 459/1/4 455/1/4 460/1/4
f 456/6/4 457/6/4 461/6/4
f 457/3/4 458/3/4 462/3/4
f 461/6/4 457/6/4 462/6/4
f 462/3/4 458/3/4 463/3/4
f 463/3/4 458/3/4 464/3/4
f 463/7/4 464/7/4 472/7/4
f 464/7/4 465/7/4 472/7/4
f 465/1/4 466/1/4 473/1/4
f 472/7/4 465/7/4 473/7/4
f 466/3/4 467/3/4 474/3/4
f 473/1/4 466/1/4 474/1/4
f 468/7/4 469/7/4 475/7/4
f 474/3/4 467/3/4 475/3/4
f 467/7/4 468/7/4 475/7/4
f 470/3/4 471/3/4 476/3/4
f 475/7/4 469/7/4 476/7/4
f 469/3/4 470/3/4 476/3/4
f 476/3/4 471/3/4 477/3/4
f 478/3/4 479/3/4 486/3/4
f 486/3/4 479/3/4 487/3/4
f 484/1/4 485/1/4 489/1/4
f 480/3/4 481/3/4 490/3/4
f 481/6/4 482/6/4 491/6/4
f 490/3/4 481/3/4 491/3/4
f 482/5/4 483/5/4 492/5/4
f 491/6/4 482/6/4 492/6/4
f 492/5/4 483/5/4 493/5/4
f 490/5/4 491/5/4 496/5/4
f 491/5/4 492/5/4 496/5/4
f 493/5/4 494/5/4 496/5/4
f 492/5/4 493/5/4 496/5/4
f 496/5/4 494/5/4 497/5/4
f 497/5/4 494/5/4 498/5/4
f 498/5/4 494/5/4 499/5/4
f 499/5/4 494/5/4 500/5/4
f 494/3/4 495/3/4 501/3/4
f 500/5/4 494/5/4 501/5/4
f 501/3/4 495/3/4 502/3/4
f 496/3/4 497/3/4 503/3/4
f 497/6/4 498/6/4 504/6/4
f 503/3/4 497/3/4 504/3/4
f 498/5/4 499/5/4 505/5/4
f 504/6/4 498/6/4 505/6/4
f 499/6/4 500/6/4 506/6/4
f 505/5/4 499/5/4 506/5/4
f 500/5/4 501/5/4 507/5/4
f 506/6/4 500/6/4 507/6/4
f 501/6/4 502/6/4 508/6/4
f 507/5/4 501/5/4 508/5/4
f 508/6/4 502/6/4 509/6/4
f 488/1/4 489/1/4 510/1/4
f 489/1/4 485/1/4 511/1/4
f 510/1/4 489/1/4 511/1/4
f 512/3/4 513/3/4 514/3/4
f 514/3/4 513/3/4 515/3/4
f 519/3/4 520/3/4 523/3/4
f 521/7/4 522/7/4 525/7/4
f 525/7/4 522/7/4 526/7/4
f 521/7/4 525/7/4 527/7/4
f 527/7/4 525/7/4 528/7/4
f 523/3/4 524/3/4 529/3/4
f 519/3/4 523/3/4 529/3/4
f 529/3/4 524/3/4 530/3/4
f 516/7/4 517/7/4 531/7/4
f 517/3/4 518/3/4 532/3/4
f 531/7/4 517/7/4 532/7/4
f 518/7/4 519/7/4 533/7/4
f 532/3/4 518/3/4 533/3/4
f 519/3/4 529/3/4 534/3/4
f 533/7/4 519/7/4 534/7/4
f 534/3/4 529/3/4 535/3/4
f 540/6/5 537/6/5 536/6/5
f 541/6/5 537/6/5 540/6/5
f 542/6/5 539/6/5 538/6/5
f 543/6/5 539/6/5 542/6/5
f 548/7/5 545/7/5 544/7/5
f 549/7/5 545/7/5 548/7/5
f 550/7/5 547/7/5 546/7/5
f 551/7/5 547/7/5 550/7/5
f 556/3/5 553/3/5 552/3/5
f 557/5/5 554/5/5 553/5/5
f 557/3/5 553/3/5 556/3/5
f 558/3/5 555/3/5 554/3/5
f 558/5/5 554/5/5 557/5/5
f 559/3/5 555/3/5 558/3/5
f 561/5/5 558/5/5 557/5/5
f 562/5/5 558/5/5 561/5/5
f 564/3/5 561/3/5 560/3/5
f 565/5/5 562/5/5 561/5/5
f 565/3/5 561/3/5 564/3/5
f 566/3/5 563/3/5 562/3/5
f 566/5/5 562/5/5 565/5/5
f 567/3/5 563/3/5 566/3/5
f 570/7/5 569/7/5 568/7/5
f 571/7/5 569/7/5 570/7/5
f 574/7/5 573/7/5 572/7/5
f 575/7/5 573/7/5 574/7/5
f 576/7/5 574/7/5 572/7/5
f 577/1/5 575/1/5 574/1/5
f 577/7/5 574/7/5 576/7/5
f 578/1/5 575/1/5 577/1/5
f 579/1/5 575/1/5 578/1/5
f 580/7/5 573/7/5 575/7/5
f 580/1/5 575/1/5 579/1/5
f 581/7/5 573/7/5 580/7/5
f 582/1/5 577/1/5 576/1/5
f 582/1/5 578/1/5 577/1/5
f 583/1/5 581/1/5 580/1/5
f 583/1/5 580/1/5 579/1/5
f 584/1/5 582/1/5 576/1/5
f 584/1/5 583/1/5 582/1/5
f 585/1/5 583/1/5 584/1/5
f 586/1/5 581/1/5 583/1/5
f 586/1/5 583/1/5 585/1/5
f 591/2/5 588/2/5 587/2/5
f 592/2/5 588/2/5 591/2/5
f 593/2/5 590/2/5 589/2/5
f 594/2/5 590/2/5 593/2/5
f 599/7/5 596/7/5 595/7/5
f 600/7/5 596/7/5 599/7/5
f 601/7/5 598/7/5 597/7/5
f 602/7/5 598/7/5 601/7/5
f 607/7/5 604/7/5 603/7/5
f 608/7/5 606/7/5 605/7/5
f 609/7/5 607/7/5 603/7/5
f 609/7/5 608/7/5 607/7/5
f 610/7/5 606/7/5 608/7/5
f 610/7/5 608/7/5 609/7/5
f 616/7/5 612/7/5 611/7/5
f 617/7/5 612/7/5 616/7/5
f 618/7/5 612/7/5 617/7/5
f 619/7/5 614/7/5 613/7/5
f 620/7/5 614/7/5 619/7/5
f 621/7/5 614/7/5 620/7/5
f 622/7/5 616/7/5 615/7/5
f 623/7/5 616/7/5 622/7/5
f 630/7/5 625/7/5 624/7/5
f 631/7/5 625/7/5 630/7/5
f 632/7/5 627/7/5 626/7/5
f 633/7/5 627/7/5 632/7/5
f 634/7/5 629/7/5 628/7/5
f 635/7/5 629/7/5 634/7/5
f 636/3/5 635/3/5 634/3/5
f 637/3/5 635/3/5 636/3/5
f 638/6/6 639/6/6 642/6/6
f 642/6/6 639/6/6 643/6/6
f 640/6/6 641/6/6 644/6/6
f 644/6/6 641/6/6 645/6/6
f 646/6/6 647/6/6 653/6/6
f 647/3/6 648/3/6 654/3/6
f 653/6/6 647/6/6 654/6/6
f 648/4/6 649/4/6 655/4/6
f 654/3/6 648/3/6 655/3/6
f 649/3/6 650/3/6 656/3/6
f 655/4/6 649/4/6 656/4/6
f 650/6/6 651/6/6 657/6/6
f 656/3/6 650/3/6 657/3/6
f 657/6/6 651/6/6 658/6/6
f 652/3/6 653/3/6 660/3/6
f 653/5/6 654/5/6 661/5/6
f 660/3/6 653/3/6 661/3/6
f 654/3/6 655/3/6 662/3/6
f 661/5/6 654/5/6 662/5/6
f 662/3/6 655/3/6 663/3/6
f 656/3/6 657/3/6 664/3/6
f 657/5/6 658/5/6 665/5/6
f 664/3/6 657/3/6 665/3/6
f 658/3/6 659/3/6 666/3/6
f 665/5/6 658/5/6 666/5/6
f 666/3/6 659/3/6 667/3/6
f 661/6/6 662/6/6 668/6/6
f 664/3/6 665/3/6 669/3/6
f 668/6/6 662/6/6 669/6/6
f 663/3/6 664/3/6 669/3/6
f 662/3/6 663/3/6 669/3/6
f 669/3/6 665/3/6 670/3/6
f 665/6/6 666/6/6 671/6/6
f 670/3/6 665/3/6 671/3/6
f 671/6/6 666/6/6 672/6/6
f 669/7/6 670/7/6 673/7/6
f 673/7/6 670/7/6 674/7/6
f 675/7/6 676/7/6 677/7/6
f 677/7/6 676/7/6 678/7/6
f 679/7/6 680/7/6 681/7/6
f 681/7/6 680/7/6 682/7/6
f 682/7/6 680/7/6 683/7/6
f 683/7/6 680/7/6 684/7/6
f 681/3/6 682/3/6 685/3/6
f 685/3/6 682/3/6 686/3/6
f 683/3/6 684/3/6 687/3/6
f 687/3/6 684/3/6 688/3/6
f 689/3/6 690/3/6 693/3/6
f 693/3/6 690/3/6 694/3/6
f 691/3/6 692/3/6 695/3/6
f 695/3/6 692/3/6 696/3/6
f 697/3/6 698/3/6 700/3/6
f 700/3/6 698/3/6 701/3/6
f 699/3/6 700/3/6 703/3/6
f 701/3/6 702/3/6 703/3/6
f 700/3/6 701/3/6 703/3/6
f 703/3/6 702/3/6 704/3/6
f 704/3/6 702/3/6 705/3/6
f 705/3/6 702/3/6 706/3/6
f 704/3/6 705/3/6 707/3/6
f 707/3/6 705/3/6 708/3/6
