# generated by tools/rig_people.py — do not edit
mtllib people.mtl
o body
usemtl palette
v 4 23 -0.5
v 4 23 1.5
v 4 24 1.5
v 4 24 -0.5
v 3 24 -0.5
v 3 24 1.5
v 3 25 1.5
v 3 25 -0.5
v 3 14 0.5
v 3 14 2.5
v 3 15 2.5
v 3 15 0.5
v 1 19 -3.5
v 1 19 -2.5
v 1 20 -2.5
v 1 20 -3.5
v -1 14 -0.5
v -1 14 1.5
v -1 15 1.5
v -1 15 -0.5
v -3 17 -3.5
v -3 17 -2.5
v -3 20 -2.5
v -3 20 -3.5
v -3 23 -3.5
v -3 23 -2.5
v -3 24 -2.5
v -3 24 -3.5
v -3 15 -2.5
v -3 15 0.5
v -3 16 0.5
v -3 16 -2.5
v -3 16 -1.5
v -3 18 -1.5
v -3 18 -2.5
v -3 19 -1.5
v -3 19 -2.5
v -3 7 -1.5
v -3 7 -0.5
v -3 9 -0.5
v -3 9 -1.5
v -3 9 2.5
v -3 10 2.5
v -3 10 -1.5
v -3 13 2.5
v -3 13 -1.5
v -3 14 2.5
v -3 14 -1.5
v -3 7 1.5
v -3 8 1.5
v -3 8 -0.5
v -3 9 1.5
v -3 7 2.5
v -3 23 2.5
v -3 23 3.5
v -3 24 3.5
v -3 24 2.5
v -4 20 -3.5
v -4 20 -1.5
v -4 21 -1.5
v -4 21 -3.5
v -4 21 -0.5
v -4 23 -0.5
v -4 23 -3.5
v -4 19 -2.5
v -4 19 -1.5
v -4 20 -2.5
v -4 23 -2.5
v -4 24 -0.5
v -4 24 -2.5
v -4 20 -0.5
v -4 25 -0.5
v -4 25 1.5
v -4 26 1.5
v -4 26 -0.5
v -4 14 0.5
v -4 14 3.5
v -4 16 3.5
v -4 16 0.5
v -4 20 1.5
v -4 20 2.5
v -4 21 2.5
v -4 21 1.5
v -4 21 3.5
v -4 23 3.5
v -4 23 1.5
v -4 23 2.5
v -4 24 2.5
v -4 24 1.5
v -4 16 2.5
v -4 19 3.5
v -4 19 2.5
v -5 20 -0.5
v -5 20 1.5
v -5 25 1.5
v -5 25 -0.5
v -6 16 -1.5
v -6 16 2.5
v -6 17 2.5
v -6 17 -1.5
v -6 17 -0.5
v -6 20 -0.5
v -6 20 -1.5
v -6 17 1.5
v -6 19 1.5
v -6 19 -0.5
v -6 19 2.5
v -6 20 2.5
v 6 17 -1.5
v 6 17 2.5
v 6 16 2.5
v 6 16 -1.5
v 6 20 -1.5
v 6 20 -0.5
v 6 17 -0.5
v 6 19 -0.5
v 6 19 1.5
v 6 17 1.5
v 6 20 2.5
v 6 19 2.5
v 5 25 -0.5
v 5 25 1.5
v 5 20 1.5
v 5 20 -0.5
v 4 21 -2.5
v 4 21 -1.5
v 4 19 -1.5
v 4 19 -2.5
v 4 23 -2.5
v 4 21 -0.5
v 4 20 -0.5
v 4 20 -1.5
v 4 26 -0.5
v 4 26 1.5
v 4 25 1.5
v 4 25 -0.5
v 4 16 0.5
v 4 16 3.5
v 4 14 3.5
v 4 14 0.5
v 4 21 1.5
v 4 21 2.5
v 4 20 2.5
v 4 20 1.5
v 4 23 3.5
v 4 21 3.5
v 4 19 2.5
v 4 19 3.5
v 4 16 2.5
v 3 20 -3.5
v 3 20 -2.5
v 3 19 -2.5
v 3 19 -3.5
v 3 22 -3.5
v 3 22 -2.5
v 3 21 -2.5
v 3 21 -3.5
v 3 24 -3.5
v 3 24 -2.5
v 3 16 -2.5
v 3 16 0.5
v 3 15 -2.5
v 3 18 -2.5
v 3 18 -1.5
v 3 16 -1.5
v 3 19 -1.5
v 3 24 2.5
v 3 23 2.5
v 3 23 -2.5
v 3 9 -1.5
v 3 9 -0.5
v 3 7 -0.5
v 3 7 -1.5
v 3 10 -1.5
v 3 10 2.5
v 3 9 2.5
v 3 13 -1.5
v 3 13 2.5
v 3 14 -1.5
v 3 8 -0.5
v 3 8 1.5
v 3 7 1.5
v 3 9 1.5
v 3 7 2.5
v 2 24 2.5
v 2 24 3.5
v 2 23 3.5
v 2 23 2.5
v 1 21 -3.5
v 1 21 -2.5
v 1 15 -0.5
v 1 15 1.5
v 1 14 1.5
v 1 14 -0.5
v -1 20 -3.5
v -1 20 -2.5
v -1 19 -2.5
v -1 19 -3.5
v -2 19 -3.5
v -2 19 -2.5
v -2 17 -2.5
v -2 17 -3.5
v -3 25 -0.5
v -3 25 1.5
v -3 24 1.5
v -3 24 -0.5
v -3 15 2.5
v -3 14 0.5
v 3 26 1.5
v -5 24 1.5
v 5 20 2.5
v 5 16 2.5
v -5 20 2.5
v -5 16 2.5
v 1 19 3.5
v 1 14 3.5
v 2 19 3.5
v 2 20 3.5
v -2 20 3.5
v -2 19 3.5
v -4 20 3.5
v 1 15 3.5
v -1 15 3.5
v -1 14 3.5
v -4 15 3.5
v -0 21 -3.5
v -0 22 -3.5
v -0 24 -3.5
v -1 21 -3.5
v -1 22 -3.5
v -1 23 -3.5
v -0 23 -3.5
v -3 19 -3.5
v -3 21 -3.5
v -3 22 -3.5
v -4 22 -3.5
v 2 16 -2.5
v 2 18 -2.5
v 2 19 -2.5
v 1 16 -2.5
v 1 18 -2.5
v -1 16 -2.5
v -1 17 -2.5
v 1 17 -2.5
v -2 18 -2.5
v -1 18 -2.5
v -2 16 -2.5
v 5 16 -1.5
v 5 20 -1.5
v 4 16 -1.5
v -4 16 -1.5
v -5 16 -1.5
v -5 20 -1.5
v 3 26 -0.5
v -5 24 -0.5
v 1 14 2.5
v 1 15 2.5
v -1 14 2.5
v -1 15 2.5
v -3 14 -0.5
v 3 14 -0.5
v -3 14 1.5
v 3 23 -0.5
v 3 23 0.5
v 4 23 0.5
v 3 23 3.5
v 1 7 1.5
v 1 7 -0.5
v -1 7 1.5
v -1 7 -0.5
v 3 14 3.5
v -4 14 2.5
v 3 15 -0.5
v -3 15 -0.5
v -3 15 1.5
v 4 16 -0.5
v 3 16 -0.5
v -3 16 -0.5
v -4 16 -0.5
vt 0.9902344 0.5
vt 0.5253906 0.5
vt 0.0410156 0.5
vt 0.5214844 0.5
vt 0.5449219 0.5
vt 0.0292969 0.5
vt 0.6191406 0.5
vt 0.5800781 0.5
vt 0.5097656 0.5
vt 0.5527344 0.5
vt 0.9785156 0.5
vt 0.0527344 0.5
vn -1 0 0
vn 1 0 0
vn 0 0 1
vn 0 0 -1
vn 0 1 0
vn 0 -1 0
f 1/1/1 2/1/1 3/1/1 4/1/1
f 5/1/1 6/1/1 7/1/1 8/1/1
f 9/2/1 10/2/1 11/2/1 12/2/1
f 13/2/1 14/2/1 15/2/1 16/2/1
f 17/3/1 18/3/1 19/3/1 20/3/1
f 21/2/1 22/2/1 23/2/1 24/2/1
f 25/4/1 26/4/1 27/4/1 28/4/1
f 29/3/1 30/3/1 31/3/1 32/3/1
f 32/5/1 33/5/1 34/5/1 35/5/1
f 35/3/1 34/3/1 36/3/1 37/3/1
f 38/6/1 39/6/1 40/6/1 41/6/1
f 41/3/1 42/3/1 43/3/1 44/3/1
f 44/7/1 43/7/1 45/7/1 46/7/1
f 46/3/1 45/3/1 47/3/1 48/3/1
f 39/8/1 49/8/1 50/8/1 51/8/1
f 51/3/1 50/3/1 52/3/1 40/3/1
f 49/6/1 53/6/1 42/6/1 52/6/1
f 54/4/1 55/4/1 56/4/1 57/4/1
f 58/2/1 59/2/1 60/2/1 61/2/1
f 61/4/1 62/4/1 63/4/1 64/4/1
f 65/2/1 66/2/1 59/2/1 67/2/1
f 68/4/1 63/4/1 69/4/1 70/4/1
f 59/4/1 71/4/1 62/4/1 60/4/1
f 72/1/1 73/1/1 74/1/1 75/1/1
f 76/2/1 77/2/1 78/2/1 79/2/1
f 80/2/1 81/2/1 82/2/1 83/2/1
f 83/4/1 84/4/1 85/4/1 86/4/1
f 86/4/1 87/4/1 88/4/1 89/4/1
f 90/2/1 78/2/1 91/2/1 92/2/1
f 92/4/1 91/4/1 84/4/1 82/4/1
f 93/1/1 94/1/1 95/1/1 96/1/1
f 97/1/1 98/1/1 99/1/1 100/1/1
f 100/1/1 101/1/1 102/1/1 103/1/1
f 101/9/1 104/9/1 105/9/1 106/9/1
f 106/1/1 107/1/1 108/1/1 102/1/1
f 104/1/1 99/1/1 107/1/1 105/1/1
f 109/1/2 110/1/2 111/1/2 112/1/2
f 113/1/2 114/1/2 115/1/2 109/1/2
f 116/9/2 117/9/2 118/9/2 115/9/2
f 114/1/2 119/1/2 120/1/2 116/1/2
f 117/1/2 120/1/2 110/1/2 118/1/2
f 121/1/2 122/1/2 123/1/2 124/1/2
f 125/2/2 126/2/2 127/2/2 128/2/2
f 129/4/2 1/4/2 130/4/2 125/4/2
f 126/4/2 130/4/2 131/4/2 132/4/2
f 133/1/2 134/1/2 135/1/2 136/1/2
f 137/2/2 138/2/2 139/2/2 140/2/2
f 141/2/2 142/2/2 143/2/2 144/2/2
f 2/4/2 145/4/2 146/4/2 141/4/2
f 147/2/2 148/2/2 138/2/2 149/2/2
f 142/4/2 146/4/2 148/4/2 147/4/2
f 150/2/2 151/2/2 152/2/2 153/2/2
f 154/2/2 155/2/2 156/2/2 157/2/2
f 158/4/2 159/4/2 155/4/2 154/4/2
f 160/3/2 161/3/2 12/3/2 162/3/2
f 163/5/2 164/5/2 165/5/2 160/5/2
f 152/3/2 166/3/2 164/3/2 163/3/2
f 159/4/2 167/4/2 168/4/2 169/4/2
f 170/6/2 171/6/2 172/6/2 173/6/2
f 174/3/2 175/3/2 176/3/2 170/3/2
f 177/7/2 178/7/2 175/7/2 174/7/2
f 179/3/2 10/3/2 178/3/2 177/3/2
f 180/8/2 181/8/2 182/8/2 172/8/2
f 171/3/2 183/3/2 181/3/2 180/3/2
f 183/6/2 176/6/2 184/6/2 182/6/2
f 185/4/2 186/4/2 187/4/2 188/4/2
f 189/2/2 190/2/2 15/2/2 16/2/2
f 191/3/2 192/3/2 193/3/2 194/3/2
f 195/2/2 196/2/2 197/2/2 198/2/2
f 199/2/2 200/2/2 201/2/2 202/2/2
f 203/1/2 204/1/2 205/1/2 206/1/2
f 30/2/2 207/2/2 47/2/2 208/2/2
f 122/1/3 135/1/3 144/1/3 123/1/3
f 134/1/3 209/1/3 6/1/3 3/1/3
f 209/1/3 74/1/3 73/1/3 7/1/3
f 192/3/3 19/3/3 18/3/3 193/3/3
f 204/1/3 95/1/3 210/1/3 205/1/3
f 89/1/3 210/1/3 94/1/3 80/1/3
f 119/1/3 211/1/3 212/1/3 111/1/3
f 211/9/3 143/9/3 149/9/3 212/9/3
f 176/6/3 42/6/3 53/6/3 184/6/3
f 175/3/3 43/3/3 42/3/3 176/3/3
f 178/7/3 45/7/3 43/7/3 175/7/3
f 10/3/3 47/3/3 45/3/3 178/3/3
f 167/4/3 185/4/3 188/4/3 168/4/3
f 57/4/3 88/4/3 87/4/3 54/4/3
f 81/9/3 213/9/3 214/9/3 90/9/3
f 213/1/3 108/1/3 98/1/3 214/1/3
f 148/2/3 215/2/3 216/2/3 139/2/3
f 145/4/3 187/4/3 217/4/3 148/4/3
f 218/2/3 219/2/3 220/2/3 217/2/3
f 187/4/3 85/4/3 221/4/3 218/4/3
f 186/4/3 56/4/3 55/4/3 187/4/3
f 222/3/3 223/3/3 224/3/3 216/3/3
f 215/2/3 91/2/3 225/2/3 222/2/3
f 223/2/3 225/2/3 77/2/3 224/2/3
f 219/4/3 221/4/3 91/4/3 220/4/3
f 153/2/4 13/2/4 16/2/4 150/2/4
f 157/2/4 226/2/4 227/2/4 154/2/4
f 154/4/4 227/4/4 228/4/4 158/4/4
f 16/2/4 58/2/4 61/2/4 189/2/4
f 226/4/4 229/4/4 230/4/4 227/4/4
f 227/2/4 230/2/4 231/2/4 232/2/4
f 232/4/4 25/4/4 28/4/4 228/4/4
f 198/2/4 233/2/4 24/2/4 195/2/4
f 229/2/4 234/2/4 235/2/4 230/2/4
f 230/4/4 236/4/4 64/4/4 231/4/4
f 202/2/4 21/2/4 233/2/4 199/2/4
f 234/4/4 61/4/4 236/4/4 235/4/4
f 128/2/4 152/2/4 156/2/4 125/2/4
f 125/4/4 156/4/4 169/4/4 129/4/4
f 162/3/4 29/3/4 32/3/4 160/3/4
f 160/5/4 237/5/4 238/5/4 163/5/4
f 163/3/4 238/3/4 239/3/4 152/3/4
f 151/3/4 15/3/4 190/3/4 156/3/4
f 237/3/4 240/3/4 241/3/4 238/3/4
f 238/2/4 241/2/4 14/2/4 239/2/4
f 240/10/4 242/10/4 243/10/4 244/10/4
f 244/3/4 201/3/4 245/3/4 241/3/4
f 241/3/4 246/3/4 196/3/4 15/3/4
f 242/3/4 247/3/4 201/3/4 243/3/4
f 246/2/4 245/2/4 200/2/4 197/2/4
f 247/5/4 32/5/4 22/5/4 201/5/4
f 37/2/4 65/2/4 67/2/4 23/2/4
f 26/4/4 68/4/4 70/4/4 27/4/4
f 112/1/4 248/1/4 249/1/4 113/1/4
f 248/9/4 250/9/4 132/9/4 249/9/4
f 250/2/4 165/2/4 166/2/4 127/2/4
f 173/6/4 38/6/4 41/6/4 170/6/4
f 170/3/4 41/3/4 44/3/4 174/3/4
f 174/7/4 44/7/4 46/7/4 177/7/4
f 177/3/4 46/3/4 48/3/4 179/3/4
f 33/2/4 251/2/4 66/2/4 36/2/4
f 251/9/4 252/9/4 253/9/4 59/9/4
f 252/1/4 97/1/4 103/1/4 253/1/4
f 124/1/4 131/1/4 136/1/4 121/1/4
f 4/1/4 5/1/4 254/1/4 133/1/4
f 8/1/4 72/1/4 75/1/4 254/1/4
f 194/3/4 17/3/4 20/3/4 191/3/4
f 206/1/4 255/1/4 96/1/4 203/1/4
f 71/1/4 93/1/4 255/1/4 69/1/4
f 140/2/4 9/2/4 161/2/4 137/2/4
f 208/2/4 76/2/4 79/2/4 31/2/4
f 10/2/4 256/2/4 257/2/4 11/2/4
f 256/3/4 258/3/4 259/3/4 257/3/4
f 258/2/4 47/2/4 207/2/4 259/2/4
f 179/3/5 48/3/5 260/3/5 261/3/5
f 261/3/5 194/3/5 256/3/5 10/3/5
f 193/3/5 262/3/5 47/3/5 256/3/5
f 17/3/5 260/3/5 262/3/5 18/3/5
f 113/1/5 249/1/5 211/1/5 119/1/5
f 249/9/5 132/9/5 131/9/5 124/9/5
f 123/9/5 144/9/5 143/9/5 211/9/5
f 150/2/5 16/2/5 15/2/5 151/2/5
f 59/9/5 253/9/5 93/9/5 71/9/5
f 80/9/5 94/9/5 213/9/5 81/9/5
f 253/1/5 103/1/5 108/1/5 213/1/5
f 129/4/5 169/4/5 263/4/5 1/4/5
f 1/11/5 263/11/5 264/11/5 265/11/5
f 265/4/5 264/4/5 266/4/5 145/4/5
f 168/4/5 188/4/5 187/4/5 266/4/5
f 25/4/5 64/4/5 68/4/5 26/4/5
f 54/4/5 87/4/5 85/4/5 55/4/5
f 158/4/5 28/4/5 57/4/5 167/4/5
f 185/4/5 57/4/5 56/4/5 186/4/5
f 27/4/5 70/4/5 69/4/5 206/4/5
f 205/4/5 89/4/5 88/4/5 57/4/5
f 121/1/5 136/1/5 135/1/5 122/1/5
f 72/1/5 96/1/5 95/1/5 73/1/5
f 133/1/5 75/1/5 74/1/5 134/1/5
f 172/6/6 39/6/6 38/6/6 173/6/6
f 182/8/6 267/8/6 268/8/6 172/8/6
f 184/6/6 53/6/6 49/6/6 182/6/6
f 267/6/6 269/6/6 270/6/6 268/6/6
f 269/8/6 49/8/6 39/8/6 270/8/6
f 139/2/6 271/2/6 9/2/6 140/2/6
f 271/2/6 216/2/6 256/2/6 10/2/6
f 216/3/6 224/3/6 258/3/6 256/3/6
f 224/2/6 77/2/6 272/2/6 258/2/6
f 47/2/6 272/2/6 76/2/6 208/2/6
f 273/3/6 274/3/6 29/3/6 162/3/6
f 11/3/6 257/3/6 191/3/6 273/3/6
f 257/3/6 207/3/6 275/3/6 192/3/6
f 19/3/6 275/3/6 274/3/6 20/3/6
f 111/1/6 212/1/6 248/1/6 112/1/6
f 212/9/6 149/9/6 250/9/6 248/9/6
f 276/2/6 277/2/6 165/2/6 250/2/6
f 137/12/6 161/12/6 277/12/6 276/12/6
f 278/2/6 279/2/6 251/2/6 33/2/6
f 31/12/6 79/12/6 279/12/6 278/12/6
f 90/9/6 214/9/6 252/9/6 251/9/6
f 214/1/6 98/1/6 97/1/6 252/1/6
f 201/2/6 22/2/6 21/2/6 202/2/6
f 127/2/6 166/2/6 152/2/6 128/2/6
f 152/2/6 14/2/6 13/2/6 153/2/6
f 197/2/6 200/2/6 199/2/6 198/2/6
f 36/2/6 66/2/6 65/2/6 37/2/6
f 15/2/6 196/2/6 195/2/6 16/2/6
f 23/2/6 67/2/6 58/2/6 24/2/6
f 156/2/6 190/2/6 189/2/6 157/2/6
f 3/1/6 6/1/6 5/1/6 4/1/6
f 7/1/6 204/1/6 203/1/6 8/1/6
