# generated by tools/rig_people.py — do not edit
mtllib people.mtl
o arm-r
usemtl palette
v 3 6 0
v 3 6 2
v 3 11 2
v 3 11 0
v 3 12 2
v 3 12 0
v 3 13 2
v 3 13 0
v 3 13 1
v 3 14 1
v 3 14 0
v 3 14 2
v 5 11 0
v 5 11 2
v 5 6 2
v 5 6 0
v 5 12 0
v 5 12 2
v 5 13 0
v 5 13 2
v 5 14 0
v 5 14 1
v 5 13 1
v 5 14 2
vt 0.0410156 0.5
vt 0.4511719 0.5
vt 0.2636719 0.5
vt 0.2597656 0.5
vn -1 0 0
vn 1 0 0
vn 0 0 1
vn 0 0 -1
vn 0 1 0
vn 0 -1 0
f 1/1/1 2/1/1 3/1/1 4/1/1
f 4/2/1 3/2/1 5/2/1 6/2/1
f 6/3/1 5/3/1 7/3/1 8/3/1
f 8/4/1 9/4/1 10/4/1 11/4/1
f 9/3/1 7/3/1 12/3/1 10/3/1
f 13/1/2 14/1/2 15/1/2 16/1/2
f 17/2/2 18/2/2 14/2/2 13/2/2
f 19/3/2 20/3/2 18/3/2 17/3/2
f 21/4/2 22/4/2 23/4/2 19/4/2
f 22/3/2 24/3/2 20/3/2 23/3/2
f 14/1/3 3/1/3 2/1/3 15/1/3
f 18/2/3 5/2/3 3/2/3 14/2/3
f 24/3/3 12/3/3 5/3/3 18/3/3
f 16/1/4 1/1/4 4/1/4 13/1/4
f 13/2/4 4/2/4 6/2/4 17/2/4
f 17/3/4 6/3/4 8/3/4 19/3/4
f 19/4/4 8/4/4 11/4/4 21/4/4
f 21/4/5 11/4/5 10/4/5 22/4/5
f 22/3/5 10/3/5 12/3/5 24/3/5
f 15/1/6 2/1/6 1/1/6 16/1/6
