# generated by tools/rig_people.py — do not edit
mtllib people.mtl
o arm-l
usemtl palette
v -4 6 -1.5
v -4 6 0.5
v -4 11 0.5
v -4 11 -1.5
v -4 11 -0.5
v -4 13 -0.5
v -4 13 -1.5
v -4 13 0.5
v -4 14 0.5
v -4 14 -1.5
v -2 10 -1.5
v -2 10 0.5
v -2 8 0.5
v -2 8 -1.5
v -2 14 -1.5
v -2 14 0.5
v -2 13 0.5
v -2 13 -1.5
v -3 8 -1.5
v -3 8 0.5
v -3 6 0.5
v -3 6 -1.5
v -3 11 -1.5
v -3 11 0.5
v -3 10 0.5
v -3 10 -1.5
v -3 13 -1.5
v -3 13 -0.5
v -3 11 -0.5
v -3 13 0.5
v -4 10 0.5
v -4 8 0.5
v -4 8 -1.5
v -4 10 -1.5
vt 0.9902344 0.5
vt 0.9824219 0.5
vn -1 0 0
vn 1 0 0
vn 0 0 1
vn 0 0 -1
vn 0 1 0
vn 0 -1 0
f 1/1/1 2/1/1 3/1/1 4/1/1
f 4/2/1 5/2/1 6/2/1 7/2/1
f 7/1/1 8/1/1 9/1/1 10/1/1
f 5/1/1 3/1/1 8/1/1 6/1/1
f 11/1/2 12/1/2 13/1/2 14/1/2
f 15/1/2 16/1/2 17/1/2 18/1/2
f 19/1/2 20/1/2 21/1/2 22/1/2
f 23/1/2 24/1/2 25/1/2 26/1/2
f 27/2/2 28/2/2 29/2/2 23/2/2
f 28/1/2 30/1/2 24/1/2 29/1/2
f 12/1/3 31/1/3 32/1/3 13/1/3
f 16/1/3 9/1/3 8/1/3 17/1/3
f 20/1/3 32/1/3 2/1/3 21/1/3
f 30/1/3 8/1/3 31/1/3 25/1/3
f 14/1/4 33/1/4 34/1/4 11/1/4
f 18/1/4 7/1/4 10/1/4 15/1/4
f 22/1/4 1/1/4 33/1/4 19/1/4
f 26/1/4 34/1/4 4/1/4 23/1/4
f 23/2/4 4/2/4 7/2/4 27/2/4
f 11/1/5 26/1/5 25/1/5 12/1/5
f 15/1/5 10/1/5 9/1/5 16/1/5
f 21/1/6 2/1/6 1/1/6 22/1/6
f 13/1/6 20/1/6 19/1/6 14/1/6
f 17/1/6 30/1/6 27/1/6 18/1/6
