# generated by tools/rig_people.py — do not edit
mtllib people.mtl
o body
usemtl palette
v 2 20 -4
v 2 20 -3
v 2 21 -3
v 2 21 -4
v 1 19 -4
v 1 19 -3
v 1 20 -3
v 1 20 -4
v 1 21 -4
v 1 21 -3
v 1 22 -3
v 1 22 -4
v -1 23 -4
v -1 23 -3
v -1 24 -3
v -1 24 -4
v -1 14 -1
v -1 14 1
v -1 15 1
v -1 15 -1
v -3 19 -4
v -3 19 -3
v -3 20 -3
v -3 20 -4
v -3 15 -3
v -3 15 0
v -3 16 0
v -3 16 -3
v -3 16 -2
v -3 18 -2
v -3 18 -3
v -3 20 -2
v -3 23 -3
v -3 23 -2
v -3 24 -2
v -3 24 -3
v -3 4 -2
v -3 4 2
v -3 5 2
v -3 5 -2
v -3 5 -1
v -3 9 -1
v -3 9 -2
v -3 9 2
v -3 14 2
v -3 14 -2
v -3 16 -1
v -3 18 -1
v -3 23 0
v -3 24 0
v -3 8 2
v -3 8 -1
v -3 8 1
v -3 9 1
v -3 23 2
v -3 24 2
v -3 22 2
v -3 22 3
v -3 23 3
v -4 20 -4
v -4 20 -2
v -4 23 -2
v -4 23 -4
v -4 18 -2
v -4 18 -1
v -4 20 -1
v -4 20 0
v -4 23 0
v -4 16 -1
v -4 16 0
v -4 19 0
v -4 19 -1
v -4 17 0
v -4 17 3
v -4 22 3
v -4 22 0
v -4 22 2
v -4 23 2
v -5 15 0
v -5 15 4
v -5 17 4
v -5 17 0
v 5 17 0
v 5 17 4
v 5 15 4
v 5 15 0
v 4 20 -3
v 4 20 -1
v 4 19 -1
v 4 19 -3
v 4 23 -3
v 4 23 -2
v 4 20 -2
v 4 19 -2
v 4 18 -1
v 4 18 -2
v 4 23 0
v 4 20 0
v 4 19 0
v 4 16 0
v 4 16 -1
v 4 22 0
v 4 22 3
v 4 17 3
v 4 17 0
v 4 23 2
v 4 22 2
v 3 24 -4
v 3 24 -3
v 3 19 -3
v 3 19 -4
v 3 16 -3
v 3 16 0
v 3 15 0
v 3 15 -3
v 3 18 -3
v 3 18 -2
v 3 16 -2
v 3 19 -2
v 3 24 -2
v 3 23 -2
v 3 23 -3
v 3 5 -2
v 3 5 2
v 3 4 2
v 3 4 -2
v 3 9 -2
v 3 9 -1
v 3 5 -1
v 3 14 -2
v 3 14 2
v 3 9 2
v 3 18 -1
v 3 16 -1
v 3 24 0
v 3 23 0
v 3 8 -1
v 3 8 2
v 3 9 1
v 3 8 1
v 3 24 2
v 3 23 2
v 3 23 3
v 3 22 3
v 3 22 2
v 1 15 -1
v 1 15 1
v 1 14 1
v 1 14 -1
v -0 22 -4
v -0 22 -3
v -0 20 -3
v -0 20 -4
v -1 20 -4
v -1 20 -3
v -1 19 -3
v -1 19 -4
v 3 20 -4
v 2 24 -4
v 1 24 -4
v -4 22 -4
v 1 23 -4
v 1 15 -3
v 1 16 -3
v 2 16 -3
v 2 18 -3
v 2 19 -3
v -2 16 -3
v -2 18 -3
v 1 18 -3
v -0 21 -3
v -1 15 -3
v -1 16 -3
v -1 18 -3
v -2 19 -3
v -3 11 -2
v 3 11 -2
v -0 11 -2
v -0 12 -2
v 3 12 -2
v 2 12 -2
v 2 14 -2
v 1 12 -2
v 1 14 -2
v -1 12 -2
v -1 13 -2
v 1 13 -2
v -2 13 -2
v -2 14 -2
v -1 11 -2
v -3 12 -2
v -2 12 -2
v 5 16 0
v -5 16 0
v 2 14 2
v -2 14 -1
v 2 14 -1
v 1 14 0
v 2 14 0
v 1 14 2
v -3 14 1
v -2 14 0
v -1 14 0
v -3 14 0
v 4 17 4
v -5 17 3
v -4 23 -3
v -1 24 -2
v 3 15 4
v 3 15 2
v 1 15 2
v -5 15 2
v 1 15 -2
v -1 15 -2
v -3 15 -1
v -3 15 -2
v -3 15 2
v -3 15 1
vt 0.5292969 0.5
vt 0.0410156 0.5
vt 0.5449219 0.5
vt 0.9785156 0.5
vt 0.0527344 0.5
vt 0.5527344 0.5
vn -1 0 0
vn 1 0 0
vn 0 0 1
vn 0 0 -1
vn 0 1 0
vn 0 -1 0
f 1/1/1 2/1/1 3/1/1 4/1/1
f 5/1/1 6/1/1 7/1/1 8/1/1
f 9/1/1 10/1/1 11/1/1 12/1/1
f 13/1/1 14/1/1 15/1/1 16/1/1
f 17/2/1 18/2/1 19/2/1 20/2/1
f 21/1/1 22/1/1 23/1/1 24/1/1
f 25/2/1 26/2/1 27/2/1 28/2/1
f 28/3/1 29/3/1 30/3/1 31/3/1
f 31/2/1 30/2/1 32/2/1 23/2/1
f 33/1/1 34/1/1 35/1/1 36/1/1
f 37/1/1 38/1/1 39/1/1 40/1/1
f 40/4/1 41/4/1 42/4/1 43/4/1
f 43/1/1 44/1/1 45/1/1 46/1/1
f 29/2/1 47/2/1 48/2/1 30/2/1
f 34/4/1 49/4/1 50/4/1 35/4/1
f 41/1/1 39/1/1 51/1/1 52/1/1
f 52/1/1 53/1/1 54/1/1 42/1/1
f 49/1/1 55/1/1 56/1/1 50/1/1
f 53/4/1 51/4/1 44/4/1 54/4/1
f 57/1/1 58/1/1 59/1/1 55/1/1
f 60/1/1 61/1/1 62/1/1 63/1/1
f 64/1/1 65/1/1 66/1/1 61/1/1
f 61/4/1 67/4/1 68/4/1 62/4/1
f 69/5/1 70/5/1 71/5/1 72/5/1
f 72/4/1 71/4/1 67/4/1 66/4/1
f 73/1/1 74/1/1 75/1/1 76/1/1
f 76/1/1 77/1/1 78/1/1 68/1/1
f 79/1/1 80/1/1 81/1/1 82/1/1
f 83/1/2 84/1/2 85/1/2 86/1/2
f 87/1/2 88/1/2 89/1/2 90/1/2
f 91/1/2 92/1/2 93/1/2 87/1/2
f 94/1/2 89/1/2 95/1/2 96/1/2
f 92/4/2 97/4/2 98/4/2 93/4/2
f 89/5/2 99/5/2 100/5/2 101/5/2
f 88/4/2 98/4/2 99/4/2 89/4/2
f 102/1/2 103/1/2 104/1/2 105/1/2
f 97/1/2 106/1/2 107/1/2 102/1/2
f 108/1/2 109/1/2 110/1/2 111/1/2
f 112/2/2 113/2/2 114/2/2 115/2/2
f 116/3/2 117/3/2 118/3/2 112/3/2
f 110/2/2 119/2/2 117/2/2 116/2/2
f 109/1/2 120/1/2 121/1/2 122/1/2
f 123/1/2 124/1/2 125/1/2 126/1/2
f 127/4/2 128/4/2 129/4/2 123/4/2
f 130/1/2 131/1/2 132/1/2 127/1/2
f 117/2/2 133/2/2 134/2/2 118/2/2
f 120/4/2 135/4/2 136/4/2 121/4/2
f 137/1/2 138/1/2 124/1/2 129/1/2
f 128/1/2 139/1/2 140/1/2 137/1/2
f 135/1/2 141/1/2 142/1/2 136/1/2
f 139/4/2 132/4/2 138/4/2 140/4/2
f 142/1/2 143/1/2 144/1/2 145/1/2
f 146/2/2 147/2/2 148/2/2 149/2/2
f 150/1/2 151/1/2 152/1/2 153/1/2
f 154/1/2 155/1/2 156/1/2 157/1/2
f 147/2/3 19/2/3 18/2/3 148/2/3
f 106/1/3 142/1/3 145/1/3 107/1/3
f 138/1/3 51/1/3 38/1/3 125/1/3
f 132/4/3 44/4/3 51/4/3 138/4/3
f 131/1/3 45/1/3 44/1/3 132/1/3
f 141/1/3 56/1/3 55/1/3 142/1/3
f 55/1/3 78/1/3 77/1/3 57/1/3
f 103/1/3 75/1/3 74/1/3 104/1/3
f 143/1/3 59/1/3 58/1/3 144/1/3
f 84/1/3 81/1/3 80/1/3 85/1/3
f 111/1/4 5/1/4 8/1/4 158/1/4
f 158/1/4 1/1/4 159/1/4 108/1/4
f 4/1/4 9/1/4 160/1/4 159/1/4
f 12/1/4 161/1/4 63/1/4 162/1/4
f 162/1/4 13/1/4 16/1/4 160/1/4
f 153/1/4 60/1/4 161/1/4 150/1/4
f 157/1/4 21/1/4 24/1/4 154/1/4
f 90/1/4 110/1/4 122/1/4 91/1/4
f 115/2/4 163/2/4 164/2/4 112/2/4
f 112/3/4 165/3/4 166/3/4 116/3/4
f 116/2/4 166/2/4 167/2/4 110/2/4
f 165/2/4 168/2/4 169/2/4 166/2/4
f 166/1/4 170/1/4 6/1/4 167/1/4
f 2/2/4 152/2/4 171/2/4 3/2/4
f 163/6/4 172/6/4 173/6/4 164/6/4
f 170/2/4 174/2/4 155/2/4 7/2/4
f 10/2/4 171/2/4 151/2/4 11/2/4
f 172/2/4 25/2/4 28/2/4 173/2/4
f 174/1/4 169/1/4 175/1/4 156/1/4
f 14/1/4 33/1/4 36/1/4 15/1/4
f 168/3/4 28/3/4 31/3/4 169/3/4
f 169/2/4 31/2/4 22/2/4 175/2/4
f 96/1/4 117/1/4 119/1/4 94/1/4
f 126/1/4 37/1/4 40/1/4 123/1/4
f 123/4/4 40/4/4 43/4/4 127/4/4
f 127/1/4 43/1/4 176/1/4 177/1/4
f 177/1/4 178/1/4 179/1/4 180/1/4
f 180/1/4 181/1/4 182/1/4 130/1/4
f 181/4/4 183/4/4 184/4/4 182/4/4
f 183/1/4 185/1/4 186/1/4 187/1/4
f 187/4/4 188/4/4 189/4/4 184/4/4
f 178/4/4 190/4/4 185/4/4 179/4/4
f 190/1/4 176/1/4 191/1/4 185/1/4
f 185/4/4 192/4/4 188/4/4 186/4/4
f 192/1/4 191/1/4 46/1/4 189/1/4
f 30/1/4 64/1/4 61/1/4 32/1/4
f 101/5/4 134/5/4 133/5/4 95/5/4
f 149/2/4 17/2/4 20/2/4 146/2/4
f 47/5/4 69/5/4 65/5/4 48/5/4
f 86/1/4 114/1/4 113/1/4 193/1/4
f 193/1/4 100/1/4 105/1/4 83/1/4
f 26/1/4 79/1/4 194/1/4 27/1/4
f 70/1/4 194/1/4 82/1/4 73/1/4
f 130/1/5 182/1/5 195/1/5 131/1/5
f 182/4/5 189/4/5 196/4/5 197/4/5
f 197/4/5 149/4/5 198/4/5 199/4/5
f 199/1/5 198/1/5 200/1/5 195/1/5
f 148/1/5 201/1/5 45/1/5 200/1/5
f 17/4/5 196/4/5 202/4/5 203/4/5
f 203/1/5 204/1/5 201/1/5 18/1/5
f 189/1/5 46/1/5 204/1/5 202/1/5
f 83/1/5 105/1/5 205/1/5 84/1/5
f 104/1/5 206/1/5 81/1/5 205/1/5
f 73/1/5 82/1/5 206/1/5 74/1/5
f 1/1/5 8/1/5 7/1/5 2/1/5
f 107/1/5 145/1/5 144/1/5 103/1/5
f 57/1/5 77/1/5 75/1/5 58/1/5
f 91/1/5 122/1/5 121/1/5 92/1/5
f 92/4/5 121/4/5 136/4/5 97/4/5
f 97/1/5 136/1/5 142/1/5 106/1/5
f 142/1/5 55/1/5 59/1/5 143/1/5
f 13/1/5 63/1/5 207/1/5 14/1/5
f 33/1/5 207/1/5 62/1/5 34/1/5
f 34/4/5 62/4/5 68/4/5 49/4/5
f 49/1/5 68/1/5 78/1/5 55/1/5
f 108/1/5 16/1/5 208/1/5 120/1/5
f 120/4/5 35/4/5 50/4/5 135/4/5
f 135/1/5 50/1/5 56/1/5 141/1/5
f 15/1/5 36/1/5 35/1/5 208/1/5
f 125/1/6 38/1/6 37/1/6 126/1/6
f 85/1/6 209/1/6 114/1/6 86/1/6
f 210/2/6 211/2/6 163/2/6 115/2/6
f 209/1/6 80/1/6 212/1/6 210/1/6
f 213/6/6 214/6/6 172/6/6 163/6/6
f 146/2/6 215/2/6 216/2/6 213/2/6
f 211/2/6 217/2/6 218/2/6 147/2/6
f 214/2/6 216/2/6 25/2/6 172/2/6
f 19/2/6 218/2/6 215/2/6 20/2/6
f 217/1/6 212/1/6 79/1/6 26/1/6
f 100/5/6 113/5/6 134/5/6 101/5/6
f 27/5/6 70/5/6 69/5/6 47/5/6
f 95/1/6 133/1/6 117/1/6 96/1/6
f 48/1/6 65/1/6 64/1/6 30/1/6
f 94/1/6 119/1/6 110/1/6 90/1/6
f 110/1/6 6/1/6 5/1/6 111/1/6
f 156/1/6 22/1/6 21/1/6 157/1/6
f 152/1/6 155/1/6 154/1/6 153/1/6
f 32/1/6 61/1/6 60/1/6 24/1/6
f 3/1/6 10/1/6 9/1/6 4/1/6
f 11/1/6 151/1/6 150/1/6 12/1/6
