# generated by tools/rig_people.py — do not edit
mtllib people.mtl
o body
usemtl palette
v 1 19 -3.5
v 1 19 -2.5
v 1 20 -2.5
v 1 20 -3.5
v -1 14 -0.5
v -1 14 1.5
v -1 15 1.5
v -1 15 -0.5
v -3 19 -3.5
v -3 19 -2.5
v -3 20 -2.5
v -3 20 -3.5
v -3 23 -3.5
v -3 23 -2.5
v -3 24 -2.5
v -3 24 -3.5
v -3 15 -2.5
v -3 15 0.5
v -3 16 0.5
v -3 16 -2.5
v -3 16 -0.5
v -3 17 -0.5
v -3 17 -2.5
v -3 17 -1.5
v -3 20 -1.5
v -3 7 -1.5
v -3 7 -0.5
v -3 8 -0.5
v -3 8 -1.5
v -3 8 2.5
v -3 14 2.5
v -3 14 -1.5
v -3 18 -0.5
v -3 18 -1.5
v -3 7 1.5
v -3 8 1.5
v -3 7 2.5
v -3 23 2.5
v -3 23 3.5
v -3 24 3.5
v -3 24 2.5
v -4 20 -3.5
v -4 20 3.5
v -4 23 3.5
v -4 23 -3.5
v -4 23 -2.5
v -4 23 2.5
v -4 24 2.5
v -4 24 -2.5
v -4 18 -1.5
v -4 18 -0.5
v -4 20 -0.5
v -4 20 -1.5
v -4 16 -0.5
v -4 16 0.5
v -4 19 0.5
v -4 19 -0.5
v -4 19 3.5
v -4 15 0.5
v -4 15 3.5
v 4 23 -2.5
v 4 23 3.5
v 4 19 3.5
v 4 19 -2.5
v 4 19 -1.5
v 4 19 -0.5
v 4 18 -0.5
v 4 18 -1.5
v 4 19 0.5
v 4 16 0.5
v 4 16 -0.5
v 4 15 3.5
v 4 15 0.5
v 3 20 -3.5
v 3 20 -2.5
v 3 19 -2.5
v 3 19 -3.5
v 3 24 -3.5
v 3 24 -2.5
v 3 21 -2.5
v 3 21 -3.5
v 3 16 -2.5
v 3 16 0.5
v 3 15 0.5
v 3 15 -2.5
v 3 17 -2.5
v 3 17 -0.5
v 3 16 -0.5
v 3 19 -1.5
v 3 17 -1.5
v 3 24 2.5
v 3 23 2.5
v 3 23 -2.5
v 3 8 -1.5
v 3 8 -0.5
v 3 7 -0.5
v 3 7 -1.5
v 3 14 -1.5
v 3 14 2.5
v 3 8 2.5
v 3 18 -1.5
v 3 18 -0.5
v 3 8 1.5
v 3 7 1.5
v 3 7 2.5
v 2 24 2.5
v 2 24 3.5
v 2 23 3.5
v 2 23 2.5
v 1 21 -3.5
v 1 21 -2.5
v 1 15 -0.5
v 1 15 1.5
v 1 14 1.5
v 1 14 -0.5
v -1 20 -3.5
v -1 20 -2.5
v -1 19 -2.5
v -1 19 -3.5
v -4 21 -3.5
v 3 23 -3.5
v 1 15 -2.5
v 1 17 -2.5
v 1 18 -2.5
v 3 18 -2.5
v 2 18 -2.5
v 2 19 -2.5
v -1 15 -2.5
v -1 16 -2.5
v 1 16 -2.5
v -1 17 -2.5
v -3 18 -2.5
v -1 18 -2.5
v -2 18 -2.5
v -2 19 -2.5
v 1 8 -1.5
v 1 14 -1.5
v -1 8 -1.5
v -1 14 -1.5
v 1 14 2.5
v -3 14 1.5
v 3 23 3.5
v 1 7 1.5
v 1 7 -0.5
v -1 7 1.5
v -1 7 -0.5
v 3 15 3.5
v 3 15 -1.5
v 1 15 -1.5
v 2 15 0.5
v 2 15 -1.5
v 3 15 2.5
v 1 15 2.5
v 1 15 0.5
v -4 15 2.5
v 2 15 -0.5
v -2 15 -0.5
v -2 15 -1.5
v -1 15 -1.5
v -3 15 2.5
v -3 15 1.5
v -3 15 -1.5
v -2 15 1.5
v -2 15 0.5
vt 0.5292969 0.5
vt 0.0410156 0.5
vt 0.2949219 0.5
vt 0.0527344 0.5
vt 0.9980469 0.5
vn -1 0 0
vn 1 0 0
vn 0 0 1
vn 0 0 -1
vn 0 1 0
vn 0 -1 0
f 1/1/1 2/1/1 3/1/1 4/1/1
f 5/2/1 6/2/1 7/2/1 8/2/1
f 9/1/1 10/1/1 11/1/1 12/1/1
f 13/1/1 14/1/1 15/1/1 16/1/1
f 17/1/1 18/1/1 19/1/1 20/1/1
f 20/1/1 21/1/1 22/1/1 23/1/1
f 23/2/1 24/2/1 25/2/1 11/2/1
f 26/3/1 27/3/1 28/3/1 29/3/1
f 29/1/1 30/1/1 31/1/1 32/1/1
f 24/1/1 22/1/1 33/1/1 34/1/1
f 27/1/1 35/1/1 36/1/1 28/1/1
f 35/3/1 37/3/1 30/3/1 36/3/1
f 38/1/1 39/1/1 40/1/1 41/1/1
f 42/1/1 43/1/1 44/1/1 45/1/1
f 46/1/1 47/1/1 48/1/1 49/1/1
f 50/1/1 51/1/1 52/1/1 53/1/1
f 54/4/1 55/4/1 56/4/1 57/4/1
f 57/1/1 58/1/1 43/1/1 52/1/1
f 59/1/1 60/1/1 58/1/1 56/1/1
f 61/1/2 62/1/2 63/1/2 64/1/2
f 65/1/2 66/1/2 67/1/2 68/1/2
f 66/4/2 69/4/2 70/4/2 71/4/2
f 69/1/2 63/1/2 72/1/2 73/1/2
f 74/1/2 75/1/2 76/1/2 77/1/2
f 78/1/2 79/1/2 80/1/2 81/1/2
f 82/1/2 83/1/2 84/1/2 85/1/2
f 86/1/2 87/1/2 88/1/2 82/1/2
f 76/2/2 89/2/2 90/2/2 86/2/2
f 79/1/2 91/1/2 92/1/2 93/1/2
f 94/3/2 95/3/2 96/3/2 97/3/2
f 98/1/2 99/1/2 100/1/2 94/1/2
f 101/1/2 102/1/2 87/1/2 90/1/2
f 95/1/2 103/1/2 104/1/2 96/1/2
f 103/3/2 100/3/2 105/3/2 104/3/2
f 106/1/2 107/1/2 108/1/2 109/1/2
f 110/1/2 111/1/2 3/1/2 4/1/2
f 112/2/2 113/2/2 114/2/2 115/2/2
f 116/1/2 117/1/2 118/1/2 119/1/2
f 113/2/3 7/2/3 6/2/3 114/2/3
f 100/3/3 30/3/3 37/3/3 105/3/3
f 99/1/3 31/1/3 30/1/3 100/1/3
f 91/1/3 106/1/3 109/1/3 92/1/3
f 41/1/3 48/1/3 47/1/3 38/1/3
f 62/1/3 44/1/3 60/1/3 72/1/3
f 107/1/3 40/1/3 39/1/3 108/1/3
f 77/1/4 1/1/4 4/1/4 74/1/4
f 81/1/4 120/1/4 45/1/4 121/1/4
f 121/1/4 13/1/4 16/1/4 78/1/4
f 4/1/4 42/1/4 120/1/4 110/1/4
f 119/1/4 9/1/4 12/1/4 116/1/4
f 64/1/4 76/1/4 93/1/4 61/1/4
f 85/1/4 122/1/4 123/1/4 86/1/4
f 86/2/4 123/2/4 124/2/4 125/2/4
f 125/2/4 126/2/4 127/2/4 76/2/4
f 75/2/4 3/2/4 111/2/4 80/2/4
f 126/1/4 124/1/4 2/1/4 127/1/4
f 122/2/4 128/2/4 129/2/4 130/2/4
f 130/1/4 20/1/4 23/1/4 123/1/4
f 123/4/4 131/4/4 118/4/4 2/4/4
f 2/2/4 118/2/4 117/2/4 3/2/4
f 128/1/4 17/1/4 20/1/4 129/1/4
f 131/2/4 23/2/4 132/2/4 133/2/4
f 133/1/4 134/1/4 135/1/4 118/1/4
f 134/2/4 132/2/4 10/2/4 135/2/4
f 14/1/4 46/1/4 49/1/4 15/1/4
f 68/1/4 101/1/4 89/1/4 65/1/4
f 97/3/4 26/3/4 29/3/4 94/3/4
f 94/1/4 136/1/4 137/1/4 98/1/4
f 136/5/4 138/5/4 139/5/4 137/5/4
f 138/1/4 29/1/4 32/1/4 139/1/4
f 34/1/4 50/1/4 53/1/4 25/1/4
f 71/4/4 88/4/4 102/4/4 67/4/4
f 115/2/4 5/2/4 8/2/4 112/2/4
f 21/4/4 54/4/4 51/4/4 33/4/4
f 73/1/4 84/1/4 83/1/4 70/1/4
f 18/1/4 59/1/4 55/1/4 19/1/4
f 98/1/5 137/1/5 140/1/5 99/1/5
f 137/5/5 139/5/5 5/5/5 115/5/5
f 114/1/5 141/1/5 31/1/5 140/1/5
f 139/1/5 32/1/5 141/1/5 6/1/5
f 74/1/5 4/1/5 3/1/5 75/1/5
f 61/1/5 93/1/5 142/1/5 62/1/5
f 92/1/5 109/1/5 108/1/5 142/1/5
f 13/1/5 45/1/5 46/1/5 14/1/5
f 38/1/5 47/1/5 44/1/5 39/1/5
f 78/1/5 16/1/5 41/1/5 91/1/5
f 106/1/5 41/1/5 40/1/5 107/1/5
f 15/1/5 49/1/5 48/1/5 41/1/5
f 96/3/6 27/3/6 26/3/6 97/3/6
f 104/1/6 143/1/6 144/1/6 96/1/6
f 105/3/6 37/3/6 35/3/6 104/3/6
f 143/3/6 145/3/6 146/3/6 144/3/6
f 145/1/6 35/1/6 27/1/6 146/1/6
f 72/1/6 147/1/6 84/1/6 73/1/6
f 148/1/6 149/1/6 122/1/6 85/1/6
f 84/1/6 150/1/6 151/1/6 148/1/6
f 152/2/6 153/2/6 154/2/6 84/2/6
f 147/1/6 60/1/6 155/1/6 152/1/6
f 156/2/6 157/2/6 158/2/6 151/2/6
f 150/2/6 154/2/6 112/2/6 156/2/6
f 149/2/6 159/2/6 128/2/6 122/2/6
f 153/2/6 160/2/6 161/2/6 113/2/6
f 159/1/6 162/1/6 17/1/6 128/1/6
f 7/2/6 163/2/6 157/2/6 8/2/6
f 164/1/6 18/1/6 162/1/6 158/1/6
f 163/2/6 161/2/6 18/2/6 164/2/6
f 160/1/6 155/1/6 59/1/6 18/1/6
f 70/4/6 83/4/6 88/4/6 71/4/6
f 19/4/6 55/4/6 54/4/6 21/4/6
f 67/1/6 102/1/6 101/1/6 68/1/6
f 33/1/6 51/1/6 50/1/6 34/1/6
f 65/1/6 89/1/6 76/1/6 64/1/6
f 76/1/6 2/1/6 1/1/6 77/1/6
f 118/1/6 10/1/6 9/1/6 119/1/6
f 3/1/6 117/1/6 116/1/6 4/1/6
f 25/1/6 53/1/6 42/1/6 12/1/6
f 80/1/6 111/1/6 110/1/6 81/1/6
