# MagicaVoxel @ Ephtracy

# group
o 

# material
mtllib Character-29.mtl
usemtl palette

# normals
vn -1 0 0
vn 1 0 0
vn 0 0 1
vn 0 0 -1
vn 0 -1 0
vn 0 1 0

# texcoords
vt 0.0371094 0.5
vt 0.0488281 0.5
vt 0.0644531 0.5
vt 0.283203 0.5
vt 0.291016 0.5
vt 0.470703 0.5
vt 0.525391 0.5
vt 0.552734 0.5
vt 0.892578 0.5
vt 0.904297 0.5
vt 0.970703 0.5

# verts
v -5.4 2 -1.2
v -5.4 2 -1.9
v -5.4 2.1 -1.2
v -5.4 2.1 -1.9
v -5.3 0.6 -1.5
v -5.3 0.6 -1.7
v -5.3 0.8 -1.5
v -5.3 0.8 -1.7
v -5.3 0.9 -1.5
v -5.3 0.9 -1.7
v -5.3 1.4 -1.5
v -5.3 1.4 -1.7
v -5.3 2 -1.1
v -5.3 2 -1.2
v -5.3 2 -1.9
v -5.3 2 -2
v -5.3 2.1 -1.1
v -5.3 2.1 -1.2
v -5.3 2.1 -1.9
v -5.3 2.1 -2
v -5.2 1.6 -1.5
v -5.2 1.6 -1.6
v -5.2 1.7 -1.4
v -5.2 1.7 -1.5
v -5.2 1.7 -1.6
v -5.2 1.7 -1.9
v -5.2 1.9 -1.5
v -5.2 1.9 -1.6
v -5.2 2 -1
v -5.2 2 -1.1
v -5.2 2 -1.4
v -5.2 2 -1.9
v -5.2 2 -2
v -5.2 2 -2.1
v -5.2 2.1 -1
v -5.2 2.1 -1.1
v -5.2 2.1 -1.2
v -5.2 2.1 -1.9
v -5.2 2.1 -2
v -5.2 2.1 -2.1
v -5.2 2.3 -1.2
v -5.2 2.3 -1.3
v -5.2 2.3 -1.8
v -5.2 2.3 -1.9
v -5.2 2.4 -1.3
v -5.2 2.4 -1.8
v -5.1 0 -1.4
v -5.1 0 -1.7
v -5.1 0.1 -1.4
v -5.1 0.1 -1.5
v -5.1 0.3 -1.5
v -5.1 0.3 -1.7
v -5.1 0.6 -1.5
v -5.1 0.6 -1.7
v -5.1 0.7 -1.4
v -5.1 0.7 -1.5
v -5.1 0.7 -1.7
v -5.1 0.7 -1.8
v -5.1 0.8 -1.5
v -5.1 0.8 -1.7
v -5.1 0.9 -1.5
v -5.1 0.9 -1.7
v -5.1 1.2 -1.4
v -5.1 1.2 -1.5
v -5.1 1.3 -1.4
v -5.1 1.3 -1.5
v -5.1 1.4 -1.4
v -5.1 1.4 -1.5
v -5.1 1.4 -1.7
v -5.1 1.4 -1.8
v -5.1 1.5 -1.3
v -5.1 1.5 -1.8
v -5.1 1.6 -1.5
v -5.1 1.6 -1.6
v -5.1 1.7 -1.4
v -5.1 1.7 -1.5
v -5.1 1.7 -1.6
v -5.1 1.7 -1.8
v -5.1 1.9 -1.2
v -5.1 1.9 -1.3
v -5.1 2 -1.2
v -5.1 2 -1.3
v -5.1 2 -1.4
v -5.1 2.3 -1.2
v -5.1 2.3 -1.3
v -5.1 2.3 -1.8
v -5.1 2.3 -1.9
v -5.1 2.4 -1.2
v -5.1 2.4 -1.3
v -5.1 2.4 -1.8
v -5.1 2.4 -1.9
v -5.1 2.5 -1.3
v -5.1 2.5 -1.8
v -4.9 1.4 -1.5
v -4.9 1.4 -1.7
v -4.9 1.5 -1.5
v -4.9 1.5 -1.7
v -4.7 0 -1.4
v -4.7 0 -1.7
v -4.7 0.1 -1.4
v -4.7 0.1 -1.5
v -4.7 0.3 -1.5
v -4.7 0.3 -1.7
v -4.7 0.7 -1.5
v -4.7 0.7 -1.7
v -4.7 1.9 -1.2
v -4.7 1.9 -1.3
v -4.7 2 -1.2
v -4.7 2 -1.3
v -4.9 0 -1.4
v -4.9 0 -1.7
v -4.9 0.1 -1.4
v -4.9 0.1 -1.5
v -4.9 0.3 -1.5
v -4.9 0.3 -1.7
v -4.9 0.7 -1.5
v -4.9 0.7 -1.7
v -4.9 1.9 -1.2
v -4.9 1.9 -1.3
v -4.9 2 -1.2
v -4.9 2 -1.3
v -4.7 1.4 -1.5
v -4.7 1.4 -1.7
v -4.7 1.5 -1.5
v -4.7 1.5 -1.7
v -4.5 0 -1.4
v -4.5 0 -1.7
v -4.5 0.1 -1.4
v -4.5 0.1 -1.5
v -4.5 0.3 -1.5
v -4.5 0.3 -1.7
v -4.5 0.6 -1.5
v -4.5 0.6 -1.7
v -4.5 0.7 -1.4
v -4.5 0.7 -1.5
v -4.5 0.7 -1.7
v -4.5 0.7 -1.8
v -4.5 0.8 -1.5
v -4.5 0.8 -1.7
v -4.5 0.9 -1.5
v -4.5 0.9 -1.7
v -4.5 1.2 -1.4
v -4.5 1.2 -1.5
v -4.5 1.3 -1.4
v -4.5 1.3 -1.5
v -4.5 1.4 -1.4
v -4.5 1.4 -1.5
v -4.5 1.4 -1.7
v -4.5 1.4 -1.8
v -4.5 1.5 -1.3
v -4.5 1.5 -1.8
v -4.5 1.6 -1.5
v -4.5 1.6 -1.6
v -4.5 1.7 -1.4
v -4.5 1.7 -1.5
v -4.5 1.7 -1.6
v -4.5 1.7 -1.8
v -4.5 1.9 -1.2
v -4.5 1.9 -1.3
v -4.5 2 -1.2
v -4.5 2 -1.3
v -4.5 2 -1.4
v -4.5 2.3 -1.2
v -4.5 2.3 -1.3
v -4.5 2.3 -1.8
v -4.5 2.3 -1.9
v -4.5 2.4 -1.2
v -4.5 2.4 -1.3
v -4.5 2.4 -1.8
v -4.5 2.4 -1.9
v -4.5 2.5 -1.3
v -4.5 2.5 -1.8
v -4.4 1.6 -1.5
v -4.4 1.6 -1.6
v -4.4 1.7 -1.4
v -4.4 1.7 -1.5
v -4.4 1.7 -1.6
v -4.4 1.7 -1.9
v -4.4 1.9 -1.5
v -4.4 1.9 -1.6
v -4.4 2 -1
v -4.4 2 -1.1
v -4.4 2 -1.4
v -4.4 2 -1.9
v -4.4 2 -2
v -4.4 2 -2.1
v -4.4 2.1 -1
v -4.4 2.1 -1.1
v -4.4 2.1 -1.2
v -4.4 2.1 -1.9
v -4.4 2.1 -2
v -4.4 2.1 -2.1
v -4.4 2.3 -1.2
v -4.4 2.3 -1.3
v -4.4 2.3 -1.8
v -4.4 2.3 -1.9
v -4.4 2.4 -1.3
v -4.4 2.4 -1.8
v -4.3 0.6 -1.5
v -4.3 0.6 -1.7
v -4.3 0.8 -1.5
v -4.3 0.8 -1.7
v -4.3 0.9 -1.5
v -4.3 0.9 -1.7
v -4.3 1.4 -1.5
v -4.3 1.4 -1.7
v -4.3 2 -1.1
v -4.3 2 -1.2
v -4.3 2 -1.9
v -4.3 2 -2
v -4.3 2.1 -1.1
v -4.3 2.1 -1.2
v -4.3 2.1 -1.9
v -4.3 2.1 -2
v -4.2 2 -1.2
v -4.2 2 -1.9
v -4.2 2.1 -1.2
v -4.2 2.1 -1.9
v -5.2 2 -1
v -5.2 2.1 -1
v -4.4 2 -1
v -4.4 2.1 -1
v -5.3 2 -1.1
v -5.3 2.1 -1.1
v -5.2 2 -1.1
v -5.2 2.1 -1.1
v -4.4 2 -1.1
v -4.4 2.1 -1.1
v -4.3 2 -1.1
v -4.3 2.1 -1.1
v -5.4 2 -1.2
v -5.4 2.1 -1.2
v -5.3 2 -1.2
v -5.3 2.1 -1.2
v -5.2 2.1 -1.2
v -5.2 2.3 -1.2
v -5.1 1.9 -1.2
v -5.1 2 -1.2
v -5.1 2.3 -1.2
v -5.1 2.4 -1.2
v -4.9 1.9 -1.2
v -4.9 2 -1.2
v -4.7 1.9 -1.2
v -4.7 2 -1.2
v -4.5 1.9 -1.2
v -4.5 2 -1.2
v -4.5 2.3 -1.2
v -4.5 2.4 -1.2
v -4.4 2.1 -1.2
v -4.4 2.3 -1.2
v -4.3 2 -1.2
v -4.3 2.1 -1.2
v -4.2 2 -1.2
v -4.2 2.1 -1.2
v -5.2 2.3 -1.3
v -5.2 2.4 -1.3
v -5.1 1.5 -1.3
v -5.1 1.9 -1.3
v -5.1 2.3 -1.3
v -5.1 2.4 -1.3
v -5.1 2.5 -1.3
v -5 1.8 -1.3
v -5 1.9 -1.3
v -4.9 1.6 -1.3
v -4.9 1.7 -1.3
v -4.9 1.8 -1.3
v -4.9 1.9 -1.3
v -4.9 2 -1.3
v -4.7 1.6 -1.3
v -4.7 1.7 -1.3
v -4.7 1.8 -1.3
v -4.7 1.9 -1.3
v -4.7 2 -1.3
v -4.6 1.8 -1.3
v -4.6 1.9 -1.3
v -4.5 1.5 -1.3
v -4.5 1.9 -1.3
v -4.5 2.3 -1.3
v -4.5 2.4 -1.3
v -4.5 2.5 -1.3
v -4.4 2.3 -1.3
v -4.4 2.4 -1.3
v -5.2 1.7 -1.4
v -5.2 2 -1.4
v -5.1 0 -1.4
v -5.1 0.1 -1.4
v -5.1 0.7 -1.4
v -5.1 1.2 -1.4
v -5.1 1.3 -1.4
v -5.1 1.4 -1.4
v -5.1 1.7 -1.4
v -5.1 2 -1.4
v -5 0.9 -1.4
v -5 1.1 -1.4
v -5 1.2 -1.4
v -5 1.3 -1.4
v -5 1.4 -1.4
v -4.9 0 -1.4
v -4.9 0.1 -1.4
v -4.7 0 -1.4
v -4.7 0.1 -1.4
v -4.6 0.9 -1.4
v -4.6 1.1 -1.4
v -4.6 1.2 -1.4
v -4.6 1.3 -1.4
v -4.6 1.4 -1.4
v -4.5 0 -1.4
v -4.5 0.1 -1.4
v -4.5 0.7 -1.4
v -4.5 1.2 -1.4
v -4.5 1.3 -1.4
v -4.5 1.4 -1.4
v -4.5 1.7 -1.4
v -4.5 2 -1.4
v -4.4 1.7 -1.4
v -4.4 2 -1.4
v -5.3 0.6 -1.5
v -5.3 0.8 -1.5
v -5.3 0.9 -1.5
v -5.3 1.4 -1.5
v -5.2 1.6 -1.5
v -5.2 1.7 -1.5
v -5.1 0.1 -1.5
v -5.1 0.3 -1.5
v -5.1 0.6 -1.5
v -5.1 0.7 -1.5
v -5.1 0.8 -1.5
v -5.1 0.9 -1.5
v -5.1 1.2 -1.5
v -5.1 1.3 -1.5
v -5.1 1.4 -1.5
v -5.1 1.6 -1.5
v -5.1 1.7 -1.5
v -4.9 0.1 -1.5
v -4.9 0.3 -1.5
v -4.9 0.7 -1.5
v -4.9 1.4 -1.5
v -4.9 1.5 -1.5
v -4.7 0.1 -1.5
v -4.7 0.3 -1.5
v -4.7 0.7 -1.5
v -4.7 1.4 -1.5
v -4.7 1.5 -1.5
v -4.5 0.1 -1.5
v -4.5 0.3 -1.5
v -4.5 0.6 -1.5
v -4.5 0.7 -1.5
v -4.5 0.8 -1.5
v -4.5 0.9 -1.5
v -4.5 1.2 -1.5
v -4.5 1.3 -1.5
v -4.5 1.4 -1.5
v -4.5 1.6 -1.5
v -4.5 1.7 -1.5
v -4.4 1.6 -1.5
v -4.4 1.7 -1.5
v -4.3 0.6 -1.5
v -4.3 0.8 -1.5
v -4.3 0.9 -1.5
v -4.3 1.4 -1.5
v -5.2 1.6 -1.6
v -5.2 1.7 -1.6
v -5.1 1.6 -1.6
v -5.1 1.7 -1.6
v -4.5 1.6 -1.6
v -4.5 1.7 -1.6
v -4.4 1.6 -1.6
v -4.4 1.7 -1.6
v -5.3 0.6 -1.7
v -5.3 0.8 -1.7
v -5.3 0.9 -1.7
v -5.3 1.4 -1.7
v -5.1 0 -1.7
v -5.1 0.3 -1.7
v -5.1 0.6 -1.7
v -5.1 0.7 -1.7
v -5.1 0.8 -1.7
v -5.1 0.9 -1.7
v -5.1 1.4 -1.7
v -4.9 0 -1.7
v -4.9 0.3 -1.7
v -4.9 0.7 -1.7
v -4.9 1.4 -1.7
v -4.9 1.5 -1.7
v -4.7 0 -1.7
v -4.7 0.3 -1.7
v -4.7 0.7 -1.7
v -4.7 1.4 -1.7
v -4.7 1.5 -1.7
v -4.5 0 -1.7
v -4.5 0.3 -1.7
v -4.5 0.6 -1.7
v -4.5 0.7 -1.7
v -4.5 0.8 -1.7
v -4.5 0.9 -1.7
v -4.5 1.4 -1.7
v -4.3 0.6 -1.7
v -4.3 0.8 -1.7
v -4.3 0.9 -1.7
v -4.3 1.4 -1.7
v -5.2 2.3 -1.8
v -5.2 2.4 -1.8
v -5.1 0.7 -1.8
v -5.1 1.4 -1.8
v -5.1 1.5 -1.8
v -5.1 1.7 -1.8
v -5.1 2.3 -1.8
v -5.1 2.4 -1.8
v -5.1 2.5 -1.8
v -5 1.2 -1.8
v -5 1.4 -1.8
v -4.6 1.2 -1.8
v -4.6 1.4 -1.8
v -4.5 0.7 -1.8
v -4.5 1.4 -1.8
v -4.5 1.5 -1.8
v -4.5 1.7 -1.8
v -4.5 2.3 -1.8
v -4.5 2.4 -1.8
v -4.5 2.5 -1.8
v -4.4 2.3 -1.8
v -4.4 2.4 -1.8
v -5.4 2 -1.9
v -5.4 2.1 -1.9
v -5.3 2 -1.9
v -5.3 2.1 -1.9
v -5.2 1.7 -1.9
v -5.2 2 -1.9
v -5.2 2.1 -1.9
v -5.2 2.3 -1.9
v -5.1 2.3 -1.9
v -5.1 2.4 -1.9
v -4.5 2.3 -1.9
v -4.5 2.4 -1.9
v -4.4 1.7 -1.9
v -4.4 2 -1.9
v -4.4 2.1 -1.9
v -4.4 2.3 -1.9
v -4.3 2 -1.9
v -4.3 2.1 -1.9
v -4.2 2 -1.9
v -4.2 2.1 -1.9
v -5.3 2 -2
v -5.3 2.1 -2
v -5.2 2 -2
v -5.2 2.1 -2
v -4.4 2 -2
v -4.4 2.1 -2
v -4.3 2 -2
v -4.3 2.1 -2
v -5.2 2 -2.1
v -5.2 2.1 -2.1
v -4.4 2 -2.1
v -4.4 2.1 -2.1
v -5.1 0 -1.4
v -4.9 0 -1.4
v -4.7 0 -1.4
v -4.5 0 -1.4
v -5.1 0 -1.7
v -4.9 0 -1.7
v -4.7 0 -1.7
v -4.5 0 -1.7
v -5.3 0.6 -1.5
v -5.1 0.6 -1.5
v -4.5 0.6 -1.5
v -4.3 0.6 -1.5
v -5.3 0.6 -1.7
v -5.1 0.6 -1.7
v -4.5 0.6 -1.7
v -4.3 0.6 -1.7
v -5.1 0.7 -1.4
v -4.5 0.7 -1.4
v -5.1 0.7 -1.5
v -4.9 0.7 -1.5
v -4.7 0.7 -1.5
v -4.5 0.7 -1.5
v -5.1 0.7 -1.7
v -4.9 0.7 -1.7
v -4.7 0.7 -1.7
v -4.5 0.7 -1.7
v -5.1 0.7 -1.8
v -4.5 0.7 -1.8
v -5.1 1.5 -1.3
v -4.5 1.5 -1.3
v -4.9 1.5 -1.5
v -4.7 1.5 -1.5
v -4.9 1.5 -1.7
v -4.7 1.5 -1.7
v -5.1 1.5 -1.8
v -4.5 1.5 -1.8
v -5.2 1.6 -1.5
v -5.1 1.6 -1.5
v -4.5 1.6 -1.5
v -4.4 1.6 -1.5
v -5.2 1.6 -1.6
v -5.1 1.6 -1.6
v -4.5 1.6 -1.6
v -4.4 1.6 -1.6
v -5.2 1.7 -1.4
v -5.1 1.7 -1.4
v -4.5 1.7 -1.4
v -4.4 1.7 -1.4
v -5.2 1.7 -1.5
v -5.1 1.7 -1.5
v -4.5 1.7 -1.5
v -4.4 1.7 -1.5
v -5.2 1.7 -1.6
v -5.1 1.7 -1.6
v -4.5 1.7 -1.6
v -4.4 1.7 -1.6
v -5.1 1.7 -1.8
v -4.5 1.7 -1.8
v -5.2 1.7 -1.9
v -4.4 1.7 -1.9
v -5.1 1.9 -1.2
v -4.9 1.9 -1.2
v -4.7 1.9 -1.2
v -4.5 1.9 -1.2
v -5.1 1.9 -1.3
v -5 1.9 -1.3
v -4.9 1.9 -1.3
v -4.7 1.9 -1.3
v -4.6 1.9 -1.3
v -4.5 1.9 -1.3
v -5.2 2 -1
v -4.4 2 -1
v -5.3 2 -1.1
v -5.2 2 -1.1
v -4.4 2 -1.1
v -4.3 2 -1.1
v -5.4 2 -1.2
v -5.3 2 -1.2
v -5.1 2 -1.2
v -4.9 2 -1.2
v -4.7 2 -1.2
v -4.5 2 -1.2
v -4.3 2 -1.2
v -4.2 2 -1.2
v -5.2 2 -1.3
v -5.1 2 -1.3
v -4.9 2 -1.3
v -4.7 2 -1.3
v -4.5 2 -1.3
v -5.2 2 -1.4
v -5.1 2 -1.4
v -4.5 2 -1.4
v -4.4 2 -1.4
v -5.4 2 -1.9
v -5.3 2 -1.9
v -5.2 2 -1.9
v -4.4 2 -1.9
v -4.3 2 -1.9
v -4.2 2 -1.9
v -5.3 2 -2
v -5.2 2 -2
v -4.4 2 -2
v -4.3 2 -2
v -5.2 2 -2.1
v -4.4 2 -2.1
v -5.1 0.1 -1.4
v -4.9 0.1 -1.4
v -4.7 0.1 -1.4
v -4.5 0.1 -1.4
v -5.1 0.1 -1.5
v -4.9 0.1 -1.5
v -4.7 0.1 -1.5
v -4.5 0.1 -1.5
v -5.1 1.4 -1.4
v -5 1.4 -1.4
v -4.6 1.4 -1.4
v -4.5 1.4 -1.4
v -5.3 1.4 -1.5
v -5.1 1.4 -1.5
v -4.9 1.4 -1.5
v -4.7 1.4 -1.5
v -4.5 1.4 -1.5
v -4.3 1.4 -1.5
v -5.3 1.4 -1.7
v -5.1 1.4 -1.7
v -4.9 1.4 -1.7
v -4.7 1.4 -1.7
v -4.5 1.4 -1.7
v -4.3 1.4 -1.7
v -5.1 1.4 -1.8
v -5 1.4 -1.8
v -4.6 1.4 -1.8
v -4.5 1.4 -1.8
v -5.2 2.1 -1
v -4.4 2.1 -1
v -5.3 2.1 -1.1
v -5.2 2.1 -1.1
v -4.4 2.1 -1.1
v -4.3 2.1 -1.1
v -5.4 2.1 -1.2
v -5.3 2.1 -1.2
v -5.2 2.1 -1.2
v -4.4 2.1 -1.2
v -4.3 2.1 -1.2
v -4.2 2.1 -1.2
v -5.4 2.1 -1.9
v -5.3 2.1 -1.9
v -5.2 2.1 -1.9
v -4.4 2.1 -1.9
v -4.3 2.1 -1.9
v -4.2 2.1 -1.9
v -5.3 2.1 -2
v -5.2 2.1 -2
v -4.4 2.1 -2
v -4.3 2.1 -2
v -5.2 2.1 -2.1
v -4.4 2.1 -2.1
v -5.2 2.3 -1.2
v -5.1 2.3 -1.2
v -4.5 2.3 -1.2
v -4.4 2.3 -1.2
v -5.2 2.3 -1.3
v -5.1 2.3 -1.3
v -4.5 2.3 -1.3
v -4.4 2.3 -1.3
v -5.2 2.3 -1.8
v -5.1 2.3 -1.8
v -4.5 2.3 -1.8
v -4.4 2.3 -1.8
v -5.2 2.3 -1.9
v -5.1 2.3 -1.9
v -4.5 2.3 -1.9
v -4.4 2.3 -1.9
v -5.1 2.4 -1.2
v -4.5 2.4 -1.2
v -5.2 2.4 -1.3
v -5.1 2.4 -1.3
v -4.5 2.4 -1.3
v -4.4 2.4 -1.3
v -5.2 2.4 -1.8
v -5.1 2.4 -1.8
v -4.5 2.4 -1.8
v -4.4 2.4 -1.8
v -5.1 2.4 -1.9
v -4.5 2.4 -1.9
v -5.1 2.5 -1.3
v -4.5 2.5 -1.3
v -5.1 2.5 -1.8
v -4.5 2.5 -1.8

# faces
f 3/9/1 2/9/1 1/9/1
f 4/9/1 2/9/1 3/9/1
f 7/1/1 6/1/1 5/1/1
f 8/1/1 6/1/1 7/1/1
f 9/8/1 8/8/1 7/8/1
f 10/8/1 8/8/1 9/8/1
f 11/3/1 10/3/1 9/3/1
f 12/3/1 10/3/1 11/3/1
f 17/9/1 14/9/1 13/9/1
f 18/9/1 14/9/1 17/9/1
f 19/9/1 16/9/1 15/9/1
f 20/9/1 16/9/1 19/9/1
f 24/2/1 22/2/1 21/2/1
f 25/2/1 22/2/1 24/2/1
f 27/6/1 24/6/1 23/6/1
f 27/2/1 25/2/1 24/2/1
f 28/6/1 26/6/1 25/6/1
f 28/2/1 25/2/1 27/2/1
f 31/6/1 27/6/1 23/6/1
f 31/6/1 28/6/1 27/6/1
f 32/6/1 26/6/1 28/6/1
f 32/6/1 28/6/1 31/6/1
f 35/9/1 30/9/1 29/9/1
f 36/9/1 30/9/1 35/9/1
f 39/9/1 34/9/1 33/9/1
f 40/9/1 34/9/1 39/9/1
f 41/9/1 38/9/1 37/9/1
f 42/9/1 38/9/1 41/9/1
f 43/9/1 38/9/1 42/9/1
f 44/9/1 38/9/1 43/9/1
f 45/9/1 43/9/1 42/9/1
f 46/9/1 43/9/1 45/9/1
f 49/7/1 48/7/1 47/7/1
f 50/7/1 48/7/1 49/7/1
f 51/7/1 48/7/1 50/7/1
f 52/7/1 48/7/1 51/7/1
f 53/5/1 52/5/1 51/5/1
f 54/5/1 52/5/1 53/5/1
f 59/5/1 56/5/1 55/5/1
f 60/5/1 58/5/1 57/5/1
f 61/5/1 59/5/1 55/5/1
f 62/5/1 58/5/1 60/5/1
f 63/5/1 61/5/1 55/5/1
f 64/5/1 61/5/1 63/5/1
f 65/10/1 64/10/1 63/10/1
f 66/10/1 64/10/1 65/10/1
f 67/5/1 66/5/1 65/5/1
f 68/5/1 66/5/1 67/5/1
f 69/5/1 58/5/1 62/5/1
f 70/5/1 58/5/1 69/5/1
f 73/1/1 72/1/1 71/1/1
f 74/1/1 72/1/1 73/1/1
f 75/1/1 73/1/1 71/1/1
f 76/1/1 73/1/1 75/1/1
f 77/1/1 72/1/1 74/1/1
f 78/1/1 72/1/1 77/1/1
f 80/1/1 75/1/1 71/1/1
f 81/6/1 80/6/1 79/6/1
f 82/1/1 75/1/1 80/1/1
f 82/6/1 80/6/1 81/6/1
f 83/1/1 75/1/1 82/1/1
f 88/9/1 85/9/1 84/9/1
f 89/9/1 85/9/1 88/9/1
f 90/9/1 87/9/1 86/9/1
f 91/9/1 87/9/1 90/9/1
f 92/9/1 90/9/1 89/9/1
f 93/9/1 90/9/1 92/9/1
f 96/1/1 95/1/1 94/1/1
f 97/1/1 95/1/1 96/1/1
f 100/7/1 99/7/1 98/7/1
f 101/7/1 99/7/1 100/7/1
f 102/7/1 99/7/1 101/7/1
f 103/7/1 99/7/1 102/7/1
f 104/5/1 103/5/1 102/5/1
f 105/5/1 103/5/1 104/5/1
f 108/6/1 107/6/1 106/6/1
f 109/6/1 107/6/1 108/6/1
f 110/7/2 111/7/2 112/7/2
f 112/7/2 111/7/2 113/7/2
f 113/7/2 111/7/2 114/7/2
f 114/7/2 111/7/2 115/7/2
f 114/5/2 115/5/2 116/5/2
f 116/5/2 115/5/2 117/5/2
f 118/6/2 119/6/2 120/6/2
f 120/6/2 119/6/2 121/6/2
f 122/1/2 123/1/2 124/1/2
f 124/1/2 123/1/2 125/1/2
f 126/7/2 127/7/2 128/7/2
f 128/7/2 127/7/2 129/7/2
f 129/7/2 127/7/2 130/7/2
f 130/7/2 127/7/2 131/7/2
f 130/5/2 131/5/2 132/5/2
f 132/5/2 131/5/2 133/5/2
f 134/5/2 135/5/2 138/5/2
f 136/5/2 137/5/2 139/5/2
f 134/5/2 138/5/2 140/5/2
f 139/5/2 137/5/2 141/5/2
f 134/5/2 140/5/2 142/5/2
f 142/5/2 140/5/2 143/5/2
f 142/10/2 143/10/2 144/10/2
f 144/10/2 143/10/2 145/10/2
f 144/5/2 145/5/2 146/5/2
f 146/5/2 145/5/2 147/5/2
f 141/5/2 137/5/2 148/5/2
f 148/5/2 137/5/2 149/5/2
f 150/1/2 151/1/2 152/1/2
f 152/1/2 151/1/2 153/1/2
f 150/1/2 152/1/2 154/1/2
f 154/1/2 152/1/2 155/1/2
f 153/1/2 151/1/2 156/1/2
f 156/1/2 151/1/2 157/1/2
f 150/1/2 154/1/2 159/1/2
f 158/6/2 159/6/2 160/6/2
f 159/1/2 154/1/2 161/1/2
f 160/6/2 159/6/2 161/6/2
f 161/1/2 154/1/2 162/1/2
f 163/9/2 164/9/2 167/9/2
f 167/9/2 164/9/2 168/9/2
f 165/9/2 166/9/2 169/9/2
f 169/9/2 166/9/2 170/9/2
f 168/9/2 169/9/2 171/9/2
f 171/9/2 169/9/2 172/9/2
f 173/2/2 174/2/2 176/2/2
f 176/2/2 174/2/2 177/2/2
f 175/6/2 176/6/2 179/6/2
f 176/2/2 177/2/2 179/2/2
f 177/6/2 178/6/2 180/6/2
f 179/2/2 177/2/2 180/2/2
f 175/6/2 179/6/2 183/6/2
f 179/6/2 180/6/2 183/6/2
f 180/6/2 178/6/2 184/6/2
f 183/6/2 180/6/2 184/6/2
f 181/9/2 182/9/2 187/9/2
f 187/9/2 182/9/2 188/9/2
f 185/9/2 186/9/2 191/9/2
f 191/9/2 186/9/2 192/9/2
f 189/9/2 190/9/2 193/9/2
f 193/9/2 190/9/2 194/9/2
f 194/9/2 190/9/2 195/9/2
f 195/9/2 190/9/2 196/9/2
f 194/9/2 195/9/2 197/9/2
f 197/9/2 195/9/2 198/9/2
f 199/1/2 200/1/2 201/1/2
f 201/1/2 200/1/2 202/1/2
f 201/8/2 202/8/2 203/8/2
f 203/8/2 202/8/2 204/8/2
f 203/3/2 204/3/2 205/3/2
f 205/3/2 204/3/2 206/3/2
f 207/9/2 208/9/2 211/9/2
f 211/9/2 208/9/2 212/9/2
f 209/9/2 210/9/2 213/9/2
f 213/9/2 210/9/2 214/9/2
f 215/9/2 216/9/2 217/9/2
f 217/9/2 216/9/2 218/9/2
f 221/9/3 220/9/3 219/9/3
f 222/9/3 220/9/3 221/9/3
f 225/9/3 224/9/3 223/9/3
f 226/9/3 224/9/3 225/9/3
f 229/9/3 228/9/3 227/9/3
f 230/9/3 228/9/3 229/9/3
f 233/9/3 232/9/3 231/9/3
f 234/9/3 232/9/3 233/9/3
f 239/9/3 236/9/3 235/9/3
f 241/6/3 238/6/3 237/6/3
f 242/6/3 238/6/3 241/6/3
f 245/6/3 244/6/3 243/6/3
f 246/6/3 244/6/3 245/6/3
f 247/9/3 240/9/3 239/9/3
f 247/9/3 239/9/3 235/9/3
f 248/9/3 240/9/3 247/9/3
f 249/9/3 247/9/3 235/9/3
f 250/9/3 247/9/3 249/9/3
f 253/9/3 252/9/3 251/9/3
f 254/9/3 252/9/3 253/9/3
f 259/9/3 256/9/3 255/9/3
f 260/9/3 256/9/3 259/9/3
f 262/1/3 258/1/3 257/1/3
f 263/1/3 258/1/3 262/1/3
f 264/1/3 262/1/3 257/1/3
f 265/1/3 262/1/3 264/1/3
f 266/6/3 263/6/3 262/6/3
f 266/1/3 262/1/3 265/1/3
f 267/6/3 263/6/3 266/6/3
f 269/11/3 265/11/3 264/11/3
f 269/1/3 264/1/3 257/1/3
f 270/1/3 267/1/3 266/1/3
f 270/11/3 265/11/3 269/11/3
f 270/1/3 268/1/3 267/1/3
f 270/1/3 266/1/3 265/1/3
f 271/1/3 268/1/3 270/1/3
f 272/1/3 268/1/3 271/1/3
f 273/1/3 268/1/3 272/1/3
f 274/1/3 270/1/3 269/1/3
f 274/1/3 271/1/3 270/1/3
f 274/6/3 272/6/3 271/6/3
f 275/6/3 272/6/3 274/6/3
f 276/1/3 269/1/3 257/1/3
f 276/1/3 274/1/3 269/1/3
f 276/1/3 275/1/3 274/1/3
f 277/1/3 275/1/3 276/1/3
f 279/9/3 261/9/3 260/9/3
f 280/9/3 261/9/3 279/9/3
f 281/9/3 279/9/3 278/9/3
f 282/9/3 279/9/3 281/9/3
f 291/6/3 284/6/3 283/6/3
f 292/6/3 284/6/3 291/6/3
f 293/5/3 288/5/3 287/5/3
f 294/5/3 288/5/3 293/5/3
f 295/10/3 289/10/3 288/10/3
f 295/5/3 288/5/3 294/5/3
f 296/5/3 290/5/3 289/5/3
f 296/10/3 289/10/3 295/10/3
f 297/5/3 290/5/3 296/5/3
f 298/7/3 286/7/3 285/7/3
f 299/7/3 286/7/3 298/7/3
f 302/4/3 294/4/3 293/4/3
f 302/5/3 293/5/3 287/5/3
f 303/5/3 295/5/3 294/5/3
f 303/4/3 294/4/3 302/4/3
f 304/3/3 296/3/3 295/3/3
f 304/5/3 295/5/3 303/5/3
f 304/3/3 297/3/3 296/3/3
f 305/3/3 297/3/3 304/3/3
f 306/3/3 297/3/3 305/3/3
f 307/7/3 301/7/3 300/7/3
f 308/7/3 301/7/3 307/7/3
f 309/5/3 302/5/3 287/5/3
f 309/5/3 303/5/3 302/5/3
f 309/5/3 304/5/3 303/5/3
f 310/10/3 305/10/3 304/10/3
f 310/5/3 304/5/3 309/5/3
f 311/5/3 306/5/3 305/5/3
f 311/10/3 305/10/3 310/10/3
f 312/5/3 306/5/3 311/5/3
f 315/6/3 314/6/3 313/6/3
f 316/6/3 314/6/3 315/6/3
f 325/1/3 318/1/3 317/1/3
f 326/1/3 318/1/3 325/1/3
f 327/8/3 319/8/3 318/8/3
f 327/1/3 318/1/3 326/1/3
f 328/3/3 320/3/3 319/3/3
f 328/8/3 319/8/3 327/8/3
f 329/3/3 320/3/3 328/3/3
f 330/3/3 320/3/3 329/3/3
f 331/3/3 320/3/3 330/3/3
f 332/2/3 322/2/3 321/2/3
f 333/2/3 322/2/3 332/2/3
f 334/7/3 324/7/3 323/7/3
f 335/5/3 326/5/3 325/5/3
f 335/7/3 324/7/3 334/7/3
f 335/5/3 325/5/3 324/5/3
f 336/5/3 326/5/3 335/5/3
f 342/1/3 338/1/3 337/1/3
f 343/1/3 338/1/3 342/1/3
f 344/7/3 340/7/3 339/7/3
f 345/5/3 341/5/3 340/5/3
f 345/7/3 340/7/3 344/7/3
f 346/5/3 341/5/3 345/5/3
f 347/5/3 341/5/3 346/5/3
f 355/2/3 354/2/3 353/2/3
f 356/2/3 354/2/3 355/2/3
f 357/1/3 347/1/3 346/1/3
f 357/1/3 348/1/3 347/1/3
f 358/8/3 349/8/3 348/8/3
f 358/1/3 348/1/3 357/1/3
f 359/3/3 352/3/3 351/3/3
f 359/8/3 349/8/3 358/8/3
f 359/3/3 351/3/3 350/3/3
f 359/3/3 350/3/3 349/3/3
f 360/3/3 352/3/3 359/3/3
f 361/2/4 362/2/4 363/2/4
f 363/2/4 362/2/4 364/2/4
f 365/2/4 366/2/4 367/2/4
f 367/2/4 366/2/4 368/2/4
f 369/1/4 370/1/4 375/1/4
f 375/1/4 370/1/4 376/1/4
f 370/8/4 371/8/4 377/8/4
f 376/1/4 370/1/4 377/1/4
f 371/3/4 372/3/4 378/3/4
f 377/8/4 371/8/4 378/8/4
f 378/3/4 372/3/4 379/3/4
f 373/7/4 374/7/4 380/7/4
f 375/5/4 376/5/4 381/5/4
f 380/7/4 374/7/4 381/7/4
f 374/5/4 375/5/4 381/5/4
f 381/5/4 376/5/4 382/5/4
f 383/1/4 384/1/4 388/1/4
f 388/1/4 384/1/4 389/1/4
f 385/7/4 386/7/4 390/7/4
f 386/5/4 387/5/4 391/5/4
f 390/7/4 386/7/4 391/7/4
f 391/5/4 387/5/4 392/5/4
f 392/5/4 387/5/4 393/5/4
f 392/1/4 393/1/4 397/1/4
f 393/1/4 394/1/4 397/1/4
f 394/8/4 395/8/4 398/8/4
f 397/1/4 394/1/4 398/1/4
f 395/3/4 396/3/4 399/3/4
f 398/8/4 395/8/4 399/8/4
f 399/3/4 396/3/4 400/3/4
f 401/9/4 402/9/4 407/9/4
f 407/9/4 402/9/4 408/9/4
f 403/5/4 404/5/4 410/5/4
f 410/5/4 404/5/4 411/5/4
f 403/5/4 410/5/4 412/5/4
f 410/3/4 411/3/4 412/3/4
f 412/3/4 411/3/4 413/3/4
f 403/5/4 412/5/4 414/5/4
f 412/5/4 413/5/4 414/5/4
f 414/5/4 413/5/4 415/5/4
f 405/1/4 406/1/4 416/1/4
f 416/1/4 406/1/4 417/1/4
f 408/9/4 409/9/4 419/9/4
f 419/9/4 409/9/4 420/9/4
f 418/9/4 419/9/4 421/9/4
f 421/9/4 419/9/4 422/9/4
f 423/9/4 424/9/4 425/9/4
f 425/9/4 424/9/4 426/9/4
f 429/9/4 430/9/4 431/9/4
f 429/9/4 431/9/4 433/9/4
f 431/9/4 432/9/4 433/9/4
f 433/9/4 432/9/4 434/9/4
f 427/6/4 428/6/4 435/6/4
f 435/6/4 428/6/4 436/6/4
f 429/9/4 433/9/4 437/9/4
f 437/9/4 433/9/4 438/9/4
f 439/9/4 440/9/4 441/9/4
f 441/9/4 440/9/4 442/9/4
f 443/9/4 444/9/4 445/9/4
f 445/9/4 444/9/4 446/9/4
f 447/9/4 448/9/4 449/9/4
f 449/9/4 448/9/4 450/9/4
f 451/9/4 452/9/4 453/9/4
f 453/9/4 452/9/4 454/9/4
f 459/7/5 456/7/5 455/7/5
f 460/7/5 456/7/5 459/7/5
f 461/7/5 458/7/5 457/7/5
f 462/7/5 458/7/5 461/7/5
f 467/1/5 464/1/5 463/1/5
f 468/1/5 464/1/5 467/1/5
f 469/1/5 466/1/5 465/1/5
f 470/1/5 466/1/5 469/1/5
f 473/5/5 472/5/5 471/5/5
f 474/5/5 472/5/5 473/5/5
f 475/5/5 472/5/5 474/5/5
f 476/5/5 472/5/5 475/5/5
f 478/5/5 475/5/5 474/5/5
f 479/5/5 475/5/5 478/5/5
f 481/5/5 478/5/5 477/5/5
f 481/5/5 480/5/5 479/5/5
f 481/5/5 479/5/5 478/5/5
f 482/5/5 480/5/5 481/5/5
f 485/1/5 484/1/5 483/1/5
f 486/1/5 484/1/5 485/1/5
f 487/1/5 485/1/5 483/1/5
f 488/1/5 484/1/5 486/1/5
f 489/1/5 487/1/5 483/1/5
f 489/1/5 488/1/5 487/1/5
f 490/1/5 484/1/5 488/1/5
f 490/1/5 488/1/5 489/1/5
f 495/2/5 492/2/5 491/2/5
f 496/2/5 492/2/5 495/2/5
f 497/2/5 494/2/5 493/2/5
f 498/2/5 494/2/5 497/2/5
f 503/6/5 500/6/5 499/6/5
f 504/6/5 500/6/5 503/6/5
f 505/6/5 502/6/5 501/6/5
f 506/6/5 502/6/5 505/6/5
f 511/6/5 508/6/5 507/6/5
f 512/6/5 510/6/5 509/6/5
f 513/6/5 511/6/5 507/6/5
f 513/6/5 512/6/5 511/6/5
f 514/6/5 510/6/5 512/6/5
f 514/6/5 512/6/5 513/6/5
f 519/6/5 516/6/5 515/6/5
f 520/6/5 516/6/5 519/6/5
f 521/6/5 516/6/5 520/6/5
f 522/6/5 518/6/5 517/6/5
f 523/6/5 518/6/5 522/6/5
f 524/6/5 518/6/5 523/6/5
f 528/9/5 526/9/5 525/9/5
f 529/9/5 526/9/5 528/9/5
f 532/9/5 528/9/5 527/9/5
f 532/9/5 530/9/5 529/9/5
f 532/9/5 529/9/5 528/9/5
f 533/9/5 530/9/5 532/9/5
f 534/9/5 530/9/5 533/9/5
f 535/9/5 530/9/5 534/9/5
f 536/9/5 530/9/5 535/9/5
f 537/9/5 530/9/5 536/9/5
f 539/9/5 532/9/5 531/9/5
f 539/9/5 533/9/5 532/9/5
f 540/9/5 533/9/5 539/9/5
f 541/9/5 535/9/5 534/9/5
f 542/9/5 535/9/5 541/9/5
f 543/9/5 538/9/5 537/9/5
f 543/9/5 537/9/5 536/9/5
f 544/6/5 540/6/5 539/6/5
f 544/9/5 539/9/5 531/9/5
f 545/6/5 540/6/5 544/6/5
f 546/9/5 538/9/5 543/9/5
f 547/9/5 538/9/5 546/9/5
f 548/9/5 544/9/5 531/9/5
f 549/9/5 544/9/5 548/9/5
f 550/9/5 544/9/5 549/9/5
f 551/9/5 538/9/5 547/9/5
f 552/9/5 538/9/5 551/9/5
f 553/9/5 538/9/5 552/9/5
f 554/9/5 550/9/5 549/9/5
f 554/9/5 552/9/5 551/9/5
f 554/9/5 551/9/5 550/9/5
f 555/9/5 552/9/5 554/9/5
f 556/9/5 552/9/5 555/9/5
f 557/9/5 552/9/5 556/9/5
f 558/9/5 556/9/5 555/9/5
f 559/9/5 556/9/5 558/9/5
f 560/7/6 561/7/6 564/7/6
f 564/7/6 561/7/6 565/7/6
f 562/7/6 563/7/6 566/7/6
f 566/7/6 563/7/6 567/7/6
f 568/5/6 569/5/6 573/5/6
f 569/3/6 570/3/6 574/3/6
f 574/3/6 570/3/6 575/3/6
f 570/5/6 571/5/6 576/5/6
f 572/3/6 573/3/6 578/3/6
f 573/5/6 569/5/6 579/5/6
f 578/3/6 573/3/6 579/3/6
f 569/3/6 574/3/6 580/3/6
f 575/3/6 570/3/6 581/3/6
f 576/3/6 577/3/6 582/3/6
f 570/5/6 576/5/6 582/5/6
f 582/3/6 577/3/6 583/3/6
f 579/5/6 569/5/6 584/5/6
f 569/3/6 580/3/6 585/3/6
f 584/5/6 569/5/6 585/5/6
f 580/3/6 581/3/6 585/3/6
f 581/3/6 570/3/6 586/3/6
f 585/3/6 581/3/6 586/3/6
f 570/5/6 582/5/6 586/5/6
f 586/5/6 582/5/6 587/5/6
f 588/9/6 589/9/6 591/9/6
f 591/9/6 589/9/6 592/9/6
f 590/9/6 591/9/6 595/9/6
f 592/9/6 593/9/6 595/9/6
f 591/9/6 592/9/6 595/9/6
f 595/9/6 593/9/6 596/9/6
f 596/9/6 593/9/6 597/9/6
f 597/9/6 593/9/6 598/9/6
f 594/9/6 595/9/6 600/9/6
f 595/9/6 596/9/6 600/9/6
f 600/9/6 596/9/6 601/9/6
f 601/9/6 596/9/6 602/9/6
f 598/9/6 599/9/6 603/9/6
f 597/9/6 598/9/6 603/9/6
f 603/9/6 599/9/6 604/9/6
f 604/9/6 599/9/6 605/9/6
f 601/9/6 602/9/6 606/9/6
f 603/9/6 604/9/6 606/9/6
f 602/9/6 603/9/6 606/9/6
f 606/9/6 604/9/6 607/9/6
f 607/9/6 604/9/6 608/9/6
f 608/9/6 604/9/6 609/9/6
f 607/9/6 608/9/6 610/9/6
f 610/9/6 608/9/6 611/9/6
f 612/9/6 613/9/6 616/9/6
f 616/9/6 613/9/6 617/9/6
f 614/9/6 615/9/6 618/9/6
f 618/9/6 615/9/6 619/9/6
f 620/9/6 621/9/6 624/9/6
f 624/9/6 621/9/6 625/9/6
f 622/9/6 623/9/6 626/9/6
f 626/9/6 623/9/6 627/9/6
f 628/9/6 629/9/6 631/9/6
f 631/9/6 629/9/6 632/9/6
f 630/9/6 631/9/6 634/9/6
f 634/9/6 631/9/6 635/9/6
f 632/9/6 633/9/6 636/9/6
f 636/9/6 633/9/6 637/9/6
f 635/9/6 636/9/6 638/9/6
f 638/9/6 636/9/6 639/9/6
f 640/9/6 641/9/6 642/9/6
f 642/9/6 641/9/6 643/9/6
