# generated by tools/rig_people.py — do not edit
mtllib people.mtl
o body
usemtl palette
v 2 27 -1
v 2 27 2
v 2 28 2
v 2 28 -1
v 2 28 1
v 2 29 1
v 2 29 -1
v -0 29 0
v -0 29 1
v -0 31 1
v -0 31 0
v -1 27 -1
v -1 27 1
v -1 29 1
v -1 29 -1
v -1 29 0
v -1 30 0
v -1 30 -1
v -1 28 1
v -1 28 2
v -1 31 2
v -1 31 1
v -2 25 -2
v -2 25 -1
v -2 29 -1
v -2 29 -2
v -2 27 2
v -2 27 3
v -2 28 3
v -2 28 2
v -2 29 3
v -2 29 2
v -3 14 -4
v -3 14 -3
v -3 17 -3
v -3 17 -4
v -3 14 3
v -3 15 3
v -3 15 -3
v -3 15 -2
v -3 16 -2
v -3 16 -3
v -3 22 -3
v -3 22 -2
v -3 23 -2
v -3 23 -3
v -3 7 -2
v -3 7 -1
v -3 8 -1
v -3 8 -2
v -3 8 2
v -3 14 2
v -3 14 -2
v -3 23 -1
v -3 24 -1
v -3 24 -2
v -3 24 0
v -3 25 0
v -3 25 -2
v -3 7 1
v -3 8 1
v -3 23 3
v -3 24 3
v -3 25 -1
v -3 27 0
v -3 27 -1
v -3 27 2
v -3 28 2
v -3 28 -1
v -3 25 3
v -3 25 2
v -3 26 2
v -3 26 0
v -3 26 3
v -3 27 3
v -3 28 0
v -3 29 2
v -3 29 0
v -3 7 2
v -3 15 4
v -3 16 4
v -3 16 3
v -3 22 3
v -3 22 4
v -3 23 4
v -4 16 -3
v -4 16 -1
v -4 17 -1
v -4 17 -3
v -4 17 -2
v -4 18 -2
v -4 18 -3
v -4 20 -2
v -4 20 -3
v -4 21 -2
v -4 21 -3
v -4 21 0
v -4 22 0
v -4 22 -3
v -4 15 -2
v -4 15 3
v -4 16 3
v -4 16 -2
v -4 19 -1
v -4 19 -2
v -4 20 -1
v -4 20 4
v -4 21 4
v -4 22 -2
v -4 22 -1
v -4 23 -1
v -4 23 -2
v -4 16 0
v -4 17 0
v -4 18 0
v -4 18 -1
v -4 20 0
v -4 23 0
v -4 16 2
v -4 17 2
v -4 17 1
v -4 18 1
v -4 19 1
v -4 19 0
v -4 19 2
v -4 20 2
v -4 21 1
v -4 22 1
v -4 23 1
v -4 17 3
v -4 19 3
v -4 21 2
v -4 23 2
v -4 20 3
v -4 21 3
v -4 22 3
v -4 22 2
v -4 23 3
v -4 16 4
v -4 18 4
v -4 18 3
v -4 19 4
v -4 22 4
v 4 17 -3
v 4 17 -1
v 4 16 -1
v 4 16 -3
v 4 18 -3
v 4 18 -2
v 4 17 -2
v 4 20 -3
v 4 20 -2
v 4 21 -3
v 4 21 -2
v 4 22 -3
v 4 22 -1
v 4 21 -1
v 4 16 -2
v 4 16 1
v 4 15 1
v 4 15 -2
v 4 19 -2
v 4 19 -1
v 4 20 -1
v 4 23 -2
v 4 23 -1
v 4 22 -2
v 4 17 0
v 4 16 0
v 4 18 -1
v 4 18 0
v 4 19 3
v 4 18 3
v 4 20 0
v 4 19 0
v 4 21 1
v 4 20 1
v 4 22 0
v 4 21 0
v 4 23 0
v 4 17 2
v 4 16 2
v 4 18 1
v 4 17 1
v 4 19 1
v 4 22 1
v 4 23 3
v 4 22 3
v 4 15 2
v 4 18 4
v 4 17 4
v 4 20 2
v 4 19 2
v 4 21 2
v 4 22 4
v 4 21 4
v 4 16 3
v 4 15 3
v 4 17 3
v 4 19 4
v 4 16 4
v 3 17 -4
v 3 17 -3
v 3 14 -3
v 3 14 -4
v 3 15 -3
v 3 15 3
v 3 14 3
v 3 16 -3
v 3 16 -2
v 3 15 -2
v 3 23 -3
v 3 23 -2
v 3 22 -2
v 3 22 -3
v 3 8 -2
v 3 8 -1
v 3 7 -1
v 3 7 -2
v 3 14 -2
v 3 14 2
v 3 8 2
v 3 24 -2
v 3 24 3
v 3 23 3
v 3 25 -2
v 3 25 -1
v 3 24 -1
v 3 26 -2
v 3 26 -1
v 3 8 1
v 3 7 1
v 3 27 -1
v 3 27 1
v 3 24 1
v 3 28 -1
v 3 28 2
v 3 27 2
v 3 29 -1
v 3 29 1
v 3 28 1
v 3 7 2
v 3 26 1
v 3 26 3
v 3 26 2
v 3 16 3
v 3 16 4
v 3 15 4
v 3 23 4
v 3 22 4
v 3 22 3
v 2 28 -2
v 2 26 -1
v 2 26 -2
v 2 28 3
v 2 26 3
v 2 26 2
v 1 29 -2
v 1 29 3
v 1 28 3
v 1 28 -2
v 1 28 -1
v 1 28 2
v 1 27 2
v 1 27 -1
v 1 30 -1
v 1 30 0
v 1 29 0
v 1 29 -1
v 1 31 0
v 1 31 2
v 1 29 2
v -2 28 -1
v -2 28 1
v -2 27 1
v -2 27 -1
v -2 29 0
v -2 28 0
v -0 30 0
v -1 29 2
v -0 24 3
v -0 23 3
v 2 24 3
v 2 25 3
v -0 25 3
v 1 25 3
v 1 27 3
v -0 27 3
v -0 29 3
v -2 24 3
v -2 23 3
v -0 28 3
v -1 28 3
v -1 24 3
v -1 26 3
v -2 26 3
v -2 25 3
v 1 17 4
v 1 16 4
v 3 18 4
v 3 17 4
v 3 19 4
v 4 20 4
v 2 22 4
v 2 20 4
v -0 16 4
v -0 15 4
v 2 18 4
v 2 17 4
v 2 19 4
v 2 23 4
v -0 19 4
v -0 17 4
v 2 21 4
v 1 21 4
v 1 20 4
v 1 22 4
v -0 21 4
v -0 20 4
v -0 22 4
v -1 16 4
v -1 15 4
v -4 17 4
v -0 18 4
v -1 18 4
v -1 17 4
v -1 19 4
v -2 22 4
v -2 20 4
v -2 19 4
v -2 17 4
v -2 18 4
v -3 18 4
v -3 17 4
v -3 19 4
v -2 21 4
v -3 21 4
v -3 20 4
v -3 15 -4
v 3 15 -4
v 2 15 -4
v 2 17 -4
v -2 15 -4
v -2 16 -4
v 2 16 -4
v -3 16 -4
v 1 17 -3
v 1 18 -3
v 3 18 -3
v 3 20 -3
v 2 21 -3
v 2 22 -3
v 2 18 -3
v 2 20 -3
v 2 23 -3
v 1 20 -3
v 1 21 -3
v 1 22 -3
v 1 23 -3
v -1 17 -3
v -1 19 -3
v 1 19 -3
v -1 20 -3
v -1 21 -3
v -1 22 -3
v -0 22 -3
v -0 23 -3
v -1 23 -3
v -1 18 -3
v -2 18 -3
v -2 20 -3
v -2 21 -3
v -2 22 -3
v -2 23 -3
v -3 18 -3
v -3 20 -3
v -2 23 -2
v -2 24 -2
v 2 24 -2
v 2 25 -2
v 1 24 -2
v 1 26 -2
v -0 24 -2
v -0 26 -2
v -0 28 -2
v -2 28 -2
v -1 24 -2
v -1 26 -2
v -1 28 -2
v 3 23 -1
v 3 23 0
v 2 23 -2
v 2 23 3
v 1 23 -2
v -0 23 -2
v -1 23 -2
v -3 23 0
v -3 23 1
v -0 31 2
v 1 7 1
v 1 7 -1
v -1 7 1
v -1 7 -1
v 2 14 -2
v 2 14 -3
v -2 14 -2
v -2 14 -3
v 3 15 1
v 3 15 2
v -0 15 3
v -1 15 3
vt 0.3652344 0.5
vt 0.3613281 0.5
vt 0.3691406 0.5
vt 0.6230469 0.5
vt 0.9042969 0.5
vt 0.9628906 0.5
vt 0.5292969 0.5
vt 0.4160156 0.5
vt 0.8769531 0.5
vt 0.9746094 0.5
vt 0.5332031 0.5
vt 0.8457031 0.5
vt 0.1738281 0.5
vn -1 0 0
vn 1 0 0
vn 0 0 1
vn 0 0 -1
vn 0 1 0
vn 0 -1 0
f 1/1/1 2/1/1 3/1/1 4/1/1
f 4/1/1 5/1/1 6/1/1 7/1/1
f 8/1/1 9/1/1 10/1/1 11/1/1
f 12/1/1 13/1/1 14/1/1 15/1/1
f 15/2/1 16/2/1 17/2/1 18/2/1
f 19/1/1 20/1/1 21/1/1 22/1/1
f 23/1/1 24/1/1 25/1/1 26/1/1
f 27/3/1 28/3/1 29/3/1 30/3/1
f 30/1/1 29/1/1 31/1/1 32/1/1
f 33/4/1 34/4/1 35/4/1 36/4/1
f 34/5/1 37/5/1 38/5/1 39/5/1
f 39/5/1 40/5/1 41/5/1 42/5/1
f 43/5/1 44/5/1 45/5/1 46/5/1
f 47/6/1 48/6/1 49/6/1 50/6/1
f 50/7/1 51/7/1 52/7/1 53/7/1
f 45/1/1 54/1/1 55/1/1 56/1/1
f 56/2/1 57/2/1 58/2/1 59/2/1
f 48/8/1 60/8/1 61/8/1 49/8/1
f 54/3/1 62/3/1 63/3/1 55/3/1
f 64/2/1 58/2/1 65/2/1 66/2/1
f 66/1/1 67/1/1 68/1/1 69/1/1
f 57/3/1 63/3/1 70/3/1 58/3/1
f 58/3/1 71/3/1 72/3/1 73/3/1
f 73/1/1 74/1/1 75/1/1 65/1/1
f 76/1/1 68/1/1 77/1/1 78/1/1
f 60/6/1 79/6/1 51/6/1 61/6/1
f 71/1/1 70/1/1 74/1/1 72/1/1
f 38/5/1 80/5/1 81/5/1 82/5/1
f 83/9/1 84/9/1 85/9/1 62/9/1
f 86/5/1 87/5/1 88/5/1 89/5/1
f 89/8/1 90/8/1 91/8/1 92/8/1
f 92/10/1 91/10/1 93/10/1 94/10/1
f 94/11/1 93/11/1 95/11/1 96/11/1
f 96/9/1 97/9/1 98/9/1 99/9/1
f 100/5/1 101/5/1 102/5/1 103/5/1
f 90/9/1 88/9/1 104/9/1 105/9/1
f 105/8/1 104/8/1 106/8/1 93/8/1
f 93/9/1 107/9/1 108/9/1 95/9/1
f 109/12/1 110/12/1 111/12/1 112/12/1
f 87/8/1 113/8/1 114/8/1 88/8/1
f 88/5/1 114/5/1 115/5/1 116/5/1
f 116/9/1 115/9/1 117/9/1 106/9/1
f 110/9/1 98/9/1 118/9/1 111/9/1
f 113/5/1 119/5/1 120/5/1 114/5/1
f 114/8/1 121/8/1 122/8/1 115/8/1
f 115/5/1 122/5/1 123/5/1 124/5/1
f 124/9/1 125/9/1 126/9/1 117/9/1
f 97/5/1 127/5/1 128/5/1 98/5/1
f 98/12/1 128/12/1 129/12/1 118/12/1
f 121/9/1 130/9/1 131/9/1 123/9/1
f 127/9/1 132/9/1 133/9/1 129/9/1
f 119/8/1 102/8/1 130/8/1 120/8/1
f 125/5/1 131/5/1 134/5/1 126/5/1
f 132/5/1 135/5/1 136/5/1 137/5/1
f 137/9/1 136/9/1 138/9/1 133/9/1
f 102/5/1 139/5/1 140/5/1 141/5/1
f 141/8/1 140/8/1 142/8/1 131/8/1
f 131/9/1 142/9/1 107/9/1 134/9/1
f 135/9/1 108/9/1 143/9/1 136/9/1
f 144/5/2 145/5/2 146/5/2 147/5/2
f 148/8/2 149/8/2 150/8/2 144/8/2
f 151/10/2 152/10/2 149/10/2 148/10/2
f 153/11/2 154/11/2 152/11/2 151/11/2
f 155/9/2 156/9/2 157/9/2 153/9/2
f 158/5/2 159/5/2 160/5/2 161/5/2
f 162/9/2 163/9/2 145/9/2 150/9/2
f 152/8/2 164/8/2 163/8/2 162/8/2
f 154/5/2 157/5/2 164/5/2 152/5/2
f 165/9/2 166/9/2 156/9/2 167/9/2
f 145/8/2 168/8/2 169/8/2 146/8/2
f 170/5/2 171/5/2 168/5/2 145/5/2
f 163/9/2 172/9/2 173/9/2 170/9/2
f 164/5/2 174/5/2 175/5/2 163/5/2
f 157/9/2 176/9/2 177/9/2 164/9/2
f 156/5/2 178/5/2 179/5/2 157/5/2
f 166/12/2 180/12/2 178/12/2 156/12/2
f 168/5/2 181/5/2 182/5/2 169/5/2
f 171/8/2 183/8/2 184/8/2 168/8/2
f 174/9/2 177/9/2 185/9/2 175/9/2
f 178/12/2 186/12/2 176/12/2 179/12/2
f 180/9/2 187/9/2 188/9/2 178/9/2
f 159/8/2 182/8/2 189/8/2 160/8/2
f 183/9/2 190/9/2 191/9/2 184/9/2
f 177/5/2 192/5/2 193/5/2 185/5/2
f 176/8/2 194/8/2 192/8/2 177/8/2
f 186/9/2 195/9/2 196/9/2 176/9/2
f 182/5/2 197/5/2 198/5/2 189/5/2
f 181/8/2 199/8/2 197/8/2 182/8/2
f 194/9/2 196/9/2 200/9/2 193/9/2
f 199/5/2 191/5/2 201/5/2 197/5/2
f 172/8/2 200/8/2 190/8/2 173/8/2
f 202/4/2 203/4/2 204/4/2 205/4/2
f 206/5/2 207/5/2 208/5/2 204/5/2
f 209/5/2 210/5/2 211/5/2 206/5/2
f 212/9/2 213/9/2 214/9/2 215/9/2
f 216/6/2 217/6/2 218/6/2 219/6/2
f 220/7/2 221/7/2 222/7/2 216/7/2
f 223/3/2 224/3/2 225/3/2 213/3/2
f 226/3/2 227/3/2 228/3/2 223/3/2
f 229/1/2 230/1/2 227/1/2 226/1/2
f 217/8/2 231/8/2 232/8/2 218/8/2
f 233/2/2 234/2/2 235/2/2 228/2/2
f 236/1/2 237/1/2 238/1/2 233/1/2
f 239/1/2 240/1/2 241/1/2 236/1/2
f 231/6/2 222/6/2 242/6/2 232/6/2
f 243/1/2 244/1/2 224/1/2 235/1/2
f 234/1/2 238/1/2 245/1/2 243/1/2
f 246/5/2 247/5/2 248/5/2 207/5/2
f 225/12/2 249/12/2 250/12/2 251/12/2
f 252/1/2 4/1/2 253/1/2 254/1/2
f 3/1/2 255/1/2 256/1/2 257/1/2
f 258/1/2 259/1/2 260/1/2 261/1/2
f 262/1/2 263/1/2 264/1/2 265/1/2
f 266/2/2 267/2/2 268/2/2 269/2/2
f 270/1/2 271/1/2 272/1/2 268/1/2
f 273/1/2 274/1/2 275/1/2 276/1/2
f 277/1/2 32/1/2 30/1/2 278/1/2
f 4/1/3 262/1/3 265/1/3 1/1/3
f 15/1/3 25/1/3 276/1/3 12/1/3
f 279/2/3 17/2/3 16/2/3 8/2/3
f 240/1/3 6/1/3 5/1/3 241/1/3
f 222/6/3 51/6/3 79/6/3 242/6/3
f 221/7/3 52/7/3 51/7/3 222/7/3
f 237/1/3 3/1/3 257/1/3 245/1/3
f 271/1/3 21/1/3 280/1/3 272/1/3
f 32/1/3 77/1/3 67/1/3 27/1/3
f 197/5/3 246/5/3 207/5/3 198/5/3
f 187/9/3 225/9/3 251/9/3 188/9/3
f 207/5/3 38/5/3 37/5/3 208/5/3
f 224/3/3 281/3/3 282/3/3 225/3/3
f 244/1/3 256/1/3 283/1/3 224/1/3
f 284/3/3 285/3/3 281/3/3 283/3/3
f 255/1/3 260/1/3 286/1/3 284/1/3
f 287/3/3 288/3/3 285/3/3 286/3/3
f 259/1/3 289/1/3 288/1/3 287/1/3
f 281/1/3 290/1/3 291/1/3 282/1/3
f 292/2/3 293/2/3 294/2/3 281/2/3
f 289/1/3 31/1/3 29/1/3 292/1/3
f 295/1/3 296/1/3 290/1/3 294/1/3
f 293/3/3 29/3/3 296/3/3 295/3/3
f 297/3/3 70/3/3 62/3/3 291/3/3
f 28/1/3 75/1/3 70/1/3 297/1/3
f 82/5/3 102/5/3 101/5/3 38/5/3
f 62/9/3 138/9/3 136/9/3 83/9/3
f 191/5/3 298/5/3 299/5/3 201/5/3
f 190/9/3 300/9/3 301/9/3 191/9/3
f 200/8/3 302/8/3 300/8/3 190/8/3
f 303/9/3 107/9/3 142/9/3 200/9/3
f 195/9/3 304/9/3 305/9/3 303/9/3
f 247/5/3 306/5/3 307/5/3 248/5/3
f 300/8/3 308/8/3 309/8/3 301/8/3
f 302/5/3 310/5/3 308/5/3 300/5/3
f 249/12/3 311/12/3 304/12/3 250/12/3
f 310/9/3 312/9/3 313/9/3 309/9/3
f 314/8/3 315/8/3 316/8/3 305/8/3
f 304/5/3 317/5/3 315/5/3 314/5/3
f 311/9/3 85/9/3 84/9/3 304/9/3
f 298/8/3 313/8/3 306/8/3 299/8/3
f 315/5/3 318/5/3 319/5/3 316/5/3
f 317/12/3 320/12/3 318/12/3 315/12/3
f 306/8/3 321/8/3 322/8/3 307/8/3
f 313/5/3 323/5/3 139/5/3 306/5/3
f 324/5/3 325/5/3 326/5/3 313/5/3
f 312/8/3 327/8/3 325/8/3 324/8/3
f 320/9/3 328/9/3 329/9/3 319/9/3
f 321/5/3 81/5/3 80/5/3 322/5/3
f 327/9/3 330/9/3 331/9/3 326/9/3
f 332/8/3 333/8/3 334/8/3 331/8/3
f 330/9/3 335/9/3 333/9/3 332/9/3
f 336/5/3 337/5/3 338/5/3 329/5/3
f 328/9/3 143/9/3 108/9/3 336/9/3
f 333/5/3 140/5/3 323/5/3 334/5/3
f 335/8/3 142/8/3 140/8/3 333/8/3
f 337/9/3 108/9/3 107/9/3 338/9/3
f 205/4/4 33/4/4 339/4/4 340/4/4
f 340/4/4 341/4/4 342/4/4 202/4/4
f 341/13/4 343/13/4 344/13/4 345/13/4
f 345/4/4 346/4/4 36/4/4 342/4/4
f 343/4/4 339/4/4 346/4/4 344/4/4
f 147/5/4 209/5/4 203/5/4 144/5/4
f 144/8/4 347/8/4 348/8/4 148/8/4
f 148/10/4 349/10/4 350/10/4 151/10/4
f 151/11/4 94/11/4 96/11/4 153/11/4
f 153/9/4 351/9/4 352/9/4 155/9/4
f 349/11/4 353/11/4 354/11/4 350/11/4
f 215/9/4 352/9/4 355/9/4 212/9/4
f 353/10/4 348/10/4 356/10/4 354/10/4
f 351/12/4 357/12/4 358/12/4 352/12/4
f 352/5/4 358/5/4 359/5/4 355/5/4
f 347/5/4 360/5/4 361/5/4 362/5/4
f 362/9/4 361/9/4 363/9/4 356/9/4
f 357/9/4 364/9/4 365/9/4 358/9/4
f 358/9/4 366/9/4 367/9/4 359/9/4
f 366/12/4 365/12/4 368/12/4 367/12/4
f 360/8/4 89/8/4 92/8/4 369/8/4
f 369/10/4 370/10/4 371/10/4 363/10/4
f 364/5/4 372/5/4 373/5/4 365/5/4
f 365/9/4 373/9/4 374/9/4 368/9/4
f 370/11/4 375/11/4 376/11/4 371/11/4
f 372/9/4 96/9/4 99/9/4 373/9/4
f 373/5/4 43/5/4 46/5/4 374/5/4
f 42/5/4 86/5/4 89/5/4 35/5/4
f 375/10/4 92/10/4 94/10/4 376/10/4
f 161/5/4 211/5/4 210/5/4 158/5/4
f 167/9/4 214/9/4 213/9/4 165/9/4
f 219/6/4 47/6/4 50/6/4 216/6/4
f 216/7/4 50/7/4 53/7/4 220/7/4
f 213/3/4 377/3/4 378/3/4 223/3/4
f 223/3/4 379/3/4 380/3/4 226/3/4
f 226/1/4 380/1/4 254/1/4 229/1/4
f 379/2/4 381/2/4 382/2/4 254/2/4
f 254/1/4 382/1/4 261/1/4 252/1/4
f 381/1/4 383/1/4 384/1/4 382/1/4
f 382/3/4 384/3/4 385/3/4 261/3/4
f 261/1/4 386/1/4 26/1/4 258/1/4
f 383/3/4 387/3/4 388/3/4 384/3/4
f 384/2/4 388/2/4 389/2/4 385/2/4
f 387/1/4 378/1/4 386/1/4 389/1/4
f 377/1/4 45/1/4 56/1/4 378/1/4
f 378/2/4 56/2/4 59/2/4 23/2/4
f 40/5/4 100/5/4 103/5/4 41/5/4
f 44/12/4 109/12/4 112/12/4 45/12/4
f 230/2/4 253/2/4 1/2/4 233/2/4
f 233/1/4 1/1/4 7/1/4 239/1/4
f 269/2/4 15/2/4 18/2/4 266/2/4
f 24/2/4 64/2/4 66/2/4 276/2/4
f 276/1/4 66/1/4 69/1/4 273/1/4
f 267/1/4 279/1/4 11/1/4 270/1/4
f 278/1/4 76/1/4 78/1/4 277/1/4
f 9/1/4 14/1/4 22/1/4 10/1/4
f 13/1/4 275/1/4 274/1/4 19/1/4
f 2/1/4 264/1/4 263/1/4 3/1/4
f 20/1/4 30/1/4 32/1/4 280/1/4
f 202/4/5 36/4/5 35/4/5 203/4/5
f 155/9/5 215/9/5 214/9/5 167/9/5
f 188/9/5 251/9/5 250/9/5 195/9/5
f 43/9/5 99/9/5 109/9/5 44/9/5
f 83/9/5 136/9/5 143/9/5 84/9/5
f 165/9/5 213/9/5 390/9/5 166/9/5
f 166/12/5 390/12/5 391/12/5 180/12/5
f 180/9/5 391/9/5 225/9/5 187/9/5
f 212/9/5 355/9/5 392/9/5 213/9/5
f 225/12/5 393/12/5 311/12/5 249/12/5
f 355/5/5 359/5/5 394/5/5 392/5/5
f 393/9/5 62/9/5 85/9/5 311/9/5
f 359/9/5 367/9/5 395/9/5 394/9/5
f 367/12/5 368/12/5 396/12/5 395/12/5
f 368/9/5 374/9/5 377/9/5 396/9/5
f 374/5/5 46/5/5 45/5/5 377/5/5
f 45/12/5 112/12/5 111/12/5 54/12/5
f 54/9/5 111/9/5 118/9/5 397/9/5
f 397/12/5 118/12/5 129/12/5 398/12/5
f 398/9/5 129/9/5 138/9/5 62/9/5
f 23/2/5 59/2/5 64/2/5 24/2/5
f 229/1/5 254/1/5 253/1/5 230/1/5
f 245/1/5 257/1/5 256/1/5 244/1/5
f 1/1/5 265/1/5 264/1/5 2/1/5
f 12/1/5 276/1/5 275/1/5 13/1/5
f 27/1/5 67/1/5 75/1/5 28/1/5
f 241/1/5 5/1/5 3/1/5 237/1/5
f 252/1/5 261/1/5 262/1/5 4/1/5
f 3/1/5 263/1/5 260/1/5 255/1/5
f 19/1/5 274/1/5 30/1/5 20/1/5
f 273/1/5 69/1/5 76/1/5 278/1/5
f 239/1/5 7/1/5 6/1/5 240/1/5
f 258/1/5 26/1/5 25/1/5 269/1/5
f 272/1/5 32/1/5 31/1/5 259/1/5
f 8/1/5 16/1/5 14/1/5 9/1/5
f 277/1/5 78/1/5 77/1/5 32/1/5
f 266/2/5 18/2/5 17/2/5 267/2/5
f 270/1/5 11/1/5 399/1/5 271/1/5
f 10/1/5 22/1/5 21/1/5 399/1/5
f 218/6/6 48/6/6 47/6/6 219/6/6
f 232/8/6 400/8/6 401/8/6 218/8/6
f 242/6/6 79/6/6 60/6/6 232/6/6
f 400/6/6 402/6/6 403/6/6 401/6/6
f 402/8/6 60/8/6 48/8/6 403/8/6
f 204/4/6 34/4/6 33/4/6 205/4/6
f 220/5/6 404/5/6 405/5/6 204/5/6
f 208/5/6 37/5/6 52/5/6 221/5/6
f 404/9/6 406/9/6 407/9/6 405/9/6
f 406/5/6 53/5/6 34/5/6 407/5/6
f 160/5/6 408/5/6 211/5/6 161/5/6
f 189/8/6 409/8/6 408/8/6 160/8/6
f 198/5/6 207/5/6 409/5/6 189/5/6
f 248/5/6 307/5/6 410/5/6 207/5/6
f 307/8/6 322/8/6 411/8/6 410/8/6
f 322/5/6 80/5/6 38/5/6 411/5/6
f 38/5/6 101/5/6 100/5/6 40/5/6
f 158/5/6 210/5/6 209/5/6 147/5/6
f 201/5/6 247/5/6 246/5/6 197/5/6
f 41/5/6 103/5/6 86/5/6 42/5/6
f 81/5/6 139/5/6 102/5/6 82/5/6
