# generated by tools/rig_people.py — do not edit
mtllib people.mtl
o arm-l
usemtl palette
v -5 6 -0.5
v -5 6 1.5
v -5 11 1.5
v -5 11 -0.5
v -5 13 1.5
v -5 13 -0.5
v -5 14 1.5
v -5 14 -0.5
v -3 11 -0.5
v -3 11 1.5
v -3 6 1.5
v -3 6 -0.5
v -3 13 -0.5
v -3 13 0.5
v -3 11 0.5
v -3 14 -0.5
v -3 14 1.5
v -3 13 1.5
v -4 14 1.5
v -4 11 1.5
v -4 13 1.5
vt 0.9628906 0.5
vt 0.8730469 0.5
vn -1 0 0
vn 1 0 0
vn 0 0 1
vn 0 0 -1
vn 0 1 0
vn 0 -1 0
f 1/1/1 2/1/1 3/1/1 4/1/1
f 4/2/1 3/2/1 5/2/1 6/2/1
f 6/1/1 5/1/1 7/1/1 8/1/1
f 9/1/2 10/1/2 11/1/2 12/1/2
f 13/2/2 14/2/2 15/2/2 9/2/2
f 16/1/2 17/1/2 18/1/2 13/1/2
f 14/1/2 18/1/2 10/1/2 15/1/2
f 10/1/3 3/1/3 2/1/3 11/1/3
f 17/1/3 19/1/3 20/1/3 10/1/3
f 21/2/3 5/2/3 3/2/3 20/2/3
f 19/1/3 7/1/3 5/1/3 21/1/3
f 12/1/4 1/1/4 4/1/4 9/1/4
f 9/2/4 4/2/4 6/2/4 13/2/4
f 13/1/4 6/1/4 8/1/4 16/1/4
f 16/1/5 8/1/5 7/1/5 17/1/5
f 11/1/6 2/1/6 1/1/6 12/1/6
