# generated by tools/rig_people.py — do not edit
mtllib people.mtl
o leg-r
usemtl palette
v 1 0 -3.5
v 1 0 -0.5
v 1 1 -0.5
v 1 1 -3.5
v 1 1 -2.5
v 1 3 -0.5
v 1 3 -2.5
v 3 1 -3.5
v 3 1 -0.5
v 3 0 -0.5
v 3 0 -3.5
v 3 3 -2.5
v 3 3 -0.5
v 3 1 -2.5
vt 0.5292969 0.5
vt 0.0410156 0.5
vn -1 0 0
vn 1 0 0
vn 0 0 1
vn 0 0 -1
vn 0 1 0
vn 0 -1 0
f 1/1/1 2/1/1 3/1/1 4/1/1
f 5/2/1 3/2/1 6/2/1 7/2/1
f 8/1/2 9/1/2 10/1/2 11/1/2
f 12/2/2 13/2/2 9/2/2 14/2/2
f 9/1/3 3/1/3 2/1/3 10/1/3
f 13/2/3 6/2/3 3/2/3 9/2/3
f 11/1/4 1/1/4 4/1/4 8/1/4
f 14/2/4 5/2/4 7/2/4 12/2/4
f 8/1/5 4/1/5 5/1/5 14/1/5
f 12/2/5 7/2/5 6/2/5 13/2/5
f 10/1/6 2/1/6 1/1/6 11/1/6
