# generated by tools/rig_people.py — do not edit
mtllib people.mtl
o body
usemtl palette
v 3 18 -3.5
v 3 18 -2.5
v 3 21 -2.5
v 3 21 -3.5
v 1 15 -3.5
v 1 15 -2.5
v 1 16 -2.5
v 1 16 -3.5
v 1 8 -1.5
v 1 8 -0.5
v 1 9 -0.5
v 1 9 -1.5
v 1 10 -1.5
v 1 10 -0.5
v 1 11 -0.5
v 1 11 -1.5
v 1 12 -1.5
v 1 12 -0.5
v 1 13 -0.5
v 1 13 -1.5
v 1 9 0.5
v 1 10 0.5
v 1 13 0.5
v 1 14 0.5
v 1 14 -0.5
v -0 17 -3.5
v -0 17 -2.5
v -0 18 -2.5
v -0 18 -3.5
v -1 15 -3.5
v -1 15 -2.5
v -1 16 -2.5
v -1 16 -3.5
v -1 11 -1.5
v -1 11 0.5
v -1 12 0.5
v -1 12 -1.5
v -1 14 -1.5
v -1 14 0.5
v -1 15 0.5
v -1 15 -1.5
v -2 18 -3.5
v -2 18 -2.5
v -2 21 -2.5
v -2 21 -3.5
v -2 7 -1.5
v -2 7 0.5
v -2 11 0.5
v -2 11 -1.5
v -2 12 -1.5
v -2 12 0.5
v -2 14 0.5
v -2 14 -1.5
v -2 15 0.5
v -2 15 1.5
v -2 16 1.5
v -2 16 0.5
v -3 15 -3.5
v -3 15 0.5
v -3 16 0.5
v -3 16 -3.5
v -3 16 -2.5
v -3 17 -2.5
v -3 17 -3.5
v -3 24 -3.5
v -3 24 -2.5
v -3 25 -2.5
v -3 25 -3.5
v -3 17 2.5
v -3 17 3.5
v -3 18 3.5
v -3 18 2.5
v -3 24 2.5
v -3 24 3.5
v -3 25 3.5
v -3 25 2.5
v -4 17 -3.5
v -4 17 2.5
v -4 24 2.5
v -4 24 -3.5
v -4 16 -2.5
v -4 16 1.5
v -4 17 1.5
v -4 17 -2.5
v -4 24 -2.5
v -4 25 2.5
v -4 25 -2.5
v -4 16 2.5
v -4 18 2.5
v -4 18 3.5
v -4 20 3.5
v -4 20 2.5
v -4 24 3.5
v 4 24 -3.5
v 4 24 2.5
v 4 17 2.5
v 4 17 -3.5
v 4 17 -2.5
v 4 16 2.5
v 4 16 -2.5
v 4 25 -2.5
v 4 25 2.5
v 4 24 -2.5
v 4 24 3.5
v 4 18 3.5
v 4 18 2.5
v 3 17 -3.5
v 3 17 -2.5
v 3 16 -2.5
v 3 16 -3.5
v 3 25 -3.5
v 3 25 -2.5
v 3 24 -2.5
v 3 24 -3.5
v 3 18 2.5
v 3 18 3.5
v 3 17 3.5
v 3 17 2.5
v 3 25 2.5
v 3 25 3.5
v 3 24 3.5
v 3 24 2.5
v 2 16 -3.5
v 2 16 1.5
v 2 15 1.5
v 2 15 -3.5
v 2 11 -1.5
v 2 11 0.5
v 2 7 0.5
v 2 7 -1.5
v 2 14 -1.5
v 2 14 0.5
v 2 12 0.5
v 2 12 -1.5
v 1 21 -3.5
v 1 21 -2.5
v 1 18 -2.5
v 1 18 -3.5
v 1 12 0.5
v 1 11 0.5
v 1 15 -1.5
v 1 15 0.5
v 1 14 -1.5
v -0 16 -3.5
v -0 16 -2.5
v -0 15 -2.5
v -0 15 -3.5
v -1 18 -3.5
v -1 18 -2.5
v -1 17 -2.5
v -1 17 -3.5
v -1 9 -1.5
v -1 9 -0.5
v -1 8 -0.5
v -1 8 -1.5
v -1 11 -0.5
v -1 10 -0.5
v -1 10 -1.5
v -1 13 -1.5
v -1 13 -0.5
v -1 12 -0.5
v -1 10 0.5
v -1 9 0.5
v -1 14 -0.5
v -1 13 0.5
v -2 16 -3.5
v -2 16 -2.5
v -2 15 -2.5
v -2 15 -3.5
v -3 21 -3.5
v -3 21 -2.5
v -3 18 -2.5
v -3 18 -3.5
v 2 9 0.5
v -2 9 0.5
v 2 13 0.5
v -2 13 0.5
v -2 10 0.5
v -3 16 2.5
v -2 24 3.5
v -2 18 3.5
v -0 18 3.5
v -0 17 3.5
v -2 20 3.5
v 1 17 -3.5
v -4 21 -3.5
v -4 23 -3.5
v 3 23 -3.5
v 1 23 -3.5
v 1 25 -3.5
v -0 21 -3.5
v 1 24 -3.5
v -1 24 -3.5
v -1 25 -3.5
v -2 8 -1.5
v 2 8 -1.5
v -2 9 -1.5
v -2 10 -1.5
v -2 13 -1.5
v -1 25 -2.5
v 1 25 -2.5
v 1 25 -1.5
v 3 25 -1.5
v -4 25 -1.5
v 1 15 1.5
v -3 15 -1.5
v -3 15 -2.5
v 2 16 2.5
v 2 16 -2.5
v -3 16 1.5
v -4 16 0.5
v -0 17 2.5
vt 0.9902344 0.5
vt 0.9824219 0.5
vt 0.9980469 0.5
vn -1 0 0
vn 1 0 0
vn 0 0 1
vn 0 0 -1
vn 0 1 0
vn 0 -1 0
f 1/1/1 2/1/1 3/1/1 4/1/1
f 5/1/1 6/1/1 7/1/1 8/1/1
f 9/1/1 10/1/1 11/1/1 12/1/1
f 13/1/1 14/1/1 15/1/1 16/1/1
f 17/1/1 18/1/1 19/1/1 20/1/1
f 11/1/1 21/1/1 22/1/1 14/1/1
f 19/1/1 23/1/1 24/1/1 25/1/1
f 26/1/1 27/1/1 28/1/1 29/1/1
f 30/1/1 31/1/1 32/1/1 33/1/1
f 34/1/1 35/1/1 36/1/1 37/1/1
f 38/1/1 39/1/1 40/1/1 41/1/1
f 42/1/1 43/1/1 44/1/1 45/1/1
f 46/1/1 47/1/1 48/1/1 49/1/1
f 50/1/1 51/1/1 52/1/1 53/1/1
f 54/1/1 55/1/1 56/1/1 57/1/1
f 58/1/1 59/1/1 60/1/1 61/1/1
f 61/1/1 62/1/1 63/1/1 64/1/1
f 65/1/1 66/1/1 67/1/1 68/1/1
f 69/2/1 70/2/1 71/2/1 72/2/1
f 73/1/1 74/1/1 75/1/1 76/1/1
f 77/1/1 78/1/1 79/1/1 80/1/1
f 81/1/1 82/1/1 83/1/1 84/1/1
f 85/1/1 79/1/1 86/1/1 87/1/1
f 82/2/1 88/2/1 78/2/1 83/2/1
f 89/2/1 90/2/1 91/2/1 92/2/1
f 92/1/1 91/1/1 93/1/1 79/1/1
f 94/1/2 95/1/2 96/1/2 97/1/2
f 98/1/2 96/1/2 99/1/2 100/1/2
f 101/1/2 102/1/2 95/1/2 103/1/2
f 95/1/2 104/1/2 105/1/2 106/1/2
f 107/1/2 108/1/2 109/1/2 110/1/2
f 111/2/2 112/2/2 113/2/2 114/2/2
f 115/1/2 116/1/2 117/1/2 118/1/2
f 119/1/2 120/1/2 121/1/2 122/1/2
f 123/1/2 124/1/2 125/1/2 126/1/2
f 127/1/2 128/1/2 129/1/2 130/1/2
f 131/1/2 132/1/2 133/1/2 134/1/2
f 135/1/2 136/1/2 137/1/2 138/1/2
f 17/1/2 139/1/2 140/1/2 16/1/2
f 141/1/2 142/1/2 24/1/2 143/1/2
f 144/1/2 145/1/2 146/1/2 147/1/2
f 148/3/2 149/3/2 150/3/2 151/3/2
f 152/1/2 153/1/2 154/1/2 155/1/2
f 34/1/2 156/1/2 157/1/2 158/1/2
f 159/1/2 160/1/2 161/1/2 37/1/2
f 157/1/2 162/1/2 163/1/2 153/1/2
f 164/1/2 39/1/2 165/1/2 160/1/2
f 166/1/2 167/1/2 168/1/2 169/1/2
f 170/1/2 171/1/2 172/1/2 173/1/2
f 14/1/3 157/1/3 153/1/3 11/1/3
f 25/1/3 164/1/3 160/1/3 19/1/3
f 174/1/3 175/1/3 47/1/3 129/1/3
f 128/1/3 140/1/3 21/1/3 174/1/3
f 176/1/3 177/1/3 51/1/3 133/1/3
f 132/1/3 24/1/3 23/1/3 176/1/3
f 140/1/3 48/1/3 178/1/3 22/1/3
f 139/1/3 36/1/3 35/1/3 140/1/3
f 142/1/3 40/1/3 39/1/3 24/1/3
f 162/1/3 178/1/3 175/1/3 163/1/3
f 39/1/3 52/1/3 177/1/3 165/1/3
f 57/1/3 60/1/3 59/1/3 54/1/3
f 124/1/3 56/1/3 55/1/3 125/1/3
f 96/1/3 69/1/3 179/1/3 99/1/3
f 106/1/3 115/1/3 118/1/3 96/1/3
f 102/1/3 119/1/3 122/1/3 95/1/3
f 69/2/3 78/2/3 88/2/3 179/2/3
f 72/1/3 89/1/3 78/1/3 69/1/3
f 76/1/3 86/1/3 79/1/3 73/1/3
f 104/1/3 180/1/3 181/1/3 105/1/3
f 116/1/3 182/1/3 183/1/3 117/1/3
f 120/1/3 75/1/3 74/1/3 121/1/3
f 182/2/3 71/2/3 70/2/3 183/2/3
f 184/2/3 91/2/3 90/2/3 181/2/3
f 180/1/3 93/1/3 91/1/3 184/1/3
f 97/1/4 107/1/4 114/1/4 94/1/4
f 110/1/4 61/1/4 64/1/4 107/1/4
f 107/3/4 185/3/4 138/3/4 1/3/4
f 4/1/4 186/1/4 187/1/4 188/1/4
f 188/2/4 189/2/4 190/2/4 111/2/4
f 126/1/4 5/1/4 8/1/4 123/1/4
f 185/1/4 26/1/4 191/1/4 135/1/4
f 189/1/4 187/1/4 80/1/4 192/1/4
f 192/2/4 193/2/4 194/2/4 190/2/4
f 147/1/4 30/1/4 33/1/4 144/1/4
f 29/1/4 42/1/4 45/1/4 191/1/4
f 151/3/4 64/3/4 173/3/4 148/3/4
f 193/1/4 65/1/4 68/1/4 194/1/4
f 169/1/4 58/1/4 61/1/4 166/1/4
f 64/1/4 77/1/4 186/1/4 170/1/4
f 100/1/4 109/1/4 108/1/4 98/1/4
f 103/1/4 113/1/4 112/1/4 101/1/4
f 2/3/4 137/3/4 136/3/4 3/3/4
f 6/1/4 146/1/4 145/1/4 7/1/4
f 27/1/4 150/1/4 149/1/4 28/1/4
f 31/1/4 168/1/4 167/1/4 32/1/4
f 43/3/4 172/3/4 171/3/4 44/3/4
f 62/1/4 81/1/4 84/1/4 63/1/4
f 66/1/4 85/1/4 87/1/4 67/1/4
f 130/1/4 46/1/4 195/1/4 196/1/4
f 196/1/4 9/1/4 16/1/4 127/1/4
f 134/1/4 17/1/4 143/1/4 131/1/4
f 12/1/4 197/1/4 198/1/4 13/1/4
f 16/1/4 34/1/4 37/1/4 17/1/4
f 20/1/4 199/1/4 53/1/4 143/1/4
f 143/1/4 38/1/4 41/1/4 141/1/4
f 155/1/4 195/1/4 197/1/4 152/1/4
f 158/1/4 198/1/4 49/1/4 34/1/4
f 37/1/4 50/1/4 199/1/4 159/1/4
f 10/1/4 154/1/4 153/1/4 11/1/4
f 14/1/4 157/1/4 156/1/4 15/1/4
f 18/1/4 161/1/4 160/1/4 19/1/4
f 9/1/5 155/1/5 154/1/5 10/1/5
f 11/1/5 153/1/5 163/1/5 21/1/5
f 13/1/5 158/1/5 157/1/5 14/1/5
f 127/1/5 16/1/5 140/1/5 128/1/5
f 34/1/5 49/1/5 48/1/5 35/1/5
f 17/1/5 37/1/5 161/1/5 18/1/5
f 19/1/5 160/1/5 165/1/5 23/1/5
f 131/1/5 143/1/5 24/1/5 132/1/5
f 38/1/5 53/1/5 52/1/5 39/1/5
f 26/1/5 151/1/5 150/1/5 27/1/5
f 1/3/5 138/3/5 137/3/5 2/3/5
f 42/3/5 173/3/5 172/3/5 43/3/5
f 94/1/5 114/1/5 113/1/5 103/1/5
f 95/1/5 122/1/5 121/1/5 104/1/5
f 65/1/5 80/1/5 85/1/5 66/1/5
f 73/1/5 79/1/5 93/1/5 74/1/5
f 101/1/5 112/1/5 119/1/5 102/1/5
f 111/2/5 194/2/5 200/2/5 112/2/5
f 112/2/5 201/2/5 202/2/5 203/2/5
f 203/1/5 204/1/5 86/1/5 119/1/5
f 119/1/5 76/1/5 75/1/5 120/1/5
f 201/1/5 87/1/5 204/1/5 202/1/5
f 194/1/5 68/1/5 67/1/5 200/1/5
f 129/1/6 47/1/6 46/1/6 130/1/6
f 11/1/6 153/1/6 152/1/6 12/1/6
f 22/1/6 162/1/6 157/1/6 14/1/6
f 15/1/6 156/1/6 34/1/6 16/1/6
f 133/1/6 139/1/6 17/1/6 134/1/6
f 36/1/6 51/1/6 50/1/6 37/1/6
f 19/1/6 160/1/6 159/1/6 20/1/6
f 24/1/6 39/1/6 164/1/6 25/1/6
f 125/1/6 205/1/6 5/1/6 126/1/6
f 141/1/6 206/1/6 207/1/6 6/1/6
f 205/1/6 55/1/6 54/1/6 142/1/6
f 146/1/6 31/1/6 30/1/6 147/1/6
f 40/1/6 59/1/6 206/1/6 41/1/6
f 168/1/6 207/1/6 58/1/6 169/1/6
f 99/1/6 208/1/6 209/1/6 100/1/6
f 109/1/6 209/1/6 123/1/6 110/1/6
f 208/1/6 179/1/6 210/1/6 124/1/6
f 7/1/6 145/1/6 144/1/6 8/1/6
f 32/1/6 167/1/6 166/1/6 33/1/6
f 56/1/6 82/1/6 211/1/6 57/1/6
f 60/1/6 211/1/6 81/1/6 62/1/6
f 179/2/6 88/2/6 82/2/6 210/2/6
f 98/1/6 108/1/6 107/1/6 97/1/6
f 117/1/6 183/1/6 212/1/6 118/1/6
f 183/2/6 70/2/6 69/2/6 212/2/6
f 63/1/6 84/1/6 77/1/6 64/1/6
f 105/1/6 116/1/6 115/1/6 106/1/6
f 28/1/6 149/1/6 148/1/6 29/1/6
f 71/2/6 90/2/6 89/2/6 72/2/6
f 3/1/6 136/1/6 135/1/6 4/1/6
f 44/1/6 171/1/6 170/1/6 45/1/6
