# generated by tools/rig_people.py — do not edit
mtllib people.mtl
o body
usemtl palette
v 1 19 -3.5
v 1 19 -2.5
v 1 20 -2.5
v 1 20 -3.5
v -1 14 -0.5
v -1 14 1.5
v -1 15 1.5
v -1 15 -0.5
v -2 20 -4.5
v -2 20 -3.5
v -2 21 -3.5
v -2 21 -4.5
v -2 23 -4.5
v -2 23 -3.5
v -2 24 -3.5
v -2 24 -4.5
v -2 25 1.5
v -2 25 2.5
v -2 26 2.5
v -2 26 1.5
v -2 24 2.5
v -2 24 3.5
v -2 25 3.5
v -2 19 3.5
v -2 19 4.5
v -2 21 4.5
v -2 21 3.5
v -2 23 3.5
v -2 23 4.5
v -2 24 4.5
v -3 21 -4.5
v -3 21 -3.5
v -3 23 -3.5
v -3 23 -4.5
v -3 19 -3.5
v -3 19 -2.5
v -3 21 -2.5
v -3 24 -3.5
v -3 24 -2.5
v -3 25 -2.5
v -3 25 -3.5
v -3 15 -2.5
v -3 15 2.5
v -3 16 2.5
v -3 16 -2.5
v -3 16 -1.5
v -3 17 -1.5
v -3 17 -2.5
v -3 20 -1.5
v -3 20 -2.5
v -3 25 1.5
v -3 26 1.5
v -3 26 -2.5
v -3 6 -1.5
v -3 6 2.5
v -3 13 2.5
v -3 13 -1.5
v -3 14 2.5
v -3 14 -1.5
v -3 16 -0.5
v -3 17 -0.5
v -3 16 0.5
v -3 17 2.5
v -3 17 0.5
v -3 24 1.5
v -3 24 2.5
v -3 25 2.5
v -3 17 3.5
v -3 18 3.5
v -3 18 2.5
v -3 23 2.5
v -3 23 3.5
v -3 24 3.5
v -3 21 3.5
v -3 21 4.5
v -3 23 4.5
v -4 21 -3.5
v -4 21 -2.5
v -4 24 -2.5
v -4 24 -3.5
v -4 20 -2.5
v -4 20 -1.5
v -4 21 -1.5
v -4 24 1.5
v -4 25 1.5
v -4 25 -2.5
v -4 17 -1.5
v -4 17 -0.5
v -4 20 -0.5
v -4 16 -0.5
v -4 16 0.5
v -4 18 0.5
v -4 18 -0.5
v -4 18 3.5
v -4 20 3.5
v -4 17 0.5
v -4 17 2.5
v -4 18 2.5
v -4 20 1.5
v -4 21 3.5
v -4 21 1.5
v -4 21 2.5
v -4 23 3.5
v -4 23 2.5
v -5 21 -2.5
v -5 21 2.5
v -5 24 2.5
v -5 24 -2.5
v -5 20 -1.5
v -5 20 1.5
v -5 21 1.5
v -5 21 -1.5
v 5 24 -2.5
v 5 24 2.5
v 5 21 2.5
v 5 21 -2.5
v 5 21 -1.5
v 5 20 2.5
v 5 20 -1.5
v 5 25 -1.5
v 5 25 1.5
v 5 24 1.5
v 5 24 -1.5
v 5 20 -0.5
v 5 19 2.5
v 5 19 -0.5
v 4 23 -3.5
v 4 23 -2.5
v 4 22 -2.5
v 4 22 -3.5
v 4 21 -2.5
v 4 21 -1.5
v 4 20 -1.5
v 4 20 -2.5
v 4 25 -2.5
v 4 25 -1.5
v 4 24 -1.5
v 4 24 -2.5
v 4 20 -0.5
v 4 17 -0.5
v 4 17 -1.5
v 4 26 -1.5
v 4 26 1.5
v 4 25 1.5
v 4 18 -0.5
v 4 18 0.5
v 4 16 0.5
v 4 16 -0.5
v 4 19 -0.5
v 4 19 3.5
v 4 18 3.5
v 4 18 2.5
v 4 17 2.5
v 4 17 0.5
v 4 25 2.5
v 4 24 2.5
v 4 24 1.5
v 4 23 2.5
v 4 23 3.5
v 4 19 2.5
v 3 22 -4.5
v 3 22 -2.5
v 3 21 -2.5
v 3 21 -4.5
v 3 23 -4.5
v 3 23 -3.5
v 3 22 -3.5
v 3 21 -3.5
v 3 19 -2.5
v 3 19 -3.5
v 3 24 -3.5
v 3 24 -2.5
v 3 23 -2.5
v 3 16 -2.5
v 3 16 2.5
v 3 15 2.5
v 3 15 -2.5
v 3 17 -2.5
v 3 17 -1.5
v 3 16 -1.5
v 3 20 -2.5
v 3 20 -1.5
v 3 26 -2.5
v 3 26 -1.5
v 3 25 -1.5
v 3 25 -2.5
v 3 13 -1.5
v 3 13 2.5
v 3 6 2.5
v 3 6 -1.5
v 3 14 -1.5
v 3 14 2.5
v 3 17 -0.5
v 3 16 -0.5
v 3 17 0.5
v 3 17 2.5
v 3 16 0.5
v 3 26 1.5
v 3 26 2.5
v 3 25 2.5
v 3 25 1.5
v 3 18 2.5
v 3 18 3.5
v 3 17 3.5
v 3 24 2.5
v 3 24 3.5
v 3 23 3.5
v 3 23 2.5
v 3 23 4.5
v 3 20 4.5
v 3 20 3.5
v 2 20 3.5
v 2 20 4.5
v 2 19 4.5
v 2 19 3.5
v 2 24 3.5
v 2 24 4.5
v 2 23 4.5
v 2 23 3.5
v 1 21 -4.5
v 1 21 -3.5
v 1 20 -4.5
v 1 24 -4.5
v 1 24 -3.5
v 1 23 -3.5
v 1 23 -4.5
v 1 25 -3.5
v 1 25 -2.5
v 1 24 -2.5
v 1 15 -0.5
v 1 15 1.5
v 1 14 1.5
v 1 14 -0.5
v 1 25 2.5
v 1 25 3.5
v 1 24 3.5
v 1 24 2.5
v -1 20 -3.5
v -1 20 -2.5
v -1 19 -2.5
v -1 19 -3.5
v 2 14 2.5
v 2 13 2.5
v 1 26 2.5
v -2 14 2.5
v -2 13 2.5
v -5 23 2.5
v -4 19 3.5
v 4 20 3.5
v -2 20 4.5
v -3 20 -3.5
v -4 23 -3.5
v 5 22 -2.5
v 2 16 -2.5
v 2 17 -2.5
v -3 18 -2.5
v 3 18 -2.5
v 2 18 -2.5
v 2 19 -2.5
v 1 26 -2.5
v 1 16 -2.5
v 1 17 -2.5
v 1 18 -2.5
v -1 16 -2.5
v -1 17 -2.5
v -1 18 -2.5
v -2 16 -2.5
v -2 17 -2.5
v -2 18 -2.5
v -2 19 -2.5
v 2 13 -1.5
v 2 14 -1.5
v 1 13 -1.5
v 1 14 -1.5
v -1 13 -1.5
v -1 14 -1.5
v -2 13 -1.5
v -2 14 -1.5
v 1 14 2.5
v -2 14 1.5
v -5 24 1.5
v -3 26 -1.5
v 3 15 -0.5
v -3 15 -0.5
v 1 15 2.5
v -3 15 1.5
vt 0.5253906 0.5
vt 0.9628906 0.5
vt 0.5527344 0.5
vt 0.5292969 0.5
vt 0.9707031 0.5
vn -1 0 0
vn 1 0 0
vn 0 0 1
vn 0 0 -1
vn 0 1 0
vn 0 -1 0
f 1/1/1 2/1/1 3/1/1 4/1/1
f 5/2/1 6/2/1 7/2/1 8/2/1
f 9/1/1 10/1/1 11/1/1 12/1/1
f 13/1/1 14/1/1 15/1/1 16/1/1
f 17/1/1 18/1/1 19/1/1 20/1/1
f 21/1/1 22/1/1 23/1/1 18/1/1
f 24/1/1 25/1/1 26/1/1 27/1/1
f 28/1/1 29/1/1 30/1/1 22/1/1
f 31/1/1 32/1/1 33/1/1 34/1/1
f 35/1/1 36/1/1 37/1/1 32/1/1
f 38/1/1 39/1/1 40/1/1 41/1/1
f 42/2/1 43/2/1 44/2/1 45/2/1
f 45/3/1 46/3/1 47/3/1 48/3/1
f 48/2/1 47/2/1 49/2/1 50/2/1
f 40/1/1 51/1/1 52/1/1 53/1/1
f 54/4/1 55/4/1 56/4/1 57/4/1
f 57/2/1 56/2/1 58/2/1 59/2/1
f 46/2/1 60/2/1 61/2/1 47/2/1
f 62/2/1 44/2/1 63/2/1 64/2/1
f 65/1/1 66/1/1 67/1/1 51/1/1
f 63/1/1 68/1/1 69/1/1 70/1/1
f 71/1/1 72/1/1 73/1/1 66/1/1
f 74/1/1 75/1/1 76/1/1 72/1/1
f 77/1/1 78/1/1 79/1/1 80/1/1
f 81/1/1 82/1/1 83/1/1 78/1/1
f 79/1/1 84/1/1 85/1/1 86/1/1
f 87/1/1 88/1/1 89/1/1 82/1/1
f 90/2/1 91/2/1 92/2/1 93/2/1
f 93/1/1 94/1/1 95/1/1 89/1/1
f 96/1/1 97/1/1 98/1/1 92/1/1
f 99/1/1 95/1/1 100/1/1 101/1/1
f 102/1/1 100/1/1 103/1/1 104/1/1
f 105/1/1 106/1/1 107/1/1 108/1/1
f 109/1/1 110/1/1 111/1/1 112/1/1
f 113/1/2 114/1/2 115/1/2 116/1/2
f 117/1/2 115/1/2 118/1/2 119/1/2
f 120/1/2 121/1/2 122/1/2 123/1/2
f 124/1/2 118/1/2 125/1/2 126/1/2
f 127/1/2 128/1/2 129/1/2 130/1/2
f 131/1/2 132/1/2 133/1/2 134/1/2
f 135/1/2 136/1/2 137/1/2 138/1/2
f 133/1/2 139/1/2 140/1/2 141/1/2
f 142/1/2 143/1/2 144/1/2 136/1/2
f 145/2/2 146/2/2 147/2/2 148/2/2
f 149/1/2 150/1/2 151/1/2 145/1/2
f 146/1/2 152/1/2 153/1/2 154/1/2
f 144/1/2 155/1/2 156/1/2 157/1/2
f 158/1/2 159/1/2 150/1/2 160/1/2
f 161/1/2 162/1/2 163/1/2 164/1/2
f 165/1/2 166/1/2 167/1/2 161/1/2
f 168/1/2 163/1/2 169/1/2 170/1/2
f 171/1/2 172/1/2 173/1/2 166/1/2
f 174/2/2 175/2/2 176/2/2 177/2/2
f 178/3/2 179/3/2 180/3/2 174/3/2
f 181/2/2 182/2/2 179/2/2 178/2/2
f 183/1/2 184/1/2 185/1/2 186/1/2
f 187/4/2 188/4/2 189/4/2 190/4/2
f 191/2/2 192/2/2 188/2/2 187/2/2
f 179/2/2 193/2/2 194/2/2 180/2/2
f 195/2/2 196/2/2 175/2/2 197/2/2
f 198/1/2 199/1/2 200/1/2 201/1/2
f 202/1/2 203/1/2 204/1/2 196/1/2
f 205/1/2 206/1/2 207/1/2 208/1/2
f 207/1/2 209/1/2 210/1/2 211/1/2
f 212/1/2 213/1/2 214/1/2 215/1/2
f 216/1/2 217/1/2 218/1/2 219/1/2
f 220/1/2 221/1/2 4/1/2 222/1/2
f 223/1/2 224/1/2 225/1/2 226/1/2
f 227/1/2 228/1/2 229/1/2 224/1/2
f 230/2/2 231/2/2 232/2/2 233/2/2
f 234/1/2 235/1/2 236/1/2 237/1/2
f 238/1/2 239/1/2 240/1/2 241/1/2
f 154/2/3 195/2/3 197/2/3 147/2/3
f 64/2/3 96/2/3 91/2/3 62/2/3
f 121/1/3 144/1/3 157/1/3 122/1/3
f 143/1/3 198/1/3 201/1/3 144/1/3
f 231/2/3 7/2/3 6/2/3 232/2/3
f 20/1/3 52/1/3 51/1/3 17/1/3
f 51/1/3 85/1/3 84/1/3 65/1/3
f 101/1/3 111/1/3 110/1/3 99/1/3
f 114/1/3 156/1/3 160/1/3 125/1/3
f 152/1/3 202/1/3 196/1/3 153/1/3
f 155/1/3 200/1/3 208/1/3 158/1/3
f 188/4/3 56/4/3 55/4/3 189/4/3
f 192/2/3 242/2/3 243/2/3 188/2/3
f 196/2/3 63/2/3 43/2/3 176/2/3
f 199/1/3 244/1/3 237/1/3 205/1/3
f 242/4/3 245/4/3 246/4/3 243/4/3
f 244/1/3 19/1/3 18/1/3 234/1/3
f 245/2/3 58/2/3 56/2/3 246/2/3
f 18/1/3 67/1/3 66/1/3 21/1/3
f 70/1/3 98/1/3 97/1/3 63/1/3
f 66/1/3 107/1/3 247/1/3 71/1/3
f 104/1/3 247/1/3 106/1/3 102/1/3
f 150/1/3 248/1/3 94/1/3 151/1/3
f 249/1/3 212/1/3 215/1/3 150/1/3
f 159/1/3 207/1/3 211/1/3 249/1/3
f 203/1/3 69/1/3 68/1/3 204/1/3
f 206/1/3 216/1/3 219/1/3 207/1/3
f 235/1/3 23/1/3 22/1/3 236/1/3
f 27/1/3 100/1/3 248/1/3 24/1/3
f 22/1/3 73/1/3 72/1/3 28/1/3
f 72/1/3 103/1/3 100/1/3 74/1/3
f 209/1/3 29/1/3 250/1/3 210/1/3
f 213/1/3 250/1/3 25/1/3 214/1/3
f 217/1/3 30/1/3 29/1/3 218/1/3
f 29/1/3 76/1/3 75/1/3 26/1/3
f 164/1/4 31/1/4 34/1/4 165/1/4
f 222/1/4 9/1/4 12/1/4 220/1/4
f 226/1/4 13/1/4 16/1/4 223/1/4
f 130/1/4 167/1/4 166/1/4 127/1/4
f 170/1/4 1/1/4 221/1/4 168/1/4
f 166/1/4 225/1/4 224/1/4 171/1/4
f 224/1/4 38/1/4 41/1/4 227/1/4
f 241/1/4 35/1/4 251/1/4 238/1/4
f 10/1/4 251/1/4 32/1/4 11/1/4
f 14/1/4 252/1/4 80/1/4 15/1/4
f 32/1/4 77/1/4 252/1/4 33/1/4
f 116/1/4 163/1/4 162/1/4 253/1/4
f 253/1/4 129/1/4 138/1/4 113/1/4
f 134/1/4 181/1/4 163/1/4 131/1/4
f 128/1/4 173/1/4 186/1/4 135/1/4
f 177/2/4 42/2/4 45/2/4 174/2/4
f 174/3/4 254/3/4 255/3/4 178/3/4
f 178/2/4 48/2/4 256/2/4 257/2/4
f 257/2/4 258/2/4 259/2/4 169/2/4
f 172/1/4 229/1/4 260/1/4 183/1/4
f 254/2/4 261/2/4 262/2/4 255/2/4
f 258/4/4 263/4/4 2/4/4 259/4/4
f 261/5/4 264/5/4 265/5/4 262/5/4
f 263/2/4 266/2/4 239/2/4 3/2/4
f 228/1/4 40/1/4 53/1/4 260/1/4
f 264/2/4 267/2/4 268/2/4 265/2/4
f 266/4/4 269/4/4 270/4/4 240/4/4
f 267/3/4 45/3/4 48/3/4 268/3/4
f 269/2/4 256/2/4 36/2/4 270/2/4
f 50/1/4 81/1/4 78/1/4 37/1/4
f 39/1/4 79/1/4 86/1/4 40/1/4
f 78/1/4 105/1/4 108/1/4 79/1/4
f 119/1/4 133/1/4 132/1/4 117/1/4
f 123/1/4 137/1/4 136/1/4 120/1/4
f 141/1/4 179/1/4 182/1/4 133/1/4
f 136/1/4 185/1/4 184/1/4 142/1/4
f 190/4/4 54/4/4 57/4/4 187/4/4
f 187/2/4 271/2/4 272/2/4 191/2/4
f 271/4/4 273/4/4 274/4/4 272/4/4
f 273/2/4 275/2/4 276/2/4 274/2/4
f 275/4/4 277/4/4 278/4/4 276/4/4
f 277/2/4 57/2/4 59/2/4 278/2/4
f 47/1/4 87/1/4 82/1/4 49/1/4
f 82/1/4 109/1/4 112/1/4 83/1/4
f 126/1/4 149/1/4 139/1/4 124/1/4
f 148/2/4 194/2/4 193/2/4 140/2/4
f 233/2/4 5/2/4 8/2/4 230/2/4
f 60/2/4 90/2/4 88/2/4 61/2/4
f 191/2/5 272/2/5 242/2/5 192/2/5
f 272/4/5 274/4/5 279/4/5 242/4/5
f 274/2/5 276/2/5 5/2/5 233/2/5
f 232/4/5 280/4/5 245/4/5 279/4/5
f 276/4/5 278/4/5 280/4/5 6/4/5
f 278/2/5 59/2/5 58/2/5 245/2/5
f 127/1/5 166/1/5 173/1/5 128/1/5
f 158/1/5 208/1/5 207/1/5 159/1/5
f 165/1/5 226/1/5 225/1/5 166/1/5
f 207/1/5 219/1/5 218/1/5 209/1/5
f 13/1/5 34/1/5 33/1/5 14/1/5
f 28/1/5 72/1/5 76/1/5 29/1/5
f 71/1/5 104/1/5 103/1/5 72/1/5
f 113/1/5 138/1/5 137/1/5 123/1/5
f 122/1/5 157/1/5 156/1/5 114/1/5
f 171/1/5 224/1/5 229/1/5 172/1/5
f 205/1/5 237/1/5 236/1/5 206/1/5
f 216/1/5 22/1/5 30/1/5 217/1/5
f 223/1/5 16/1/5 15/1/5 224/1/5
f 21/1/5 66/1/5 73/1/5 22/1/5
f 38/1/5 80/1/5 79/1/5 39/1/5
f 65/1/5 281/1/5 107/1/5 66/1/5
f 79/1/5 108/1/5 281/1/5 84/1/5
f 120/1/5 136/1/5 144/1/5 121/1/5
f 135/1/5 186/1/5 185/1/5 136/1/5
f 144/1/5 201/1/5 200/1/5 155/1/5
f 227/1/5 41/1/5 40/1/5 228/1/5
f 234/1/5 18/1/5 23/1/5 235/1/5
f 17/1/5 51/1/5 67/1/5 18/1/5
f 40/1/5 86/1/5 85/1/5 51/1/5
f 142/1/5 282/1/5 52/1/5 143/1/5
f 183/1/5 53/1/5 282/1/5 184/1/5
f 198/1/5 20/1/5 19/1/5 199/1/5
f 189/4/6 55/4/6 54/4/6 190/4/6
f 283/2/6 284/2/6 42/2/6 177/2/6
f 176/2/6 285/2/6 230/2/6 283/2/6
f 285/2/6 43/2/6 286/2/6 231/2/6
f 7/2/6 286/2/6 284/2/6 8/2/6
f 147/2/6 197/2/6 194/2/6 148/2/6
f 62/2/6 91/2/6 90/2/6 60/2/6
f 140/1/6 193/1/6 179/1/6 141/1/6
f 153/1/6 196/1/6 195/1/6 154/1/6
f 204/1/6 68/1/6 63/1/6 196/1/6
f 61/1/6 88/1/6 87/1/6 47/1/6
f 63/1/6 97/1/6 96/1/6 64/1/6
f 151/1/6 203/1/6 202/1/6 152/1/6
f 69/1/6 94/1/6 98/1/6 70/1/6
f 125/1/6 160/1/6 149/1/6 126/1/6
f 169/1/6 2/1/6 1/1/6 170/1/6
f 214/1/6 25/1/6 24/1/6 215/1/6
f 240/1/6 36/1/6 35/1/6 241/1/6
f 124/1/6 139/1/6 133/1/6 119/1/6
f 133/1/6 182/1/6 181/1/6 134/1/6
f 210/1/6 213/1/6 212/1/6 211/1/6
f 4/1/6 10/1/6 9/1/6 222/1/6
f 3/1/6 239/1/6 238/1/6 4/1/6
f 49/1/6 82/1/6 81/1/6 50/1/6
f 99/1/6 110/1/6 109/1/6 82/1/6
f 117/1/6 132/1/6 131/1/6 116/1/6
f 168/1/6 221/1/6 220/1/6 164/1/6
f 11/1/6 32/1/6 31/1/6 12/1/6
f 26/1/6 75/1/6 74/1/6 27/1/6
f 37/1/6 78/1/6 77/1/6 32/1/6
f 83/1/6 112/1/6 105/1/6 78/1/6
f 102/1/6 106/1/6 111/1/6 101/1/6
f 129/1/6 162/1/6 167/1/6 130/1/6
