# generated by tools/rig_people.py — do not edit
mtllib people.mtl
o body
usemtl palette
v 1 22 -4.5
v 1 22 -3.5
v 1 23 -3.5
v 1 23 -4.5
v 1 29 -1.5
v 1 29 0.5
v 1 30 0.5
v 1 30 -1.5
v -0 25 -1.5
v -0 25 -0.5
v -0 28 -0.5
v -0 28 -1.5
v -0 29 -0.5
v -0 29 -1.5
v -1 18 -4.5
v -1 18 -3.5
v -1 19 -3.5
v -1 19 -4.5
v -1 14 -0.5
v -1 14 1.5
v -1 15 1.5
v -1 15 -0.5
v -2 25 -0.5
v -2 25 1.5
v -2 27 1.5
v -2 27 -0.5
v -3 15 -3.5
v -3 15 3.5
v -3 16 3.5
v -3 16 -3.5
v -3 7 -1.5
v -3 7 2.5
v -3 14 2.5
v -3 14 -1.5
v -4 16 -3.5
v -4 16 4.5
v -4 17 4.5
v -4 17 -3.5
v -4 17 2.5
v -4 18 2.5
v -4 18 -3.5
v -4 18 0.5
v -4 19 0.5
v -4 19 -3.5
v -4 23 -3.5
v -4 23 4.5
v -4 25 4.5
v -4 25 -3.5
v -4 19 -0.5
v -4 19 4.5
v -4 20 4.5
v -4 20 -0.5
v -4 20 0.5
v -4 23 0.5
v -4 23 -0.5
v -4 27 -0.5
v -4 27 1.5
v -4 29 1.5
v -4 29 -0.5
v -4 19 2.5
v -4 22 4.5
v -4 22 0.5
v -5 19 -4.5
v -5 19 -0.5
v -5 22 -0.5
v -5 22 -4.5
v -5 23 -0.5
v -5 23 -4.5
v -5 29 -0.5
v -5 29 1.5
v -5 32 1.5
v -5 32 -0.5
v 5 22 -4.5
v 5 22 -0.5
v 5 19 -0.5
v 5 19 -4.5
v 5 23 -4.5
v 5 23 -0.5
v 5 30 -1.5
v 5 30 0.5
v 5 28 0.5
v 5 28 -1.5
v 4 17 -3.5
v 4 17 4.5
v 4 16 4.5
v 4 16 -3.5
v 4 18 -3.5
v 4 18 2.5
v 4 17 2.5
v 4 19 -3.5
v 4 19 0.5
v 4 18 0.5
v 4 25 -3.5
v 4 25 4.5
v 4 23 4.5
v 4 23 -3.5
v 4 20 -0.5
v 4 20 4.5
v 4 19 4.5
v 4 19 -0.5
v 4 23 -0.5
v 4 23 0.5
v 4 20 0.5
v 4 19 2.5
v 4 22 0.5
v 4 22 4.5
v 3 16 -3.5
v 3 16 3.5
v 3 15 3.5
v 3 15 -3.5
v 3 14 -1.5
v 3 14 2.5
v 3 7 2.5
v 3 7 -1.5
v 2 26 -1.5
v 2 26 0.5
v 2 25 0.5
v 2 25 -1.5
v 2 27 -1.5
v 2 27 -0.5
v 2 26 -0.5
v 2 28 -1.5
v 2 28 0.5
v 2 27 0.5
v 1 19 -4.5
v 1 19 -3.5
v 1 18 -3.5
v 1 18 -4.5
v 1 15 -0.5
v 1 15 1.5
v 1 14 1.5
v 1 14 -0.5
v -0 30 -0.5
v -0 30 1.5
v -0 29 1.5
v -0 29 0.5
v -0 25 1.5
v -0 25 0.5
v -1 23 -4.5
v -1 23 -3.5
v -1 22 -3.5
v -1 22 -4.5
v -1 32 -0.5
v -1 32 1.5
v -1 30 1.5
v -1 30 -0.5
v 4 22 -0.5
v -4 22 -0.5
v 5 29 0.5
v -0 28 0.5
v -0 26 0.5
v -1 25 1.5
v -1 27 1.5
v -4 32 1.5
v 1 20 -4.5
v 5 20 -4.5
v 4 20 -4.5
v 4 22 -4.5
v 2 20 -4.5
v 2 22 -4.5
v -5 20 -4.5
v -1 20 -4.5
v -2 20 -4.5
v -2 22 -4.5
v -4 20 -4.5
v -4 22 -4.5
v 1 16 -3.5
v 1 15 -3.5
v -1 15 -3.5
v -1 16 -3.5
v -1 17 -3.5
v 1 17 -3.5
v -3 17 -3.5
v 5 29 -1.5
v -3 11 -1.5
v 3 11 -1.5
v 1 11 -1.5
v 1 12 -1.5
v 3 12 -1.5
v 2 12 -1.5
v 2 14 -1.5
v -2 12 -1.5
v -2 13 -1.5
v 2 13 -1.5
v 1 13 -1.5
v 1 14 -1.5
v -0 26 -1.5
v 1 26 -1.5
v 1 27 -1.5
v 1 28 -1.5
v -1 11 -1.5
v -1 12 -1.5
v -1 13 -1.5
v -1 14 -1.5
v -3 12 -1.5
v -2 14 -1.5
v -2 28 -0.5
v -1 28 -0.5
v -2 30 -0.5
v -3 30 -0.5
v -3 32 -0.5
v -2 29 -0.5
v -4 30 -0.5
v -4 31 -0.5
v -3 31 -0.5
v -5 31 -0.5
v 2 14 2.5
v 2 14 -0.5
v 1 14 2.5
v -3 14 1.5
v -2 14 -0.5
v -3 14 -0.5
v 5 23 -3.5
v -5 23 -3.5
v -4 25 -1.5
v 4 25 -1.5
v 2 25 4.5
v -0 25 4.5
v -4 25 -0.5
v -4 25 1.5
v 1 15 3.5
v 1 15 -2.5
v -1 15 -2.5
v -3 15 -0.5
v -3 15 -2.5
v -3 15 1.5
v 3 16 4.5
v -4 16 3.5
v 5 19 -3.5
v -5 19 -3.5
vt 0.5292969 0.5
vt 0.3222656 0.5
vt 0.3300781 0.5
vt 0.6191406 0.5
vt 0.4160156 0.5
vt 0.3261719 0.5
vt 0.4238281 0.5
vt 0.8144531 0.5
vt 0.9746094 0.5
vt 0.4785156 0.5
vt 0.9785156 0.5
vn -1 0 0
vn 1 0 0
vn 0 0 1
vn 0 0 -1
vn 0 1 0
vn 0 -1 0
f 1/1/1 2/1/1 3/1/1 4/1/1
f 5/2/1 6/2/1 7/2/1 8/2/1
f 9/3/1 10/3/1 11/3/1 12/3/1
f 12/2/1 11/2/1 13/2/1 14/2/1
f 15/4/1 16/4/1 17/4/1 18/4/1
f 19/5/1 20/5/1 21/5/1 22/5/1
f 23/6/1 24/6/1 25/6/1 26/6/1
f 27/5/1 28/5/1 29/5/1 30/5/1
f 31/1/1 32/1/1 33/1/1 34/1/1
f 35/5/1 36/5/1 37/5/1 38/5/1
f 38/5/1 39/5/1 40/5/1 41/5/1
f 41/7/1 42/7/1 43/7/1 44/7/1
f 45/5/1 46/5/1 47/5/1 48/5/1
f 49/5/1 50/5/1 51/5/1 52/5/1
f 52/5/1 53/5/1 54/5/1 55/5/1
f 56/8/1 57/8/1 58/8/1 59/8/1
f 42/5/1 40/5/1 60/5/1 43/5/1
f 53/7/1 51/7/1 61/7/1 62/7/1
f 62/5/1 61/5/1 46/5/1 54/5/1
f 39/7/1 37/7/1 50/7/1 60/7/1
f 63/9/1 64/9/1 65/9/1 66/9/1
f 66/1/1 65/1/1 67/1/1 68/1/1
f 69/8/1 70/8/1 71/8/1 72/8/1
f 73/9/2 74/9/2 75/9/2 76/9/2
f 77/1/2 78/1/2 74/1/2 73/1/2
f 79/2/2 80/2/2 81/2/2 82/2/2
f 83/5/2 84/5/2 85/5/2 86/5/2
f 87/5/2 88/5/2 89/5/2 83/5/2
f 90/7/2 91/7/2 92/7/2 87/7/2
f 93/5/2 94/5/2 95/5/2 96/5/2
f 97/5/2 98/5/2 99/5/2 100/5/2
f 101/5/2 102/5/2 103/5/2 97/5/2
f 91/5/2 104/5/2 88/5/2 92/5/2
f 105/7/2 106/7/2 98/7/2 103/7/2
f 102/5/2 95/5/2 106/5/2 105/5/2
f 104/7/2 99/7/2 84/7/2 89/7/2
f 107/5/2 108/5/2 109/5/2 110/5/2
f 111/1/2 112/1/2 113/1/2 114/1/2
f 115/3/2 116/3/2 117/3/2 118/3/2
f 119/6/2 120/6/2 121/6/2 115/6/2
f 122/2/2 123/2/2 124/2/2 119/2/2
f 120/2/2 124/2/2 116/2/2 121/2/2
f 125/4/2 126/4/2 127/4/2 128/4/2
f 129/5/2 130/5/2 131/5/2 132/5/2
f 133/8/2 134/8/2 135/8/2 13/8/2
f 136/8/2 135/8/2 137/8/2 138/8/2
f 139/1/2 140/1/2 141/1/2 142/1/2
f 143/8/2 144/8/2 145/8/2 146/8/2
f 74/9/3 147/9/3 100/9/3 75/9/3
f 78/1/3 101/1/3 147/1/3 74/1/3
f 148/9/3 65/9/3 64/9/3 49/9/3
f 55/1/3 67/1/3 65/1/3 148/1/3
f 149/2/3 136/2/3 150/2/3 81/2/3
f 80/2/3 7/2/3 6/2/3 149/2/3
f 116/3/3 151/3/3 138/3/3 117/3/3
f 123/2/3 150/2/3 151/2/3 116/2/3
f 130/5/3 21/5/3 20/5/3 131/5/3
f 134/8/3 145/8/3 152/8/3 137/8/3
f 153/6/3 25/6/3 24/6/3 152/6/3
f 144/8/3 154/8/3 57/8/3 153/8/3
f 154/8/3 71/8/3 70/8/3 58/8/3
f 112/1/3 33/1/3 32/1/3 113/1/3
f 108/5/3 29/5/3 28/5/3 109/5/3
f 84/5/3 37/5/3 36/5/3 85/5/3
f 99/7/3 50/7/3 37/7/3 84/7/3
f 98/5/3 51/5/3 50/5/3 99/5/3
f 106/7/3 61/7/3 51/7/3 98/7/3
f 94/5/3 47/5/3 61/5/3 106/5/3
f 76/9/4 125/9/4 155/9/4 156/9/4
f 156/9/4 157/9/4 158/9/4 73/9/4
f 73/1/4 1/1/4 4/1/4 77/1/4
f 157/1/4 159/1/4 160/1/4 158/1/4
f 159/9/4 155/9/4 1/9/4 160/9/4
f 128/4/4 15/4/4 142/4/4 1/4/4
f 18/9/4 63/9/4 161/9/4 162/9/4
f 162/9/4 163/9/4 164/9/4 142/9/4
f 142/1/4 66/1/4 68/1/4 139/1/4
f 163/1/4 165/1/4 166/1/4 164/1/4
f 165/9/4 161/9/4 66/9/4 166/9/4
f 86/5/4 167/5/4 127/5/4 87/5/4
f 87/7/4 127/7/4 126/7/4 90/7/4
f 96/5/4 45/5/4 48/5/4 93/5/4
f 110/5/4 168/5/4 167/5/4 107/5/4
f 168/10/4 169/10/4 170/10/4 167/10/4
f 167/9/4 170/9/4 171/9/4 172/9/4
f 172/5/4 38/5/4 41/5/4 127/5/4
f 2/5/4 141/5/4 140/5/4 3/5/4
f 169/5/4 27/5/4 173/5/4 171/5/4
f 16/7/4 41/7/4 44/7/4 17/7/4
f 30/5/4 35/5/4 38/5/4 173/5/4
f 82/2/4 12/2/4 14/2/4 174/2/4
f 174/2/4 5/2/4 8/2/4 79/2/4
f 114/1/4 31/1/4 175/1/4 176/1/4
f 176/1/4 177/1/4 178/1/4 179/1/4
f 179/1/4 180/1/4 181/1/4 111/1/4
f 180/11/4 182/11/4 183/11/4 184/11/4
f 184/11/4 185/11/4 186/11/4 181/11/4
f 118/3/4 9/3/4 187/3/4 115/3/4
f 115/6/4 188/6/4 189/6/4 119/6/4
f 119/2/4 189/2/4 190/2/4 122/2/4
f 177/11/4 191/11/4 192/11/4 178/11/4
f 185/1/4 193/1/4 194/1/4 186/1/4
f 188/3/4 187/3/4 12/3/4 190/3/4
f 191/1/4 175/1/4 195/1/4 192/1/4
f 193/11/4 183/11/4 196/11/4 194/11/4
f 182/1/4 195/1/4 34/1/4 196/1/4
f 132/5/4 19/5/4 22/5/4 129/5/4
f 10/6/4 23/6/4 197/6/4 11/6/4
f 11/8/4 198/8/4 146/8/4 133/8/4
f 198/6/4 197/6/4 199/6/4 146/6/4
f 146/8/4 200/8/4 201/8/4 143/8/4
f 26/8/4 56/8/4 59/8/4 202/8/4
f 202/6/4 59/6/4 203/6/4 199/6/4
f 200/6/4 203/6/4 204/6/4 205/6/4
f 205/8/4 206/8/4 72/8/4 201/8/4
f 59/8/4 69/8/4 206/8/4 204/8/4
f 111/1/5 181/1/5 207/1/5 112/1/5
f 181/11/5 186/11/5 132/11/5 208/11/5
f 208/1/5 132/1/5 209/1/5 207/1/5
f 186/1/5 194/1/5 19/1/5 132/1/5
f 131/1/5 210/1/5 33/1/5 209/1/5
f 194/11/5 196/11/5 211/11/5 19/11/5
f 19/1/5 212/1/5 210/1/5 20/1/5
f 196/1/5 34/1/5 212/1/5 211/1/5
f 1/4/5 142/4/5 141/4/5 2/4/5
f 77/1/5 4/1/5 3/1/5 213/1/5
f 213/1/5 96/1/5 101/1/5 78/1/5
f 139/1/5 68/1/5 214/1/5 140/1/5
f 45/1/5 214/1/5 67/1/5 55/1/5
f 93/5/5 48/5/5 215/5/5 216/5/5
f 216/5/5 118/5/5 217/5/5 94/5/5
f 117/5/5 138/5/5 218/5/5 217/5/5
f 9/5/5 215/5/5 219/5/5 10/5/5
f 137/5/5 220/5/5 47/5/5 218/5/5
f 23/5/5 219/5/5 220/5/5 24/5/5
f 5/2/5 14/2/5 136/2/5 6/2/5
f 79/2/5 8/2/5 7/2/5 80/2/5
f 133/8/5 146/8/5 145/8/5 134/8/5
f 143/8/5 72/8/5 71/8/5 144/8/5
f 113/1/6 32/1/6 31/1/6 114/1/6
f 109/5/6 221/5/6 168/5/6 110/5/6
f 222/10/6 223/10/6 169/10/6 168/10/6
f 129/5/6 224/5/6 225/5/6 222/5/6
f 221/5/6 28/5/6 226/5/6 130/5/6
f 223/5/6 225/5/6 27/5/6 169/5/6
f 21/5/6 226/5/6 224/5/6 22/5/6
f 85/5/6 227/5/6 107/5/6 86/5/6
f 227/5/6 36/5/6 228/5/6 108/5/6
f 29/5/6 228/5/6 35/5/6 30/5/6
f 127/4/6 16/4/6 15/4/6 128/4/6
f 229/9/6 126/9/6 125/9/6 76/9/6
f 75/9/6 100/9/6 90/9/6 229/9/6
f 17/9/6 230/9/6 63/9/6 18/9/6
f 49/9/6 64/9/6 230/9/6 44/9/6
f 25/8/6 57/8/6 56/8/6 26/8/6
f 81/2/6 123/2/6 122/2/6 82/2/6
f 58/8/6 70/8/6 69/8/6 59/8/6
