# generated by tools/rig_people.py — do not edit
mtllib people.mtl
o body
usemtl palette
v 7 20 -1.5
v 7 20 -0.5
v 7 21 -0.5
v 7 21 -1.5
v 6 21 -1.5
v 6 21 -0.5
v 6 22 -0.5
v 6 22 -1.5
v 6 21 0.5
v 6 22 0.5
v 3 24 -1.5
v 3 24 1.5
v 3 25 1.5
v 3 25 -1.5
v 3 14 0.5
v 3 14 2.5
v 3 15 2.5
v 3 15 0.5
v 1 20 -3.5
v 1 20 -2.5
v 1 21 -2.5
v 1 21 -3.5
v -1 14 -0.5
v -1 14 1.5
v -1 15 1.5
v -1 15 -0.5
v -3 17 -3.5
v -3 17 -2.5
v -3 20 -2.5
v -3 20 -3.5
v -3 23 -3.5
v -3 23 -2.5
v -3 24 -2.5
v -3 24 -3.5
v -3 15 -2.5
v -3 15 0.5
v -3 16 0.5
v -3 16 -2.5
v -3 16 -1.5
v -3 18 -1.5
v -3 18 -2.5
v -3 19 -1.5
v -3 19 -2.5
v -3 4 -1.5
v -3 4 2.5
v -3 8 2.5
v -3 8 -1.5
v -3 9 2.5
v -3 9 -1.5
v -3 13 2.5
v -3 13 -1.5
v -3 14 2.5
v -3 14 -1.5
v -3 23 2.5
v -3 23 3.5
v -3 24 3.5
v -3 24 2.5
v -4 20 -3.5
v -4 20 -1.5
v -4 21 -1.5
v -4 21 -3.5
v -4 22 -1.5
v -4 22 -3.5
v -4 22 -2.5
v -4 23 -2.5
v -4 23 -3.5
v -4 19 -2.5
v -4 19 3.5
v -4 20 3.5
v -4 20 -2.5
v -4 24 -1.5
v -4 24 -2.5
v -4 16 -1.5
v -4 16 -0.5
v -4 19 -0.5
v -4 19 -1.5
v -4 20 -0.5
v -4 21 -0.5
v -4 16 0.5
v -4 19 0.5
v -4 20 2.5
v -4 21 2.5
v -4 14 0.5
v -4 14 3.5
v -4 21 1.5
v -4 21 3.5
v -4 23 3.5
v -4 23 1.5
v -4 23 2.5
v -4 24 2.5
v -4 24 1.5
v -5 21 -1.5
v -5 21 1.5
v -5 22 1.5
v -5 22 -1.5
v -7 24 -1.5
v -7 24 1.5
v -7 25 1.5
v -7 25 -1.5
v -7 22 0.5
v -7 22 1.5
v -7 23 1.5
v -7 23 0.5
v -7 24 0.5
v -8 20 -1.5
v -8 20 -0.5
v -8 22 -0.5
v -8 22 -1.5
v -8 22 0.5
v -8 23 0.5
v -8 23 -1.5
v -8 23 -0.5
v -8 24 -0.5
v -8 24 -1.5
v -8 21 -0.5
v -8 21 0.5
v -8 24 0.5
v 8 22 -1.5
v 8 22 -0.5
v 8 20 -0.5
v 8 20 -1.5
v 8 23 -1.5
v 8 23 0.5
v 8 22 0.5
v 8 24 -1.5
v 8 24 -0.5
v 8 23 -0.5
v 8 21 0.5
v 8 21 -0.5
v 8 24 0.5
v 7 25 -1.5
v 7 25 1.5
v 7 24 1.5
v 7 24 -1.5
v 7 23 0.5
v 7 23 1.5
v 7 22 1.5
v 7 22 0.5
v 7 24 0.5
v 5 22 -1.5
v 5 22 1.5
v 5 21 1.5
v 5 21 -1.5
v 4 20 -1.5
v 4 20 -0.5
v 4 16 -0.5
v 4 16 -1.5
v 4 21 -1.5
v 4 21 -0.5
v 4 19 -0.5
v 4 19 0.5
v 4 16 0.5
v 4 20 3.5
v 4 19 3.5
v 4 21 2.5
v 4 20 2.5
v 4 14 3.5
v 4 14 0.5
v 4 23 1.5
v 4 23 3.5
v 4 21 3.5
v 4 21 1.5
v 4 24 1.5
v 4 24 2.5
v 4 23 2.5
v 3 21 -3.5
v 3 21 -2.5
v 3 20 -2.5
v 3 20 -3.5
v 3 23 -3.5
v 3 23 -1.5
v 3 22 -1.5
v 3 22 -3.5
v 3 16 -2.5
v 3 16 0.5
v 3 15 -2.5
v 3 17 -2.5
v 3 17 -1.5
v 3 16 -1.5
v 3 22 -2.5
v 3 24 -2.5
v 3 23 -2.5
v 3 8 -1.5
v 3 8 2.5
v 3 4 2.5
v 3 4 -1.5
v 3 9 -1.5
v 3 9 2.5
v 3 13 -1.5
v 3 13 2.5
v 3 14 -1.5
v 3 24 2.5
v 3 24 3.5
v 3 23 3.5
v 3 23 2.5
v 2 24 -3.5
v 2 24 -2.5
v 2 23 -2.5
v 2 23 -3.5
v 1 22 -3.5
v 1 22 -2.5
v 1 15 -0.5
v 1 15 1.5
v 1 14 1.5
v 1 14 -0.5
v -0 21 -3.5
v -0 21 -2.5
v -0 20 -2.5
v -0 20 -3.5
v -1 20 -3.5
v -1 20 -2.5
v -1 19 -2.5
v -1 19 -3.5
v -2 19 -3.5
v -2 19 -2.5
v -2 17 -2.5
v -2 17 -3.5
v -3 25 -1.5
v -3 25 1.5
v -3 24 1.5
v -3 24 -1.5
v -3 15 2.5
v -3 14 0.5
v -6 22 -1.5
v -6 22 -0.5
v -6 21 -0.5
v -6 21 -1.5
v -6 22 0.5
v -6 21 0.5
v -7 21 -1.5
v -7 21 -0.5
v -7 20 -0.5
v -7 20 -1.5
v 7 21 0.5
v -7 21 0.5
v 4 22 1.5
v 4 25 1.5
v -5 23 1.5
v 3 20 3.5
v 3 21 3.5
v 2 21 3.5
v 2 20 3.5
v -0 24 3.5
v -0 21 3.5
v -1 21 3.5
v -1 20 3.5
v -0 22 3.5
v -1 22 3.5
v -0 23 3.5
v -4 22 3.5
v -3 21 3.5
v -3 20 3.5
v 1 23 -3.5
v -0 22 -3.5
v -0 23 -3.5
v -3 21 -3.5
v -3 22 -3.5
v -3 19 -3.5
v 2 16 -2.5
v 2 17 -2.5
v -2 18 -2.5
v 3 18 -2.5
v 2 18 -2.5
v 2 20 -2.5
v 1 16 -2.5
v 1 17 -2.5
v 1 18 -2.5
v 1 19 -2.5
v 2 19 -2.5
v -1 16 -2.5
v -1 17 -2.5
v -1 18 -2.5
v -2 16 -2.5
v 7 22 -1.5
v 7 23 -1.5
v 6 23 -1.5
v 5 23 -1.5
v 3 21 -1.5
v 3 20 -1.5
v -5 24 -1.5
v -7 22 -1.5
v -7 23 -1.5
v -5 23 -1.5
v -8 21 -1.5
v -3 14 -0.5
v 3 14 -0.5
v 1 14 2.5
v -3 14 1.5
v 7 24 -0.5
v -7 24 -0.5
v 3 14 3.5
v -4 14 2.5
v 3 15 -0.5
v -3 15 -0.5
v 1 15 2.5
v -3 15 1.5
v 3 16 -0.5
v -3 16 -0.5
v 5 22 0.5
v 5 22 -0.5
v -5 22 -0.5
v -5 22 0.5
vt 0.5253906 0.5
vt 0.5214844 0.5
vt 0.9628906 0.5
vt 0.9667969 0.5
vt 0.5292969 0.5
vt 0.8730469 0.5
vt 0.0527344 0.5
vt 0.4785156 0.5
vn -1 0 0
vn 1 0 0
vn 0 0 1
vn 0 0 -1
vn 0 1 0
vn 0 -1 0
f 1/1/1 2/1/1 3/1/1 4/1/1
f 5/1/1 6/1/1 7/1/1 8/1/1
f 6/2/1 9/2/1 10/2/1 7/2/1
f 11/2/1 12/2/1 13/2/1 14/2/1
f 15/1/1 16/1/1 17/1/1 18/1/1
f 19/1/1 20/1/1 21/1/1 22/1/1
f 23/3/1 24/3/1 25/3/1 26/3/1
f 27/1/1 28/1/1 29/1/1 30/1/1
f 31/2/1 32/2/1 33/2/1 34/2/1
f 35/3/1 36/3/1 37/3/1 38/3/1
f 38/4/1 39/4/1 40/4/1 41/4/1
f 41/3/1 40/3/1 42/3/1 43/3/1
f 44/1/1 45/1/1 46/1/1 47/1/1
f 47/5/1 46/5/1 48/5/1 49/5/1
f 49/6/1 48/6/1 50/6/1 51/6/1
f 51/3/1 50/3/1 52/3/1 53/3/1
f 54/2/1 55/2/1 56/2/1 57/2/1
f 58/1/1 59/1/1 60/1/1 61/1/1
f 61/2/1 60/2/1 62/2/1 63/2/1
f 63/1/1 64/1/1 65/1/1 66/1/1
f 67/1/1 68/1/1 69/1/1 70/1/1
f 64/2/1 62/2/1 71/2/1 72/2/1
f 73/1/1 74/1/1 75/1/1 76/1/1
f 59/2/1 77/2/1 78/2/1 60/2/1
f 74/7/1 79/7/1 80/7/1 75/7/1
f 77/1/1 81/1/1 82/1/1 78/1/1
f 83/1/1 84/1/1 68/1/1 80/1/1
f 85/2/1 86/2/1 87/2/1 88/2/1
f 88/2/1 89/2/1 90/2/1 91/2/1
f 81/2/1 69/2/1 86/2/1 82/2/1
f 92/1/1 93/1/1 94/1/1 95/1/1
f 96/2/1 97/2/1 98/2/1 99/2/1
f 100/1/1 101/1/1 102/1/1 103/1/1
f 103/2/1 102/2/1 97/2/1 104/2/1
f 105/1/1 106/1/1 107/1/1 108/1/1
f 108/2/1 109/2/1 110/2/1 111/2/1
f 111/1/1 112/1/1 113/1/1 114/1/1
f 115/1/1 116/1/1 109/1/1 107/1/1
f 112/2/1 110/2/1 117/2/1 113/2/1
f 118/1/2 119/1/2 120/1/2 121/1/2
f 122/2/2 123/2/2 124/2/2 118/2/2
f 125/1/2 126/1/2 127/1/2 122/1/2
f 119/1/2 124/1/2 128/1/2 129/1/2
f 126/2/2 130/2/2 123/2/2 127/2/2
f 131/2/2 132/2/2 133/2/2 134/2/2
f 135/1/2 136/1/2 137/1/2 138/1/2
f 139/2/2 133/2/2 136/2/2 135/2/2
f 140/1/2 141/1/2 142/1/2 143/1/2
f 144/1/2 145/1/2 146/1/2 147/1/2
f 148/2/2 149/2/2 145/2/2 144/2/2
f 150/7/2 151/7/2 152/7/2 146/7/2
f 145/1/2 153/1/2 154/1/2 150/1/2
f 149/1/2 155/1/2 156/1/2 145/1/2
f 151/1/2 154/1/2 157/1/2 158/1/2
f 159/2/2 160/2/2 161/2/2 162/2/2
f 163/2/2 164/2/2 165/2/2 159/2/2
f 155/2/2 161/2/2 153/2/2 156/2/2
f 166/1/2 167/1/2 168/1/2 169/1/2
f 170/2/2 171/2/2 172/2/2 173/2/2
f 174/3/2 175/3/2 18/3/2 176/3/2
f 177/4/2 178/4/2 179/4/2 174/4/2
f 180/3/2 172/3/2 178/3/2 177/3/2
f 181/2/2 11/2/2 171/2/2 182/2/2
f 183/1/2 184/1/2 185/1/2 186/1/2
f 187/5/2 188/5/2 184/5/2 183/5/2
f 189/6/2 190/6/2 188/6/2 187/6/2
f 191/3/2 16/3/2 190/3/2 189/3/2
f 192/2/2 193/2/2 194/2/2 195/2/2
f 196/2/2 197/2/2 198/2/2 199/2/2
f 200/2/2 201/2/2 21/2/2 22/2/2
f 202/3/2 203/3/2 204/3/2 205/3/2
f 206/1/2 207/1/2 208/1/2 209/1/2
f 210/1/2 211/1/2 212/1/2 213/1/2
f 214/1/2 215/1/2 216/1/2 217/1/2
f 218/2/2 219/2/2 220/2/2 221/2/2
f 36/1/2 222/1/2 52/1/2 223/1/2
f 224/1/2 225/1/2 226/1/2 227/1/2
f 225/2/2 228/2/2 229/2/2 226/2/2
f 230/1/2 231/1/2 232/1/2 233/1/2
f 129/1/3 3/1/3 2/1/3 120/1/3
f 231/1/3 115/1/3 106/1/3 232/1/3
f 124/1/3 138/1/3 234/1/3 128/1/3
f 130/2/3 139/2/3 138/2/3 124/2/3
f 138/2/3 10/2/3 9/2/3 234/2/3
f 228/2/3 100/2/3 235/2/3 229/2/3
f 100/1/3 109/1/3 116/1/3 235/1/3
f 104/2/3 117/2/3 109/2/3 100/2/3
f 136/1/3 159/1/3 236/1/3 137/1/3
f 132/2/3 237/2/3 159/2/3 136/2/3
f 141/1/3 236/1/3 162/1/3 142/1/3
f 237/2/3 13/2/3 12/2/3 163/2/3
f 203/3/3 25/3/3 24/3/3 204/3/3
f 219/2/3 98/2/3 97/2/3 220/2/3
f 88/1/3 238/1/3 93/1/3 85/1/3
f 91/2/3 97/2/3 102/2/3 88/2/3
f 238/1/3 102/1/3 101/1/3 94/1/3
f 164/2/3 192/2/3 195/2/3 165/2/3
f 184/1/3 46/1/3 45/1/3 185/1/3
f 188/5/3 48/5/3 46/5/3 184/5/3
f 190/6/3 50/6/3 48/6/3 188/6/3
f 16/3/3 52/3/3 50/3/3 190/3/3
f 57/2/3 90/2/3 89/2/3 54/2/3
f 153/1/3 69/1/3 84/1/3 157/1/3
f 160/2/3 194/2/3 239/2/3 153/2/3
f 240/1/3 241/1/3 242/1/3 239/1/3
f 193/2/3 243/2/3 244/2/3 240/2/3
f 241/2/3 245/2/3 246/2/3 242/2/3
f 247/1/3 248/1/3 245/1/3 244/1/3
f 249/2/3 87/2/3 250/2/3 247/2/3
f 243/2/3 56/2/3 55/2/3 249/2/3
f 245/1/3 251/1/3 252/1/3 246/1/3
f 248/2/3 250/2/3 86/2/3 245/2/3
f 251/2/3 86/2/3 69/2/3 252/2/3
f 169/1/4 19/1/4 22/1/4 166/1/4
f 173/2/4 200/2/4 253/2/4 170/2/4
f 199/2/4 31/2/4 34/2/4 196/2/4
f 22/2/4 206/2/4 254/2/4 200/2/4
f 200/1/4 254/1/4 255/1/4 253/1/4
f 209/1/4 58/1/4 61/1/4 206/1/4
f 206/1/4 256/1/4 257/1/4 254/1/4
f 254/2/4 257/2/4 31/2/4 255/2/4
f 213/1/4 258/1/4 30/1/4 210/1/4
f 217/1/4 27/1/4 258/1/4 214/1/4
f 256/2/4 61/2/4 63/2/4 257/2/4
f 257/1/4 63/1/4 66/1/4 31/1/4
f 176/3/4 35/3/4 38/3/4 174/3/4
f 174/4/4 259/4/4 260/4/4 177/4/4
f 177/3/4 216/3/4 261/3/4 262/3/4
f 262/3/4 263/3/4 264/3/4 168/3/4
f 167/3/4 21/3/4 201/3/4 180/3/4
f 182/2/4 198/2/4 197/2/4 181/2/4
f 259/3/4 265/3/4 266/3/4 260/3/4
f 263/1/4 267/1/4 268/1/4 269/1/4
f 269/3/4 212/3/4 211/3/4 264/3/4
f 265/8/4 270/8/4 271/8/4 266/8/4
f 267/3/4 272/3/4 212/3/4 268/3/4
f 20/3/4 208/3/4 207/3/4 21/3/4
f 270/3/4 273/3/4 216/3/4 271/3/4
f 272/1/4 261/1/4 215/1/4 212/1/4
f 273/4/4 38/4/4 28/4/4 216/4/4
f 43/1/4 67/1/4 70/1/4 29/1/4
f 32/2/4 65/2/4 72/2/4 33/2/4
f 121/1/4 1/1/4 274/1/4 118/1/4
f 118/2/4 274/2/4 275/2/4 122/2/4
f 122/1/4 275/1/4 134/1/4 125/1/4
f 4/1/4 5/1/4 276/1/4 275/1/4
f 275/2/4 171/2/4 14/2/4 131/2/4
f 8/1/4 140/1/4 277/1/4 276/1/4
f 143/1/4 278/1/4 172/1/4 140/1/4
f 140/2/4 172/2/4 171/2/4 277/2/4
f 147/1/4 179/1/4 279/1/4 144/1/4
f 144/2/4 279/2/4 278/2/4 148/2/4
f 186/1/4 44/1/4 47/1/4 183/1/4
f 183/5/4 47/5/4 49/5/4 187/5/4
f 187/6/4 49/6/4 51/6/4 189/6/4
f 189/3/4 51/3/4 53/3/4 191/3/4
f 39/1/4 73/1/4 76/1/4 42/1/4
f 221/2/4 96/2/4 99/2/4 218/2/4
f 60/1/4 92/1/4 95/1/4 62/1/4
f 62/2/4 95/2/4 280/2/4 71/2/4
f 95/1/4 281/1/4 282/1/4 283/1/4
f 283/2/4 282/2/4 96/2/4 280/2/4
f 227/1/4 284/1/4 108/1/4 224/1/4
f 233/1/4 105/1/4 284/1/4 230/1/4
f 281/2/4 108/2/4 111/2/4 282/2/4
f 282/1/4 111/1/4 114/1/4 96/1/4
f 205/3/4 23/3/4 26/3/4 202/3/4
f 158/1/4 15/1/4 175/1/4 152/1/4
f 223/1/4 83/1/4 79/1/4 37/1/4
f 16/1/4 52/1/4 222/1/4 17/1/4
f 191/3/5 53/3/5 285/3/5 286/3/5
f 286/3/5 205/3/5 287/3/5 16/3/5
f 204/3/5 288/3/5 52/3/5 287/3/5
f 23/3/5 285/3/5 288/3/5 24/3/5
f 166/1/5 22/1/5 21/1/5 167/1/5
f 165/2/5 195/2/5 194/2/5 160/2/5
f 170/2/5 199/2/5 198/2/5 182/2/5
f 31/1/5 66/1/5 65/1/5 32/1/5
f 54/2/5 89/2/5 87/2/5 55/2/5
f 125/1/5 134/1/5 289/1/5 126/1/5
f 126/2/5 289/2/5 139/2/5 130/2/5
f 163/2/5 91/2/5 90/2/5 164/2/5
f 181/2/5 72/2/5 71/2/5 11/2/5
f 11/2/5 221/2/5 220/2/5 12/2/5
f 192/2/5 57/2/5 56/2/5 193/2/5
f 196/2/5 34/2/5 33/2/5 197/2/5
f 96/1/5 114/1/5 113/1/5 290/1/5
f 290/2/5 113/2/5 117/2/5 104/2/5
f 131/2/5 14/2/5 13/2/5 132/2/5
f 218/2/5 99/2/5 98/2/5 219/2/5
f 185/1/6 45/1/6 44/1/6 186/1/6
f 157/1/6 291/1/6 15/1/6 158/1/6
f 291/1/6 84/1/6 292/1/6 16/1/6
f 52/1/6 292/1/6 83/1/6 223/1/6
f 293/3/6 294/3/6 35/3/6 176/3/6
f 17/3/6 295/3/6 202/3/6 293/3/6
f 295/3/6 222/3/6 296/3/6 203/3/6
f 25/3/6 296/3/6 294/3/6 26/3/6
f 146/1/6 297/1/6 179/1/6 147/1/6
f 152/7/6 175/7/6 297/7/6 146/7/6
f 298/1/6 74/1/6 73/1/6 39/1/6
f 37/7/6 79/7/6 74/7/6 298/7/6
f 216/1/6 28/1/6 27/1/6 217/1/6
f 212/1/6 215/1/6 214/1/6 213/1/6
f 42/1/6 76/1/6 67/1/6 43/1/6
f 120/1/6 2/1/6 1/1/6 121/1/6
f 168/1/6 20/1/6 19/1/6 169/1/6
f 208/1/6 211/1/6 210/1/6 209/1/6
f 29/1/6 70/1/6 58/1/6 30/1/6
f 232/1/6 106/1/6 105/1/6 233/1/6
f 128/1/6 234/1/6 3/1/6 129/1/6
f 3/1/6 6/1/6 5/1/6 4/1/6
f 234/2/6 9/2/6 6/2/6 3/2/6
f 142/1/6 162/1/6 148/1/6 143/1/6
f 21/2/6 207/2/6 206/2/6 22/2/6
f 85/1/6 93/1/6 92/1/6 60/1/6
f 226/1/6 231/1/6 230/1/6 227/1/6
f 229/2/6 235/2/6 231/2/6 226/2/6
f 235/1/6 116/1/6 115/1/6 231/1/6
f 137/1/6 141/1/6 299/1/6 138/1/6
f 7/1/6 300/1/6 140/1/6 8/1/6
f 10/2/6 299/2/6 300/2/6 7/2/6
f 180/2/6 201/2/6 200/2/6 173/2/6
f 301/1/6 225/1/6 224/1/6 95/1/6
f 302/2/6 228/2/6 225/2/6 301/2/6
f 94/1/6 101/1/6 100/1/6 302/1/6
