# generated by tools/rig_people.py — do not edit
mtllib people.mtl
o body
usemtl palette
v 1 17 -3.5
v 1 17 -2.5
v 1 18 -2.5
v 1 18 -3.5
v 1 19 -3.5
v 1 19 -2.5
v 1 20 -2.5
v 1 20 -3.5
v -1 23 -3.5
v -1 23 -2.5
v -1 24 -2.5
v -1 24 -3.5
v -1 14 -1.5
v -1 14 0.5
v -1 15 0.5
v -1 15 -1.5
v -2 22 -3.5
v -2 22 -2.5
v -2 23 -2.5
v -2 23 -3.5
v -2 23 2.5
v -2 23 3.5
v -2 24 3.5
v -2 24 2.5
v -3 21 -3.5
v -3 21 -2.5
v -3 22 -2.5
v -3 22 -3.5
v -3 7 -2.5
v -3 7 1.5
v -3 8 1.5
v -3 8 -2.5
v -3 14 1.5
v -3 14 -2.5
v -3 15 -2.5
v -3 15 2.5
v -3 16 2.5
v -3 16 -2.5
v -3 16 -0.5
v -3 17 -0.5
v -3 17 -2.5
v -3 17 -1.5
v -3 19 -1.5
v -3 19 -2.5
v -3 23 -2.5
v -3 23 -1.5
v -3 25 -1.5
v -3 25 -2.5
v -3 24 -1.5
v -3 24 2.5
v -3 25 2.5
v -3 16 0.5
v -3 17 2.5
v -3 17 0.5
v -4 17 -3.5
v -4 17 -2.5
v -4 19 -2.5
v -4 19 -3.5
v -4 19 1.5
v -4 20 1.5
v -4 20 -3.5
v -4 20 -2.5
v -4 20 3.5
v -4 23 3.5
v -4 23 -2.5
v -4 17 -1.5
v -4 17 -0.5
v -4 19 -0.5
v -4 19 -1.5
v -4 23 -1.5
v -4 23 2.5
v -4 24 2.5
v -4 24 -1.5
v -4 16 -0.5
v -4 16 0.5
v -4 19 0.5
v -4 17 0.5
v -4 17 3.5
v -4 18 3.5
v -4 18 0.5
v -4 18 1.5
v 4 19 -3.5
v 4 19 -2.5
v 4 17 -2.5
v 4 17 -3.5
v 4 20 -3.5
v 4 20 1.5
v 4 19 1.5
v 4 23 -2.5
v 4 23 3.5
v 4 20 3.5
v 4 20 -2.5
v 4 19 -1.5
v 4 19 -0.5
v 4 17 -0.5
v 4 17 -1.5
v 4 24 -1.5
v 4 24 2.5
v 4 23 2.5
v 4 23 -1.5
v 4 19 0.5
v 4 16 0.5
v 4 16 -0.5
v 4 18 0.5
v 4 18 3.5
v 4 17 3.5
v 4 17 0.5
v 4 18 1.5
v 3 8 -2.5
v 3 8 1.5
v 3 7 1.5
v 3 7 -2.5
v 3 14 -2.5
v 3 14 1.5
v 3 16 -2.5
v 3 16 2.5
v 3 15 2.5
v 3 15 -2.5
v 3 17 -2.5
v 3 17 -0.5
v 3 16 -0.5
v 3 19 -2.5
v 3 19 -1.5
v 3 17 -1.5
v 3 24 -2.5
v 3 24 -1.5
v 3 23 -1.5
v 3 23 -2.5
v 3 17 0.5
v 3 17 2.5
v 3 16 0.5
v 3 24 2.5
v 3 24 3.5
v 3 23 3.5
v 3 23 2.5
v 2 24 -3.5
v 2 24 -2.5
v 2 21 -2.5
v 2 21 -3.5
v 2 25 -2.5
v 2 25 2.5
v 2 24 2.5
v 1 15 -1.5
v 1 15 0.5
v 1 14 0.5
v 1 14 -1.5
v -1 18 -3.5
v -1 18 -2.5
v -1 17 -2.5
v -1 17 -3.5
v -1 20 -3.5
v -1 20 -2.5
v -1 19 -2.5
v -1 19 -3.5
v 2 22 -3.5
v 2 23 -3.5
v 3 20 -2.5
v -3 10 -2.5
v 3 10 -2.5
v 2 10 -2.5
v 2 14 -2.5
v 1 16 -2.5
v -3 20 -2.5
v 3 21 -2.5
v 1 10 -2.5
v 1 13 -2.5
v 2 13 -2.5
v -3 13 -2.5
v -3 24 -2.5
v -0 10 -2.5
v -0 12 -2.5
v 1 12 -2.5
v -2 12 -2.5
v -2 13 -2.5
v -1 16 -2.5
v -2 10 -2.5
v -2 11 -2.5
v -0 11 -2.5
v -1 11 -2.5
v -1 12 -2.5
v -4 22 -2.5
v -3 14 -1.5
v 3 14 -1.5
v 1 14 1.5
v -3 14 0.5
v 2 24 -1.5
v 3 15 -1.5
v -3 15 -1.5
v 1 15 2.5
v -3 15 0.5
v 3 17 3.5
v -4 17 2.5
vt 0.9785156 0.5
vt 0.5292969 0.5
vt 0.5253906 0.5
vt 0.0410156 0.5
vt 0.2636719 0.5
vt 0.9394531 0.5
vt 0.0488281 0.5
vn -1 0 0
vn 1 0 0
vn 0 0 1
vn 0 0 -1
vn 0 1 0
vn 0 -1 0
f 1/1/1 2/1/1 3/1/1 4/1/1
f 5/2/1 6/2/1 7/2/1 8/2/1
f 9/3/1 10/3/1 11/3/1 12/3/1
f 13/4/1 14/4/1 15/4/1 16/4/1
f 17/3/1 18/3/1 19/3/1 20/3/1
f 21/3/1 22/3/1 23/3/1 24/3/1
f 25/3/1 26/3/1 27/3/1 28/3/1
f 29/5/1 30/5/1 31/5/1 32/5/1
f 32/6/1 31/6/1 33/6/1 34/6/1
f 35/4/1 36/4/1 37/4/1 38/4/1
f 38/4/1 39/4/1 40/4/1 41/4/1
f 41/4/1 42/4/1 43/4/1 44/4/1
f 45/3/1 46/3/1 47/3/1 48/3/1
f 49/3/1 50/3/1 51/3/1 47/3/1
f 52/4/1 37/4/1 53/4/1 54/4/1
f 55/1/1 56/1/1 57/1/1 58/1/1
f 58/2/1 59/2/1 60/2/1 61/2/1
f 62/3/1 63/3/1 64/3/1 65/3/1
f 66/3/1 67/3/1 68/3/1 69/3/1
f 70/3/1 71/3/1 72/3/1 73/3/1
f 74/4/1 75/4/1 76/4/1 68/4/1
f 77/3/1 78/3/1 79/3/1 80/3/1
f 80/2/1 81/2/1 59/2/1 76/2/1
f 81/3/1 79/3/1 63/3/1 60/3/1
f 82/1/2 83/1/2 84/1/2 85/1/2
f 86/2/2 87/2/2 88/2/2 82/2/2
f 89/3/2 90/3/2 91/3/2 92/3/2
f 93/3/2 94/3/2 95/3/2 96/3/2
f 97/3/2 98/3/2 99/3/2 100/3/2
f 94/4/2 101/4/2 102/4/2 103/4/2
f 104/3/2 105/3/2 106/3/2 107/3/2
f 101/2/2 88/2/2 108/2/2 104/2/2
f 87/3/2 91/3/2 105/3/2 108/3/2
f 109/5/2 110/5/2 111/5/2 112/5/2
f 113/6/2 114/6/2 110/6/2 109/6/2
f 115/4/2 116/4/2 117/4/2 118/4/2
f 119/4/2 120/4/2 121/4/2 115/4/2
f 122/4/2 123/4/2 124/4/2 119/4/2
f 125/3/2 126/3/2 127/3/2 128/3/2
f 129/4/2 130/4/2 116/4/2 131/4/2
f 132/3/2 133/3/2 134/3/2 135/3/2
f 136/3/2 137/3/2 138/3/2 139/3/2
f 140/3/2 141/3/2 142/3/2 137/3/2
f 143/4/2 144/4/2 145/4/2 146/4/2
f 147/1/2 148/1/2 149/1/2 150/1/2
f 151/2/2 152/2/2 153/2/2 154/2/2
f 83/1/3 122/1/3 119/1/3 84/1/3
f 44/1/3 57/1/3 56/1/3 41/1/3
f 107/4/3 129/4/3 131/4/3 102/4/3
f 144/4/3 15/4/3 14/4/3 145/4/3
f 54/4/3 77/4/3 75/4/3 52/4/3
f 110/5/3 31/5/3 30/5/3 111/5/3
f 114/6/3 33/6/3 31/6/3 110/6/3
f 98/3/3 132/3/3 135/3/3 99/3/3
f 130/4/3 53/4/3 36/4/3 117/4/3
f 141/3/3 51/3/3 50/3/3 142/3/3
f 24/3/3 72/3/3 71/3/3 21/3/3
f 90/3/3 64/3/3 78/3/3 106/3/3
f 133/3/3 23/3/3 22/3/3 134/3/3
f 85/1/4 1/1/4 5/1/4 82/1/4
f 82/2/4 5/2/4 8/2/4 86/2/4
f 139/3/4 25/3/4 28/3/4 155/3/4
f 155/3/4 17/3/4 20/3/4 156/3/4
f 156/3/4 9/3/4 12/3/4 136/3/4
f 4/2/4 147/2/4 154/2/4 5/2/4
f 150/1/4 55/1/4 58/1/4 154/1/4
f 154/2/4 58/2/4 61/2/4 151/2/4
f 92/3/4 157/3/4 128/3/4 89/3/4
f 112/5/4 29/5/4 32/5/4 109/5/4
f 109/6/4 32/6/4 158/6/4 159/6/4
f 159/6/4 160/6/4 161/6/4 113/6/4
f 118/4/4 35/4/4 38/4/4 115/4/4
f 115/4/4 162/4/4 2/4/4 119/4/4
f 157/4/4 163/4/4 26/4/4 164/4/4
f 164/3/4 138/3/4 137/3/4 125/3/4
f 160/1/4 165/1/4 166/1/4 167/1/4
f 167/6/4 168/6/4 34/6/4 161/6/4
f 137/3/4 169/3/4 48/3/4 140/3/4
f 165/6/4 170/6/4 171/6/4 172/6/4
f 172/1/4 173/1/4 174/1/4 166/1/4
f 162/7/4 175/7/4 149/7/4 2/7/4
f 2/4/4 149/4/4 148/4/4 3/4/4
f 6/4/4 153/4/4 152/4/4 7/4/4
f 170/1/4 176/1/4 177/1/4 178/1/4
f 178/6/4 179/6/4 180/6/4 171/6/4
f 179/1/4 177/1/4 173/1/4 180/1/4
f 175/4/4 38/4/4 41/4/4 149/4/4
f 10/3/4 45/3/4 169/3/4 11/3/4
f 176/6/4 158/6/4 168/6/4 174/6/4
f 18/3/4 181/3/4 65/3/4 19/3/4
f 163/3/4 62/3/4 181/3/4 27/3/4
f 96/3/4 124/3/4 123/3/4 93/3/4
f 100/3/4 127/3/4 126/3/4 97/3/4
f 146/4/4 13/4/4 16/4/4 143/4/4
f 42/3/4 66/3/4 69/3/4 43/3/4
f 46/3/4 70/3/4 73/3/4 49/3/4
f 103/4/4 121/4/4 120/4/4 95/4/4
f 39/4/4 74/4/4 67/4/4 40/4/4
f 113/6/5 34/6/5 182/6/5 183/6/5
f 183/6/5 146/6/5 184/6/5 114/6/5
f 145/6/5 185/6/5 33/6/5 184/6/5
f 13/6/5 182/6/5 185/6/5 14/6/5
f 5/2/5 154/2/5 153/2/5 6/2/5
f 86/2/5 8/2/5 7/2/5 92/2/5
f 151/2/5 61/2/5 62/2/5 152/2/5
f 17/3/5 28/3/5 27/3/5 18/3/5
f 89/3/5 128/3/5 127/3/5 100/3/5
f 99/3/5 135/3/5 134/3/5 90/3/5
f 9/3/5 20/3/5 19/3/5 10/3/5
f 21/3/5 71/3/5 64/3/5 22/3/5
f 45/3/5 65/3/5 70/3/5 46/3/5
f 97/3/5 186/3/5 142/3/5 98/3/5
f 125/3/5 137/3/5 186/3/5 126/3/5
f 132/3/5 24/3/5 23/3/5 133/3/5
f 136/3/5 12/3/5 11/3/5 137/3/5
f 49/3/5 73/3/5 72/3/5 50/3/5
f 140/3/5 48/3/5 51/3/5 141/3/5
f 111/5/6 30/5/6 29/5/6 112/5/6
f 187/4/6 188/4/6 35/4/6 118/4/6
f 117/4/6 189/4/6 143/4/6 187/4/6
f 189/4/6 36/4/6 190/4/6 144/4/6
f 15/4/6 190/4/6 188/4/6 16/4/6
f 102/4/6 131/4/6 121/4/6 103/4/6
f 52/4/6 75/4/6 74/4/6 39/4/6
f 84/1/6 2/1/6 1/1/6 85/1/6
f 95/3/6 120/3/6 124/3/6 96/3/6
f 106/3/6 191/3/6 129/3/6 107/3/6
f 191/3/6 78/3/6 192/3/6 130/3/6
f 149/1/6 56/1/6 55/1/6 150/1/6
f 40/3/6 67/3/6 66/3/6 42/3/6
f 53/3/6 192/3/6 77/3/6 54/3/6
f 3/2/6 148/2/6 147/2/6 4/2/6
f 93/2/6 123/2/6 122/2/6 83/2/6
f 43/2/6 69/2/6 57/2/6 44/2/6
f 138/3/6 26/3/6 25/3/6 139/3/6
