# generated by tools/rig_people.py — do not edit
mtllib people.mtl
o arm-r
usemtl palette
v 4 6 0
v 4 6 2
v 4 11 2
v 4 11 0
v 3 11 -1
v 3 11 3
v 3 14 3
v 3 14 -1
v 6 14 0
v 6 14 2
v 6 6 2
v 6 6 0
v 4 14 -1
v 4 14 0
v 4 11 -1
v 4 14 2
v 4 14 3
v 4 11 3
v 3 14 0
v 3 14 2
vt 0.9589844 0.5
vn -1 0 0
vn 1 0 0
vn 0 0 1
vn 0 0 -1
vn 0 1 0
vn 0 -1 0
f 1/1/1 2/1/1 3/1/1 4/1/1
f 5/1/1 6/1/1 7/1/1 8/1/1
f 9/1/2 10/1/2 11/1/2 12/1/2
f 13/1/2 14/1/2 4/1/2 15/1/2
f 16/1/2 17/1/2 18/1/2 3/1/2
f 10/1/3 16/1/3 2/1/3 11/1/3
f 17/1/3 7/1/3 6/1/3 18/1/3
f 15/1/4 5/1/4 8/1/4 13/1/4
f 12/1/4 1/1/4 14/1/4 9/1/4
f 9/1/5 19/1/5 20/1/5 10/1/5
f 13/1/5 8/1/5 19/1/5 14/1/5
f 16/1/5 20/1/5 7/1/5 17/1/5
f 11/1/6 2/1/6 1/1/6 12/1/6
f 18/1/6 6/1/6 5/1/6 15/1/6
