# MagicaVoxel @ Ephtracy

# group
o 

# material
mtllib Character-17.mtl
usemtl palette

# normals
vn -1 0 0
vn 1 0 0
vn 0 0 1
vn 0 0 -1
vn 0 -1 0
vn 0 1 0

# texcoords
vt 0.0371094 0.5
vt 0.0488281 0.5
vt 0.162109 0.5
vt 0.521484 0.5
vt 0.541016 0.5
vt 0.548828 0.5
vt 0.568359 0.5
vt 0.576172 0.5
vt 0.650391 0.5
vt 0.974609 0.5

# verts
v -3.1 0.6 0.9
v -3.1 0.6 0.7
v -3.1 0.8 0.9
v -3.1 0.8 0.7
v -3.1 0.9 0.9
v -3.1 0.9 0.7
v -3.1 1.4 0.9
v -3.1 1.4 0.7
v -3 1.4 0.8
v -3 1.4 0.7
v -3 1.4 0.5
v -3 1.6 1
v -3 1.6 0.9
v -3 1.6 0.8
v -3 1.9 1.1
v -3 1.9 1
v -3 1.9 0.9
v -3 1.9 0.8
v -3 1.9 0.6
v -3 1.9 0.5
v -3 2 1
v -3 2 0.9
v -3 2.1 1.1
v -3 2.1 1
v -3 2.1 0.9
v -3 2.1 0.8
v -3 2.1 0.6
v -3 2.2 1
v -3 2.2 0.9
v -3 2.3 1.1
v -3 2.3 0.9
v -3 2.3 0.8
v -3 2.3 0.5
v -2.9 0 1
v -2.9 0 0.7
v -2.9 0.1 1
v -2.9 0.1 0.9
v -2.9 0.1 0.7
v -2.9 0.2 0.9
v -2.9 0.2 0.7
v -2.9 0.6 0.9
v -2.9 0.6 0.7
v -2.9 0.7 1
v -2.9 0.7 0.9
v -2.9 0.7 0.7
v -2.9 0.7 0.6
v -2.9 0.8 1
v -2.9 0.8 0.9
v -2.9 0.8 0.7
v -2.9 0.8 0.6
v -2.9 0.9 0.9
v -2.9 0.9 0.7
v -2.9 1.4 1
v -2.9 1.4 0.9
v -2.9 1.4 0.7
v -2.9 1.4 0.6
v -2.9 1.5 1.1
v -2.9 1.5 0.8
v -2.9 1.6 1.1
v -2.9 1.6 1
v -2.9 1.6 0.9
v -2.9 1.6 0.8
v -2.9 1.8 1.1
v -2.9 1.8 1
v -2.9 1.9 1.2
v -2.9 1.9 1.1
v -2.9 1.9 1
v -2.9 2 1.2
v -2.9 2 1.1
v -2.9 2.1 1.2
v -2.9 2.1 1.1
v -2.9 2.2 1.2
v -2.9 2.2 1.1
v -2.9 2.3 1.1
v -2.9 2.3 1
v -2.9 2.3 0.9
v -2.9 2.3 0.8
v -2.9 2.3 0.6
v -2.9 2.4 1.2
v -2.9 2.4 1
v -2.9 2.4 0.9
v -2.9 2.4 0.6
v -2.8 2.3 0.6
v -2.8 2.3 0.5
v -2.8 2.4 0.6
v -2.8 2.4 0.5
v -2.7 1.4 0.9
v -2.7 1.4 0.7
v -2.7 1.5 0.9
v -2.7 1.5 0.7
v -2.7 2 1.2
v -2.7 2 1.1
v -2.7 2.1 1.2
v -2.7 2.1 1.1
v -2.5 0 1
v -2.5 0 0.7
v -2.5 0.1 1
v -2.5 0.1 0.9
v -2.5 0.1 0.7
v -2.5 0.2 0.9
v -2.5 0.2 0.7
v -2.5 0.7 0.9
v -2.5 0.7 0.7
v -2.5 1.9 1.2
v -2.5 1.9 1.1
v -2.5 2 1.2
v -2.5 2 1.1
v -2.4 1.7 1.2
v -2.4 1.7 1.1
v -2.4 1.8 1.1
v -2.4 1.9 1.2
v -2.4 1.9 1.1
v -2.3 1.4 0.8
v -2.3 1.4 0.6
v -2.3 1.5 0.8
v -2.3 1.5 0.6
v -2.9 1.4 0.8
v -2.9 1.4 0.6
v -2.9 1.5 0.8
v -2.9 1.5 0.6
v -2.7 0 1
v -2.7 0 0.7
v -2.7 0.1 1
v -2.7 0.1 0.9
v -2.7 0.1 0.7
v -2.7 0.2 0.9
v -2.7 0.2 0.7
v -2.7 0.7 0.9
v -2.7 0.7 0.7
v -2.7 1.9 1.2
v -2.7 1.9 1.1
v -2.7 2 1.2
v -2.7 2 1.1
v -2.5 1.4 0.9
v -2.5 1.4 0.7
v -2.5 1.5 0.9
v -2.5 1.5 0.7
v -2.3 0 1
v -2.3 0 0.7
v -2.3 0.1 1
v -2.3 0.1 0.9
v -2.3 0.1 0.7
v -2.3 0.2 0.9
v -2.3 0.2 0.7
v -2.3 0.6 0.9
v -2.3 0.6 0.7
v -2.3 0.7 1
v -2.3 0.7 0.9
v -2.3 0.7 0.7
v -2.3 0.7 0.6
v -2.3 0.8 1
v -2.3 0.8 0.9
v -2.3 0.8 0.7
v -2.3 0.8 0.6
v -2.3 0.9 0.9
v -2.3 0.9 0.7
v -2.3 1.4 1
v -2.3 1.4 0.9
v -2.3 1.4 0.7
v -2.3 1.4 0.6
v -2.3 1.5 1.1
v -2.3 1.5 0.8
v -2.3 1.6 1.1
v -2.3 1.6 1
v -2.3 1.6 0.9
v -2.3 1.6 0.8
v -2.3 1.7 1.2
v -2.3 1.7 1.1
v -2.3 1.8 1.1
v -2.3 1.8 1
v -2.3 1.9 1.1
v -2.3 1.9 1
v -2.3 2 1.2
v -2.3 2 1.1
v -2.3 2.3 1.2
v -2.3 2.3 1.1
v -2.3 2.3 0.6
v -2.3 2.3 0.5
v -2.3 2.4 1.2
v -2.3 2.4 1.1
v -2.3 2.4 0.6
v -2.3 2.4 0.5
v -2.2 1.4 0.8
v -2.2 1.4 0.7
v -2.2 1.4 0.5
v -2.2 1.6 1
v -2.2 1.6 0.9
v -2.2 1.6 0.8
v -2.2 1.9 1.1
v -2.2 1.9 1
v -2.2 1.9 0.9
v -2.2 1.9 0.8
v -2.2 1.9 0.6
v -2.2 1.9 0.5
v -2.2 2 1.2
v -2.2 2 1.1
v -2.2 2 1
v -2.2 2 0.9
v -2.2 2.1 1.2
v -2.2 2.1 1
v -2.2 2.1 0.9
v -2.2 2.1 0.8
v -2.2 2.1 0.6
v -2.2 2.2 0.9
v -2.2 2.2 0.8
v -2.2 2.3 1.2
v -2.2 2.3 1.1
v -2.2 2.3 0.6
v -2.2 2.3 0.5
v -2.2 2.4 1.1
v -2.2 2.4 1
v -2.2 2.4 0.9
v -2.2 2.4 0.6
v -2.1 0.6 0.9
v -2.1 0.6 0.7
v -2.1 0.8 0.9
v -2.1 0.8 0.7
v -2.1 0.9 0.9
v -2.1 0.9 0.7
v -2.1 1.4 0.9
v -2.1 1.4 0.7
v -2.9 1.9 1.2
v -2.9 2 1.2
v -2.9 2.1 1.2
v -2.9 2.2 1.2
v -2.9 2.4 1.2
v -2.7 1.9 1.2
v -2.7 2 1.2
v -2.7 2.1 1.2
v -2.6 2.1 1.2
v -2.6 2.2 1.2
v -2.6 2.3 1.2
v -2.5 1.9 1.2
v -2.5 2 1.2
v -2.5 2.1 1.2
v -2.5 2.2 1.2
v -2.5 2.3 1.2
v -2.4 1.7 1.2
v -2.4 1.9 1.2
v -2.3 1.7 1.2
v -2.3 2 1.2
v -2.3 2.1 1.2
v -2.3 2.2 1.2
v -2.3 2.3 1.2
v -2.3 2.4 1.2
v -2.2 2 1.2
v -2.2 2.1 1.2
v -2.2 2.3 1.2
v -3 1.9 1.1
v -3 2.1 1.1
v -3 2.3 1.1
v -2.9 1.5 1.1
v -2.9 1.6 1.1
v -2.9 1.8 1.1
v -2.9 1.9 1.1
v -2.9 2 1.1
v -2.9 2.1 1.1
v -2.9 2.2 1.1
v -2.9 2.3 1.1
v -2.8 1.6 1.1
v -2.8 1.8 1.1
v -2.8 1.9 1.1
v -2.7 1.6 1.1
v -2.7 1.7 1.1
v -2.7 1.8 1.1
v -2.7 1.9 1.1
v -2.7 2 1.1
v -2.7 2.1 1.1
v -2.5 1.6 1.1
v -2.5 1.7 1.1
v -2.5 1.8 1.1
v -2.5 1.9 1.1
v -2.5 2 1.1
v -2.4 1.6 1.1
v -2.4 1.7 1.1
v -2.4 1.8 1.1
v -2.4 1.9 1.1
v -2.3 1.5 1.1
v -2.3 1.6 1.1
v -2.3 1.7 1.1
v -2.3 1.9 1.1
v -2.3 2 1.1
v -2.3 2.3 1.1
v -2.3 2.4 1.1
v -2.2 1.9 1.1
v -2.2 2 1.1
v -2.2 2.3 1.1
v -2.2 2.4 1.1
v -3 1.6 1
v -3 1.9 1
v -2.9 0 1
v -2.9 0.1 1
v -2.9 0.7 1
v -2.9 0.8 1
v -2.9 1.4 1
v -2.9 1.6 1
v -2.9 1.8 1
v -2.9 1.9 1
v -2.8 0.8 1
v -2.8 1.4 1
v -2.7 0 1
v -2.7 0.1 1
v -2.7 0.8 1
v -2.7 1.4 1
v -2.5 0 1
v -2.5 0.1 1
v -2.5 0.8 1
v -2.5 1.4 1
v -2.4 0.8 1
v -2.4 1.4 1
v -2.3 0 1
v -2.3 0.1 1
v -2.3 0.7 1
v -2.3 0.8 1
v -2.3 1.4 1
v -2.3 1.6 1
v -2.3 1.8 1
v -2.3 1.9 1
v -2.2 1.6 1
v -2.2 1.9 1
v -3.1 0.6 0.9
v -3.1 0.8 0.9
v -3.1 0.9 0.9
v -3.1 1.4 0.9
v -2.9 0.1 0.9
v -2.9 0.2 0.9
v -2.9 0.6 0.9
v -2.9 0.7 0.9
v -2.9 0.8 0.9
v -2.9 0.9 0.9
v -2.9 1.4 0.9
v -2.7 0.1 0.9
v -2.7 0.2 0.9
v -2.7 0.7 0.9
v -2.7 1.4 0.9
v -2.7 1.5 0.9
v -2.5 0.1 0.9
v -2.5 0.2 0.9
v -2.5 0.7 0.9
v -2.5 1.4 0.9
v -2.5 1.5 0.9
v -2.3 0.1 0.9
v -2.3 0.2 0.9
v -2.3 0.6 0.9
v -2.3 0.7 0.9
v -2.3 0.8 0.9
v -2.3 0.9 0.9
v -2.3 1.4 0.9
v -2.1 0.6 0.9
v -2.1 0.8 0.9
v -2.1 0.9 0.9
v -2.1 1.4 0.9
v -3 1.4 0.8
v -3 1.6 0.8
v -2.9 1.4 0.8
v -2.9 1.5 0.8
v -2.9 1.6 0.8
v -2.3 1.4 0.8
v -2.3 1.5 0.8
v -2.3 1.6 0.8
v -2.2 1.4 0.8
v -2.2 1.6 0.8
v -2.9 1.4 0.6
v -2.9 1.5 0.6
v -2.3 1.4 0.6
v -2.3 1.5 0.6
v -3.1 0.6 0.7
v -3.1 0.8 0.7
v -3.1 0.9 0.7
v -3.1 1.4 0.7
v -3 1.4 0.7
v -2.9 0 0.7
v -2.9 0.1 0.7
v -2.9 0.2 0.7
v -2.9 0.6 0.7
v -2.9 0.7 0.7
v -2.9 0.8 0.7
v -2.9 0.9 0.7
v -2.9 1.4 0.7
v -2.7 0 0.7
v -2.7 0.1 0.7
v -2.7 0.2 0.7
v -2.7 0.7 0.7
v -2.7 1.4 0.7
v -2.7 1.5 0.7
v -2.5 0 0.7
v -2.5 0.1 0.7
v -2.5 0.2 0.7
v -2.5 0.7 0.7
v -2.5 1.4 0.7
v -2.5 1.5 0.7
v -2.3 0 0.7
v -2.3 0.1 0.7
v -2.3 0.2 0.7
v -2.3 0.6 0.7
v -2.3 0.7 0.7
v -2.3 0.8 0.7
v -2.3 0.9 0.7
v -2.3 1.4 0.7
v -2.2 1.4 0.7
v -2.1 0.6 0.7
v -2.1 0.8 0.7
v -2.1 0.9 0.7
v -2.1 1.4 0.7
v -2.9 0.7 0.6
v -2.9 0.8 0.6
v -2.9 1.4 0.6
v -2.9 2.3 0.6
v -2.9 2.4 0.6
v -2.8 2.3 0.6
v -2.8 2.4 0.6
v -2.3 0.7 0.6
v -2.3 0.8 0.6
v -2.3 1.4 0.6
v -2.3 2.3 0.6
v -2.3 2.4 0.6
v -2.2 2.3 0.6
v -2.2 2.4 0.6
v -3 1.4 0.5
v -3 1.9 0.5
v -3 2.3 0.5
v -2.8 1.9 0.5
v -2.8 2 0.5
v -2.8 2.3 0.5
v -2.8 2.4 0.5
v -2.4 1.9 0.5
v -2.4 2 0.5
v -2.3 2.3 0.5
v -2.3 2.4 0.5
v -2.2 1.4 0.5
v -2.2 1.9 0.5
v -2.2 2.3 0.5
v -2.9 0 1
v -2.7 0 1
v -2.5 0 1
v -2.3 0 1
v -2.9 0 0.7
v -2.7 0 0.7
v -2.5 0 0.7
v -2.3 0 0.7
v -3.1 0.6 0.9
v -2.9 0.6 0.9
v -2.3 0.6 0.9
v -2.1 0.6 0.9
v -3.1 0.6 0.7
v -2.9 0.6 0.7
v -2.3 0.6 0.7
v -2.1 0.6 0.7
v -2.9 0.7 1
v -2.3 0.7 1
v -2.9 0.7 0.9
v -2.7 0.7 0.9
v -2.5 0.7 0.9
v -2.3 0.7 0.9
v -2.9 0.7 0.7
v -2.7 0.7 0.7
v -2.5 0.7 0.7
v -2.3 0.7 0.7
v -2.9 0.7 0.6
v -2.3 0.7 0.6
v -3 1.4 0.7
v -2.9 1.4 0.7
v -2.3 1.4 0.7
v -2.2 1.4 0.7
v -2.9 1.4 0.6
v -2.3 1.4 0.6
v -3 1.4 0.5
v -2.2 1.4 0.5
v -2.9 1.5 1.1
v -2.3 1.5 1.1
v -2.7 1.5 0.9
v -2.5 1.5 0.9
v -2.9 1.5 0.8
v -2.3 1.5 0.8
v -2.7 1.5 0.7
v -2.5 1.5 0.7
v -2.9 1.5 0.6
v -2.3 1.5 0.6
v -3 1.6 1
v -2.9 1.6 1
v -2.3 1.6 1
v -2.2 1.6 1
v -3 1.6 0.9
v -2.9 1.6 0.9
v -2.3 1.6 0.9
v -2.2 1.6 0.9
v -3 1.6 0.8
v -2.9 1.6 0.8
v -2.3 1.6 0.8
v -2.2 1.6 0.8
v -2.4 1.7 1.2
v -2.3 1.7 1.2
v -2.4 1.7 1.1
v -2.3 1.7 1.1
v -2.9 1.9 1.2
v -2.7 1.9 1.2
v -2.5 1.9 1.2
v -2.4 1.9 1.2
v -3 1.9 1.1
v -2.9 1.9 1.1
v -2.8 1.9 1.1
v -2.7 1.9 1.1
v -2.5 1.9 1.1
v -2.4 1.9 1.1
v -2.3 1.9 1.1
v -2.2 1.9 1.1
v -3 1.9 1
v -2.9 1.9 1
v -2.3 1.9 1
v -2.2 1.9 1
v -2.7 2 1.2
v -2.5 2 1.2
v -2.3 2 1.2
v -2.2 2 1.2
v -2.7 2 1.1
v -2.5 2 1.1
v -2.3 2 1.1
v -2.2 2 1.1
v -2.9 2.1 1.2
v -2.7 2.1 1.2
v -2.9 2.1 1.1
v -2.7 2.1 1.1
v -2.9 0.1 1
v -2.7 0.1 1
v -2.5 0.1 1
v -2.3 0.1 1
v -2.9 0.1 0.9
v -2.7 0.1 0.9
v -2.5 0.1 0.9
v -2.3 0.1 0.9
v -2.9 1.4 1
v -2.8 1.4 1
v -2.7 1.4 1
v -2.5 1.4 1
v -2.4 1.4 1
v -2.3 1.4 1
v -3.1 1.4 0.9
v -2.9 1.4 0.9
v -2.8 1.4 0.9
v -2.7 1.4 0.9
v -2.5 1.4 0.9
v -2.4 1.4 0.9
v -2.3 1.4 0.9
v -2.1 1.4 0.9
v -3 1.4 0.8
v -2.9 1.4 0.8
v -2.3 1.4 0.8
v -2.2 1.4 0.8
v -3.1 1.4 0.7
v -3 1.4 0.7
v -2.7 1.4 0.7
v -2.5 1.4 0.7
v -2.2 1.4 0.7
v -2.1 1.4 0.7
v -2.9 1.4 0.6
v -2.3 1.4 0.6
v -2.9 2 1.2
v -2.7 2 1.2
v -2.9 2 1.1
v -2.7 2 1.1
v -2.3 2.3 1.2
v -2.2 2.3 1.2
v -3 2.3 1.1
v -2.9 2.3 1.1
v -2.3 2.3 1.1
v -2.2 2.3 1.1
v -2.9 2.3 1
v -3 2.3 0.9
v -2.9 2.3 0.9
v -3 2.3 0.8
v -2.9 2.3 0.8
v -2.9 2.3 0.6
v -2.8 2.3 0.6
v -2.3 2.3 0.6
v -2.2 2.3 0.6
v -3 2.3 0.5
v -2.8 2.3 0.5
v -2.3 2.3 0.5
v -2.2 2.3 0.5
v -2.9 2.4 1.2
v -2.3 2.4 1.2
v -2.3 2.4 1.1
v -2.2 2.4 1.1
v -2.9 2.4 1
v -2.2 2.4 1
v -2.9 2.4 0.9
v -2.2 2.4 0.9
v -2.9 2.4 0.6
v -2.8 2.4 0.6
v -2.3 2.4 0.6
v -2.2 2.4 0.6
v -2.8 2.4 0.5
v -2.3 2.4 0.5

# faces
f 3/1/1 2/1/1 1/1/1
f 4/1/1 2/1/1 3/1/1
f 5/10/1 4/10/1 3/10/1
f 6/10/1 4/10/1 5/10/1
f 7/8/1 6/8/1 5/8/1
f 8/8/1 6/8/1 7/8/1
f 14/3/1 10/3/1 9/3/1
f 14/3/1 11/3/1 10/3/1
f 16/3/1 13/3/1 12/3/1
f 17/2/1 14/2/1 13/2/1
f 17/3/1 13/3/1 16/3/1
f 18/3/1 11/3/1 14/3/1
f 18/2/1 14/2/1 17/2/1
f 19/3/1 11/3/1 18/3/1
f 20/3/1 11/3/1 19/3/1
f 21/3/1 16/3/1 15/3/1
f 21/3/1 17/3/1 16/3/1
f 22/10/1 18/10/1 17/10/1
f 22/3/1 17/3/1 21/3/1
f 23/3/1 21/3/1 15/3/1
f 24/9/1 22/9/1 21/9/1
f 24/3/1 21/3/1 23/3/1
f 25/10/1 18/10/1 22/10/1
f 25/9/1 22/9/1 24/9/1
f 26/3/1 19/3/1 18/3/1
f 26/10/1 18/10/1 25/10/1
f 27/9/1 20/9/1 19/9/1
f 27/3/1 19/3/1 26/3/1
f 28/9/1 24/9/1 23/9/1
f 28/3/1 25/3/1 24/3/1
f 29/10/1 26/10/1 25/10/1
f 29/3/1 25/3/1 28/3/1
f 30/9/1 28/9/1 23/9/1
f 30/9/1 29/9/1 28/9/1
f 31/10/1 26/10/1 29/10/1
f 31/9/1 29/9/1 30/9/1
f 32/9/1 27/9/1 26/9/1
f 32/10/1 26/10/1 31/10/1
f 33/9/1 20/9/1 27/9/1
f 33/9/1 27/9/1 32/9/1
f 36/3/1 35/3/1 34/3/1
f 37/3/1 35/3/1 36/3/1
f 38/3/1 35/3/1 37/3/1
f 39/1/1 38/1/1 37/1/1
f 40/1/1 38/1/1 39/1/1
f 41/3/1 40/3/1 39/3/1
f 42/3/1 40/3/1 41/3/1
f 47/3/1 44/3/1 43/3/1
f 48/3/1 44/3/1 47/3/1
f 49/3/1 46/3/1 45/3/1
f 50/3/1 46/3/1 49/3/1
f 51/8/1 48/8/1 47/8/1
f 52/8/1 50/8/1 49/8/1
f 53/8/1 51/8/1 47/8/1
f 54/8/1 51/8/1 53/8/1
f 55/8/1 50/8/1 52/8/1
f 56/8/1 50/8/1 55/8/1
f 59/1/1 58/1/1 57/1/1
f 60/1/1 58/1/1 59/1/1
f 61/1/1 58/1/1 60/1/1
f 62/1/1 58/1/1 61/1/1
f 63/5/1 60/5/1 59/5/1
f 64/5/1 60/5/1 63/5/1
f 66/1/1 64/1/1 63/1/1
f 67/1/1 64/1/1 66/1/1
f 68/3/1 66/3/1 65/3/1
f 69/3/1 66/3/1 68/3/1
f 72/3/1 71/3/1 70/3/1
f 73/3/1 71/3/1 72/3/1
f 74/9/1 73/9/1 72/9/1
f 79/9/1 75/9/1 74/9/1
f 79/9/1 74/9/1 72/9/1
f 80/10/1 76/10/1 75/10/1
f 80/9/1 75/9/1 79/9/1
f 81/9/1 77/9/1 76/9/1
f 81/10/1 76/10/1 80/10/1
f 81/9/1 78/9/1 77/9/1
f 82/9/1 78/9/1 81/9/1
f 85/9/1 84/9/1 83/9/1
f 86/9/1 84/9/1 85/9/1
f 89/1/1 88/1/1 87/1/1
f 90/1/1 88/1/1 89/1/1
f 93/3/1 92/3/1 91/3/1
f 94/3/1 92/3/1 93/3/1
f 97/3/1 96/3/1 95/3/1
f 98/3/1 96/3/1 97/3/1
f 99/3/1 96/3/1 98/3/1
f 100/1/1 99/1/1 98/1/1
f 101/1/1 99/1/1 100/1/1
f 102/3/1 101/3/1 100/3/1
f 103/3/1 101/3/1 102/3/1
f 106/3/1 105/3/1 104/3/1
f 107/3/1 105/3/1 106/3/1
f 110/3/1 109/3/1 108/3/1
f 111/3/1 110/3/1 108/3/1
f 112/3/1 110/3/1 111/3/1
f 115/3/1 114/3/1 113/3/1
f 116/3/1 114/3/1 115/3/1
f 117/3/2 118/3/2 119/3/2
f 119/3/2 118/3/2 120/3/2
f 121/3/2 122/3/2 123/3/2
f 123/3/2 122/3/2 124/3/2
f 124/3/2 122/3/2 125/3/2
f 124/1/2 125/1/2 126/1/2
f 126/1/2 125/1/2 127/1/2
f 126/3/2 127/3/2 128/3/2
f 128/3/2 127/3/2 129/3/2
f 130/3/2 131/3/2 132/3/2
f 132/3/2 131/3/2 133/3/2
f 134/1/2 135/1/2 136/1/2
f 136/1/2 135/1/2 137/1/2
f 138/3/2 139/3/2 140/3/2
f 140/3/2 139/3/2 141/3/2
f 141/3/2 139/3/2 142/3/2
f 141/1/2 142/1/2 143/1/2
f 143/1/2 142/1/2 144/1/2
f 143/3/2 144/3/2 145/3/2
f 145/3/2 144/3/2 146/3/2
f 147/3/2 148/3/2 151/3/2
f 151/3/2 148/3/2 152/3/2
f 149/3/2 150/3/2 153/3/2
f 153/3/2 150/3/2 154/3/2
f 151/8/2 152/8/2 155/8/2
f 153/8/2 154/8/2 156/8/2
f 151/8/2 155/8/2 157/8/2
f 157/8/2 155/8/2 158/8/2
f 156/8/2 154/8/2 159/8/2
f 159/8/2 154/8/2 160/8/2
f 161/1/2 162/1/2 163/1/2
f 163/1/2 162/1/2 164/1/2
f 164/1/2 162/1/2 165/1/2
f 165/1/2 162/1/2 166/1/2
f 163/5/2 164/5/2 168/5/2
f 168/5/2 164/5/2 169/5/2
f 167/3/2 168/3/2 169/3/2
f 169/5/2 164/5/2 170/5/2
f 167/3/2 169/3/2 171/3/2
f 169/1/2 170/1/2 171/1/2
f 171/1/2 170/1/2 172/1/2
f 167/3/2 171/3/2 173/3/2
f 173/3/2 171/3/2 174/3/2
f 175/9/2 176/9/2 179/9/2
f 179/9/2 176/9/2 180/9/2
f 177/9/2 178/9/2 181/9/2
f 181/9/2 178/9/2 182/9/2
f 183/3/2 184/3/2 188/3/2
f 184/3/2 185/3/2 188/3/2
f 186/3/2 187/3/2 190/3/2
f 187/2/2 188/2/2 191/2/2
f 190/3/2 187/3/2 191/3/2
f 188/3/2 185/3/2 192/3/2
f 191/2/2 188/2/2 192/2/2
f 192/3/2 185/3/2 193/3/2
f 193/3/2 185/3/2 194/3/2
f 189/3/2 190/3/2 196/3/2
f 190/3/2 191/3/2 196/3/2
f 196/3/2 191/3/2 197/3/2
f 191/10/2 192/10/2 198/10/2
f 197/3/2 191/3/2 198/3/2
f 196/3/2 197/3/2 199/3/2
f 195/3/2 196/3/2 199/3/2
f 197/9/2 198/9/2 200/9/2
f 199/3/2 197/3/2 200/3/2
f 198/10/2 192/10/2 201/10/2
f 200/9/2 198/9/2 201/9/2
f 192/3/2 193/3/2 202/3/2
f 201/10/2 192/10/2 202/10/2
f 193/9/2 194/9/2 203/9/2
f 202/3/2 193/3/2 203/3/2
f 201/10/2 202/10/2 204/10/2
f 200/10/2 201/10/2 204/10/2
f 202/9/2 203/9/2 205/9/2
f 204/10/2 202/10/2 205/10/2
f 199/9/2 200/9/2 206/9/2
f 206/9/2 200/9/2 207/9/2
f 203/9/2 194/9/2 208/9/2
f 205/9/2 203/9/2 208/9/2
f 204/9/2 205/9/2 208/9/2
f 208/9/2 194/9/2 209/9/2
f 207/9/2 200/9/2 210/9/2
f 200/10/2 204/10/2 211/10/2
f 210/9/2 200/9/2 211/9/2
f 204/9/2 208/9/2 212/9/2
f 211/10/2 204/10/2 212/10/2
f 212/9/2 208/9/2 213/9/2
f 214/1/2 215/1/2 216/1/2
f 216/1/2 215/1/2 217/1/2
f 216/10/2 217/10/2 218/10/2
f 218/10/2 217/10/2 219/10/2
f 218/8/2 219/8/2 220/8/2
f 220/8/2 219/8/2 221/8/2
f 227/3/3 223/3/3 222/3/3
f 228/3/3 223/3/3 227/3/3
f 229/3/3 225/3/3 224/3/3
f 230/3/3 229/3/3 228/3/3
f 230/3/3 225/3/3 229/3/3
f 231/9/3 226/9/3 225/9/3
f 231/3/3 225/3/3 230/3/3
f 232/9/3 226/9/3 231/9/3
f 234/3/3 230/3/3 228/3/3
f 235/9/3 231/9/3 230/9/3
f 235/3/3 230/3/3 234/3/3
f 236/3/3 232/3/3 231/3/3
f 236/9/3 231/9/3 235/9/3
f 237/9/3 226/9/3 232/9/3
f 237/3/3 232/3/3 236/3/3
f 239/3/3 236/3/3 235/3/3
f 239/3/3 234/3/3 233/3/3
f 239/3/3 235/3/3 234/3/3
f 240/3/3 239/3/3 238/3/3
f 241/3/3 236/3/3 239/3/3
f 241/3/3 239/3/3 240/3/3
f 242/3/3 236/3/3 241/3/3
f 243/9/3 237/9/3 236/9/3
f 243/3/3 236/3/3 242/3/3
f 244/9/3 226/9/3 237/9/3
f 244/9/3 237/9/3 243/9/3
f 245/9/3 226/9/3 244/9/3
f 246/3/3 242/3/3 241/3/3
f 247/9/3 243/9/3 242/9/3
f 247/3/3 242/3/3 246/3/3
f 247/9/3 244/9/3 243/9/3
f 248/9/3 244/9/3 247/9/3
f 255/3/3 250/3/3 249/3/3
f 256/3/3 250/3/3 255/3/3
f 257/9/3 251/9/3 250/9/3
f 257/3/3 250/3/3 256/3/3
f 258/9/3 251/9/3 257/9/3
f 259/9/3 251/9/3 258/9/3
f 260/5/3 254/5/3 253/5/3
f 260/1/3 253/1/3 252/1/3
f 261/1/3 255/1/3 254/1/3
f 261/5/3 254/5/3 260/5/3
f 262/1/3 255/1/3 261/1/3
f 263/1/3 260/1/3 252/1/3
f 263/1/3 261/1/3 260/1/3
f 264/1/3 261/1/3 263/1/3
f 265/4/3 262/4/3 261/4/3
f 265/1/3 261/1/3 264/1/3
f 266/4/3 262/4/3 265/4/3
f 267/1/3 257/1/3 256/1/3
f 268/1/3 257/1/3 267/1/3
f 269/6/3 264/6/3 263/6/3
f 269/1/3 263/1/3 252/1/3
f 270/1/3 266/1/3 265/1/3
f 270/6/3 264/6/3 269/6/3
f 270/1/3 265/1/3 264/1/3
f 270/1/3 267/1/3 266/1/3
f 271/1/3 267/1/3 270/1/3
f 272/1/3 267/1/3 271/1/3
f 273/1/3 267/1/3 272/1/3
f 274/1/3 269/1/3 252/1/3
f 274/1/3 270/1/3 269/1/3
f 274/1/3 271/1/3 270/1/3
f 275/1/3 271/1/3 274/1/3
f 276/4/3 272/4/3 271/4/3
f 276/1/3 271/1/3 275/1/3
f 277/4/3 272/4/3 276/4/3
f 278/1/3 274/1/3 252/1/3
f 279/5/3 275/5/3 274/5/3
f 279/1/3 274/1/3 278/1/3
f 280/5/3 275/5/3 279/5/3
f 285/3/3 282/3/3 281/3/3
f 286/3/3 282/3/3 285/3/3
f 287/9/3 284/9/3 283/9/3
f 288/9/3 284/9/3 287/9/3
f 296/3/3 290/3/3 289/3/3
f 297/3/3 290/3/3 296/3/3
f 298/3/3 290/3/3 297/3/3
f 299/8/3 295/8/3 294/8/3
f 299/3/3 294/3/3 293/3/3
f 300/8/3 295/8/3 299/8/3
f 301/3/3 292/3/3 291/3/3
f 302/3/3 292/3/3 301/3/3
f 303/3/3 299/3/3 293/3/3
f 303/7/3 300/7/3 299/7/3
f 304/7/3 300/7/3 303/7/3
f 307/3/3 303/3/3 293/3/3
f 307/10/3 304/10/3 303/10/3
f 308/10/3 304/10/3 307/10/3
f 309/3/3 307/3/3 293/3/3
f 309/7/3 308/7/3 307/7/3
f 310/7/3 308/7/3 309/7/3
f 311/3/3 306/3/3 305/3/3
f 312/3/3 306/3/3 311/3/3
f 313/3/3 309/3/3 293/3/3
f 314/8/3 310/8/3 309/8/3
f 314/3/3 309/3/3 313/3/3
f 315/8/3 310/8/3 314/8/3
f 319/3/3 318/3/3 317/3/3
f 319/3/3 317/3/3 316/3/3
f 320/3/3 318/3/3 319/3/3
f 327/1/3 322/1/3 321/1/3
f 328/1/3 322/1/3 327/1/3
f 329/10/3 323/10/3 322/10/3
f 329/1/3 322/1/3 328/1/3
f 330/8/3 324/8/3 323/8/3
f 330/10/3 323/10/3 329/10/3
f 331/8/3 324/8/3 330/8/3
f 332/1/3 326/1/3 325/1/3
f 333/3/3 328/3/3 327/3/3
f 333/1/3 326/1/3 332/1/3
f 333/3/3 327/3/3 326/3/3
f 334/3/3 328/3/3 333/3/3
f 340/1/3 336/1/3 335/1/3
f 341/1/3 336/1/3 340/1/3
f 342/1/3 338/1/3 337/1/3
f 343/3/3 339/3/3 338/3/3
f 343/1/3 338/1/3 342/1/3
f 344/3/3 339/3/3 343/3/3
f 345/3/3 339/3/3 344/3/3
f 349/1/3 345/1/3 344/1/3
f 349/1/3 346/1/3 345/1/3
f 350/10/3 347/10/3 346/10/3
f 350/1/3 346/1/3 349/1/3
f 351/8/3 348/8/3 347/8/3
f 351/10/3 347/10/3 350/10/3
f 352/8/3 348/8/3 351/8/3
f 355/3/3 354/3/3 353/3/3
f 356/3/3 354/3/3 355/3/3
f 357/3/3 354/3/3 356/3/3
f 361/3/3 359/3/3 358/3/3
f 361/3/3 360/3/3 359/3/3
f 362/3/3 360/3/3 361/3/3
f 365/3/3 364/3/3 363/3/3
f 366/3/3 364/3/3 365/3/3
f 369/8/4 370/8/4 371/8/4
f 367/1/4 368/1/4 375/1/4
f 375/1/4 368/1/4 376/1/4
f 368/10/4 369/10/4 377/10/4
f 376/1/4 368/1/4 377/1/4
f 369/8/4 371/8/4 378/8/4
f 377/10/4 369/10/4 378/10/4
f 378/8/4 371/8/4 379/8/4
f 372/3/4 373/3/4 380/3/4
f 373/1/4 374/1/4 381/1/4
f 380/3/4 373/3/4 381/3/4
f 375/3/4 376/3/4 382/3/4
f 381/1/4 374/1/4 382/1/4
f 374/3/4 375/3/4 382/3/4
f 382/3/4 376/3/4 383/3/4
f 384/1/4 385/1/4 390/1/4
f 390/1/4 385/1/4 391/1/4
f 386/3/4 387/3/4 392/3/4
f 387/1/4 388/1/4 393/1/4
f 392/3/4 387/3/4 393/3/4
f 388/3/4 389/3/4 394/3/4
f 393/1/4 388/1/4 394/1/4
f 394/3/4 389/3/4 395/3/4
f 395/3/4 389/3/4 396/3/4
f 398/8/4 399/8/4 400/8/4
f 396/1/4 397/1/4 401/1/4
f 395/1/4 396/1/4 401/1/4
f 397/10/4 398/10/4 402/10/4
f 401/1/4 397/1/4 402/1/4
f 398/8/4 400/8/4 403/8/4
f 402/10/4 398/10/4 403/10/4
f 403/8/4 400/8/4 404/8/4
f 408/9/4 409/9/4 410/9/4
f 410/9/4 409/9/4 411/9/4
f 405/3/4 406/3/4 412/3/4
f 406/8/4 407/8/4 413/8/4
f 412/3/4 406/3/4 413/3/4
f 413/8/4 407/8/4 414/8/4
f 415/9/4 416/9/4 417/9/4
f 417/9/4 416/9/4 418/9/4
f 419/3/4 420/3/4 422/3/4
f 420/9/4 421/9/4 422/9/4
f 422/9/4 421/9/4 423/9/4
f 423/9/4 421/9/4 424/9/4
f 419/3/4 422/3/4 426/3/4
f 422/3/4 423/3/4 426/3/4
f 424/9/4 425/9/4 427/9/4
f 426/3/4 423/3/4 427/3/4
f 423/9/4 424/9/4 427/9/4
f 426/9/4 427/9/4 428/9/4
f 427/9/4 425/9/4 428/9/4
f 428/9/4 425/9/4 429/9/4
f 419/3/4 426/3/4 430/3/4
f 426/9/4 428/9/4 431/9/4
f 430/3/4 426/3/4 431/3/4
f 431/9/4 428/9/4 432/9/4
f 437/3/5 434/3/5 433/3/5
f 438/3/5 434/3/5 437/3/5
f 439/3/5 436/3/5 435/3/5
f 440/3/5 436/3/5 439/3/5
f 445/1/5 442/1/5 441/1/5
f 446/1/5 442/1/5 445/1/5
f 447/1/5 444/1/5 443/1/5
f 448/1/5 444/1/5 447/1/5
f 451/3/5 450/3/5 449/3/5
f 452/3/5 450/3/5 451/3/5
f 453/3/5 450/3/5 452/3/5
f 454/3/5 450/3/5 453/3/5
f 456/3/5 453/3/5 452/3/5
f 457/3/5 453/3/5 456/3/5
f 459/3/5 456/3/5 455/3/5
f 459/3/5 458/3/5 457/3/5
f 459/3/5 457/3/5 456/3/5
f 460/3/5 458/3/5 459/3/5
f 465/3/5 462/3/5 461/3/5
f 466/3/5 464/3/5 463/3/5
f 467/3/5 465/3/5 461/3/5
f 467/3/5 466/3/5 465/3/5
f 468/3/5 464/3/5 466/3/5
f 468/3/5 466/3/5 467/3/5
f 471/1/5 470/1/5 469/1/5
f 472/1/5 470/1/5 471/1/5
f 473/1/5 471/1/5 469/1/5
f 474/1/5 470/1/5 472/1/5
f 475/1/5 471/1/5 473/1/5
f 476/1/5 474/1/5 472/1/5
f 477/1/5 475/1/5 473/1/5
f 477/1/5 476/1/5 475/1/5
f 478/1/5 474/1/5 476/1/5
f 478/1/5 476/1/5 477/1/5
f 483/3/5 480/3/5 479/3/5
f 484/3/5 480/3/5 483/3/5
f 485/3/5 482/3/5 481/3/5
f 486/3/5 482/3/5 485/3/5
f 487/2/5 484/2/5 483/2/5
f 488/2/5 484/2/5 487/2/5
f 489/2/5 486/2/5 485/2/5
f 490/2/5 486/2/5 489/2/5
f 493/3/5 492/3/5 491/3/5
f 494/3/5 492/3/5 493/3/5
f 500/3/5 496/3/5 495/3/5
f 501/3/5 496/3/5 500/3/5
f 502/3/5 496/3/5 501/3/5
f 503/3/5 498/3/5 497/3/5
f 504/3/5 498/3/5 503/3/5
f 507/3/5 500/3/5 499/3/5
f 508/3/5 500/3/5 507/3/5
f 509/3/5 506/3/5 505/3/5
f 510/3/5 506/3/5 509/3/5
f 515/3/5 512/3/5 511/3/5
f 516/3/5 512/3/5 515/3/5
f 517/3/5 514/3/5 513/3/5
f 518/3/5 514/3/5 517/3/5
f 521/3/5 520/3/5 519/3/5
f 522/3/5 520/3/5 521/3/5
f 523/3/6 524/3/6 527/3/6
f 527/3/6 524/3/6 528/3/6
f 525/3/6 526/3/6 529/3/6
f 529/3/6 526/3/6 530/3/6
f 531/8/6 532/8/6 538/8/6
f 532/7/6 533/7/6 539/7/6
f 538/8/6 532/8/6 539/8/6
f 533/10/6 534/10/6 540/10/6
f 539/7/6 533/7/6 540/7/6
f 534/7/6 535/7/6 541/7/6
f 540/10/6 534/10/6 541/10/6
f 535/8/6 536/8/6 542/8/6
f 541/7/6 535/7/6 542/7/6
f 542/8/6 536/8/6 543/8/6
f 537/8/6 538/8/6 545/8/6
f 538/8/6 539/8/6 545/8/6
f 539/8/6 540/8/6 545/8/6
f 545/8/6 540/8/6 546/8/6
f 543/8/6 544/8/6 547/8/6
f 542/8/6 543/8/6 547/8/6
f 541/8/6 542/8/6 547/8/6
f 547/8/6 544/8/6 548/8/6
f 537/8/6 545/8/6 549/8/6
f 549/8/6 545/8/6 550/8/6
f 546/8/6 540/8/6 551/8/6
f 541/8/6 547/8/6 552/8/6
f 548/8/6 544/8/6 553/8/6
f 553/8/6 544/8/6 554/8/6
f 551/8/6 552/8/6 555/8/6
f 546/8/6 551/8/6 555/8/6
f 552/8/6 547/8/6 556/8/6
f 555/8/6 552/8/6 556/8/6
f 557/3/6 558/3/6 559/3/6
f 559/3/6 558/3/6 560/3/6
f 561/9/6 562/9/6 565/9/6
f 565/9/6 562/9/6 566/9/6
f 563/9/6 564/9/6 567/9/6
f 563/9/6 567/9/6 568/9/6
f 568/9/6 567/9/6 569/9/6
f 568/10/6 569/10/6 570/10/6
f 570/10/6 569/10/6 571/10/6
f 570/9/6 571/9/6 572/9/6
f 570/9/6 572/9/6 576/9/6
f 572/9/6 573/9/6 576/9/6
f 576/9/6 573/9/6 577/9/6
f 574/9/6 575/9/6 578/9/6
f 578/9/6 575/9/6 579/9/6
f 580/9/6 581/9/6 582/9/6
f 580/9/6 582/9/6 584/9/6
f 582/9/6 583/9/6 584/9/6
f 584/9/6 583/9/6 585/9/6
f 584/10/6 585/10/6 586/10/6
f 586/10/6 585/10/6 587/10/6
f 586/9/6 587/9/6 588/9/6
f 588/9/6 587/9/6 589/9/6
f 589/9/6 587/9/6 590/9/6
f 590/9/6 587/9/6 591/9/6
f 589/9/6 590/9/6 592/9/6
f 592/9/6 590/9/6 593/9/6
