# MagicaVoxel @ Ephtracy

# group
o 

# material
mtllib Character-19.mtl
usemtl palette

# normals
vn -1 0 0
vn 1 0 0
vn 0 0 1
vn 0 0 -1
vn 0 -1 0
vn 0 1 0

# texcoords
vt 0.0371094 0.5
vt 0.0488281 0.5
vt 0.474609 0.5
vt 0.501953 0.5
vt 0.505859 0.5
vt 0.513672 0.5
vt 0.521484 0.5
vt 0.525391 0.5
vt 0.697266 0.5
vt 0.775391 0.5
vt 0.873047 0.5
vt 0.935547 0.5
vt 0.974609 0.5

# verts
v -5.4 0.9 3.8
v -5.4 0.9 3.6
v -5.4 0.9 3.1
v -5.4 1.1 3.8
v -5.4 1.1 3.6
v -5.4 1.1 3.3
v -5.4 1.4 3.3
v -5.4 1.4 3.1
v -5.3 1.1 3.8
v -5.3 1.1 3.7
v -5.3 1.4 3.8
v -5.3 1.4 3.7
v -5.3 1.6 3.3
v -5.3 1.6 3.2
v -5.3 1.6 2.9
v -5.3 1.7 3.6
v -5.3 1.7 3.5
v -5.3 1.7 3.4
v -5.3 1.7 3.3
v -5.3 1.9 3.6
v -5.3 1.9 3.5
v -5.3 1.9 3.4
v -5.3 1.9 3.3
v -5.3 1.9 3.2
v -5.3 2 3.6
v -5.3 2 3.5
v -5.3 2.4 3.5
v -5.3 2.4 2.9
v -5.2 0 3.4
v -5.2 0 3.1
v -5.2 0.1 3.4
v -5.2 0.1 3.3
v -5.2 0.1 3.1
v -5.2 0.2 3.3
v -5.2 0.2 3.1
v -5.2 0.7 3.4
v -5.2 0.7 3.3
v -5.2 0.7 3.1
v -5.2 0.7 3
v -5.2 0.8 3.4
v -5.2 0.8 3.3
v -5.2 0.8 3.1
v -5.2 0.8 3
v -5.2 0.9 3.4
v -5.2 0.9 3.1
v -5.2 1.1 3.4
v -5.2 1.1 3.3
v -5.2 1.4 3.4
v -5.2 1.4 3.3
v -5.2 1.4 3.1
v -5.2 1.4 3
v -5.2 1.5 3.5
v -5.2 1.5 3.3
v -5.2 1.5 3
v -5.2 1.6 3.3
v -5.2 1.6 3.2
v -5.2 1.6 3
v -5.2 1.7 3.5
v -5.2 1.7 3.4
v -5.2 1.7 3.3
v -5.2 1.9 3.5
v -5.2 1.9 3.4
v -5.2 2.1 3.7
v -5.2 2.1 3.5
v -5.2 2.4 3.7
v -5.2 2.4 3.6
v -5.2 2.4 3.5
v -5.2 2.4 2.9
v -5.2 2.5 3.6
v -5.2 2.5 2.9
v -5 1.4 3.3
v -5 1.4 3.1
v -5 1.5 3.3
v -5 1.5 3.1
v -4.8 0 3.4
v -4.8 0 3.1
v -4.8 0.1 3.4
v -4.8 0.1 3.3
v -4.8 0.1 3.1
v -4.8 0.2 3.3
v -4.8 0.2 3.1
v -4.8 0.7 3.3
v -4.8 0.7 3.1
v -4.8 1.7 3.6
v -4.8 1.7 3.5
v -4.8 1.8 3.6
v -4.8 1.8 3.5
v -4.8 1.9 3.6
v -4.8 1.9 3.5
v -4.8 2 3.6
v -4.8 2 3.5
v -5.2 0.9 3.7
v -5.2 0.9 3.6
v -5.2 0.9 3.4
v -5.2 1.1 3.7
v -5.2 1.1 3.6
v -5.2 1.1 3.4
v -5 0 3.4
v -5 0 3.1
v -5 0.1 3.4
v -5 0.1 3.3
v -5 0.1 3.1
v -5 0.2 3.3
v -5 0.2 3.1
v -5 0.7 3.3
v -5 0.7 3.1
v -5 0.9 3.8
v -5 0.9 3.7
v -5 1.4 3.8
v -5 1.4 3.7
v -5 1.7 3.6
v -5 1.7 3.5
v -5 1.8 3.6
v -5 1.8 3.5
v -5 1.9 3.6
v -5 1.9 3.5
v -5 2 3.6
v -5 2 3.5
v -4.8 1.4 3.3
v -4.8 1.4 3.1
v -4.8 1.5 3.3
v -4.8 1.5 3.1
v -4.8 2.1 3.7
v -4.8 2.1 3.5
v -4.8 2.2 3.6
v -4.8 2.2 3.5
v -4.8 2.4 3.7
v -4.8 2.4 3.6
v -4.8 2.4 3.5
v -4.8 2.5 3.6
v -4.8 2.5 3.5
v -4.6 0 3.4
v -4.6 0 3.1
v -4.6 0.1 3.4
v -4.6 0.1 3.3
v -4.6 0.1 3.1
v -4.6 0.2 3.3
v -4.6 0.2 3.1
v -4.6 0.6 3.3
v -4.6 0.6 3.1
v -4.6 0.7 3.4
v -4.6 0.7 3.3
v -4.6 0.7 3.1
v -4.6 0.7 3
v -4.6 0.8 3.4
v -4.6 0.8 3.3
v -4.6 0.8 3.1
v -4.6 0.8 3
v -4.6 1.4 3.4
v -4.6 1.4 3.3
v -4.6 1.4 3.1
v -4.6 1.4 3
v -4.6 1.5 3.5
v -4.6 1.5 3.3
v -4.6 1.5 3
v -4.6 1.6 3.3
v -4.6 1.6 3.2
v -4.6 1.6 3
v -4.6 1.7 3.5
v -4.6 1.7 3.4
v -4.6 1.7 3.3
v -4.6 1.9 3.5
v -4.6 1.9 3.4
v -4.6 2.2 3.6
v -4.6 2.2 3.5
v -4.6 2.4 3.6
v -4.6 2.4 3.5
v -4.6 2.4 3.4
v -4.6 2.4 3
v -4.6 2.4 2.9
v -4.6 2.5 3.5
v -4.6 2.5 3.4
v -4.6 2.5 3
v -4.6 2.5 2.9
v -4.5 1.6 3.3
v -4.5 1.6 3.2
v -4.5 1.6 2.9
v -4.5 1.7 3.6
v -4.5 1.7 3.5
v -4.5 1.7 3.4
v -4.5 1.7 3.3
v -4.5 1.9 3.6
v -4.5 1.9 3.5
v -4.5 1.9 3.4
v -4.5 1.9 3.3
v -4.5 1.9 3.2
v -4.5 2 3.6
v -4.5 2 3.5
v -4.5 2.4 3.5
v -4.5 2.4 3.4
v -4.5 2.4 3
v -4.5 2.4 2.9
v -4.5 2.5 3.4
v -4.5 2.5 3
v -4.4 0.6 3.3
v -4.4 0.6 3.1
v -4.4 0.8 3.3
v -4.4 0.8 3.1
v -4.4 1.4 3.3
v -4.4 1.4 3.1
v -5.4 0.9 3.8
v -5.4 1.1 3.8
v -5.3 1.1 3.8
v -5.3 1.4 3.8
v -5.2 0.9 3.8
v -5.2 1.1 3.8
v -5 0.9 3.8
v -5 1.4 3.8
v -5.2 2.1 3.7
v -5.2 2.4 3.7
v -4.8 2.1 3.7
v -4.8 2.4 3.7
v -5.3 1.7 3.6
v -5.3 1.9 3.6
v -5.3 2 3.6
v -5.2 2.4 3.6
v -5.2 2.5 3.6
v -5 1.7 3.6
v -5 1.8 3.6
v -5 1.9 3.6
v -5 2 3.6
v -4.8 1.7 3.6
v -4.8 1.8 3.6
v -4.8 1.9 3.6
v -4.8 2 3.6
v -4.8 2.2 3.6
v -4.8 2.4 3.6
v -4.8 2.5 3.6
v -4.6 2.2 3.6
v -4.6 2.4 3.6
v -4.5 1.7 3.6
v -4.5 1.9 3.6
v -4.5 2 3.6
v -5.3 2 3.5
v -5.3 2.4 3.5
v -5.2 1.5 3.5
v -5.2 1.7 3.5
v -5.2 2 3.5
v -5.2 2.1 3.5
v -5.2 2.4 3.5
v -5 1.5 3.5
v -5 1.6 3.5
v -5 1.7 3.5
v -5 1.8 3.5
v -5 1.9 3.5
v -5 2 3.5
v -4.8 1.5 3.5
v -4.8 1.6 3.5
v -4.8 1.7 3.5
v -4.8 1.8 3.5
v -4.8 1.9 3.5
v -4.8 2 3.5
v -4.8 2.1 3.5
v -4.8 2.2 3.5
v -4.8 2.4 3.5
v -4.8 2.5 3.5
v -4.6 1.5 3.5
v -4.6 1.7 3.5
v -4.6 2 3.5
v -4.6 2.2 3.5
v -4.6 2.4 3.5
v -4.6 2.5 3.5
v -4.5 2 3.5
v -4.5 2.4 3.5
v -5.3 1.7 3.4
v -5.3 1.9 3.4
v -5.2 0 3.4
v -5.2 0.1 3.4
v -5.2 0.7 3.4
v -5.2 0.8 3.4
v -5.2 0.9 3.4
v -5.2 1.1 3.4
v -5.2 1.4 3.4
v -5.2 1.7 3.4
v -5.2 1.9 3.4
v -5 0 3.4
v -5 0.1 3.4
v -5 0.8 3.4
v -5 0.9 3.4
v -5 1 3.4
v -5 1.1 3.4
v -5 1.2 3.4
v -5 1.3 3.4
v -5 1.4 3.4
v -4.8 0 3.4
v -4.8 0.1 3.4
v -4.8 0.8 3.4
v -4.8 0.9 3.4
v -4.8 1 3.4
v -4.8 1.1 3.4
v -4.8 1.2 3.4
v -4.8 1.3 3.4
v -4.8 1.4 3.4
v -4.6 0 3.4
v -4.6 0.1 3.4
v -4.6 0.7 3.4
v -4.6 0.8 3.4
v -4.6 1.4 3.4
v -4.6 1.7 3.4
v -4.6 1.9 3.4
v -4.6 2.4 3.4
v -4.6 2.5 3.4
v -4.5 1.7 3.4
v -4.5 1.9 3.4
v -4.5 2.4 3.4
v -4.5 2.5 3.4
v -5.4 1.1 3.3
v -5.4 1.4 3.3
v -5.3 1.6 3.3
v -5.3 1.7 3.3
v -5.2 0.1 3.3
v -5.2 0.2 3.3
v -5.2 0.7 3.3
v -5.2 1.1 3.3
v -5.2 1.4 3.3
v -5.2 1.6 3.3
v -5.2 1.7 3.3
v -5 0.1 3.3
v -5 0.2 3.3
v -5 0.7 3.3
v -5 1.4 3.3
v -5 1.5 3.3
v -4.8 0.1 3.3
v -4.8 0.2 3.3
v -4.8 0.7 3.3
v -4.8 1.4 3.3
v -4.8 1.5 3.3
v -4.6 0.1 3.3
v -4.6 0.2 3.3
v -4.6 0.6 3.3
v -4.6 0.7 3.3
v -4.6 0.8 3.3
v -4.6 1.4 3.3
v -4.6 1.6 3.3
v -4.6 1.7 3.3
v -4.5 1.6 3.3
v -4.5 1.7 3.3
v -4.4 0.6 3.3
v -4.4 0.8 3.3
v -4.4 1.4 3.3
v -5.3 1.1 3.7
v -5.3 1.4 3.7
v -5.2 0.9 3.7
v -5.2 1.1 3.7
v -5 0.9 3.7
v -5 1.4 3.7
v -5.3 1.7 3.5
v -5.3 1.9 3.5
v -5.2 1.7 3.5
v -5.2 1.9 3.5
v -4.6 1.7 3.5
v -4.6 1.9 3.5
v -4.5 1.7 3.5
v -4.5 1.9 3.5
v -5.4 0.9 3.1
v -5.4 1.4 3.1
v -5.2 0 3.1
v -5.2 0.1 3.1
v -5.2 0.2 3.1
v -5.2 0.7 3.1
v -5.2 0.9 3.1
v -5.2 1.4 3.1
v -5 0 3.1
v -5 0.1 3.1
v -5 0.2 3.1
v -5 0.7 3.1
v -5 1.4 3.1
v -5 1.5 3.1
v -4.8 0 3.1
v -4.8 0.1 3.1
v -4.8 0.2 3.1
v -4.8 0.7 3.1
v -4.8 1.4 3.1
v -4.8 1.5 3.1
v -4.6 0 3.1
v -4.6 0.1 3.1
v -4.6 0.2 3.1
v -4.6 0.6 3.1
v -4.6 0.7 3.1
v -4.6 0.8 3.1
v -4.6 1.4 3.1
v -4.4 0.6 3.1
v -4.4 0.8 3.1
v -4.4 1.4 3.1
v -5.2 0.7 3
v -5.2 0.8 3
v -5.2 1.4 3
v -5.2 1.5 3
v -5.2 1.6 3
v -4.6 0.7 3
v -4.6 0.8 3
v -4.6 1.4 3
v -4.6 1.5 3
v -4.6 1.6 3
v -4.6 2.4 3
v -4.6 2.5 3
v -4.5 2.4 3
v -4.5 2.5 3
v -5.3 1.6 2.9
v -5.3 2.4 2.9
v -5.2 2.4 2.9
v -5.2 2.5 2.9
v -4.6 2.4 2.9
v -4.6 2.5 2.9
v -4.5 1.6 2.9
v -4.5 2.4 2.9
v -5.2 0 3.4
v -5 0 3.4
v -4.8 0 3.4
v -4.6 0 3.4
v -5.2 0 3.1
v -5 0 3.1
v -4.8 0 3.1
v -4.6 0 3.1
v -4.6 0.6 3.3
v -4.4 0.6 3.3
v -4.6 0.6 3.1
v -4.4 0.6 3.1
v -5.2 0.7 3.4
v -4.6 0.7 3.4
v -5.2 0.7 3.3
v -5 0.7 3.3
v -4.8 0.7 3.3
v -4.6 0.7 3.3
v -5.2 0.7 3.1
v -5 0.7 3.1
v -4.8 0.7 3.1
v -4.6 0.7 3.1
v -5.2 0.7 3
v -4.6 0.7 3
v -5.4 0.9 3.8
v -5.2 0.9 3.8
v -5 0.9 3.8
v -5.2 0.9 3.7
v -5 0.9 3.7
v -5.4 0.9 3.6
v -5.2 0.9 3.6
v -5.2 0.9 3.4
v -5.4 0.9 3.1
v -5.2 0.9 3.1
v -5.2 1.5 3.5
v -5 1.5 3.5
v -4.8 1.5 3.5
v -4.6 1.5 3.5
v -5 1.5 3.4
v -4.8 1.5 3.4
v -5.2 1.5 3.3
v -5 1.5 3.3
v -4.8 1.5 3.3
v -4.6 1.5 3.3
v -5 1.5 3.1
v -4.8 1.5 3.1
v -5.2 1.5 3
v -4.6 1.5 3
v -5.3 1.6 3.3
v -5.2 1.6 3.3
v -4.6 1.6 3.3
v -4.5 1.6 3.3
v -5.3 1.6 3.2
v -5.2 1.6 3.2
v -4.6 1.6 3.2
v -4.5 1.6 3.2
v -5.2 1.6 3
v -4.6 1.6 3
v -5.3 1.6 2.9
v -4.5 1.6 2.9
v -5.3 1.7 3.6
v -5 1.7 3.6
v -4.8 1.7 3.6
v -4.5 1.7 3.6
v -5.3 1.7 3.5
v -5.2 1.7 3.5
v -5 1.7 3.5
v -4.8 1.7 3.5
v -4.6 1.7 3.5
v -4.5 1.7 3.5
v -5.3 1.7 3.4
v -5.2 1.7 3.4
v -4.6 1.7 3.4
v -4.5 1.7 3.4
v -5.3 1.7 3.3
v -5.2 1.7 3.3
v -4.6 1.7 3.3
v -4.5 1.7 3.3
v -5 1.8 3.6
v -4.8 1.8 3.6
v -5 1.8 3.5
v -4.8 1.8 3.5
v -5.3 1.9 3.5
v -5.2 1.9 3.5
v -4.6 1.9 3.5
v -4.5 1.9 3.5
v -5.3 1.9 3.4
v -5.2 1.9 3.4
v -4.6 1.9 3.4
v -4.5 1.9 3.4
v -5.2 2.1 3.7
v -4.8 2.1 3.7
v -5.2 2.1 3.5
v -4.8 2.1 3.5
v -4.8 2.2 3.6
v -4.6 2.2 3.6
v -4.8 2.2 3.5
v -4.6 2.2 3.5
v -5.2 0.1 3.4
v -5 0.1 3.4
v -4.8 0.1 3.4
v -4.6 0.1 3.4
v -5.2 0.1 3.3
v -5 0.1 3.3
v -4.8 0.1 3.3
v -4.6 0.1 3.3
v -5.4 1.1 3.8
v -5.3 1.1 3.8
v -5.3 1.1 3.7
v -5.2 1.1 3.7
v -5.4 1.1 3.6
v -5.2 1.1 3.6
v -5.2 1.1 3.4
v -5.4 1.1 3.3
v -5.2 1.1 3.3
v -5.3 1.4 3.8
v -5 1.4 3.8
v -5.3 1.4 3.7
v -5 1.4 3.7
v -5.2 1.4 3.4
v -5 1.4 3.4
v -4.8 1.4 3.4
v -4.6 1.4 3.4
v -5.4 1.4 3.3
v -5.2 1.4 3.3
v -5 1.4 3.3
v -4.8 1.4 3.3
v -4.6 1.4 3.3
v -4.4 1.4 3.3
v -5.4 1.4 3.1
v -5.2 1.4 3.1
v -5 1.4 3.1
v -4.8 1.4 3.1
v -4.6 1.4 3.1
v -4.4 1.4 3.1
v -5.2 1.4 3
v -4.6 1.4 3
v -5 1.9 3.6
v -4.8 1.9 3.6
v -5 1.9 3.5
v -4.8 1.9 3.5
v -5.3 2 3.6
v -5 2 3.6
v -4.8 2 3.6
v -4.5 2 3.6
v -5.3 2 3.5
v -5.2 2 3.5
v -5 2 3.5
v -4.8 2 3.5
v -4.6 2 3.5
v -4.5 2 3.5
v -5.2 2.4 3.7
v -4.8 2.4 3.7
v -5.2 2.4 3.6
v -4.8 2.4 3.6
v -4.6 2.4 3.6
v -5.3 2.4 3.5
v -5.2 2.4 3.5
v -4.8 2.4 3.5
v -4.6 2.4 3.5
v -4.5 2.4 3.5
v -4.6 2.4 3.4
v -4.5 2.4 3.4
v -4.6 2.4 3
v -4.5 2.4 3
v -5.3 2.4 2.9
v -5.2 2.4 2.9
v -4.6 2.4 2.9
v -4.5 2.4 2.9
v -5.2 2.5 3.6
v -4.8 2.5 3.6
v -4.8 2.5 3.5
v -4.6 2.5 3.5
v -4.6 2.5 3.4
v -4.5 2.5 3.4
v -4.6 2.5 3
v -4.5 2.5 3
v -5.2 2.5 2.9
v -4.6 2.5 2.9

# faces
f 4/1/1 2/1/1 1/1/1
f 5/8/1 3/8/1 2/8/1
f 5/1/1 2/1/1 4/1/1
f 6/8/1 3/8/1 5/8/1
f 7/8/1 3/8/1 6/8/1
f 8/8/1 3/8/1 7/8/1
f 11/7/1 10/7/1 9/7/1
f 12/7/1 10/7/1 11/7/1
f 19/2/1 14/2/1 13/2/1
f 20/9/1 17/9/1 16/9/1
f 21/9/1 17/9/1 20/9/1
f 22/8/1 19/8/1 18/8/1
f 23/2/1 14/2/1 19/2/1
f 23/8/1 19/8/1 22/8/1
f 24/8/1 15/8/1 14/8/1
f 24/2/1 14/2/1 23/2/1
f 25/8/1 21/8/1 20/8/1
f 25/8/1 23/8/1 22/8/1
f 25/8/1 24/8/1 23/8/1
f 25/8/1 22/8/1 21/8/1
f 26/8/1 24/8/1 25/8/1
f 27/8/1 24/8/1 26/8/1
f 28/8/1 15/8/1 24/8/1
f 28/8/1 24/8/1 27/8/1
f 31/8/1 30/8/1 29/8/1
f 32/8/1 30/8/1 31/8/1
f 33/8/1 30/8/1 32/8/1
f 34/4/1 33/4/1 32/4/1
f 35/4/1 33/4/1 34/4/1
f 37/5/1 35/5/1 34/5/1
f 38/5/1 35/5/1 37/5/1
f 40/5/1 37/5/1 36/5/1
f 41/6/1 38/6/1 37/6/1
f 41/5/1 37/5/1 40/5/1
f 42/5/1 39/5/1 38/5/1
f 42/6/1 38/6/1 41/6/1
f 43/5/1 39/5/1 42/5/1
f 44/8/1 41/8/1 40/8/1
f 44/8/1 42/8/1 41/8/1
f 44/8/1 43/8/1 42/8/1
f 45/8/1 43/8/1 44/8/1
f 48/8/1 47/8/1 46/8/1
f 49/8/1 47/8/1 48/8/1
f 50/8/1 43/8/1 45/8/1
f 51/8/1 43/8/1 50/8/1
f 55/8/1 53/8/1 52/8/1
f 55/1/1 54/1/1 53/1/1
f 56/1/1 54/1/1 55/1/1
f 57/1/1 54/1/1 56/1/1
f 58/8/1 55/8/1 52/8/1
f 59/8/1 55/8/1 58/8/1
f 60/8/1 55/8/1 59/8/1
f 61/1/1 59/1/1 58/1/1
f 62/1/1 59/1/1 61/1/1
f 65/8/1 64/8/1 63/8/1
f 66/8/1 64/8/1 65/8/1
f 67/8/1 64/8/1 66/8/1
f 69/8/1 67/8/1 66/8/1
f 69/8/1 68/8/1 67/8/1
f 70/8/1 68/8/1 69/8/1
f 73/1/1 72/1/1 71/1/1
f 74/1/1 72/1/1 73/1/1
f 77/8/1 76/8/1 75/8/1
f 78/8/1 76/8/1 77/8/1
f 79/8/1 76/8/1 78/8/1
f 80/4/1 79/4/1 78/4/1
f 81/4/1 79/4/1 80/4/1
f 82/5/1 81/5/1 80/5/1
f 83/5/1 81/5/1 82/5/1
f 86/9/1 85/9/1 84/9/1
f 87/9/1 85/9/1 86/9/1
f 90/8/1 89/8/1 88/8/1
f 91/8/1 89/8/1 90/8/1
f 92/1/2 93/1/2 95/1/2
f 93/8/2 94/8/2 96/8/2
f 95/1/2 93/1/2 96/1/2
f 96/8/2 94/8/2 97/8/2
f 98/8/2 99/8/2 100/8/2
f 100/8/2 99/8/2 101/8/2
f 101/8/2 99/8/2 102/8/2
f 101/4/2 102/4/2 103/4/2
f 103/4/2 102/4/2 104/4/2
f 103/5/2 104/5/2 105/5/2
f 105/5/2 104/5/2 106/5/2
f 107/7/2 108/7/2 109/7/2
f 109/7/2 108/7/2 110/7/2
f 111/9/2 112/9/2 113/9/2
f 113/9/2 112/9/2 114/9/2
f 115/8/2 116/8/2 117/8/2
f 117/8/2 116/8/2 118/8/2
f 119/1/2 120/1/2 121/1/2
f 121/1/2 120/1/2 122/1/2
f 123/8/2 124/8/2 125/8/2
f 125/8/2 124/8/2 126/8/2
f 123/8/2 125/8/2 127/8/2
f 127/8/2 125/8/2 128/8/2
f 128/8/2 129/8/2 130/8/2
f 130/8/2 129/8/2 131/8/2
f 132/8/2 133/8/2 134/8/2
f 134/8/2 133/8/2 135/8/2
f 135/8/2 133/8/2 136/8/2
f 135/4/2 136/4/2 137/4/2
f 137/4/2 136/4/2 138/4/2
f 137/5/2 138/5/2 139/5/2
f 139/5/2 138/5/2 140/5/2
f 141/5/2 142/5/2 145/5/2
f 145/5/2 142/5/2 146/5/2
f 143/5/2 144/5/2 147/5/2
f 147/5/2 144/5/2 148/5/2
f 145/8/2 146/8/2 149/8/2
f 149/8/2 146/8/2 150/8/2
f 147/8/2 148/8/2 151/8/2
f 151/8/2 148/8/2 152/8/2
f 153/8/2 154/8/2 156/8/2
f 154/1/2 155/1/2 156/1/2
f 156/1/2 155/1/2 157/1/2
f 157/1/2 155/1/2 158/1/2
f 153/8/2 156/8/2 159/8/2
f 159/8/2 156/8/2 160/8/2
f 160/8/2 156/8/2 161/8/2
f 159/1/2 160/1/2 162/1/2
f 162/1/2 160/1/2 163/1/2
f 164/8/2 165/8/2 166/8/2
f 166/8/2 165/8/2 167/8/2
f 167/8/2 168/8/2 171/8/2
f 171/8/2 168/8/2 172/8/2
f 169/8/2 170/8/2 173/8/2
f 173/8/2 170/8/2 174/8/2
f 175/2/2 176/2/2 181/2/2
f 178/9/2 179/9/2 182/9/2
f 182/9/2 179/9/2 183/9/2
f 180/8/2 181/8/2 184/8/2
f 181/2/2 176/2/2 185/2/2
f 184/8/2 181/8/2 185/8/2
f 176/8/2 177/8/2 186/8/2
f 185/2/2 176/2/2 186/2/2
f 182/8/2 183/8/2 187/8/2
f 184/8/2 185/8/2 187/8/2
f 185/8/2 186/8/2 187/8/2
f 183/8/2 184/8/2 187/8/2
f 187/8/2 186/8/2 188/8/2
f 188/8/2 186/8/2 189/8/2
f 189/8/2 186/8/2 190/8/2
f 186/8/2 177/8/2 191/8/2
f 190/8/2 186/8/2 191/8/2
f 191/8/2 177/8/2 192/8/2
f 190/8/2 191/8/2 193/8/2
f 193/8/2 191/8/2 194/8/2
f 195/1/2 196/1/2 197/1/2
f 197/1/2 196/1/2 198/1/2
f 197/8/2 198/8/2 199/8/2
f 199/8/2 198/8/2 200/8/2
f 203/1/3 202/1/3 201/1/3
f 205/1/3 203/1/3 201/1/3
f 206/7/3 204/7/3 203/7/3
f 206/1/3 203/1/3 205/1/3
f 207/7/3 206/7/3 205/7/3
f 208/7/3 204/7/3 206/7/3
f 208/7/3 206/7/3 207/7/3
f 211/8/3 210/8/3 209/8/3
f 212/8/3 210/8/3 211/8/3
f 218/9/3 214/9/3 213/9/3
f 219/9/3 214/9/3 218/9/3
f 220/8/3 215/8/3 214/8/3
f 220/9/3 214/9/3 219/9/3
f 221/8/3 215/8/3 220/8/3
f 223/8/3 220/8/3 219/8/3
f 224/8/3 220/8/3 223/8/3
f 227/8/3 217/8/3 216/8/3
f 228/8/3 217/8/3 227/8/3
f 229/8/3 227/8/3 226/8/3
f 230/8/3 227/8/3 229/8/3
f 231/9/3 224/9/3 223/9/3
f 231/9/3 223/9/3 222/9/3
f 232/8/3 225/8/3 224/8/3
f 232/9/3 224/9/3 231/9/3
f 233/8/3 225/8/3 232/8/3
f 238/8/3 235/8/3 234/8/3
f 239/8/3 235/8/3 238/8/3
f 240/8/3 235/8/3 239/8/3
f 241/8/3 237/8/3 236/8/3
f 242/8/3 237/8/3 241/8/3
f 243/8/3 237/8/3 242/8/3
f 246/1/3 239/1/3 238/1/3
f 247/13/3 242/13/3 241/13/3
f 248/8/3 243/8/3 242/8/3
f 248/13/3 242/13/3 247/13/3
f 249/1/3 244/1/3 243/1/3
f 249/8/3 243/8/3 248/8/3
f 250/1/3 244/1/3 249/1/3
f 251/1/3 246/1/3 245/1/3
f 252/1/3 239/1/3 246/1/3
f 252/1/3 246/1/3 251/1/3
f 253/1/3 239/1/3 252/1/3
f 257/8/3 248/8/3 247/8/3
f 257/8/3 249/8/3 248/8/3
f 258/8/3 249/8/3 257/8/3
f 259/1/3 254/1/3 253/1/3
f 259/1/3 253/1/3 252/1/3
f 260/1/3 254/1/3 259/1/3
f 261/8/3 256/8/3 255/8/3
f 262/8/3 256/8/3 261/8/3
f 263/8/3 260/8/3 259/8/3
f 263/8/3 261/8/3 260/8/3
f 264/8/3 261/8/3 263/8/3
f 274/8/3 266/8/3 265/8/3
f 275/8/3 266/8/3 274/8/3
f 276/8/3 268/8/3 267/8/3
f 277/8/3 268/8/3 276/8/3
f 278/8/3 273/8/3 272/8/3
f 278/5/3 270/5/3 269/5/3
f 278/8/3 271/8/3 270/8/3
f 278/8/3 272/8/3 271/8/3
f 279/8/3 273/8/3 278/8/3
f 280/8/3 273/8/3 279/8/3
f 281/8/3 273/8/3 280/8/3
f 282/8/3 273/8/3 281/8/3
f 283/8/3 273/8/3 282/8/3
f 284/8/3 273/8/3 283/8/3
f 287/5/3 278/5/3 269/5/3
f 287/3/3 279/3/3 278/3/3
f 288/13/3 280/13/3 279/13/3
f 288/3/3 279/3/3 287/3/3
f 289/12/3 281/12/3 280/12/3
f 289/13/3 280/13/3 288/13/3
f 290/13/3 282/13/3 281/13/3
f 290/12/3 281/12/3 289/12/3
f 291/12/3 283/12/3 282/12/3
f 291/13/3 282/13/3 290/13/3
f 292/13/3 284/13/3 283/13/3
f 292/12/3 283/12/3 291/12/3
f 293/13/3 284/13/3 292/13/3
f 294/8/3 286/8/3 285/8/3
f 295/8/3 286/8/3 294/8/3
f 296/5/3 287/5/3 269/5/3
f 297/8/3 291/8/3 290/8/3
f 297/5/3 287/5/3 296/5/3
f 297/8/3 288/8/3 287/8/3
f 297/8/3 289/8/3 288/8/3
f 297/8/3 293/8/3 292/8/3
f 297/8/3 292/8/3 291/8/3
f 297/8/3 290/8/3 289/8/3
f 298/8/3 293/8/3 297/8/3
f 303/8/3 300/8/3 299/8/3
f 304/8/3 300/8/3 303/8/3
f 305/8/3 302/8/3 301/8/3
f 306/8/3 302/8/3 305/8/3
f 314/8/3 308/8/3 307/8/3
f 315/8/3 308/8/3 314/8/3
f 316/2/3 310/2/3 309/2/3
f 317/2/3 310/2/3 316/2/3
f 318/4/3 312/4/3 311/4/3
f 319/5/3 313/5/3 312/5/3
f 319/4/3 312/4/3 318/4/3
f 320/5/3 313/5/3 319/5/3
f 326/1/3 322/1/3 321/1/3
f 327/1/3 322/1/3 326/1/3
f 328/4/3 324/4/3 323/4/3
f 329/5/3 325/5/3 324/5/3
f 329/4/3 324/4/3 328/4/3
f 330/5/3 325/5/3 329/5/3
f 331/5/3 325/5/3 330/5/3
f 336/2/3 335/2/3 334/2/3
f 337/2/3 335/2/3 336/2/3
f 338/1/3 332/1/3 331/1/3
f 338/1/3 331/1/3 330/1/3
f 339/8/3 333/8/3 332/8/3
f 339/1/3 332/1/3 338/1/3
f 340/8/3 333/8/3 339/8/3
f 341/7/4 342/7/4 344/7/4
f 343/7/4 344/7/4 345/7/4
f 344/7/4 342/7/4 346/7/4
f 345/7/4 344/7/4 346/7/4
f 347/9/4 348/9/4 349/9/4
f 349/9/4 348/9/4 350/9/4
f 351/9/4 352/9/4 353/9/4
f 353/9/4 352/9/4 354/9/4
f 355/8/4 356/8/4 361/8/4
f 361/8/4 356/8/4 362/8/4
f 357/8/4 358/8/4 363/8/4
f 358/4/4 359/4/4 364/4/4
f 363/8/4 358/8/4 364/8/4
f 359/5/4 360/5/4 365/5/4
f 364/4/4 359/4/4 365/4/4
f 365/5/4 360/5/4 366/5/4
f 367/1/4 368/1/4 373/1/4
f 373/1/4 368/1/4 374/1/4
f 369/8/4 370/8/4 375/8/4
f 370/4/4 371/4/4 376/4/4
f 375/8/4 370/8/4 376/8/4
f 371/5/4 372/5/4 377/5/4
f 376/4/4 371/4/4 377/4/4
f 377/5/4 372/5/4 378/5/4
f 378/5/4 372/5/4 379/5/4
f 379/1/4 380/1/4 382/1/4
f 378/1/4 379/1/4 382/1/4
f 380/8/4 381/8/4 383/8/4
f 382/1/4 380/1/4 383/1/4
f 383/8/4 381/8/4 384/8/4
f 385/5/4 386/5/4 390/5/4
f 386/8/4 387/8/4 391/8/4
f 390/5/4 386/5/4 391/5/4
f 391/8/4 387/8/4 392/8/4
f 388/1/4 389/1/4 393/1/4
f 393/1/4 389/1/4 394/1/4
f 395/8/4 396/8/4 397/8/4
f 397/8/4 396/8/4 398/8/4
f 399/8/4 400/8/4 401/8/4
f 399/8/4 401/8/4 403/8/4
f 401/8/4 402/8/4 403/8/4
f 403/8/4 402/8/4 404/8/4
f 399/8/4 403/8/4 405/8/4
f 405/8/4 403/8/4 406/8/4
f 411/8/5 408/8/5 407/8/5
f 412/8/5 408/8/5 411/8/5
f 413/8/5 410/8/5 409/8/5
f 414/8/5 410/8/5 413/8/5
f 417/1/5 416/1/5 415/1/5
f 418/1/5 416/1/5 417/1/5
f 421/5/5 420/5/5 419/5/5
f 422/5/5 420/5/5 421/5/5
f 423/5/5 420/5/5 422/5/5
f 424/5/5 420/5/5 423/5/5
f 426/5/5 423/5/5 422/5/5
f 427/5/5 423/5/5 426/5/5
f 429/5/5 426/5/5 425/5/5
f 429/5/5 428/5/5 427/5/5
f 429/5/5 427/5/5 426/5/5
f 430/5/5 428/5/5 429/5/5
f 434/1/5 432/1/5 431/1/5
f 434/7/5 433/7/5 432/7/5
f 435/7/5 433/7/5 434/7/5
f 436/1/5 434/1/5 431/1/5
f 437/1/5 434/1/5 436/1/5
f 438/8/5 437/8/5 436/8/5
f 439/8/5 438/8/5 436/8/5
f 440/8/5 438/8/5 439/8/5
f 445/8/5 442/8/5 441/8/5
f 445/13/5 443/13/5 442/13/5
f 446/8/5 444/8/5 443/8/5
f 446/13/5 443/13/5 445/13/5
f 447/8/5 445/8/5 441/8/5
f 447/8/5 446/8/5 445/8/5
f 448/8/5 446/8/5 447/8/5
f 449/8/5 444/8/5 446/8/5
f 449/8/5 446/8/5 448/8/5
f 450/8/5 444/8/5 449/8/5
f 451/1/5 448/1/5 447/1/5
f 452/1/5 450/1/5 449/1/5
f 453/1/5 451/1/5 447/1/5
f 453/1/5 452/1/5 451/1/5
f 454/1/5 450/1/5 452/1/5
f 454/1/5 452/1/5 453/1/5
f 459/2/5 456/2/5 455/2/5
f 460/2/5 456/2/5 459/2/5
f 461/2/5 458/2/5 457/2/5
f 462/2/5 458/2/5 461/2/5
f 463/8/5 460/8/5 459/8/5
f 464/8/5 462/8/5 461/8/5
f 465/8/5 463/8/5 459/8/5
f 465/8/5 464/8/5 463/8/5
f 466/8/5 462/8/5 464/8/5
f 466/8/5 464/8/5 465/8/5
f 471/9/5 468/9/5 467/9/5
f 472/9/5 468/9/5 471/9/5
f 473/9/5 468/9/5 472/9/5
f 474/9/5 470/9/5 469/9/5
f 475/9/5 470/9/5 474/9/5
f 476/9/5 470/9/5 475/9/5
f 481/8/5 478/8/5 477/8/5
f 482/8/5 478/8/5 481/8/5
f 483/8/5 480/8/5 479/8/5
f 484/8/5 480/8/5 483/8/5
f 487/8/5 486/8/5 485/8/5
f 488/8/5 486/8/5 487/8/5
f 493/8/5 490/8/5 489/8/5
f 494/8/5 490/8/5 493/8/5
f 495/8/5 492/8/5 491/8/5
f 496/8/5 492/8/5 495/8/5
f 499/8/5 498/8/5 497/8/5
f 500/8/5 498/8/5 499/8/5
f 503/8/5 502/8/5 501/8/5
f 504/8/5 502/8/5 503/8/5
f 505/8/6 506/8/6 509/8/6
f 509/8/6 506/8/6 510/8/6
f 507/8/6 508/8/6 511/8/6
f 511/8/6 508/8/6 512/8/6
f 513/1/6 514/1/6 515/1/6
f 513/1/6 515/1/6 517/1/6
f 515/1/6 516/1/6 517/1/6
f 517/1/6 516/1/6 518/1/6
f 517/8/6 518/8/6 519/8/6
f 517/8/6 519/8/6 520/8/6
f 520/8/6 519/8/6 521/8/6
f 522/7/6 523/7/6 524/7/6
f 524/7/6 523/7/6 525/7/6
f 526/8/6 527/8/6 531/8/6
f 527/13/6 528/13/6 532/13/6
f 531/8/6 527/8/6 532/8/6
f 528/8/6 529/8/6 533/8/6
f 532/13/6 528/13/6 533/13/6
f 533/8/6 529/8/6 534/8/6
f 531/8/6 532/8/6 536/8/6
f 530/8/6 531/8/6 536/8/6
f 536/8/6 532/8/6 537/8/6
f 537/8/6 532/8/6 538/8/6
f 534/8/6 535/8/6 539/8/6
f 533/8/6 534/8/6 539/8/6
f 539/8/6 535/8/6 540/8/6
f 540/8/6 535/8/6 541/8/6
f 537/8/6 538/8/6 542/8/6
f 539/8/6 540/8/6 542/8/6
f 538/8/6 539/8/6 542/8/6
f 542/8/6 540/8/6 543/8/6
f 544/8/6 545/8/6 546/8/6
f 546/8/6 545/8/6 547/8/6
f 548/8/6 549/8/6 552/8/6
f 552/8/6 549/8/6 553/8/6
f 553/8/6 549/8/6 554/8/6
f 550/8/6 551/8/6 555/8/6
f 555/8/6 551/8/6 556/8/6
f 556/8/6 551/8/6 557/8/6
f 558/8/6 559/8/6 560/8/6
f 560/8/6 559/8/6 561/8/6
f 561/8/6 562/8/6 565/8/6
f 565/8/6 562/8/6 566/8/6
f 566/8/6 567/8/6 568/8/6
f 568/8/6 567/8/6 569/8/6
f 563/8/6 564/8/6 572/8/6
f 572/8/6 564/8/6 573/8/6
f 570/8/6 571/8/6 574/8/6
f 574/8/6 571/8/6 575/8/6
f 576/8/6 577/8/6 578/8/6
f 578/8/6 579/8/6 580/8/6
f 578/8/6 580/8/6 582/8/6
f 580/8/6 581/8/6 582/8/6
f 582/8/6 581/8/6 583/8/6
f 576/8/6 578/8/6 584/8/6
f 578/8/6 582/8/6 584/8/6
f 584/8/6 582/8/6 585/8/6
