# MagicaVoxel @ Ephtracy

# group
o 

# material
mtllib Character-24.mtl
usemtl palette

# normals
vn -1 0 0
vn 1 0 0
vn 0 0 1
vn 0 0 -1
vn 0 -1 0
vn 0 1 0

# texcoords
vt 0.0371094 0.5
vt 0.0449219 0.5
vt 0.0644531 0.5
vt 0.474609 0.5
vt 0.478516 0.5
vt 0.501953 0.5
vt 0.525391 0.5
vt 0.974609 0.5
vt 0.978516 0.5

# verts
v -2.9 0.6 -3.7
v -2.9 0.6 -3.9
v -2.9 0.8 -3.7
v -2.9 0.8 -3.9
v -2.9 0.9 -3.7
v -2.9 0.9 -3.9
v -2.9 1.4 -3.7
v -2.9 1.4 -3.9
v -2.9 2.4 -3.4
v -2.9 2.4 -4.2
v -2.9 2.6 -3.4
v -2.9 2.6 -4.2
v -2.8 1.6 -3.7
v -2.8 1.6 -3.8
v -2.8 1.7 -3.6
v -2.8 1.7 -3.7
v -2.8 1.7 -3.8
v -2.8 1.7 -4.1
v -2.8 1.9 -3.5
v -2.8 1.9 -3.6
v -2.8 1.9 -3.7
v -2.8 1.9 -3.8
v -2.8 2.1 -3.5
v -2.8 2.1 -4.1
v -2.8 2.4 -3.5
v -2.8 2.4 -4.1
v -2.7 0 -3.6
v -2.7 0 -3.9
v -2.7 0.1 -3.6
v -2.7 0.1 -3.7
v -2.7 0.1 -3.9
v -2.7 0.5 -3.6
v -2.7 0.5 -3.7
v -2.7 0.6 -3.7
v -2.7 0.6 -3.9
v -2.7 0.7 -3.9
v -2.7 0.7 -4
v -2.7 0.8 -3.7
v -2.7 0.8 -3.9
v -2.7 0.8 -4
v -2.7 0.9 -3.6
v -2.7 0.9 -3.7
v -2.7 0.9 -3.9
v -2.7 0.9 -4
v -2.7 1.4 -3.6
v -2.7 1.4 -3.7
v -2.7 1.4 -3.9
v -2.7 1.4 -4
v -2.7 1.5 -3.5
v -2.7 1.5 -4
v -2.7 1.6 -3.7
v -2.7 1.6 -3.8
v -2.7 1.7 -3.6
v -2.7 1.7 -3.7
v -2.7 1.7 -3.8
v -2.7 1.7 -4
v -2.7 1.9 -3.4
v -2.7 1.9 -3.5
v -2.7 1.9 -3.6
v -2.7 2 -3.4
v -2.7 2 -3.5
v -2.6 1.4 -3.6
v -2.6 1.4 -4
v -2.6 1.5 -3.6
v -2.6 1.5 -4
v -2.5 1.4 -3.5
v -2.5 1.4 -3.6
v -2.5 1.5 -3.5
v -2.5 1.5 -3.6
v -2.4 1.3 -3.5
v -2.4 1.3 -3.6
v -2.4 1.4 -3.5
v -2.4 1.4 -3.6
v -2.3 0 -3.6
v -2.3 0 -3.9
v -2.3 0.1 -3.6
v -2.3 0.1 -3.7
v -2.3 0.1 -3.9
v -2.3 0.5 -3.7
v -2.3 0.7 -3.7
v -2.3 0.7 -3.9
v -2.3 1.9 -3.4
v -2.3 1.9 -3.5
v -2.3 2 -3.4
v -2.3 2 -3.5
v -2.5 0 -3.6
v -2.5 0 -3.9
v -2.5 0.1 -3.6
v -2.5 0.1 -3.7
v -2.5 0.1 -3.9
v -2.5 0.5 -3.7
v -2.5 0.7 -3.7
v -2.5 0.7 -3.9
v -2.5 1.9 -3.4
v -2.5 1.9 -3.5
v -2.5 2 -3.4
v -2.5 2 -3.5
v -2.3 1.3 -3.5
v -2.3 1.3 -3.6
v -2.3 1.4 -3.6
v -2.3 1.5 -3.5
v -2.3 1.5 -3.6
v -2.2 1.4 -3.6
v -2.2 1.4 -4
v -2.2 1.5 -3.6
v -2.2 1.5 -4
v -2.1 0 -3.6
v -2.1 0 -3.9
v -2.1 0.1 -3.6
v -2.1 0.1 -3.7
v -2.1 0.1 -3.9
v -2.1 0.5 -3.6
v -2.1 0.5 -3.7
v -2.1 0.6 -3.7
v -2.1 0.6 -3.9
v -2.1 0.7 -3.9
v -2.1 0.7 -4
v -2.1 0.8 -3.7
v -2.1 0.8 -3.9
v -2.1 0.8 -4
v -2.1 0.9 -3.6
v -2.1 0.9 -3.7
v -2.1 0.9 -3.9
v -2.1 0.9 -4
v -2.1 1.4 -3.6
v -2.1 1.4 -3.7
v -2.1 1.4 -3.9
v -2.1 1.4 -4
v -2.1 1.5 -3.5
v -2.1 1.5 -4
v -2.1 1.6 -3.7
v -2.1 1.6 -3.8
v -2.1 1.7 -3.6
v -2.1 1.7 -3.7
v -2.1 1.7 -3.8
v -2.1 1.7 -4
v -2.1 1.9 -3.4
v -2.1 1.9 -3.5
v -2.1 2 -3.4
v -2.1 2 -3.5
v -2.1 2 -3.6
v -2 1.6 -3.7
v -2 1.6 -3.8
v -2 1.7 -3.6
v -2 1.7 -3.7
v -2 1.7 -3.8
v -2 1.7 -4.1
v -2 1.9 -3.7
v -2 1.9 -3.8
v -2 2 -3.5
v -2 2 -3.6
v -2 2.1 -3.5
v -2 2.1 -4.1
v -2 2.4 -3.5
v -2 2.4 -4.1
v -1.9 0.6 -3.7
v -1.9 0.6 -3.9
v -1.9 0.8 -3.7
v -1.9 0.8 -3.9
v -1.9 0.9 -3.7
v -1.9 0.9 -3.9
v -1.9 1.4 -3.7
v -1.9 1.4 -3.9
v -1.9 2.4 -3.4
v -1.9 2.4 -4.2
v -1.9 2.6 -3.4
v -1.9 2.6 -4.2
v -2.9 2.4 -3.4
v -2.9 2.6 -3.4
v -2.7 1.9 -3.4
v -2.7 2 -3.4
v -2.5 1.9 -3.4
v -2.5 2 -3.4
v -2.3 1.9 -3.4
v -2.3 2 -3.4
v -2.1 1.9 -3.4
v -2.1 2 -3.4
v -1.9 2.4 -3.4
v -1.9 2.6 -3.4
v -2.8 1.9 -3.5
v -2.8 2.1 -3.5
v -2.8 2.4 -3.5
v -2.7 1.5 -3.5
v -2.7 1.9 -3.5
v -2.7 2 -3.5
v -2.7 2.1 -3.5
v -2.6 1.8 -3.5
v -2.6 1.9 -3.5
v -2.5 1.4 -3.5
v -2.5 1.5 -3.5
v -2.5 1.6 -3.5
v -2.5 1.7 -3.5
v -2.5 1.8 -3.5
v -2.5 1.9 -3.5
v -2.5 2 -3.5
v -2.4 1.3 -3.5
v -2.4 1.4 -3.5
v -2.3 1.3 -3.5
v -2.3 1.5 -3.5
v -2.3 1.6 -3.5
v -2.3 1.7 -3.5
v -2.3 1.8 -3.5
v -2.3 1.9 -3.5
v -2.3 2 -3.5
v -2.2 1.8 -3.5
v -2.2 1.9 -3.5
v -2.1 1.5 -3.5
v -2.1 1.9 -3.5
v -2.1 2 -3.5
v -2.1 2.1 -3.5
v -2 2 -3.5
v -2 2.1 -3.5
v -2 2.4 -3.5
v -2.8 1.7 -3.6
v -2.8 1.9 -3.6
v -2.7 0 -3.6
v -2.7 0.1 -3.6
v -2.7 0.5 -3.6
v -2.7 0.9 -3.6
v -2.7 1.4 -3.6
v -2.7 1.7 -3.6
v -2.7 1.9 -3.6
v -2.6 1 -3.6
v -2.6 1.1 -3.6
v -2.6 1.2 -3.6
v -2.6 1.3 -3.6
v -2.6 1.4 -3.6
v -2.6 1.5 -3.6
v -2.5 0 -3.6
v -2.5 0.1 -3.6
v -2.5 1 -3.6
v -2.5 1.1 -3.6
v -2.5 1.2 -3.6
v -2.5 1.3 -3.6
v -2.5 1.4 -3.6
v -2.5 1.5 -3.6
v -2.4 1.3 -3.6
v -2.4 1.4 -3.6
v -2.3 0 -3.6
v -2.3 0.1 -3.6
v -2.3 1 -3.6
v -2.3 1.1 -3.6
v -2.3 1.2 -3.6
v -2.3 1.3 -3.6
v -2.3 1.4 -3.6
v -2.3 1.5 -3.6
v -2.2 1 -3.6
v -2.2 1.1 -3.6
v -2.2 1.2 -3.6
v -2.2 1.3 -3.6
v -2.2 1.4 -3.6
v -2.2 1.5 -3.6
v -2.1 0 -3.6
v -2.1 0.1 -3.6
v -2.1 0.5 -3.6
v -2.1 0.9 -3.6
v -2.1 1.4 -3.6
v -2.1 1.7 -3.6
v -2.1 2 -3.6
v -2 1.7 -3.6
v -2 2 -3.6
v -2.9 0.6 -3.7
v -2.9 0.8 -3.7
v -2.9 0.9 -3.7
v -2.9 1.4 -3.7
v -2.8 1.6 -3.7
v -2.8 1.7 -3.7
v -2.7 0.1 -3.7
v -2.7 0.5 -3.7
v -2.7 0.6 -3.7
v -2.7 0.8 -3.7
v -2.7 0.9 -3.7
v -2.7 1.4 -3.7
v -2.7 1.6 -3.7
v -2.7 1.7 -3.7
v -2.5 0.1 -3.7
v -2.5 0.5 -3.7
v -2.3 0.1 -3.7
v -2.3 0.5 -3.7
v -2.1 0.1 -3.7
v -2.1 0.5 -3.7
v -2.1 0.6 -3.7
v -2.1 0.8 -3.7
v -2.1 0.9 -3.7
v -2.1 1.4 -3.7
v -2.1 1.6 -3.7
v -2.1 1.7 -3.7
v -2 1.6 -3.7
v -2 1.7 -3.7
v -1.9 0.6 -3.7
v -1.9 0.8 -3.7
v -1.9 0.9 -3.7
v -1.9 1.4 -3.7
v -2.5 0.5 -3.7
v -2.5 0.7 -3.7
v -2.3 0.5 -3.7
v -2.3 0.7 -3.7
v -2.8 1.6 -3.8
v -2.8 1.7 -3.8
v -2.7 1.6 -3.8
v -2.7 1.7 -3.8
v -2.1 1.6 -3.8
v -2.1 1.7 -3.8
v -2 1.6 -3.8
v -2 1.7 -3.8
v -2.9 0.6 -3.9
v -2.9 0.8 -3.9
v -2.9 0.9 -3.9
v -2.9 1.4 -3.9
v -2.7 0 -3.9
v -2.7 0.1 -3.9
v -2.7 0.6 -3.9
v -2.7 0.7 -3.9
v -2.7 0.8 -3.9
v -2.7 0.9 -3.9
v -2.7 1.4 -3.9
v -2.5 0 -3.9
v -2.5 0.1 -3.9
v -2.5 0.7 -3.9
v -2.3 0 -3.9
v -2.3 0.1 -3.9
v -2.3 0.7 -3.9
v -2.1 0 -3.9
v -2.1 0.1 -3.9
v -2.1 0.6 -3.9
v -2.1 0.7 -3.9
v -2.1 0.8 -3.9
v -2.1 0.9 -3.9
v -2.1 1.4 -3.9
v -1.9 0.6 -3.9
v -1.9 0.8 -3.9
v -1.9 0.9 -3.9
v -1.9 1.4 -3.9
v -2.7 0.7 -4
v -2.7 0.8 -4
v -2.7 0.9 -4
v -2.7 1.4 -4
v -2.7 1.5 -4
v -2.7 1.7 -4
v -2.6 1.4 -4
v -2.6 1.5 -4
v -2.2 1.4 -4
v -2.2 1.5 -4
v -2.1 0.7 -4
v -2.1 0.8 -4
v -2.1 0.9 -4
v -2.1 1.4 -4
v -2.1 1.5 -4
v -2.1 1.7 -4
v -2.8 1.7 -4.1
v -2.8 2.1 -4.1
v -2.8 2.4 -4.1
v -2 1.7 -4.1
v -2 2.1 -4.1
v -2 2.4 -4.1
v -2.9 2.4 -4.2
v -2.9 2.6 -4.2
v -1.9 2.4 -4.2
v -1.9 2.6 -4.2
v -2.7 0 -3.6
v -2.5 0 -3.6
v -2.3 0 -3.6
v -2.1 0 -3.6
v -2.7 0 -3.9
v -2.5 0 -3.9
v -2.3 0 -3.9
v -2.1 0 -3.9
v -2.7 0.5 -3.6
v -2.1 0.5 -3.6
v -2.7 0.5 -3.7
v -2.5 0.5 -3.7
v -2.3 0.5 -3.7
v -2.1 0.5 -3.7
v -2.9 0.6 -3.7
v -2.7 0.6 -3.7
v -2.1 0.6 -3.7
v -1.9 0.6 -3.7
v -2.9 0.6 -3.9
v -2.7 0.6 -3.9
v -2.1 0.6 -3.9
v -1.9 0.6 -3.9
v -2.5 0.7 -3.7
v -2.3 0.7 -3.7
v -2.7 0.7 -3.9
v -2.5 0.7 -3.9
v -2.3 0.7 -3.9
v -2.1 0.7 -3.9
v -2.7 0.7 -4
v -2.1 0.7 -4
v -2.4 1.3 -3.5
v -2.3 1.3 -3.5
v -2.4 1.3 -3.6
v -2.3 1.3 -3.6
v -2.5 1.4 -3.5
v -2.4 1.4 -3.5
v -2.5 1.4 -3.6
v -2.4 1.4 -3.6
v -2.7 1.5 -3.5
v -2.5 1.5 -3.5
v -2.3 1.5 -3.5
v -2.1 1.5 -3.5
v -2.6 1.5 -3.6
v -2.5 1.5 -3.6
v -2.3 1.5 -3.6
v -2.2 1.5 -3.6
v -2.7 1.5 -4
v -2.6 1.5 -4
v -2.2 1.5 -4
v -2.1 1.5 -4
v -2.8 1.6 -3.7
v -2.7 1.6 -3.7
v -2.1 1.6 -3.7
v -2 1.6 -3.7
v -2.8 1.6 -3.8
v -2.7 1.6 -3.8
v -2.1 1.6 -3.8
v -2 1.6 -3.8
v -2.8 1.7 -3.6
v -2.7 1.7 -3.6
v -2.1 1.7 -3.6
v -2 1.7 -3.6
v -2.8 1.7 -3.7
v -2.7 1.7 -3.7
v -2.1 1.7 -3.7
v -2 1.7 -3.7
v -2.8 1.7 -3.8
v -2.7 1.7 -3.8
v -2.1 1.7 -3.8
v -2 1.7 -3.8
v -2.7 1.7 -4
v -2.1 1.7 -4
v -2.8 1.7 -4.1
v -2 1.7 -4.1
v -2.7 1.9 -3.4
v -2.5 1.9 -3.4
v -2.3 1.9 -3.4
v -2.1 1.9 -3.4
v -2.8 1.9 -3.5
v -2.7 1.9 -3.5
v -2.6 1.9 -3.5
v -2.5 1.9 -3.5
v -2.3 1.9 -3.5
v -2.2 1.9 -3.5
v -2.1 1.9 -3.5
v -2.8 1.9 -3.6
v -2.7 1.9 -3.6
v -2.1 2 -3.5
v -2 2 -3.5
v -2.1 2 -3.6
v -2 2 -3.6
v -2.9 2.4 -3.4
v -1.9 2.4 -3.4
v -2.8 2.4 -3.5
v -2 2.4 -3.5
v -2.8 2.4 -4.1
v -2 2.4 -4.1
v -2.9 2.4 -4.2
v -1.9 2.4 -4.2
v -2.7 0.1 -3.6
v -2.5 0.1 -3.6
v -2.3 0.1 -3.6
v -2.1 0.1 -3.6
v -2.7 0.1 -3.7
v -2.5 0.1 -3.7
v -2.3 0.1 -3.7
v -2.1 0.1 -3.7
v -2.7 1.4 -3.6
v -2.6 1.4 -3.6
v -2.2 1.4 -3.6
v -2.1 1.4 -3.6
v -2.9 1.4 -3.7
v -2.7 1.4 -3.7
v -2.1 1.4 -3.7
v -1.9 1.4 -3.7
v -2.9 1.4 -3.9
v -2.7 1.4 -3.9
v -2.1 1.4 -3.9
v -1.9 1.4 -3.9
v -2.7 1.4 -4
v -2.6 1.4 -4
v -2.2 1.4 -4
v -2.1 1.4 -4
v -2.7 2 -3.4
v -2.5 2 -3.4
v -2.3 2 -3.4
v -2.1 2 -3.4
v -2.7 2 -3.5
v -2.5 2 -3.5
v -2.3 2 -3.5
v -2.1 2 -3.5
v -2.9 2.6 -3.4
v -1.9 2.6 -3.4
v -2.9 2.6 -4.2
v -1.9 2.6 -4.2

# faces
f 3/1/1 2/1/1 1/1/1
f 4/1/1 2/1/1 3/1/1
f 5/8/1 4/8/1 3/8/1
f 6/8/1 4/8/1 5/8/1
f 7/9/1 6/9/1 5/9/1
f 8/9/1 6/9/1 7/9/1
f 11/9/1 10/9/1 9/9/1
f 12/9/1 10/9/1 11/9/1
f 16/1/1 14/1/1 13/1/1
f 17/1/1 14/1/1 16/1/1
f 20/4/1 16/4/1 15/4/1
f 21/1/1 17/1/1 16/1/1
f 21/4/1 16/4/1 20/4/1
f 22/4/1 18/4/1 17/4/1
f 22/1/1 17/1/1 21/1/1
f 23/4/1 21/4/1 20/4/1
f 23/4/1 20/4/1 19/4/1
f 23/4/1 22/4/1 21/4/1
f 24/4/1 18/4/1 22/4/1
f 24/4/1 22/4/1 23/4/1
f 25/9/1 24/9/1 23/9/1
f 26/9/1 24/9/1 25/9/1
f 29/5/1 28/5/1 27/5/1
f 30/5/1 28/5/1 29/5/1
f 31/5/1 28/5/1 30/5/1
f 33/9/1 31/9/1 30/9/1
f 34/9/1 31/9/1 33/9/1
f 34/3/1 33/3/1 32/3/1
f 35/9/1 31/9/1 34/9/1
f 38/3/1 34/3/1 32/3/1
f 39/9/1 37/9/1 36/9/1
f 40/9/1 37/9/1 39/9/1
f 41/3/1 38/3/1 32/3/1
f 42/3/1 38/3/1 41/3/1
f 43/3/1 40/3/1 39/3/1
f 44/3/1 40/3/1 43/3/1
f 45/9/1 42/9/1 41/9/1
f 46/9/1 42/9/1 45/9/1
f 47/9/1 44/9/1 43/9/1
f 48/9/1 44/9/1 47/9/1
f 51/1/1 50/1/1 49/1/1
f 52/1/1 50/1/1 51/1/1
f 53/1/1 51/1/1 49/1/1
f 54/1/1 51/1/1 53/1/1
f 55/1/1 50/1/1 52/1/1
f 56/1/1 50/1/1 55/1/1
f 58/1/1 53/1/1 49/1/1
f 59/1/1 53/1/1 58/1/1
f 60/4/1 58/4/1 57/4/1
f 61/4/1 58/4/1 60/4/1
f 64/3/1 63/3/1 62/3/1
f 65/3/1 63/3/1 64/3/1
f 68/3/1 67/3/1 66/3/1
f 69/3/1 67/3/1 68/3/1
f 72/3/1 71/3/1 70/3/1
f 73/3/1 71/3/1 72/3/1
f 76/5/1 75/5/1 74/5/1
f 77/5/1 75/5/1 76/5/1
f 78/5/1 75/5/1 77/5/1
f 79/9/1 78/9/1 77/9/1
f 80/9/1 78/9/1 79/9/1
f 81/9/1 78/9/1 80/9/1
f 84/4/1 83/4/1 82/4/1
f 85/4/1 83/4/1 84/4/1
f 86/5/2 87/5/2 88/5/2
f 88/5/2 87/5/2 89/5/2
f 89/5/2 87/5/2 90/5/2
f 89/9/2 90/9/2 91/9/2
f 91/9/2 90/9/2 92/9/2
f 92/9/2 90/9/2 93/9/2
f 94/4/2 95/4/2 96/4/2
f 96/4/2 95/4/2 97/4/2
f 98/3/2 99/3/2 100/3/2
f 98/3/2 100/3/2 101/3/2
f 101/3/2 100/3/2 102/3/2
f 103/3/2 104/3/2 105/3/2
f 105/3/2 104/3/2 106/3/2
f 107/5/2 108/5/2 109/5/2
f 109/5/2 108/5/2 110/5/2
f 110/5/2 108/5/2 111/5/2
f 110/9/2 111/9/2 113/9/2
f 113/9/2 111/9/2 114/9/2
f 112/3/2 113/3/2 114/3/2
f 114/9/2 111/9/2 115/9/2
f 112/3/2 114/3/2 118/3/2
f 116/9/2 117/9/2 119/9/2
f 119/9/2 117/9/2 120/9/2
f 112/3/2 118/3/2 121/3/2
f 121/3/2 118/3/2 122/3/2
f 119/3/2 120/3/2 123/3/2
f 123/3/2 120/3/2 124/3/2
f 121/9/2 122/9/2 125/9/2
f 125/9/2 122/9/2 126/9/2
f 123/9/2 124/9/2 127/9/2
f 127/9/2 124/9/2 128/9/2
f 129/1/2 130/1/2 131/1/2
f 131/1/2 130/1/2 132/1/2
f 129/1/2 131/1/2 133/1/2
f 133/1/2 131/1/2 134/1/2
f 132/1/2 130/1/2 135/1/2
f 135/1/2 130/1/2 136/1/2
f 129/1/2 133/1/2 138/1/2
f 137/4/2 138/4/2 139/4/2
f 138/1/2 133/1/2 140/1/2
f 139/4/2 138/4/2 140/4/2
f 140/1/2 133/1/2 141/1/2
f 142/1/2 143/1/2 145/1/2
f 145/1/2 143/1/2 146/1/2
f 144/4/2 145/4/2 148/4/2
f 145/1/2 146/1/2 148/1/2
f 146/4/2 147/4/2 149/4/2
f 148/1/2 146/1/2 149/1/2
f 144/4/2 148/4/2 151/4/2
f 148/4/2 149/4/2 151/4/2
f 150/4/2 151/4/2 152/4/2
f 149/4/2 147/4/2 153/4/2
f 152/4/2 151/4/2 153/4/2
f 151/4/2 149/4/2 153/4/2
f 152/9/2 153/9/2 154/9/2
f 154/9/2 153/9/2 155/9/2
f 156/1/2 157/1/2 158/1/2
f 158/1/2 157/1/2 159/1/2
f 158/8/2 159/8/2 160/8/2
f 160/8/2 159/8/2 161/8/2
f 160/9/2 161/9/2 162/9/2
f 162/9/2 161/9/2 163/9/2
f 164/9/2 165/9/2 166/9/2
f 166/9/2 165/9/2 167/9/2
f 172/4/3 171/4/3 170/4/3
f 173/4/3 171/4/3 172/4/3
f 176/4/3 175/4/3 174/4/3
f 177/4/3 175/4/3 176/4/3
f 178/9/3 169/9/3 168/9/3
f 179/9/3 169/9/3 178/9/3
f 184/4/3 181/4/3 180/4/3
f 185/4/3 181/4/3 184/4/3
f 186/9/3 182/9/3 181/9/3
f 186/4/3 181/4/3 185/4/3
f 187/1/3 184/1/3 183/1/3
f 188/1/3 184/1/3 187/1/3
f 190/1/3 187/1/3 183/1/3
f 191/1/3 187/1/3 190/1/3
f 192/1/3 187/1/3 191/1/3
f 193/7/3 188/7/3 187/7/3
f 193/1/3 187/1/3 192/1/3
f 194/7/3 188/7/3 193/7/3
f 195/1/3 186/1/3 185/1/3
f 197/3/3 190/3/3 189/3/3
f 198/3/3 197/3/3 196/3/3
f 199/1/3 191/1/3 190/1/3
f 199/3/3 197/3/3 198/3/3
f 199/3/3 190/3/3 197/3/3
f 200/2/3 192/2/3 191/2/3
f 200/1/3 191/1/3 199/1/3
f 201/1/3 194/1/3 193/1/3
f 201/2/3 192/2/3 200/2/3
f 201/1/3 193/1/3 192/1/3
f 201/1/3 195/1/3 194/1/3
f 202/1/3 195/1/3 201/1/3
f 203/1/3 195/1/3 202/1/3
f 204/1/3 186/1/3 195/1/3
f 204/1/3 195/1/3 203/1/3
f 205/1/3 200/1/3 199/1/3
f 205/1/3 202/1/3 201/1/3
f 205/1/3 201/1/3 200/1/3
f 205/7/3 203/7/3 202/7/3
f 206/7/3 203/7/3 205/7/3
f 207/1/3 205/1/3 199/1/3
f 207/1/3 206/1/3 205/1/3
f 208/1/3 206/1/3 207/1/3
f 209/1/3 186/1/3 204/1/3
f 210/9/3 182/9/3 186/9/3
f 210/1/3 186/1/3 209/1/3
f 211/4/3 210/4/3 209/4/3
f 212/9/3 182/9/3 210/9/3
f 212/4/3 210/4/3 211/4/3
f 213/9/3 182/9/3 212/9/3
f 221/4/3 215/4/3 214/4/3
f 222/4/3 215/4/3 221/4/3
f 223/9/3 220/9/3 219/9/3
f 224/9/3 220/9/3 223/9/3
f 225/9/3 220/9/3 224/9/3
f 226/9/3 220/9/3 225/9/3
f 227/9/3 220/9/3 226/9/3
f 229/5/3 217/5/3 216/5/3
f 230/5/3 217/5/3 229/5/3
f 231/9/3 223/9/3 219/9/3
f 231/6/3 224/6/3 223/6/3
f 232/9/3 225/9/3 224/9/3
f 232/6/3 224/6/3 231/6/3
f 233/6/3 226/6/3 225/6/3
f 233/9/3 225/9/3 232/9/3
f 234/9/3 227/9/3 226/9/3
f 234/6/3 226/6/3 233/6/3
f 235/3/3 228/3/3 227/3/3
f 235/9/3 227/9/3 234/9/3
f 236/3/3 228/3/3 235/3/3
f 237/9/3 234/9/3 233/9/3
f 237/9/3 235/9/3 234/9/3
f 237/9/3 233/9/3 232/9/3
f 237/9/3 232/9/3 231/9/3
f 238/9/3 235/9/3 237/9/3
f 241/9/3 231/9/3 219/9/3
f 241/9/3 237/9/3 231/9/3
f 242/9/3 237/9/3 241/9/3
f 243/9/3 237/9/3 242/9/3
f 244/9/3 237/9/3 243/9/3
f 247/9/3 241/9/3 219/9/3
f 247/6/3 242/6/3 241/6/3
f 248/9/3 243/9/3 242/9/3
f 248/6/3 242/6/3 247/6/3
f 249/6/3 244/6/3 243/6/3
f 249/9/3 243/9/3 248/9/3
f 250/9/3 245/9/3 244/9/3
f 250/6/3 244/6/3 249/6/3
f 251/3/3 246/3/3 245/3/3
f 251/9/3 245/9/3 250/9/3
f 252/3/3 246/3/3 251/3/3
f 253/5/3 240/5/3 239/5/3
f 254/5/3 240/5/3 253/5/3
f 255/3/3 219/3/3 218/3/3
f 256/9/3 249/9/3 248/9/3
f 256/3/3 219/3/3 255/3/3
f 256/9/3 250/9/3 249/9/3
f 256/9/3 248/9/3 247/9/3
f 256/9/3 251/9/3 250/9/3
f 256/9/3 247/9/3 219/9/3
f 257/9/3 251/9/3 256/9/3
f 260/4/3 259/4/3 258/4/3
f 261/4/3 259/4/3 260/4/3
f 270/1/3 263/1/3 262/1/3
f 271/8/3 264/8/3 263/8/3
f 271/1/3 263/1/3 270/1/3
f 272/9/3 265/9/3 264/9/3
f 272/8/3 264/8/3 271/8/3
f 273/9/3 265/9/3 272/9/3
f 274/1/3 267/1/3 266/1/3
f 275/1/3 267/1/3 274/1/3
f 276/9/3 269/9/3 268/9/3
f 277/9/3 269/9/3 276/9/3
f 280/9/3 279/9/3 278/9/3
f 281/9/3 279/9/3 280/9/3
f 288/1/3 287/1/3 286/1/3
f 289/1/3 287/1/3 288/1/3
f 290/1/3 283/1/3 282/1/3
f 291/8/3 284/8/3 283/8/3
f 291/1/3 283/1/3 290/1/3
f 292/9/3 285/9/3 284/9/3
f 292/8/3 284/8/3 291/8/3
f 293/9/3 285/9/3 292/9/3
f 294/3/4 295/3/4 296/3/4
f 296/3/4 295/3/4 297/3/4
f 298/1/4 299/1/4 300/1/4
f 300/1/4 299/1/4 301/1/4
f 302/1/4 303/1/4 304/1/4
f 304/1/4 303/1/4 305/1/4
f 306/1/4 307/1/4 312/1/4
f 312/1/4 307/1/4 313/1/4
f 307/8/4 308/8/4 314/8/4
f 313/1/4 307/1/4 314/1/4
f 308/9/4 309/9/4 315/9/4
f 314/8/4 308/8/4 315/8/4
f 315/9/4 309/9/4 316/9/4
f 310/5/4 311/5/4 317/5/4
f 312/9/4 313/9/4 318/9/4
f 317/5/4 311/5/4 318/5/4
f 311/9/4 312/9/4 318/9/4
f 318/9/4 313/9/4 319/9/4
f 320/5/4 321/5/4 323/5/4
f 321/9/4 322/9/4 324/9/4
f 323/5/4 321/5/4 324/5/4
f 324/9/4 322/9/4 325/9/4
f 325/9/4 322/9/4 326/9/4
f 325/1/4 326/1/4 330/1/4
f 326/1/4 327/1/4 330/1/4
f 327/8/4 328/8/4 331/8/4
f 330/1/4 327/1/4 331/1/4
f 328/9/4 329/9/4 332/9/4
f 331/8/4 328/8/4 332/8/4
f 332/9/4 329/9/4 333/9/4
f 336/9/4 337/9/4 340/9/4
f 338/1/4 339/1/4 341/1/4
f 336/9/4 340/9/4 342/9/4
f 340/3/4 341/3/4 342/3/4
f 341/1/4 339/1/4 343/1/4
f 342/3/4 341/3/4 343/3/4
f 334/9/4 335/9/4 344/9/4
f 335/3/4 336/3/4 345/3/4
f 344/9/4 335/9/4 345/9/4
f 336/9/4 342/9/4 346/9/4
f 345/3/4 336/3/4 346/3/4
f 346/9/4 342/9/4 347/9/4
f 343/1/4 339/1/4 348/1/4
f 348/1/4 339/1/4 349/1/4
f 350/4/4 351/4/4 353/4/4
f 351/9/4 352/9/4 354/9/4
f 353/4/4 351/4/4 354/4/4
f 354/9/4 352/9/4 355/9/4
f 356/9/4 357/9/4 358/9/4
f 358/9/4 357/9/4 359/9/4
f 364/5/5 361/5/5 360/5/5
f 365/5/5 361/5/5 364/5/5
f 366/5/5 363/5/5 362/5/5
f 367/5/5 363/5/5 366/5/5
f 370/3/5 369/3/5 368/3/5
f 371/3/5 369/3/5 370/3/5
f 372/3/5 369/3/5 371/3/5
f 373/3/5 369/3/5 372/3/5
f 378/1/5 375/1/5 374/1/5
f 379/1/5 375/1/5 378/1/5
f 380/1/5 377/1/5 376/1/5
f 381/1/5 377/1/5 380/1/5
f 385/9/5 383/9/5 382/9/5
f 386/9/5 383/9/5 385/9/5
f 388/9/5 385/9/5 384/9/5
f 388/9/5 387/9/5 386/9/5
f 388/9/5 386/9/5 385/9/5
f 389/9/5 387/9/5 388/9/5
f 392/3/5 391/3/5 390/3/5
f 393/3/5 391/3/5 392/3/5
f 396/3/5 395/3/5 394/3/5
f 397/3/5 395/3/5 396/3/5
f 402/1/5 399/1/5 398/1/5
f 403/1/5 399/1/5 402/1/5
f 404/1/5 401/1/5 400/1/5
f 405/1/5 401/1/5 404/1/5
f 406/1/5 402/1/5 398/1/5
f 407/1/5 402/1/5 406/1/5
f 408/1/5 401/1/5 405/1/5
f 409/1/5 401/1/5 408/1/5
f 414/1/5 411/1/5 410/1/5
f 415/1/5 411/1/5 414/1/5
f 416/1/5 413/1/5 412/1/5
f 417/1/5 413/1/5 416/1/5
f 422/4/5 419/4/5 418/4/5
f 423/4/5 419/4/5 422/4/5
f 424/4/5 421/4/5 420/4/5
f 425/4/5 421/4/5 424/4/5
f 430/4/5 427/4/5 426/4/5
f 431/4/5 429/4/5 428/4/5
f 432/4/5 430/4/5 426/4/5
f 432/4/5 431/4/5 430/4/5
f 433/4/5 429/4/5 431/4/5
f 433/4/5 431/4/5 432/4/5
f 439/4/5 435/4/5 434/4/5
f 440/4/5 435/4/5 439/4/5
f 441/4/5 435/4/5 440/4/5
f 442/4/5 437/4/5 436/4/5
f 443/4/5 437/4/5 442/4/5
f 444/4/5 437/4/5 443/4/5
f 445/4/5 439/4/5 438/4/5
f 446/4/5 439/4/5 445/4/5
f 449/4/5 448/4/5 447/4/5
f 450/4/5 448/4/5 449/4/5
f 453/9/5 452/9/5 451/9/5
f 454/9/5 452/9/5 453/9/5
f 455/9/5 453/9/5 451/9/5
f 456/9/5 452/9/5 454/9/5
f 457/9/5 455/9/5 451/9/5
f 457/9/5 456/9/5 455/9/5
f 458/9/5 452/9/5 456/9/5
f 458/9/5 456/9/5 457/9/5
f 459/5/6 460/5/6 463/5/6
f 463/5/6 460/5/6 464/5/6
f 461/5/6 462/5/6 465/5/6
f 465/5/6 462/5/6 466/5/6
f 467/9/6 468/9/6 472/9/6
f 469/9/6 470/9/6 473/9/6
f 471/9/6 472/9/6 475/9/6
f 472/9/6 468/9/6 476/9/6
f 475/9/6 472/9/6 476/9/6
f 473/9/6 474/9/6 477/9/6
f 469/9/6 473/9/6 477/9/6
f 477/9/6 474/9/6 478/9/6
f 476/9/6 468/9/6 479/9/6
f 479/9/6 468/9/6 480/9/6
f 469/9/6 477/9/6 481/9/6
f 481/9/6 477/9/6 482/9/6
f 483/4/6 484/4/6 487/4/6
f 487/4/6 484/4/6 488/4/6
f 485/4/6 486/4/6 489/4/6
f 489/4/6 486/4/6 490/4/6
f 491/9/6 492/9/6 493/9/6
f 493/9/6 492/9/6 494/9/6
