# MagicaVoxel @ Ephtracy

# group
o 

# material
mtllib Character-13.mtl
usemtl palette

# normals
vn -1 0 0
vn 1 0 0
vn 0 0 1
vn 0 0 -1
vn 0 -1 0
vn 0 1 0

# texcoords
vt 0.0371094 0.5
vt 0.0488281 0.5
vt 0.255859 0.5
vt 0.259766 0.5
vt 0.470703 0.5
vt 0.521484 0.5
vt 0.541016 0.5
vt 0.548828 0.5
vt 0.576172 0.5
vt 0.892578 0.5
vt 0.904297 0.5

# verts
v -0.9 2 6.1
v -0.9 2 5.4
v -0.9 2.1 6.1
v -0.9 2.1 5.4
v -0.8 0.6 5.8
v -0.8 0.6 5.6
v -0.8 1.2 5.8
v -0.8 1.2 5.6
v -0.8 1.4 5.8
v -0.8 1.4 5.6
v -0.8 2 6.2
v -0.8 2 6.1
v -0.8 2 5.4
v -0.8 2 5.3
v -0.8 2.1 6.2
v -0.8 2.1 6.1
v -0.8 2.1 5.4
v -0.8 2.1 5.3
v -0.7 1.4 5.7
v -0.7 1.4 5.6
v -0.7 1.4 5.4
v -0.7 1.6 5.9
v -0.7 1.6 5.8
v -0.7 1.6 5.7
v -0.7 1.9 6
v -0.7 1.9 5.9
v -0.7 1.9 5.8
v -0.7 1.9 5.7
v -0.7 2 6.3
v -0.7 2 6.2
v -0.7 2 6
v -0.7 2 5.4
v -0.7 2 5.3
v -0.7 2 5.2
v -0.7 2.1 6.3
v -0.7 2.1 6.2
v -0.7 2.1 6.1
v -0.7 2.1 5.4
v -0.7 2.1 5.3
v -0.7 2.1 5.2
v -0.7 2.3 6.1
v -0.7 2.3 6
v -0.7 2.3 5.5
v -0.7 2.3 5.4
v -0.7 2.4 6
v -0.7 2.4 5.5
v -0.6 0 5.9
v -0.6 0 5.6
v -0.6 0.1 5.9
v -0.6 0.1 5.8
v -0.6 0.2 5.8
v -0.6 0.2 5.6
v -0.6 0.4 5.8
v -0.6 0.4 5.6
v -0.6 0.6 5.8
v -0.6 0.6 5.6
v -0.6 0.7 5.9
v -0.6 0.7 5.8
v -0.6 0.7 5.6
v -0.6 0.7 5.5
v -0.6 1.2 5.9
v -0.6 1.2 5.8
v -0.6 1.2 5.6
v -0.6 1.3 5.9
v -0.6 1.3 5.8
v -0.6 1.4 5.9
v -0.6 1.4 5.8
v -0.6 1.4 5.6
v -0.6 1.4 5.5
v -0.6 1.5 6
v -0.6 1.5 5.7
v -0.6 1.6 6
v -0.6 1.6 5.9
v -0.6 1.6 5.8
v -0.6 1.6 5.7
v -0.6 1.8 6
v -0.6 1.8 5.9
v -0.6 1.9 6.1
v -0.6 1.9 6
v -0.6 1.9 5.9
v -0.6 2 6.1
v -0.6 2 6
v -0.6 2.3 6.1
v -0.6 2.3 6
v -0.6 2.3 5.5
v -0.6 2.3 5.4
v -0.6 2.4 6.1
v -0.6 2.4 6
v -0.6 2.4 5.5
v -0.6 2.4 5.4
v -0.6 2.5 6
v -0.6 2.5 5.5
v -0.4 1.4 5.8
v -0.4 1.4 5.6
v -0.4 1.5 5.8
v -0.4 1.5 5.6
v -0.2 0 5.9
v -0.2 0 5.6
v -0.2 0.1 5.9
v -0.2 0.1 5.8
v -0.2 0.2 5.8
v -0.2 0.2 5.6
v -0.2 0.4 5.8
v -0.2 0.4 5.6
v -0.2 0.7 5.8
v -0.2 0.7 5.6
v -0.2 1.9 6.1
v -0.2 1.9 6
v -0.2 2 6.1
v -0.2 2 6
v 0 1.4 5.7
v 0 1.4 5.5
v 0 1.5 5.7
v 0 1.5 5.5
v -0.6 1.4 5.7
v -0.6 1.4 5.5
v -0.6 1.5 5.7
v -0.6 1.5 5.5
v -0.4 0 5.9
v -0.4 0 5.6
v -0.4 0.1 5.9
v -0.4 0.1 5.8
v -0.4 0.2 5.8
v -0.4 0.2 5.6
v -0.4 0.4 5.8
v -0.4 0.4 5.6
v -0.4 0.7 5.8
v -0.4 0.7 5.6
v -0.4 1.9 6.1
v -0.4 1.9 6
v -0.4 2 6.1
v -0.4 2 6
v -0.2 1.4 5.8
v -0.2 1.4 5.6
v -0.2 1.5 5.8
v -0.2 1.5 5.6
v 0 0 5.9
v 0 0 5.6
v 0 0.1 5.9
v 0 0.1 5.8
v 0 0.2 5.8
v 0 0.2 5.6
v 0 0.4 5.8
v 0 0.4 5.6
v 0 0.6 5.8
v 0 0.6 5.6
v 0 0.7 5.9
v 0 0.7 5.8
v 0 0.7 5.6
v 0 0.7 5.5
v 0 1.2 5.9
v 0 1.2 5.8
v 0 1.2 5.6
v 0 1.3 5.9
v 0 1.3 5.8
v 0 1.4 5.9
v 0 1.4 5.8
v 0 1.4 5.6
v 0 1.4 5.5
v 0 1.5 6
v 0 1.5 5.7
v 0 1.6 6
v 0 1.6 5.9
v 0 1.6 5.8
v 0 1.6 5.7
v 0 1.8 6
v 0 1.8 5.9
v 0 1.9 6.1
v 0 1.9 6
v 0 2 6.1
v 0 2 6
v 0 2 5.9
v 0 2.3 6.1
v 0 2.3 6
v 0 2.3 5.5
v 0 2.3 5.4
v 0 2.4 6.1
v 0 2.4 6
v 0 2.4 5.5
v 0 2.4 5.4
v 0 2.5 6
v 0 2.5 5.5
v 0.1 1.4 5.7
v 0.1 1.4 5.6
v 0.1 1.4 5.4
v 0.1 1.6 5.9
v 0.1 1.6 5.8
v 0.1 1.6 5.7
v 0.1 1.9 5.8
v 0.1 1.9 5.7
v 0.1 2 6.3
v 0.1 2 6.2
v 0.1 2 5.9
v 0.1 2 5.4
v 0.1 2 5.3
v 0.1 2 5.2
v 0.1 2.1 6.3
v 0.1 2.1 6.2
v 0.1 2.1 6.1
v 0.1 2.1 5.4
v 0.1 2.1 5.3
v 0.1 2.1 5.2
v 0.1 2.3 6.1
v 0.1 2.3 6
v 0.1 2.3 5.5
v 0.1 2.3 5.4
v 0.1 2.4 6
v 0.1 2.4 5.5
v 0.2 0.6 5.8
v 0.2 0.6 5.6
v 0.2 1.2 5.8
v 0.2 1.2 5.6
v 0.2 1.4 5.8
v 0.2 1.4 5.6
v 0.2 2 6.2
v 0.2 2 6.1
v 0.2 2 5.4
v 0.2 2 5.3
v 0.2 2.1 6.2
v 0.2 2.1 6.1
v 0.2 2.1 5.4
v 0.2 2.1 5.3
v 0.3 2 6.1
v 0.3 2 5.4
v 0.3 2.1 6.1
v 0.3 2.1 5.4
v -0.7 2 6.3
v -0.7 2.1 6.3
v 0.1 2 6.3
v 0.1 2.1 6.3
v -0.8 2 6.2
v -0.8 2.1 6.2
v -0.7 2 6.2
v -0.7 2.1 6.2
v 0.1 2 6.2
v 0.1 2.1 6.2
v 0.2 2 6.2
v 0.2 2.1 6.2
v -0.9 2 6.1
v -0.9 2.1 6.1
v -0.8 2 6.1
v -0.8 2.1 6.1
v -0.7 2.1 6.1
v -0.7 2.3 6.1
v -0.6 1.9 6.1
v -0.6 2 6.1
v -0.6 2.3 6.1
v -0.6 2.4 6.1
v -0.4 1.9 6.1
v -0.4 2 6.1
v -0.2 1.9 6.1
v -0.2 2 6.1
v 0 1.9 6.1
v 0 2 6.1
v 0 2.3 6.1
v 0 2.4 6.1
v 0.1 2.1 6.1
v 0.1 2.3 6.1
v 0.2 2 6.1
v 0.2 2.1 6.1
v 0.3 2 6.1
v 0.3 2.1 6.1
v -0.7 1.9 6
v -0.7 2 6
v -0.7 2.3 6
v -0.7 2.4 6
v -0.6 1.5 6
v -0.6 1.6 6
v -0.6 1.8 6
v -0.6 1.9 6
v -0.6 2 6
v -0.6 2.3 6
v -0.6 2.4 6
v -0.6 2.5 6
v -0.5 1.6 6
v -0.5 1.8 6
v -0.5 1.9 6
v -0.4 1.6 6
v -0.4 1.7 6
v -0.4 1.8 6
v -0.4 1.9 6
v -0.4 2 6
v -0.2 1.6 6
v -0.2 1.7 6
v -0.2 1.8 6
v -0.2 1.9 6
v -0.2 2 6
v -0.1 1.6 6
v -0.1 1.8 6
v -0.1 1.9 6
v 0 1.5 6
v 0 1.6 6
v 0 1.8 6
v 0 1.9 6
v 0 2.3 6
v 0 2.4 6
v 0 2.5 6
v 0.1 2.3 6
v 0.1 2.4 6
v -0.7 1.6 5.9
v -0.7 1.9 5.9
v -0.6 0 5.9
v -0.6 0.1 5.9
v -0.6 0.7 5.9
v -0.6 1.2 5.9
v -0.6 1.3 5.9
v -0.6 1.4 5.9
v -0.6 1.6 5.9
v -0.6 1.8 5.9
v -0.6 1.9 5.9
v -0.5 0.9 5.9
v -0.5 1.1 5.9
v -0.5 1.2 5.9
v -0.5 1.3 5.9
v -0.5 1.4 5.9
v -0.4 0 5.9
v -0.4 0.1 5.9
v -0.2 0 5.9
v -0.2 0.1 5.9
v -0.1 0.9 5.9
v -0.1 1.1 5.9
v -0.1 1.2 5.9
v -0.1 1.3 5.9
v -0.1 1.4 5.9
v 0 0 5.9
v 0 0.1 5.9
v 0 0.7 5.9
v 0 1.2 5.9
v 0 1.3 5.9
v 0 1.4 5.9
v 0 1.6 5.9
v 0 1.8 5.9
v 0 2 5.9
v 0.1 1.6 5.9
v 0.1 2 5.9
v -0.8 0.6 5.8
v -0.8 1.2 5.8
v -0.8 1.4 5.8
v -0.6 0.1 5.8
v -0.6 0.2 5.8
v -0.6 0.4 5.8
v -0.6 0.6 5.8
v -0.6 0.7 5.8
v -0.6 1.2 5.8
v -0.6 1.3 5.8
v -0.6 1.4 5.8
v -0.4 0.1 5.8
v -0.4 0.2 5.8
v -0.4 0.4 5.8
v -0.4 0.7 5.8
v -0.4 1.4 5.8
v -0.4 1.5 5.8
v -0.2 0.1 5.8
v -0.2 0.2 5.8
v -0.2 0.4 5.8
v -0.2 0.7 5.8
v -0.2 1.4 5.8
v -0.2 1.5 5.8
v 0 0.1 5.8
v 0 0.2 5.8
v 0 0.4 5.8
v 0 0.6 5.8
v 0 0.7 5.8
v 0 1.2 5.8
v 0 1.3 5.8
v 0 1.4 5.8
v 0.2 0.6 5.8
v 0.2 1.2 5.8
v 0.2 1.4 5.8
v -0.7 1.4 5.7
v -0.7 1.6 5.7
v -0.6 1.4 5.7
v -0.6 1.5 5.7
v -0.6 1.6 5.7
v 0 1.4 5.7
v 0 1.5 5.7
v 0 1.6 5.7
v 0.1 1.4 5.7
v 0.1 1.6 5.7
v -0.6 1.4 5.5
v -0.6 1.5 5.5
v -0.5 1.4 5.5
v -0.1 1.4 5.5
v 0 1.4 5.5
v 0 1.5 5.5
v -0.8 0.6 5.6
v -0.8 1.2 5.6
v -0.8 1.4 5.6
v -0.7 1.4 5.6
v -0.6 0 5.6
v -0.6 0.2 5.6
v -0.6 0.4 5.6
v -0.6 0.6 5.6
v -0.6 0.7 5.6
v -0.6 1.2 5.6
v -0.6 1.4 5.6
v -0.4 0 5.6
v -0.4 0.2 5.6
v -0.4 0.4 5.6
v -0.4 0.7 5.6
v -0.4 1.4 5.6
v -0.4 1.5 5.6
v -0.2 0 5.6
v -0.2 0.2 5.6
v -0.2 0.4 5.6
v -0.2 0.7 5.6
v -0.2 1.4 5.6
v -0.2 1.5 5.6
v 0 0 5.6
v 0 0.2 5.6
v 0 0.4 5.6
v 0 0.6 5.6
v 0 0.7 5.6
v 0 1.2 5.6
v 0 1.4 5.6
v 0.1 1.4 5.6
v 0.2 0.6 5.6
v 0.2 1.2 5.6
v 0.2 1.4 5.6
v -0.7 2.3 5.5
v -0.7 2.4 5.5
v -0.6 0.7 5.5
v -0.6 1.4 5.5
v -0.6 2.3 5.5
v -0.6 2.4 5.5
v -0.6 2.5 5.5
v -0.5 1.2 5.5
v -0.5 1.4 5.5
v -0.1 1.2 5.5
v -0.1 1.4 5.5
v 0 0.7 5.5
v 0 1.4 5.5
v 0 2.3 5.5
v 0 2.4 5.5
v 0 2.5 5.5
v 0.1 2.3 5.5
v 0.1 2.4 5.5
v -0.9 2 5.4
v -0.9 2.1 5.4
v -0.8 2 5.4
v -0.8 2.1 5.4
v -0.7 1.4 5.4
v -0.7 2 5.4
v -0.7 2.1 5.4
v -0.7 2.3 5.4
v -0.6 2.3 5.4
v -0.6 2.4 5.4
v 0 2.3 5.4
v 0 2.4 5.4
v 0.1 1.4 5.4
v 0.1 2 5.4
v 0.1 2.1 5.4
v 0.1 2.3 5.4
v 0.2 2 5.4
v 0.2 2.1 5.4
v 0.3 2 5.4
v 0.3 2.1 5.4
v -0.8 2 5.3
v -0.8 2.1 5.3
v -0.7 2 5.3
v -0.7 2.1 5.3
v 0.1 2 5.3
v 0.1 2.1 5.3
v 0.2 2 5.3
v 0.2 2.1 5.3
v -0.7 2 5.2
v -0.7 2.1 5.2
v 0.1 2 5.2
v 0.1 2.1 5.2
v -0.6 0 5.9
v -0.4 0 5.9
v -0.2 0 5.9
v 0 0 5.9
v -0.6 0 5.6
v -0.4 0 5.6
v -0.2 0 5.6
v 0 0 5.6
v -0.8 0.6 5.8
v -0.6 0.6 5.8
v 0 0.6 5.8
v 0.2 0.6 5.8
v -0.8 0.6 5.6
v -0.6 0.6 5.6
v 0 0.6 5.6
v 0.2 0.6 5.6
v -0.6 0.7 5.9
v 0 0.7 5.9
v -0.6 0.7 5.8
v -0.4 0.7 5.8
v -0.2 0.7 5.8
v 0 0.7 5.8
v -0.6 0.7 5.6
v -0.4 0.7 5.6
v -0.2 0.7 5.6
v 0 0.7 5.6
v -0.6 0.7 5.5
v 0 0.7 5.5
v -0.7 1.4 5.6
v -0.6 1.4 5.6
v 0 1.4 5.6
v 0.1 1.4 5.6
v -0.6 1.4 5.5
v -0.5 1.4 5.5
v -0.1 1.4 5.5
v 0 1.4 5.5
v -0.7 1.4 5.4
v 0.1 1.4 5.4
v -0.6 1.5 6
v 0 1.5 6
v -0.4 1.5 5.8
v -0.2 1.5 5.8
v -0.6 1.5 5.7
v 0 1.5 5.7
v -0.4 1.5 5.6
v -0.2 1.5 5.6
v -0.6 1.5 5.5
v 0 1.5 5.5
v -0.7 1.6 5.9
v -0.6 1.6 5.9
v 0 1.6 5.9
v 0.1 1.6 5.9
v -0.7 1.6 5.8
v -0.6 1.6 5.8
v 0 1.6 5.8
v 0.1 1.6 5.8
v -0.7 1.6 5.7
v -0.6 1.6 5.7
v 0 1.6 5.7
v 0.1 1.6 5.7
v -0.6 1.9 6.1
v -0.4 1.9 6.1
v -0.2 1.9 6.1
v 0 1.9 6.1
v -0.7 1.9 6
v -0.6 1.9 6
v -0.5 1.9 6
v -0.4 1.9 6
v -0.2 1.9 6
v -0.1 1.9 6
v 0 1.9 6
v -0.7 1.9 5.9
v -0.6 1.9 5.9
v -0.7 2 6.3
v 0.1 2 6.3
v -0.8 2 6.2
v -0.7 2 6.2
v 0.1 2 6.2
v 0.2 2 6.2
v -0.9 2 6.1
v -0.8 2 6.1
v -0.6 2 6.1
v -0.4 2 6.1
v -0.2 2 6.1
v 0 2 6.1
v 0.1 2 6.1
v 0.2 2 6.1
v 0.3 2 6.1
v -0.7 2 6
v -0.6 2 6
v -0.4 2 6
v -0.2 2 6
v 0 2 6
v 0 2 5.9
v 0.1 2 5.9
v -0.9 2 5.4
v -0.8 2 5.4
v -0.7 2 5.4
v 0.1 2 5.4
v 0.2 2 5.4
v 0.3 2 5.4
v -0.8 2 5.3
v -0.7 2 5.3
v 0.1 2 5.3
v 0.2 2 5.3
v -0.7 2 5.2
v 0.1 2 5.2
v -0.6 0.1 5.9
v -0.4 0.1 5.9
v -0.2 0.1 5.9
v 0 0.1 5.9
v -0.6 0.1 5.8
v -0.4 0.1 5.8
v -0.2 0.1 5.8
v 0 0.1 5.8
v -0.6 1.4 5.9
v -0.5 1.4 5.9
v -0.1 1.4 5.9
v 0 1.4 5.9
v -0.8 1.4 5.8
v -0.6 1.4 5.8
v -0.4 1.4 5.8
v -0.2 1.4 5.8
v 0 1.4 5.8
v 0.2 1.4 5.8
v -0.7 1.4 5.7
v -0.6 1.4 5.7
v 0 1.4 5.7
v 0.1 1.4 5.7
v -0.8 1.4 5.6
v -0.7 1.4 5.6
v -0.4 1.4 5.6
v -0.2 1.4 5.6
v 0.1 1.4 5.6
v 0.2 1.4 5.6
v -0.6 1.4 5.5
v -0.5 1.4 5.5
v -0.1 1.4 5.5
v 0 1.4 5.5
v -0.7 2.1 6.3
v 0.1 2.1 6.3
v -0.8 2.1 6.2
v -0.7 2.1 6.2
v 0.1 2.1 6.2
v 0.2 2.1 6.2
v -0.9 2.1 6.1
v -0.8 2.1 6.1
v -0.7 2.1 6.1
v 0.1 2.1 6.1
v 0.2 2.1 6.1
v 0.3 2.1 6.1
v -0.9 2.1 5.4
v -0.8 2.1 5.4
v -0.7 2.1 5.4
v 0.1 2.1 5.4
v 0.2 2.1 5.4
v 0.3 2.1 5.4
v -0.8 2.1 5.3
v -0.7 2.1 5.3
v 0.1 2.1 5.3
v 0.2 2.1 5.3
v -0.7 2.1 5.2
v 0.1 2.1 5.2
v -0.7 2.3 6.1
v -0.6 2.3 6.1
v 0 2.3 6.1
v 0.1 2.3 6.1
v -0.7 2.3 6
v -0.6 2.3 6
v 0 2.3 6
v 0.1 2.3 6
v -0.7 2.3 5.5
v -0.6 2.3 5.5
v 0 2.3 5.5
v 0.1 2.3 5.5
v -0.7 2.3 5.4
v -0.6 2.3 5.4
v 0 2.3 5.4
v 0.1 2.3 5.4
v -0.6 2.4 6.1
v 0 2.4 6.1
v -0.7 2.4 6
v -0.6 2.4 6
v 0 2.4 6
v 0.1 2.4 6
v -0.7 2.4 5.5
v -0.6 2.4 5.5
v 0 2.4 5.5
v 0.1 2.4 5.5
v -0.6 2.4 5.4
v 0 2.4 5.4
v -0.6 2.5 6
v 0 2.5 6
v -0.6 2.5 5.5
v 0 2.5 5.5

# faces
f 3/10/1 2/10/1 1/10/1
f 4/10/1 2/10/1 3/10/1
f 7/1/1 6/1/1 5/1/1
f 8/1/1 6/1/1 7/1/1
f 9/9/1 8/9/1 7/9/1
f 10/9/1 8/9/1 9/9/1
f 15/10/1 12/10/1 11/10/1
f 16/10/1 12/10/1 15/10/1
f 17/10/1 14/10/1 13/10/1
f 18/10/1 14/10/1 17/10/1
f 24/5/1 20/5/1 19/5/1
f 24/5/1 21/5/1 20/5/1
f 26/5/1 23/5/1 22/5/1
f 27/2/1 24/2/1 23/2/1
f 27/5/1 23/5/1 26/5/1
f 28/5/1 21/5/1 24/5/1
f 28/2/1 24/2/1 27/2/1
f 31/5/1 26/5/1 25/5/1
f 31/5/1 27/5/1 26/5/1
f 31/5/1 28/5/1 27/5/1
f 32/5/1 21/5/1 28/5/1
f 32/5/1 28/5/1 31/5/1
f 35/10/1 30/10/1 29/10/1
f 36/10/1 30/10/1 35/10/1
f 39/10/1 34/10/1 33/10/1
f 40/10/1 34/10/1 39/10/1
f 41/10/1 38/10/1 37/10/1
f 42/10/1 38/10/1 41/10/1
f 43/10/1 38/10/1 42/10/1
f 44/10/1 38/10/1 43/10/1
f 45/10/1 43/10/1 42/10/1
f 46/10/1 43/10/1 45/10/1
f 49/5/1 48/5/1 47/5/1
f 50/5/1 48/5/1 49/5/1
f 51/5/1 48/5/1 50/5/1
f 52/5/1 48/5/1 51/5/1
f 53/1/1 52/1/1 51/1/1
f 54/1/1 52/1/1 53/1/1
f 55/4/1 54/4/1 53/4/1
f 56/4/1 54/4/1 55/4/1
f 61/4/1 58/4/1 57/4/1
f 62/4/1 58/4/1 61/4/1
f 63/4/1 60/4/1 59/4/1
f 64/11/1 62/11/1 61/11/1
f 65/11/1 62/11/1 64/11/1
f 66/4/1 65/4/1 64/4/1
f 67/4/1 65/4/1 66/4/1
f 68/4/1 60/4/1 63/4/1
f 69/4/1 60/4/1 68/4/1
f 72/1/1 71/1/1 70/1/1
f 73/1/1 71/1/1 72/1/1
f 74/1/1 71/1/1 73/1/1
f 75/1/1 71/1/1 74/1/1
f 76/7/1 73/7/1 72/7/1
f 77/7/1 73/7/1 76/7/1
f 79/1/1 77/1/1 76/1/1
f 80/1/1 77/1/1 79/1/1
f 81/5/1 79/5/1 78/5/1
f 82/5/1 79/5/1 81/5/1
f 87/10/1 84/10/1 83/10/1
f 88/10/1 84/10/1 87/10/1
f 89/10/1 86/10/1 85/10/1
f 90/10/1 86/10/1 89/10/1
f 91/10/1 89/10/1 88/10/1
f 92/10/1 89/10/1 91/10/1
f 95/1/1 94/1/1 93/1/1
f 96/1/1 94/1/1 95/1/1
f 99/5/1 98/5/1 97/5/1
f 100/5/1 98/5/1 99/5/1
f 101/5/1 98/5/1 100/5/1
f 102/5/1 98/5/1 101/5/1
f 103/1/1 102/1/1 101/1/1
f 104/1/1 102/1/1 103/1/1
f 105/4/1 104/4/1 103/4/1
f 106/4/1 104/4/1 105/4/1
f 109/5/1 108/5/1 107/5/1
f 110/5/1 108/5/1 109/5/1
f 113/5/1 112/5/1 111/5/1
f 114/5/1 112/5/1 113/5/1
f 115/5/2 116/5/2 117/5/2
f 117/5/2 116/5/2 118/5/2
f 119/5/2 120/5/2 121/5/2
f 121/5/2 120/5/2 122/5/2
f 122/5/2 120/5/2 123/5/2
f 123/5/2 120/5/2 124/5/2
f 123/1/2 124/1/2 125/1/2
f 125/1/2 124/1/2 126/1/2
f 125/4/2 126/4/2 127/4/2
f 127/4/2 126/4/2 128/4/2
f 129/5/2 130/5/2 131/5/2
f 131/5/2 130/5/2 132/5/2
f 133/1/2 134/1/2 135/1/2
f 135/1/2 134/1/2 136/1/2
f 137/5/2 138/5/2 139/5/2
f 139/5/2 138/5/2 140/5/2
f 140/5/2 138/5/2 141/5/2
f 141/5/2 138/5/2 142/5/2
f 141/1/2 142/1/2 143/1/2
f 143/1/2 142/1/2 144/1/2
f 143/4/2 144/4/2 145/4/2
f 145/4/2 144/4/2 146/4/2
f 147/4/2 148/4/2 151/4/2
f 151/4/2 148/4/2 152/4/2
f 149/4/2 150/4/2 153/4/2
f 151/11/2 152/11/2 154/11/2
f 154/11/2 152/11/2 155/11/2
f 154/4/2 155/4/2 156/4/2
f 156/4/2 155/4/2 157/4/2
f 153/4/2 150/4/2 158/4/2
f 158/4/2 150/4/2 159/4/2
f 160/1/2 161/1/2 162/1/2
f 162/1/2 161/1/2 163/1/2
f 163/1/2 161/1/2 164/1/2
f 164/1/2 161/1/2 165/1/2
f 162/7/2 163/7/2 166/7/2
f 166/7/2 163/7/2 167/7/2
f 166/1/2 167/1/2 169/1/2
f 168/5/2 169/5/2 170/5/2
f 169/1/2 167/1/2 171/1/2
f 170/5/2 169/5/2 171/5/2
f 171/1/2 167/1/2 172/1/2
f 173/10/2 174/10/2 177/10/2
f 177/10/2 174/10/2 178/10/2
f 175/10/2 176/10/2 179/10/2
f 179/10/2 176/10/2 180/10/2
f 178/10/2 179/10/2 181/10/2
f 181/10/2 179/10/2 182/10/2
f 183/5/2 184/5/2 188/5/2
f 184/5/2 185/5/2 188/5/2
f 186/5/2 187/5/2 189/5/2
f 187/2/2 188/2/2 189/2/2
f 188/5/2 185/5/2 190/5/2
f 189/2/2 188/2/2 190/2/2
f 186/5/2 189/5/2 193/5/2
f 189/5/2 190/5/2 193/5/2
f 190/5/2 185/5/2 194/5/2
f 193/5/2 190/5/2 194/5/2
f 191/10/2 192/10/2 197/10/2
f 197/10/2 192/10/2 198/10/2
f 195/10/2 196/10/2 201/10/2
f 201/10/2 196/10/2 202/10/2
f 199/10/2 200/10/2 203/10/2
f 203/10/2 200/10/2 204/10/2
f 204/10/2 200/10/2 205/10/2
f 205/10/2 200/10/2 206/10/2
f 204/10/2 205/10/2 207/10/2
f 207/10/2 205/10/2 208/10/2
f 209/1/2 210/1/2 211/1/2
f 211/1/2 210/1/2 212/1/2
f 211/9/2 212/9/2 213/9/2
f 213/9/2 212/9/2 214/9/2
f 215/10/2 216/10/2 219/10/2
f 219/10/2 216/10/2 220/10/2
f 217/10/2 218/10/2 221/10/2
f 221/10/2 218/10/2 222/10/2
f 223/10/2 224/10/2 225/10/2
f 225/10/2 224/10/2 226/10/2
f 229/10/3 228/10/3 227/10/3
f 230/10/3 228/10/3 229/10/3
f 233/10/3 232/10/3 231/10/3
f 234/10/3 232/10/3 233/10/3
f 237/10/3 236/10/3 235/10/3
f 238/10/3 236/10/3 237/10/3
f 241/10/3 240/10/3 239/10/3
f 242/10/3 240/10/3 241/10/3
f 247/10/3 244/10/3 243/10/3
f 249/5/3 246/5/3 245/5/3
f 250/5/3 246/5/3 249/5/3
f 253/5/3 252/5/3 251/5/3
f 254/5/3 252/5/3 253/5/3
f 255/10/3 248/10/3 247/10/3
f 255/10/3 247/10/3 243/10/3
f 256/10/3 248/10/3 255/10/3
f 257/10/3 255/10/3 243/10/3
f 258/10/3 255/10/3 257/10/3
f 261/10/3 260/10/3 259/10/3
f 262/10/3 260/10/3 261/10/3
f 270/5/3 264/5/3 263/5/3
f 271/5/3 264/5/3 270/5/3
f 272/10/3 266/10/3 265/10/3
f 273/10/3 266/10/3 272/10/3
f 275/7/3 269/7/3 268/7/3
f 275/1/3 268/1/3 267/1/3
f 276/1/3 270/1/3 269/1/3
f 276/7/3 269/7/3 275/7/3
f 277/1/3 270/1/3 276/1/3
f 278/1/3 275/1/3 267/1/3
f 278/1/3 276/1/3 275/1/3
f 279/1/3 276/1/3 278/1/3
f 280/6/3 277/6/3 276/6/3
f 280/1/3 276/1/3 279/1/3
f 281/6/3 277/6/3 280/6/3
f 283/8/3 279/8/3 278/8/3
f 283/1/3 278/1/3 267/1/3
f 284/1/3 281/1/3 280/1/3
f 284/8/3 279/8/3 283/8/3
f 284/1/3 282/1/3 281/1/3
f 284/1/3 280/1/3 279/1/3
f 285/1/3 282/1/3 284/1/3
f 286/1/3 282/1/3 285/1/3
f 287/1/3 282/1/3 286/1/3
f 288/1/3 283/1/3 267/1/3
f 288/1/3 284/1/3 283/1/3
f 288/1/3 285/1/3 284/1/3
f 289/6/3 286/6/3 285/6/3
f 289/1/3 285/1/3 288/1/3
f 290/6/3 286/6/3 289/6/3
f 291/1/3 288/1/3 267/1/3
f 292/7/3 289/7/3 288/7/3
f 292/1/3 288/1/3 291/1/3
f 293/1/3 290/1/3 289/1/3
f 293/7/3 289/7/3 292/7/3
f 294/1/3 290/1/3 293/1/3
f 296/10/3 274/10/3 273/10/3
f 297/10/3 274/10/3 296/10/3
f 298/10/3 296/10/3 295/10/3
f 299/10/3 296/10/3 298/10/3
f 308/5/3 301/5/3 300/5/3
f 309/5/3 301/5/3 308/5/3
f 310/5/3 301/5/3 309/5/3
f 311/4/3 305/4/3 304/4/3
f 312/4/3 305/4/3 311/4/3
f 313/11/3 306/11/3 305/11/3
f 313/4/3 305/4/3 312/4/3
f 314/4/3 307/4/3 306/4/3
f 314/11/3 306/11/3 313/11/3
f 315/4/3 307/4/3 314/4/3
f 316/5/3 303/5/3 302/5/3
f 317/5/3 303/5/3 316/5/3
f 320/3/3 312/3/3 311/3/3
f 320/4/3 311/4/3 304/4/3
f 321/4/3 313/4/3 312/4/3
f 321/3/3 312/3/3 320/3/3
f 322/9/3 314/9/3 313/9/3
f 322/4/3 313/4/3 321/4/3
f 322/9/3 315/9/3 314/9/3
f 323/9/3 315/9/3 322/9/3
f 324/9/3 315/9/3 323/9/3
f 325/5/3 319/5/3 318/5/3
f 326/5/3 319/5/3 325/5/3
f 327/4/3 320/4/3 304/4/3
f 327/4/3 321/4/3 320/4/3
f 327/4/3 322/4/3 321/4/3
f 328/11/3 323/11/3 322/11/3
f 328/4/3 322/4/3 327/4/3
f 329/4/3 324/4/3 323/4/3
f 329/11/3 323/11/3 328/11/3
f 330/4/3 324/4/3 329/4/3
f 334/5/3 333/5/3 332/5/3
f 334/5/3 332/5/3 331/5/3
f 335/5/3 333/5/3 334/5/3
f 342/1/3 337/1/3 336/1/3
f 343/1/3 337/1/3 342/1/3
f 344/9/3 338/9/3 337/9/3
f 344/1/3 337/1/3 343/1/3
f 345/9/3 338/9/3 344/9/3
f 346/9/3 338/9/3 345/9/3
f 347/5/3 340/5/3 339/5/3
f 348/1/3 341/1/3 340/1/3
f 348/5/3 340/5/3 347/5/3
f 349/4/3 343/4/3 342/4/3
f 349/1/3 341/1/3 348/1/3
f 349/4/3 342/4/3 341/4/3
f 350/4/3 343/4/3 349/4/3
f 357/1/3 352/1/3 351/1/3
f 358/1/3 352/1/3 357/1/3
f 359/5/3 354/5/3 353/5/3
f 360/1/3 355/1/3 354/1/3
f 360/5/3 354/5/3 359/5/3
f 361/4/3 356/4/3 355/4/3
f 361/1/3 355/1/3 360/1/3
f 362/4/3 356/4/3 361/4/3
f 363/4/3 356/4/3 362/4/3
f 367/1/3 364/1/3 363/1/3
f 367/1/3 363/1/3 362/1/3
f 368/9/3 366/9/3 365/9/3
f 368/1/3 364/1/3 367/1/3
f 368/9/3 365/9/3 364/9/3
f 369/9/3 366/9/3 368/9/3
f 372/5/3 371/5/3 370/5/3
f 373/5/3 371/5/3 372/5/3
f 374/5/3 371/5/3 373/5/3
f 378/5/3 376/5/3 375/5/3
f 378/5/3 377/5/3 376/5/3
f 379/5/3 377/5/3 378/5/3
f 382/5/3 381/5/3 380/5/3
f 383/5/3 381/5/3 382/5/3
f 384/5/3 381/5/3 383/5/3
f 385/5/3 381/5/3 384/5/3
f 387/9/4 388/9/4 389/9/4
f 386/1/4 387/1/4 393/1/4
f 393/1/4 387/1/4 394/1/4
f 387/9/4 389/9/4 395/9/4
f 394/1/4 387/1/4 395/1/4
f 395/9/4 389/9/4 396/9/4
f 390/5/4 391/5/4 397/5/4
f 391/1/4 392/1/4 398/1/4
f 397/5/4 391/5/4 398/5/4
f 393/4/4 394/4/4 399/4/4
f 398/1/4 392/1/4 399/1/4
f 392/4/4 393/4/4 399/4/4
f 399/4/4 394/4/4 400/4/4
f 401/1/4 402/1/4 407/1/4
f 407/1/4 402/1/4 408/1/4
f 403/5/4 404/5/4 409/5/4
f 404/1/4 405/1/4 410/1/4
f 409/5/4 404/5/4 410/5/4
f 405/4/4 406/4/4 411/4/4
f 410/1/4 405/1/4 411/1/4
f 411/4/4 406/4/4 412/4/4
f 412/4/4 406/4/4 413/4/4
f 414/9/4 415/9/4 416/9/4
f 413/1/4 414/1/4 417/1/4
f 412/1/4 413/1/4 417/1/4
f 414/9/4 416/9/4 418/9/4
f 417/1/4 414/1/4 418/1/4
f 418/9/4 416/9/4 419/9/4
f 420/10/4 421/10/4 424/10/4
f 424/10/4 421/10/4 425/10/4
f 422/4/4 423/4/4 427/4/4
f 427/4/4 423/4/4 428/4/4
f 422/4/4 427/4/4 429/4/4
f 427/9/4 428/9/4 429/9/4
f 429/9/4 428/9/4 430/9/4
f 422/4/4 429/4/4 431/4/4
f 429/4/4 430/4/4 431/4/4
f 431/4/4 430/4/4 432/4/4
f 425/10/4 426/10/4 434/10/4
f 434/10/4 426/10/4 435/10/4
f 433/10/4 434/10/4 436/10/4
f 436/10/4 434/10/4 437/10/4
f 438/10/4 439/10/4 440/10/4
f 440/10/4 439/10/4 441/10/4
f 444/10/4 445/10/4 446/10/4
f 444/10/4 446/10/4 448/10/4
f 446/10/4 447/10/4 448/10/4
f 448/10/4 447/10/4 449/10/4
f 442/5/4 443/5/4 450/5/4
f 450/5/4 443/5/4 451/5/4
f 444/10/4 448/10/4 452/10/4
f 452/10/4 448/10/4 453/10/4
f 454/10/4 455/10/4 456/10/4
f 456/10/4 455/10/4 457/10/4
f 458/10/4 459/10/4 460/10/4
f 460/10/4 459/10/4 461/10/4
f 462/10/4 463/10/4 464/10/4
f 464/10/4 463/10/4 465/10/4
f 466/10/4 467/10/4 468/10/4
f 468/10/4 467/10/4 469/10/4
f 474/5/5 471/5/5 470/5/5
f 475/5/5 471/5/5 474/5/5
f 476/5/5 473/5/5 472/5/5
f 477/5/5 473/5/5 476/5/5
f 482/1/5 479/1/5 478/1/5
f 483/1/5 479/1/5 482/1/5
f 484/1/5 481/1/5 480/1/5
f 485/1/5 481/1/5 484/1/5
f 488/4/5 487/4/5 486/4/5
f 489/4/5 487/4/5 488/4/5
f 490/4/5 487/4/5 489/4/5
f 491/4/5 487/4/5 490/4/5
f 493/4/5 490/4/5 489/4/5
f 494/4/5 490/4/5 493/4/5
f 496/4/5 493/4/5 492/4/5
f 496/4/5 495/4/5 494/4/5
f 496/4/5 494/4/5 493/4/5
f 497/4/5 495/4/5 496/4/5
f 502/5/5 499/5/5 498/5/5
f 505/5/5 501/5/5 500/5/5
f 506/5/5 504/5/5 503/5/5
f 506/5/5 505/5/5 504/5/5
f 506/5/5 502/5/5 498/5/5
f 506/5/5 503/5/5 502/5/5
f 507/5/5 501/5/5 505/5/5
f 507/5/5 505/5/5 506/5/5
f 510/1/5 509/1/5 508/1/5
f 511/1/5 509/1/5 510/1/5
f 512/1/5 510/1/5 508/1/5
f 513/1/5 509/1/5 511/1/5
f 514/1/5 510/1/5 512/1/5
f 515/1/5 513/1/5 511/1/5
f 516/1/5 514/1/5 512/1/5
f 516/1/5 515/1/5 514/1/5
f 517/1/5 513/1/5 515/1/5
f 517/1/5 515/1/5 516/1/5
f 522/5/5 519/5/5 518/5/5
f 523/5/5 519/5/5 522/5/5
f 524/5/5 521/5/5 520/5/5
f 525/5/5 521/5/5 524/5/5
f 526/2/5 523/2/5 522/2/5
f 527/2/5 523/2/5 526/2/5
f 528/2/5 525/2/5 524/2/5
f 529/2/5 525/2/5 528/2/5
f 535/5/5 531/5/5 530/5/5
f 536/5/5 531/5/5 535/5/5
f 537/5/5 531/5/5 536/5/5
f 538/5/5 533/5/5 532/5/5
f 539/5/5 533/5/5 538/5/5
f 540/5/5 533/5/5 539/5/5
f 541/5/5 535/5/5 534/5/5
f 542/5/5 535/5/5 541/5/5
f 546/10/5 544/10/5 543/10/5
f 547/10/5 544/10/5 546/10/5
f 550/10/5 546/10/5 545/10/5
f 550/10/5 548/10/5 547/10/5
f 550/10/5 547/10/5 546/10/5
f 551/10/5 548/10/5 550/10/5
f 552/10/5 548/10/5 551/10/5
f 553/10/5 548/10/5 552/10/5
f 554/10/5 548/10/5 553/10/5
f 555/10/5 548/10/5 554/10/5
f 556/10/5 548/10/5 555/10/5
f 558/10/5 550/10/5 549/10/5
f 558/10/5 551/10/5 550/10/5
f 559/10/5 551/10/5 558/10/5
f 560/5/5 553/5/5 552/5/5
f 561/5/5 553/5/5 560/5/5
f 562/5/5 555/5/5 554/5/5
f 563/5/5 555/5/5 562/5/5
f 564/10/5 557/10/5 556/10/5
f 564/5/5 555/5/5 563/5/5
f 564/10/5 556/10/5 555/10/5
f 565/10/5 558/10/5 549/10/5
f 566/10/5 558/10/5 565/10/5
f 567/10/5 558/10/5 566/10/5
f 568/10/5 557/10/5 564/10/5
f 569/10/5 557/10/5 568/10/5
f 570/10/5 557/10/5 569/10/5
f 571/10/5 567/10/5 566/10/5
f 571/10/5 569/10/5 568/10/5
f 571/10/5 568/10/5 567/10/5
f 572/10/5 569/10/5 571/10/5
f 573/10/5 569/10/5 572/10/5
f 574/10/5 569/10/5 573/10/5
f 575/10/5 573/10/5 572/10/5
f 576/10/5 573/10/5 575/10/5
f 577/5/6 578/5/6 581/5/6
f 581/5/6 578/5/6 582/5/6
f 579/5/6 580/5/6 583/5/6
f 583/5/6 580/5/6 584/5/6
f 585/4/6 586/4/6 590/4/6
f 586/9/6 587/9/6 591/9/6
f 591/9/6 587/9/6 592/9/6
f 587/4/6 588/4/6 593/4/6
f 589/9/6 590/9/6 595/9/6
f 590/4/6 586/4/6 596/4/6
f 595/9/6 590/9/6 596/9/6
f 593/9/6 594/9/6 597/9/6
f 587/4/6 593/4/6 597/4/6
f 597/9/6 594/9/6 598/9/6
f 589/9/6 595/9/6 599/9/6
f 599/9/6 595/9/6 600/9/6
f 586/9/6 591/9/6 601/9/6
f 592/9/6 587/9/6 602/9/6
f 598/9/6 594/9/6 603/9/6
f 603/9/6 594/9/6 604/9/6
f 596/4/6 586/4/6 605/4/6
f 586/9/6 601/9/6 606/9/6
f 605/4/6 586/4/6 606/4/6
f 601/9/6 602/9/6 606/9/6
f 602/9/6 587/9/6 607/9/6
f 606/9/6 602/9/6 607/9/6
f 587/4/6 597/4/6 607/4/6
f 607/4/6 597/4/6 608/4/6
f 609/10/6 610/10/6 612/10/6
f 612/10/6 610/10/6 613/10/6
f 611/10/6 612/10/6 616/10/6
f 613/10/6 614/10/6 616/10/6
f 612/10/6 613/10/6 616/10/6
f 616/10/6 614/10/6 617/10/6
f 617/10/6 614/10/6 618/10/6
f 618/10/6 614/10/6 619/10/6
f 615/10/6 616/10/6 621/10/6
f 616/10/6 617/10/6 621/10/6
f 621/10/6 617/10/6 622/10/6
f 622/10/6 617/10/6 623/10/6
f 619/10/6 620/10/6 624/10/6
f 618/10/6 619/10/6 624/10/6
f 624/10/6 620/10/6 625/10/6
f 625/10/6 620/10/6 626/10/6
f 622/10/6 623/10/6 627/10/6
f 624/10/6 625/10/6 627/10/6
f 623/10/6 624/10/6 627/10/6
f 627/10/6 625/10/6 628/10/6
f 628/10/6 625/10/6 629/10/6
f 629/10/6 625/10/6 630/10/6
f 628/10/6 629/10/6 631/10/6
f 631/10/6 629/10/6 632/10/6
f 633/10/6 634/10/6 637/10/6
f 637/10/6 634/10/6 638/10/6
f 635/10/6 636/10/6 639/10/6
f 639/10/6 636/10/6 640/10/6
f 641/10/6 642/10/6 645/10/6
f 645/10/6 642/10/6 646/10/6
f 643/10/6 644/10/6 647/10/6
f 647/10/6 644/10/6 648/10/6
f 649/10/6 650/10/6 652/10/6
f 652/10/6 650/10/6 653/10/6
f 651/10/6 652/10/6 655/10/6
f 655/10/6 652/10/6 656/10/6
f 653/10/6 654/10/6 657/10/6
f 657/10/6 654/10/6 658/10/6
f 656/10/6 657/10/6 659/10/6
f 659/10/6 657/10/6 660/10/6
f 661/10/6 662/10/6 663/10/6
f 663/10/6 662/10/6 664/10/6
