# generated by tools/rig_people.py — do not edit
mtllib people.mtl
o body
usemtl palette
v 1 15 -3.5
v 1 15 -2.5
v 1 16 -2.5
v 1 16 -3.5
v 1 19 -3.5
v 1 19 -2.5
v 1 20 -2.5
v 1 20 -3.5
v -1 12 -3.5
v -1 12 -1.5
v -1 13 -1.5
v -1 13 -3.5
v -1 14 -0.5
v -1 14 1.5
v -1 15 1.5
v -1 15 -0.5
v -2 13 -3.5
v -2 13 -1.5
v -2 14 -1.5
v -2 14 -3.5
v -2 15 -3.5
v -2 15 -2.5
v -2 17 -2.5
v -2 17 -3.5
v -3 14 -3.5
v -3 14 -2.5
v -3 15 -2.5
v -3 15 -3.5
v -3 19 -3.5
v -3 19 -2.5
v -3 20 -2.5
v -3 20 -3.5
v -3 23 -3.5
v -3 23 -2.5
v -3 24 -2.5
v -3 24 -3.5
v -3 16 -2.5
v -3 16 -1.5
v -3 20 -1.5
v -3 24 2.5
v -3 25 2.5
v -3 25 -2.5
v -3 7 -1.5
v -3 7 -0.5
v -3 9 -0.5
v -3 9 -1.5
v -3 14 -0.5
v -3 14 -1.5
v -3 7 1.5
v -3 9 1.5
v -3 13 1.5
v -3 13 -0.5
v -3 13 2.5
v -3 14 2.5
v -3 15 -0.5
v -3 15 2.5
v -3 16 2.5
v -3 16 -0.5
v -3 16 0.5
v -3 17 2.5
v -3 17 0.5
v -3 7 2.5
v -3 9 2.5
v -3 23 2.5
v -3 23 3.5
v -3 24 3.5
v -4 20 -5.5
v -4 20 -4.5
v -4 21 -4.5
v -4 21 -5.5
v -4 21 -3.5
v -4 21 3.5
v -4 23 3.5
v -4 23 -3.5
v -4 14 -2.5
v -4 14 -0.5
v -4 15 -0.5
v -4 15 -2.5
v -4 15 -1.5
v -4 16 -1.5
v -4 16 -2.5
v -4 23 -2.5
v -4 23 2.5
v -4 24 2.5
v -4 24 -2.5
v -4 16 -0.5
v -4 20 -0.5
v -4 20 -1.5
v -4 18 -0.5
v -4 18 1.5
v -4 19 1.5
v -4 19 -0.5
v -4 19 3.5
v -4 20 3.5
v -4 17 0.5
v -4 17 2.5
v -4 18 2.5
v -4 18 0.5
v -4 18 3.5
v -4 17 3.5
v -4 20 4.5
v -4 20 5.5
v -4 21 5.5
v -4 21 4.5
v -5 20 -4.5
v -5 20 -3.5
v -5 21 -3.5
v -5 21 -4.5
v -5 16 -0.5
v -5 16 0.5
v -5 18 0.5
v -5 18 -0.5
v -5 20 3.5
v -5 20 4.5
v -5 21 4.5
v -5 21 3.5
v -6 20 -3.5
v -6 20 3.5
v -6 21 3.5
v -6 21 -3.5
v 6 21 -3.5
v 6 21 3.5
v 6 20 3.5
v 6 20 -3.5
v 5 21 -4.5
v 5 21 -3.5
v 5 20 -3.5
v 5 20 -4.5
v 5 18 -0.5
v 5 18 0.5
v 5 16 0.5
v 5 16 -0.5
v 5 21 3.5
v 5 21 4.5
v 5 20 4.5
v 5 20 3.5
v 4 21 -5.5
v 4 21 -4.5
v 4 20 -4.5
v 4 20 -5.5
v 4 23 -3.5
v 4 23 3.5
v 4 21 3.5
v 4 21 -3.5
v 4 15 -2.5
v 4 15 -0.5
v 4 14 -0.5
v 4 14 -2.5
v 4 16 -2.5
v 4 16 -1.5
v 4 15 -1.5
v 4 24 -2.5
v 4 24 2.5
v 4 23 2.5
v 4 23 -2.5
v 4 16 -0.5
v 4 20 -1.5
v 4 20 -0.5
v 4 19 -0.5
v 4 19 0.5
v 4 18 0.5
v 4 18 -0.5
v 4 20 3.5
v 4 19 3.5
v 4 18 1.5
v 4 17 1.5
v 4 17 0.5
v 4 18 3.5
v 4 17 3.5
v 4 21 4.5
v 4 21 5.5
v 4 20 5.5
v 4 20 4.5
v 3 15 -3.5
v 3 15 -2.5
v 3 14 -2.5
v 3 14 -3.5
v 3 20 -3.5
v 3 20 -2.5
v 3 19 -2.5
v 3 19 -3.5
v 3 24 -3.5
v 3 24 -2.5
v 3 23 -2.5
v 3 23 -3.5
v 3 20 -1.5
v 3 16 -1.5
v 3 16 -2.5
v 3 25 -2.5
v 3 25 2.5
v 3 24 2.5
v 3 9 -1.5
v 3 9 -0.5
v 3 7 -0.5
v 3 7 -1.5
v 3 14 -1.5
v 3 14 -0.5
v 3 9 1.5
v 3 7 1.5
v 3 13 -0.5
v 3 13 1.5
v 3 14 2.5
v 3 13 2.5
v 3 16 -0.5
v 3 16 2.5
v 3 15 2.5
v 3 15 -0.5
v 3 17 0.5
v 3 17 2.5
v 3 16 0.5
v 3 9 2.5
v 3 7 2.5
v 3 24 3.5
v 3 23 3.5
v 3 23 2.5
v 2 14 -3.5
v 2 14 -1.5
v 2 13 -1.5
v 2 13 -3.5
v 2 17 -3.5
v 2 17 -2.5
v 2 15 -2.5
v 2 15 -3.5
v 1 13 -3.5
v 1 13 -2.5
v 1 12 -2.5
v 1 12 -3.5
v 1 13 -1.5
v 1 12 -1.5
v 1 15 -0.5
v 1 15 1.5
v 1 14 1.5
v 1 14 -0.5
v -1 16 -3.5
v -1 16 -2.5
v -1 15 -2.5
v -1 15 -3.5
v -1 20 -3.5
v -1 20 -2.5
v -1 19 -2.5
v -1 19 -3.5
v 5 17 0.5
v -5 17 0.5
v 2 14 2.5
v 2 9 2.5
v -2 14 2.5
v -2 9 2.5
v 1 19 3.5
v 1 17 3.5
v 3 20 3.5
v 3 19 3.5
v -2 20 3.5
v -2 19 3.5
v 1 18 3.5
v -1 18 3.5
v -1 17 3.5
v 1 14 -3.5
v 1 17 -3.5
v -0 13 -3.5
v -0 14 -3.5
v -2 16 -3.5
v 2 19 -2.5
v -3 17 -2.5
v -3 18 -2.5
v 2 18 -2.5
v 1 18 -2.5
v -1 18 -2.5
v -2 18 -2.5
v -2 19 -2.5
v 2 9 -1.5
v -2 9 -1.5
v -2 12 -1.5
v 2 12 -1.5
v 2 14 -0.5
v 1 14 2.5
v -2 14 1.5
v -2 14 -0.5
v 1 7 1.5
v 1 7 -0.5
v -1 7 1.5
v -1 7 -0.5
v -1 12 -2.5
v -0 12 -1.5
v -0 12 -2.5
v 1 15 2.5
v -3 15 1.5
v 3 17 1.5
v 3 17 3.5
v 1 17 2.5
v -1 17 2.5
v 6 20 -2.5
v 4 20 -2.5
v -6 20 -1.5
vt 0.9980469 0.5
vt 0.5097656 0.5
vt 0.0449219 0.5
vt 0.4824219 0.5
vt 0.3300781 0.5
vt 0.4863281 0.5
vt 0.2792969 0.5
vt 0.9707031 0.5
vt 0.0527344 0.5
vt 0.5292969 0.5
vn -1 0 0
vn 1 0 0
vn 0 0 1
vn 0 0 -1
vn 0 1 0
vn 0 -1 0
f 1/1/1 2/1/1 3/1/1 4/1/1
f 5/2/1 6/2/1 7/2/1 8/2/1
f 9/2/1 10/2/1 11/2/1 12/2/1
f 13/3/1 14/3/1 15/3/1 16/3/1
f 17/2/1 18/2/1 19/2/1 20/2/1
f 21/1/1 22/1/1 23/1/1 24/1/1
f 25/1/1 26/1/1 27/1/1 28/1/1
f 29/2/1 30/2/1 31/2/1 32/2/1
f 33/4/1 34/4/1 35/4/1 36/4/1
f 37/3/1 38/3/1 39/3/1 31/3/1
f 35/4/1 40/4/1 41/4/1 42/4/1
f 43/5/1 44/5/1 45/5/1 46/5/1
f 46/6/1 45/6/1 47/6/1 48/6/1
f 44/7/1 49/7/1 50/7/1 45/7/1
f 45/8/1 50/8/1 51/8/1 52/8/1
f 52/6/1 53/6/1 54/6/1 47/6/1
f 55/3/1 56/3/1 57/3/1 58/3/1
f 59/3/1 57/3/1 60/3/1 61/3/1
f 49/5/1 62/5/1 63/5/1 50/5/1
f 50/6/1 63/6/1 53/6/1 51/6/1
f 64/4/1 65/4/1 66/4/1 40/4/1
f 67/4/1 68/4/1 69/4/1 70/4/1
f 71/4/1 72/4/1 73/4/1 74/4/1
f 75/2/1 76/2/1 77/2/1 78/2/1
f 78/1/1 79/1/1 80/1/1 81/1/1
f 82/4/1 83/4/1 84/4/1 85/4/1
f 79/2/1 77/2/1 86/2/1 80/2/1
f 80/1/1 86/1/1 87/1/1 88/1/1
f 89/2/1 90/2/1 91/2/1 92/2/1
f 92/1/1 93/1/1 94/1/1 87/1/1
f 95/2/1 96/2/1 97/2/1 98/2/1
f 90/1/1 99/1/1 93/1/1 91/1/1
f 96/1/1 100/1/1 99/1/1 97/1/1
f 101/4/1 102/4/1 103/4/1 104/4/1
f 105/4/1 106/4/1 107/4/1 108/4/1
f 109/9/1 110/9/1 111/9/1 112/9/1
f 113/4/1 114/4/1 115/4/1 116/4/1
f 117/4/1 118/4/1 119/4/1 120/4/1
f 121/4/2 122/4/2 123/4/2 124/4/2
f 125/4/2 126/4/2 127/4/2 128/4/2
f 129/9/2 130/9/2 131/9/2 132/9/2
f 133/4/2 134/4/2 135/4/2 136/4/2
f 137/4/2 138/4/2 139/4/2 140/4/2
f 141/4/2 142/4/2 143/4/2 144/4/2
f 145/2/2 146/2/2 147/2/2 148/2/2
f 149/1/2 150/1/2 151/1/2 145/1/2
f 152/4/2 153/4/2 154/4/2 155/4/2
f 150/2/2 156/2/2 146/2/2 151/2/2
f 157/1/2 158/1/2 156/1/2 150/1/2
f 159/2/2 160/2/2 161/2/2 162/2/2
f 158/1/2 163/1/2 164/1/2 159/1/2
f 161/2/2 165/2/2 166/2/2 167/2/2
f 160/1/2 164/1/2 168/1/2 161/1/2
f 165/1/2 168/1/2 169/1/2 166/1/2
f 170/4/2 171/4/2 172/4/2 173/4/2
f 174/1/2 175/1/2 176/1/2 177/1/2
f 178/2/2 179/2/2 180/2/2 181/2/2
f 182/4/2 183/4/2 184/4/2 185/4/2
f 179/3/2 186/3/2 187/3/2 188/3/2
f 189/4/2 190/4/2 191/4/2 183/4/2
f 192/5/2 193/5/2 194/5/2 195/5/2
f 196/6/2 197/6/2 193/6/2 192/6/2
f 193/7/2 198/7/2 199/7/2 194/7/2
f 200/8/2 201/8/2 198/8/2 193/8/2
f 197/6/2 202/6/2 203/6/2 200/6/2
f 204/3/2 205/3/2 206/3/2 207/3/2
f 208/3/2 209/3/2 205/3/2 210/3/2
f 198/5/2 211/5/2 212/5/2 199/5/2
f 201/6/2 203/6/2 211/6/2 198/6/2
f 191/4/2 213/4/2 214/4/2 215/4/2
f 216/2/2 217/2/2 218/2/2 219/2/2
f 220/1/2 221/1/2 222/1/2 223/1/2
f 224/2/2 225/2/2 226/2/2 227/2/2
f 225/1/2 228/1/2 229/1/2 226/1/2
f 230/3/2 231/3/2 232/3/2 233/3/2
f 234/1/2 235/1/2 236/1/2 237/1/2
f 238/2/2 239/2/2 240/2/2 241/2/2
f 156/2/3 204/2/3 197/2/3 147/2/3
f 207/1/3 230/1/3 233/1/3 197/1/3
f 16/1/3 55/1/3 47/1/3 13/1/3
f 58/2/3 86/2/3 76/2/3 47/2/3
f 242/9/3 208/9/3 210/9/3 131/9/3
f 130/9/3 161/9/3 167/9/3 242/9/3
f 61/9/3 243/9/3 110/9/3 59/9/3
f 98/9/3 111/9/3 243/9/3 95/9/3
f 231/3/3 15/3/3 14/3/3 232/3/3
f 153/4/3 191/4/3 215/4/3 154/4/3
f 211/5/3 63/5/3 62/5/3 212/5/3
f 202/6/3 244/6/3 245/6/3 211/6/3
f 209/3/3 60/3/3 56/3/3 206/3/3
f 190/4/3 41/4/3 40/4/3 191/4/3
f 244/8/3 246/8/3 247/8/3 245/8/3
f 246/6/3 54/6/3 63/6/3 247/6/3
f 40/4/3 84/4/3 83/4/3 64/4/3
f 122/4/3 133/4/3 136/4/3 123/4/3
f 164/1/3 248/1/3 249/1/3 169/1/3
f 163/1/3 250/1/3 251/1/3 164/1/3
f 142/4/3 73/4/3 72/4/3 143/4/3
f 250/2/3 252/2/3 253/2/3 251/2/3
f 213/4/3 66/4/3 65/4/3 214/4/3
f 254/2/3 255/2/3 256/2/3 249/2/3
f 248/1/3 93/1/3 99/1/3 254/1/3
f 255/1/3 99/1/3 100/1/3 256/1/3
f 252/1/3 94/1/3 93/1/3 253/1/3
f 116/4/3 119/4/3 118/4/3 113/4/3
f 134/4/3 170/4/3 173/4/3 135/4/3
f 104/4/3 115/4/3 114/4/3 101/4/3
f 171/4/3 103/4/3 102/4/3 172/4/3
f 140/4/4 67/4/4 70/4/4 137/4/4
f 128/4/4 139/4/4 138/4/4 125/4/4
f 68/4/4 105/4/4 108/4/4 69/4/4
f 124/4/4 127/4/4 126/4/4 121/4/4
f 144/4/4 71/4/4 74/4/4 141/4/4
f 177/1/4 25/1/4 28/1/4 174/1/4
f 181/2/4 5/2/4 8/2/4 178/2/4
f 185/4/4 33/4/4 36/4/4 182/4/4
f 219/2/4 224/2/4 257/2/4 216/2/4
f 223/1/4 1/1/4 258/1/4 220/1/4
f 227/2/4 9/2/4 12/2/4 224/2/4
f 224/1/4 259/1/4 260/1/4 257/1/4
f 4/1/4 261/1/4 24/1/4 258/1/4
f 259/2/4 17/2/4 20/2/4 260/2/4
f 237/1/4 21/1/4 261/1/4 234/1/4
f 241/2/4 29/2/4 32/2/4 238/2/4
f 106/4/4 117/4/4 120/4/4 107/4/4
f 148/2/4 176/2/4 175/2/4 145/2/4
f 145/1/4 175/1/4 188/1/4 149/1/4
f 155/4/4 184/4/4 183/4/4 152/4/4
f 175/3/4 222/3/4 262/3/4 180/3/4
f 183/4/4 35/4/4 42/4/4 189/4/4
f 221/3/4 263/3/4 264/3/4 265/3/4
f 265/10/4 266/10/4 6/10/4 262/10/4
f 2/3/4 236/3/4 235/3/4 3/3/4
f 266/3/4 267/3/4 239/3/4 7/3/4
f 267/10/4 268/10/4 269/10/4 240/10/4
f 22/3/4 27/3/4 263/3/4 23/3/4
f 268/3/4 264/3/4 30/3/4 269/3/4
f 26/2/4 75/2/4 78/2/4 27/2/4
f 27/1/4 78/1/4 81/1/4 37/1/4
f 34/4/4 82/4/4 85/4/4 35/4/4
f 150/1/4 187/1/4 186/1/4 157/1/4
f 195/5/4 43/5/4 46/5/4 192/5/4
f 192/6/4 270/6/4 217/6/4 196/6/4
f 270/8/4 271/8/4 272/8/4 273/8/4
f 273/8/4 229/8/4 228/8/4 218/8/4
f 10/8/4 272/8/4 18/8/4 11/8/4
f 271/6/4 46/6/4 48/6/4 19/6/4
f 38/1/4 80/1/4 88/1/4 39/1/4
f 132/9/4 156/9/4 162/9/4 129/9/4
f 86/9/4 109/9/4 112/9/4 89/9/4
f 197/6/5 274/6/5 244/6/5 202/6/5
f 274/8/5 233/8/5 275/8/5 244/8/5
f 232/8/5 276/8/5 246/8/5 275/8/5
f 13/8/5 277/8/5 276/8/5 14/8/5
f 277/6/5 47/6/5 54/6/5 246/6/5
f 174/1/5 223/1/5 222/1/5 175/1/5
f 1/1/5 237/1/5 236/1/5 2/1/5
f 21/1/5 28/1/5 27/1/5 22/1/5
f 149/1/5 188/1/5 187/1/5 150/1/5
f 37/1/5 81/1/5 80/1/5 38/1/5
f 220/1/5 24/1/5 23/1/5 221/1/5
f 129/9/5 162/9/5 161/9/5 130/9/5
f 89/9/5 112/9/5 111/9/5 98/9/5
f 121/4/5 144/4/5 143/4/5 122/4/5
f 125/4/5 108/4/5 107/4/5 126/4/5
f 133/4/5 116/4/5 115/4/5 134/4/5
f 137/4/5 70/4/5 69/4/5 138/4/5
f 170/4/5 104/4/5 103/4/5 171/4/5
f 71/4/5 120/4/5 119/4/5 72/4/5
f 141/4/5 185/4/5 184/4/5 155/4/5
f 154/4/5 215/4/5 214/4/5 142/4/5
f 33/4/5 74/4/5 82/4/5 34/4/5
f 64/4/5 83/4/5 73/4/5 65/4/5
f 152/4/5 183/4/5 191/4/5 153/4/5
f 182/4/5 36/4/5 35/4/5 183/4/5
f 191/4/5 40/4/5 66/4/5 213/4/5
f 35/4/5 85/4/5 84/4/5 40/4/5
f 189/4/5 42/4/5 41/4/5 190/4/5
f 194/5/6 44/5/6 43/5/6 195/5/6
f 199/7/6 278/7/6 279/7/6 194/7/6
f 212/5/6 62/5/6 49/5/6 199/5/6
f 278/5/6 280/5/6 281/5/6 279/5/6
f 280/7/6 49/7/6 44/7/6 281/7/6
f 226/2/6 282/2/6 9/2/6 227/2/6
f 229/1/6 283/1/6 284/1/6 226/1/6
f 283/2/6 10/2/6 282/2/6 284/2/6
f 218/2/6 228/2/6 224/2/6 219/2/6
f 11/2/6 18/2/6 17/2/6 12/2/6
f 147/2/6 197/2/6 176/2/6 148/2/6
f 196/1/6 217/1/6 216/1/6 177/1/6
f 19/1/6 48/1/6 25/1/6 20/1/6
f 47/2/6 76/2/6 75/2/6 26/2/6
f 206/3/6 285/3/6 230/3/6 207/3/6
f 285/3/6 56/3/6 286/3/6 231/3/6
f 15/3/6 286/3/6 55/3/6 16/3/6
f 131/9/6 210/9/6 204/9/6 132/9/6
f 3/1/6 235/1/6 234/1/6 4/1/6
f 59/9/6 110/9/6 109/9/6 58/9/6
f 166/2/6 287/2/6 208/2/6 167/2/6
f 169/1/6 288/1/6 287/1/6 166/1/6
f 288/1/6 249/1/6 289/1/6 209/1/6
f 249/2/6 256/2/6 290/2/6 289/2/6
f 256/1/6 100/1/6 96/1/6 290/1/6
f 60/2/6 96/2/6 95/2/6 61/2/6
f 180/2/6 6/2/6 5/2/6 181/2/6
f 240/2/6 30/2/6 29/2/6 241/2/6
f 291/4/6 179/4/6 178/4/6 124/4/6
f 123/4/6 163/4/6 292/4/6 291/4/6
f 127/4/6 106/4/6 105/4/6 128/4/6
f 135/4/6 114/4/6 113/4/6 136/4/6
f 139/4/6 68/4/6 67/4/6 140/4/6
f 157/1/6 186/1/6 179/1/6 292/1/6
f 172/4/6 102/4/6 101/4/6 173/4/6
f 7/4/6 239/4/6 238/4/6 8/4/6
f 39/4/6 293/4/6 117/4/6 32/4/6
f 94/4/6 118/4/6 293/4/6 88/4/6
