# generated by tools/rig_people.py — do not edit
mtllib people.mtl
o arm-r
usemtl palette
v 3 6 0
v 3 6 2
v 3 8 2
v 3 8 0
v 3 9 2
v 3 9 0
v 3 10 2
v 3 10 0
v 3 10 1
v 3 11 1
v 3 11 0
v 3 11 2
v 3 12 2
v 3 12 0
v 3 14 2
v 3 14 0
v 5 8 0
v 5 8 2
v 5 6 2
v 5 6 0
v 5 9 0
v 5 9 2
v 5 10 0
v 5 10 2
v 5 12 0
v 5 12 1
v 5 10 1
v 5 13 0
v 5 13 1
v 5 14 0
v 5 14 2
v 5 13 2
v 5 11 2
v 4 14 2
v 4 11 2
v 4 12 2
v 5 11 0
v 4 11 0
v 4 12 0
v 4 13 0
v 3 13 0
vt 0.0410156 0.5
vt 0.3652344 0.5
vt 0.3613281 0.5
vt 0.3574219 0.5
vn -1 0 0
vn 1 0 0
vn 0 0 1
vn 0 0 -1
vn 0 1 0
vn 0 -1 0
f 1/1/1 2/1/1 3/1/1 4/1/1
f 4/2/1 3/2/1 5/2/1 6/2/1
f 6/3/1 5/3/1 7/3/1 8/3/1
f 8/4/1 9/4/1 10/4/1 11/4/1
f 11/2/1 12/2/1 13/2/1 14/2/1
f 14/3/1 13/3/1 15/3/1 16/3/1
f 9/3/1 7/3/1 12/3/1 10/3/1
f 17/1/2 18/1/2 19/1/2 20/1/2
f 21/2/2 22/2/2 18/2/2 17/2/2
f 23/3/2 24/3/2 22/3/2 21/3/2
f 25/4/2 26/4/2 27/4/2 23/4/2
f 28/2/2 29/2/2 26/2/2 25/2/2
f 30/3/2 31/3/2 32/3/2 28/3/2
f 29/3/2 32/3/2 24/3/2 27/3/2
f 18/1/3 3/1/3 2/1/3 19/1/3
f 22/2/3 5/2/3 3/2/3 18/2/3
f 33/3/3 12/3/3 5/3/3 22/3/3
f 31/3/3 34/3/3 35/3/3 33/3/3
f 36/2/3 13/2/3 12/2/3 35/2/3
f 34/3/3 15/3/3 13/3/3 36/3/3
f 20/1/4 1/1/4 4/1/4 17/1/4
f 17/2/4 4/2/4 6/2/4 21/2/4
f 21/3/4 6/3/4 8/3/4 23/3/4
f 23/4/4 8/4/4 11/4/4 37/4/4
f 37/4/4 38/4/4 39/4/4 25/4/4
f 25/2/4 39/2/4 40/2/4 28/2/4
f 28/3/4 41/3/4 16/3/4 30/3/4
f 38/2/4 11/2/4 14/2/4 39/2/4
f 39/3/4 14/3/4 41/3/4 40/3/4
f 30/3/5 16/3/5 15/3/5 31/3/5
f 19/1/6 2/1/6 1/1/6 20/1/6
