# generated by tools/rig_people.py — do not edit
mtllib people.mtl
o arm-l
usemtl palette
v -5 6 -0.5
v -5 6 1.5
v -5 12 1.5
v -5 12 -0.5
v -5 12 0.5
v -5 13 0.5
v -5 13 -0.5
v -5 14 0.5
v -5 14 -0.5
v -5 13 1.5
v -5 14 1.5
v -3 12 -0.5
v -3 12 1.5
v -3 6 1.5
v -3 6 -0.5
v -3 13 -0.5
v -3 13 0.5
v -3 12 0.5
v -3 14 -0.5
v -3 14 0.5
v -3 13 1.5
v -3 14 1.5
v -4 13 1.5
v -4 12 1.5
v -4 14 1.5
v -4 12 -0.5
v -4 13 -0.5
v -4 14 -0.5
v -4 14 0.5
vt 0.0410156 0.5
vt 0.0761719 0.5
vt 0.0722656 0.5
vt 0.0800781 0.5
vn -1 0 0
vn 1 0 0
vn 0 0 1
vn 0 0 -1
vn 0 1 0
vn 0 -1 0
f 1/1/1 2/1/1 3/1/1 4/1/1
f 4/2/1 5/2/1 6/2/1 7/2/1
f 7/3/1 6/3/1 8/3/1 9/3/1
f 5/3/1 3/3/1 10/3/1 6/3/1
f 6/2/1 10/2/1 11/2/1 8/2/1
f 12/1/2 13/1/2 14/1/2 15/1/2
f 16/3/2 17/3/2 18/3/2 12/3/2
f 19/2/2 20/2/2 17/2/2 16/2/2
f 17/4/2 21/4/2 13/4/2 18/4/2
f 20/3/2 22/3/2 21/3/2 17/3/2
f 13/1/3 3/1/3 2/1/3 14/1/3
f 21/4/3 23/4/3 24/4/3 13/4/3
f 22/3/3 25/3/3 23/3/3 21/3/3
f 23/3/3 10/3/3 3/3/3 24/3/3
f 25/2/3 11/2/3 10/2/3 23/2/3
f 15/1/4 1/1/4 4/1/4 12/1/4
f 12/3/4 26/3/4 27/3/4 16/3/4
f 16/2/4 27/2/4 28/2/4 19/2/4
f 26/2/4 4/2/4 7/2/4 27/2/4
f 27/3/4 7/3/4 9/3/4 28/3/4
f 19/2/5 28/2/5 29/2/5 20/2/5
f 20/3/5 29/3/5 25/3/5 22/3/5
f 28/3/5 9/3/5 8/3/5 29/3/5
f 29/2/5 8/2/5 11/2/5 25/2/5
f 14/1/6 2/1/6 1/1/6 15/1/6
