# generated by tools/rig_people.py — do not edit
mtllib people.mtl
o leg-r
usemtl palette
v 1 0 -1.5
v 1 0 1.5
v 1 1 1.5
v 1 1 -1.5
v 1 1 -0.5
v 1 2 1.5
v 1 2 -0.5
v 1 4 1.5
v 1 4 -0.5
v 1 4 0.5
v 1 6 0.5
v 1 6 -0.5
v 1 6 1.5
v 1 7 1.5
v 1 7 -0.5
v 3 1 -1.5
v 3 1 1.5
v 3 0 1.5
v 3 0 -1.5
v 3 2 -0.5
v 3 2 1.5
v 3 1 -0.5
v 3 4 -0.5
v 3 4 1.5
v 3 6 -0.5
v 3 6 0.5
v 3 4 0.5
v 3 7 -0.5
v 3 7 1.5
v 3 6 1.5
vt 0.4785156 0.5
vt 0.0449219 0.5
vt 0.3300781 0.5
vt 0.3417969 0.5
vn -1 0 0
vn 1 0 0
vn 0 0 1
vn 0 0 -1
vn 0 1 0
vn 0 -1 0
f 1/1/1 2/1/1 3/1/1 4/1/1
f 5/2/1 3/2/1 6/2/1 7/2/1
f 7/3/1 6/3/1 8/3/1 9/3/1
f 9/4/1 10/4/1 11/4/1 12/4/1
f 12/3/1 13/3/1 14/3/1 15/3/1
f 10/3/1 8/3/1 13/3/1 11/3/1
f 16/1/2 17/1/2 18/1/2 19/1/2
f 20/2/2 21/2/2 17/2/2 22/2/2
f 23/3/2 24/3/2 21/3/2 20/3/2
f 25/4/2 26/4/2 27/4/2 23/4/2
f 28/3/2 29/3/2 30/3/2 25/3/2
f 26/3/2 30/3/2 24/3/2 27/3/2
f 17/1/3 3/1/3 2/1/3 18/1/3
f 21/2/3 6/2/3 3/2/3 17/2/3
f 29/3/3 14/3/3 6/3/3 21/3/3
f 19/1/4 1/1/4 4/1/4 16/1/4
f 22/2/4 5/2/4 7/2/4 20/2/4
f 20/3/4 7/3/4 9/3/4 23/3/4
f 23/4/4 9/4/4 12/4/4 25/4/4
f 25/3/4 12/3/4 15/3/4 28/3/4
f 16/1/5 4/1/5 5/1/5 22/1/5
f 28/3/5 15/3/5 14/3/5 29/3/5
f 18/1/6 2/1/6 1/1/6 19/1/6
