# generated by tools/rig_people.py — do not edit
mtllib people.mtl
o leg-r
usemtl palette
v 1 0 -2
v 1 0 1
v 1 1 1
v 1 1 -2
v 1 1 -1
v 1 3 1
v 1 3 -1
v 1 4 1
v 1 4 -1
v 1 4 0
v 1 5 0
v 1 5 -1
v 1 5 1
v 1 6 1
v 1 6 -1
v 1 7 1
v 1 7 -1
v 3 1 -2
v 3 1 1
v 3 0 1
v 3 0 -2
v 3 3 -1
v 3 3 1
v 3 1 -1
v 3 4 -1
v 3 4 1
v 3 5 -1
v 3 5 0
v 3 4 0
v 3 6 -1
v 3 6 1
v 3 5 1
v 3 7 -1
v 3 7 1
vt 0.5292969 0.5
vt 0.9628906 0.5
vt 0.9667969 0.5
vn -1 0 0
vn 1 0 0
vn 0 0 1
vn 0 0 -1
vn 0 1 0
vn 0 -1 0
f 1/1/1 2/1/1 3/1/1 4/1/1
f 5/1/1 3/1/1 6/1/1 7/1/1
f 7/2/1 6/2/1 8/2/1 9/2/1
f 9/3/1 10/3/1 11/3/1 12/3/1
f 12/2/1 13/2/1 14/2/1 15/2/1
f 15/3/1 14/3/1 16/3/1 17/3/1
f 10/2/1 8/2/1 13/2/1 11/2/1
f 18/1/2 19/1/2 20/1/2 21/1/2
f 22/1/2 23/1/2 19/1/2 24/1/2
f 25/2/2 26/2/2 23/2/2 22/2/2
f 27/3/2 28/3/2 29/3/2 25/3/2
f 30/2/2 31/2/2 32/2/2 27/2/2
f 33/3/2 34/3/2 31/3/2 30/3/2
f 28/2/2 32/2/2 26/2/2 29/2/2
f 23/1/3 6/1/3 2/1/3 20/1/3
f 31/2/3 14/2/3 6/2/3 23/2/3
f 34/3/3 16/3/3 14/3/3 31/3/3
f 21/1/4 1/1/4 4/1/4 18/1/4
f 24/1/4 5/1/4 7/1/4 22/1/4
f 22/2/4 7/2/4 9/2/4 25/2/4
f 25/3/4 9/3/4 12/3/4 27/3/4
f 27/2/4 12/2/4 15/2/4 30/2/4
f 30/3/4 15/3/4 17/3/4 33/3/4
f 18/1/5 4/1/5 5/1/5 24/1/5
f 33/3/5 17/3/5 16/3/5 34/3/5
f 20/1/6 2/1/6 1/1/6 21/1/6
