# generated by tools/rig_people.py — do not edit
mtllib people.mtl
o arm-l
usemtl palette
v -5 6 -0.5
v -5 6 1.5
v -5 8 1.5
v -5 8 -0.5
v -5 11 1.5
v -5 11 -0.5
v -5 11 0.5
v -5 12 0.5
v -5 12 -0.5
v -5 13 0.5
v -5 13 -0.5
v -5 14 0.5
v -5 14 -0.5
v -5 12 1.5
v -5 13 1.5
v -5 14 1.5
v -3 8 -0.5
v -3 8 1.5
v -3 6 1.5
v -3 6 -0.5
v -3 11 -0.5
v -3 11 1.5
v -3 12 -0.5
v -3 12 0.5
v -3 11 0.5
v -3 13 -0.5
v -3 13 0.5
v -3 14 -0.5
v -3 14 0.5
v -3 12 1.5
v -3 13 1.5
v -3 14 1.5
v -4 12 1.5
v -4 11 1.5
v -4 13 1.5
v -4 14 1.5
v -4 11 -0.5
v -4 12 -0.5
v -4 13 -0.5
v -4 14 -0.5
v -4 14 0.5
vt 0.9746094 0.5
vt 0.0410156 0.5
vt 0.0800781 0.5
vt 0.0761719 0.5
vt 0.0722656 0.5
vn -1 0 0
vn 1 0 0
vn 0 0 1
vn 0 0 -1
vn 0 1 0
vn 0 -1 0
f 1/1/1 2/1/1 3/1/1 4/1/1
f 4/2/1 3/2/1 5/2/1 6/2/1
f 6/3/1 7/3/1 8/3/1 9/3/1
f 9/4/1 8/4/1 10/4/1 11/4/1
f 11/5/1 10/5/1 12/5/1 13/5/1
f 7/4/1 5/4/1 14/4/1 8/4/1
f 8/5/1 14/5/1 15/5/1 10/5/1
f 10/4/1 15/4/1 16/4/1 12/4/1
f 17/1/2 18/1/2 19/1/2 20/1/2
f 21/2/2 22/2/2 18/2/2 17/2/2
f 23/4/2 24/4/2 25/4/2 21/4/2
f 26/5/2 27/5/2 24/5/2 23/5/2
f 28/4/2 29/4/2 27/4/2 26/4/2
f 24/5/2 30/5/2 22/5/2 25/5/2
f 27/3/2 31/3/2 30/3/2 24/3/2
f 29/5/2 32/5/2 31/5/2 27/5/2
f 18/1/3 3/1/3 2/1/3 19/1/3
f 22/2/3 5/2/3 3/2/3 18/2/3
f 30/5/3 33/5/3 34/5/3 22/5/3
f 31/3/3 35/3/3 33/3/3 30/3/3
f 32/5/3 36/5/3 35/5/3 31/5/3
f 33/4/3 14/4/3 5/4/3 34/4/3
f 35/5/3 15/5/3 14/5/3 33/5/3
f 36/4/3 16/4/3 15/4/3 35/4/3
f 20/1/4 1/1/4 4/1/4 17/1/4
f 17/2/4 4/2/4 6/2/4 21/2/4
f 21/4/4 37/4/4 38/4/4 23/4/4
f 23/5/4 38/5/4 39/5/4 26/5/4
f 26/4/4 39/4/4 40/4/4 28/4/4
f 37/3/4 6/3/4 9/3/4 38/3/4
f 38/4/4 9/4/4 11/4/4 39/4/4
f 39/5/4 11/5/4 13/5/4 40/5/4
f 28/4/5 40/4/5 41/4/5 29/4/5
f 29/5/5 41/5/5 36/5/5 32/5/5
f 40/5/5 13/5/5 12/5/5 41/5/5
f 41/4/5 12/4/5 16/4/5 36/4/5
f 19/1/6 2/1/6 1/1/6 20/1/6
