# generated by tools/rig_people.py — do not edit
mtllib people.mtl
o arm-l
usemtl palette
v -3 11 -2.5
v -3 11 -1.5
v -3 14 -1.5
v -3 14 -2.5
v -3 13 -1.5
v -3 13 1.5
v -3 14 1.5
v -3 11 0.5
v -3 11 1.5
v -3 13 0.5
v -4 6 -1.5
v -4 6 0.5
v -4 13 0.5
v -4 13 -1.5
v -2 14 -2.5
v -2 14 1.5
v -2 11 1.5
v -2 11 -2.5
v -3 6 0.5
v -3 6 -1.5
vt 0.3574219 0.5
vn -1 0 0
vn 1 0 0
vn 0 0 1
vn 0 0 -1
vn 0 1 0
vn 0 -1 0
f 1/1/1 2/1/1 3/1/1 4/1/1
f 5/1/1 6/1/1 7/1/1 3/1/1
f 8/1/1 9/1/1 6/1/1 10/1/1
f 11/1/1 12/1/1 13/1/1 14/1/1
f 15/1/2 16/1/2 17/1/2 18/1/2
f 2/1/2 8/1/2 19/1/2 20/1/2
f 10/1/3 13/1/3 12/1/3 19/1/3
f 16/1/3 7/1/3 9/1/3 17/1/3
f 18/1/4 1/1/4 4/1/4 15/1/4
f 20/1/4 11/1/4 14/1/4 5/1/4
f 5/1/5 14/1/5 13/1/5 10/1/5
f 15/1/5 4/1/5 7/1/5 16/1/5
f 19/1/6 12/1/6 11/1/6 20/1/6
f 17/1/6 9/1/6 1/1/6 18/1/6
