# generated by tools/rig_people.py — do not edit
mtllib people.mtl
o body
usemtl palette
v 1 19 -3.5
v 1 19 -2.5
v 1 20 -2.5
v 1 20 -3.5
v -1 14 -0.5
v -1 14 1.5
v -1 15 1.5
v -1 15 -0.5
v -3 19 -3.5
v -3 19 -2.5
v -3 20 -2.5
v -3 20 -3.5
v -3 23 -3.5
v -3 23 -2.5
v -3 24 -2.5
v -3 24 -3.5
v -3 15 -2.5
v -3 15 0.5
v -3 16 0.5
v -3 16 -2.5
v -3 16 -0.5
v -3 17 -0.5
v -3 17 -2.5
v -3 17 -1.5
v -3 20 -1.5
v -3 24 -1.5
v -3 25 -1.5
v -3 25 -2.5
v -3 7 -1.5
v -3 7 2.5
v -3 10 2.5
v -3 10 -1.5
v -3 10 -0.5
v -3 11 -0.5
v -3 11 -1.5
v -3 11 2.5
v -3 14 2.5
v -3 14 -1.5
v -3 15 2.5
v -3 16 2.5
v -3 24 2.5
v -3 24 3.5
v -3 25 3.5
v -3 25 2.5
v -4 20 -3.5
v -4 20 -2.5
v -4 21 -2.5
v -4 21 -3.5
v -4 22 -2.5
v -4 22 -3.5
v -4 22 0.5
v -4 23 0.5
v -4 23 -3.5
v -4 20 -1.5
v -4 22 -1.5
v -4 23 -2.5
v -4 23 -1.5
v -4 24 -1.5
v -4 24 -2.5
v -4 17 -1.5
v -4 17 -0.5
v -4 20 -0.5
v -4 22 -0.5
v -4 25 0.5
v -4 25 -1.5
v -4 16 -0.5
v -4 16 0.5
v -4 19 0.5
v -4 19 -0.5
v -4 19 3.5
v -4 20 3.5
v -4 20 0.5
v -4 21 0.5
v -4 21 -0.5
v -4 16 3.5
v -4 20 1.5
v -4 22 1.5
v -4 22 3.5
v -4 23 3.5
v -4 23 1.5
v -4 24 1.5
v -4 24 0.5
v -4 24 2.5
v -4 25 2.5
v -4 20 2.5
v -4 22 2.5
v -4 24 3.5
v 4 22 -3.5
v 4 22 -2.5
v 4 20 -2.5
v 4 20 -3.5
v 4 23 -3.5
v 4 23 -0.5
v 4 22 -0.5
v 4 20 3.5
v 4 19 3.5
v 4 19 -2.5
v 4 21 -2.5
v 4 21 -1.5
v 4 20 -1.5
v 4 22 -1.5
v 4 24 -2.5
v 4 24 3.5
v 4 23 3.5
v 4 23 -2.5
v 4 19 -1.5
v 4 19 -0.5
v 4 17 -0.5
v 4 17 -1.5
v 4 21 -0.5
v 4 20 -0.5
v 4 25 -1.5
v 4 25 2.5
v 4 24 2.5
v 4 24 -1.5
v 4 19 0.5
v 4 16 0.5
v 4 16 -0.5
v 4 22 0.5
v 4 20 0.5
v 4 23 2.5
v 4 22 2.5
v 4 16 3.5
v 4 22 1.5
v 4 20 1.5
v 4 21 1.5
v 4 21 3.5
v 4 21 2.5
v 4 22 3.5
v 3 20 -3.5
v 3 20 -2.5
v 3 19 -2.5
v 3 19 -3.5
v 3 24 -3.5
v 3 24 -2.5
v 3 23 -2.5
v 3 23 -3.5
v 3 16 -2.5
v 3 16 0.5
v 3 15 0.5
v 3 15 -2.5
v 3 17 -2.5
v 3 17 -0.5
v 3 16 -0.5
v 3 19 -1.5
v 3 17 -1.5
v 3 25 -2.5
v 3 25 -1.5
v 3 24 -1.5
v 3 10 -1.5
v 3 10 2.5
v 3 7 2.5
v 3 7 -1.5
v 3 11 -1.5
v 3 11 -0.5
v 3 10 -0.5
v 3 14 -1.5
v 3 14 2.5
v 3 11 2.5
v 3 16 2.5
v 3 15 2.5
v 3 25 2.5
v 3 25 3.5
v 3 24 3.5
v 3 24 2.5
v 1 15 -0.5
v 1 15 1.5
v 1 14 1.5
v 1 14 -0.5
v -1 20 -3.5
v -1 20 -2.5
v -1 19 -2.5
v -1 19 -3.5
v 2 14 2.5
v 2 11 2.5
v 2 12 2.5
v 1 12 2.5
v 1 11 2.5
v 2 13 2.5
v 1 13 2.5
v -0 14 2.5
v -0 13 2.5
v -1 12 2.5
v -1 11 2.5
v -0 12 2.5
v -1 13 2.5
v -1 14 2.5
v -2 12 2.5
v -2 11 2.5
v -2 13 2.5
v -2 14 2.5
v 3 21 3.5
v 3 20 3.5
v 3 22 3.5
v 2 21 3.5
v 2 20 3.5
v 2 22 3.5
v 3 23 3.5
v -2 23 3.5
v -2 22 3.5
v 2 25 3.5
v 2 23 3.5
v 1 22 3.5
v 1 20 3.5
v 2 24 3.5
v -1 24 3.5
v -1 23 3.5
v -0 22 3.5
v -0 20 3.5
v -1 22 3.5
v -1 20 3.5
v -1 21 3.5
v -2 21 3.5
v -2 20 3.5
v -3 22 3.5
v -3 21 3.5
v -3 20 3.5
v 3 22 -3.5
v 1 22 -3.5
v 1 23 -3.5
v 2 20 -3.5
v 2 22 -3.5
v -1 23 -3.5
v -1 24 -3.5
v -0 20 -3.5
v -0 22 -3.5
v -1 22 -3.5
v -2 20 -3.5
v -2 22 -3.5
v -3 22 -3.5
v -3 21 -3.5
v 1 15 -2.5
v 1 17 -2.5
v -3 18 -2.5
v 3 18 -2.5
v 2 18 -2.5
v 2 19 -2.5
v 1 18 -2.5
v -1 15 -2.5
v -1 16 -2.5
v 1 16 -2.5
v -1 18 -2.5
v -2 18 -2.5
v -2 19 -2.5
v 2 10 -1.5
v 2 11 -1.5
v 2 14 -1.5
v -2 10 -1.5
v -2 11 -1.5
v 1 11 -1.5
v 1 12 -1.5
v 2 12 -1.5
v 1 13 -1.5
v 2 13 -1.5
v 1 14 -1.5
v -0 11 -1.5
v -0 12 -1.5
v -0 13 -1.5
v -1 13 -1.5
v -1 14 -1.5
v -1 11 -1.5
v -1 12 -1.5
v -2 12 -1.5
v -2 13 -1.5
v -2 14 -1.5
v 1 14 2.5
v -0 14 1.5
v -2 14 -0.5
v -1 24 -2.5
v 3 15 -0.5
v 2 15 0.5
v 2 15 -0.5
v 1 15 2.5
v 1 15 0.5
v -3 15 1.5
v -3 15 -0.5
v -2 15 1.5
v -2 15 -0.5
v -2 15 0.5
v 3 16 3.5
v -4 16 2.5
v -0 20 -2.5
vt 0.5253906 0.5
vt 0.0410156 0.5
vt 0.5214844 0.5
vt 0.0214844 0.5
vt 0.9003906 0.5
vt 0.5175781 0.5
vt 0.5097656 0.5
vt 0.5136719 0.5
vt 0.0527344 0.5
vt 0.0761719 0.5
vt 0.0800781 0.5
vt 0.0722656 0.5
vt 0.5292969 0.5
vt 0.8847656 0.5
vn -1 0 0
vn 1 0 0
vn 0 0 1
vn 0 0 -1
vn 0 1 0
vn 0 -1 0
f 1/1/1 2/1/1 3/1/1 4/1/1
f 5/2/1 6/2/1 7/2/1 8/2/1
f 9/1/1 10/1/1 11/1/1 12/1/1
f 13/1/1 14/1/1 15/1/1 16/1/1
f 17/1/1 18/1/1 19/1/1 20/1/1
f 20/1/1 21/1/1 22/1/1 23/1/1
f 23/2/1 24/2/1 25/2/1 11/2/1
f 15/3/1 26/3/1 27/3/1 28/3/1
f 29/4/1 30/4/1 31/4/1 32/4/1
f 32/5/1 33/5/1 34/5/1 35/5/1
f 35/4/1 36/4/1 37/4/1 38/4/1
f 33/4/1 31/4/1 36/4/1 34/4/1
f 18/2/1 39/2/1 40/2/1 19/2/1
f 41/3/1 42/3/1 43/3/1 44/3/1
f 45/6/1 46/6/1 47/6/1 48/6/1
f 48/7/1 47/7/1 49/7/1 50/7/1
f 50/1/1 51/1/1 52/1/1 53/1/1
f 46/8/1 54/8/1 55/8/1 49/8/1
f 56/1/1 57/1/1 58/1/1 59/1/1
f 60/1/1 61/1/1 62/1/1 54/1/1
f 54/6/1 62/6/1 63/6/1 55/6/1
f 57/3/1 52/3/1 64/3/1 65/3/1
f 66/9/1 67/9/1 68/9/1 69/9/1
f 69/1/1 70/1/1 71/1/1 62/1/1
f 62/8/1 72/8/1 73/8/1 74/8/1
f 74/7/1 73/7/1 51/7/1 63/7/1
f 67/1/1 75/1/1 70/1/1 68/1/1
f 72/6/1 76/6/1 77/6/1 51/6/1
f 51/3/1 78/3/1 79/3/1 52/3/1
f 52/1/1 80/1/1 81/1/1 82/1/1
f 82/3/1 83/3/1 84/3/1 64/3/1
f 76/7/1 85/7/1 86/7/1 77/7/1
f 80/3/1 79/3/1 87/3/1 81/3/1
f 85/8/1 71/8/1 78/8/1 86/8/1
f 88/8/2 89/8/2 90/8/2 91/8/2
f 92/3/2 93/3/2 94/3/2 88/3/2
f 90/1/2 95/1/2 96/1/2 97/1/2
f 98/7/2 99/7/2 100/7/2 90/7/2
f 89/6/2 101/6/2 99/6/2 98/6/2
f 102/3/2 103/3/2 104/3/2 105/3/2
f 106/1/2 107/1/2 108/1/2 109/1/2
f 99/6/2 110/6/2 111/6/2 100/6/2
f 101/8/2 94/8/2 110/8/2 99/8/2
f 112/3/2 113/3/2 114/3/2 115/3/2
f 107/9/2 116/9/2 117/9/2 118/9/2
f 94/7/2 119/7/2 120/7/2 111/7/2
f 93/1/2 121/1/2 122/1/2 94/1/2
f 116/1/2 96/1/2 123/1/2 117/1/2
f 119/8/2 124/8/2 125/8/2 120/8/2
f 126/6/2 127/6/2 95/6/2 125/6/2
f 124/6/2 122/6/2 128/6/2 126/6/2
f 122/8/2 129/8/2 127/8/2 128/8/2
f 121/3/2 104/3/2 129/3/2 122/3/2
f 130/1/2 131/1/2 132/1/2 133/1/2
f 134/3/2 135/3/2 136/3/2 137/3/2
f 138/1/2 139/1/2 140/1/2 141/1/2
f 142/1/2 143/1/2 144/1/2 138/1/2
f 132/2/2 145/2/2 146/2/2 142/2/2
f 147/3/2 148/3/2 149/3/2 135/3/2
f 150/4/2 151/4/2 152/4/2 153/4/2
f 154/5/2 155/5/2 156/5/2 150/5/2
f 157/4/2 158/4/2 159/4/2 154/4/2
f 155/4/2 159/4/2 151/4/2 156/4/2
f 139/2/2 160/2/2 161/2/2 140/2/2
f 162/3/2 163/3/2 164/3/2 165/3/2
f 166/2/2 167/2/2 168/2/2 169/2/2
f 170/1/2 171/1/2 172/1/2 173/1/2
f 167/2/3 7/2/3 6/2/3 168/2/3
f 113/3/3 162/3/3 165/3/3 114/3/3
f 159/4/3 36/4/3 30/4/3 152/4/3
f 158/4/3 174/4/3 175/4/3 159/4/3
f 160/2/3 40/2/3 39/2/3 161/2/3
f 176/10/3 177/10/3 178/10/3 175/10/3
f 179/11/3 180/11/3 177/11/3 176/11/3
f 174/12/3 181/12/3 182/12/3 179/12/3
f 177/11/3 183/11/3 184/11/3 178/11/3
f 180/10/3 182/10/3 185/10/3 177/10/3
f 182/12/3 186/12/3 183/12/3 185/12/3
f 181/10/3 187/10/3 186/10/3 182/10/3
f 183/12/3 188/12/3 189/12/3 184/12/3
f 186/11/3 190/11/3 188/11/3 183/11/3
f 187/12/3 191/12/3 190/12/3 186/12/3
f 191/4/3 37/4/3 36/4/3 189/4/3
f 44/3/3 84/3/3 83/3/3 41/3/3
f 95/1/3 71/1/3 75/1/3 123/1/3
f 127/6/3 192/6/3 193/6/3 95/6/3
f 129/8/3 194/8/3 192/8/3 127/8/3
f 103/3/3 164/3/3 194/3/3 129/3/3
f 192/8/3 195/8/3 196/8/3 193/8/3
f 194/7/3 197/7/3 195/7/3 192/7/3
f 198/1/3 199/1/3 200/1/3 194/1/3
f 163/3/3 201/3/3 202/3/3 198/3/3
f 197/6/3 203/6/3 204/6/3 196/6/3
f 205/1/3 206/1/3 207/1/3 202/1/3
f 201/3/3 43/3/3 42/3/3 205/3/3
f 203/8/3 208/8/3 209/8/3 204/8/3
f 208/7/3 210/7/3 211/7/3 209/7/3
f 212/8/3 213/8/3 214/8/3 211/8/3
f 210/6/3 215/6/3 216/6/3 212/6/3
f 206/3/3 87/3/3 79/3/3 207/3/3
f 213/6/3 216/6/3 217/6/3 214/6/3
f 199/3/3 79/3/3 78/3/3 200/3/3
f 215/8/3 78/8/3 71/8/3 217/8/3
f 91/8/4 130/8/4 218/8/4 88/8/4
f 88/3/4 219/3/4 220/3/4 92/3/4
f 133/1/4 1/1/4 4/1/4 130/1/4
f 130/6/4 221/6/4 222/6/4 218/6/4
f 137/3/4 223/3/4 224/3/4 134/3/4
f 221/7/4 4/7/4 219/7/4 222/7/4
f 4/6/4 225/6/4 226/6/4 219/6/4
f 219/1/4 50/1/4 53/1/4 220/1/4
f 225/8/4 170/8/4 227/8/4 226/8/4
f 173/1/4 9/1/4 12/1/4 170/1/4
f 170/7/4 228/7/4 229/7/4 227/7/4
f 223/1/4 13/1/4 16/1/4 224/1/4
f 228/8/4 12/8/4 230/8/4 229/8/4
f 12/6/4 45/6/4 48/6/4 231/6/4
f 231/7/4 48/7/4 50/7/4 230/7/4
f 97/1/4 132/1/4 131/1/4 90/1/4
f 105/3/4 136/3/4 135/3/4 102/3/4
f 141/1/4 232/1/4 233/1/4 142/1/4
f 142/2/4 23/2/4 234/2/4 235/2/4
f 235/2/4 236/2/4 237/2/4 132/2/4
f 135/3/4 15/3/4 28/3/4 147/3/4
f 236/13/4 238/13/4 2/13/4 237/13/4
f 232/2/4 239/2/4 240/2/4 241/2/4
f 241/1/4 20/1/4 23/1/4 233/1/4
f 238/2/4 242/2/4 171/2/4 3/2/4
f 239/1/4 17/1/4 20/1/4 240/1/4
f 242/13/4 243/13/4 244/13/4 172/13/4
f 243/2/4 234/2/4 10/2/4 244/2/4
f 14/1/4 56/1/4 59/1/4 15/1/4
f 109/1/4 146/1/4 145/1/4 106/1/4
f 115/3/4 149/3/4 148/3/4 112/3/4
f 153/4/4 29/4/4 32/4/4 150/4/4
f 150/5/4 245/5/4 246/5/4 154/5/4
f 154/4/4 246/4/4 247/4/4 157/4/4
f 245/4/4 248/4/4 249/4/4 246/4/4
f 246/10/4 250/10/4 251/10/4 252/10/4
f 252/11/4 251/11/4 253/11/4 254/11/4
f 254/12/4 253/12/4 255/12/4 247/12/4
f 250/11/4 256/11/4 257/11/4 251/11/4
f 251/12/4 257/12/4 258/12/4 253/12/4
f 253/14/4 259/14/4 260/14/4 255/14/4
f 256/12/4 261/12/4 262/12/4 257/12/4
f 257/11/4 262/11/4 259/11/4 258/11/4
f 261/11/4 249/11/4 263/11/4 262/11/4
f 262/12/4 263/12/4 264/12/4 259/12/4
f 259/10/4 264/10/4 265/10/4 260/10/4
f 248/5/4 32/5/4 35/5/4 249/5/4
f 249/4/4 35/4/4 38/4/4 265/4/4
f 24/1/4 60/1/4 54/1/4 25/1/4
f 26/3/4 58/3/4 65/3/4 27/3/4
f 118/9/4 144/9/4 143/9/4 108/9/4
f 169/2/4 5/2/4 8/2/4 166/2/4
f 21/9/4 66/9/4 61/9/4 22/9/4
f 157/4/5 247/4/5 174/4/5 158/4/5
f 247/12/5 255/12/5 266/12/5 174/12/5
f 255/14/5 260/14/5 5/14/5 169/14/5
f 168/12/5 267/12/5 181/12/5 266/12/5
f 267/10/5 6/10/5 187/10/5 181/10/5
f 260/10/5 265/10/5 268/10/5 5/10/5
f 5/12/5 268/12/5 191/12/5 187/12/5
f 265/4/5 38/4/5 37/4/5 191/4/5
f 92/3/5 137/3/5 136/3/5 105/3/5
f 13/1/5 53/1/5 56/1/5 14/1/5
f 102/3/5 135/3/5 149/3/5 115/3/5
f 114/3/5 165/3/5 164/3/5 103/3/5
f 134/3/5 224/3/5 269/3/5 135/3/5
f 224/1/5 16/1/5 15/1/5 269/1/5
f 15/1/5 59/1/5 58/1/5 26/1/5
f 41/3/5 83/3/5 87/3/5 42/3/5
f 112/3/5 65/3/5 84/3/5 113/3/5
f 147/3/5 28/3/5 27/3/5 148/3/5
f 162/3/5 44/3/5 43/3/5 163/3/5
f 152/4/6 30/4/6 29/4/6 153/4/6
f 270/1/6 166/1/6 232/1/6 141/1/6
f 140/1/6 271/1/6 272/1/6 270/1/6
f 161/2/6 273/2/6 274/2/6 140/2/6
f 271/2/6 274/2/6 166/2/6 272/2/6
f 166/2/6 8/2/6 239/2/6 232/2/6
f 273/2/6 39/2/6 275/2/6 167/2/6
f 8/1/6 276/1/6 17/1/6 239/1/6
f 7/2/6 277/2/6 278/2/6 8/2/6
f 279/1/6 18/1/6 276/1/6 278/1/6
f 277/2/6 275/2/6 18/2/6 279/2/6
f 117/9/6 139/9/6 144/9/6 118/9/6
f 123/1/6 280/1/6 139/1/6 117/1/6
f 280/1/6 75/1/6 281/1/6 160/1/6
f 19/9/6 67/9/6 66/9/6 21/9/6
f 40/1/6 281/1/6 67/1/6 19/1/6
f 108/1/6 143/1/6 146/1/6 109/1/6
f 22/1/6 61/1/6 60/1/6 24/1/6
f 106/1/6 145/1/6 132/1/6 97/1/6
f 132/1/6 2/1/6 1/1/6 133/1/6
f 172/1/6 10/1/6 9/1/6 173/1/6
f 90/8/6 131/8/6 130/8/6 91/8/6
f 3/6/6 282/6/6 225/6/6 4/6/6
f 282/8/6 171/8/6 170/8/6 225/8/6
f 11/6/6 46/6/6 45/6/6 12/6/6
f 25/8/6 54/8/6 46/8/6 11/8/6
