# MagicaVoxel @ Ephtracy

# group
o 

# material
mtllib Character-23.mtl
usemtl palette

# normals
vn -1 0 0
vn 1 0 0
vn 0 0 1
vn 0 0 -1
vn 0 -1 0
vn 0 1 0

# texcoords
vt 0.0371094 0.5
vt 0.0449219 0.5
vt 0.474609 0.5
vt 0.525391 0.5
vt 0.642578 0.5
vt 0.650391 0.5
vt 0.697266 0.5
vt 0.900391 0.5
vt 0.962891 0.5
vt 0.978516 0.5

# verts
v -3 0.6 3.4
v -3 0.6 3.2
v -3 0.8 3.4
v -3 0.8 3.2
v -3 1.4 3.4
v -3 1.4 3.2
v -2.9 1.6 3.4
v -2.9 1.6 3.3
v -2.9 1.7 3.7
v -2.9 1.7 3.6
v -2.9 1.7 3.5
v -2.9 1.7 3.4
v -2.9 1.7 3.3
v -2.9 1.7 3
v -2.9 1.8 3.3
v -2.9 1.8 3.2
v -2.9 1.9 3.7
v -2.9 1.9 3.6
v -2.9 1.9 3.5
v -2.9 1.9 3.4
v -2.9 1.9 3.3
v -2.9 2 3.7
v -2.9 2 3.6
v -2.9 2 3.2
v -2.9 2.3 3.6
v -2.9 2.3 3.5
v -2.9 2.3 3.1
v -2.9 2.3 3
v -2.9 2.4 3.5
v -2.9 2.4 3.1
v -2.8 0 3.5
v -2.8 0 3.2
v -2.8 0.1 3.5
v -2.8 0.1 3.4
v -2.8 0.1 3.2
v -2.8 0.5 3.5
v -2.8 0.5 3.4
v -2.8 0.6 3.4
v -2.8 0.6 3.2
v -2.8 0.7 3.2
v -2.8 0.7 3.1
v -2.8 0.8 3.4
v -2.8 0.8 3.2
v -2.8 0.9 3.2
v -2.8 0.9 3.1
v -2.8 1 3.5
v -2.8 1 3.4
v -2.8 1 3.2
v -2.8 1 3.1
v -2.8 1.1 3.5
v -2.8 1.1 3.4
v -2.8 1.3 3.2
v -2.8 1.3 3.1
v -2.8 1.4 3.5
v -2.8 1.4 3.4
v -2.8 1.4 3.2
v -2.8 1.4 3.1
v -2.8 1.5 3.6
v -2.8 1.5 3.1
v -2.8 1.6 3.4
v -2.8 1.6 3.3
v -2.8 1.7 3.6
v -2.8 1.7 3.5
v -2.8 1.7 3.4
v -2.8 1.7 3.3
v -2.8 1.7 3.1
v -2.8 1.9 3.6
v -2.8 1.9 3.5
v -2.8 2.3 3.6
v -2.8 2.3 3.5
v -2.8 2.3 3.1
v -2.8 2.3 3
v -2.8 2.4 3.6
v -2.8 2.4 3.5
v -2.8 2.4 3.1
v -2.8 2.4 3
v -2.7 1.4 3.5
v -2.7 1.4 3.1
v -2.7 1.5 3.5
v -2.7 1.5 3.1
v -2.7 2.1 3.7
v -2.7 2.1 3.6
v -2.7 2.4 3.7
v -2.7 2.4 3.6
v -2.7 2.4 3.1
v -2.7 2.5 3.6
v -2.7 2.5 3.1
v -2.4 0 3.5
v -2.4 0 3.2
v -2.4 0.1 3.5
v -2.4 0.1 3.4
v -2.4 0.1 3.2
v -2.4 0.5 3.4
v -2.4 0.7 3.4
v -2.4 0.7 3.2
v -2.4 1.4 3.5
v -2.4 1.4 3.4
v -2.4 1.5 3.5
v -2.4 1.5 3.4
v -2.4 1.7 3.7
v -2.4 1.7 3.6
v -2.4 1.8 3.7
v -2.4 1.8 3.6
v -2.4 1.9 3.7
v -2.4 1.9 3.6
v -2.4 2 3.7
v -2.4 2 3.6
v -2.6 0 3.5
v -2.6 0 3.2
v -2.6 0.1 3.5
v -2.6 0.1 3.4
v -2.6 0.1 3.2
v -2.6 0.5 3.4
v -2.6 0.7 3.4
v -2.6 0.7 3.2
v -2.6 1.4 3.5
v -2.6 1.4 3.4
v -2.6 1.5 3.5
v -2.6 1.5 3.4
v -2.6 1.7 3.7
v -2.6 1.7 3.6
v -2.6 1.8 3.7
v -2.6 1.8 3.6
v -2.6 1.9 3.7
v -2.6 1.9 3.6
v -2.6 2 3.7
v -2.6 2 3.6
v -2.4 2.3 3.7
v -2.4 2.3 3.6
v -2.4 2.4 3.7
v -2.4 2.4 3.6
v -2.3 1.4 3.5
v -2.3 1.4 3.1
v -2.3 1.5 3.5
v -2.3 1.5 3.1
v -2.3 2.2 3.7
v -2.3 2.2 3.6
v -2.3 2.3 3.7
v -2.3 2.3 3.6
v -2.3 2.3 3.1
v -2.3 2.3 3
v -2.3 2.4 3.1
v -2.3 2.4 3
v -2.2 0 3.5
v -2.2 0 3.2
v -2.2 0.1 3.5
v -2.2 0.1 3.4
v -2.2 0.1 3.2
v -2.2 0.5 3.5
v -2.2 0.5 3.4
v -2.2 0.6 3.4
v -2.2 0.6 3.2
v -2.2 0.7 3.2
v -2.2 0.7 3.1
v -2.2 0.8 3.4
v -2.2 0.8 3.2
v -2.2 0.9 3.2
v -2.2 0.9 3.1
v -2.2 1 3.5
v -2.2 1 3.4
v -2.2 1 3.2
v -2.2 1 3.1
v -2.2 1.1 3.5
v -2.2 1.1 3.4
v -2.2 1.3 3.2
v -2.2 1.3 3.1
v -2.2 1.4 3.5
v -2.2 1.4 3.4
v -2.2 1.4 3.2
v -2.2 1.4 3.1
v -2.2 1.5 3.6
v -2.2 1.5 3.1
v -2.2 1.6 3.4
v -2.2 1.6 3.3
v -2.2 1.7 3.6
v -2.2 1.7 3.5
v -2.2 1.7 3.4
v -2.2 1.7 3.3
v -2.2 1.7 3.1
v -2.2 1.9 3.6
v -2.2 1.9 3.5
v -2.2 2.1 3.7
v -2.2 2.1 3.6
v -2.2 2.2 3.7
v -2.2 2.2 3.6
v -2.2 2.3 3.6
v -2.2 2.3 3.5
v -2.2 2.4 3.5
v -2.2 2.4 3.1
v -2.2 2.5 3.6
v -2.2 2.5 3.1
v -2.1 1.6 3.4
v -2.1 1.6 3.3
v -2.1 1.7 3.7
v -2.1 1.7 3.6
v -2.1 1.7 3.5
v -2.1 1.7 3.4
v -2.1 1.7 3.3
v -2.1 1.7 3
v -2.1 1.8 3.3
v -2.1 1.8 3.2
v -2.1 1.9 3.7
v -2.1 1.9 3.6
v -2.1 1.9 3.5
v -2.1 1.9 3.4
v -2.1 1.9 3.3
v -2.1 2 3.7
v -2.1 2 3.6
v -2.1 2 3.2
v -2.1 2.3 3.6
v -2.1 2.3 3.5
v -2.1 2.3 3.1
v -2.1 2.3 3
v -2.1 2.4 3.5
v -2.1 2.4 3.1
v -2 0.6 3.4
v -2 0.6 3.2
v -2 0.8 3.4
v -2 0.8 3.2
v -2 1.4 3.4
v -2 1.4 3.2
v -2.9 1.7 3.7
v -2.9 1.9 3.7
v -2.9 2 3.7
v -2.7 2.1 3.7
v -2.7 2.4 3.7
v -2.6 1.7 3.7
v -2.6 1.8 3.7
v -2.6 1.9 3.7
v -2.6 2 3.7
v -2.4 1.7 3.7
v -2.4 1.8 3.7
v -2.4 1.9 3.7
v -2.4 2 3.7
v -2.4 2.3 3.7
v -2.4 2.4 3.7
v -2.3 2.2 3.7
v -2.3 2.3 3.7
v -2.2 2.1 3.7
v -2.2 2.2 3.7
v -2.1 1.7 3.7
v -2.1 1.9 3.7
v -2.1 2 3.7
v -2.9 2 3.6
v -2.9 2.3 3.6
v -2.8 1.5 3.6
v -2.8 1.7 3.6
v -2.8 2 3.6
v -2.8 2.1 3.6
v -2.8 2.3 3.6
v -2.8 2.4 3.6
v -2.7 2.1 3.6
v -2.7 2.4 3.6
v -2.7 2.5 3.6
v -2.6 1.6 3.6
v -2.6 1.7 3.6
v -2.6 1.8 3.6
v -2.6 1.9 3.6
v -2.6 2 3.6
v -2.4 1.6 3.6
v -2.4 1.7 3.6
v -2.4 1.8 3.6
v -2.4 1.9 3.6
v -2.4 2 3.6
v -2.4 2.3 3.6
v -2.4 2.4 3.6
v -2.3 2.2 3.6
v -2.3 2.3 3.6
v -2.2 1.5 3.6
v -2.2 1.7 3.6
v -2.2 2 3.6
v -2.2 2.1 3.6
v -2.2 2.2 3.6
v -2.2 2.3 3.6
v -2.2 2.5 3.6
v -2.1 2 3.6
v -2.1 2.3 3.6
v -2.9 1.7 3.5
v -2.9 1.9 3.5
v -2.9 2.3 3.5
v -2.9 2.4 3.5
v -2.8 0 3.5
v -2.8 0.1 3.5
v -2.8 0.5 3.5
v -2.8 1 3.5
v -2.8 1.1 3.5
v -2.8 1.4 3.5
v -2.8 1.7 3.5
v -2.8 1.9 3.5
v -2.8 2.3 3.5
v -2.8 2.4 3.5
v -2.7 0.7 3.5
v -2.7 0.9 3.5
v -2.7 1 3.5
v -2.7 1.1 3.5
v -2.7 1.3 3.5
v -2.7 1.4 3.5
v -2.7 1.5 3.5
v -2.6 0 3.5
v -2.6 0.1 3.5
v -2.6 1.3 3.5
v -2.6 1.4 3.5
v -2.6 1.5 3.5
v -2.4 0 3.5
v -2.4 0.1 3.5
v -2.4 1.3 3.5
v -2.4 1.4 3.5
v -2.4 1.5 3.5
v -2.3 0.7 3.5
v -2.3 0.9 3.5
v -2.3 1 3.5
v -2.3 1.1 3.5
v -2.3 1.3 3.5
v -2.3 1.4 3.5
v -2.3 1.5 3.5
v -2.2 0 3.5
v -2.2 0.1 3.5
v -2.2 0.5 3.5
v -2.2 1 3.5
v -2.2 1.1 3.5
v -2.2 1.4 3.5
v -2.2 1.7 3.5
v -2.2 1.9 3.5
v -2.2 2.3 3.5
v -2.2 2.4 3.5
v -2.1 1.7 3.5
v -2.1 1.9 3.5
v -2.1 2.3 3.5
v -2.1 2.4 3.5
v -3 0.6 3.4
v -3 0.8 3.4
v -3 1.4 3.4
v -2.9 1.6 3.4
v -2.9 1.7 3.4
v -2.8 0.1 3.4
v -2.8 0.5 3.4
v -2.8 0.6 3.4
v -2.8 0.8 3.4
v -2.8 1 3.4
v -2.8 1.1 3.4
v -2.8 1.4 3.4
v -2.8 1.6 3.4
v -2.8 1.7 3.4
v -2.6 0.1 3.4
v -2.6 0.5 3.4
v -2.6 1.4 3.4
v -2.6 1.5 3.4
v -2.4 0.1 3.4
v -2.4 0.5 3.4
v -2.4 1.4 3.4
v -2.4 1.5 3.4
v -2.2 0.1 3.4
v -2.2 0.5 3.4
v -2.2 0.6 3.4
v -2.2 0.8 3.4
v -2.2 1 3.4
v -2.2 1.1 3.4
v -2.2 1.4 3.4
v -2.2 1.6 3.4
v -2.2 1.7 3.4
v -2.1 1.6 3.4
v -2.1 1.7 3.4
v -2 0.6 3.4
v -2 0.8 3.4
v -2 1.4 3.4
v -2.9 1.7 3.6
v -2.9 1.9 3.6
v -2.8 1.7 3.6
v -2.8 1.9 3.6
v -2.2 1.7 3.6
v -2.2 1.9 3.6
v -2.1 1.7 3.6
v -2.1 1.9 3.6
v -2.6 0.5 3.4
v -2.6 0.7 3.4
v -2.4 0.5 3.4
v -2.4 0.7 3.4
v -2.9 1.6 3.3
v -2.9 1.7 3.3
v -2.8 1.6 3.3
v -2.8 1.7 3.3
v -2.2 1.6 3.3
v -2.2 1.7 3.3
v -2.1 1.6 3.3
v -2.1 1.7 3.3
v -3 0.6 3.2
v -3 0.8 3.2
v -3 1.4 3.2
v -2.8 0 3.2
v -2.8 0.1 3.2
v -2.8 0.6 3.2
v -2.8 0.7 3.2
v -2.8 0.8 3.2
v -2.8 0.9 3.2
v -2.8 1 3.2
v -2.8 1.3 3.2
v -2.8 1.4 3.2
v -2.6 0 3.2
v -2.6 0.1 3.2
v -2.6 0.7 3.2
v -2.4 0 3.2
v -2.4 0.1 3.2
v -2.4 0.7 3.2
v -2.2 0 3.2
v -2.2 0.1 3.2
v -2.2 0.6 3.2
v -2.2 0.7 3.2
v -2.2 0.8 3.2
v -2.2 0.9 3.2
v -2.2 1 3.2
v -2.2 1.3 3.2
v -2.2 1.4 3.2
v -2 0.6 3.2
v -2 0.8 3.2
v -2 1.4 3.2
v -2.9 2.3 3.1
v -2.9 2.4 3.1
v -2.8 0.7 3.1
v -2.8 0.9 3.1
v -2.8 1 3.1
v -2.8 1.3 3.1
v -2.8 1.4 3.1
v -2.8 1.5 3.1
v -2.8 1.7 3.1
v -2.8 2.3 3.1
v -2.8 2.4 3.1
v -2.7 1.4 3.1
v -2.7 1.5 3.1
v -2.7 2.4 3.1
v -2.7 2.5 3.1
v -2.3 1.4 3.1
v -2.3 1.5 3.1
v -2.3 2.3 3.1
v -2.3 2.4 3.1
v -2.2 0.7 3.1
v -2.2 0.9 3.1
v -2.2 1 3.1
v -2.2 1.3 3.1
v -2.2 1.4 3.1
v -2.2 1.5 3.1
v -2.2 1.7 3.1
v -2.2 2.4 3.1
v -2.2 2.5 3.1
v -2.1 2.3 3.1
v -2.1 2.4 3.1
v -2.9 1.7 3
v -2.9 2.3 3
v -2.8 2.3 3
v -2.8 2.4 3
v -2.3 2.3 3
v -2.3 2.4 3
v -2.1 1.7 3
v -2.1 2.3 3
v -2.8 0 3.5
v -2.6 0 3.5
v -2.4 0 3.5
v -2.2 0 3.5
v -2.8 0 3.2
v -2.6 0 3.2
v -2.4 0 3.2
v -2.2 0 3.2
v -2.8 0.5 3.5
v -2.2 0.5 3.5
v -2.8 0.5 3.4
v -2.6 0.5 3.4
v -2.4 0.5 3.4
v -2.2 0.5 3.4
v -3 0.6 3.4
v -2.8 0.6 3.4
v -2.2 0.6 3.4
v -2 0.6 3.4
v -3 0.6 3.2
v -2.8 0.6 3.2
v -2.2 0.6 3.2
v -2 0.6 3.2
v -2.6 0.7 3.4
v -2.4 0.7 3.4
v -2.8 0.7 3.2
v -2.6 0.7 3.2
v -2.4 0.7 3.2
v -2.2 0.7 3.2
v -2.8 0.7 3.1
v -2.2 0.7 3.1
v -2.8 1.5 3.6
v -2.2 1.5 3.6
v -2.7 1.5 3.5
v -2.6 1.5 3.5
v -2.4 1.5 3.5
v -2.3 1.5 3.5
v -2.6 1.5 3.4
v -2.4 1.5 3.4
v -2.8 1.5 3.1
v -2.7 1.5 3.1
v -2.3 1.5 3.1
v -2.2 1.5 3.1
v -2.9 1.6 3.4
v -2.8 1.6 3.4
v -2.2 1.6 3.4
v -2.1 1.6 3.4
v -2.9 1.6 3.3
v -2.8 1.6 3.3
v -2.2 1.6 3.3
v -2.1 1.6 3.3
v -2.9 1.7 3.7
v -2.6 1.7 3.7
v -2.4 1.7 3.7
v -2.1 1.7 3.7
v -2.9 1.7 3.6
v -2.8 1.7 3.6
v -2.6 1.7 3.6
v -2.4 1.7 3.6
v -2.2 1.7 3.6
v -2.1 1.7 3.6
v -2.9 1.7 3.5
v -2.8 1.7 3.5
v -2.2 1.7 3.5
v -2.1 1.7 3.5
v -2.9 1.7 3.4
v -2.8 1.7 3.4
v -2.2 1.7 3.4
v -2.1 1.7 3.4
v -2.9 1.7 3.3
v -2.8 1.7 3.3
v -2.2 1.7 3.3
v -2.1 1.7 3.3
v -2.8 1.7 3.1
v -2.2 1.7 3.1
v -2.9 1.7 3
v -2.1 1.7 3
v -2.6 1.8 3.7
v -2.4 1.8 3.7
v -2.6 1.8 3.6
v -2.4 1.8 3.6
v -2.9 1.9 3.6
v -2.8 1.9 3.6
v -2.2 1.9 3.6
v -2.1 1.9 3.6
v -2.9 1.9 3.5
v -2.8 1.9 3.5
v -2.2 1.9 3.5
v -2.1 1.9 3.5
v -2.7 2.1 3.7
v -2.2 2.1 3.7
v -2.7 2.1 3.6
v -2.2 2.1 3.6
v -2.8 0.1 3.5
v -2.6 0.1 3.5
v -2.4 0.1 3.5
v -2.2 0.1 3.5
v -2.8 0.1 3.4
v -2.6 0.1 3.4
v -2.4 0.1 3.4
v -2.2 0.1 3.4
v -2.8 1.4 3.5
v -2.7 1.4 3.5
v -2.6 1.4 3.5
v -2.4 1.4 3.5
v -2.3 1.4 3.5
v -2.2 1.4 3.5
v -3 1.4 3.4
v -2.8 1.4 3.4
v -2.6 1.4 3.4
v -2.4 1.4 3.4
v -2.2 1.4 3.4
v -2 1.4 3.4
v -3 1.4 3.2
v -2.8 1.4 3.2
v -2.2 1.4 3.2
v -2 1.4 3.2
v -2.8 1.4 3.1
v -2.7 1.4 3.1
v -2.3 1.4 3.1
v -2.2 1.4 3.1
v -2.6 1.9 3.7
v -2.4 1.9 3.7
v -2.6 1.9 3.6
v -2.4 1.9 3.6
v -2.9 2 3.7
v -2.6 2 3.7
v -2.4 2 3.7
v -2.1 2 3.7
v -2.9 2 3.6
v -2.8 2 3.6
v -2.6 2 3.6
v -2.4 2 3.6
v -2.2 2 3.6
v -2.1 2 3.6
v -2.3 2.2 3.7
v -2.2 2.2 3.7
v -2.3 2.2 3.6
v -2.2 2.2 3.6
v -2.4 2.3 3.7
v -2.3 2.3 3.7
v -2.9 2.3 3.6
v -2.8 2.3 3.6
v -2.4 2.3 3.6
v -2.3 2.3 3.6
v -2.2 2.3 3.6
v -2.1 2.3 3.6
v -2.9 2.3 3.5
v -2.8 2.3 3.5
v -2.2 2.3 3.5
v -2.1 2.3 3.5
v -2.9 2.3 3.1
v -2.8 2.3 3.1
v -2.3 2.3 3.1
v -2.1 2.3 3.1
v -2.9 2.3 3
v -2.8 2.3 3
v -2.3 2.3 3
v -2.1 2.3 3
v -2.7 2.4 3.7
v -2.4 2.4 3.7
v -2.8 2.4 3.6
v -2.7 2.4 3.6
v -2.4 2.4 3.6
v -2.9 2.4 3.5
v -2.8 2.4 3.5
v -2.2 2.4 3.5
v -2.1 2.4 3.5
v -2.9 2.4 3.1
v -2.8 2.4 3.1
v -2.7 2.4 3.1
v -2.3 2.4 3.1
v -2.2 2.4 3.1
v -2.1 2.4 3.1
v -2.8 2.4 3
v -2.3 2.4 3
v -2.7 2.5 3.6
v -2.2 2.5 3.6
v -2.7 2.5 3.1
v -2.2 2.5 3.1

# faces
f 3/1/1 2/1/1 1/1/1
f 4/1/1 2/1/1 3/1/1
f 5/6/1 4/6/1 3/6/1
f 6/6/1 4/6/1 5/6/1
f 12/1/1 8/1/1 7/1/1
f 13/1/1 8/1/1 12/1/1
f 15/1/1 13/1/1 12/1/1
f 15/3/1 14/3/1 13/3/1
f 16/3/1 14/3/1 15/3/1
f 17/7/1 10/7/1 9/7/1
f 18/7/1 10/7/1 17/7/1
f 19/3/1 12/3/1 11/3/1
f 20/1/1 15/1/1 12/1/1
f 20/3/1 12/3/1 19/3/1
f 21/4/1 16/4/1 15/4/1
f 21/1/1 15/1/1 20/1/1
f 22/4/1 18/4/1 17/4/1
f 22/4/1 19/4/1 18/4/1
f 22/4/1 21/4/1 20/4/1
f 22/4/1 20/4/1 19/4/1
f 23/4/1 21/4/1 22/4/1
f 24/3/1 14/3/1 16/3/1
f 24/4/1 21/4/1 23/4/1
f 24/4/1 16/4/1 21/4/1
f 25/3/1 24/3/1 23/3/1
f 26/3/1 24/3/1 25/3/1
f 27/3/1 14/3/1 24/3/1
f 27/3/1 24/3/1 26/3/1
f 28/3/1 14/3/1 27/3/1
f 29/3/1 27/3/1 26/3/1
f 30/3/1 27/3/1 29/3/1
f 33/3/1 32/3/1 31/3/1
f 34/3/1 32/3/1 33/3/1
f 35/3/1 32/3/1 34/3/1
f 37/10/1 35/10/1 34/10/1
f 38/10/1 35/10/1 37/10/1
f 38/3/1 37/3/1 36/3/1
f 39/10/1 35/10/1 38/10/1
f 42/3/1 38/3/1 36/3/1
f 43/6/1 41/6/1 40/6/1
f 44/6/1 41/6/1 43/6/1
f 45/6/1 41/6/1 44/6/1
f 46/3/1 42/3/1 36/3/1
f 47/3/1 42/3/1 46/3/1
f 48/3/1 45/3/1 44/3/1
f 49/3/1 45/3/1 48/3/1
f 50/8/1 47/8/1 46/8/1
f 51/8/1 47/8/1 50/8/1
f 52/6/1 49/6/1 48/6/1
f 53/6/1 49/6/1 52/6/1
f 54/3/1 51/3/1 50/3/1
f 55/3/1 51/3/1 54/3/1
f 56/3/1 53/3/1 52/3/1
f 57/3/1 53/3/1 56/3/1
f 60/1/1 59/1/1 58/1/1
f 61/1/1 59/1/1 60/1/1
f 62/1/1 60/1/1 58/1/1
f 63/1/1 60/1/1 62/1/1
f 64/1/1 60/1/1 63/1/1
f 65/1/1 59/1/1 61/1/1
f 66/1/1 59/1/1 65/1/1
f 67/1/1 63/1/1 62/1/1
f 68/1/1 63/1/1 67/1/1
f 73/3/1 70/3/1 69/3/1
f 74/3/1 70/3/1 73/3/1
f 75/3/1 72/3/1 71/3/1
f 76/3/1 72/3/1 75/3/1
f 79/5/1 78/5/1 77/5/1
f 80/5/1 78/5/1 79/5/1
f 83/3/1 82/3/1 81/3/1
f 84/3/1 82/3/1 83/3/1
f 86/3/1 85/3/1 84/3/1
f 87/3/1 85/3/1 86/3/1
f 90/3/1 89/3/1 88/3/1
f 91/3/1 89/3/1 90/3/1
f 92/3/1 89/3/1 91/3/1
f 93/10/1 92/10/1 91/10/1
f 94/10/1 92/10/1 93/10/1
f 95/10/1 92/10/1 94/10/1
f 98/5/1 97/5/1 96/5/1
f 99/5/1 97/5/1 98/5/1
f 102/7/1 101/7/1 100/7/1
f 103/7/1 101/7/1 102/7/1
f 106/4/1 105/4/1 104/4/1
f 107/4/1 105/4/1 106/4/1
f 108/3/2 109/3/2 110/3/2
f 110/3/2 109/3/2 111/3/2
f 111/3/2 109/3/2 112/3/2
f 111/10/2 112/10/2 113/10/2
f 113/10/2 112/10/2 114/10/2
f 114/10/2 112/10/2 115/10/2
f 116/5/2 117/5/2 118/5/2
f 118/5/2 117/5/2 119/5/2
f 120/7/2 121/7/2 122/7/2
f 122/7/2 121/7/2 123/7/2
f 124/4/2 125/4/2 126/4/2
f 126/4/2 125/4/2 127/4/2
f 128/3/2 129/3/2 130/3/2
f 130/3/2 129/3/2 131/3/2
f 132/5/2 133/5/2 134/5/2
f 134/5/2 133/5/2 135/5/2
f 136/3/2 137/3/2 138/3/2
f 138/3/2 137/3/2 139/3/2
f 140/3/2 141/3/2 142/3/2
f 142/3/2 141/3/2 143/3/2
f 144/3/2 145/3/2 146/3/2
f 146/3/2 145/3/2 147/3/2
f 147/3/2 145/3/2 148/3/2
f 147/10/2 148/10/2 150/10/2
f 150/10/2 148/10/2 151/10/2
f 149/3/2 150/3/2 151/3/2
f 151/10/2 148/10/2 152/10/2
f 149/3/2 151/3/2 155/3/2
f 153/6/2 154/6/2 156/6/2
f 156/6/2 154/6/2 157/6/2
f 157/6/2 154/6/2 158/6/2
f 149/3/2 155/3/2 159/3/2
f 159/3/2 155/3/2 160/3/2
f 157/3/2 158/3/2 161/3/2
f 161/3/2 158/3/2 162/3/2
f 159/8/2 160/8/2 163/8/2
f 163/8/2 160/8/2 164/8/2
f 161/6/2 162/6/2 165/6/2
f 165/6/2 162/6/2 166/6/2
f 163/3/2 164/3/2 167/3/2
f 167/3/2 164/3/2 168/3/2
f 165/3/2 166/3/2 169/3/2
f 169/3/2 166/3/2 170/3/2
f 171/1/2 172/1/2 173/1/2
f 173/1/2 172/1/2 174/1/2
f 171/1/2 173/1/2 175/1/2
f 175/1/2 173/1/2 176/1/2
f 176/1/2 173/1/2 177/1/2
f 174/1/2 172/1/2 178/1/2
f 178/1/2 172/1/2 179/1/2
f 175/1/2 176/1/2 180/1/2
f 180/1/2 176/1/2 181/1/2
f 182/3/2 183/3/2 184/3/2
f 184/3/2 183/3/2 185/3/2
f 186/3/2 187/3/2 188/3/2
f 186/3/2 188/3/2 190/3/2
f 188/3/2 189/3/2 190/3/2
f 190/3/2 189/3/2 191/3/2
f 192/1/2 193/1/2 197/1/2
f 197/1/2 193/1/2 198/1/2
f 197/1/2 198/1/2 200/1/2
f 198/3/2 199/3/2 200/3/2
f 200/3/2 199/3/2 201/3/2
f 194/7/2 195/7/2 202/7/2
f 202/7/2 195/7/2 203/7/2
f 196/3/2 197/3/2 204/3/2
f 197/1/2 200/1/2 205/1/2
f 204/3/2 197/3/2 205/3/2
f 200/4/2 201/4/2 206/4/2
f 205/1/2 200/1/2 206/1/2
f 202/4/2 203/4/2 207/4/2
f 203/4/2 204/4/2 207/4/2
f 205/4/2 206/4/2 207/4/2
f 204/4/2 205/4/2 207/4/2
f 207/4/2 206/4/2 208/4/2
f 201/3/2 199/3/2 209/3/2
f 208/4/2 206/4/2 209/4/2
f 206/4/2 201/4/2 209/4/2
f 208/3/2 209/3/2 210/3/2
f 210/3/2 209/3/2 211/3/2
f 209/3/2 199/3/2 212/3/2
f 211/3/2 209/3/2 212/3/2
f 212/3/2 199/3/2 213/3/2
f 211/3/2 212/3/2 214/3/2
f 214/3/2 212/3/2 215/3/2
f 216/1/2 217/1/2 218/1/2
f 218/1/2 217/1/2 219/1/2
f 218/6/2 219/6/2 220/6/2
f 220/6/2 219/6/2 221/6/2
f 227/7/3 223/7/3 222/7/3
f 228/7/3 223/7/3 227/7/3
f 229/4/3 224/4/3 223/4/3
f 229/7/3 223/7/3 228/7/3
f 230/4/3 224/4/3 229/4/3
f 232/4/3 229/4/3 228/4/3
f 233/4/3 229/4/3 232/4/3
f 235/3/3 226/3/3 225/3/3
f 236/3/3 226/3/3 235/3/3
f 237/3/3 235/3/3 225/3/3
f 238/3/3 235/3/3 237/3/3
f 239/3/3 237/3/3 225/3/3
f 240/3/3 237/3/3 239/3/3
f 241/7/3 233/7/3 232/7/3
f 241/7/3 232/7/3 231/7/3
f 242/4/3 234/4/3 233/4/3
f 242/7/3 233/7/3 241/7/3
f 243/4/3 234/4/3 242/4/3
f 248/3/3 245/3/3 244/3/3
f 249/3/3 245/3/3 248/3/3
f 250/3/3 245/3/3 249/3/3
f 252/1/3 249/1/3 248/1/3
f 252/3/3 251/3/3 250/3/3
f 252/3/3 250/3/3 249/3/3
f 253/3/3 251/3/3 252/3/3
f 255/1/3 247/1/3 246/1/3
f 256/1/3 247/1/3 255/1/3
f 259/1/3 252/1/3 248/1/3
f 260/1/3 255/1/3 246/1/3
f 260/2/3 256/2/3 255/2/3
f 261/1/3 257/1/3 256/1/3
f 261/2/3 256/2/3 260/2/3
f 262/1/3 257/1/3 261/1/3
f 263/1/3 259/1/3 258/1/3
f 264/1/3 252/1/3 259/1/3
f 264/1/3 259/1/3 263/1/3
f 266/3/3 254/3/3 253/3/3
f 268/3/3 266/3/3 265/3/3
f 269/1/3 260/1/3 246/1/3
f 269/1/3 261/1/3 260/1/3
f 270/1/3 261/1/3 269/1/3
f 271/1/3 252/1/3 264/1/3
f 272/1/3 252/1/3 271/1/3
f 273/3/3 268/3/3 267/3/3
f 274/3/3 266/3/3 268/3/3
f 274/3/3 268/3/3 273/3/3
f 275/3/3 254/3/3 266/3/3
f 275/3/3 266/3/3 274/3/3
f 276/3/3 272/3/3 271/3/3
f 276/3/3 273/3/3 272/3/3
f 276/3/3 274/3/3 273/3/3
f 277/3/3 274/3/3 276/3/3
f 288/3/3 279/3/3 278/3/3
f 289/3/3 279/3/3 288/3/3
f 290/3/3 281/3/3 280/3/3
f 291/3/3 281/3/3 290/3/3
f 292/3/3 285/3/3 284/3/3
f 293/3/3 285/3/3 292/3/3
f 294/8/3 286/8/3 285/8/3
f 294/3/3 285/3/3 293/3/3
f 295/3/3 287/3/3 286/3/3
f 295/8/3 286/8/3 294/8/3
f 296/3/3 287/3/3 295/3/3
f 297/3/3 287/3/3 296/3/3
f 299/3/3 283/3/3 282/3/3
f 300/3/3 283/3/3 299/3/3
f 301/5/3 298/5/3 297/5/3
f 301/6/3 296/6/3 295/6/3
f 301/5/3 297/5/3 296/5/3
f 302/5/3 298/5/3 301/5/3
f 303/5/3 298/5/3 302/5/3
f 306/6/3 301/6/3 295/6/3
f 306/6/3 302/6/3 301/6/3
f 307/6/3 302/6/3 306/6/3
f 309/9/3 293/9/3 292/9/3
f 309/3/3 292/3/3 284/3/3
f 310/3/3 294/3/3 293/3/3
f 310/9/3 293/9/3 309/9/3
f 310/3/3 295/3/3 294/3/3
f 311/3/3 295/3/3 310/3/3
f 312/6/3 306/6/3 295/6/3
f 312/3/3 295/3/3 311/3/3
f 313/5/3 308/5/3 307/5/3
f 313/6/3 306/6/3 312/6/3
f 313/5/3 307/5/3 306/5/3
f 314/5/3 308/5/3 313/5/3
f 315/5/3 308/5/3 314/5/3
f 316/3/3 305/3/3 304/3/3
f 317/3/3 305/3/3 316/3/3
f 318/3/3 309/3/3 284/3/3
f 318/3/3 310/3/3 309/3/3
f 318/3/3 311/3/3 310/3/3
f 319/8/3 312/8/3 311/8/3
f 319/3/3 311/3/3 318/3/3
f 320/3/3 314/3/3 313/3/3
f 320/8/3 312/8/3 319/8/3
f 320/3/3 313/3/3 312/3/3
f 321/3/3 314/3/3 320/3/3
f 326/3/3 323/3/3 322/3/3
f 327/3/3 323/3/3 326/3/3
f 328/3/3 325/3/3 324/3/3
f 329/3/3 325/3/3 328/3/3
f 337/1/3 331/1/3 330/1/3
f 338/6/3 332/6/3 331/6/3
f 338/1/3 331/1/3 337/1/3
f 339/6/3 332/6/3 338/6/3
f 340/6/3 332/6/3 339/6/3
f 341/6/3 332/6/3 340/6/3
f 342/1/3 334/1/3 333/1/3
f 343/1/3 334/1/3 342/1/3
f 344/10/3 336/10/3 335/10/3
f 345/10/3 336/10/3 344/10/3
f 350/1/3 347/1/3 346/1/3
f 351/1/3 347/1/3 350/1/3
f 352/10/3 349/10/3 348/10/3
f 353/10/3 349/10/3 352/10/3
f 361/1/3 360/1/3 359/1/3
f 362/1/3 360/1/3 361/1/3
f 363/1/3 355/1/3 354/1/3
f 364/6/3 358/6/3 357/6/3
f 364/1/3 355/1/3 363/1/3
f 364/6/3 357/6/3 356/6/3
f 364/6/3 356/6/3 355/6/3
f 365/6/3 358/6/3 364/6/3
f 366/7/4 367/7/4 368/7/4
f 368/7/4 367/7/4 369/7/4
f 370/7/4 371/7/4 372/7/4
f 372/7/4 371/7/4 373/7/4
f 374/3/4 375/3/4 376/3/4
f 376/3/4 375/3/4 377/3/4
f 378/1/4 379/1/4 380/1/4
f 380/1/4 379/1/4 381/1/4
f 382/1/4 383/1/4 384/1/4
f 384/1/4 383/1/4 385/1/4
f 386/1/4 387/1/4 391/1/4
f 391/1/4 387/1/4 392/1/4
f 387/6/4 388/6/4 393/6/4
f 392/1/4 387/1/4 393/1/4
f 393/6/4 388/6/4 394/6/4
f 394/6/4 388/6/4 395/6/4
f 395/6/4 388/6/4 396/6/4
f 396/6/4 388/6/4 397/6/4
f 389/3/4 390/3/4 398/3/4
f 391/10/4 392/10/4 399/10/4
f 398/3/4 390/3/4 399/3/4
f 390/10/4 391/10/4 399/10/4
f 399/10/4 392/10/4 400/10/4
f 401/3/4 402/3/4 404/3/4
f 402/10/4 403/10/4 405/10/4
f 404/3/4 402/3/4 405/3/4
f 405/10/4 403/10/4 406/10/4
f 406/10/4 403/10/4 407/10/4
f 406/1/4 407/1/4 413/1/4
f 407/1/4 408/1/4 413/1/4
f 411/6/4 412/6/4 414/6/4
f 413/1/4 408/1/4 414/1/4
f 410/6/4 411/6/4 414/6/4
f 408/6/4 409/6/4 414/6/4
f 409/6/4 410/6/4 414/6/4
f 414/6/4 412/6/4 415/6/4
f 416/3/4 417/3/4 425/3/4
f 425/3/4 417/3/4 426/3/4
f 421/3/4 422/3/4 427/3/4
f 423/1/4 424/1/4 428/1/4
f 421/3/4 427/3/4 431/3/4
f 427/5/4 428/5/4 431/5/4
f 428/1/4 424/1/4 432/1/4
f 431/5/4 428/5/4 432/5/4
f 429/3/4 430/3/4 434/3/4
f 418/6/4 419/6/4 435/6/4
f 419/3/4 420/3/4 436/3/4
f 435/6/4 419/6/4 436/6/4
f 420/6/4 421/6/4 437/6/4
f 436/3/4 420/3/4 437/3/4
f 421/3/4 431/3/4 438/3/4
f 437/6/4 421/6/4 438/6/4
f 438/3/4 431/3/4 439/3/4
f 432/1/4 424/1/4 440/1/4
f 440/1/4 424/1/4 441/1/4
f 433/3/4 434/3/4 442/3/4
f 434/3/4 430/3/4 442/3/4
f 442/3/4 430/3/4 443/3/4
f 433/3/4 442/3/4 444/3/4
f 444/3/4 442/3/4 445/3/4
f 446/3/4 447/3/4 448/3/4
f 446/3/4 448/3/4 450/3/4
f 448/3/4 449/3/4 450/3/4
f 450/3/4 449/3/4 451/3/4
f 446/3/4 450/3/4 452/3/4
f 452/3/4 450/3/4 453/3/4
f 458/3/5 455/3/5 454/3/5
f 459/3/5 455/3/5 458/3/5
f 460/3/5 457/3/5 456/3/5
f 461/3/5 457/3/5 460/3/5
f 464/3/5 463/3/5 462/3/5
f 465/3/5 463/3/5 464/3/5
f 466/3/5 463/3/5 465/3/5
f 467/3/5 463/3/5 466/3/5
f 472/1/5 469/1/5 468/1/5
f 473/1/5 469/1/5 472/1/5
f 474/1/5 471/1/5 470/1/5
f 475/1/5 471/1/5 474/1/5
f 479/6/5 477/6/5 476/6/5
f 480/6/5 477/6/5 479/6/5
f 482/6/5 479/6/5 478/6/5
f 482/6/5 481/6/5 480/6/5
f 482/6/5 480/6/5 479/6/5
f 483/6/5 481/6/5 482/6/5
f 486/1/5 485/1/5 484/1/5
f 487/1/5 485/1/5 486/1/5
f 488/1/5 485/1/5 487/1/5
f 489/1/5 485/1/5 488/1/5
f 490/1/5 488/1/5 487/1/5
f 491/1/5 488/1/5 490/1/5
f 492/1/5 486/1/5 484/1/5
f 493/1/5 486/1/5 492/1/5
f 494/1/5 485/1/5 489/1/5
f 495/1/5 485/1/5 494/1/5
f 500/1/5 497/1/5 496/1/5
f 501/1/5 497/1/5 500/1/5
f 502/1/5 499/1/5 498/1/5
f 503/1/5 499/1/5 502/1/5
f 508/7/5 505/7/5 504/7/5
f 509/7/5 505/7/5 508/7/5
f 510/7/5 505/7/5 509/7/5
f 511/7/5 507/7/5 506/7/5
f 512/7/5 507/7/5 511/7/5
f 513/7/5 507/7/5 512/7/5
f 518/3/5 515/3/5 514/3/5
f 519/3/5 515/3/5 518/3/5
f 520/3/5 517/3/5 516/3/5
f 521/3/5 517/3/5 520/3/5
f 526/3/5 523/3/5 522/3/5
f 527/3/5 525/3/5 524/3/5
f 528/3/5 526/3/5 522/3/5
f 528/3/5 527/3/5 526/3/5
f 529/3/5 525/3/5 527/3/5
f 529/3/5 527/3/5 528/3/5
f 532/4/5 531/4/5 530/4/5
f 533/4/5 531/4/5 532/4/5
f 538/4/5 535/4/5 534/4/5
f 539/4/5 535/4/5 538/4/5
f 540/4/5 537/4/5 536/4/5
f 541/4/5 537/4/5 540/4/5
f 544/3/5 543/3/5 542/3/5
f 545/3/5 543/3/5 544/3/5
f 546/3/6 547/3/6 550/3/6
f 550/3/6 547/3/6 551/3/6
f 548/3/6 549/3/6 552/3/6
f 552/3/6 549/3/6 553/3/6
f 554/3/6 555/3/6 561/3/6
f 556/6/6 557/6/6 562/6/6
f 562/6/6 557/6/6 563/6/6
f 558/3/6 559/3/6 564/3/6
f 560/6/6 561/6/6 566/6/6
f 561/3/6 555/3/6 567/3/6
f 566/6/6 561/6/6 567/6/6
f 564/6/6 565/6/6 568/6/6
f 558/3/6 564/3/6 568/3/6
f 568/6/6 565/6/6 569/6/6
f 567/3/6 555/3/6 570/3/6
f 570/3/6 555/3/6 571/3/6
f 558/3/6 568/3/6 572/3/6
f 572/3/6 568/3/6 573/3/6
f 574/4/6 575/4/6 576/4/6
f 576/4/6 575/4/6 577/4/6
f 578/4/6 579/4/6 582/4/6
f 582/4/6 579/4/6 583/4/6
f 583/4/6 579/4/6 584/4/6
f 580/4/6 581/4/6 585/4/6
f 585/4/6 581/4/6 586/4/6
f 586/4/6 581/4/6 587/4/6
f 588/3/6 589/3/6 590/3/6
f 590/3/6 589/3/6 591/3/6
f 592/3/6 593/3/6 596/3/6
f 596/3/6 593/3/6 597/3/6
f 594/3/6 595/3/6 600/3/6
f 600/3/6 595/3/6 601/3/6
f 598/3/6 599/3/6 602/3/6
f 602/3/6 599/3/6 603/3/6
f 604/3/6 605/3/6 608/3/6
f 608/3/6 605/3/6 609/3/6
f 606/3/6 607/3/6 610/3/6
f 610/3/6 607/3/6 611/3/6
f 612/3/6 613/3/6 615/3/6
f 615/3/6 613/3/6 616/3/6
f 614/3/6 615/3/6 618/3/6
f 617/3/6 618/3/6 621/3/6
f 618/3/6 615/3/6 622/3/6
f 621/3/6 618/3/6 622/3/6
f 622/3/6 615/3/6 623/3/6
f 619/3/6 620/3/6 625/3/6
f 625/3/6 620/3/6 626/3/6
f 623/3/6 624/3/6 627/3/6
f 622/3/6 623/3/6 627/3/6
f 627/3/6 624/3/6 628/3/6
f 629/3/6 630/3/6 631/3/6
f 631/3/6 630/3/6 632/3/6
