# MagicaVoxel @ Ephtracy

# group
o 

# material
mtllib Character-9.mtl
usemtl palette

# normals
vn -1 0 0
vn 1 0 0
vn 0 0 1
vn 0 0 -1
vn 0 -1 0
vn 0 1 0

# texcoords
vt 0.486328 0.5
vt 0.521484 0.5
vt 0.681641 0.5
vt 0.935547 0.5
vt 0.958984 0.5
vt 0.962891 0.5
vt 0.966797 0.5

# verts
v -0.8 0.6 1.1
v -0.8 0.6 0.9
v -0.8 1.4 1.1
v -0.8 1.4 0.9
v -0.7 1.5 1
v -0.7 1.5 0.7
v -0.7 1.6 1.2
v -0.7 1.6 1.1
v -0.7 1.6 1
v -0.7 1.9 1.3
v -0.7 1.9 1.2
v -0.7 1.9 1.1
v -0.7 1.9 1
v -0.7 2.2 0.8
v -0.7 2.2 0.7
v -0.7 2.3 1.3
v -0.7 2.3 0.8
v -0.6 0 1.2
v -0.6 0 0.9
v -0.6 0.1 1.2
v -0.6 0.1 1.1
v -0.6 0.1 0.9
v -0.6 0.2 1.1
v -0.6 0.2 0.9
v -0.6 0.4 1.1
v -0.6 0.4 1
v -0.6 0.5 1.1
v -0.6 0.5 1
v -0.6 0.6 1.1
v -0.6 0.6 0.9
v -0.6 0.7 1.2
v -0.6 0.7 1.1
v -0.6 0.7 0.9
v -0.6 0.7 0.8
v -0.6 0.8 1.2
v -0.6 0.8 1.1
v -0.6 0.8 0.9
v -0.6 0.8 0.8
v -0.6 1 1.2
v -0.6 1 1.1
v -0.6 1 0.9
v -0.6 1 0.8
v -0.6 1.3 1.2
v -0.6 1.3 1.1
v -0.6 1.3 0.9
v -0.6 1.3 0.8
v -0.6 1.4 1.2
v -0.6 1.4 1.1
v -0.6 1.4 0.9
v -0.6 1.4 0.8
v -0.6 1.5 1.3
v -0.6 1.5 1
v -0.6 1.6 1.3
v -0.6 1.6 1.2
v -0.6 1.6 1.1
v -0.6 1.6 1
v -0.6 1.8 1.3
v -0.6 1.8 1.2
v -0.6 1.9 1.4
v -0.6 1.9 1.3
v -0.6 1.9 1.2
v -0.6 2.2 0.8
v -0.6 2.2 0.7
v -0.6 2.3 1.3
v -0.6 2.3 0.8
v -0.6 2.3 0.7
v -0.6 2.4 1.4
v -0.6 2.4 0.8
v -0.5 2.1 0.7
v -0.5 2.1 0.6
v -0.5 2.3 0.8
v -0.5 2.3 0.7
v -0.5 2.3 0.6
v -0.5 2.3 0.5
v -0.5 2.4 0.9
v -0.5 2.4 0.8
v -0.5 2.5 0.9
v -0.5 2.5 0.8
v -0.5 2.6 0.8
v -0.5 2.6 0.5
v -0.4 1.4 1.1
v -0.4 1.4 0.9
v -0.4 1.5 1.1
v -0.4 1.5 0.9
v -0.3 2 1.4
v -0.3 2 1.3
v -0.3 2.2 1.4
v -0.3 2.2 1.3
v -0.2 0 1.2
v -0.2 0 0.9
v -0.2 0.1 1.2
v -0.2 0.1 1.1
v -0.2 0.1 0.9
v -0.2 0.2 1.1
v -0.2 0.2 0.9
v -0.2 0.4 1.1
v -0.2 0.4 1
v -0.2 0.5 1.1
v -0.2 0.5 1
v -0.2 0.7 1.1
v -0.2 0.7 0.9
v -0.2 1.9 1.4
v -0.2 1.9 1.3
v -0.2 2 1.4
v -0.2 2 1.3
v -0.5 2 1.4
v -0.5 2 1.3
v -0.5 2.1 1.4
v -0.5 2.1 1.3
v -0.4 0 1.2
v -0.4 0 0.9
v -0.4 0.1 1.2
v -0.4 0.1 1.1
v -0.4 0.1 0.9
v -0.4 0.2 1.1
v -0.4 0.2 0.9
v -0.4 0.7 1.1
v -0.4 0.7 0.9
v -0.4 1.9 1.4
v -0.4 1.9 1.3
v -0.4 2 1.4
v -0.4 2 1.3
v -0.4 2.1 1.4
v -0.4 2.1 1.3
v -0.4 2.2 1.4
v -0.4 2.2 1.3
v -0.2 1.4 1.1
v -0.2 1.4 0.9
v -0.2 1.5 1.1
v -0.2 1.5 0.9
v -0.2 2.3 1.4
v -0.2 2.3 1.3
v -0.2 2.4 1.4
v -0.2 2.4 1.3
v -0.1 2.1 0.7
v -0.1 2.1 0.6
v -0.1 2.3 0.8
v -0.1 2.3 0.7
v -0.1 2.3 0.6
v -0.1 2.3 0.5
v -0.1 2.4 0.9
v -0.1 2.4 0.8
v -0.1 2.5 0.9
v -0.1 2.5 0.8
v -0.1 2.6 0.8
v -0.1 2.6 0.5
v 0 0 1.2
v 0 0 0.9
v 0 0.1 1.2
v 0 0.1 1.1
v 0 0.1 0.9
v 0 0.2 1.1
v 0 0.2 0.9
v 0 0.3 1.1
v 0 0.3 1
v 0 0.5 1.1
v 0 0.5 1
v 0 0.6 1.1
v 0 0.6 0.9
v 0 0.7 1.2
v 0 0.7 1.1
v 0 0.7 0.9
v 0 0.7 0.8
v 0 0.8 1.2
v 0 0.8 1.1
v 0 0.8 0.9
v 0 0.8 0.8
v 0 1 1.2
v 0 1 1.1
v 0 1 0.9
v 0 1 0.8
v 0 1.3 1.2
v 0 1.3 1.1
v 0 1.3 0.9
v 0 1.3 0.8
v 0 1.4 1.2
v 0 1.4 1.1
v 0 1.4 0.9
v 0 1.4 0.8
v 0 1.5 1.3
v 0 1.5 1
v 0 1.6 1.3
v 0 1.6 1.2
v 0 1.6 1.1
v 0 1.6 1
v 0 1.8 1.3
v 0 1.8 1.2
v 0 1.9 1.4
v 0 1.9 1.3
v 0 2 1.4
v 0 2 1.3
v 0 2 1.2
v 0 2.2 0.8
v 0 2.2 0.7
v 0 2.3 1.3
v 0 2.3 0.8
v 0 2.3 0.7
v 0 2.4 1.3
v 0 2.4 0.8
v 0.1 1.5 1
v 0.1 1.5 0.7
v 0.1 1.6 1.2
v 0.1 1.6 1.1
v 0.1 1.6 1
v 0.1 1.9 1.1
v 0.1 1.9 1
v 0.1 2 1.4
v 0.1 2 1.2
v 0.1 2.2 0.8
v 0.1 2.2 0.7
v 0.1 2.3 1.4
v 0.1 2.3 0.8
v 0.2 0.6 1.1
v 0.2 0.6 0.9
v 0.2 1.4 1.1
v 0.2 1.4 0.9
v -0.6 1.9 1.4
v -0.6 2.4 1.4
v -0.5 2 1.4
v -0.5 2.1 1.4
v -0.4 1.9 1.4
v -0.4 2 1.4
v -0.4 2.1 1.4
v -0.4 2.2 1.4
v -0.3 2 1.4
v -0.3 2.2 1.4
v -0.2 1.9 1.4
v -0.2 2 1.4
v -0.2 2.3 1.4
v -0.2 2.4 1.4
v 0 1.9 1.4
v 0 2 1.4
v 0.1 2 1.4
v 0.1 2.3 1.4
v -0.7 1.9 1.3
v -0.7 2.3 1.3
v -0.6 1.5 1.3
v -0.6 1.6 1.3
v -0.6 1.8 1.3
v -0.6 1.9 1.3
v -0.6 2.3 1.3
v -0.5 1.6 1.3
v -0.5 1.8 1.3
v -0.5 1.9 1.3
v -0.5 2 1.3
v -0.5 2.1 1.3
v -0.4 1.5 1.3
v -0.4 1.6 1.3
v -0.4 1.8 1.3
v -0.4 1.9 1.3
v -0.4 2 1.3
v -0.4 2.1 1.3
v -0.4 2.2 1.3
v -0.3 2 1.3
v -0.3 2.2 1.3
v -0.2 1.5 1.3
v -0.2 1.6 1.3
v -0.2 1.8 1.3
v -0.2 1.9 1.3
v -0.2 2 1.3
v -0.2 2.3 1.3
v -0.2 2.4 1.3
v -0.1 1.6 1.3
v -0.1 1.8 1.3
v -0.1 1.9 1.3
v 0 1.5 1.3
v 0 1.6 1.3
v 0 1.8 1.3
v 0 1.9 1.3
v 0 2.3 1.3
v 0 2.4 1.3
v -0.7 1.6 1.2
v -0.7 1.9 1.2
v -0.6 0 1.2
v -0.6 0.1 1.2
v -0.6 0.7 1.2
v -0.6 0.8 1.2
v -0.6 1 1.2
v -0.6 1.3 1.2
v -0.6 1.4 1.2
v -0.6 1.6 1.2
v -0.6 1.8 1.2
v -0.6 1.9 1.2
v -0.4 0 1.2
v -0.4 0.1 1.2
v -0.2 0 1.2
v -0.2 0.1 1.2
v 0 0 1.2
v 0 0.1 1.2
v 0 0.7 1.2
v 0 0.8 1.2
v 0 1 1.2
v 0 1.3 1.2
v 0 1.4 1.2
v 0 1.6 1.2
v 0 1.8 1.2
v 0 2 1.2
v 0.1 1.6 1.2
v 0.1 2 1.2
v -0.8 0.6 1.1
v -0.8 1.4 1.1
v -0.6 0.1 1.1
v -0.6 0.2 1.1
v -0.6 0.4 1.1
v -0.6 0.5 1.1
v -0.6 0.6 1.1
v -0.6 0.7 1.1
v -0.6 0.8 1.1
v -0.6 1 1.1
v -0.6 1.3 1.1
v -0.6 1.4 1.1
v -0.5 0.4 1.1
v -0.5 0.5 1.1
v -0.4 0.1 1.1
v -0.4 0.2 1.1
v -0.4 0.7 1.1
v -0.4 1.4 1.1
v -0.4 1.5 1.1
v -0.2 0.1 1.1
v -0.2 0.2 1.1
v -0.2 0.4 1.1
v -0.2 0.5 1.1
v -0.2 0.7 1.1
v -0.2 1.4 1.1
v -0.2 1.5 1.1
v -0.1 0.3 1.1
v -0.1 0.4 1.1
v 0 0.1 1.1
v 0 0.2 1.1
v 0 0.3 1.1
v 0 0.5 1.1
v 0 0.6 1.1
v 0 0.7 1.1
v 0 0.8 1.1
v 0 1 1.1
v 0 1.3 1.1
v 0 1.4 1.1
v 0.2 0.6 1.1
v 0.2 1.4 1.1
v -0.7 1.5 1
v -0.7 1.6 1
v -0.6 1.5 1
v -0.6 1.6 1
v 0 1.5 1
v 0 1.6 1
v 0.1 1.5 1
v 0.1 1.6 1
v -0.5 2.4 0.9
v -0.5 2.5 0.9
v -0.1 2.4 0.9
v -0.1 2.5 0.9
v -0.5 2.5 0.8
v -0.5 2.6 0.8
v -0.1 2.5 0.8
v -0.1 2.6 0.8
v -0.8 0.6 0.9
v -0.8 1.4 0.9
v -0.6 0 0.9
v -0.6 0.1 0.9
v -0.6 0.2 0.9
v -0.6 0.6 0.9
v -0.6 0.7 0.9
v -0.6 0.8 0.9
v -0.6 1 0.9
v -0.6 1.3 0.9
v -0.6 1.4 0.9
v -0.4 0 0.9
v -0.4 0.1 0.9
v -0.4 0.2 0.9
v -0.4 0.7 0.9
v -0.4 1.4 0.9
v -0.4 1.5 0.9
v -0.2 0 0.9
v -0.2 0.1 0.9
v -0.2 0.2 0.9
v -0.2 0.7 0.9
v -0.2 1.4 0.9
v -0.2 1.5 0.9
v 0 0 0.9
v 0 0.1 0.9
v 0 0.2 0.9
v 0 0.6 0.9
v 0 0.7 0.9
v 0 0.8 0.9
v 0 1 0.9
v 0 1.3 0.9
v 0 1.4 0.9
v 0.2 0.6 0.9
v 0.2 1.4 0.9
v -0.7 2.2 0.8
v -0.7 2.3 0.8
v -0.6 0.7 0.8
v -0.6 0.8 0.8
v -0.6 1 0.8
v -0.6 1.3 0.8
v -0.6 1.4 0.8
v -0.6 2.2 0.8
v -0.6 2.3 0.8
v -0.6 2.4 0.8
v -0.5 2.3 0.8
v -0.5 2.4 0.8
v -0.1 2.3 0.8
v -0.1 2.4 0.8
v 0 0.7 0.8
v 0 0.8 0.8
v 0 1 0.8
v 0 1.3 0.8
v 0 1.4 0.8
v 0 2.2 0.8
v 0 2.3 0.8
v 0 2.4 0.8
v 0.1 2.2 0.8
v 0.1 2.3 0.8
v -0.7 1.5 0.7
v -0.7 2.2 0.7
v -0.6 2.2 0.7
v -0.6 2.3 0.7
v -0.5 2.1 0.7
v -0.5 2.3 0.7
v -0.1 2.1 0.7
v -0.1 2.3 0.7
v 0 2.2 0.7
v 0 2.3 0.7
v 0.1 1.5 0.7
v 0.1 2.2 0.7
v -0.5 2.1 0.6
v -0.5 2.3 0.6
v -0.1 2.1 0.6
v -0.1 2.3 0.6
v -0.5 2.3 0.5
v -0.5 2.6 0.5
v -0.1 2.3 0.5
v -0.1 2.6 0.5
v -0.6 0 1.2
v -0.4 0 1.2
v -0.2 0 1.2
v 0 0 1.2
v -0.6 0 0.9
v -0.4 0 0.9
v -0.2 0 0.9
v 0 0 0.9
v -0.8 0.6 1.1
v -0.6 0.6 1.1
v 0 0.6 1.1
v 0.2 0.6 1.1
v -0.8 0.6 0.9
v -0.6 0.6 0.9
v 0 0.6 0.9
v 0.2 0.6 0.9
v -0.6 0.7 1.2
v 0 0.7 1.2
v -0.6 0.7 1.1
v -0.4 0.7 1.1
v -0.2 0.7 1.1
v 0 0.7 1.1
v -0.6 0.7 0.9
v -0.4 0.7 0.9
v -0.2 0.7 0.9
v 0 0.7 0.9
v -0.6 0.7 0.8
v 0 0.7 0.8
v -0.6 1.5 1.3
v -0.4 1.5 1.3
v -0.2 1.5 1.3
v 0 1.5 1.3
v -0.4 1.5 1.2
v -0.2 1.5 1.2
v -0.4 1.5 1.1
v -0.2 1.5 1.1
v -0.7 1.5 1
v -0.6 1.5 1
v 0 1.5 1
v 0.1 1.5 1
v -0.4 1.5 0.9
v -0.2 1.5 0.9
v -0.6 1.5 0.8
v 0 1.5 0.8
v -0.7 1.5 0.7
v 0.1 1.5 0.7
v -0.7 1.6 1.2
v -0.6 1.6 1.2
v 0 1.6 1.2
v 0.1 1.6 1.2
v -0.7 1.6 1.1
v -0.6 1.6 1.1
v 0 1.6 1.1
v 0.1 1.6 1.1
v -0.7 1.6 1
v -0.6 1.6 1
v 0 1.6 1
v 0.1 1.6 1
v -0.6 1.9 1.4
v -0.4 1.9 1.4
v -0.2 1.9 1.4
v 0 1.9 1.4
v -0.7 1.9 1.3
v -0.6 1.9 1.3
v -0.5 1.9 1.3
v -0.4 1.9 1.3
v -0.2 1.9 1.3
v -0.1 1.9 1.3
v 0 1.9 1.3
v -0.7 1.9 1.2
v -0.6 1.9 1.2
v -0.3 2 1.4
v -0.2 2 1.4
v 0 2 1.4
v 0.1 2 1.4
v -0.3 2 1.3
v -0.2 2 1.3
v 0 2 1.3
v 0 2 1.2
v 0.1 2 1.2
v -0.5 2.1 1.4
v -0.4 2.1 1.4
v -0.5 2.1 1.3
v -0.4 2.1 1.3
v -0.5 2.1 0.7
v -0.1 2.1 0.7
v -0.5 2.1 0.6
v -0.1 2.1 0.6
v -0.4 2.2 1.4
v -0.3 2.2 1.4
v -0.4 2.2 1.3
v -0.3 2.2 1.3
v -0.5 2.3 0.6
v -0.1 2.3 0.6
v -0.5 2.3 0.5
v -0.1 2.3 0.5
v -0.6 0.1 1.2
v -0.4 0.1 1.2
v -0.2 0.1 1.2
v 0 0.1 1.2
v -0.6 0.1 1.1
v -0.4 0.1 1.1
v -0.2 0.1 1.1
v 0 0.1 1.1
v -0.6 1.4 1.2
v 0 1.4 1.2
v -0.8 1.4 1.1
v -0.6 1.4 1.1
v -0.4 1.4 1.1
v -0.2 1.4 1.1
v 0 1.4 1.1
v 0.2 1.4 1.1
v -0.8 1.4 0.9
v -0.6 1.4 0.9
v -0.4 1.4 0.9
v -0.2 1.4 0.9
v 0 1.4 0.9
v 0.2 1.4 0.9
v -0.6 1.4 0.8
v 0 1.4 0.8
v -0.5 2 1.4
v -0.4 2 1.4
v -0.5 2 1.3
v -0.4 2 1.3
v -0.7 2.2 0.8
v -0.6 2.2 0.8
v 0 2.2 0.8
v 0.1 2.2 0.8
v -0.7 2.2 0.7
v -0.6 2.2 0.7
v 0 2.2 0.7
v 0.1 2.2 0.7
v -0.2 2.3 1.4
v 0.1 2.3 1.4
v -0.7 2.3 1.3
v -0.6 2.3 1.3
v -0.2 2.3 1.3
v 0 2.3 1.3
v -0.7 2.3 0.8
v -0.6 2.3 0.8
v -0.5 2.3 0.8
v -0.1 2.3 0.8
v 0 2.3 0.8
v 0.1 2.3 0.8
v -0.6 2.3 0.7
v -0.5 2.3 0.7
v -0.1 2.3 0.7
v 0 2.3 0.7
v -0.6 2.4 1.4
v -0.2 2.4 1.4
v -0.2 2.4 1.3
v 0 2.4 1.3
v -0.5 2.4 0.9
v -0.1 2.4 0.9
v -0.6 2.4 0.8
v -0.5 2.4 0.8
v -0.1 2.4 0.8
v 0 2.4 0.8
v -0.5 2.5 0.9
v -0.1 2.5 0.9
v -0.5 2.5 0.8
v -0.1 2.5 0.8
v -0.5 2.6 0.8
v -0.1 2.6 0.8
v -0.5 2.6 0.5
v -0.1 2.6 0.5

# faces
f 3/5/1 2/5/1 1/5/1
f 4/5/1 2/5/1 3/5/1
f 9/1/1 6/1/1 5/1/1
f 11/1/1 8/1/1 7/1/1
f 12/5/1 9/5/1 8/5/1
f 12/1/1 8/1/1 11/1/1
f 13/1/1 6/1/1 9/1/1
f 13/5/1 9/5/1 12/5/1
f 14/1/1 11/1/1 10/1/1
f 14/1/1 6/1/1 13/1/1
f 14/1/1 13/1/1 12/1/1
f 14/1/1 12/1/1 11/1/1
f 15/1/1 6/1/1 14/1/1
f 16/1/1 14/1/1 10/1/1
f 17/1/1 14/1/1 16/1/1
f 20/2/1 19/2/1 18/2/1
f 21/2/1 19/2/1 20/2/1
f 22/2/1 19/2/1 21/2/1
f 23/5/1 22/5/1 21/5/1
f 24/5/1 22/5/1 23/5/1
f 25/3/1 24/3/1 23/3/1
f 26/3/1 24/3/1 25/3/1
f 27/5/1 26/5/1 25/5/1
f 28/3/1 24/3/1 26/3/1
f 28/5/1 26/5/1 27/5/1
f 29/3/1 28/3/1 27/3/1
f 30/3/1 24/3/1 28/3/1
f 30/3/1 28/3/1 29/3/1
f 35/3/1 32/3/1 31/3/1
f 36/3/1 32/3/1 35/3/1
f 37/3/1 34/3/1 33/3/1
f 38/3/1 34/3/1 37/3/1
f 39/5/1 36/5/1 35/5/1
f 40/5/1 36/5/1 39/5/1
f 41/5/1 38/5/1 37/5/1
f 42/5/1 38/5/1 41/5/1
f 43/4/1 40/4/1 39/4/1
f 44/4/1 40/4/1 43/4/1
f 45/4/1 42/4/1 41/4/1
f 46/4/1 42/4/1 45/4/1
f 47/5/1 44/5/1 43/5/1
f 48/5/1 44/5/1 47/5/1
f 49/5/1 46/5/1 45/5/1
f 50/5/1 46/5/1 49/5/1
f 53/5/1 52/5/1 51/5/1
f 54/5/1 52/5/1 53/5/1
f 55/5/1 52/5/1 54/5/1
f 56/5/1 52/5/1 55/5/1
f 57/6/1 54/6/1 53/6/1
f 58/6/1 54/6/1 57/6/1
f 60/5/1 58/5/1 57/5/1
f 61/5/1 58/5/1 60/5/1
f 64/1/1 60/1/1 59/1/1
f 65/1/1 63/1/1 62/1/1
f 66/1/1 63/1/1 65/1/1
f 67/1/1 64/1/1 59/1/1
f 67/1/1 65/1/1 64/1/1
f 68/1/1 65/1/1 67/1/1
f 72/1/1 70/1/1 69/1/1
f 73/1/1 70/1/1 72/1/1
f 76/1/1 72/1/1 71/1/1
f 76/1/1 74/1/1 73/1/1
f 76/1/1 73/1/1 72/1/1
f 77/1/1 76/1/1 75/1/1
f 78/1/1 74/1/1 76/1/1
f 78/1/1 76/1/1 77/1/1
f 79/1/1 74/1/1 78/1/1
f 80/1/1 74/1/1 79/1/1
f 83/5/1 82/5/1 81/5/1
f 84/5/1 82/5/1 83/5/1
f 87/1/1 86/1/1 85/1/1
f 88/1/1 86/1/1 87/1/1
f 91/2/1 90/2/1 89/2/1
f 92/2/1 90/2/1 91/2/1
f 93/2/1 90/2/1 92/2/1
f 94/5/1 93/5/1 92/5/1
f 95/5/1 93/5/1 94/5/1
f 96/3/1 95/3/1 94/3/1
f 97/3/1 95/3/1 96/3/1
f 98/5/1 97/5/1 96/5/1
f 99/3/1 95/3/1 97/3/1
f 99/5/1 97/5/1 98/5/1
f 100/3/1 99/3/1 98/3/1
f 101/3/1 95/3/1 99/3/1
f 101/3/1 99/3/1 100/3/1
f 104/1/1 103/1/1 102/1/1
f 105/1/1 103/1/1 104/1/1
f 106/1/2 107/1/2 108/1/2
f 108/1/2 107/1/2 109/1/2
f 110/2/2 111/2/2 112/2/2
f 112/2/2 111/2/2 113/2/2
f 113/2/2 111/2/2 114/2/2
f 113/5/2 114/5/2 115/5/2
f 115/5/2 114/5/2 116/5/2
f 115/3/2 116/3/2 117/3/2
f 117/3/2 116/3/2 118/3/2
f 119/1/2 120/1/2 121/1/2
f 121/1/2 120/1/2 122/1/2
f 123/1/2 124/1/2 125/1/2
f 125/1/2 124/1/2 126/1/2
f 127/5/2 128/5/2 129/5/2
f 129/5/2 128/5/2 130/5/2
f 131/1/2 132/1/2 133/1/2
f 133/1/2 132/1/2 134/1/2
f 135/1/2 136/1/2 138/1/2
f 138/1/2 136/1/2 139/1/2
f 137/1/2 138/1/2 142/1/2
f 139/1/2 140/1/2 142/1/2
f 138/1/2 139/1/2 142/1/2
f 141/1/2 142/1/2 143/1/2
f 142/1/2 140/1/2 144/1/2
f 143/1/2 142/1/2 144/1/2
f 144/1/2 140/1/2 145/1/2
f 145/1/2 140/1/2 146/1/2
f 147/2/2 148/2/2 149/2/2
f 149/2/2 148/2/2 150/2/2
f 150/2/2 148/2/2 151/2/2
f 150/5/2 151/5/2 152/5/2
f 152/5/2 151/5/2 153/5/2
f 152/3/2 153/3/2 154/3/2
f 154/3/2 153/3/2 155/3/2
f 154/5/2 155/5/2 156/5/2
f 155/3/2 153/3/2 157/3/2
f 156/5/2 155/5/2 157/5/2
f 156/3/2 157/3/2 158/3/2
f 157/3/2 153/3/2 159/3/2
f 158/3/2 157/3/2 159/3/2
f 160/3/2 161/3/2 164/3/2
f 164/3/2 161/3/2 165/3/2
f 162/3/2 163/3/2 166/3/2
f 166/3/2 163/3/2 167/3/2
f 164/5/2 165/5/2 168/5/2
f 168/5/2 165/5/2 169/5/2
f 166/5/2 167/5/2 170/5/2
f 170/5/2 167/5/2 171/5/2
f 168/4/2 169/4/2 172/4/2
f 172/4/2 169/4/2 173/4/2
f 170/4/2 171/4/2 174/4/2
f 174/4/2 171/4/2 175/4/2
f 172/5/2 173/5/2 176/5/2
f 176/5/2 173/5/2 177/5/2
f 174/5/2 175/5/2 178/5/2
f 178/5/2 175/5/2 179/5/2
f 180/5/2 181/5/2 182/5/2
f 182/5/2 181/5/2 183/5/2
f 183/5/2 181/5/2 184/5/2
f 184/5/2 181/5/2 185/5/2
f 182/6/2 183/6/2 186/6/2
f 186/6/2 183/6/2 187/6/2
f 186/5/2 187/5/2 189/5/2
f 188/1/2 189/1/2 190/1/2
f 189/5/2 187/5/2 191/5/2
f 190/1/2 189/1/2 191/1/2
f 191/5/2 187/5/2 192/5/2
f 193/1/2 194/1/2 196/1/2
f 196/1/2 194/1/2 197/1/2
f 195/1/2 196/1/2 198/1/2
f 198/1/2 196/1/2 199/1/2
f 200/1/2 201/1/2 204/1/2
f 202/1/2 203/1/2 205/1/2
f 203/5/2 204/5/2 205/5/2
f 204/1/2 201/1/2 206/1/2
f 205/5/2 204/5/2 206/5/2
f 202/1/2 205/1/2 208/1/2
f 205/1/2 206/1/2 208/1/2
f 206/1/2 201/1/2 209/1/2
f 207/1/2 208/1/2 209/1/2
f 208/1/2 206/1/2 209/1/2
f 209/1/2 201/1/2 210/1/2
f 207/1/2 209/1/2 211/1/2
f 211/1/2 209/1/2 212/1/2
f 213/5/2 214/5/2 215/5/2
f 215/5/2 214/5/2 216/5/2
f 219/1/3 218/1/3 217/1/3
f 220/1/3 218/1/3 219/1/3
f 221/1/3 219/1/3 217/1/3
f 222/1/3 219/1/3 221/1/3
f 223/1/3 218/1/3 220/1/3
f 224/1/3 218/1/3 223/1/3
f 226/1/3 218/1/3 224/1/3
f 228/1/3 226/1/3 225/1/3
f 229/1/3 218/1/3 226/1/3
f 229/1/3 226/1/3 228/1/3
f 230/1/3 218/1/3 229/1/3
f 231/1/3 228/1/3 227/1/3
f 231/1/3 229/1/3 228/1/3
f 232/1/3 229/1/3 231/1/3
f 233/1/3 229/1/3 232/1/3
f 234/1/3 229/1/3 233/1/3
f 240/1/3 236/1/3 235/1/3
f 241/1/3 236/1/3 240/1/3
f 242/6/3 239/6/3 238/6/3
f 242/5/3 238/5/3 237/5/3
f 243/5/3 240/5/3 239/5/3
f 243/6/3 239/6/3 242/6/3
f 244/5/3 240/5/3 243/5/3
f 247/5/3 242/5/3 237/5/3
f 247/5/3 243/5/3 242/5/3
f 248/5/3 243/5/3 247/5/3
f 249/2/3 244/2/3 243/2/3
f 249/5/3 243/5/3 248/5/3
f 250/2/3 244/2/3 249/2/3
f 251/5/3 246/5/3 245/5/3
f 252/5/3 246/5/3 251/5/3
f 254/5/3 250/5/3 249/5/3
f 254/5/3 253/5/3 252/5/3
f 254/5/3 252/5/3 251/5/3
f 254/5/3 251/5/3 250/5/3
f 254/5/3 249/5/3 248/5/3
f 255/5/3 253/5/3 254/5/3
f 256/7/3 248/7/3 247/7/3
f 257/5/3 254/5/3 248/5/3
f 257/7/3 248/7/3 256/7/3
f 258/5/3 254/5/3 257/5/3
f 259/5/3 254/5/3 258/5/3
f 260/5/3 254/5/3 259/5/3
f 263/5/3 257/5/3 256/5/3
f 263/5/3 258/5/3 257/5/3
f 264/2/3 259/2/3 258/2/3
f 264/5/3 258/5/3 263/5/3
f 265/2/3 259/2/3 264/2/3
f 266/5/3 263/5/3 256/5/3
f 267/6/3 264/6/3 263/6/3
f 267/5/3 263/5/3 266/5/3
f 268/5/3 265/5/3 264/5/3
f 268/6/3 264/6/3 267/6/3
f 269/5/3 265/5/3 268/5/3
f 270/1/3 262/1/3 261/1/3
f 271/1/3 262/1/3 270/1/3
f 281/1/3 273/1/3 272/1/3
f 282/1/3 273/1/3 281/1/3
f 283/1/3 273/1/3 282/1/3
f 284/2/3 275/2/3 274/2/3
f 285/2/3 275/2/3 284/2/3
f 288/2/3 287/2/3 286/2/3
f 289/2/3 287/2/3 288/2/3
f 290/3/3 277/3/3 276/3/3
f 291/5/3 278/5/3 277/5/3
f 291/3/3 277/3/3 290/3/3
f 292/4/3 279/4/3 278/4/3
f 292/5/3 278/5/3 291/5/3
f 293/5/3 280/5/3 279/5/3
f 293/4/3 279/4/3 292/4/3
f 294/5/3 280/5/3 293/5/3
f 298/1/3 297/1/3 296/1/3
f 298/1/3 296/1/3 295/1/3
f 299/1/3 297/1/3 298/1/3
f 306/5/3 301/5/3 300/5/3
f 307/5/3 301/5/3 306/5/3
f 308/5/3 301/5/3 307/5/3
f 309/5/3 301/5/3 308/5/3
f 310/5/3 301/5/3 309/5/3
f 311/5/3 301/5/3 310/5/3
f 312/5/3 305/5/3 304/5/3
f 312/3/3 304/3/3 303/3/3
f 313/3/3 307/3/3 306/3/3
f 313/5/3 305/5/3 312/5/3
f 313/3/3 306/3/3 305/3/3
f 314/5/3 303/5/3 302/5/3
f 315/3/3 312/3/3 303/3/3
f 315/5/3 303/5/3 314/5/3
f 315/3/3 313/3/3 312/3/3
f 316/3/3 307/3/3 313/3/3
f 316/3/3 313/3/3 315/3/3
f 324/5/3 318/5/3 317/5/3
f 325/5/3 318/5/3 324/5/3
f 326/3/3 321/3/3 320/3/3
f 327/5/3 322/5/3 321/5/3
f 327/3/3 321/3/3 326/3/3
f 328/5/3 320/5/3 319/5/3
f 329/3/3 326/3/3 320/3/3
f 329/5/3 320/5/3 328/5/3
f 330/5/3 327/5/3 326/5/3
f 330/3/3 326/3/3 329/3/3
f 331/3/3 323/3/3 322/3/3
f 331/5/3 327/5/3 330/5/3
f 331/5/3 322/5/3 327/5/3
f 332/3/3 323/3/3 331/3/3
f 333/3/3 323/3/3 332/3/3
f 338/5/3 337/5/3 336/5/3
f 338/5/3 336/5/3 335/5/3
f 338/5/3 335/5/3 334/5/3
f 338/5/3 334/5/3 333/5/3
f 338/5/3 333/5/3 332/5/3
f 339/5/3 337/5/3 338/5/3
f 342/1/3 341/1/3 340/1/3
f 343/1/3 341/1/3 342/1/3
f 346/1/3 345/1/3 344/1/3
f 347/1/3 345/1/3 346/1/3
f 350/1/3 349/1/3 348/1/3
f 351/1/3 349/1/3 350/1/3
f 354/1/3 353/1/3 352/1/3
f 355/1/3 353/1/3 354/1/3
f 356/5/4 357/5/4 361/5/4
f 361/5/4 357/5/4 362/5/4
f 362/5/4 357/5/4 363/5/4
f 363/5/4 357/5/4 364/5/4
f 364/5/4 357/5/4 365/5/4
f 365/5/4 357/5/4 366/5/4
f 358/2/4 359/2/4 367/2/4
f 359/5/4 360/5/4 368/5/4
f 367/2/4 359/2/4 368/2/4
f 360/3/4 361/3/4 369/3/4
f 368/5/4 360/5/4 369/5/4
f 361/3/4 362/3/4 369/3/4
f 369/3/4 362/3/4 370/3/4
f 371/5/4 372/5/4 377/5/4
f 377/5/4 372/5/4 378/5/4
f 373/2/4 374/2/4 379/2/4
f 374/5/4 375/5/4 380/5/4
f 379/2/4 374/2/4 380/2/4
f 375/3/4 376/3/4 381/3/4
f 380/5/4 375/5/4 381/5/4
f 381/3/4 376/3/4 382/3/4
f 382/3/4 376/3/4 383/3/4
f 386/5/4 387/5/4 388/5/4
f 385/5/4 386/5/4 388/5/4
f 384/5/4 385/5/4 388/5/4
f 383/5/4 384/5/4 388/5/4
f 382/5/4 383/5/4 388/5/4
f 388/5/4 387/5/4 389/5/4
f 390/1/4 391/1/4 397/1/4
f 397/1/4 391/1/4 398/1/4
f 398/1/4 399/1/4 400/1/4
f 400/1/4 399/1/4 401/1/4
f 392/3/4 393/3/4 404/3/4
f 393/5/4 394/5/4 405/5/4
f 404/3/4 393/3/4 405/3/4
f 394/4/4 395/4/4 406/4/4
f 405/5/4 394/5/4 406/5/4
f 395/5/4 396/5/4 407/5/4
f 406/4/4 395/4/4 407/4/4
f 407/5/4 396/5/4 408/5/4
f 402/1/4 403/1/4 410/1/4
f 410/1/4 403/1/4 411/1/4
f 409/1/4 410/1/4 412/1/4
f 412/1/4 410/1/4 413/1/4
f 414/1/4 415/1/4 416/1/4
f 414/1/4 416/1/4 418/1/4
f 416/1/4 417/1/4 418/1/4
f 418/1/4 417/1/4 419/1/4
f 414/1/4 418/1/4 420/1/4
f 420/1/4 421/1/4 422/1/4
f 422/1/4 421/1/4 423/1/4
f 414/1/4 420/1/4 424/1/4
f 420/1/4 422/1/4 424/1/4
f 424/1/4 422/1/4 425/1/4
f 426/1/4 427/1/4 428/1/4
f 428/1/4 427/1/4 429/1/4
f 430/1/4 431/1/4 432/1/4
f 432/1/4 431/1/4 433/1/4
f 438/2/5 435/2/5 434/2/5
f 439/2/5 435/2/5 438/2/5
f 440/2/5 437/2/5 436/2/5
f 441/2/5 437/2/5 440/2/5
f 446/5/5 443/5/5 442/5/5
f 447/5/5 443/5/5 446/5/5
f 448/5/5 445/5/5 444/5/5
f 449/5/5 445/5/5 448/5/5
f 452/3/5 451/3/5 450/3/5
f 453/3/5 451/3/5 452/3/5
f 454/3/5 451/3/5 453/3/5
f 455/3/5 451/3/5 454/3/5
f 457/3/5 454/3/5 453/3/5
f 458/3/5 454/3/5 457/3/5
f 460/3/5 457/3/5 456/3/5
f 460/3/5 459/3/5 458/3/5
f 460/3/5 458/3/5 457/3/5
f 461/3/5 459/3/5 460/3/5
f 466/5/5 463/5/5 462/5/5
f 466/7/5 464/7/5 463/7/5
f 467/5/5 465/5/5 464/5/5
f 467/7/5 464/7/5 466/7/5
f 468/5/5 466/5/5 462/5/5
f 468/5/5 467/5/5 466/5/5
f 469/5/5 465/5/5 467/5/5
f 469/5/5 467/5/5 468/5/5
f 471/5/5 468/5/5 462/5/5
f 472/5/5 465/5/5 469/5/5
f 474/5/5 468/5/5 471/5/5
f 475/5/5 472/5/5 469/5/5
f 476/1/5 471/1/5 470/1/5
f 476/5/5 475/5/5 474/5/5
f 476/5/5 474/5/5 471/5/5
f 477/5/5 472/5/5 475/5/5
f 477/5/5 475/5/5 476/5/5
f 477/1/5 473/1/5 472/1/5
f 478/1/5 476/1/5 470/1/5
f 478/1/5 477/1/5 476/1/5
f 479/1/5 473/1/5 477/1/5
f 479/1/5 477/1/5 478/1/5
f 484/1/5 481/1/5 480/1/5
f 485/1/5 481/1/5 484/1/5
f 486/1/5 483/1/5 482/1/5
f 487/1/5 483/1/5 486/1/5
f 488/5/5 485/5/5 484/5/5
f 489/5/5 485/5/5 488/5/5
f 490/5/5 487/5/5 486/5/5
f 491/5/5 487/5/5 490/5/5
f 497/1/5 493/1/5 492/1/5
f 498/1/5 493/1/5 497/1/5
f 499/1/5 493/1/5 498/1/5
f 500/1/5 495/1/5 494/1/5
f 501/1/5 495/1/5 500/1/5
f 502/1/5 495/1/5 501/1/5
f 503/1/5 497/1/5 496/1/5
f 504/1/5 497/1/5 503/1/5
f 509/1/5 506/1/5 505/1/5
f 510/1/5 506/1/5 509/1/5
f 511/1/5 508/1/5 507/1/5
f 512/1/5 508/1/5 511/1/5
f 513/1/5 508/1/5 512/1/5
f 516/1/5 515/1/5 514/1/5
f 517/1/5 515/1/5 516/1/5
f 520/1/5 519/1/5 518/1/5
f 521/1/5 519/1/5 520/1/5
f 524/1/5 523/1/5 522/1/5
f 525/1/5 523/1/5 524/1/5
f 528/1/5 527/1/5 526/1/5
f 529/1/5 527/1/5 528/1/5
f 530/2/6 531/2/6 534/2/6
f 534/2/6 531/2/6 535/2/6
f 532/2/6 533/2/6 536/2/6
f 536/2/6 533/2/6 537/2/6
f 538/5/6 539/5/6 541/5/6
f 541/5/6 539/5/6 542/5/6
f 542/5/6 539/5/6 543/5/6
f 543/5/6 539/5/6 544/5/6
f 540/5/6 541/5/6 546/5/6
f 541/5/6 542/5/6 546/5/6
f 546/5/6 542/5/6 547/5/6
f 547/5/6 542/5/6 548/5/6
f 544/5/6 545/5/6 549/5/6
f 543/5/6 544/5/6 549/5/6
f 549/5/6 545/5/6 550/5/6
f 550/5/6 545/5/6 551/5/6
f 547/5/6 548/5/6 552/5/6
f 549/5/6 550/5/6 552/5/6
f 548/5/6 549/5/6 552/5/6
f 552/5/6 550/5/6 553/5/6
f 554/1/6 555/1/6 556/1/6
f 556/1/6 555/1/6 557/1/6
f 558/1/6 559/1/6 562/1/6
f 562/1/6 559/1/6 563/1/6
f 560/1/6 561/1/6 564/1/6
f 564/1/6 561/1/6 565/1/6
f 566/1/6 567/1/6 570/1/6
f 570/1/6 567/1/6 571/1/6
f 568/1/6 569/1/6 572/1/6
f 572/1/6 569/1/6 573/1/6
f 571/1/6 567/1/6 576/1/6
f 576/1/6 567/1/6 577/1/6
f 573/1/6 574/1/6 578/1/6
f 578/1/6 574/1/6 579/1/6
f 575/1/6 576/1/6 580/1/6
f 580/1/6 576/1/6 581/1/6
f 582/1/6 583/1/6 584/1/6
f 582/1/6 584/1/6 586/1/6
f 584/1/6 585/1/6 586/1/6
f 586/1/6 585/1/6 587/1/6
f 582/1/6 586/1/6 588/1/6
f 588/1/6 586/1/6 589/1/6
f 587/1/6 585/1/6 590/1/6
f 590/1/6 585/1/6 591/1/6
f 592/1/6 593/1/6 594/1/6
f 594/1/6 593/1/6 595/1/6
f 596/1/6 597/1/6 598/1/6
f 598/1/6 597/1/6 599/1/6
