# generated by tools/rig_people.py — do not edit
mtllib people.mtl
o body
usemtl palette
v 4 20 3
v 4 20 5
v 4 22 5
v 4 22 3
v 1 18 3
v 1 18 5
v 1 23 5
v 1 23 3
v 1 20 5
v 1 20 6
v 1 23 6
v -1 22 -6
v -1 22 -5
v -1 26 -5
v -1 26 -6
v -1 24 -5
v -1 24 -4
v -1 28 -4
v -1 28 -5
v -1 25 -4
v -1 25 2
v -1 28 2
v -1 14 -2
v -1 14 0
v -1 15 0
v -1 15 -2
v -2 18 3
v -2 18 5
v -2 23 5
v -2 23 3
v -2 20 5
v -2 20 6
v -2 23 6
v -3 17 -5
v -3 17 -4
v -3 21 -4
v -3 21 -5
v -3 24 -4
v -3 24 -5
v -3 15 -4
v -3 15 1
v -3 16 1
v -3 16 -4
v -3 16 -3
v -3 17 -3
v -3 24 3
v -3 25 3
v -3 25 -4
v -3 7 -3
v -3 7 -2
v -3 9 -2
v -3 9 -3
v -3 9 1
v -3 12 1
v -3 12 -3
v -3 14 1
v -3 14 -3
v -3 7 0
v -3 9 0
v -3 7 1
v -4 17 -4
v -4 17 -3
v -4 21 -3
v -4 21 -4
v -4 24 -3
v -4 24 -4
v -4 16 -3
v -4 16 3
v -4 17 3
v -4 22 -3
v -4 22 2
v -4 23 2
v -4 23 -3
v -4 23 -2
v -4 24 -2
v -4 23 -1
v -4 24 -1
v -4 23 0
v -4 24 0
v -4 23 3
v -4 24 3
v -4 17 1
v -4 18 3
v -4 18 1
v -4 18 2
v -4 19 3
v -4 19 2
v -4 22 3
v -5 17 -3
v -5 17 1
v -5 18 1
v -5 18 -3
v -5 18 -2
v -5 22 -2
v -5 22 -3
v -5 21 -2
v -5 21 5
v -5 22 5
v -5 18 0
v -5 18 2
v -5 19 2
v -5 19 0
v -5 19 1
v -5 19 3
v -5 20 3
v -5 20 1
v -5 20 2
v -5 20 5
v -5 21 2
v -6 18 -2
v -6 18 0
v -6 21 0
v -6 21 -2
v -6 19 0
v -6 19 1
v -6 21 1
v -6 20 1
v -6 20 2
v -6 21 2
v 6 21 -2
v 6 21 0
v 6 18 0
v 6 18 -2
v 6 21 1
v 6 19 1
v 6 19 0
v 6 21 2
v 6 20 2
v 6 20 1
v 5 18 -3
v 5 18 1
v 5 17 1
v 5 17 -3
v 5 22 -3
v 5 22 -2
v 5 18 -2
v 5 22 5
v 5 21 5
v 5 21 -2
v 5 19 0
v 5 19 2
v 5 18 2
v 5 18 0
v 5 20 1
v 5 20 3
v 5 19 3
v 5 19 1
v 5 21 2
v 5 20 5
v 5 20 2
v 4 21 -4
v 4 21 -3
v 4 17 -3
v 4 17 -4
v 4 24 -4
v 4 24 -3
v 4 17 3
v 4 16 3
v 4 16 -3
v 4 24 3
v 4 22 -3
v 4 18 1
v 4 18 3
v 4 17 1
v 4 19 2
v 4 19 3
v 4 18 2
v 3 21 -5
v 3 21 -4
v 3 17 -4
v 3 17 -5
v 3 22 -5
v 3 22 -4
v 3 24 -5
v 3 24 -4
v 3 16 -4
v 3 16 1
v 3 15 1
v 3 15 -4
v 3 17 -3
v 3 16 -3
v 3 25 -4
v 3 25 3
v 3 24 3
v 3 9 -3
v 3 9 -2
v 3 7 -2
v 3 7 -3
v 3 12 -3
v 3 12 1
v 3 9 1
v 3 14 -3
v 3 14 1
v 3 9 0
v 3 7 0
v 3 7 1
v 2 23 3
v 2 23 5
v 2 18 5
v 2 18 3
v 2 23 6
v 2 20 6
v 2 20 5
v 1 26 -6
v 1 26 -5
v 1 22 -5
v 1 22 -6
v 1 28 -5
v 1 28 -4
v 1 24 -4
v 1 24 -5
v 1 28 2
v 1 25 2
v 1 25 -4
v 1 15 -2
v 1 15 0
v 1 14 0
v 1 14 -2
v -1 23 3
v -1 23 5
v -1 18 5
v -1 18 3
v -1 23 6
v -1 20 6
v -1 20 5
v -4 22 5
v -4 20 5
v -4 20 3
v 2 24 3
v -3 23 3
v -2 22 3
v -3 22 3
v -3 18 -5
v 3 18 -5
v 2 18 -5
v 2 21 -5
v -3 22 -5
v 2 22 -5
v 2 24 -5
v 1 18 -5
v 1 20 -5
v 2 20 -5
v -3 20 -5
v 1 23 -5
v 2 23 -5
v -1 18 -5
v -1 20 -5
v -2 18 -5
v -2 20 -5
v -3 11 -3
v 3 11 -3
v 1 11 -3
v 1 12 -3
v 1 14 -3
v -1 11 -3
v -1 13 -3
v 1 13 -3
v -3 13 -3
v -1 12 -3
v -3 14 -2
v 3 14 -2
v 1 14 1
v -3 14 0
v -3 24 -2
v -3 24 -1
v -3 24 0
v 1 25 3
v -3 25 2
v 1 7 0
v 1 7 -2
v -1 7 0
v -1 7 -2
v 3 15 -2
v -3 15 -2
v 1 15 1
v -3 15 0
v 3 16 3
v -4 16 1
vt 0.9394531 0.5
vt 0.5292969 0.5
vt 0.7207031 0.5
vt 0.0410156 0.5
vt 0.7128906 0.5
vt 0.8730469 0.5
vt 0.9863281 0.5
vn -1 0 0
vn 1 0 0
vn 0 0 1
vn 0 0 -1
vn 0 1 0
vn 0 -1 0
f 1/1/1 2/1/1 3/1/1 4/1/1
f 5/1/1 6/1/1 7/1/1 8/1/1
f 9/1/1 10/1/1 11/1/1 7/1/1
f 12/1/1 13/1/1 14/1/1 15/1/1
f 16/1/1 17/1/1 18/1/1 19/1/1
f 20/1/1 21/1/1 22/1/1 18/1/1
f 23/1/1 24/1/1 25/1/1 26/1/1
f 27/1/1 28/1/1 29/1/1 30/1/1
f 31/1/1 32/1/1 33/1/1 29/1/1
f 34/2/1 35/2/1 36/2/1 37/2/1
f 37/3/1 36/3/1 38/3/1 39/3/1
f 40/4/1 41/4/1 42/4/1 43/4/1
f 43/4/1 44/4/1 45/4/1 35/4/1
f 38/3/1 46/3/1 47/3/1 48/3/1
f 49/1/1 50/1/1 51/1/1 52/1/1
f 52/3/1 53/3/1 54/3/1 55/3/1
f 55/1/1 54/1/1 56/1/1 57/1/1
f 50/3/1 58/3/1 59/3/1 51/3/1
f 58/1/1 60/1/1 53/1/1 59/1/1
f 61/2/1 62/2/1 63/2/1 64/2/1
f 64/3/1 63/3/1 65/3/1 66/3/1
f 67/3/1 68/3/1 69/3/1 62/3/1
f 70/3/1 71/3/1 72/3/1 73/3/1
f 73/3/1 74/3/1 75/3/1 65/3/1
f 74/5/1 76/5/1 77/5/1 75/5/1
f 76/3/1 78/3/1 79/3/1 77/3/1
f 78/5/1 80/5/1 81/5/1 79/5/1
f 82/3/1 69/3/1 83/3/1 84/3/1
f 85/3/1 83/3/1 86/3/1 87/3/1
f 71/5/1 88/5/1 80/5/1 72/5/1
f 89/1/1 90/1/1 91/1/1 92/1/1
f 92/1/1 93/1/1 94/1/1 95/1/1
f 96/1/1 97/1/1 98/1/1 94/1/1
f 99/1/1 100/1/1 101/1/1 102/1/1
f 103/1/1 104/1/1 105/1/1 106/1/1
f 107/1/1 108/1/1 97/1/1 109/1/1
f 110/6/1 111/6/1 112/6/1 113/6/1
f 114/6/1 115/6/1 116/6/1 112/6/1
f 117/6/1 118/6/1 119/6/1 116/6/1
f 120/6/2 121/6/2 122/6/2 123/6/2
f 121/6/2 124/6/2 125/6/2 126/6/2
f 124/6/2 127/6/2 128/6/2 129/6/2
f 130/1/2 131/1/2 132/1/2 133/1/2
f 134/1/2 135/1/2 136/1/2 130/1/2
f 135/1/2 137/1/2 138/1/2 139/1/2
f 140/1/2 141/1/2 142/1/2 143/1/2
f 144/1/2 145/1/2 146/1/2 147/1/2
f 148/1/2 138/1/2 149/1/2 150/1/2
f 151/2/2 152/2/2 153/2/2 154/2/2
f 155/3/2 156/3/2 152/3/2 151/3/2
f 153/3/2 157/3/2 158/3/2 159/3/2
f 156/3/2 160/3/2 4/3/2 161/3/2
f 162/3/2 163/3/2 157/3/2 164/3/2
f 165/3/2 166/3/2 163/3/2 167/3/2
f 168/2/2 169/2/2 170/2/2 171/2/2
f 172/3/2 173/3/2 169/3/2 168/3/2
f 174/5/2 175/5/2 173/5/2 172/5/2
f 176/4/2 177/4/2 178/4/2 179/4/2
f 170/4/2 180/4/2 181/4/2 176/4/2
f 182/3/2 183/3/2 184/3/2 175/3/2
f 185/1/2 186/1/2 187/1/2 188/1/2
f 189/3/2 190/3/2 191/3/2 185/3/2
f 192/1/2 193/1/2 190/1/2 189/1/2
f 186/3/2 194/3/2 195/3/2 187/3/2
f 194/1/2 191/1/2 196/1/2 195/1/2
f 197/1/2 198/1/2 199/1/2 200/1/2
f 198/1/2 201/1/2 202/1/2 203/1/2
f 204/1/2 205/1/2 206/1/2 207/1/2
f 208/1/2 209/1/2 210/1/2 211/1/2
f 209/1/2 212/1/2 213/1/2 214/1/2
f 215/1/2 216/1/2 217/1/2 218/1/2
f 219/1/2 220/1/2 221/1/2 222/1/2
f 220/1/2 223/1/2 224/1/2 225/1/2
f 88/1/2 226/1/2 227/1/2 228/1/2
f 126/6/3 140/6/3 143/6/3 122/6/3
f 216/1/3 25/1/3 24/1/3 217/1/3
f 102/6/3 114/6/3 111/6/3 99/6/3
f 129/6/3 144/6/3 147/6/3 125/6/3
f 131/1/3 162/1/3 164/1/3 132/1/3
f 191/1/3 53/1/3 60/1/3 196/1/3
f 190/3/3 54/3/3 53/3/3 191/3/3
f 193/1/3 56/1/3 54/1/3 190/1/3
f 177/4/3 42/4/3 41/4/3 178/4/3
f 84/1/3 91/1/3 90/1/3 82/1/3
f 106/6/3 117/6/3 115/6/3 103/6/3
f 127/6/3 148/6/3 150/6/3 128/6/3
f 141/1/3 165/1/3 167/1/3 142/1/3
f 212/1/3 22/1/3 21/1/3 213/1/3
f 87/1/3 101/1/3 100/1/3 85/1/3
f 109/6/3 119/6/3 118/6/3 107/6/3
f 145/1/3 1/1/3 166/1/3 146/1/3
f 163/3/3 83/3/3 68/3/3 158/3/3
f 160/3/3 229/3/3 200/3/3 163/3/3
f 183/3/3 47/3/3 46/3/3 184/3/3
f 229/3/3 46/3/3 230/3/3 197/3/3
f 8/3/3 219/3/3 222/3/3 5/3/3
f 231/3/3 88/3/3 83/3/3 27/3/3
f 30/3/3 230/3/3 232/3/3 231/3/3
f 46/5/3 81/5/3 88/5/3 232/5/3
f 228/1/3 105/1/3 104/1/3 86/1/3
f 137/1/3 3/1/3 2/1/3 149/1/3
f 203/1/3 9/1/3 6/1/3 199/1/3
f 225/1/3 31/1/3 28/1/3 221/1/3
f 226/1/3 98/1/3 108/1/3 227/1/3
f 201/1/3 11/1/3 10/1/3 202/1/3
f 223/1/3 33/1/3 32/1/3 224/1/3
f 207/1/4 12/1/4 15/1/4 204/1/4
f 171/2/4 34/2/4 233/2/4 234/2/4
f 234/2/4 235/2/4 236/2/4 168/2/4
f 168/3/4 37/3/4 237/3/4 172/3/4
f 172/5/4 238/5/4 239/5/4 174/5/4
f 235/7/4 240/7/4 241/7/4 242/7/4
f 242/2/4 243/2/4 37/2/4 236/2/4
f 238/3/4 206/3/4 244/3/4 245/3/4
f 245/5/4 244/5/4 211/5/4 239/5/4
f 240/2/4 246/2/4 247/2/4 241/2/4
f 205/1/4 14/1/4 19/1/4 208/1/4
f 246/7/4 248/7/4 249/7/4 247/7/4
f 13/3/4 237/3/4 39/3/4 16/3/4
f 248/2/4 233/2/4 243/2/4 249/2/4
f 154/2/4 170/2/4 169/2/4 151/2/4
f 151/3/4 169/3/4 175/3/4 155/3/4
f 179/4/4 40/4/4 35/4/4 170/4/4
f 175/3/4 210/3/4 214/3/4 182/3/4
f 17/3/4 38/3/4 48/3/4 20/3/4
f 35/2/4 61/2/4 64/2/4 36/2/4
f 36/3/4 64/3/4 66/3/4 38/3/4
f 133/1/4 153/1/4 161/1/4 134/1/4
f 159/3/4 181/3/4 180/3/4 153/3/4
f 188/1/4 49/1/4 52/1/4 185/1/4
f 185/3/4 52/3/4 250/3/4 251/3/4
f 251/3/4 252/3/4 253/3/4 189/3/4
f 189/1/4 253/1/4 254/1/4 192/1/4
f 252/6/4 255/6/4 256/6/4 257/6/4
f 257/1/4 258/1/4 57/1/4 254/1/4
f 255/3/4 250/3/4 55/3/4 259/3/4
f 259/1/4 55/1/4 258/1/4 256/1/4
f 44/3/4 67/3/4 62/3/4 45/3/4
f 62/1/4 89/1/4 95/1/4 70/1/4
f 123/6/4 136/6/4 139/6/4 120/6/4
f 218/1/4 23/1/4 26/1/4 215/1/4
f 93/6/4 110/6/4 113/6/4 96/6/4
f 192/1/5 57/1/5 260/1/5 261/1/5
f 261/1/5 218/1/5 262/1/5 193/1/5
f 217/1/5 263/1/5 56/1/5 262/1/5
f 23/1/5 260/1/5 263/1/5 24/1/5
f 120/6/5 139/6/5 148/6/5 127/6/5
f 96/6/5 113/6/5 119/6/5 109/6/5
f 134/1/5 161/1/5 3/1/5 137/1/5
f 70/1/5 95/1/5 98/1/5 226/1/5
f 197/1/5 8/1/5 11/1/5 201/1/5
f 219/1/5 30/1/5 33/1/5 223/1/5
f 155/3/5 175/3/5 184/3/5 160/3/5
f 174/5/5 211/5/5 210/5/5 175/5/5
f 16/3/5 39/3/5 38/3/5 17/3/5
f 38/3/5 66/3/5 75/3/5 264/3/5
f 264/5/5 75/5/5 77/5/5 265/5/5
f 265/3/5 77/3/5 79/3/5 266/3/5
f 266/5/5 79/5/5 81/5/5 46/5/5
f 182/3/5 214/3/5 267/3/5 183/3/5
f 213/3/5 268/3/5 47/3/5 267/3/5
f 20/3/5 48/3/5 268/3/5 21/3/5
f 204/1/5 15/1/5 14/1/5 205/1/5
f 208/1/5 19/1/5 22/1/5 212/1/5
f 187/1/6 50/1/6 49/1/6 188/1/6
f 195/3/6 269/3/6 270/3/6 187/3/6
f 196/1/6 60/1/6 58/1/6 195/1/6
f 269/1/6 271/1/6 272/1/6 270/1/6
f 271/3/6 58/3/6 50/3/6 272/3/6
f 273/4/6 274/4/6 40/4/6 179/4/6
f 178/4/6 275/4/6 215/4/6 273/4/6
f 275/4/6 41/4/6 276/4/6 216/4/6
f 25/4/6 276/4/6 274/4/6 26/4/6
f 158/3/6 277/3/6 181/3/6 159/3/6
f 277/3/6 68/3/6 278/3/6 177/3/6
f 42/3/6 278/3/6 67/3/6 44/3/6
f 132/1/6 164/1/6 153/1/6 133/1/6
f 153/2/6 180/2/6 170/2/6 154/2/6
f 170/2/6 35/2/6 34/2/6 171/2/6
f 45/2/6 62/2/6 61/2/6 35/2/6
f 82/1/6 90/1/6 89/1/6 62/1/6
f 122/6/6 143/6/6 136/6/6 123/6/6
f 142/1/6 167/1/6 162/1/6 131/1/6
f 199/1/6 6/1/6 5/1/6 200/1/6
f 221/1/6 28/1/6 27/1/6 222/1/6
f 85/1/6 100/1/6 91/1/6 84/1/6
f 99/6/6 111/6/6 110/6/6 93/6/6
f 125/6/6 147/6/6 140/6/6 126/6/6
f 146/1/6 166/1/6 165/1/6 141/1/6
f 86/1/6 104/1/6 101/1/6 87/1/6
f 103/6/6 115/6/6 114/6/6 102/6/6
f 128/6/6 150/6/6 144/6/6 129/6/6
f 149/1/6 2/1/6 1/1/6 145/1/6
f 202/1/6 10/1/6 9/1/6 203/1/6
f 224/1/6 32/1/6 31/1/6 225/1/6
f 227/1/6 108/1/6 105/1/6 228/1/6
f 107/6/6 118/6/6 117/6/6 106/6/6
f 206/1/6 13/1/6 12/1/6 207/1/6
