# MagicaVoxel @ Ephtracy

# group
o 

# material
mtllib Character-25.mtl
usemtl palette

# normals
vn -1 0 0
vn 1 0 0
vn 0 0 1
vn 0 0 -1
vn 0 -1 0
vn 0 1 0

# texcoords
vt 0.0371094 0.5
vt 0.0488281 0.5
vt 0.470703 0.5
vt 0.478516 0.5
vt 0.525391 0.5
vt 0.705078 0.5
vt 0.806641 0.5
vt 0.900391 0.5
vt 0.962891 0.5
vt 0.970703 0.5
vt 0.974609 0.5

# verts
v -5.6 0.6 -3.7
v -5.6 0.6 -3.9
v -5.6 0.8 -3.7
v -5.6 0.8 -3.9
v -5.6 0.9 -3.7
v -5.6 0.9 -3.9
v -5.6 1 -3.7
v -5.6 1 -3.9
v -5.6 1.4 -3.7
v -5.6 1.4 -3.9
v -5.6 2 -3.3
v -5.6 2 -3.8
v -5.6 2.1 -3.3
v -5.6 2.1 -3.8
v -5.5 1.6 -3.7
v -5.5 1.6 -3.8
v -5.5 1.7 -3.6
v -5.5 1.7 -3.7
v -5.5 1.7 -3.8
v -5.5 1.7 -4.1
v -5.5 1.9 -3.5
v -5.5 1.9 -3.6
v -5.5 1.9 -3.7
v -5.5 1.9 -3.8
v -5.5 2 -3.2
v -5.5 2 -3.3
v -5.5 2 -3.5
v -5.5 2 -3.8
v -5.5 2 -4.1
v -5.5 2.1 -3.2
v -5.5 2.1 -3.3
v -5.5 2.1 -3.4
v -5.5 2.1 -3.5
v -5.5 2.1 -3.8
v -5.5 2.2 -3.5
v -5.5 2.2 -4.1
v -5.5 2.3 -3.5
v -5.5 2.3 -4.1
v -5.5 2.4 -3.4
v -5.5 2.4 -3.5
v -5.5 2.4 -3.6
v -5.5 2.4 -4
v -5.5 2.4 -4.1
v -5.5 2.5 -3.6
v -5.5 2.5 -4
v -5.4 0 -3.6
v -5.4 0 -3.9
v -5.4 0.1 -3.6
v -5.4 0.1 -3.7
v -5.4 0.2 -3.7
v -5.4 0.2 -3.9
v -5.4 0.3 -3.7
v -5.4 0.3 -3.9
v -5.4 0.4 -3.7
v -5.4 0.4 -3.9
v -5.4 0.6 -3.7
v -5.4 0.6 -3.9
v -5.4 0.7 -3.6
v -5.4 0.7 -3.7
v -5.4 0.7 -3.9
v -5.4 0.7 -4
v -5.4 0.8 -3.6
v -5.4 0.8 -3.7
v -5.4 0.8 -3.9
v -5.4 0.8 -4
v -5.4 0.9 -3.6
v -5.4 0.9 -3.7
v -5.4 0.9 -3.9
v -5.4 1 -3.6
v -5.4 1 -3.7
v -5.4 1 -3.9
v -5.4 1 -4
v -5.4 1.4 -3.6
v -5.4 1.4 -3.7
v -5.4 1.4 -3.9
v -5.4 1.4 -4
v -5.4 1.5 -3.5
v -5.4 1.5 -3.7
v -5.4 1.5 -4
v -5.4 1.6 -3.5
v -5.4 1.6 -3.6
v -5.4 1.6 -3.7
v -5.4 1.6 -3.8
v -5.4 1.7 -3.6
v -5.4 1.7 -3.7
v -5.4 1.7 -3.8
v -5.4 1.7 -4
v -5.4 1.9 -3.4
v -5.4 1.9 -3.5
v -5.4 1.9 -3.6
v -5.4 2 -3.4
v -5.4 2 -3.5
v -5.4 2.4 -3.5
v -5.4 2.4 -3.6
v -5.4 2.4 -4
v -5.4 2.4 -4.1
v -5.4 2.5 -3.5
v -5.4 2.5 -3.6
v -5.4 2.5 -4
v -5.4 2.5 -4.1
v -5.3 1.4 -3.7
v -5.3 1.4 -4
v -5.3 1.5 -3.7
v -5.3 1.5 -4
v -5 0 -3.6
v -5 0 -3.9
v -5 0.1 -3.6
v -5 0.1 -3.7
v -5 0.2 -3.7
v -5 0.2 -3.9
v -5 0.3 -3.7
v -5 0.3 -3.9
v -5 0.4 -3.7
v -5 0.4 -3.9
v -5 0.7 -3.7
v -5 0.7 -3.9
v -5 1.9 -3.4
v -5 1.9 -3.5
v -5 2 -3.4
v -5 2 -3.5
v -5.2 0 -3.6
v -5.2 0 -3.9
v -5.2 0.1 -3.6
v -5.2 0.1 -3.7
v -5.2 0.2 -3.7
v -5.2 0.2 -3.9
v -5.2 0.3 -3.7
v -5.2 0.3 -3.9
v -5.2 0.4 -3.7
v -5.2 0.4 -3.9
v -5.2 0.7 -3.7
v -5.2 0.7 -3.9
v -5.2 1.9 -3.4
v -5.2 1.9 -3.5
v -5.2 2 -3.4
v -5.2 2 -3.5
v -4.9 1.4 -3.7
v -4.9 1.4 -4
v -4.9 1.5 -3.7
v -4.9 1.5 -4
v -4.8 0 -3.6
v -4.8 0 -3.9
v -4.8 0.1 -3.6
v -4.8 0.1 -3.7
v -4.8 0.2 -3.7
v -4.8 0.2 -3.9
v -4.8 0.3 -3.7
v -4.8 0.3 -3.9
v -4.8 0.4 -3.7
v -4.8 0.4 -3.9
v -4.8 0.6 -3.7
v -4.8 0.6 -3.9
v -4.8 0.7 -3.6
v -4.8 0.7 -3.7
v -4.8 0.7 -3.9
v -4.8 0.7 -4
v -4.8 0.8 -3.6
v -4.8 0.8 -3.7
v -4.8 0.8 -3.9
v -4.8 0.8 -4
v -4.8 0.9 -3.7
v -4.8 0.9 -3.9
v -4.8 1 -3.6
v -4.8 1 -3.7
v -4.8 1 -3.9
v -4.8 1 -4
v -4.8 1.4 -3.6
v -4.8 1.4 -3.7
v -4.8 1.4 -3.9
v -4.8 1.4 -4
v -4.8 1.5 -3.5
v -4.8 1.5 -3.7
v -4.8 1.5 -4
v -4.8 1.6 -3.5
v -4.8 1.6 -3.6
v -4.8 1.6 -3.7
v -4.8 1.6 -3.8
v -4.8 1.7 -3.6
v -4.8 1.7 -3.7
v -4.8 1.7 -3.8
v -4.8 1.7 -4
v -4.8 1.9 -3.4
v -4.8 1.9 -3.5
v -4.8 2 -3.4
v -4.8 2 -3.5
v -4.8 2 -3.6
v -4.8 2.4 -3.5
v -4.8 2.4 -3.6
v -4.8 2.4 -4
v -4.8 2.4 -4.1
v -4.8 2.5 -3.5
v -4.8 2.5 -3.6
v -4.8 2.5 -4
v -4.8 2.5 -4.1
v -4.7 1.6 -3.7
v -4.7 1.6 -3.8
v -4.7 1.7 -3.6
v -4.7 1.7 -3.7
v -4.7 1.7 -3.8
v -4.7 1.7 -4.1
v -4.7 1.9 -3.7
v -4.7 1.9 -3.8
v -4.7 2 -3.2
v -4.7 2 -3.3
v -4.7 2 -3.6
v -4.7 2 -3.8
v -4.7 2 -4.1
v -4.7 2.1 -3.2
v -4.7 2.1 -3.3
v -4.7 2.1 -3.4
v -4.7 2.1 -3.5
v -4.7 2.1 -3.8
v -4.7 2.2 -3.5
v -4.7 2.2 -4.1
v -4.7 2.3 -3.5
v -4.7 2.3 -4.1
v -4.7 2.4 -3.4
v -4.7 2.4 -3.5
v -4.7 2.4 -3.6
v -4.7 2.4 -4
v -4.7 2.4 -4.1
v -4.7 2.5 -3.6
v -4.7 2.5 -4
v -4.6 0.6 -3.7
v -4.6 0.6 -3.9
v -4.6 0.8 -3.7
v -4.6 0.8 -3.9
v -4.6 0.9 -3.7
v -4.6 0.9 -3.9
v -4.6 1 -3.7
v -4.6 1 -3.9
v -4.6 1.4 -3.7
v -4.6 1.4 -3.9
v -4.6 2 -3.3
v -4.6 2 -3.8
v -4.6 2.1 -3.3
v -4.6 2.1 -3.8
v -5.5 2 -3.2
v -5.5 2.1 -3.2
v -4.7 2 -3.2
v -4.7 2.1 -3.2
v -5.6 2 -3.3
v -5.6 2.1 -3.3
v -5.5 2 -3.3
v -5.5 2.1 -3.3
v -4.7 2 -3.3
v -4.7 2.1 -3.3
v -4.6 2 -3.3
v -4.6 2.1 -3.3
v -5.5 2.1 -3.4
v -5.5 2.4 -3.4
v -5.4 1.9 -3.4
v -5.4 2 -3.4
v -5.4 2.1 -3.4
v -5.4 2.3 -3.4
v -5.2 1.9 -3.4
v -5.2 2 -3.4
v -5.2 2.1 -3.4
v -5.2 2.3 -3.4
v -5 1.9 -3.4
v -5 2 -3.4
v -5 2.1 -3.4
v -5 2.3 -3.4
v -4.8 1.9 -3.4
v -4.8 2 -3.4
v -4.8 2.1 -3.4
v -4.8 2.3 -3.4
v -4.7 2.1 -3.4
v -4.7 2.4 -3.4
v -5.5 1.9 -3.5
v -5.5 2 -3.5
v -5.4 1.5 -3.5
v -5.4 1.6 -3.5
v -5.4 1.9 -3.5
v -5.4 2 -3.5
v -5.4 2.4 -3.5
v -5.4 2.5 -3.5
v -5.3 1.8 -3.5
v -5.3 1.9 -3.5
v -5.2 1.6 -3.5
v -5.2 1.7 -3.5
v -5.2 1.8 -3.5
v -5.2 1.9 -3.5
v -5.2 2 -3.5
v -5 1.6 -3.5
v -5 1.7 -3.5
v -5 1.8 -3.5
v -5 1.9 -3.5
v -5 2 -3.5
v -4.9 1.8 -3.5
v -4.9 1.9 -3.5
v -4.8 1.5 -3.5
v -4.8 1.6 -3.5
v -4.8 1.9 -3.5
v -4.8 2.4 -3.5
v -4.8 2.5 -3.5
v -5.5 1.7 -3.6
v -5.5 1.9 -3.6
v -5.5 2.4 -3.6
v -5.5 2.5 -3.6
v -5.4 0 -3.6
v -5.4 0.1 -3.6
v -5.4 0.7 -3.6
v -5.4 0.8 -3.6
v -5.4 0.9 -3.6
v -5.4 1 -3.6
v -5.4 1.4 -3.6
v -5.4 1.7 -3.6
v -5.4 1.9 -3.6
v -5.4 2.4 -3.6
v -5.4 2.5 -3.6
v -5.3 1 -3.6
v -5.3 1.1 -3.6
v -5.3 1.2 -3.6
v -5.3 1.4 -3.6
v -5.2 0 -3.6
v -5.2 0.1 -3.6
v -5.1 0.8 -3.6
v -5.1 0.9 -3.6
v -5.1 1 -3.6
v -5.1 1.2 -3.6
v -5.1 1.3 -3.6
v -5 0 -3.6
v -5 0.1 -3.6
v -5 0.8 -3.6
v -5 0.9 -3.6
v -5 1.3 -3.6
v -5 1.4 -3.6
v -4.9 1 -3.6
v -4.9 1.1 -3.6
v -4.9 1.2 -3.6
v -4.9 1.4 -3.6
v -4.8 0 -3.6
v -4.8 0.1 -3.6
v -4.8 0.7 -3.6
v -4.8 0.8 -3.6
v -4.8 1 -3.6
v -4.8 1.4 -3.6
v -4.8 1.7 -3.6
v -4.8 2 -3.6
v -4.8 2.4 -3.6
v -4.8 2.5 -3.6
v -4.7 1.7 -3.6
v -4.7 2 -3.6
v -4.7 2.4 -3.6
v -4.7 2.5 -3.6
v -5.6 0.6 -3.7
v -5.6 0.8 -3.7
v -5.6 0.9 -3.7
v -5.6 1 -3.7
v -5.6 1.4 -3.7
v -5.5 1.6 -3.7
v -5.5 1.7 -3.7
v -5.4 0.1 -3.7
v -5.4 0.2 -3.7
v -5.4 0.3 -3.7
v -5.4 0.4 -3.7
v -5.4 0.6 -3.7
v -5.4 0.7 -3.7
v -5.4 0.8 -3.7
v -5.4 0.9 -3.7
v -5.4 1 -3.7
v -5.4 1.4 -3.7
v -5.4 1.6 -3.7
v -5.4 1.7 -3.7
v -5.3 1.4 -3.7
v -5.3 1.5 -3.7
v -5.2 0.1 -3.7
v -5.2 0.2 -3.7
v -5.2 0.3 -3.7
v -5.2 0.4 -3.7
v -5.2 0.7 -3.7
v -5.2 1.4 -3.7
v -5.2 1.5 -3.7
v -5 0.1 -3.7
v -5 0.2 -3.7
v -5 0.3 -3.7
v -5 0.4 -3.7
v -5 0.7 -3.7
v -5 1.4 -3.7
v -5 1.5 -3.7
v -4.9 1.4 -3.7
v -4.9 1.5 -3.7
v -4.8 0.1 -3.7
v -4.8 0.2 -3.7
v -4.8 0.3 -3.7
v -4.8 0.4 -3.7
v -4.8 0.6 -3.7
v -4.8 0.7 -3.7
v -4.8 0.8 -3.7
v -4.8 0.9 -3.7
v -4.8 1 -3.7
v -4.8 1.4 -3.7
v -4.8 1.6 -3.7
v -4.8 1.7 -3.7
v -4.7 1.6 -3.7
v -4.7 1.7 -3.7
v -4.6 0.6 -3.7
v -4.6 0.8 -3.7
v -4.6 0.9 -3.7
v -4.6 1 -3.7
v -4.6 1.4 -3.7
v -5.6 2 -3.8
v -5.6 2.1 -3.8
v -5.5 1.6 -3.8
v -5.5 1.7 -3.8
v -5.5 2 -3.8
v -5.5 2.1 -3.8
v -5.4 1.6 -3.8
v -5.4 1.7 -3.8
v -4.8 1.6 -3.8
v -4.8 1.7 -3.8
v -4.7 1.6 -3.8
v -4.7 1.7 -3.8
v -4.7 2 -3.8
v -4.7 2.1 -3.8
v -4.6 2 -3.8
v -4.6 2.1 -3.8
v -5.6 0.6 -3.9
v -5.6 0.8 -3.9
v -5.6 0.9 -3.9
v -5.6 1 -3.9
v -5.6 1.4 -3.9
v -5.4 0 -3.9
v -5.4 0.2 -3.9
v -5.4 0.3 -3.9
v -5.4 0.4 -3.9
v -5.4 0.6 -3.9
v -5.4 0.7 -3.9
v -5.4 0.8 -3.9
v -5.4 0.9 -3.9
v -5.4 1 -3.9
v -5.4 1.4 -3.9
v -5.2 0 -3.9
v -5.2 0.2 -3.9
v -5.2 0.3 -3.9
v -5.2 0.4 -3.9
v -5.2 0.7 -3.9
v -5 0 -3.9
v -5 0.2 -3.9
v -5 0.3 -3.9
v -5 0.4 -3.9
v -5 0.7 -3.9
v -4.8 0 -3.9
v -4.8 0.2 -3.9
v -4.8 0.3 -3.9
v -4.8 0.4 -3.9
v -4.8 0.6 -3.9
v -4.8 0.7 -3.9
v -4.8 0.8 -3.9
v -4.8 0.9 -3.9
v -4.8 1 -3.9
v -4.8 1.4 -3.9
v -4.6 0.6 -3.9
v -4.6 0.8 -3.9
v -4.6 0.9 -3.9
v -4.6 1 -3.9
v -4.6 1.4 -3.9
v -5.5 2.4 -4
v -5.5 2.5 -4
v -5.4 0.7 -4
v -5.4 0.8 -4
v -5.4 1 -4
v -5.4 1.4 -4
v -5.4 1.5 -4
v -5.4 1.7 -4
v -5.4 2.4 -4
v -5.4 2.5 -4
v -5.3 1 -4
v -5.3 1.1 -4
v -5.3 1.2 -4
v -5.3 1.3 -4
v -5.3 1.4 -4
v -5.3 1.5 -4
v -5.1 1.2 -4
v -5.1 1.3 -4
v -5.1 1.4 -4
v -5 1.2 -4
v -5 1.3 -4
v -4.9 1 -4
v -4.9 1.1 -4
v -4.9 1.2 -4
v -4.9 1.4 -4
v -4.9 1.5 -4
v -4.8 0.7 -4
v -4.8 0.8 -4
v -4.8 1 -4
v -4.8 1.4 -4
v -4.8 1.5 -4
v -4.8 1.7 -4
v -4.8 2.4 -4
v -4.8 2.5 -4
v -4.7 2.4 -4
v -4.7 2.5 -4
v -5.5 1.7 -4.1
v -5.5 2 -4.1
v -5.5 2.2 -4.1
v -5.5 2.3 -4.1
v -5.5 2.4 -4.1
v -5.4 2.4 -4.1
v -5.4 2.5 -4.1
v -4.8 2.4 -4.1
v -4.8 2.5 -4.1
v -4.7 1.7 -4.1
v -4.7 2 -4.1
v -4.7 2.2 -4.1
v -4.7 2.3 -4.1
v -4.7 2.4 -4.1
v -5.4 0 -3.6
v -5.2 0 -3.6
v -5 0 -3.6
v -4.8 0 -3.6
v -5.4 0 -3.9
v -5.2 0 -3.9
v -5 0 -3.9
v -4.8 0 -3.9
v -5.6 0.6 -3.7
v -5.4 0.6 -3.7
v -4.8 0.6 -3.7
v -4.6 0.6 -3.7
v -5.6 0.6 -3.9
v -5.4 0.6 -3.9
v -4.8 0.6 -3.9
v -4.6 0.6 -3.9
v -5.4 0.7 -3.6
v -4.8 0.7 -3.6
v -5.4 0.7 -3.7
v -5.2 0.7 -3.7
v -5 0.7 -3.7
v -4.8 0.7 -3.7
v -5.4 0.7 -3.9
v -5.2 0.7 -3.9
v -5 0.7 -3.9
v -4.8 0.7 -3.9
v -5.4 0.7 -4
v -4.8 0.7 -4
v -5.4 1.5 -3.5
v -4.8 1.5 -3.5
v -5.3 1.5 -3.6
v -4.9 1.5 -3.6
v -5.4 1.5 -3.7
v -5.3 1.5 -3.7
v -5.2 1.5 -3.7
v -5 1.5 -3.7
v -4.9 1.5 -3.7
v -4.8 1.5 -3.7
v -5.4 1.5 -4
v -5.3 1.5 -4
v -4.9 1.5 -4
v -4.8 1.5 -4
v -5.5 1.6 -3.7
v -5.4 1.6 -3.7
v -4.8 1.6 -3.7
v -4.7 1.6 -3.7
v -5.5 1.6 -3.8
v -5.4 1.6 -3.8
v -4.8 1.6 -3.8
v -4.7 1.6 -3.8
v -5.5 1.7 -3.6
v -5.4 1.7 -3.6
v -4.8 1.7 -3.6
v -4.7 1.7 -3.6
v -5.5 1.7 -3.7
v -5.4 1.7 -3.7
v -4.8 1.7 -3.7
v -4.7 1.7 -3.7
v -5.5 1.7 -3.8
v -5.4 1.7 -3.8
v -4.8 1.7 -3.8
v -4.7 1.7 -3.8
v -5.4 1.7 -4
v -4.8 1.7 -4
v -5.5 1.7 -4.1
v -4.7 1.7 -4.1
v -5.4 1.9 -3.4
v -5.2 1.9 -3.4
v -5 1.9 -3.4
v -4.8 1.9 -3.4
v -5.5 1.9 -3.5
v -5.4 1.9 -3.5
v -5.3 1.9 -3.5
v -5.2 1.9 -3.5
v -5 1.9 -3.5
v -4.9 1.9 -3.5
v -4.8 1.9 -3.5
v -5.5 1.9 -3.6
v -5.4 1.9 -3.6
v -5.5 2 -3.2
v -4.7 2 -3.2
v -5.6 2 -3.3
v -5.5 2 -3.3
v -4.7 2 -3.3
v -4.6 2 -3.3
v -5.4 2 -3.4
v -5.2 2 -3.4
v -5 2 -3.4
v -4.8 2 -3.4
v -5.5 2 -3.5
v -5.4 2 -3.5
v -5.2 2 -3.5
v -5 2 -3.5
v -4.8 2 -3.5
v -4.8 2 -3.6
v -4.7 2 -3.6
v -5.6 2 -3.8
v -5.5 2 -3.8
v -4.7 2 -3.8
v -4.6 2 -3.8
v -5.4 0.1 -3.6
v -5.2 0.1 -3.6
v -5 0.1 -3.6
v -4.8 0.1 -3.6
v -5.4 0.1 -3.7
v -5.2 0.1 -3.7
v -5 0.1 -3.7
v -4.8 0.1 -3.7
v -5.4 1.4 -3.6
v -5.3 1.4 -3.6
v -5 1.4 -3.6
v -4.9 1.4 -3.6
v -4.8 1.4 -3.6
v -5.6 1.4 -3.7
v -5.4 1.4 -3.7
v -5.3 1.4 -3.7
v -5.2 1.4 -3.7
v -5 1.4 -3.7
v -4.9 1.4 -3.7
v -4.8 1.4 -3.7
v -4.6 1.4 -3.7
v -5.6 1.4 -3.9
v -5.4 1.4 -3.9
v -4.8 1.4 -3.9
v -4.6 1.4 -3.9
v -5.4 1.4 -4
v -5.3 1.4 -4
v -4.9 1.4 -4
v -4.8 1.4 -4
v -5.5 2.1 -3.2
v -4.7 2.1 -3.2
v -5.6 2.1 -3.3
v -5.5 2.1 -3.3
v -4.7 2.1 -3.3
v -4.6 2.1 -3.3
v -5.5 2.1 -3.4
v -5.4 2.1 -3.4
v -5.2 2.1 -3.4
v -5 2.1 -3.4
v -4.8 2.1 -3.4
v -4.7 2.1 -3.4
v -5.5 2.1 -3.5
v -4.7 2.1 -3.5
v -5.6 2.1 -3.8
v -5.5 2.1 -3.8
v -4.7 2.1 -3.8
v -4.6 2.1 -3.8
v -5.5 2.4 -3.4
v -4.7 2.4 -3.4
v -5.5 2.4 -3.5
v -5.4 2.4 -3.5
v -4.8 2.4 -3.5
v -4.7 2.4 -3.5
v -5.5 2.4 -3.6
v -5.4 2.4 -3.6
v -4.8 2.4 -3.6
v -4.7 2.4 -3.6
v -5.5 2.4 -4
v -5.4 2.4 -4
v -4.8 2.4 -4
v -4.7 2.4 -4
v -5.5 2.4 -4.1
v -5.4 2.4 -4.1
v -4.8 2.4 -4.1
v -4.7 2.4 -4.1
v -5.4 2.5 -3.5
v -4.8 2.5 -3.5
v -5.5 2.5 -3.6
v -5.4 2.5 -3.6
v -4.8 2.5 -3.6
v -4.7 2.5 -3.6
v -5.5 2.5 -4
v -5.4 2.5 -4
v -4.8 2.5 -4
v -4.7 2.5 -4
v -5.4 2.5 -4.1
v -4.8 2.5 -4.1

# faces
f 3/8/1 2/8/1 1/8/1
f 4/8/1 2/8/1 3/8/1
f 5/5/1 4/5/1 3/5/1
f 6/5/1 4/5/1 5/5/1
f 7/11/1 6/11/1 5/11/1
f 8/11/1 6/11/1 7/11/1
f 9/9/1 8/9/1 7/9/1
f 10/9/1 8/9/1 9/9/1
f 13/8/1 12/8/1 11/8/1
f 14/8/1 12/8/1 13/8/1
f 18/2/1 16/2/1 15/2/1
f 19/2/1 16/2/1 18/2/1
f 22/5/1 18/5/1 17/5/1
f 23/2/1 19/2/1 18/2/1
f 23/5/1 18/5/1 22/5/1
f 24/5/1 20/5/1 19/5/1
f 24/2/1 19/2/1 23/2/1
f 27/5/1 23/5/1 22/5/1
f 27/5/1 22/5/1 21/5/1
f 27/5/1 24/5/1 23/5/1
f 28/5/1 20/5/1 24/5/1
f 28/5/1 24/5/1 27/5/1
f 29/5/1 20/5/1 28/5/1
f 30/8/1 26/8/1 25/8/1
f 31/8/1 26/8/1 30/8/1
f 34/8/1 29/8/1 28/8/1
f 35/5/1 33/5/1 32/5/1
f 35/8/1 34/8/1 33/8/1
f 36/8/1 29/8/1 34/8/1
f 36/8/1 34/8/1 35/8/1
f 37/5/1 35/5/1 32/5/1
f 37/4/1 36/4/1 35/4/1
f 38/4/1 36/4/1 37/4/1
f 39/5/1 37/5/1 32/5/1
f 40/8/1 38/8/1 37/8/1
f 40/5/1 37/5/1 39/5/1
f 41/8/1 38/8/1 40/8/1
f 42/8/1 38/8/1 41/8/1
f 43/8/1 38/8/1 42/8/1
f 44/8/1 42/8/1 41/8/1
f 45/8/1 42/8/1 44/8/1
f 48/5/1 47/5/1 46/5/1
f 49/5/1 47/5/1 48/5/1
f 50/5/1 47/5/1 49/5/1
f 51/5/1 47/5/1 50/5/1
f 52/7/1 51/7/1 50/7/1
f 53/7/1 51/7/1 52/7/1
f 54/3/1 53/3/1 52/3/1
f 55/3/1 53/3/1 54/3/1
f 56/9/1 55/9/1 54/9/1
f 57/9/1 55/9/1 56/9/1
f 62/7/1 59/7/1 58/7/1
f 63/7/1 59/7/1 62/7/1
f 64/7/1 61/7/1 60/7/1
f 65/7/1 61/7/1 64/7/1
f 66/9/1 63/9/1 62/9/1
f 67/9/1 63/9/1 66/9/1
f 68/9/1 65/9/1 64/9/1
f 69/3/1 67/3/1 66/3/1
f 70/3/1 67/3/1 69/3/1
f 71/9/1 65/9/1 68/9/1
f 72/9/1 65/9/1 71/9/1
f 73/5/1 70/5/1 69/5/1
f 74/5/1 70/5/1 73/5/1
f 75/5/1 72/5/1 71/5/1
f 76/5/1 72/5/1 75/5/1
f 80/5/1 78/5/1 77/5/1
f 81/5/1 78/5/1 80/5/1
f 82/1/1 79/1/1 78/1/1
f 82/5/1 78/5/1 81/5/1
f 83/1/1 79/1/1 82/1/1
f 84/1/1 81/1/1 80/1/1
f 84/5/1 82/5/1 81/5/1
f 85/5/1 82/5/1 84/5/1
f 86/1/1 79/1/1 83/1/1
f 87/1/1 79/1/1 86/1/1
f 89/1/1 84/1/1 80/1/1
f 90/1/1 84/1/1 89/1/1
f 91/5/1 89/5/1 88/5/1
f 92/5/1 89/5/1 91/5/1
f 97/8/1 94/8/1 93/8/1
f 98/8/1 94/8/1 97/8/1
f 99/8/1 96/8/1 95/8/1
f 100/8/1 96/8/1 99/8/1
f 103/3/1 102/3/1 101/3/1
f 104/3/1 102/3/1 103/3/1
f 107/5/1 106/5/1 105/5/1
f 108/5/1 106/5/1 107/5/1
f 109/5/1 106/5/1 108/5/1
f 110/5/1 106/5/1 109/5/1
f 111/7/1 110/7/1 109/7/1
f 112/7/1 110/7/1 111/7/1
f 113/3/1 112/3/1 111/3/1
f 114/3/1 112/3/1 113/3/1
f 115/9/1 114/9/1 113/9/1
f 116/9/1 114/9/1 115/9/1
f 119/5/1 118/5/1 117/5/1
f 120/5/1 118/5/1 119/5/1
f 121/5/2 122/5/2 123/5/2
f 123/5/2 122/5/2 124/5/2
f 124/5/2 122/5/2 125/5/2
f 125/5/2 122/5/2 126/5/2
f 125/7/2 126/7/2 127/7/2
f 127/7/2 126/7/2 128/7/2
f 127/3/2 128/3/2 129/3/2
f 129/3/2 128/3/2 130/3/2
f 129/9/2 130/9/2 131/9/2
f 131/9/2 130/9/2 132/9/2
f 133/5/2 134/5/2 135/5/2
f 135/5/2 134/5/2 136/5/2
f 137/3/2 138/3/2 139/3/2
f 139/3/2 138/3/2 140/3/2
f 141/5/2 142/5/2 143/5/2
f 143/5/2 142/5/2 144/5/2
f 144/5/2 142/5/2 145/5/2
f 145/5/2 142/5/2 146/5/2
f 145/7/2 146/7/2 147/7/2
f 147/7/2 146/7/2 148/7/2
f 147/3/2 148/3/2 149/3/2
f 149/3/2 148/3/2 150/3/2
f 149/9/2 150/9/2 151/9/2
f 151/9/2 150/9/2 152/9/2
f 153/7/2 154/7/2 157/7/2
f 157/7/2 154/7/2 158/7/2
f 155/7/2 156/7/2 159/7/2
f 159/7/2 156/7/2 160/7/2
f 157/9/2 158/9/2 161/9/2
f 159/9/2 160/9/2 162/9/2
f 157/9/2 161/9/2 163/9/2
f 163/9/2 161/9/2 164/9/2
f 162/9/2 160/9/2 165/9/2
f 165/9/2 160/9/2 166/9/2
f 163/5/2 164/5/2 167/5/2
f 167/5/2 164/5/2 168/5/2
f 165/5/2 166/5/2 169/5/2
f 169/5/2 166/5/2 170/5/2
f 171/5/2 172/5/2 174/5/2
f 174/5/2 172/5/2 175/5/2
f 172/1/2 173/1/2 176/1/2
f 175/5/2 172/5/2 176/5/2
f 176/1/2 173/1/2 177/1/2
f 174/1/2 175/1/2 178/1/2
f 175/5/2 176/5/2 178/5/2
f 178/5/2 176/5/2 179/5/2
f 177/1/2 173/1/2 180/1/2
f 180/1/2 173/1/2 181/1/2
f 174/1/2 178/1/2 183/1/2
f 182/5/2 183/5/2 184/5/2
f 183/1/2 178/1/2 185/1/2
f 184/5/2 183/5/2 185/5/2
f 185/1/2 178/1/2 186/1/2
f 187/8/2 188/8/2 191/8/2
f 191/8/2 188/8/2 192/8/2
f 189/8/2 190/8/2 193/8/2
f 193/8/2 190/8/2 194/8/2
f 195/2/2 196/2/2 198/2/2
f 198/2/2 196/2/2 199/2/2
f 197/5/2 198/5/2 201/5/2
f 198/2/2 199/2/2 201/2/2
f 199/5/2 200/5/2 202/5/2
f 201/2/2 199/2/2 202/2/2
f 197/5/2 201/5/2 205/5/2
f 201/5/2 202/5/2 205/5/2
f 202/5/2 200/5/2 206/5/2
f 205/5/2 202/5/2 206/5/2
f 206/5/2 200/5/2 207/5/2
f 203/8/2 204/8/2 208/8/2
f 208/8/2 204/8/2 209/8/2
f 206/8/2 207/8/2 212/8/2
f 210/5/2 211/5/2 213/5/2
f 211/8/2 212/8/2 213/8/2
f 212/8/2 207/8/2 214/8/2
f 213/8/2 212/8/2 214/8/2
f 210/5/2 213/5/2 215/5/2
f 213/4/2 214/4/2 215/4/2
f 215/4/2 214/4/2 216/4/2
f 210/5/2 215/5/2 217/5/2
f 215/8/2 216/8/2 218/8/2
f 217/5/2 215/5/2 218/5/2
f 218/8/2 216/8/2 219/8/2
f 219/8/2 216/8/2 220/8/2
f 220/8/2 216/8/2 221/8/2
f 219/8/2 220/8/2 222/8/2
f 222/8/2 220/8/2 223/8/2
f 224/8/2 225/8/2 226/8/2
f 226/8/2 225/8/2 227/8/2
f 226/5/2 227/5/2 228/5/2
f 228/5/2 227/5/2 229/5/2
f 228/11/2 229/11/2 230/11/2
f 230/11/2 229/11/2 231/11/2
f 230/9/2 231/9/2 232/9/2
f 232/9/2 231/9/2 233/9/2
f 234/8/2 235/8/2 236/8/2
f 236/8/2 235/8/2 237/8/2
f 240/8/3 239/8/3 238/8/3
f 241/8/3 239/8/3 240/8/3
f 244/8/3 243/8/3 242/8/3
f 245/8/3 243/8/3 244/8/3
f 248/8/3 247/8/3 246/8/3
f 249/8/3 247/8/3 248/8/3
f 254/5/3 251/5/3 250/5/3
f 255/5/3 251/5/3 254/5/3
f 256/5/3 253/5/3 252/5/3
f 257/5/3 253/5/3 256/5/3
f 258/6/3 255/6/3 254/6/3
f 259/5/3 251/5/3 255/5/3
f 259/6/3 255/6/3 258/6/3
f 262/5/3 259/5/3 258/5/3
f 263/5/3 251/5/3 259/5/3
f 263/5/3 259/5/3 262/5/3
f 264/5/3 261/5/3 260/5/3
f 265/5/3 261/5/3 264/5/3
f 266/6/3 263/6/3 262/6/3
f 267/5/3 251/5/3 263/5/3
f 267/6/3 263/6/3 266/6/3
f 268/5/3 267/5/3 266/5/3
f 269/5/3 251/5/3 267/5/3
f 269/5/3 267/5/3 268/5/3
f 274/5/3 271/5/3 270/5/3
f 275/5/3 271/5/3 274/5/3
f 278/1/3 274/1/3 273/1/3
f 279/1/3 274/1/3 278/1/3
f 280/5/3 273/5/3 272/5/3
f 280/1/3 278/1/3 273/1/3
f 281/1/3 278/1/3 280/1/3
f 282/5/3 279/5/3 278/5/3
f 282/1/3 278/1/3 281/1/3
f 283/5/3 279/5/3 282/5/3
f 285/10/3 281/10/3 280/10/3
f 285/5/3 280/5/3 272/5/3
f 286/1/3 283/1/3 282/1/3
f 286/10/3 281/10/3 285/10/3
f 286/1/3 284/1/3 283/1/3
f 286/1/3 282/1/3 281/1/3
f 287/1/3 284/1/3 286/1/3
f 288/1/3 284/1/3 287/1/3
f 289/1/3 284/1/3 288/1/3
f 290/1/3 286/1/3 285/1/3
f 290/1/3 287/1/3 286/1/3
f 290/5/3 288/5/3 287/5/3
f 291/5/3 288/5/3 290/5/3
f 292/5/3 285/5/3 272/5/3
f 293/1/3 290/1/3 285/1/3
f 293/5/3 285/5/3 292/5/3
f 293/1/3 291/1/3 290/1/3
f 294/1/3 291/1/3 293/1/3
f 295/8/3 277/8/3 276/8/3
f 296/8/3 277/8/3 295/8/3
f 308/5/3 298/5/3 297/5/3
f 309/5/3 298/5/3 308/5/3
f 310/8/3 300/8/3 299/8/3
f 311/8/3 300/8/3 310/8/3
f 312/5/3 307/5/3 306/5/3
f 312/3/3 306/3/3 305/3/3
f 313/5/3 307/5/3 312/5/3
f 314/5/3 307/5/3 313/5/3
f 315/5/3 307/5/3 314/5/3
f 316/5/3 302/5/3 301/5/3
f 317/5/3 302/5/3 316/5/3
f 318/7/3 304/7/3 303/7/3
f 318/9/3 305/9/3 304/9/3
f 319/3/3 312/3/3 305/3/3
f 319/9/3 305/9/3 318/9/3
f 320/7/3 313/7/3 312/7/3
f 320/3/3 312/3/3 319/3/3
f 321/9/3 315/9/3 314/9/3
f 321/11/3 314/11/3 313/11/3
f 322/9/3 315/9/3 321/9/3
f 325/7/3 318/7/3 303/7/3
f 325/3/3 319/3/3 318/3/3
f 326/9/3 320/9/3 319/9/3
f 326/3/3 319/3/3 325/3/3
f 327/9/3 315/9/3 322/9/3
f 327/3/3 322/3/3 321/3/3
f 328/9/3 315/9/3 327/9/3
f 329/7/3 313/7/3 320/7/3
f 329/9/3 320/9/3 326/9/3
f 329/9/3 326/9/3 325/9/3
f 330/11/3 321/11/3 313/11/3
f 330/7/3 313/7/3 329/7/3
f 331/3/3 328/3/3 327/3/3
f 331/11/3 321/11/3 330/11/3
f 331/3/3 327/3/3 321/3/3
f 332/3/3 328/3/3 331/3/3
f 333/5/3 324/5/3 323/5/3
f 334/5/3 324/5/3 333/5/3
f 335/7/3 325/7/3 303/7/3
f 336/9/3 329/9/3 325/9/3
f 336/7/3 325/7/3 335/7/3
f 337/5/3 330/5/3 329/5/3
f 337/9/3 329/9/3 336/9/3
f 337/5/3 331/5/3 330/5/3
f 337/5/3 332/5/3 331/5/3
f 338/5/3 332/5/3 337/5/3
f 343/5/3 340/5/3 339/5/3
f 344/5/3 340/5/3 343/5/3
f 345/8/3 342/8/3 341/8/3
f 346/8/3 342/8/3 345/8/3
f 358/8/3 348/8/3 347/8/3
f 359/8/3 348/8/3 358/8/3
f 360/5/3 349/5/3 348/5/3
f 360/8/3 348/8/3 359/8/3
f 361/11/3 350/11/3 349/11/3
f 361/5/3 349/5/3 360/5/3
f 362/9/3 351/9/3 350/9/3
f 362/11/3 350/11/3 361/11/3
f 363/9/3 351/9/3 362/9/3
f 364/2/3 353/2/3 352/2/3
f 365/2/3 353/2/3 364/2/3
f 368/5/3 355/5/3 354/5/3
f 369/7/3 356/7/3 355/7/3
f 369/5/3 355/5/3 368/5/3
f 370/3/3 357/3/3 356/3/3
f 370/7/3 356/7/3 369/7/3
f 371/9/3 359/9/3 358/9/3
f 371/3/3 357/3/3 370/3/3
f 371/9/3 358/9/3 357/9/3
f 372/9/3 359/9/3 371/9/3
f 373/3/3 367/3/3 366/3/3
f 374/3/3 367/3/3 373/3/3
f 380/1/3 374/1/3 373/1/3
f 381/1/3 374/1/3 380/1/3
f 382/3/3 381/3/3 380/3/3
f 383/3/3 381/3/3 382/3/3
f 384/5/3 376/5/3 375/5/3
f 385/7/3 377/7/3 376/7/3
f 385/5/3 376/5/3 384/5/3
f 386/3/3 378/3/3 377/3/3
f 386/7/3 377/7/3 385/7/3
f 387/9/3 379/9/3 378/9/3
f 387/3/3 378/3/3 386/3/3
f 388/9/3 379/9/3 387/9/3
f 389/9/3 379/9/3 388/9/3
f 396/2/3 395/2/3 394/2/3
f 397/2/3 395/2/3 396/2/3
f 398/8/3 390/8/3 389/8/3
f 398/8/3 389/8/3 388/8/3
f 399/5/3 391/5/3 390/5/3
f 399/8/3 390/8/3 398/8/3
f 400/11/3 392/11/3 391/11/3
f 400/5/3 391/5/3 399/5/3
f 401/9/3 393/9/3 392/9/3
f 401/11/3 392/11/3 400/11/3
f 402/9/3 393/9/3 401/9/3
f 403/8/4 404/8/4 407/8/4
f 407/8/4 404/8/4 408/8/4
f 405/2/4 406/2/4 409/2/4
f 409/2/4 406/2/4 410/2/4
f 411/2/4 412/2/4 413/2/4
f 413/2/4 412/2/4 414/2/4
f 415/8/4 416/8/4 417/8/4
f 417/8/4 416/8/4 418/8/4
f 419/8/4 420/8/4 428/8/4
f 428/8/4 420/8/4 429/8/4
f 420/5/4 421/5/4 430/5/4
f 429/8/4 420/8/4 430/8/4
f 421/11/4 422/11/4 431/11/4
f 430/5/4 421/5/4 431/5/4
f 422/9/4 423/9/4 432/9/4
f 431/11/4 422/11/4 432/11/4
f 432/9/4 423/9/4 433/9/4
f 424/5/4 425/5/4 434/5/4
f 425/7/4 426/7/4 435/7/4
f 434/5/4 425/5/4 435/5/4
f 426/3/4 427/3/4 436/3/4
f 435/7/4 426/7/4 436/7/4
f 428/9/4 429/9/4 437/9/4
f 436/3/4 427/3/4 437/3/4
f 427/9/4 428/9/4 437/9/4
f 437/9/4 429/9/4 438/9/4
f 439/5/4 440/5/4 444/5/4
f 440/7/4 441/7/4 445/7/4
f 444/5/4 440/5/4 445/5/4
f 441/3/4 442/3/4 446/3/4
f 445/7/4 441/7/4 446/7/4
f 442/9/4 443/9/4 447/9/4
f 446/3/4 442/3/4 447/3/4
f 447/9/4 443/9/4 448/9/4
f 448/9/4 443/9/4 449/9/4
f 448/8/4 449/8/4 454/8/4
f 449/8/4 450/8/4 454/8/4
f 450/5/4 451/5/4 455/5/4
f 454/8/4 450/8/4 455/8/4
f 451/11/4 452/11/4 456/11/4
f 455/5/4 451/5/4 456/5/4
f 452/9/4 453/9/4 457/9/4
f 456/11/4 452/11/4 457/11/4
f 457/9/4 453/9/4 458/9/4
f 459/8/4 460/8/4 467/8/4
f 467/8/4 460/8/4 468/8/4
f 462/9/4 463/9/4 469/9/4
f 463/5/4 464/5/4 469/5/4
f 469/5/4 464/5/4 470/5/4
f 470/5/4 464/5/4 471/5/4
f 471/5/4 464/5/4 472/5/4
f 472/5/4 464/5/4 473/5/4
f 465/1/4 466/1/4 474/1/4
f 470/11/4 471/11/4 475/11/4
f 471/9/4 472/9/4 475/9/4
f 472/3/4 473/3/4 476/3/4
f 475/9/4 472/9/4 476/9/4
f 473/3/4 474/3/4 476/3/4
f 476/3/4 474/3/4 477/3/4
f 470/11/4 475/11/4 478/11/4
f 475/3/4 476/3/4 478/3/4
f 476/9/4 477/9/4 479/9/4
f 478/3/4 476/3/4 479/3/4
f 462/9/4 469/9/4 480/9/4
f 469/7/4 470/7/4 480/7/4
f 470/11/4 478/11/4 481/11/4
f 480/7/4 470/7/4 481/7/4
f 478/9/4 479/9/4 482/9/4
f 481/11/4 478/11/4 482/11/4
f 477/3/4 474/3/4 483/3/4
f 482/9/4 479/9/4 483/9/4
f 479/9/4 477/9/4 483/9/4
f 474/1/4 466/1/4 484/1/4
f 483/3/4 474/3/4 484/3/4
f 461/7/4 462/7/4 485/7/4
f 462/9/4 480/9/4 486/9/4
f 485/7/4 462/7/4 486/7/4
f 481/5/4 482/5/4 487/5/4
f 486/9/4 480/9/4 487/9/4
f 480/5/4 481/5/4 487/5/4
f 482/5/4 483/5/4 487/5/4
f 487/5/4 483/5/4 488/5/4
f 484/1/4 466/1/4 489/1/4
f 489/1/4 466/1/4 490/1/4
f 491/8/4 492/8/4 493/8/4
f 493/8/4 492/8/4 494/8/4
f 498/8/4 499/8/4 500/8/4
f 498/8/4 500/8/4 502/8/4
f 500/8/4 501/8/4 502/8/4
f 502/8/4 501/8/4 503/8/4
f 495/5/4 496/5/4 504/5/4
f 496/8/4 497/8/4 505/8/4
f 504/5/4 496/5/4 505/5/4
f 497/4/4 498/4/4 506/4/4
f 505/8/4 497/8/4 506/8/4
f 498/8/4 502/8/4 507/8/4
f 506/4/4 498/4/4 507/4/4
f 507/8/4 502/8/4 508/8/4
f 513/5/5 510/5/5 509/5/5
f 514/5/5 510/5/5 513/5/5
f 515/5/5 512/5/5 511/5/5
f 516/5/5 512/5/5 515/5/5
f 521/8/5 518/8/5 517/8/5
f 522/8/5 518/8/5 521/8/5
f 523/8/5 520/8/5 519/8/5
f 524/8/5 520/8/5 523/8/5
f 527/7/5 526/7/5 525/7/5
f 528/7/5 526/7/5 527/7/5
f 529/7/5 526/7/5 528/7/5
f 530/7/5 526/7/5 529/7/5
f 532/7/5 529/7/5 528/7/5
f 533/7/5 529/7/5 532/7/5
f 535/7/5 532/7/5 531/7/5
f 535/7/5 534/7/5 533/7/5
f 535/7/5 533/7/5 532/7/5
f 536/7/5 534/7/5 535/7/5
f 539/5/5 538/5/5 537/5/5
f 540/5/5 538/5/5 539/5/5
f 541/5/5 539/5/5 537/5/5
f 542/1/5 540/1/5 539/1/5
f 542/5/5 539/5/5 541/5/5
f 543/1/5 540/1/5 542/1/5
f 544/1/5 540/1/5 543/1/5
f 545/5/5 538/5/5 540/5/5
f 545/1/5 540/1/5 544/1/5
f 546/5/5 538/5/5 545/5/5
f 547/1/5 542/1/5 541/1/5
f 548/1/5 542/1/5 547/1/5
f 549/1/5 546/1/5 545/1/5
f 550/1/5 546/1/5 549/1/5
f 555/2/5 552/2/5 551/2/5
f 556/2/5 552/2/5 555/2/5
f 557/2/5 554/2/5 553/2/5
f 558/2/5 554/2/5 557/2/5
f 563/5/5 560/5/5 559/5/5
f 564/5/5 560/5/5 563/5/5
f 565/5/5 562/5/5 561/5/5
f 566/5/5 562/5/5 565/5/5
f 571/5/5 568/5/5 567/5/5
f 572/5/5 570/5/5 569/5/5
f 573/5/5 571/5/5 567/5/5
f 573/5/5 572/5/5 571/5/5
f 574/5/5 570/5/5 572/5/5
f 574/5/5 572/5/5 573/5/5
f 580/5/5 576/5/5 575/5/5
f 581/5/5 576/5/5 580/5/5
f 582/5/5 576/5/5 581/5/5
f 583/5/5 578/5/5 577/5/5
f 584/5/5 578/5/5 583/5/5
f 585/5/5 578/5/5 584/5/5
f 586/5/5 580/5/5 579/5/5
f 587/5/5 580/5/5 586/5/5
f 591/8/5 589/8/5 588/8/5
f 592/8/5 589/8/5 591/8/5
f 594/8/5 591/8/5 590/8/5
f 594/8/5 593/8/5 592/8/5
f 594/8/5 592/8/5 591/8/5
f 595/8/5 593/8/5 594/8/5
f 596/8/5 593/8/5 595/8/5
f 597/8/5 593/8/5 596/8/5
f 598/8/5 594/8/5 590/8/5
f 599/8/5 594/8/5 598/8/5
f 600/8/5 596/8/5 595/8/5
f 601/8/5 596/8/5 600/8/5
f 602/8/5 593/8/5 597/8/5
f 603/8/5 593/8/5 602/8/5
f 604/8/5 593/8/5 603/8/5
f 605/8/5 598/8/5 590/8/5
f 606/8/5 598/8/5 605/8/5
f 607/8/5 593/8/5 604/8/5
f 608/8/5 593/8/5 607/8/5
f 609/5/6 610/5/6 613/5/6
f 613/5/6 610/5/6 614/5/6
f 611/5/6 612/5/6 615/5/6
f 615/5/6 612/5/6 616/5/6
f 617/5/6 618/5/6 623/5/6
f 618/9/6 619/9/6 624/9/6
f 623/5/6 618/5/6 624/5/6
f 624/9/6 619/9/6 625/9/6
f 619/3/6 620/3/6 626/3/6
f 625/9/6 619/9/6 626/9/6
f 620/5/6 621/5/6 627/5/6
f 626/3/6 620/3/6 627/3/6
f 627/5/6 621/5/6 628/5/6
f 622/9/6 623/9/6 630/9/6
f 623/5/6 624/5/6 631/5/6
f 630/9/6 623/9/6 631/9/6
f 628/9/6 629/9/6 632/9/6
f 627/5/6 628/5/6 632/5/6
f 632/9/6 629/9/6 633/9/6
f 631/5/6 624/5/6 634/5/6
f 634/5/6 624/5/6 635/5/6
f 627/5/6 632/5/6 636/5/6
f 636/5/6 632/5/6 637/5/6
f 638/8/6 639/8/6 641/8/6
f 641/8/6 639/8/6 642/8/6
f 640/8/6 641/8/6 644/8/6
f 642/8/6 643/8/6 644/8/6
f 641/8/6 642/8/6 644/8/6
f 644/8/6 643/8/6 645/8/6
f 645/8/6 643/8/6 646/8/6
f 646/8/6 643/8/6 647/8/6
f 647/8/6 643/8/6 648/8/6
f 648/8/6 643/8/6 649/8/6
f 640/8/6 644/8/6 650/8/6
f 649/8/6 643/8/6 651/8/6
f 640/8/6 650/8/6 652/8/6
f 652/8/6 650/8/6 653/8/6
f 651/8/6 643/8/6 654/8/6
f 654/8/6 643/8/6 655/8/6
f 656/5/6 657/5/6 658/5/6
f 658/5/6 657/5/6 659/5/6
f 659/5/6 657/5/6 660/5/6
f 660/5/6 657/5/6 661/5/6
f 658/8/6 659/8/6 662/8/6
f 662/8/6 659/8/6 663/8/6
f 660/8/6 661/8/6 664/8/6
f 664/8/6 661/8/6 665/8/6
f 666/8/6 667/8/6 670/8/6
f 670/8/6 667/8/6 671/8/6
f 668/8/6 669/8/6 672/8/6
f 672/8/6 669/8/6 673/8/6
f 674/8/6 675/8/6 677/8/6
f 677/8/6 675/8/6 678/8/6
f 676/8/6 677/8/6 680/8/6
f 678/8/6 679/8/6 680/8/6
f 677/8/6 678/8/6 680/8/6
f 680/8/6 679/8/6 681/8/6
f 681/8/6 679/8/6 682/8/6
f 682/8/6 679/8/6 683/8/6
f 681/8/6 682/8/6 684/8/6
f 684/8/6 682/8/6 685/8/6
